<?xml version="1.0" encoding="UTF-8"?><svg id="a" xmlns="http://www.w3.org/2000/svg" viewBox="0 0 265.2718 49.6872"><path d="M25.814,31.1087S4.438,40.761,1.0099,21.6454C.1107,16.631,3.7577,10.7889,10.4153,7.6503c5.5108-2.598,12.9313-2.5039,18.9074-1.3188,33.0141,6.5468,45.5135,34.6357,93.3471,36.5648,13.8439-.6677,31.0317-3.5627,30.3184-15.4322-.218-3.6268-1.4118-6.2617-2.9648-8.1723-2.8684-3.5289-7.4759-4.6155-12.0065-4.2221-9.5098.8259-16.8935-3.7897-14.3766-10.5908,2.2487-4.6947,10.1932-2.9745,10.343,1.2269.1498,4.2014-3.2175,3.8766-3.2175,3.8766,0,0-3.7002-.1679-1.7224-3.8262" style="fill:none; stroke:#ceb53a; stroke-miterlimit:10; stroke-width:1.75px;"/><path d="M102.5146,17.4897s-3.4924-19.8357,29.1004-5.4731c25.0019,19.894,36.1866,29.8106,45.9979,32.6714,9.8113,2.8608,20.2288-1.5078,21.0137-6.9771.785-5.4693-14.185-13.0589-14.185-13.0589,0,0-16.3015-6.9619-12.1801-14.3296,4.1213-7.3677,17.9741,1.0741,17.9741,1.0741,0,0,63.4115,39.0005,72.6737,18.1428,2.3156-5.2144-4.517-13.4939-13.7767-11.7325" style="fill:none; stroke:#ceb53a; stroke-miterlimit:10; stroke-width:1.75px;"/><path d="M26.3738,31.0284c-.9362,1.6877-2.28,2.6832-3.8564,3.9236,5.0963-1.1582,10.3159,1.4524,12.2429,6.3872-2.451,1.0274-5.1483,1.0359-7.5281.0541-2.4091-.8348-4.1247-2.4858-5.5261-4.6251,1.0787,5.2614-1.4088,10.2868-6.3892,12.2699-1.9707-4.9137-.0102-10.3561,4.6446-13.1122-5.3202,1.1224-10.3459-1.447-12.3798-6.4219,4.87-1.9339,10.2469-.045,13.0677,4.5757-.4466-2.5042-.2856-4.8848.8804-7.1454,1.0908-2.3261,3.0582-4.1576,5.5109-5.0965,1.2957,3.0444.9224,6.3255-.667,9.1906Z" style="fill:#4161c4; stroke:#ceb53a; stroke-miterlimit:10;"/><path d="M28.1873,34.7901c-1.8553.5314-3.5095.2851-5.5013.0476,4.4226,2.7847,6.2674,8.3214,4.1406,13.1735-2.4596-1.0067-4.3729-2.9079-5.3614-5.2849-1.1132-2.2938-1.1588-4.6743-.6371-7.1779-2.9576,4.4831-8.27,6.2777-13.194,4.1583,2.081-4.868,7.3156-7.33,12.5559-5.9875-4.5556-2.9683-6.2925-8.3389-4.2128-13.2948,4.8111,2.0762,7.2775,7.2138,6.0048,12.4757,1.4549-2.0865,3.2521-3.6561,5.6751-4.4301,2.4161-.8734,5.1024-.7773,7.5006.2931-1.2365,3.069-3.8206,5.125-6.9704,6.0271Z" style="fill:#563d91; stroke:#ceb53a; stroke-miterlimit:10;"/><path d="M102.438,17.241c-3.0678-2.9327-5.9476-4.7372-9.5-2.7381-2.2638,1.1665-4.1356,2.2902-6.2421,3.8229-1.9916,1.5782-4.9878,2.4727-7.5391,1.9161,2.007-1.5222,3.4469-2.7291,4.832-4.767,1.4285-1.986,3.671-3.8759,5.8937-5.0026,5.8263-3.4594,12.4874-.0231,12.5556,6.7688h0Z" style="fill:#ceb53a;"/><path d="M102.8467,17.0858c.3851-6.7844,7.1938-9.9049,12.8549-6.181,2.1679,1.2275,4.3216,3.2199,5.6562,5.2697,1.2893,2.0998,2.6722,3.3717,4.6066,4.9853-2.575.4376-5.5257-.5936-7.4429-2.2628-2.0315-1.6277-3.8524-2.8378-6.0582-4.1073-3.4562-2.1611-6.4163-.4916-9.6167,2.2961h0Z" style="fill:#ceb53a;"/><path d="M179.7062,9.9171c1.3012.3044,3.0743.6506,3.0638,1.2228-.0118.6462-1.8489.9443-3.0845,1.1147l2.2253,1.6682c.135.1012.2493.2503.2851.381.2009.7347-1.8188.5009-3.3529.175.7925,1.17,2.0472,2.5808,1.4536,2.9952-.1392.0972-.2998.1457-.4762.059l-2.5894-1.2728c.4303,1.1499.9082,2.6679.6085,3.2398-.2855.5449-1.7536-.9478-2.6184-2.1393-.2593,1.254.04,3.0963-.7276,3.2468-.1662.0326-.3892-.1439-.4741-.3257l-1.1804-2.5279c-.4247,1.1595-1.0634,2.7933-1.6284,2.7963-.6502.0034-.6323-1.8034-.6228-3.2749-.8276.7977-1.9949,2.2079-2.489,2.1191-.6171-.1108-.0617-1.9511.484-3.3454-1.0951.5735-2.7398,1.403-3.0739,1.1432-.5766-.4483.704-1.8647,1.5339-2.9226-1.3449.0961-3.0647.3253-3.241-.1412-.1903-.5036,1.3862-1.5081,2.5208-2.1634-1.1277-.3082-2.9091-.5566-3.0337-1.1516-.1323-.6316,1.7138-.9361,3.0995-1.205-.9506-.7072-2.6174-1.5537-2.4245-2.1878.056-.1841.3558-.3804.6217-.3511l2.572.2829-1.4593-2.2834c-.1037-.1622-.0582-.433.0204-.5563.3556-.5583,1.973.5655,3.1033,1.0792-.3252-1.144-.7769-2.0319-.5496-3.1524.1406-.6929,1.747.8801,2.5971,2.0964l.1743-2.2208c.0277-.3536.251-1.0265.6153-1.033.9833.5611.9615,1.9547,1.6465,2.7572.4365-1.0966.7225-2.0863,1.5577-2.794.9659.5766.3619,1.9976.7531,3.2431l1.9196-1.8081c.1361-.1282.3854-.1601.5214-.1211.6255.1791-.0816,1.8847-.4881,3.1986l2.5073-1.0432c.2141-.0891.5063-.03.6507.1429.0956.1146.0241.42-.0989.5917l-1.6038,2.2394,2.0198-.2444c.5034-.0609,1.0509.0441,1.3859.4443-.7258.9775-1.7097,1.4797-2.7243,2.0284Z" style="fill:#41820b; stroke:#ceb53a; stroke-miterlimit:10;"/><path d="M239.7062,14.8525c2.0189-.7679,4.5107-.5936,6.8796-.4311.498.0342.9774.545,1.6229.195-2.4638-1.6025-5.2115-4.4282-6.0874-7.4443,3.0203,1.2595,5.4114,3.7322,7.021,6.3964.3247-.5984.0064-1.066-.0464-1.5918-.2674-2.6645-.0426-5.3233,1.1945-7.9588,1.3506,3.1725,1.2431,6.5378.4274,9.9344,1.1623-1.559,2.4593-3.2887,4.0263-4.3965,1.1048-.781,2.1502-1.6002,3.5897-1.9712-1.2609,3.1052-3.6208,5.407-6.4159,7.1417.5912.3128,1.1064-.1101,1.633-.1279,2.6209-.0887,5.5073-.1399,7.9027,1.2173-1.555.7642-3.1565.9002-4.7663,1.0081-1.7854.1197-3.321-.2039-5.1232-.6168,2.6463,1.8615,5.4037,4.4497,6.336,7.6802-3.2276-1.4038-5.5044-3.842-7.2413-6.7615.3001,1.981.5631,3.6976.2856,5.556-.2222,1.4885-.3684,3.0024-1.2026,4.347-1.3198-3.1375-1.1562-6.168-.5914-9.5802-1.9841,2.6461-4.1721,4.9468-7.4451,6.0713,1.1971-3.057,3.8244-5.5817,6.6829-7.3158l-2.915.3497c-1.9223.2306-4.8861-.3532-6.7089-1.1159-.0766-.4366.5536-.5394.9419-.5855Z" style="fill:#fd2800; stroke:#ceb53a; stroke-miterlimit:10;"/><path d="M257.1206,16.1318c-1.9983.5723-3.7799.3071-5.9251.0512,4.7633,2.9992,6.7502,8.9625,4.4596,14.1884-2.6491-1.0842-4.7098-3.1319-5.7745-5.692-1.199-2.4705-1.2481-5.0344-.6862-7.7309-3.1854,4.8285-8.9071,6.7614-14.2105,4.4786,2.2413-5.243,7.8792-7.8948,13.5232-6.4488-4.9065-3.197-6.7772-8.9813-4.5374-14.3191,5.1817,2.2361,7.8381,7.7695,6.4674,13.4369,1.567-2.2473,3.5027-3.9378,6.1123-4.7714,2.6023-.9407,5.4954-.8372,8.0784.3156-1.3318,3.3054-4.1149,5.5199-7.5074,6.4915Z" style="fill:#563d91; stroke:#ceb53a; stroke-miterlimit:10;"/><path d="M45.2141,11.4957c-.0275-.0005-.0369.0173-.0208.0397l3.5325,4.9227c.016.0223.0515.038.0788.0347l5.7013-.6759c.0273-.0032.0354-.0233.018-.0446l-3.3797-4.1275c-.0174-.0213-.0542-.0391-.0817-.0396l-5.8483-.1095Z" style="fill:#ceb53a;"/><path d="M45.2141,11.4957c-.0275-.0005-.0369.0173-.0208.0397l3.5325,4.9227c.016.0223.0515.038.0788.0347l5.7013-.6759c.0273-.0032.0354-.0233.018-.0446l-3.3797-4.1275c-.0174-.0213-.0542-.0391-.0817-.0396l-5.8483-.1095Z" style="fill:none; stroke:#ceb53a; stroke-miterlimit:10;"/><path d="M211.7121,23.3089c-.0275-.0005-.0369.0173-.0208.0397l3.5023,4.8805c.016.0223.0515.038.0788.0347l5.6524-.6701c.0273-.0032.0354-.0233.018-.0446l-3.3507-4.0921c-.0174-.0213-.0542-.0391-.0817-.0396l-5.7982-.1086Z" style="fill:#ceb53a;"/><path d="M211.7121,23.3089c-.0275-.0005-.0369.0173-.0208.0397l3.5023,4.8805c.016.0223.0515.038.0788.0347l5.6524-.6701c.0273-.0032.0354-.0233.018-.0446l-3.3507-4.0921c-.0174-.0213-.0542-.0391-.0817-.0396l-5.7982-.1086Z" style="fill:none; stroke:#ceb53a; stroke-miterlimit:10;"/><path d="M113.996,42.5531c-.0256.0101-.0273.0302-.0039.0447l5.1568,3.1809c.0234.0144.0622.0152.0861.0017l5.0003-2.821c.024-.0135.0237-.0351-.0006-.0481l-4.7094-2.5061c-.0243-.0129-.0651-.0152-.0906-.0051l-5.4387,2.1529Z" style="fill:#ceb53a;"/><path d="M113.996,42.5531c-.0256.0101-.0273.0302-.0039.0447l5.1568,3.1809c.0234.0144.0622.0152.0861.0017l5.0003-2.821c.024-.0135.0237-.0351-.0006-.0481l-4.7094-2.5061c-.0243-.0129-.0651-.0152-.0906-.0051l-5.4387,2.1529Z" style="fill:none; stroke:#ceb53a; stroke-miterlimit:10;"/><polygon points="101.5127 19.3026 89.7158 29.0828 89.0254 28.3621 99.7744 16.4862 104.0986 15.4129 116.3233 21.95 115.9375 22.867 104.4004 19.2293 104.8916 31.1883 103.9014 31.3065 101.5127 19.3026" style="fill:#ff0037;"/><path d="M104.0327,15.9447l12.0557,6.446-12.2178-3.853.521,12.6714-2.5513-12.8267-12.4434,10.3159,10.646-11.7639,3.9897-.9897M104.165,14.8814l-.373.0928-3.9897.9895-.2959.0735-.2051.2263-10.646,11.7639,1.3799,1.4407,11.1519-9.2449,2.2236,11.1809,1.98-.2361-.4624-11.2483,10.8594,3.4246.7725-1.8354-12.0557-6.446-.3394-.1814h0Z" style="fill:#ceb53a;"/></svg>