<svg width="321" height="685" viewBox="0 0 321 685" fill="none" xmlns="http://www.w3.org/2000/svg">
<path d="M104.832 62.8922C95.8973 65.8722 94.668 78.0522 102.843 82.7522C111.997 88.0122 121.102 94.1222 121.102 101.502V164.432C121.102 168.112 118.493 171.262 114.886 171.962C94.0784 175.952 27.539 193.112 15.5563 251.022C11.7486 269.452 10.5693 289.122 10.8991 308.042C11.6786 353.352 21.3927 398.062 38.882 439.872C55.5619 479.732 80.6566 546.752 84.5042 597.272C85.2837 607.492 80.5866 617.332 72.2717 623.322C65.5258 628.172 59.6394 633.392 59.6394 640.632C59.6394 652.892 81.9758 679.992 163.796 679.992C195.207 679.992 218.083 674.832 234.343 668.482C253.891 660.842 256.259 634.112 238.32 623.202C238.071 623.052 237.821 622.902 237.561 622.742C235.092 621.242 233.673 618.492 233.873 615.612C236.541 576.832 277.467 459.492 294.236 403.512C300.233 383.492 323.289 303.242 302.541 240.352C285.382 188.362 227.647 175.292 208.139 172.332C204.401 171.762 201.643 168.542 201.643 164.762V103.032C201.643 101.942 201.873 100.872 202.322 99.8822C204.681 94.6822 230.775 88.7522 230.775 77.7422C230.775 65.7322 217.603 55.2422 159.648 55.2422C134.664 55.2422 116.854 58.9122 104.842 62.9122L104.832 62.8922Z" fill="#DCD6CB"/>
<path d="M104.832 62.8922C95.8973 65.8722 94.668 78.0522 102.843 82.7522C111.997 88.0122 121.102 94.1222 121.102 101.502V164.432C121.102 168.112 118.493 171.262 114.886 171.962C94.0784 175.952 27.539 193.112 15.5563 251.022C11.7486 269.452 10.5693 289.122 10.8991 308.042C11.6786 353.352 21.3927 398.062 38.882 439.872C55.5619 479.732 80.6566 546.752 84.5042 597.272C85.2837 607.492 80.5866 617.332 72.2717 623.322C65.5258 628.172 59.6394 633.392 59.6394 640.632C59.6394 652.892 81.9758 679.992 163.796 679.992C195.207 679.992 218.083 674.832 234.343 668.482C253.891 660.842 256.259 634.112 238.32 623.202C238.071 623.052 237.821 622.902 237.561 622.742C235.092 621.242 233.673 618.492 233.873 615.612C236.541 576.832 277.467 459.492 294.236 403.512C300.233 383.492 323.289 303.242 302.541 240.352C285.382 188.362 227.647 175.292 208.139 172.332C204.401 171.762 201.643 168.542 201.643 164.762V103.032C201.643 101.942 201.873 100.872 202.322 99.8822C204.681 94.6822 230.775 88.7522 230.775 77.7422C230.775 65.7322 217.603 55.2422 159.648 55.2422C134.664 55.2422 116.854 58.9122 104.842 62.9122L104.832 62.8922Z" stroke="#DCD6CB" stroke-width="9" stroke-miterlimit="10"/>
<mask id="mask0_180_20492" style="mask-type:alpha" maskUnits="userSpaceOnUse" x="0" y="204" width="321" height="194">
<path d="M320.5 397.473H208.643L186.713 372.558L185.921 371.658L185.839 372.854L184.152 397.473H129.299L122.004 389.185L121.213 388.286L121.13 389.48L120.574 397.473H105.032L100.998 387.893L100.73 387.259L100.209 387.709L88.9155 397.473H74.3042L60.2427 364.154L59.2837 364.314L57.019 397.473H43.0337L16.4175 381.982L15.7212 381.577L15.6665 382.38L14.6401 397.473H0.695801V213.164C15.4371 217.772 33.8133 221.663 54.8306 224.603V224.602C57.3889 224.984 59.9808 225.327 62.6284 225.65L75.689 238.593L76.5405 239.437V227.221C79.7367 227.561 82.9935 227.866 86.2915 228.145L117.97 259.546L118.823 260.391V230.156C129.045 230.583 139.567 230.783 150.286 230.783H152.927L160.12 259.303L161.104 259.181V230.704C165.245 230.661 169.352 230.572 173.404 230.434L173.403 230.433C176.218 230.361 178.998 230.269 181.765 230.156L181.764 230.155C187.198 229.944 192.563 229.672 197.836 229.332L202.439 238.452L202.75 239.066L203.238 238.582L213.727 228.186C218.671 227.758 223.503 227.282 228.245 226.768L244.721 259.416L245.667 259.19V224.623C249.111 224.143 252.49 223.629 255.802 223.104L287.227 238.686L287.949 239.043V216.551C293.269 215.188 298.216 213.758 302.791 212.243L308.238 217.639L308.565 217.308L308.903 217.674L308.915 217.664L309.328 217.311L309.299 217.282L320.5 206.172V397.473Z" fill="#C59B6D" stroke="#C59B6D"/>
</mask>
<g mask="url(#mask0_180_20492)">
<path d="M159.648 56.7422C188.612 56.7422 206.316 59.3659 216.762 63.4541C221.98 65.4958 225.352 67.8902 227.421 70.4727C229.482 73.046 230.275 75.8393 230.275 78.7422C230.275 81.2831 228.771 83.5929 226.331 85.7402C223.896 87.8828 220.607 89.7953 217.205 91.5459C215.507 92.4197 213.789 93.2495 212.143 94.0449C210.501 94.8389 208.929 95.6009 207.531 96.335C206.135 97.0681 204.897 97.7819 203.928 98.4844C202.973 99.1773 202.218 99.9025 201.867 100.676C201.388 101.731 201.142 102.872 201.142 104.032V165.762C201.142 169.788 204.081 173.219 208.063 173.826H208.064C217.789 175.302 237.038 179.298 255.985 189.397C274.928 199.494 293.539 215.673 302.066 241.509C312.406 272.851 311.838 308.55 307.922 338.944C304.007 369.331 296.753 394.368 293.758 404.369C285.37 432.369 270.959 475.657 258.289 516.865C251.957 537.458 246.065 557.519 241.589 574.858C237.114 592.188 234.045 606.832 233.375 616.577C233.169 619.547 234.58 622.389 237.058 624.016L237.302 624.17L238.063 624.631C255.507 635.242 253.359 661.119 234.607 668.838L234.161 669.017C217.965 675.342 195.151 680.492 163.796 680.492C122.934 680.492 96.983 673.724 81.2673 665.467C65.5251 657.196 60.1394 647.489 60.1394 641.632C60.1395 638.16 61.5472 635.154 63.8123 632.398C66.0836 629.635 69.1968 627.149 72.5632 624.729L72.5642 624.728C81.0168 618.638 85.7957 608.632 85.0027 598.234C81.2686 549.206 57.5712 484.713 40.9304 444.494L39.3435 440.679C21.8777 398.925 12.1776 354.277 11.3992 309.033C11.0698 290.138 12.2476 270.506 16.0457 252.123C21.9982 223.356 41.5016 204.691 62.1628 192.705C82.8273 180.718 104.602 175.443 114.98 173.453H114.981C118.823 172.708 121.602 169.353 121.602 165.433V102.502C121.602 98.5982 119.196 95.1003 115.742 91.9619C112.278 88.8151 107.672 85.9498 103.093 83.3184C95.4181 78.9061 96.4287 67.5837 104.582 64.5107L104.589 64.5234L105 64.3867C116.958 60.4049 134.713 56.7422 159.648 56.7422Z" fill="#C59B6D" stroke="#C59B6D"/>
<path d="M104.832 63.8922C95.8973 66.8722 94.668 79.0522 102.843 83.7522C111.997 89.0122 121.102 95.1222 121.102 102.502V165.432C121.102 169.112 118.493 172.262 114.886 172.962C94.0784 176.952 27.539 194.112 15.5563 252.022C11.7486 270.452 10.5693 290.122 10.8991 309.042C11.6786 354.352 21.3927 399.062 38.882 440.872C55.5619 480.732 80.6566 547.752 84.5042 598.272C85.2837 608.492 80.5866 618.332 72.2717 624.322C65.5258 629.172 59.6394 634.392 59.6394 641.632C59.6394 653.892 81.9758 680.992 163.796 680.992C195.207 680.992 218.083 675.832 234.343 669.482C253.891 661.842 256.259 635.112 238.32 624.202C238.071 624.052 237.821 623.902 237.561 623.742C235.092 622.242 233.673 619.492 233.873 616.612C236.541 577.832 277.467 460.492 294.236 404.512C300.233 384.492 323.289 304.242 302.541 241.352C285.382 189.362 227.647 176.292 208.139 173.332C204.401 172.762 201.643 169.542 201.643 165.762V104.032C201.643 102.942 201.873 101.872 202.322 100.882C204.681 95.6822 230.775 89.7522 230.775 78.7422C230.775 66.7322 217.603 56.2422 159.648 56.2422C134.664 56.2422 116.854 59.9122 104.842 63.9122L104.832 63.8922Z" stroke="#C59B6D" stroke-width="9" stroke-miterlimit="10"/>
</g>
<path d="M75.5095 612.434C114.915 626.084 157.619 633.574 198.954 625.744C212.636 623.164 225.888 618.554 238.61 612.434C221.061 624.464 199.894 631.204 178.697 633.154C143.688 636.254 106.681 628.544 75.5095 612.434Z" fill="#E2E3E2"/>
<path d="M128.208 53.6409V38.5109C128.208 38.5109 113.537 37.7709 113.537 20.2709C113.537 2.77086 136.912 4.55086 136.912 4.55086H194.627C200.254 4.55086 205.8 7.00086 209.008 11.6309C210.637 13.9909 211.827 17.0209 211.827 20.8709C211.827 33.1809 200.564 38.3709 200.564 38.3709L199.824 54.0909L128.228 53.6509L128.208 53.6409Z" fill="#CDB43A" stroke="#CDB43A" stroke-width="9" stroke-miterlimit="10"/>
<path d="M256.879 202.941C278.885 211.371 290.938 238.661 295.176 260.391C299.783 283.661 298.963 307.861 294.716 331.091C294.996 302.041 294.926 272.511 285.931 244.651C280.534 228.561 271.87 211.891 256.879 202.941Z" fill="#E7E2D5"/>
<path d="M65.9458 202.143C59.5897 205.703 54.5428 211.163 50.1954 216.913C44.269 225.053 40.0116 234.303 36.8835 243.853C27.889 271.713 27.8191 301.243 28.0989 330.293C23.6116 305.613 22.8921 279.783 28.5986 255.213C33.3557 234.793 45.2085 210.063 65.9358 202.133L65.9458 202.143Z" fill="#E7E2D5"/>
<path d="M126.069 103.633C137.042 120.213 136.093 146.013 127.288 163.373C127.478 159.493 127.978 155.793 128.248 151.963C129.697 135.803 129.417 119.603 126.069 103.633Z" fill="#E7E2D5"/>
<path d="M197.086 104.133C193.738 120.103 193.458 136.313 194.907 152.463C195.177 156.283 195.677 159.983 195.867 163.873C187.062 146.513 186.112 120.723 197.086 104.133Z" fill="#E7E2D5"/>
<path d="M32.1755 432.86C32.1755 432.86 160.757 422.26 279.834 432.28C264.824 452.3 256.319 457.31 256.319 457.31L32.1755 432.86Z" fill="#584B5A"/>
<path d="M31.7263 432.744C31.7263 432.744 95.5174 412.394 152.553 432.744C209.588 453.094 280.884 431.584 280.884 431.584C280.884 431.584 226.847 558.934 226.847 603.704C171.311 625.224 97.766 606.034 97.766 606.034C97.766 606.034 101.514 541.484 31.7263 432.754V432.744Z" fill="#231F20"/>
<g opacity="0.5">
<g opacity="0.5">
<path d="M62.5077 203.472C62.5077 203.472 62.4777 203.442 62.5077 203.432L68.0443 199.982C68.0443 199.982 68.1043 199.962 68.1343 199.982L73.531 203.002C73.531 203.002 73.551 203.042 73.531 203.052L68.4741 205.772C68.4741 205.772 68.4141 205.792 68.3841 205.772L62.5177 203.482L62.5077 203.472Z" fill="#92B6DA"/>
</g>
<g opacity="0.5">
<path d="M54.8824 211.74C54.8824 211.74 54.8424 211.76 54.8424 211.73L53.3633 205.37C53.3633 205.37 53.3633 205.31 53.3933 205.29L57.9905 201.15C57.9905 201.15 58.0304 201.14 58.0404 201.17L58.9899 206.84C58.9899 206.84 58.9898 206.91 58.9699 206.93L54.9123 211.75L54.8824 211.74Z" fill="#92B6DA"/>
</g>
<g opacity="0.5">
<path d="M47.8466 223.592C47.8466 223.592 47.8067 223.572 47.8266 223.552L51.4144 218.103C51.4144 218.103 51.4644 218.062 51.4944 218.062L57.6606 218.543C57.6606 218.543 57.7006 218.562 57.6806 218.582L54.2227 223.173C54.2227 223.173 54.1728 223.212 54.1428 223.212L47.8566 223.582L47.8466 223.592Z" fill="#92B6DA"/>
</g>
<g opacity="0.5">
<path d="M70.9125 213.222C70.9125 213.222 70.8825 213.192 70.9125 213.182L76.4491 209.732C76.4491 209.732 76.5091 209.712 76.5391 209.732L81.9358 212.752C81.9358 212.752 81.9557 212.792 81.9358 212.802L76.8788 215.522C76.8788 215.522 76.8189 215.542 76.7889 215.522L70.9225 213.232L70.9125 213.222Z" fill="#92B6DA"/>
</g>
<g opacity="0.5">
<path d="M63.2871 221.49C63.2871 221.49 63.2472 221.51 63.2472 221.48L61.7681 215.12C61.7681 215.12 61.7681 215.06 61.798 215.04L66.3952 210.9C66.3952 210.9 66.4352 210.89 66.4452 210.92L67.3946 216.59C67.3946 216.59 67.3946 216.66 67.3746 216.68L63.3171 221.5L63.2871 221.49Z" fill="#92B6DA"/>
</g>
<g opacity="0.5">
<path d="M56.2614 233.342C56.2614 233.342 56.2214 233.322 56.2414 233.302L59.8292 227.853C59.8292 227.853 59.8792 227.812 59.9092 227.812L66.0754 228.293C66.0754 228.293 66.1154 228.312 66.0954 228.332L62.6375 232.923C62.6375 232.923 62.5876 232.962 62.5576 232.962L56.2714 233.332L56.2614 233.342Z" fill="#92B6DA"/>
</g>
<g opacity="0.5">
<path d="M62.0878 251.452C62.0878 251.452 62.0578 251.422 62.0878 251.412L67.6244 247.962C67.6244 247.962 67.6844 247.942 67.7144 247.962L73.1111 250.982C73.1111 250.982 73.1311 251.022 73.1111 251.032L68.0541 253.752C68.0541 253.752 67.9942 253.772 67.9642 253.752L62.0978 251.462L62.0878 251.452Z" fill="#92B6DA"/>
</g>
<g opacity="0.5">
<path d="M54.4624 259.721C54.4624 259.721 54.4225 259.74 54.4225 259.71L52.9434 253.351C52.9434 253.351 52.9434 253.29 52.9733 253.27L57.5705 249.131C57.5705 249.131 57.6105 249.12 57.6205 249.15L58.5699 254.821C58.5699 254.821 58.5699 254.891 58.5499 254.911L54.4924 259.731L54.4624 259.721Z" fill="#92B6DA"/>
</g>
<g opacity="0.5">
<path d="M47.4267 271.573C47.4267 271.573 47.3867 271.553 47.4067 271.533L50.9945 266.083C50.9945 266.083 51.0445 266.043 51.0745 266.043L57.2407 266.523C57.2407 266.523 57.2807 266.543 57.2607 266.563L53.8028 271.153C53.8028 271.153 53.7528 271.193 53.7229 271.193L47.4367 271.563L47.4267 271.573Z" fill="#92B6DA"/>
</g>
<g opacity="0.5">
<path d="M70.4926 261.202C70.4926 261.202 70.4626 261.172 70.4926 261.162L76.0292 257.712C76.0292 257.712 76.0892 257.692 76.1191 257.712L81.5158 260.732C81.5158 260.732 81.5358 260.772 81.5158 260.782L76.4589 263.502C76.4589 263.502 76.399 263.522 76.369 263.502L70.5026 261.212L70.4926 261.202Z" fill="#92B6DA"/>
</g>
<g opacity="0.5">
<path d="M62.8672 269.471C62.8672 269.471 62.8272 269.49 62.8272 269.46L61.3481 263.101C61.3481 263.101 61.3481 263.04 61.3781 263.02L65.9753 258.881C65.9753 258.881 66.0153 258.87 66.0253 258.9L66.9747 264.571C66.9747 264.571 66.9747 264.641 66.9547 264.661L62.8972 269.481L62.8672 269.471Z" fill="#92B6DA"/>
</g>
<g opacity="0.5">
<path d="M55.8415 281.323C55.8415 281.323 55.8015 281.303 55.8215 281.283L59.4093 275.833C59.4093 275.833 59.4593 275.793 59.4893 275.793L65.6555 276.273C65.6555 276.273 65.6955 276.293 65.6755 276.313L62.2176 280.903C62.2176 280.903 62.1676 280.943 62.1377 280.943L55.8515 281.313L55.8415 281.323Z" fill="#92B6DA"/>
</g>
<g opacity="0.5">
<path d="M44.2189 231.682C44.2189 231.682 44.1889 231.652 44.2189 231.642L49.7555 228.192C49.7555 228.192 49.8155 228.172 49.8455 228.192L55.2422 231.212C55.2422 231.212 55.2622 231.252 55.2422 231.262L50.1852 233.982C50.1852 233.982 50.1253 234.002 50.0953 233.982L44.2289 231.692L44.2189 231.682Z" fill="#92B6DA"/>
</g>
<g opacity="0.5">
<path d="M36.5933 239.951C36.5933 239.951 36.5533 239.971 36.5533 239.941L35.0742 233.581C35.0742 233.581 35.0742 233.521 35.1042 233.501L39.7014 229.361C39.7014 229.361 39.7414 229.351 39.7514 229.381L40.7008 235.051C40.7008 235.051 40.7008 235.121 40.6808 235.141L36.6233 239.961L36.5933 239.951Z" fill="#92B6DA"/>
</g>
<g opacity="0.5">
<path d="M29.5576 251.803C29.5576 251.803 29.5176 251.783 29.5376 251.763L33.1254 246.313C33.1254 246.313 33.1754 246.273 33.2053 246.273L39.3716 246.753C39.3716 246.753 39.4116 246.773 39.3916 246.793L35.9337 251.383C35.9337 251.383 35.8837 251.423 35.8537 251.423L29.5676 251.793L29.5576 251.803Z" fill="#92B6DA"/>
</g>
<g opacity="0.5">
<path d="M52.6237 241.432C52.6237 241.432 52.5937 241.402 52.6237 241.392L58.1603 237.942C58.1603 237.942 58.2203 237.922 58.2502 237.942L63.647 240.962C63.647 240.962 63.6669 241.002 63.647 241.012L58.59 243.732C58.59 243.732 58.5301 243.752 58.5001 243.732L52.6337 241.442L52.6237 241.432Z" fill="#92B6DA"/>
</g>
<g opacity="0.5">
<path d="M44.9981 249.701C44.9981 249.701 44.9581 249.721 44.9581 249.691L43.479 243.331C43.479 243.331 43.479 243.271 43.509 243.251L48.1062 239.111C48.1062 239.111 48.1462 239.101 48.1562 239.131L49.1056 244.801C49.1056 244.801 49.1056 244.871 49.0856 244.891L45.0281 249.711L44.9981 249.701Z" fill="#92B6DA"/>
</g>
<g opacity="0.5">
<path d="M37.9724 261.553C37.9724 261.553 37.9324 261.533 37.9524 261.513L41.5402 256.063C41.5402 256.063 41.5902 256.023 41.6201 256.023L47.7864 256.503C47.7864 256.503 47.8264 256.523 47.8064 256.543L44.3485 261.133C44.3485 261.133 44.2985 261.173 44.2685 261.173L37.9824 261.543L37.9724 261.553Z" fill="#92B6DA"/>
</g>
<g opacity="0.5">
<path d="M82.3353 222.003C82.3353 222.003 82.3054 221.973 82.3353 221.963L87.872 218.513C87.872 218.513 87.9319 218.493 87.9619 218.513L93.3586 221.533C93.3586 221.533 93.3786 221.573 93.3586 221.583L88.3017 224.303C88.3017 224.303 88.2417 224.323 88.2118 224.303L82.3453 222.013L82.3353 222.003Z" fill="#92B6DA"/>
</g>
<g opacity="0.5">
<path d="M74.71 230.271C74.71 230.271 74.67 230.291 74.67 230.261L73.1909 223.901C73.1909 223.901 73.1909 223.841 73.2209 223.821L77.8181 219.681C77.8181 219.681 77.8581 219.671 77.8681 219.701L78.8175 225.371C78.8175 225.371 78.8175 225.441 78.7975 225.461L74.74 230.281L74.71 230.271Z" fill="#92B6DA"/>
</g>
<g opacity="0.5">
<path d="M67.6743 242.124C67.6743 242.124 67.6343 242.104 67.6543 242.084L71.2421 236.634C71.2421 236.634 71.2921 236.594 71.322 236.594L77.4883 237.074C77.4883 237.074 77.5283 237.094 77.5083 237.114L74.0504 241.704C74.0504 241.704 74.0004 241.744 73.9704 241.744L67.6843 242.114L67.6743 242.124Z" fill="#92B6DA"/>
</g>
<g opacity="0.5">
<path d="M90.7401 231.753C90.7401 231.753 90.7102 231.723 90.7401 231.713L96.2767 228.263C96.2767 228.263 96.3367 228.243 96.3667 228.263L101.763 231.283C101.763 231.283 101.783 231.323 101.763 231.333L96.7065 234.053C96.7065 234.053 96.6465 234.073 96.6165 234.053L90.7501 231.763L90.7401 231.753Z" fill="#92B6DA"/>
</g>
<g opacity="0.5">
<path d="M83.1148 240.021C83.1148 240.021 83.0748 240.041 83.0748 240.011L81.5957 233.651C81.5957 233.651 81.5957 233.591 81.6257 233.571L86.2229 229.431C86.2229 229.431 86.2629 229.421 86.2729 229.451L87.2223 235.121C87.2223 235.121 87.2223 235.191 87.2023 235.211L83.1448 240.031L83.1148 240.021Z" fill="#92B6DA"/>
</g>
<g opacity="0.5">
<path d="M76.0891 251.874C76.0891 251.874 76.0491 251.854 76.0691 251.834L79.6569 246.384C79.6569 246.384 79.7069 246.344 79.7368 246.344L85.9031 246.824C85.9031 246.824 85.9431 246.844 85.9231 246.864L82.4652 251.454C82.4652 251.454 82.4152 251.494 82.3852 251.494L76.0991 251.864L76.0891 251.874Z" fill="#92B6DA"/>
</g>
<g opacity="0.5">
<path d="M28.2086 212.78C28.2086 212.78 28.1787 212.75 28.2086 212.74L33.7453 209.29C33.7453 209.29 33.8052 209.27 33.8352 209.29L39.2319 212.31C39.2319 212.31 39.2519 212.35 39.2319 212.36L34.175 215.08C34.175 215.08 34.115 215.1 34.0851 215.08L28.2186 212.79L28.2086 212.78Z" fill="#92B6DA"/>
</g>
<g opacity="0.5">
<path d="M20.583 221.041C20.583 221.041 20.5431 221.061 20.5431 221.031L19.064 214.671C19.064 214.671 19.064 214.611 19.094 214.591L23.6911 210.451C23.6911 210.451 23.7311 210.441 23.7411 210.471L24.6905 216.141C24.6905 216.141 24.6905 216.211 24.6705 216.231L20.613 221.051L20.583 221.041Z" fill="#92B6DA"/>
</g>
<g opacity="0.5">
<path d="M13.5473 232.901C13.5473 232.901 13.5073 232.881 13.5273 232.861L17.1151 227.411C17.1151 227.411 17.1651 227.371 17.1951 227.371L23.3613 227.851C23.3613 227.851 23.4013 227.871 23.3813 227.891L19.9234 232.481C19.9234 232.481 19.8735 232.521 19.8435 232.521L13.5573 232.891L13.5473 232.901Z" fill="#92B6DA"/>
</g>
<g opacity="0.5">
<path d="M36.6134 222.518C36.6134 222.518 36.5834 222.488 36.6134 222.478L42.15 219.028C42.15 219.028 42.21 219.008 42.24 219.028L47.6367 222.048C47.6367 222.048 47.6567 222.088 47.6367 222.098L42.5798 224.818C42.5798 224.818 42.5198 224.838 42.4898 224.818L36.6234 222.528L36.6134 222.518Z" fill="#92B6DA"/>
</g>
<g opacity="0.5">
<path d="M28.9878 230.791C28.9878 230.791 28.9478 230.811 28.9478 230.781L27.4688 224.421C27.4688 224.421 27.4687 224.361 27.4987 224.341L32.0959 220.201C32.0959 220.201 32.1359 220.191 32.1459 220.221L33.0953 225.891C33.0953 225.891 33.0953 225.961 33.0753 225.981L29.0178 230.801L28.9878 230.791Z" fill="#92B6DA"/>
</g>
<g opacity="0.5">
<path d="M21.9621 242.651C21.9621 242.651 21.9221 242.631 21.9421 242.611L25.5299 237.161C25.5299 237.161 25.5799 237.121 25.6099 237.121L31.7761 237.601C31.7761 237.601 31.8161 237.621 31.7961 237.641L28.3382 242.231C28.3382 242.231 28.2882 242.271 28.2583 242.271L21.9721 242.641L21.9621 242.651Z" fill="#92B6DA"/>
</g>
<g opacity="0.5">
<path d="M31.936 202.592C31.936 202.592 31.896 202.572 31.916 202.552L35.5038 197.103C35.5038 197.103 35.5538 197.062 35.5838 197.062L41.75 197.543C41.75 197.543 41.79 197.562 41.77 197.582L38.3121 202.173C38.3121 202.173 38.2621 202.212 38.2321 202.212L31.946 202.582L31.936 202.592Z" fill="#92B6DA"/>
</g>
<g opacity="0.5">
<path d="M55.0021 192.222C55.0021 192.222 54.9721 192.192 55.0021 192.182L60.5387 188.732C60.5387 188.732 60.5987 188.712 60.6287 188.732L66.0254 191.752C66.0254 191.752 66.0454 191.792 66.0254 191.802L60.9685 194.522C60.9685 194.522 60.9085 194.542 60.8785 194.522L55.0121 192.232L55.0021 192.222Z" fill="#92B6DA"/>
</g>
<g opacity="0.5">
<path d="M47.3765 200.482C47.3765 200.482 47.3365 200.502 47.3365 200.472L45.8574 194.112C45.8574 194.112 45.8574 194.052 45.8874 194.032L50.4846 189.892C50.4846 189.892 50.5246 189.882 50.5346 189.912L51.484 195.582C51.484 195.582 51.484 195.652 51.464 195.672L47.4065 200.492L47.3765 200.482Z" fill="#92B6DA"/>
</g>
<g opacity="0.5">
<path d="M40.3508 212.342C40.3508 212.342 40.3108 212.322 40.3308 212.302L43.9186 206.853C43.9186 206.853 43.9686 206.812 43.9986 206.812L50.1648 207.293C50.1648 207.293 50.2048 207.312 50.1848 207.332L46.7269 211.923C46.7269 211.923 46.6769 211.962 46.6469 211.962L40.3608 212.332L40.3508 212.342Z" fill="#92B6DA"/>
</g>
<g opacity="0.5">
<path d="M6.27163 242.491C6.27163 242.491 6.24164 242.461 6.27163 242.451L11.8082 239.001C11.8082 239.001 11.8682 238.981 11.8982 239.001L17.2949 242.021C17.2949 242.021 17.3149 242.061 17.2949 242.071L12.238 244.791C12.238 244.791 12.178 244.811 12.148 244.791L6.28162 242.501L6.27163 242.491Z" fill="#92B6DA"/>
</g>
<g opacity="0.5">
<path d="M14.6867 252.241C14.6867 252.241 14.6567 252.211 14.6867 252.201L20.2233 248.751C20.2233 248.751 20.2832 248.731 20.3132 248.751L25.7099 251.771C25.7099 251.771 25.7299 251.811 25.7099 251.821L20.653 254.541C20.653 254.541 20.5931 254.561 20.5631 254.541L14.6967 252.251L14.6867 252.241Z" fill="#92B6DA"/>
</g>
<g opacity="0.5">
<path d="M7.06131 260.51C7.06131 260.51 7.02134 260.53 7.02134 260.5L5.54224 254.14C5.54224 254.14 5.54224 254.08 5.57222 254.06L10.1694 249.92C10.1694 249.92 10.2094 249.91 10.2194 249.94L11.1688 255.61C11.1688 255.61 11.1688 255.68 11.1488 255.7L7.09129 260.52L7.06131 260.51Z" fill="#92B6DA"/>
</g>
<g opacity="0.5">
<path d="M0.0255848 272.362C0.0255848 272.362 -0.0143913 272.342 0.00559654 272.322L3.59341 266.872C3.59341 266.872 3.64338 266.832 3.67336 266.832L9.8396 267.312C9.8396 267.312 9.87957 267.332 9.85958 267.352L6.40169 271.942C6.40169 271.942 6.35173 271.982 6.32174 271.982L0.035577 272.352L0.0255848 272.362Z" fill="#92B6DA"/>
</g>
<g opacity="0.5">
<path d="M23.7013 262.182C23.7013 262.182 23.6713 262.152 23.7013 262.142L29.2379 258.692C29.2379 258.692 29.2979 258.672 29.3279 258.692L34.7246 261.712C34.7246 261.712 34.7446 261.752 34.7246 261.762L29.6677 264.482C29.6677 264.482 29.6077 264.502 29.5777 264.482L23.7113 262.192L23.7013 262.182Z" fill="#92B6DA"/>
</g>
<g opacity="0.5">
<path d="M16.076 270.451C16.076 270.451 16.036 270.471 16.036 270.441L14.5569 264.081C14.5569 264.081 14.5569 264.021 14.5869 264.001L19.1841 259.861C19.1841 259.861 19.224 259.851 19.234 259.881L20.1834 265.551C20.1834 265.551 20.1835 265.621 20.1635 265.641L16.1059 270.461L16.076 270.451Z" fill="#92B6DA"/>
</g>
<g opacity="0.5">
<path d="M9.03999 282.303C9.03999 282.303 9.00001 282.283 9.02 282.263L12.6078 276.813C12.6078 276.813 12.6578 276.773 12.6878 276.773L18.854 277.253C18.854 277.253 18.894 277.273 18.874 277.293L15.4161 281.883C15.4161 281.883 15.3661 281.923 15.3361 281.923L9.04998 282.293L9.03999 282.303Z" fill="#92B6DA"/>
</g>
<g opacity="0.5">
<path d="M32.1161 271.932C32.1161 271.932 32.0861 271.902 32.1161 271.892L37.6527 268.442C37.6527 268.442 37.7127 268.422 37.7427 268.442L43.1394 271.462C43.1394 271.462 43.1594 271.502 43.1394 271.512L38.0825 274.232C38.0825 274.232 38.0225 274.252 37.9925 274.232L32.1261 271.942L32.1161 271.932Z" fill="#92B6DA"/>
</g>
<g opacity="0.5">
<path d="M24.4907 280.201C24.4907 280.201 24.4508 280.221 24.4508 280.191L22.9717 273.831C22.9717 273.831 22.9717 273.771 23.0017 273.751L27.5989 269.611C27.5989 269.611 27.6388 269.601 27.6488 269.631L28.5982 275.301C28.5982 275.301 28.5982 275.371 28.5783 275.391L24.5207 280.211L24.4907 280.201Z" fill="#92B6DA"/>
</g>
<g opacity="0.5">
<path d="M17.4548 292.053C17.4548 292.053 17.4148 292.033 17.4348 292.013L21.0226 286.563C21.0226 286.563 21.0726 286.523 21.1026 286.523L27.2688 287.003C27.2688 287.003 27.3088 287.023 27.2888 287.043L23.8309 291.633C23.8309 291.633 23.7809 291.673 23.7509 291.673L17.4648 292.043L17.4548 292.053Z" fill="#92B6DA"/>
</g>
<g opacity="0.5">
<path d="M41.2506 281.71C41.2506 281.71 41.2206 281.68 41.2506 281.67L46.7873 278.22C46.7873 278.22 46.8472 278.2 46.8772 278.22L52.2739 281.24C52.2739 281.24 52.2939 281.28 52.2739 281.29L47.217 284.01C47.217 284.01 47.157 284.03 47.127 284.01L41.2606 281.72L41.2506 281.71Z" fill="#92B6DA"/>
</g>
<g opacity="0.5">
<path d="M33.6253 289.978C33.6253 289.978 33.5853 289.998 33.5853 289.968L32.1062 283.608C32.1062 283.608 32.1062 283.548 32.1362 283.528L36.7334 279.388C36.7334 279.388 36.7734 279.378 36.7833 279.408L37.7328 285.078C37.7328 285.078 37.7328 285.148 37.7128 285.168L33.6553 289.988L33.6253 289.978Z" fill="#92B6DA"/>
</g>
<g opacity="0.5">
<path d="M26.5896 301.831C26.5896 301.831 26.5496 301.811 26.5696 301.791L30.1574 296.341C30.1574 296.341 30.2073 296.301 30.2373 296.301L36.4036 296.781C36.4036 296.781 36.4435 296.801 36.4236 296.821L32.9657 301.411C32.9657 301.411 32.9157 301.451 32.8857 301.451L26.5995 301.821L26.5896 301.831Z" fill="#92B6DA"/>
</g>
<g opacity="0.5">
<path d="M49.6554 291.46C49.6554 291.46 49.6254 291.43 49.6554 291.42L55.192 287.97C55.192 287.97 55.252 287.95 55.282 287.97L60.6787 290.99C60.6787 290.99 60.6987 291.03 60.6787 291.04L55.6218 293.76C55.6218 293.76 55.5618 293.78 55.5318 293.76L49.6654 291.47L49.6554 291.46Z" fill="#92B6DA"/>
</g>
<g opacity="0.5">
<path d="M42.0301 299.728C42.0301 299.728 41.9901 299.748 41.9901 299.718L40.511 293.358C40.511 293.358 40.511 293.298 40.541 293.278L45.1382 289.138C45.1382 289.138 45.1781 289.128 45.1881 289.158L46.1376 294.828C46.1376 294.828 46.1376 294.898 46.1176 294.918L42.06 299.738L42.0301 299.728Z" fill="#92B6DA"/>
</g>
<g opacity="0.5">
<path d="M130.096 127.175C130.096 127.175 130.066 127.145 130.096 127.135L135.633 123.685C135.633 123.685 135.693 123.665 135.723 123.685L141.12 126.705C141.12 126.705 141.14 126.745 141.12 126.755L136.063 129.475C136.063 129.475 136.003 129.495 135.973 129.475L130.106 127.185L130.096 127.175Z" fill="#92B6DA"/>
</g>
<g opacity="0.5">
<path d="M122.461 135.435C122.461 135.435 122.421 135.455 122.421 135.425L120.942 129.065C120.942 129.065 120.942 129.005 120.972 128.985L125.569 124.845C125.569 124.845 125.609 124.835 125.619 124.865L126.568 130.535C126.568 130.535 126.568 130.605 126.548 130.625L122.491 135.445L122.461 135.435Z" fill="#92B6DA"/>
</g>
<g opacity="0.5">
<path d="M115.435 147.296C115.435 147.296 115.395 147.276 115.415 147.256L119.003 141.806C119.003 141.806 119.053 141.766 119.083 141.766L125.249 142.246C125.249 142.246 125.289 142.266 125.269 142.286L121.811 146.876C121.811 146.876 121.761 146.916 121.731 146.916L115.445 147.286L115.435 147.296Z" fill="#92B6DA"/>
</g>
<g opacity="0.5">
<path d="M138.501 136.913C138.501 136.913 138.471 136.883 138.501 136.873L144.038 133.423C144.038 133.423 144.098 133.403 144.128 133.423L149.524 136.443C149.524 136.443 149.544 136.483 149.524 136.493L144.467 139.213C144.467 139.213 144.408 139.233 144.378 139.213L138.511 136.923L138.501 136.913Z" fill="#92B6DA"/>
</g>
<g opacity="0.5">
<path d="M130.876 145.185C130.876 145.185 130.836 145.205 130.836 145.175L129.357 138.815C129.357 138.815 129.357 138.755 129.387 138.735L133.984 134.595C133.984 134.595 134.024 134.585 134.034 134.615L134.983 140.285C134.983 140.285 134.983 140.355 134.963 140.375L130.906 145.195L130.876 145.185Z" fill="#92B6DA"/>
</g>
<g opacity="0.5">
<path d="M123.85 157.046C123.85 157.046 123.81 157.026 123.83 157.006L127.418 151.556C127.418 151.556 127.468 151.516 127.498 151.516L133.664 151.996C133.664 151.996 133.704 152.016 133.684 152.036L130.226 156.626C130.226 156.626 130.176 156.666 130.146 156.666L123.86 157.036L123.85 157.046Z" fill="#92B6DA"/>
</g>
<g opacity="0.5">
<path d="M129.677 175.143C129.677 175.143 129.647 175.113 129.677 175.103L135.213 171.653C135.213 171.653 135.273 171.633 135.303 171.653L140.7 174.673C140.7 174.673 140.72 174.713 140.7 174.723L135.643 177.443C135.643 177.443 135.583 177.463 135.553 177.443L129.687 175.153L129.677 175.143Z" fill="#92B6DA"/>
</g>
<g opacity="0.5">
<path d="M122.051 183.412C122.051 183.412 122.011 183.432 122.011 183.402L120.532 177.042C120.532 177.042 120.532 176.982 120.562 176.962L125.159 172.822C125.159 172.822 125.199 172.812 125.209 172.842L126.159 178.512C126.159 178.512 126.159 178.582 126.139 178.602L122.081 183.422L122.051 183.412Z" fill="#92B6DA"/>
</g>
<g opacity="0.5">
<path d="M115.016 195.264C115.016 195.264 114.976 195.244 114.996 195.224L118.583 189.774C118.583 189.774 118.633 189.734 118.663 189.734L124.83 190.214C124.83 190.214 124.87 190.234 124.85 190.254L121.392 194.844C121.392 194.844 121.342 194.884 121.312 194.884L115.026 195.254L115.016 195.264Z" fill="#92B6DA"/>
</g>
<g opacity="0.5">
<path d="M138.081 184.893C138.081 184.893 138.051 184.863 138.081 184.853L143.618 181.403C143.618 181.403 143.678 181.383 143.708 181.403L149.105 184.423C149.105 184.423 149.125 184.463 149.105 184.473L144.048 187.193C144.048 187.193 143.988 187.213 143.958 187.193L138.091 184.903L138.081 184.893Z" fill="#92B6DA"/>
</g>
<g opacity="0.5">
<path d="M130.456 193.162C130.456 193.162 130.416 193.182 130.416 193.152L128.937 186.792C128.937 186.792 128.937 186.732 128.967 186.712L133.564 182.572C133.564 182.572 133.604 182.562 133.614 182.592L134.564 188.262C134.564 188.262 134.564 188.332 134.544 188.352L130.486 193.172L130.456 193.162Z" fill="#92B6DA"/>
</g>
<g opacity="0.5">
<path d="M123.43 205.014C123.43 205.014 123.39 204.994 123.41 204.974L126.998 199.524C126.998 199.524 127.048 199.484 127.078 199.484L133.244 199.964C133.244 199.964 133.284 199.984 133.264 200.004L129.806 204.594C129.806 204.594 129.757 204.634 129.727 204.634L123.44 205.004L123.43 205.014Z" fill="#92B6DA"/>
</g>
<g opacity="0.5">
<path d="M111.808 155.382C111.808 155.382 111.778 155.352 111.808 155.342L117.344 151.892C117.344 151.892 117.404 151.872 117.434 151.892L122.831 154.912C122.831 154.912 122.851 154.952 122.831 154.962L117.774 157.682C117.774 157.682 117.714 157.702 117.684 157.682L111.818 155.392L111.808 155.382Z" fill="#92B6DA"/>
</g>
<g opacity="0.5">
<path d="M97.1462 175.503C97.1462 175.503 97.1062 175.483 97.1262 175.463L100.714 170.013C100.714 170.013 100.764 169.973 100.794 169.973L106.96 170.453C106.96 170.453 107 170.473 106.98 170.493L103.522 175.083C103.522 175.083 103.472 175.123 103.442 175.123L97.1562 175.493L97.1462 175.503Z" fill="#92B6DA"/>
</g>
<g opacity="0.5">
<path d="M120.212 165.132C120.212 165.132 120.182 165.102 120.212 165.092L125.749 161.642C125.749 161.642 125.809 161.622 125.839 161.642L131.236 164.662C131.236 164.662 131.256 164.702 131.236 164.712L126.179 167.432C126.179 167.432 126.119 167.452 126.089 167.432L120.222 165.142L120.212 165.132Z" fill="#92B6DA"/>
</g>
<g opacity="0.5">
<path d="M112.587 173.392C112.587 173.392 112.547 173.412 112.547 173.382L111.068 167.022C111.068 167.022 111.068 166.962 111.098 166.942L115.695 162.802C115.695 162.802 115.735 162.792 115.745 162.822L116.694 168.492C116.694 168.492 116.694 168.562 116.674 168.582L112.617 173.402L112.587 173.392Z" fill="#92B6DA"/>
</g>
<g opacity="0.5">
<path d="M105.561 185.253C105.561 185.253 105.521 185.233 105.541 185.213L109.129 179.763C109.129 179.763 109.179 179.723 109.209 179.723L115.375 180.203C115.375 180.203 115.415 180.223 115.395 180.243L111.937 184.833C111.937 184.833 111.887 184.873 111.857 184.873L105.571 185.243L105.561 185.253Z" fill="#92B6DA"/>
</g>
<g opacity="0.5">
<path d="M142.299 153.963C142.299 153.963 142.259 153.983 142.259 153.953L140.78 147.593C140.78 147.593 140.78 147.533 140.81 147.513L145.407 143.373C145.407 143.373 145.447 143.363 145.457 143.393L146.406 149.063C146.406 149.063 146.406 149.133 146.386 149.153L142.329 153.973L142.299 153.963Z" fill="#92B6DA"/>
</g>
<g opacity="0.5">
<path d="M135.263 165.811C135.263 165.811 135.223 165.791 135.243 165.771L138.831 160.321C138.831 160.321 138.881 160.281 138.911 160.281L145.077 160.761C145.077 160.761 145.117 160.781 145.097 160.801L141.639 165.391C141.639 165.391 141.589 165.431 141.559 165.431L135.273 165.801L135.263 165.811Z" fill="#92B6DA"/>
</g>
<g opacity="0.5">
<path d="M150.704 163.713C150.704 163.713 150.664 163.733 150.664 163.703L149.185 157.343C149.185 157.343 149.185 157.283 149.215 157.263L153.812 153.123C153.812 153.123 153.852 153.113 153.862 153.143L154.811 158.813C154.811 158.813 154.811 158.883 154.791 158.903L150.734 163.723L150.704 163.713Z" fill="#92B6DA"/>
</g>
<g opacity="0.5">
<path d="M143.678 175.561C143.678 175.561 143.638 175.541 143.658 175.521L147.246 170.071C147.246 170.071 147.296 170.031 147.326 170.031L153.492 170.511C153.492 170.511 153.532 170.531 153.512 170.551L150.054 175.141C150.054 175.141 150.004 175.181 149.974 175.181L143.688 175.551L143.678 175.561Z" fill="#92B6DA"/>
</g>
<g opacity="0.5">
<path d="M114.186 106.163C114.186 106.163 114.156 106.133 114.186 106.123L119.723 102.673C119.723 102.673 119.783 102.653 119.813 102.673L125.209 105.693C125.209 105.693 125.229 105.733 125.209 105.743L120.152 108.463C120.152 108.463 120.092 108.483 120.062 108.463L114.196 106.173L114.186 106.163Z" fill="#92B6DA"/>
</g>
<g opacity="0.5">
<path d="M122.591 115.913C122.591 115.913 122.561 115.883 122.591 115.873L128.128 112.423C128.128 112.423 128.188 112.403 128.218 112.423L133.614 115.443C133.614 115.443 133.634 115.483 133.614 115.493L128.557 118.213C128.557 118.213 128.497 118.233 128.467 118.213L122.601 115.923L122.591 115.913Z" fill="#92B6DA"/>
</g>
<g opacity="0.5">
<path d="M114.966 124.181C114.966 124.181 114.926 124.201 114.926 124.171L113.447 117.811C113.447 117.811 113.447 117.751 113.477 117.731L118.074 113.591C118.074 113.591 118.114 113.581 118.124 113.611L119.073 119.281C119.073 119.281 119.073 119.351 119.053 119.371L114.996 124.191L114.966 124.181Z" fill="#92B6DA"/>
</g>
<g opacity="0.5">
<path d="M107.94 136.034C107.94 136.034 107.9 136.014 107.92 135.994L111.507 130.544C111.507 130.544 111.557 130.504 111.587 130.504L117.754 130.984C117.754 130.984 117.794 131.004 117.774 131.024L114.316 135.614C114.316 135.614 114.266 135.654 114.236 135.654L107.95 136.024L107.94 136.034Z" fill="#92B6DA"/>
</g>
<g opacity="0.5">
<path d="M59.2094 186.303C59.2094 186.303 59.1694 186.283 59.1894 186.263L62.7772 180.813C62.7772 180.813 62.8272 180.773 62.8572 180.773L69.0234 181.253C69.0234 181.253 69.0634 181.273 69.0434 181.293L65.5855 185.883C65.5855 185.883 65.5356 185.923 65.5056 185.923L59.2194 186.293L59.2094 186.303Z" fill="#92B6DA"/>
</g>
<g opacity="0.5">
<path d="M82.2753 175.932C82.2753 175.932 82.2453 175.902 82.2753 175.892L87.8119 172.442C87.8119 172.442 87.8719 172.422 87.9018 172.442L93.2986 175.462C93.2986 175.462 93.3186 175.502 93.2986 175.512L88.2416 178.232C88.2416 178.232 88.1817 178.252 88.1517 178.232L82.2853 175.942L82.2753 175.932Z" fill="#92B6DA"/>
</g>
<g opacity="0.5">
<path d="M74.6499 184.201C74.6499 184.201 74.61 184.221 74.61 184.191L73.1309 177.831C73.1309 177.831 73.1309 177.771 73.1608 177.751L77.758 173.611C77.758 173.611 77.798 173.601 77.808 173.631L78.7574 179.301C78.7574 179.301 78.7574 179.371 78.7374 179.391L74.6799 184.211L74.6499 184.201Z" fill="#92B6DA"/>
</g>
<g opacity="0.5">
<path d="M67.6142 196.053C67.6142 196.053 67.5742 196.033 67.5942 196.013L71.182 190.563C71.182 190.563 71.232 190.523 71.262 190.523L77.4282 191.003C77.4282 191.003 77.4682 191.023 77.4482 191.043L73.9903 195.633C73.9903 195.633 73.9403 195.673 73.9104 195.673L67.6242 196.043L67.6142 196.053Z" fill="#92B6DA"/>
</g>
<g opacity="0.5">
<path d="M91.2897 185.874C91.2897 185.874 91.2597 185.844 91.2897 185.834L96.8263 182.384C96.8263 182.384 96.8863 182.364 96.9163 182.384L102.313 185.404C102.313 185.404 102.333 185.444 102.313 185.454L97.2561 188.174C97.2561 188.174 97.1961 188.194 97.1661 188.174L91.2997 185.884L91.2897 185.874Z" fill="#92B6DA"/>
</g>
<g opacity="0.5">
<path d="M83.6646 194.142C83.6646 194.142 83.6246 194.162 83.6246 194.132L82.1455 187.772C82.1455 187.772 82.1455 187.712 82.1755 187.692L86.7727 183.552C86.7727 183.552 86.8127 183.542 86.8226 183.572L87.7721 189.242C87.7721 189.242 87.7721 189.312 87.7521 189.332L83.6946 194.152L83.6646 194.142Z" fill="#92B6DA"/>
</g>
<g opacity="0.5">
<path d="M76.6288 205.995C76.6288 205.995 76.5889 205.975 76.6089 205.955L80.1967 200.505C80.1967 200.505 80.2466 200.465 80.2766 200.465L86.4429 200.945C86.4429 200.945 86.4828 200.965 86.4629 200.985L83.005 205.575C83.005 205.575 82.955 205.615 82.925 205.615L76.6388 205.985L76.6288 205.995Z" fill="#92B6DA"/>
</g>
<g opacity="0.5">
<path d="M99.7047 195.624C99.7047 195.624 99.6747 195.594 99.7047 195.584L105.241 192.134C105.241 192.134 105.301 192.114 105.331 192.134L110.728 195.154C110.728 195.154 110.748 195.194 110.728 195.204L105.671 197.924C105.671 197.924 105.611 197.944 105.581 197.924L99.7147 195.634L99.7047 195.624Z" fill="#92B6DA"/>
</g>
<g opacity="0.5">
<path d="M92.0794 203.892C92.0794 203.892 92.0394 203.912 92.0394 203.882L90.5603 197.522C90.5603 197.522 90.5603 197.462 90.5903 197.442L95.1875 193.302C95.1875 193.302 95.2275 193.292 95.2375 193.322L96.1869 198.992C96.1869 198.992 96.1869 199.062 96.1669 199.082L92.1094 203.902L92.0794 203.892Z" fill="#92B6DA"/>
</g>
<g opacity="0.5">
<path d="M85.0436 215.745C85.0436 215.745 85.0037 215.725 85.0237 215.705L88.6115 210.255C88.6115 210.255 88.6614 210.215 88.6914 210.215L94.8577 210.695C94.8577 210.695 94.8976 210.715 94.8777 210.735L91.4198 215.325C91.4198 215.325 91.3698 215.365 91.3398 215.365L85.0536 215.735L85.0436 215.745Z" fill="#92B6DA"/>
</g>
<g opacity="0.5">
<path d="M108.839 205.401C108.839 205.401 108.809 205.371 108.839 205.361L114.376 201.911C114.376 201.911 114.436 201.891 114.466 201.911L119.863 204.931C119.863 204.931 119.883 204.971 119.863 204.981L114.806 207.701C114.806 207.701 114.746 207.721 114.716 207.701L108.849 205.411L108.839 205.401Z" fill="#92B6DA"/>
</g>
<g opacity="0.5">
<path d="M101.204 213.67C101.204 213.67 101.164 213.69 101.164 213.66L99.6848 207.3C99.6848 207.3 99.6848 207.24 99.7148 207.22L104.312 203.08C104.312 203.08 104.352 203.07 104.362 203.1L105.311 208.77C105.311 208.77 105.311 208.84 105.291 208.86L101.234 213.68L101.204 213.67Z" fill="#92B6DA"/>
</g>
<g opacity="0.5">
<path d="M94.1782 225.522C94.1782 225.522 94.1382 225.502 94.1582 225.482L97.746 220.032C97.746 220.032 97.796 219.992 97.8259 219.992L103.992 220.472C103.992 220.472 104.032 220.492 104.012 220.512L100.554 225.102C100.554 225.102 100.504 225.142 100.474 225.142L94.1882 225.512L94.1782 225.522Z" fill="#92B6DA"/>
</g>
<g opacity="0.5">
<path d="M117.244 215.151C117.244 215.151 117.214 215.121 117.244 215.111L122.781 211.661C122.781 211.661 122.841 211.641 122.871 211.661L128.267 214.681C128.267 214.681 128.287 214.721 128.267 214.731L123.21 217.451C123.21 217.451 123.15 217.471 123.12 217.451L117.254 215.161L117.244 215.151Z" fill="#92B6DA"/>
</g>
<g opacity="0.5">
<path d="M109.619 223.42C109.619 223.42 109.579 223.44 109.579 223.41L108.1 217.05C108.1 217.05 108.1 216.99 108.13 216.97L112.727 212.83C112.727 212.83 112.767 212.82 112.777 212.85L113.726 218.52C113.726 218.52 113.726 218.59 113.706 218.61L109.649 223.43L109.619 223.42Z" fill="#92B6DA"/>
</g>
<g opacity="0.5">
<path d="M102.593 235.272C102.593 235.272 102.553 235.252 102.573 235.232L106.161 229.782C106.161 229.782 106.211 229.742 106.241 229.742L112.407 230.222C112.407 230.222 112.447 230.242 112.427 230.262L108.969 234.852C108.969 234.852 108.919 234.892 108.889 234.892L102.603 235.262L102.593 235.272Z" fill="#92B6DA"/>
</g>
</g>
<path d="M180.411 330.182L182.14 370.052C182.52 378.902 176.294 385.312 167.659 386.082C160.044 386.762 150.949 380.502 151.569 371.692L154.517 330.372L115.411 345.372C110.254 347.352 104.008 344.162 101.22 341.182C96.8922 336.542 95.2932 330.812 97.4619 324.962C99.3507 319.852 104.428 316.172 109.604 314.942L147.072 306.052L123.166 276.772C116.91 269.112 117.2 258.652 124.785 253.032C132.301 247.462 142.854 249.532 147.951 258.042L167.599 290.852L190.185 256.382C194.613 249.622 203.897 249.362 210.153 252.702C217.389 257.162 219.148 265.312 216.03 273.682L188.286 306.052L223.885 315.202C232.709 317.472 238.686 323.432 237.836 332.392C236.987 341.352 229.182 347.702 219.837 346.432L180.411 330.192V330.182Z" fill="#603813"/>
<rect x="89.2263" y="397.844" width="15.4172" height="0.203125" fill="#DCD6CB"/>
<rect x="89.4326" y="397.715" width="15.168" height="0.273438" fill="#DCD6CB"/>
<line x1="104.303" y1="397.88" x2="104.621" y2="397.745" stroke="#DCD6CB"/>
<line x1="89.205" y1="398.255" x2="89.0132" y2="397.968" stroke="#DCD6CB"/>
</svg>
