<svg width="321" height="685" viewBox="0 0 321 685" fill="none" xmlns="http://www.w3.org/2000/svg">
<path d="M104.9 62.8922C95.9601 65.8722 94.7301 78.0522 102.91 82.7522C112.07 88.0122 121.18 94.1222 121.18 101.502V164.432C121.18 168.112 118.57 171.262 114.96 171.962C94.1401 175.952 27.5601 193.112 15.5701 251.022C11.7601 269.452 10.5801 289.122 10.9101 308.042C11.6901 353.352 21.4101 398.062 38.9101 439.872C55.6001 479.732 80.7101 546.752 84.5601 597.272C85.3401 607.492 80.6401 617.332 72.3201 623.322C65.5701 628.172 59.6801 633.392 59.6801 640.632C59.6801 652.892 82.0301 679.992 163.9 679.992C195.33 679.992 218.22 674.832 234.49 668.482C254.05 660.842 256.42 634.112 238.47 623.202C238.22 623.052 237.97 622.902 237.71 622.742C235.24 621.242 233.82 618.492 234.02 615.612C236.69 576.832 277.64 459.492 294.42 403.512C300.42 383.492 323.49 303.242 302.73 240.352C285.56 188.362 227.79 175.292 208.27 172.332C204.53 171.762 201.77 168.542 201.77 164.762V103.032C201.77 101.942 202 100.872 202.45 99.8822C204.81 94.6822 230.92 88.7522 230.92 77.7422C230.92 65.7322 217.74 55.2422 159.75 55.2422C134.75 55.2422 116.93 58.9122 104.91 62.9122L104.9 62.8922Z" fill="#DCD6CB"/>
<path d="M104.9 62.8922C95.9601 65.8722 94.7301 78.0522 102.91 82.7522C112.07 88.0122 121.18 94.1222 121.18 101.502V164.432C121.18 168.112 118.57 171.262 114.96 171.962C94.1401 175.952 27.5601 193.112 15.5701 251.022C11.7601 269.452 10.5801 289.122 10.9101 308.042C11.6901 353.352 21.4101 398.062 38.9101 439.872C55.6001 479.732 80.7101 546.752 84.5601 597.272C85.3401 607.492 80.6401 617.332 72.3201 623.322C65.5701 628.172 59.6801 633.392 59.6801 640.632C59.6801 652.892 82.0301 679.992 163.9 679.992C195.33 679.992 218.22 674.832 234.49 668.482C254.05 660.842 256.42 634.112 238.47 623.202C238.22 623.052 237.97 622.902 237.71 622.742C235.24 621.242 233.82 618.492 234.02 615.612C236.69 576.832 277.64 459.492 294.42 403.512C300.42 383.492 323.49 303.242 302.73 240.352C285.56 188.362 227.79 175.292 208.27 172.332C204.53 171.762 201.77 168.542 201.77 164.762V103.032C201.77 101.942 202 100.872 202.45 99.8822C204.81 94.6822 230.92 88.7522 230.92 77.7422C230.92 65.7322 217.74 55.2422 159.75 55.2422C134.75 55.2422 116.93 58.9122 104.91 62.9122L104.9 62.8922Z" stroke="#DCD6CB" stroke-width="9" stroke-miterlimit="10"/>
<mask id="mask0_180_21660" style="mask-type:alpha" maskUnits="userSpaceOnUse" x="0" y="205" width="321" height="194">
<path d="M320.5 397.992H208.574L186.632 373.077L185.84 372.178L185.758 373.373L184.069 397.992H129.182L121.883 389.704L121.092 388.807L121.009 390L120.451 397.992H104.899L100.862 388.412L100.596 387.778L100.075 388.228L88.7734 397.992H74.1533L60.083 364.674L59.124 364.834L56.8574 397.992H42.8643L16.2314 382.502L15.5352 382.097L15.4805 382.899L14.4531 397.992H0.5V213.684C15.2503 218.291 33.6378 222.182 54.668 225.121C57.2282 225.504 59.8221 225.847 62.4717 226.17L75.5391 239.112L76.3906 239.956V227.74C79.589 228.08 82.8481 228.386 86.1484 228.664L117.847 260.065L118.698 260.909V230.676C128.927 231.103 139.456 231.303 150.182 231.303H152.825L160.021 259.822L161.006 259.7V231.224C165.15 231.18 169.26 231.092 173.314 230.953L173.313 230.952C176.13 230.88 178.911 230.789 181.68 230.676L181.679 230.675C187.116 230.463 192.485 230.191 197.762 229.852L202.367 238.972L202.677 239.585L203.165 239.102L213.662 228.705C218.609 228.277 223.444 227.801 228.188 227.287L244.675 259.936L245.621 259.71V225.143C249.067 224.663 252.448 224.149 255.763 223.624L287.206 239.205L287.929 239.562V217.07C293.252 215.708 298.202 214.278 302.779 212.763L308.23 218.158L308.558 217.827L308.895 218.193L308.907 218.184L309.32 217.83L309.291 217.802L320.5 206.691V397.992Z" fill="#C59B6D" stroke="#C59B6D"/>
</mask>
<g mask="url(#mask0_180_21660)">
<path d="M159.55 57.2617C188.532 57.2617 206.246 59.8854 216.699 63.9736C221.92 66.0154 225.295 68.4097 227.364 70.9922C229.427 73.5655 230.22 76.3589 230.22 79.2617C230.22 81.8023 228.715 84.1115 226.273 86.2588C223.837 88.4015 220.546 90.3147 217.142 92.0654C215.443 92.9393 213.723 93.769 212.077 94.5645C210.434 95.3585 208.86 96.1204 207.462 96.8545C206.065 97.5876 204.826 98.3015 203.857 99.0039C202.902 99.6966 202.146 100.421 201.795 101.194C201.315 102.25 201.07 103.391 201.07 104.552V166.281C201.07 170.308 204.01 173.738 207.994 174.346H207.995C217.726 175.821 236.987 179.818 255.946 189.917C274.901 200.014 293.522 216.193 302.055 242.028C312.401 273.371 311.832 309.07 307.914 339.464C303.997 369.85 296.739 394.887 293.741 404.888C285.348 432.887 270.929 476.176 258.251 517.385C251.916 537.977 246.02 558.038 241.54 575.378C237.063 592.707 233.992 607.351 233.321 617.097C233.108 620.163 234.62 623.091 237.25 624.688C237.511 624.849 237.762 625 238.01 625.148V625.149C255.604 635.843 253.284 662.046 234.108 669.536C217.902 675.861 195.075 681.012 163.7 681.012C122.814 681.012 96.8465 674.244 81.1211 665.986C65.3689 657.715 59.9795 648.008 59.9795 642.151C59.9796 638.68 61.3889 635.674 63.6553 632.918C65.9281 630.155 69.0435 627.668 72.4121 625.248V625.247C80.8698 619.158 85.6519 609.152 84.8584 598.754C81.0015 548.144 55.8597 481.055 39.1709 441.198C21.6945 399.445 11.9888 354.797 11.21 309.553C10.8804 290.658 12.0591 271.027 15.8594 252.644C21.8154 223.877 41.3309 205.21 62.0049 193.225C82.6819 181.237 104.47 175.963 114.854 173.973H114.855C118.699 173.227 121.479 169.872 121.479 165.952V103.021C121.479 99.1175 119.073 95.6198 115.616 92.4814C112.584 89.7281 108.676 87.1902 104.677 84.8359L102.959 83.8379C95.2799 79.4255 96.2914 68.103 104.45 65.0303L104.457 65.043L104.868 64.9062C116.834 60.9245 134.6 57.2617 159.55 57.2617Z" fill="#C59B6D" stroke="#C59B6D"/>
<path d="M104.7 64.4117C95.7599 67.3917 94.5299 79.5717 102.71 84.2717C111.87 89.5317 120.98 95.6417 120.98 103.022V165.952C120.98 169.632 118.37 172.782 114.76 173.482C93.9399 177.472 27.3599 194.632 15.3699 252.542C11.5599 270.972 10.3799 290.642 10.7099 309.562C11.4899 354.872 21.2099 399.582 38.7099 441.392C55.3999 481.252 80.5099 548.272 84.3599 598.792C85.1399 609.012 80.4399 618.852 72.1199 624.842C65.3699 629.692 59.4799 634.912 59.4799 642.152C59.4799 654.412 81.8299 681.512 163.7 681.512C195.13 681.512 218.02 676.352 234.29 670.002C253.85 662.362 256.22 635.632 238.27 624.722C238.02 624.572 237.77 624.422 237.51 624.262C235.04 622.762 233.62 620.012 233.82 617.132C236.49 578.352 277.44 461.012 294.22 405.032C300.22 385.012 323.29 304.762 302.53 241.872C285.36 189.882 227.59 176.812 208.07 173.852C204.33 173.282 201.57 170.062 201.57 166.282V104.552C201.57 103.462 201.8 102.392 202.25 101.402C204.61 96.2017 230.72 90.2717 230.72 79.2617C230.72 67.2517 217.54 56.7617 159.55 56.7617C134.55 56.7617 116.73 60.4317 104.71 64.4317L104.7 64.4117Z" stroke="#C59B6D" stroke-width="9" stroke-miterlimit="10"/>
</g>
<path d="M75.5498 612.434C114.98 626.084 157.71 633.574 199.07 625.744C212.76 623.164 226.02 618.554 238.75 612.434C221.19 624.464 200.01 631.194 178.8 633.144C143.77 636.244 106.74 628.534 75.5498 612.434Z" fill="#E2E3E2"/>
<path d="M128.28 53.6409V38.5109C128.28 38.5109 113.6 37.7709 113.6 20.2709C113.6 2.77086 136.99 4.55086 136.99 4.55086H194.74C200.37 4.55086 205.92 7.00086 209.13 11.6309C210.76 13.9909 211.95 17.0209 211.95 20.8709C211.95 33.1809 200.68 38.3709 200.68 38.3709L199.94 54.0909L128.3 53.6509L128.28 53.6409Z" fill="#CDB43A" stroke="#CDB43A" stroke-width="9" stroke-miterlimit="10"/>
<path d="M257.04 202.941C279.06 211.371 291.12 238.661 295.36 260.391C299.97 283.661 299.15 307.861 294.9 331.091C295.18 302.041 295.11 272.511 286.11 244.651C280.71 228.561 272.04 211.891 257.04 202.941Z" fill="#E7E2D5"/>
<path d="M65.9899 202.143C59.6299 205.703 54.5799 211.163 50.2299 216.913C44.2999 225.053 40.0399 234.303 36.9099 243.853C27.9099 271.713 27.8399 301.243 28.1199 330.293C23.6299 305.613 22.9099 279.783 28.6199 255.213C33.3799 234.793 45.2399 210.073 65.9799 202.133L65.9899 202.143Z" fill="#E7E2D5"/>
<path d="M126.14 103.631C137.12 120.211 136.17 146.011 127.36 163.371C127.55 159.491 128.05 155.791 128.32 151.961C129.77 135.801 129.49 119.601 126.14 103.621V103.631Z" fill="#E7E2D5"/>
<path d="M197.2 104.133C193.85 120.103 193.57 136.313 195.02 152.473C195.29 156.293 195.79 159.993 195.98 163.883C187.17 146.533 186.22 120.733 197.2 104.143V104.133Z" fill="#E7E2D5"/>
<path d="M33.1802 431.583C33.1802 431.583 161.84 420.983 280.99 431.003C265.97 451.023 257.46 456.033 257.46 456.033L33.1802 431.583Z" fill="#92B6DA"/>
<path d="M31.75 432.744C31.75 432.744 95.58 412.394 152.65 432.744C209.72 453.094 281.06 431.584 281.06 431.584C281.06 431.584 226.99 558.934 226.99 603.704C171.42 625.224 97.83 606.034 97.83 606.034C97.83 606.034 101.58 541.484 31.75 432.754V432.744Z" fill="#5388C5"/>
<g opacity="0.5">
<g opacity="0.5">
<path d="M63.9799 203.723C63.9799 203.723 63.9499 203.693 63.9799 203.683L69.5699 200.313C69.5699 200.313 69.6299 200.303 69.6599 200.313L75.0099 203.413C75.0099 203.413 75.0299 203.453 75.0099 203.463L69.9099 206.103C69.9099 206.103 69.8399 206.113 69.8199 206.103L63.9899 203.723H63.9799Z" fill="#92B6DA"/>
</g>
<g opacity="0.5">
<path d="M56.22 211.874C56.22 211.874 56.18 211.894 56.18 211.864L54.8 205.484C54.8 205.484 54.8 205.424 54.83 205.404L59.4901 201.334C59.4901 201.334 59.53 201.324 59.54 201.354L60.4 207.034C60.4 207.034 60.4 207.104 60.37 207.124L56.23 211.874H56.22Z" fill="#92B6DA"/>
</g>
<g opacity="0.5">
<path d="M49 223.615C49 223.615 48.96 223.595 48.98 223.575L52.66 218.185C52.66 218.185 52.71 218.145 52.74 218.145L58.9 218.725C58.9 218.725 58.94 218.745 58.92 218.765L55.39 223.295C55.39 223.295 55.34 223.335 55.31 223.335L49.01 223.605L49 223.615Z" fill="#92B6DA"/>
</g>
<g opacity="0.5">
<path d="M72.2399 213.602C72.2399 213.602 72.2099 213.572 72.2399 213.562L77.8299 210.192C77.8299 210.192 77.8899 210.182 77.9199 210.192L83.2699 213.292C83.2699 213.292 83.2899 213.332 83.2699 213.342L78.1699 215.982C78.1699 215.982 78.0999 215.992 78.0799 215.982L72.2499 213.602H72.2399Z" fill="#92B6DA"/>
</g>
<g opacity="0.5">
<path d="M64.4801 221.753C64.4801 221.753 64.4401 221.773 64.4401 221.743L63.0601 215.363C63.0601 215.363 63.0601 215.303 63.0901 215.283L67.7501 211.213C67.7501 211.213 67.7901 211.203 67.8001 211.233L68.6601 216.913C68.6601 216.913 68.6601 216.983 68.6301 217.003L64.4901 221.753H64.4801Z" fill="#92B6DA"/>
</g>
<g opacity="0.5">
<path d="M57.26 233.493C57.26 233.493 57.22 233.473 57.24 233.453L60.92 228.063C60.92 228.063 60.97 228.023 61 228.023L67.16 228.603C67.16 228.603 67.2 228.623 67.18 228.643L63.65 233.173C63.65 233.173 63.6 233.213 63.57 233.213L57.27 233.483L57.26 233.493Z" fill="#92B6DA"/>
</g>
<g opacity="0.5">
<path d="M62.8097 251.68C62.8097 251.68 62.7797 251.65 62.8097 251.64L68.3997 248.27C68.3997 248.27 68.4597 248.26 68.4897 248.27L73.8397 251.37C73.8397 251.37 73.8597 251.41 73.8397 251.42L68.7397 254.06C68.7397 254.06 68.6697 254.07 68.6497 254.06L62.8197 251.68H62.8097Z" fill="#92B6DA"/>
</g>
<g opacity="0.5">
<path d="M55.0499 259.831C55.0499 259.831 55.0099 259.851 55.0099 259.821L53.6299 253.441C53.6299 253.441 53.6299 253.381 53.6599 253.361L58.3199 249.291C58.3199 249.291 58.3599 249.281 58.3699 249.311L59.2299 254.991C59.2299 254.991 59.2299 255.061 59.1999 255.081L55.0599 259.831H55.0499Z" fill="#92B6DA"/>
</g>
<g opacity="0.5">
<path d="M47.8298 271.572C47.8298 271.572 47.7898 271.552 47.8098 271.532L51.4898 266.142C51.4898 266.142 51.5398 266.102 51.5698 266.102L57.7298 266.682C57.7298 266.682 57.7698 266.702 57.7498 266.722L54.2198 271.252C54.2198 271.252 54.1698 271.292 54.1398 271.292L47.8398 271.562L47.8298 271.572Z" fill="#92B6DA"/>
</g>
<g opacity="0.5">
<path d="M71.0697 261.559C71.0697 261.559 71.0397 261.529 71.0697 261.519L76.6597 258.149C76.6597 258.149 76.7197 258.139 76.7497 258.149L82.0997 261.249C82.0997 261.249 82.1197 261.289 82.0997 261.299L76.9997 263.939C76.9997 263.939 76.9297 263.949 76.9097 263.939L71.0797 261.559H71.0697Z" fill="#92B6DA"/>
</g>
<g opacity="0.5">
<path d="M63.3099 269.71C63.3099 269.71 63.2699 269.73 63.2699 269.7L61.8899 263.32C61.8899 263.32 61.8899 263.26 61.9199 263.24L66.5799 259.17C66.5799 259.17 66.6199 259.16 66.6299 259.19L67.4899 264.87C67.4899 264.87 67.4899 264.94 67.4599 264.96L63.3199 269.71H63.3099Z" fill="#92B6DA"/>
</g>
<g opacity="0.5">
<path d="M56.0898 281.451C56.0898 281.451 56.0498 281.43 56.0698 281.41L59.7498 276.021C59.7498 276.021 59.7998 275.98 59.8298 275.98L65.9898 276.56C65.9898 276.56 66.0298 276.58 66.0098 276.6L62.4798 281.13C62.4798 281.13 62.4298 281.17 62.3998 281.17L56.0998 281.44L56.0898 281.451Z" fill="#92B6DA"/>
</g>
<g opacity="0.5">
<path d="M45.2397 231.641C45.2397 231.641 45.2097 231.611 45.2397 231.601L50.8297 228.231C50.8297 228.231 50.8897 228.221 50.9197 228.231L56.2697 231.331C56.2697 231.331 56.2897 231.371 56.2697 231.381L51.1697 234.021C51.1697 234.021 51.0997 234.031 51.0797 234.021L45.2497 231.641H45.2397Z" fill="#92B6DA"/>
</g>
<g opacity="0.5">
<path d="M37.4798 239.792C37.4798 239.792 37.4398 239.812 37.4398 239.782L36.0598 233.402C36.0598 233.402 36.0598 233.342 36.0898 233.322L40.7498 229.252C40.7498 229.252 40.7898 229.242 40.7998 229.272L41.6598 234.952C41.6598 234.952 41.6598 235.022 41.6298 235.042L37.4898 239.792H37.4798Z" fill="#92B6DA"/>
</g>
<g opacity="0.5">
<path d="M30.2597 251.533C30.2597 251.533 30.2197 251.512 30.2397 251.492L33.9197 246.102C33.9197 246.102 33.9697 246.062 33.9997 246.062L40.1597 246.642C40.1597 246.642 40.1997 246.662 40.1797 246.682L36.6497 251.212C36.6497 251.212 36.5997 251.253 36.5697 251.253L30.2697 251.522L30.2597 251.533Z" fill="#92B6DA"/>
</g>
<g opacity="0.5">
<path d="M53.4997 241.52C53.4997 241.52 53.4697 241.49 53.4997 241.48L59.0897 238.11C59.0897 238.11 59.1497 238.1 59.1797 238.11L64.5297 241.21C64.5297 241.21 64.5497 241.25 64.5297 241.26L59.4297 243.9C59.4297 243.9 59.3597 243.91 59.3397 243.9L53.5097 241.52H53.4997Z" fill="#92B6DA"/>
</g>
<g opacity="0.5">
<path d="M45.7398 249.67C45.7398 249.67 45.6998 249.691 45.6998 249.661L44.3198 243.281C44.3198 243.281 44.3198 243.22 44.3498 243.2L49.0098 239.131C49.0098 239.131 49.0498 239.12 49.0598 239.15L49.9198 244.83C49.9198 244.83 49.9198 244.9 49.8898 244.92L45.7498 249.67H45.7398Z" fill="#92B6DA"/>
</g>
<g opacity="0.5">
<path d="M38.5197 261.411C38.5197 261.411 38.4797 261.391 38.4997 261.371L42.1797 255.981C42.1797 255.981 42.2297 255.941 42.2597 255.941L48.4197 256.521C48.4197 256.521 48.4597 256.541 48.4397 256.561L44.9097 261.091C44.9097 261.091 44.8597 261.131 44.8297 261.131L38.5297 261.401L38.5197 261.411Z" fill="#92B6DA"/>
</g>
<g opacity="0.5">
<path d="M83.5197 222.551C83.5197 222.551 83.4897 222.521 83.5197 222.511L89.1097 219.141C89.1097 219.141 89.1697 219.131 89.1997 219.141L94.5497 222.241C94.5497 222.241 94.5697 222.281 94.5497 222.291L89.4497 224.931C89.4497 224.931 89.3797 224.941 89.3597 224.931L83.5297 222.551H83.5197Z" fill="#92B6DA"/>
</g>
<g opacity="0.5">
<path d="M75.7699 230.702C75.7699 230.702 75.7298 230.722 75.7298 230.692L74.3499 224.312C74.3499 224.312 74.3499 224.252 74.3799 224.232L79.0398 220.162C79.0398 220.162 79.0798 220.152 79.0898 220.182L79.9498 225.862C79.9498 225.862 79.9498 225.932 79.9198 225.952L75.7798 230.702H75.7699Z" fill="#92B6DA"/>
</g>
<g opacity="0.5">
<path d="M68.5498 242.443C68.5498 242.443 68.5098 242.423 68.5298 242.403L72.2098 237.013C72.2098 237.013 72.2598 236.973 72.2898 236.973L78.4498 237.553C78.4498 237.553 78.4898 237.573 78.4698 237.593L74.9398 242.123C74.9398 242.123 74.8898 242.163 74.8598 242.163L68.5598 242.433L68.5498 242.443Z" fill="#92B6DA"/>
</g>
<g opacity="0.5">
<path d="M91.7897 232.43C91.7897 232.43 91.7597 232.4 91.7897 232.39L97.3797 229.02C97.3797 229.02 97.4397 229.01 97.4697 229.02L102.82 232.12C102.82 232.12 102.84 232.16 102.82 232.17L97.7197 234.81C97.7197 234.81 97.6497 234.82 97.6297 234.81L91.7997 232.43H91.7897Z" fill="#92B6DA"/>
</g>
<g opacity="0.5">
<path d="M84.0299 240.581C84.0299 240.581 83.9899 240.601 83.9899 240.571L82.6099 234.191C82.6099 234.191 82.6099 234.131 82.6399 234.111L87.2999 230.041C87.2999 230.041 87.3399 230.031 87.3499 230.061L88.2099 235.741C88.2099 235.741 88.2099 235.811 88.1799 235.831L84.0399 240.581H84.0299Z" fill="#92B6DA"/>
</g>
<g opacity="0.5">
<path d="M76.8098 252.322C76.8098 252.322 76.7698 252.302 76.7898 252.282L80.4698 246.892C80.4698 246.892 80.5198 246.852 80.5498 246.852L86.7098 247.432C86.7098 247.432 86.7498 247.452 86.7298 247.472L83.1998 252.002C83.1998 252.002 83.1498 252.042 83.1198 252.042L76.8198 252.312L76.8098 252.322Z" fill="#92B6DA"/>
</g>
<g opacity="0.5">
<path d="M29.5097 212.493C29.5097 212.493 29.4797 212.463 29.5097 212.453L35.0997 209.083C35.0997 209.083 35.1597 209.073 35.1897 209.083L40.5397 212.183C40.5397 212.183 40.5597 212.223 40.5397 212.233L35.4397 214.873C35.4397 214.873 35.3697 214.883 35.3497 214.873L29.5197 212.493H29.5097Z" fill="#92B6DA"/>
</g>
<g opacity="0.5">
<path d="M21.7498 220.631C21.7498 220.631 21.7098 220.651 21.7098 220.621L20.3298 214.241C20.3298 214.241 20.3298 214.181 20.3598 214.161L25.0198 210.091C25.0198 210.091 25.0598 210.081 25.0698 210.111L25.9298 215.791C25.9298 215.791 25.9298 215.861 25.8998 215.881L21.7598 220.631H21.7498Z" fill="#92B6DA"/>
</g>
<g opacity="0.5">
<path d="M14.5297 232.372C14.5297 232.372 14.4898 232.352 14.5098 232.332L18.1898 226.942C18.1898 226.942 18.2397 226.902 18.2697 226.902L24.4297 227.482C24.4297 227.482 24.4697 227.502 24.4497 227.522L20.9197 232.052C20.9197 232.052 20.8697 232.092 20.8397 232.092L14.5397 232.362L14.5297 232.372Z" fill="#92B6DA"/>
</g>
<g opacity="0.5">
<path d="M37.7797 222.371C37.7797 222.371 37.7497 222.341 37.7797 222.331L43.3697 218.961C43.3697 218.961 43.4297 218.951 43.4597 218.961L48.8097 222.061C48.8097 222.061 48.8297 222.101 48.8097 222.111L43.7097 224.751C43.7097 224.751 43.6397 224.761 43.6197 224.751L37.7897 222.371H37.7797Z" fill="#92B6DA"/>
</g>
<g opacity="0.5">
<path d="M30.0199 230.514C30.0199 230.514 29.9799 230.534 29.9799 230.504L28.5999 224.124C28.5999 224.124 28.5999 224.064 28.6299 224.044L33.2899 219.974C33.2899 219.974 33.3299 219.964 33.3399 219.994L34.1999 225.674C34.1999 225.674 34.1999 225.744 34.1699 225.764L30.0299 230.514H30.0199Z" fill="#92B6DA"/>
</g>
<g opacity="0.5">
<path d="M22.7998 242.251C22.7998 242.251 22.7598 242.231 22.7798 242.211L26.4598 236.821C26.4598 236.821 26.5098 236.781 26.5398 236.781L32.6998 237.361C32.6998 237.361 32.7398 237.381 32.7198 237.401L29.1898 241.931C29.1898 241.931 29.1398 241.971 29.1098 241.971L22.8098 242.241L22.7998 242.251Z" fill="#92B6DA"/>
</g>
<g opacity="0.5">
<path d="M33.4099 202.361C33.4099 202.361 33.3699 202.341 33.3899 202.321L37.0699 196.931C37.0699 196.931 37.1199 196.891 37.1499 196.891L43.3099 197.471C43.3099 197.471 43.3499 197.491 43.3299 197.511L39.7999 202.041C39.7999 202.041 39.7499 202.081 39.7199 202.081L33.4199 202.351L33.4099 202.361Z" fill="#92B6DA"/>
</g>
<g opacity="0.5">
<path d="M56.6498 192.352C56.6498 192.352 56.6198 192.322 56.6498 192.312L62.2398 188.942C62.2398 188.942 62.2998 188.932 62.3298 188.942L67.6798 192.042C67.6798 192.042 67.6998 192.082 67.6798 192.092L62.5798 194.732C62.5798 194.732 62.5098 194.742 62.4898 194.732L56.6598 192.352H56.6498Z" fill="#92B6DA"/>
</g>
<g opacity="0.5">
<path d="M48.89 200.503C48.89 200.503 48.85 200.523 48.85 200.493L47.47 194.113C47.47 194.113 47.47 194.053 47.5 194.033L52.16 189.963C52.16 189.963 52.2 189.953 52.21 189.983L53.07 195.663C53.07 195.663 53.07 195.733 53.04 195.753L48.9 200.503H48.89Z" fill="#92B6DA"/>
</g>
<g opacity="0.5">
<path d="M41.6699 212.243C41.6699 212.243 41.6299 212.223 41.6499 212.203L45.3299 206.813C45.3299 206.813 45.3799 206.773 45.4099 206.773L51.5699 207.353C51.5699 207.353 51.6099 207.373 51.5899 207.393L48.0599 211.923C48.0599 211.923 48.0099 211.963 47.9799 211.963L41.6799 212.233L41.6699 212.243Z" fill="#92B6DA"/>
</g>
<g opacity="0.5">
<path d="M7.10977 241.852C7.10977 241.852 7.07977 241.822 7.10977 241.812L12.6998 238.442C12.6998 238.442 12.7598 238.432 12.7898 238.442L18.1398 241.542C18.1398 241.542 18.1598 241.582 18.1398 241.592L13.0398 244.232C13.0398 244.232 12.9698 244.242 12.9498 244.232L7.11977 241.852H7.10977Z" fill="#92B6DA"/>
</g>
<g opacity="0.5">
<path d="M15.3698 251.731C15.3698 251.731 15.3398 251.701 15.3698 251.691L20.9598 248.321C20.9598 248.321 21.0198 248.311 21.0498 248.321L26.3998 251.421C26.3998 251.421 26.4198 251.461 26.3998 251.471L21.2998 254.111C21.2998 254.111 21.2298 254.121 21.2098 254.111L15.3798 251.731H15.3698Z" fill="#92B6DA"/>
</g>
<g opacity="0.5">
<path d="M7.60994 259.881C7.60994 259.881 7.56994 259.901 7.56994 259.871L6.18994 253.491C6.18994 253.491 6.18994 253.431 6.21994 253.411L10.8799 249.341C10.8799 249.341 10.9199 249.331 10.9299 249.361L11.7899 255.041C11.7899 255.041 11.7899 255.111 11.7599 255.131L7.61994 259.881H7.60994Z" fill="#92B6DA"/>
</g>
<g opacity="0.5">
<path d="M0.389855 271.622C0.389855 271.622 0.349858 271.602 0.369858 271.582L4.04986 266.192C4.04986 266.192 4.09985 266.152 4.12985 266.152L10.2899 266.732C10.2899 266.732 10.3299 266.752 10.3099 266.772L6.77985 271.302C6.77985 271.302 6.72985 271.342 6.69985 271.342L0.399857 271.612L0.389855 271.622Z" fill="#92B6DA"/>
</g>
<g opacity="0.5">
<path d="M24.2397 261.813C24.2397 261.813 24.2097 261.783 24.2397 261.773L29.8297 258.403C29.8297 258.403 29.8897 258.393 29.9197 258.403L35.2697 261.503C35.2697 261.503 35.2897 261.543 35.2697 261.553L30.1697 264.193C30.1697 264.193 30.0997 264.203 30.0797 264.193L24.2497 261.813H24.2397Z" fill="#92B6DA"/>
</g>
<g opacity="0.5">
<path d="M16.4798 269.963C16.4798 269.963 16.4398 269.983 16.4398 269.953L15.0598 263.573C15.0598 263.573 15.0598 263.513 15.0898 263.493L19.7498 259.423C19.7498 259.423 19.7898 259.413 19.7998 259.443L20.6598 265.123C20.6598 265.123 20.6598 265.193 20.6298 265.213L16.4898 269.963H16.4798Z" fill="#92B6DA"/>
</g>
<g opacity="0.5">
<path d="M9.25973 281.704C9.25973 281.704 9.21973 281.684 9.23973 281.664L12.9197 276.274C12.9197 276.274 12.9697 276.234 12.9997 276.234L19.1597 276.814C19.1597 276.814 19.1997 276.834 19.1797 276.854L15.6497 281.384C15.6497 281.384 15.5997 281.424 15.5697 281.424L9.26973 281.694L9.25973 281.704Z" fill="#92B6DA"/>
</g>
<g opacity="0.5">
<path d="M32.4997 271.692C32.4997 271.692 32.4697 271.662 32.4997 271.652L38.0897 268.282C38.0897 268.282 38.1497 268.272 38.1797 268.282L43.5297 271.382C43.5297 271.382 43.5497 271.422 43.5297 271.432L38.4297 274.072C38.4297 274.072 38.3597 274.082 38.3397 274.072L32.5097 271.692H32.4997Z" fill="#92B6DA"/>
</g>
<g opacity="0.5">
<path d="M24.7398 279.842C24.7398 279.842 24.6998 279.862 24.6998 279.832L23.3198 273.452C23.3198 273.452 23.3198 273.392 23.3498 273.372L28.0098 269.302C28.0098 269.302 28.0498 269.292 28.0598 269.322L28.9198 275.002C28.9198 275.002 28.9198 275.072 28.8898 275.092L24.7498 279.842H24.7398Z" fill="#92B6DA"/>
</g>
<g opacity="0.5">
<path d="M17.5197 291.583C17.5197 291.583 17.4797 291.563 17.4997 291.543L21.1797 286.153C21.1797 286.153 21.2297 286.113 21.2597 286.113L27.4197 286.693C27.4197 286.693 27.4597 286.713 27.4397 286.733L23.9097 291.263C23.9097 291.263 23.8597 291.303 23.8297 291.303L17.5297 291.573L17.5197 291.583Z" fill="#92B6DA"/>
</g>
<g opacity="0.5">
<path d="M41.4799 281.614C41.4799 281.614 41.4499 281.584 41.4799 281.574L47.0699 278.204C47.0699 278.204 47.1299 278.194 47.1599 278.204L52.5099 281.304C52.5099 281.304 52.5299 281.344 52.5099 281.354L47.4099 283.994C47.4099 283.994 47.3399 284.004 47.3199 283.994L41.4899 281.614H41.4799Z" fill="#92B6DA"/>
</g>
<g opacity="0.5">
<path d="M33.72 289.764C33.72 289.764 33.68 289.784 33.68 289.754L32.3 283.374C32.3 283.374 32.3 283.314 32.33 283.294L36.99 279.224C36.99 279.224 37.03 279.214 37.04 279.244L37.9 284.924C37.9 284.924 37.9 284.994 37.87 285.014L33.73 289.764H33.72Z" fill="#92B6DA"/>
</g>
<g opacity="0.5">
<path d="M26.5 301.505C26.5 301.505 26.46 301.485 26.48 301.465L30.16 296.075C30.16 296.075 30.21 296.035 30.24 296.035L36.4 296.615C36.4 296.615 36.44 296.635 36.42 296.655L32.89 301.185C32.89 301.185 32.84 301.225 32.81 301.225L26.51 301.495L26.5 301.505Z" fill="#92B6DA"/>
</g>
<g opacity="0.5">
<path d="M49.7499 291.493C49.7499 291.493 49.7199 291.463 49.7499 291.453L55.3399 288.083C55.3399 288.083 55.3999 288.073 55.4299 288.083L60.7799 291.183C60.7799 291.183 60.7999 291.223 60.7799 291.233L55.6799 293.873C55.6799 293.873 55.6099 293.883 55.5899 293.873L49.7599 291.493H49.7499Z" fill="#92B6DA"/>
</g>
<g opacity="0.5">
<path d="M41.9901 299.643C41.9901 299.643 41.9501 299.663 41.9501 299.633L40.5701 293.253C40.5701 293.253 40.5701 293.193 40.6001 293.173L45.2601 289.103C45.2601 289.103 45.3001 289.093 45.3101 289.123L46.1701 294.803C46.1701 294.803 46.1701 294.873 46.1401 294.893L42.0001 299.643H41.9901Z" fill="#92B6DA"/>
</g>
<g opacity="0.5">
<path d="M132.79 128.481C132.79 128.481 132.76 128.451 132.79 128.441L138.38 125.071C138.38 125.071 138.44 125.061 138.47 125.071L143.82 128.171C143.82 128.171 143.84 128.211 143.82 128.221L138.72 130.861C138.72 130.861 138.65 130.871 138.63 130.861L132.8 128.481H132.79Z" fill="#92B6DA"/>
</g>
<g opacity="0.5">
<path d="M125.03 136.631C125.03 136.631 124.99 136.651 124.99 136.621L123.61 130.241C123.61 130.241 123.61 130.181 123.64 130.161L128.3 126.091C128.3 126.091 128.34 126.081 128.35 126.111L129.21 131.791C129.21 131.791 129.21 131.861 129.18 131.881L125.04 136.631H125.03Z" fill="#92B6DA"/>
</g>
<g opacity="0.5">
<path d="M117.81 148.372C117.81 148.372 117.77 148.352 117.79 148.332L121.47 142.942C121.47 142.942 121.52 142.902 121.55 142.902L127.71 143.482C127.71 143.482 127.75 143.502 127.73 143.522L124.2 148.052C124.2 148.052 124.15 148.092 124.12 148.092L117.82 148.362L117.81 148.372Z" fill="#92B6DA"/>
</g>
<g opacity="0.5">
<path d="M141.05 138.36C141.05 138.36 141.02 138.33 141.05 138.32L146.64 134.95C146.64 134.95 146.7 134.94 146.73 134.95L152.08 138.05C152.08 138.05 152.1 138.09 152.08 138.1L146.98 140.74C146.98 140.74 146.91 140.75 146.89 140.74L141.06 138.36H141.05Z" fill="#92B6DA"/>
</g>
<g opacity="0.5">
<path d="M133.29 146.51C133.29 146.51 133.25 146.53 133.25 146.5L131.87 140.12C131.87 140.12 131.87 140.06 131.9 140.04L136.56 135.97C136.56 135.97 136.6 135.96 136.61 135.99L137.47 141.67C137.47 141.67 137.47 141.74 137.44 141.76L133.3 146.51H133.29Z" fill="#92B6DA"/>
</g>
<g opacity="0.5">
<path d="M126.07 158.251C126.07 158.251 126.03 158.231 126.05 158.211L129.73 152.821C129.73 152.821 129.78 152.781 129.81 152.781L135.97 153.361C135.97 153.361 136.01 153.381 135.99 153.401L132.46 157.931C132.46 157.931 132.41 157.971 132.38 157.971L126.08 158.241L126.07 158.251Z" fill="#92B6DA"/>
</g>
<g opacity="0.5">
<path d="M131.62 176.442C131.62 176.442 131.59 176.412 131.62 176.402L137.21 173.032C137.21 173.032 137.27 173.022 137.3 173.032L142.65 176.132C142.65 176.132 142.67 176.172 142.65 176.182L137.55 178.822C137.55 178.822 137.48 178.832 137.46 178.822L131.63 176.442H131.62Z" fill="#92B6DA"/>
</g>
<g opacity="0.5">
<path d="M123.86 184.592C123.86 184.592 123.82 184.612 123.82 184.582L122.44 178.202C122.44 178.202 122.44 178.142 122.47 178.122L127.13 174.052C127.13 174.052 127.17 174.042 127.18 174.072L128.04 179.752C128.04 179.752 128.04 179.822 128.01 179.842L123.87 184.592H123.86Z" fill="#92B6DA"/>
</g>
<g opacity="0.5">
<path d="M116.64 196.333C116.64 196.333 116.6 196.313 116.62 196.293L120.3 190.903C120.3 190.903 120.35 190.863 120.38 190.863L126.54 191.443C126.54 191.443 126.58 191.463 126.56 191.483L123.03 196.013C123.03 196.013 122.98 196.053 122.95 196.053L116.65 196.323L116.64 196.333Z" fill="#92B6DA"/>
</g>
<g opacity="0.5">
<path d="M139.88 186.321C139.88 186.321 139.85 186.291 139.88 186.281L145.47 182.911C145.47 182.911 145.53 182.901 145.56 182.911L150.91 186.011C150.91 186.011 150.93 186.051 150.91 186.061L145.81 188.701C145.81 188.701 145.74 188.711 145.72 188.701L139.89 186.321H139.88Z" fill="#92B6DA"/>
</g>
<g opacity="0.5">
<path d="M132.12 194.471C132.12 194.471 132.08 194.491 132.08 194.461L130.7 188.081C130.7 188.081 130.7 188.021 130.73 188.001L135.39 183.931C135.39 183.931 135.43 183.921 135.44 183.951L136.3 189.631C136.3 189.631 136.3 189.701 136.27 189.721L132.13 194.471H132.12Z" fill="#92B6DA"/>
</g>
<g opacity="0.5">
<path d="M124.9 206.212C124.9 206.212 124.86 206.192 124.88 206.172L128.56 200.782C128.56 200.782 128.61 200.742 128.64 200.742L134.8 201.322C134.8 201.322 134.84 201.342 134.82 201.362L131.29 205.892C131.29 205.892 131.24 205.932 131.21 205.932L124.91 206.202L124.9 206.212Z" fill="#92B6DA"/>
</g>
<g opacity="0.5">
<path d="M114.05 156.403C114.05 156.403 114.02 156.373 114.05 156.363L119.64 152.993C119.64 152.993 119.7 152.983 119.73 152.993L125.08 156.093C125.08 156.093 125.1 156.133 125.08 156.143L119.98 158.783C119.98 158.783 119.91 158.793 119.89 158.783L114.06 156.403H114.05Z" fill="#92B6DA"/>
</g>
<g opacity="0.5">
<path d="M99.0698 176.294C99.0698 176.294 99.0298 176.274 99.0498 176.254L102.73 170.864C102.73 170.864 102.78 170.824 102.81 170.824L108.97 171.404C108.97 171.404 109.01 171.424 108.99 171.444L105.46 175.974C105.46 175.974 105.41 176.014 105.38 176.014L99.0798 176.284L99.0698 176.294Z" fill="#92B6DA"/>
</g>
<g opacity="0.5">
<path d="M122.31 166.282C122.31 166.282 122.28 166.252 122.31 166.242L127.9 162.872C127.9 162.872 127.96 162.862 127.99 162.872L133.34 165.972C133.34 165.972 133.36 166.012 133.34 166.022L128.24 168.662C128.24 168.662 128.17 168.672 128.15 168.662L122.32 166.282H122.31Z" fill="#92B6DA"/>
</g>
<g opacity="0.5">
<path d="M114.56 174.432C114.56 174.432 114.52 174.452 114.52 174.422L113.14 168.042C113.14 168.042 113.14 167.982 113.17 167.962L117.83 163.892C117.83 163.892 117.87 163.882 117.88 163.912L118.74 169.592C118.74 169.592 118.74 169.662 118.71 169.682L114.57 174.432H114.56Z" fill="#92B6DA"/>
</g>
<g opacity="0.5">
<path d="M107.34 186.173C107.34 186.173 107.3 186.153 107.32 186.133L111 180.743C111 180.743 111.05 180.703 111.08 180.703L117.24 181.283C117.24 181.283 117.28 181.303 117.26 181.323L113.73 185.853C113.73 185.853 113.68 185.893 113.65 185.893L107.35 186.163L107.34 186.173Z" fill="#92B6DA"/>
</g>
<g opacity="0.5">
<path d="M144.58 155.46C144.58 155.46 144.54 155.48 144.54 155.45L143.16 149.07C143.16 149.07 143.16 149.01 143.19 148.99L147.85 144.92C147.85 144.92 147.89 144.91 147.9 144.94L148.76 150.62C148.76 150.62 148.76 150.69 148.73 150.71L144.59 155.46H144.58Z" fill="#92B6DA"/>
</g>
<g opacity="0.5">
<path d="M137.36 167.2C137.36 167.2 137.32 167.18 137.34 167.16L141.02 161.77C141.02 161.77 141.07 161.73 141.1 161.73L147.26 162.31C147.26 162.31 147.3 162.33 147.28 162.35L143.75 166.88C143.75 166.88 143.7 166.92 143.67 166.92L137.37 167.19L137.36 167.2Z" fill="#92B6DA"/>
</g>
<g opacity="0.5">
<path d="M152.84 165.338C152.84 165.338 152.8 165.358 152.8 165.328L151.42 158.948C151.42 158.948 151.42 158.888 151.45 158.868L156.11 154.798C156.11 154.798 156.15 154.788 156.16 154.818L157.02 160.498C157.02 160.498 157.02 160.568 156.99 160.588L152.85 165.338H152.84Z" fill="#92B6DA"/>
</g>
<g opacity="0.5">
<path d="M145.62 177.079C145.62 177.079 145.58 177.059 145.6 177.039L149.28 171.649C149.28 171.649 149.33 171.609 149.36 171.609L155.52 172.189C155.52 172.189 155.56 172.209 155.54 172.229L152.01 176.759C152.01 176.759 151.96 176.799 151.93 176.799L145.63 177.069L145.62 177.079Z" fill="#92B6DA"/>
</g>
<g opacity="0.5">
<path d="M117.2 107.231C117.2 107.231 117.17 107.201 117.2 107.191L122.79 103.821C122.79 103.821 122.85 103.811 122.88 103.821L128.23 106.921C128.23 106.921 128.25 106.961 128.23 106.971L123.13 109.611C123.13 109.611 123.06 109.621 123.04 109.611L117.21 107.231H117.2Z" fill="#92B6DA"/>
</g>
<g opacity="0.5">
<path d="M125.46 117.11C125.46 117.11 125.43 117.08 125.46 117.07L131.05 113.7C131.05 113.7 131.11 113.69 131.14 113.7L136.49 116.8C136.49 116.8 136.51 116.84 136.49 116.85L131.39 119.49C131.39 119.49 131.32 119.5 131.3 119.49L125.47 117.11H125.46Z" fill="#92B6DA"/>
</g>
<g opacity="0.5">
<path d="M117.7 125.26C117.7 125.26 117.66 125.28 117.66 125.25L116.28 118.87C116.28 118.87 116.28 118.81 116.31 118.79L120.97 114.72C120.97 114.72 121.01 114.71 121.02 114.74L121.88 120.42C121.88 120.42 121.88 120.49 121.85 120.51L117.71 125.26H117.7Z" fill="#92B6DA"/>
</g>
<g opacity="0.5">
<path d="M110.48 137.001C110.48 137.001 110.44 136.981 110.46 136.961L114.14 131.571C114.14 131.571 114.19 131.531 114.22 131.531L120.38 132.111C120.38 132.111 120.42 132.131 120.4 132.151L116.87 136.681C116.87 136.681 116.82 136.721 116.79 136.721L110.49 136.991L110.48 137.001Z" fill="#92B6DA"/>
</g>
<g opacity="0.5">
<path d="M60.9399 186.501C60.9399 186.501 60.8999 186.481 60.9199 186.461L64.5999 181.071C64.5999 181.071 64.6499 181.031 64.6799 181.031L70.8399 181.611C70.8399 181.611 70.8799 181.631 70.8599 181.651L67.3299 186.181C67.3299 186.181 67.2799 186.221 67.2499 186.221L60.9499 186.491L60.9399 186.501Z" fill="#92B6DA"/>
</g>
<g opacity="0.5">
<path d="M84.1898 176.493C84.1898 176.493 84.1598 176.463 84.1898 176.453L89.7798 173.083C89.7798 173.083 89.8398 173.073 89.8698 173.083L95.2198 176.183C95.2198 176.183 95.2398 176.223 95.2198 176.233L90.1198 178.873C90.1198 178.873 90.0498 178.883 90.0298 178.873L84.1998 176.493H84.1898Z" fill="#92B6DA"/>
</g>
<g opacity="0.5">
<path d="M76.43 184.643C76.43 184.643 76.39 184.663 76.39 184.633L75.01 178.253C75.01 178.253 75.01 178.193 75.04 178.173L79.7 174.103C79.7 174.103 79.74 174.093 79.75 174.123L80.61 179.803C80.61 179.803 80.61 179.873 80.58 179.893L76.44 184.643H76.43Z" fill="#92B6DA"/>
</g>
<g opacity="0.5">
<path d="M69.2099 196.384C69.2099 196.384 69.1699 196.364 69.1899 196.344L72.8699 190.954C72.8699 190.954 72.9199 190.914 72.9499 190.914L79.1099 191.494C79.1099 191.494 79.1499 191.514 79.1299 191.534L75.5999 196.064C75.5999 196.064 75.5499 196.104 75.5199 196.104L69.2199 196.374L69.2099 196.384Z" fill="#92B6DA"/>
</g>
<g opacity="0.5">
<path d="M93.0497 186.571C93.0497 186.571 93.0197 186.541 93.0497 186.531L98.6397 183.161C98.6397 183.161 98.6997 183.151 98.7297 183.161L104.08 186.261C104.08 186.261 104.1 186.301 104.08 186.311L98.9797 188.951C98.9797 188.951 98.9097 188.961 98.8897 188.951L93.0597 186.571H93.0497Z" fill="#92B6DA"/>
</g>
<g opacity="0.5">
<path d="M85.2899 194.721C85.2899 194.721 85.2499 194.741 85.2499 194.711L83.8699 188.331C83.8699 188.331 83.8699 188.271 83.8999 188.251L88.5599 184.181C88.5599 184.181 88.5999 184.171 88.6099 184.201L89.4699 189.881C89.4699 189.881 89.4699 189.951 89.4399 189.971L85.2999 194.721H85.2899Z" fill="#92B6DA"/>
</g>
<g opacity="0.5">
<path d="M78.0698 206.462C78.0698 206.462 78.0298 206.442 78.0498 206.422L81.7298 201.032C81.7298 201.032 81.7798 200.992 81.8098 200.992L87.9698 201.572C87.9698 201.572 88.0098 201.592 87.9898 201.612L84.4598 206.142C84.4598 206.142 84.4098 206.182 84.3798 206.182L78.0798 206.452L78.0698 206.462Z" fill="#92B6DA"/>
</g>
<g opacity="0.5">
<path d="M101.31 196.45C101.31 196.45 101.28 196.42 101.31 196.41L106.9 193.04C106.9 193.04 106.96 193.03 106.99 193.04L112.34 196.14C112.34 196.14 112.36 196.18 112.34 196.19L107.24 198.83C107.24 198.83 107.17 198.84 107.15 198.83L101.32 196.45H101.31Z" fill="#92B6DA"/>
</g>
<g opacity="0.5">
<path d="M93.5499 204.6C93.5499 204.6 93.5099 204.62 93.5099 204.59L92.1299 198.21C92.1299 198.21 92.1299 198.15 92.1599 198.13L96.8199 194.06C96.8199 194.06 96.8599 194.05 96.8699 194.08L97.7299 199.76C97.7299 199.76 97.7299 199.83 97.6999 199.85L93.5599 204.6H93.5499Z" fill="#92B6DA"/>
</g>
<g opacity="0.5">
<path d="M86.3298 216.341C86.3298 216.341 86.2898 216.321 86.3098 216.301L89.9898 210.911C89.9898 210.911 90.0398 210.871 90.0698 210.871L96.2298 211.451C96.2298 211.451 96.2698 211.471 96.2498 211.491L92.7198 216.021C92.7198 216.021 92.6698 216.061 92.6398 216.061L86.3398 216.331L86.3298 216.341Z" fill="#92B6DA"/>
</g>
<g opacity="0.5">
<path d="M110.3 206.379C110.3 206.379 110.27 206.349 110.3 206.339L115.89 202.969C115.89 202.969 115.95 202.959 115.98 202.969L121.33 206.069C121.33 206.069 121.35 206.109 121.33 206.119L116.23 208.759C116.23 208.759 116.16 208.769 116.14 208.759L110.31 206.379H110.3Z" fill="#92B6DA"/>
</g>
<g opacity="0.5">
<path d="M102.54 214.518C102.54 214.518 102.5 214.538 102.5 214.508L101.12 208.128C101.12 208.128 101.12 208.068 101.15 208.048L105.81 203.978C105.81 203.978 105.85 203.968 105.86 203.998L106.72 209.678C106.72 209.678 106.72 209.748 106.69 209.768L102.55 214.518H102.54Z" fill="#92B6DA"/>
</g>
<g opacity="0.5">
<path d="M95.3198 226.259C95.3198 226.259 95.2798 226.239 95.2998 226.219L98.9798 220.829C98.9798 220.829 99.0298 220.789 99.0598 220.789L105.22 221.369C105.22 221.369 105.26 221.389 105.24 221.409L101.71 225.939C101.71 225.939 101.66 225.979 101.63 225.979L95.3298 226.249L95.3198 226.259Z" fill="#92B6DA"/>
</g>
<g opacity="0.5">
<path d="M118.56 216.258C118.56 216.258 118.53 216.228 118.56 216.218L124.15 212.848C124.15 212.848 124.21 212.838 124.24 212.848L129.59 215.948C129.59 215.948 129.61 215.988 129.59 215.998L124.49 218.638C124.49 218.638 124.42 218.648 124.4 218.638L118.57 216.258H118.56Z" fill="#92B6DA"/>
</g>
<g opacity="0.5">
<path d="M110.8 224.401C110.8 224.401 110.76 224.421 110.76 224.391L109.38 218.011C109.38 218.011 109.38 217.951 109.41 217.931L114.07 213.861C114.07 213.861 114.11 213.851 114.12 213.881L114.98 219.561C114.98 219.561 114.98 219.631 114.95 219.651L110.81 224.401H110.8Z" fill="#92B6DA"/>
</g>
<g opacity="0.5">
<path d="M103.58 236.138C103.58 236.138 103.54 236.118 103.56 236.098L107.24 230.708C107.24 230.708 107.29 230.668 107.32 230.668L113.48 231.248C113.48 231.248 113.52 231.268 113.5 231.288L109.97 235.818C109.97 235.818 109.92 235.858 109.89 235.858L103.59 236.128L103.58 236.138Z" fill="#92B6DA"/>
</g>
</g>
<path d="M168.643 252.812C174.114 266.266 173.332 283.044 172.613 298.988C172.457 302.344 169.102 305.647 171.551 309.93C181.94 293.121 200.5 274.217 220.644 267.86C212.651 288.359 196.405 304.813 178.741 316.047C182.816 318.142 185.911 315.922 189.433 315.484C207.305 313.275 225.208 314.369 243.111 322.279C221.999 331.845 199.364 331.647 176.407 326.697C187.067 334.263 198.895 342.714 206.586 353.073C212.005 360.378 217.674 367.277 220.394 376.895C199.322 368.902 183.493 353.396 171.394 334.878C169.383 338.9 172.301 342.298 172.509 345.83C173.51 363.431 174.302 382.825 165.558 399.134C160.181 388.796 159.014 378.062 158.045 367.256C156.961 355.272 158.899 344.903 161.39 332.721C149.291 350.801 132.326 369.736 110.754 376.499C119.685 354.584 135.723 338.9 155.075 326.781C141.809 329.105 130.304 331.137 117.778 329.563C107.743 328.302 97.5406 327.552 88.3701 322.154C109.254 312.796 129.648 313.421 152.668 316.693C134.577 303.771 118.768 289.421 110.702 267.6C131.44 275.166 148.812 292.433 160.911 311.378L158.107 291.839C156.263 278.959 159.723 258.94 164.568 246.57C167.486 245.987 168.278 250.207 168.653 252.812H168.643Z" fill="#603813"/>
<rect x="89.1045" y="398.41" width="15.4172" height="0.203125" fill="#DCD6CB"/>
<rect x="89.3108" y="398.281" width="15.168" height="0.273438" fill="#DCD6CB"/>
<line x1="104.181" y1="398.446" x2="104.499" y2="398.311" stroke="#DCD6CB"/>
<line x1="89.0832" y1="398.821" x2="88.8914" y2="398.534" stroke="#DCD6CB"/>
</svg>
