<svg width="321" height="685" viewBox="0 0 321 685" fill="none" xmlns="http://www.w3.org/2000/svg">
<path d="M104.261 62.8922C95.3447 65.8722 94.1179 78.0522 102.276 82.7522C111.412 88.0122 120.498 94.1222 120.498 101.502V164.432C120.498 168.112 117.895 171.262 114.295 171.962C93.5294 175.952 27.1244 193.112 15.1659 251.022C11.3659 269.452 10.189 289.122 10.5181 308.042C11.2961 353.352 20.9906 398.062 38.4446 439.872C55.0907 479.732 80.1347 546.752 83.9746 597.272C84.7526 607.492 80.0649 617.332 71.7668 623.322C65.0345 628.172 59.16 633.392 59.16 640.632C59.16 652.892 81.4513 679.992 163.106 679.992C194.454 679.992 217.283 674.832 233.511 668.482C253.019 660.842 255.383 634.112 237.48 623.202C237.231 623.052 236.981 622.902 236.722 622.742C234.259 621.242 232.842 618.492 233.042 615.612C235.705 576.832 276.547 459.492 293.283 403.512C299.267 383.492 322.277 303.242 301.571 240.352C284.446 188.362 226.828 175.292 207.36 172.332C203.629 171.762 200.877 168.542 200.877 164.762V103.032C200.877 101.942 201.106 100.872 201.555 99.8822C203.909 94.6822 229.95 88.7522 229.95 77.7422C229.95 65.7322 216.805 55.2422 158.967 55.2422C134.033 55.2422 116.26 58.9122 104.271 62.9122L104.261 62.8922Z" fill="#DCD6CB"/>
<path d="M104.261 62.8922C95.3447 65.8722 94.1179 78.0522 102.276 82.7522C111.412 88.0122 120.498 94.1222 120.498 101.502V164.432C120.498 168.112 117.895 171.262 114.295 171.962C93.5294 175.952 27.1244 193.112 15.1659 251.022C11.3659 269.452 10.189 289.122 10.5181 308.042C11.2961 353.352 20.9906 398.062 38.4446 439.872C55.0907 479.732 80.1347 546.752 83.9746 597.272C84.7526 607.492 80.0649 617.332 71.7668 623.322C65.0345 628.172 59.16 633.392 59.16 640.632C59.16 652.892 81.4513 679.992 163.106 679.992C194.454 679.992 217.283 674.832 233.511 668.482C253.019 660.842 255.383 634.112 237.48 623.202C237.231 623.052 236.981 622.902 236.722 622.742C234.259 621.242 232.842 618.492 233.042 615.612C235.705 576.832 276.547 459.492 293.283 403.512C299.267 383.492 322.277 303.242 301.571 240.352C284.446 188.362 226.828 175.292 207.36 172.332C203.629 171.762 200.877 168.542 200.877 164.762V103.032C200.877 101.942 201.106 100.872 201.555 99.8822C203.909 94.6822 229.95 88.7522 229.95 77.7422C229.95 65.7322 216.805 55.2422 158.967 55.2422C134.033 55.2422 116.26 58.9122 104.271 62.9122L104.261 62.8922Z" stroke="#DCD6CB" stroke-width="9" stroke-miterlimit="10"/>
<path d="M74.988 612.434C114.314 626.084 156.932 633.574 198.183 625.744C211.837 623.164 225.063 618.554 237.759 612.434C220.245 624.464 199.121 631.204 177.967 633.154C143.029 636.254 106.096 628.544 74.988 612.434Z" fill="#E2E3E2"/>
<path d="M127.58 53.6409V38.5109C127.58 38.5109 112.938 37.7709 112.938 20.2709C112.938 2.77086 136.267 4.55086 136.267 4.55086H193.865C199.48 4.55086 205.016 7.00086 208.217 11.6309C209.843 13.9909 211.03 17.0209 211.03 20.8709C211.03 33.1809 199.789 38.3709 199.789 38.3709L199.051 54.0909L127.6 53.6509L127.58 53.6409Z" fill="#CDB43A" stroke="#CDB43A" stroke-width="9" stroke-miterlimit="10"/>
<path d="M256.001 202.953C277.964 211.383 289.992 238.673 294.221 260.403C298.819 283.673 298.001 307.873 293.762 331.103C294.041 302.053 293.971 272.523 284.995 244.663C279.609 228.573 270.962 211.903 256.001 202.953Z" fill="#E7E2D5"/>
<path d="M65.4532 202.143C59.1099 205.703 54.0732 211.163 49.7346 216.913C43.8202 225.053 39.5714 234.303 36.4496 243.853C27.4733 271.713 27.4035 301.243 27.6827 330.293C23.2045 305.613 22.4864 279.783 28.1814 255.213C32.9289 234.793 44.7578 210.063 65.4433 202.133L65.4532 202.143Z" fill="#E7E2D5"/>
<path d="M125.445 103.631C136.396 120.211 135.449 146.011 126.662 163.371C126.852 159.491 127.35 155.791 127.62 151.961C129.066 135.801 128.787 119.601 125.445 103.621V103.631Z" fill="#E7E2D5"/>
<path d="M196.319 104.141C192.977 120.111 192.698 136.321 194.144 152.481C194.414 156.301 194.912 160.001 195.102 163.891C186.315 146.531 185.367 120.741 196.319 104.151V104.141Z" fill="#E7E2D5"/>
<path d="M32.7195 431.591C32.7195 431.591 161.041 420.991 279.878 431.011C264.898 451.031 256.41 456.041 256.41 456.041L32.7195 431.591Z" fill="#9AB4A5"/>
<path d="M31.3032 432.744C31.3032 432.744 94.9655 412.394 151.886 432.744C208.806 453.094 279.958 431.584 279.958 431.584C279.958 431.584 226.03 558.934 226.03 603.704C170.606 625.224 97.2096 606.034 97.2096 606.034C97.2096 606.034 100.95 541.484 31.3032 432.754V432.744Z" fill="#1F8087"/>
<g opacity="0.5">
<g opacity="0.5">
<path d="M63.4386 203.731C63.4386 203.731 63.4087 203.701 63.4386 203.691L69.0139 200.321C69.0139 200.321 69.0738 200.311 69.1037 200.321L74.4396 203.421C74.4396 203.421 74.4596 203.461 74.4396 203.471L69.353 206.111C69.353 206.111 69.2832 206.121 69.2633 206.111L63.4486 203.731H63.4386Z" fill="#92B6DA"/>
</g>
<g opacity="0.5">
<path d="M55.709 211.87C55.709 211.87 55.6691 211.89 55.6691 211.86L54.2927 205.48C54.2927 205.48 54.2927 205.42 54.3227 205.4L58.9704 201.33C58.9704 201.33 59.0103 201.32 59.0203 201.35L59.878 207.03C59.878 207.03 59.878 207.1 59.8481 207.12L55.719 211.87H55.709Z" fill="#92B6DA"/>
</g>
<g opacity="0.5">
<path d="M48.508 223.611C48.508 223.611 48.4681 223.591 48.488 223.571L52.1583 218.181C52.1583 218.181 52.2082 218.141 52.2381 218.141L58.3819 218.721C58.3819 218.721 58.4218 218.741 58.4019 218.761L54.8812 223.291C54.8812 223.291 54.8313 223.331 54.8014 223.331L48.5179 223.601L48.508 223.611Z" fill="#92B6DA"/>
</g>
<g opacity="0.5">
<path d="M71.6869 213.602C71.6869 213.602 71.657 213.572 71.6869 213.562L77.2622 210.192C77.2622 210.192 77.322 210.182 77.352 210.192L82.6879 213.292C82.6879 213.292 82.7078 213.332 82.6879 213.342L77.6013 215.982C77.6013 215.982 77.5315 215.992 77.5115 215.982L71.6969 213.602H71.6869Z" fill="#92B6DA"/>
</g>
<g opacity="0.5">
<path d="M63.9473 221.753C63.9473 221.753 63.9074 221.773 63.9074 221.743L62.531 215.363C62.531 215.363 62.531 215.303 62.5609 215.283L67.2087 211.213C67.2087 211.213 67.2486 211.203 67.2585 211.233L68.1163 216.913C68.1163 216.913 68.1163 216.983 68.0864 217.003L63.9572 221.753H63.9473Z" fill="#92B6DA"/>
</g>
<g opacity="0.5">
<path d="M56.7462 233.49C56.7462 233.49 56.7063 233.47 56.7263 233.45L60.3966 228.06C60.3966 228.06 60.4465 228.02 60.4764 228.02L66.6202 228.6C66.6202 228.6 66.6601 228.62 66.6402 228.64L63.1194 233.17C63.1194 233.17 63.0696 233.21 63.0397 233.21L56.7562 233.48L56.7462 233.49Z" fill="#92B6DA"/>
</g>
<g opacity="0.5">
<path d="M62.2814 251.692C62.2814 251.692 62.2514 251.662 62.2814 251.652L67.8567 248.282C67.8567 248.282 67.9165 248.272 67.9464 248.282L73.2824 251.382C73.2824 251.382 73.3023 251.422 73.2824 251.432L68.1958 254.072C68.1958 254.072 68.126 254.082 68.106 254.072L62.2913 251.692H62.2814Z" fill="#92B6DA"/>
</g>
<g opacity="0.5">
<path d="M54.542 259.842C54.542 259.842 54.5021 259.862 54.5021 259.832L53.1257 253.452C53.1257 253.452 53.1257 253.392 53.1557 253.372L57.8034 249.302C57.8034 249.302 57.8433 249.292 57.8533 249.322L58.711 255.002C58.711 255.002 58.711 255.072 58.6811 255.092L54.552 259.842H54.542Z" fill="#92B6DA"/>
</g>
<g opacity="0.5">
<path d="M47.3407 271.583C47.3407 271.583 47.3008 271.563 47.3208 271.543L50.9911 266.153C50.9911 266.153 51.041 266.113 51.0709 266.113L57.2147 266.693C57.2147 266.693 57.2546 266.713 57.2347 266.733L53.7139 271.263C53.7139 271.263 53.6641 271.303 53.6341 271.303L47.3507 271.573L47.3407 271.583Z" fill="#92B6DA"/>
</g>
<g opacity="0.5">
<path d="M70.5196 261.571C70.5196 261.571 70.4897 261.541 70.5196 261.531L76.095 258.161C76.095 258.161 76.1548 258.151 76.1847 258.161L81.5207 261.261C81.5207 261.261 81.5406 261.301 81.5207 261.311L76.4341 263.951C76.4341 263.951 76.3642 263.961 76.3443 263.951L70.5296 261.571H70.5196Z" fill="#92B6DA"/>
</g>
<g opacity="0.5">
<path d="M62.7803 269.721C62.7803 269.721 62.7404 269.741 62.7404 269.711L61.364 263.331C61.364 263.331 61.364 263.271 61.3939 263.251L66.0417 259.181C66.0417 259.181 66.0816 259.171 66.0916 259.201L66.9493 264.881C66.9493 264.881 66.9493 264.951 66.9194 264.971L62.7903 269.721H62.7803Z" fill="#92B6DA"/>
</g>
<g opacity="0.5">
<path d="M55.5792 281.462C55.5792 281.462 55.5393 281.442 55.5593 281.422L59.2296 276.032C59.2296 276.032 59.2795 275.992 59.3094 275.992L65.4532 276.572C65.4532 276.572 65.4931 276.592 65.4732 276.612L61.9525 281.142C61.9525 281.142 61.9026 281.182 61.8727 281.182L55.5892 281.452L55.5792 281.462Z" fill="#92B6DA"/>
</g>
<g opacity="0.5">
<path d="M44.7577 231.653C44.7577 231.653 44.7278 231.623 44.7577 231.613L50.333 228.243C50.333 228.243 50.3928 228.233 50.4228 228.243L55.7587 231.343C55.7587 231.343 55.7786 231.383 55.7587 231.393L50.6721 234.033C50.6721 234.033 50.6023 234.043 50.5823 234.033L44.7677 231.653H44.7577Z" fill="#92B6DA"/>
</g>
<g opacity="0.5">
<path d="M37.0183 239.792C37.0183 239.792 36.9784 239.812 36.9784 239.782L35.6021 233.402C35.6021 233.402 35.602 233.342 35.632 233.322L40.2797 229.252C40.2797 229.252 40.3196 229.242 40.3296 229.272L41.1873 234.952C41.1873 234.952 41.1873 235.022 41.1574 235.042L37.0283 239.792H37.0183Z" fill="#92B6DA"/>
</g>
<g opacity="0.5">
<path d="M29.8173 251.533C29.8173 251.533 29.7774 251.513 29.7973 251.493L33.4677 246.103C33.4677 246.103 33.5175 246.062 33.5475 246.062L39.6913 246.643C39.6913 246.643 39.7312 246.663 39.7112 246.683L36.1905 251.213C36.1905 251.213 36.1406 251.253 36.1107 251.253L29.8273 251.523L29.8173 251.533Z" fill="#92B6DA"/>
</g>
<g opacity="0.5">
<path d="M52.996 241.532C52.996 241.532 52.966 241.502 52.996 241.492L58.5713 238.122C58.5713 238.122 58.6311 238.112 58.661 238.122L63.997 241.222C63.997 241.222 64.0169 241.262 63.997 241.272L58.9104 243.912C58.9104 243.912 58.8406 243.922 58.8206 243.912L53.0059 241.532H52.996Z" fill="#92B6DA"/>
</g>
<g opacity="0.5">
<path d="M45.2566 249.674C45.2566 249.674 45.2167 249.694 45.2167 249.664L43.8403 243.284C43.8403 243.284 43.8403 243.224 43.8703 243.204L48.518 239.134C48.518 239.134 48.5579 239.124 48.5679 239.154L49.4256 244.834C49.4256 244.834 49.4256 244.904 49.3957 244.924L45.2666 249.674H45.2566Z" fill="#92B6DA"/>
</g>
<g opacity="0.5">
<path d="M38.0556 261.411C38.0556 261.411 38.0157 261.391 38.0356 261.371L41.7059 255.981C41.7059 255.981 41.7558 255.941 41.7857 255.941L47.9295 256.521C47.9295 256.521 47.9694 256.541 47.9495 256.561L44.4288 261.091C44.4288 261.091 44.3789 261.131 44.349 261.131L38.0655 261.401L38.0556 261.411Z" fill="#92B6DA"/>
</g>
<g opacity="0.5">
<path d="M82.9369 222.563C82.9369 222.563 82.907 222.533 82.9369 222.523L88.5122 219.153C88.5122 219.153 88.572 219.143 88.602 219.153L93.9379 222.253C93.9379 222.253 93.9578 222.293 93.9379 222.303L88.8513 224.943C88.8513 224.943 88.7815 224.953 88.7615 224.943L82.9469 222.563H82.9369Z" fill="#92B6DA"/>
</g>
<g opacity="0.5">
<path d="M75.1975 230.713C75.1975 230.713 75.1576 230.733 75.1576 230.703L73.7813 224.323C73.7813 224.323 73.7812 224.263 73.8112 224.243L78.4589 220.173C78.4589 220.173 78.4988 220.163 78.5088 220.193L79.3665 225.873C79.3665 225.873 79.3665 225.943 79.3366 225.963L75.2075 230.713H75.1975Z" fill="#92B6DA"/>
</g>
<g opacity="0.5">
<path d="M68.0062 242.454C68.0062 242.454 67.9664 242.434 67.9863 242.414L71.6566 237.024C71.6566 237.024 71.7065 236.984 71.7364 236.984L77.8802 237.564C77.8802 237.564 77.9201 237.584 77.9002 237.604L74.3794 242.134C74.3794 242.134 74.3296 242.174 74.2997 242.174L68.0162 242.444L68.0062 242.454Z" fill="#92B6DA"/>
</g>
<g opacity="0.5">
<path d="M91.1852 232.442C91.1852 232.442 91.1553 232.412 91.1852 232.402L96.7605 229.032C96.7605 229.032 96.8203 229.022 96.8502 229.032L102.186 232.132C102.186 232.132 102.206 232.172 102.186 232.182L97.0996 234.822C97.0996 234.822 97.0298 234.832 97.0098 234.822L91.1951 232.442H91.1852Z" fill="#92B6DA"/>
</g>
<g opacity="0.5">
<path d="M83.4458 240.592C83.4458 240.592 83.4059 240.612 83.4059 240.582L82.0295 234.202C82.0295 234.202 82.0295 234.142 82.0595 234.122L86.7072 230.052C86.7072 230.052 86.7471 230.042 86.7571 230.072L87.6148 235.752C87.6148 235.752 87.6148 235.822 87.5849 235.842L83.4558 240.592H83.4458Z" fill="#92B6DA"/>
</g>
<g opacity="0.5">
<path d="M76.2448 252.333C76.2448 252.333 76.2049 252.313 76.2248 252.293L79.8951 246.903C79.8951 246.903 79.945 246.863 79.9749 246.863L86.1188 247.443C86.1188 247.443 86.1587 247.463 86.1387 247.483L82.618 252.013C82.618 252.013 82.5681 252.053 82.5382 252.053L76.2547 252.323L76.2448 252.333Z" fill="#92B6DA"/>
</g>
<g opacity="0.5">
<path d="M29.0687 212.493C29.0687 212.493 29.0388 212.463 29.0687 212.453L34.644 209.083C34.644 209.083 34.7039 209.073 34.7338 209.083L40.0697 212.183C40.0697 212.183 40.0897 212.223 40.0697 212.233L34.9831 214.873C34.9831 214.873 34.9133 214.883 34.8934 214.873L29.0787 212.493H29.0687Z" fill="#92B6DA"/>
</g>
<g opacity="0.5">
<path d="M21.3294 220.643C21.3294 220.643 21.2895 220.663 21.2895 220.633L19.9131 214.253C19.9131 214.253 19.9131 214.193 19.943 214.173L24.5908 210.103C24.5908 210.103 24.6307 210.093 24.6406 210.123L25.4984 215.803C25.4984 215.803 25.4984 215.873 25.4684 215.893L21.3393 220.643H21.3294Z" fill="#92B6DA"/>
</g>
<g opacity="0.5">
<path d="M14.1283 232.384C14.1283 232.384 14.0884 232.364 14.1084 232.344L17.7787 226.954C17.7787 226.954 17.8286 226.914 17.8585 226.914L24.0023 227.494C24.0023 227.494 24.0422 227.514 24.0222 227.534L20.5015 232.064C20.5015 232.064 20.4517 232.104 20.4217 232.104L14.1383 232.374L14.1283 232.384Z" fill="#92B6DA"/>
</g>
<g opacity="0.5">
<path d="M37.317 222.371C37.317 222.371 37.2871 222.341 37.317 222.331L42.8923 218.961C42.8923 218.961 42.9522 218.951 42.9821 218.961L48.318 222.061C48.318 222.061 48.338 222.101 48.318 222.111L43.2314 224.751C43.2314 224.751 43.1616 224.761 43.1417 224.751L37.327 222.371H37.317Z" fill="#92B6DA"/>
</g>
<g opacity="0.5">
<path d="M29.5776 230.522C29.5776 230.522 29.5377 230.542 29.5377 230.512L28.1614 224.132C28.1614 224.132 28.1614 224.072 28.1913 224.052L32.8391 219.982C32.8391 219.982 32.8789 219.972 32.8889 220.002L33.7467 225.682C33.7467 225.682 33.7467 225.752 33.7167 225.772L29.5876 230.522H29.5776Z" fill="#92B6DA"/>
</g>
<g opacity="0.5">
<path d="M22.3766 242.263C22.3766 242.263 22.3367 242.243 22.3567 242.223L26.027 236.833C26.027 236.833 26.0769 236.793 26.1068 236.793L32.2506 237.373C32.2506 237.373 32.2905 237.393 32.2705 237.413L28.7498 241.943C28.7498 241.943 28.6999 241.983 28.67 241.983L22.3866 242.253L22.3766 242.263Z" fill="#92B6DA"/>
</g>
<g opacity="0.5">
<path d="M32.9589 202.361C32.9589 202.361 32.919 202.341 32.9389 202.321L36.6093 196.931C36.6093 196.931 36.6591 196.891 36.6891 196.891L42.8329 197.471C42.8329 197.471 42.8728 197.491 42.8528 197.511L39.3321 202.041C39.3321 202.041 39.2822 202.081 39.2523 202.081L32.9689 202.351L32.9589 202.361Z" fill="#92B6DA"/>
</g>
<g opacity="0.5">
<path d="M56.1376 192.352C56.1376 192.352 56.1076 192.322 56.1376 192.312L61.7129 188.942C61.7129 188.942 61.7727 188.932 61.8026 188.942L67.1386 192.042C67.1386 192.042 67.1585 192.082 67.1386 192.092L62.052 194.732C62.052 194.732 61.9822 194.742 61.9622 194.732L56.1475 192.352H56.1376Z" fill="#92B6DA"/>
</g>
<g opacity="0.5">
<path d="M48.3982 200.503C48.3982 200.503 48.3583 200.523 48.3583 200.493L46.9819 194.113C46.9819 194.113 46.9819 194.053 47.0119 194.033L51.6596 189.963C51.6596 189.963 51.6995 189.953 51.7095 189.983L52.5672 195.663C52.5672 195.663 52.5672 195.733 52.5373 195.753L48.4082 200.503H48.3982Z" fill="#92B6DA"/>
</g>
<g opacity="0.5">
<path d="M41.1972 212.243C41.1972 212.243 41.1573 212.223 41.1772 212.203L44.8475 206.813C44.8475 206.813 44.8974 206.773 44.9273 206.773L51.0711 207.353C51.0711 207.353 51.111 207.373 51.0911 207.393L47.5704 211.923C47.5704 211.923 47.5205 211.963 47.4906 211.963L41.2071 212.233L41.1972 212.243Z" fill="#92B6DA"/>
</g>
<g opacity="0.5">
<path d="M6.7279 241.864C6.7279 241.864 6.69798 241.834 6.7279 241.824L12.3032 238.454C12.3032 238.454 12.3631 238.444 12.393 238.454L17.7289 241.554C17.7289 241.554 17.7489 241.594 17.7289 241.604L12.6423 244.244C12.6423 244.244 12.5725 244.254 12.5525 244.244L6.73787 241.864H6.7279Z" fill="#92B6DA"/>
</g>
<g opacity="0.5">
<path d="M14.9662 251.743C14.9662 251.743 14.9363 251.713 14.9662 251.703L20.5415 248.333C20.5415 248.333 20.6013 248.323 20.6312 248.333L25.9672 251.433C25.9672 251.433 25.9871 251.473 25.9672 251.483L20.8806 254.123C20.8806 254.123 20.8108 254.133 20.7908 254.123L14.9761 251.743H14.9662Z" fill="#92B6DA"/>
</g>
<g opacity="0.5">
<path d="M7.22657 259.885C7.22657 259.885 7.18667 259.905 7.18667 259.875L5.8103 253.495C5.8103 253.495 5.8103 253.435 5.84022 253.415L10.488 249.345C10.488 249.345 10.5279 249.335 10.5378 249.365L11.3956 255.045C11.3956 255.045 11.3956 255.115 11.3657 255.135L7.23655 259.885H7.22657Z" fill="#92B6DA"/>
</g>
<g opacity="0.5">
<path d="M0.0255297 271.622C0.0255297 271.622 -0.0143618 271.602 0.00558563 271.582L3.67591 266.192C3.67591 266.192 3.72578 266.152 3.7557 266.152L9.89952 266.732C9.89952 266.732 9.93941 266.752 9.91946 266.772L6.39874 271.302C6.39874 271.302 6.34887 271.342 6.31895 271.342L0.0355056 271.612L0.0255297 271.622Z" fill="#92B6DA"/>
</g>
<g opacity="0.5">
<path d="M23.8129 261.821C23.8129 261.821 23.7829 261.791 23.8129 261.781L29.3882 258.411C29.3882 258.411 29.448 258.401 29.4779 258.411L34.8139 261.511C34.8139 261.511 34.8338 261.551 34.8139 261.561L29.7273 264.201C29.7273 264.201 29.6575 264.211 29.6375 264.201L23.8228 261.821H23.8129Z" fill="#92B6DA"/>
</g>
<g opacity="0.5">
<path d="M16.0735 269.971C16.0735 269.971 16.0336 269.991 16.0336 269.961L14.6572 263.581C14.6572 263.581 14.6572 263.521 14.6871 263.501L19.3349 259.431C19.3349 259.431 19.3748 259.421 19.3848 259.451L20.2425 265.131C20.2425 265.131 20.2425 265.201 20.2126 265.221L16.0835 269.971H16.0735Z" fill="#92B6DA"/>
</g>
<g opacity="0.5">
<path d="M8.87246 281.712C8.87246 281.712 8.83256 281.692 8.85251 281.672L12.5228 276.282C12.5228 276.282 12.5727 276.242 12.6026 276.242L18.7464 276.822C18.7464 276.822 18.7863 276.842 18.7664 276.862L15.2457 281.392C15.2457 281.392 15.1958 281.432 15.1659 281.432L8.88243 281.702L8.87246 281.712Z" fill="#92B6DA"/>
</g>
<g opacity="0.5">
<path d="M32.0511 271.7C32.0511 271.7 32.0212 271.67 32.0511 271.66L37.6264 268.29C37.6264 268.29 37.6863 268.28 37.7162 268.29L43.0522 271.39C43.0522 271.39 43.0721 271.43 43.0522 271.44L37.9656 274.08C37.9656 274.08 37.8957 274.09 37.8758 274.08L32.0611 271.7H32.0511Z" fill="#92B6DA"/>
</g>
<g opacity="0.5">
<path d="M24.3118 279.85C24.3118 279.85 24.2719 279.87 24.2719 279.84L22.8955 273.46C22.8955 273.46 22.8955 273.4 22.9254 273.38L27.5732 269.31C27.5732 269.31 27.6131 269.3 27.6231 269.33L28.4808 275.01C28.4808 275.01 28.4808 275.08 28.4509 275.1L24.3218 279.85H24.3118Z" fill="#92B6DA"/>
</g>
<g opacity="0.5">
<path d="M17.1107 291.591C17.1107 291.591 17.0708 291.571 17.0908 291.551L20.7611 286.161C20.7611 286.161 20.811 286.121 20.8409 286.121L26.9847 286.701C26.9847 286.701 27.0246 286.721 27.0047 286.741L23.4839 291.271C23.4839 291.271 23.4341 291.311 23.4042 291.311L17.1207 291.581L17.1107 291.591Z" fill="#92B6DA"/>
</g>
<g opacity="0.5">
<path d="M41.0077 281.621C41.0077 281.621 40.9778 281.591 41.0077 281.581L46.583 278.211C46.583 278.211 46.6428 278.201 46.6728 278.211L52.0087 281.311C52.0087 281.311 52.0287 281.351 52.0087 281.361L46.9221 284.001C46.9221 284.001 46.8523 284.011 46.8323 284.001L41.0177 281.621H41.0077Z" fill="#92B6DA"/>
</g>
<g opacity="0.5">
<path d="M33.2681 289.772C33.2681 289.772 33.2282 289.792 33.2282 289.762L31.8518 283.382C31.8518 283.382 31.8518 283.322 31.8817 283.302L36.5295 279.232C36.5295 279.232 36.5694 279.222 36.5794 279.252L37.4371 284.932C37.4371 284.932 37.4371 285.002 37.4072 285.022L33.278 289.772H33.2681Z" fill="#92B6DA"/>
</g>
<g opacity="0.5">
<path d="M26.067 301.513C26.067 301.513 26.0271 301.493 26.0471 301.473L29.7174 296.083C29.7174 296.083 29.7673 296.043 29.7972 296.043L35.941 296.623C35.941 296.623 35.9809 296.643 35.961 296.663L32.4402 301.193C32.4402 301.193 32.3904 301.233 32.3605 301.233L26.077 301.503L26.067 301.513Z" fill="#92B6DA"/>
</g>
<g opacity="0.5">
<path d="M49.256 291.5C49.256 291.5 49.2261 291.47 49.256 291.46L54.8313 288.09C54.8313 288.09 54.8911 288.08 54.921 288.09L60.257 291.19C60.257 291.19 60.2769 291.23 60.257 291.24L55.1704 293.88C55.1704 293.88 55.1006 293.89 55.0806 293.88L49.2659 291.5H49.256Z" fill="#92B6DA"/>
</g>
<g opacity="0.5">
<path d="M41.5164 299.651C41.5164 299.651 41.4765 299.671 41.4765 299.641L40.1001 293.261C40.1001 293.261 40.1001 293.201 40.13 293.181L44.7778 289.111C44.7778 289.111 44.8177 289.101 44.8276 289.131L45.6854 294.811C45.6854 294.811 45.6854 294.881 45.6555 294.901L41.5263 299.651H41.5164Z" fill="#92B6DA"/>
</g>
<g opacity="0.5">
<path d="M132.078 128.493C132.078 128.493 132.048 128.463 132.078 128.453L137.653 125.083C137.653 125.083 137.713 125.073 137.743 125.083L143.079 128.183C143.079 128.183 143.099 128.223 143.079 128.233L137.992 130.873C137.992 130.873 137.922 130.883 137.902 130.873L132.088 128.493H132.078Z" fill="#92B6DA"/>
</g>
<g opacity="0.5">
<path d="M124.338 136.631C124.338 136.631 124.298 136.651 124.298 136.621L122.922 130.241C122.922 130.241 122.922 130.181 122.952 130.161L127.6 126.091C127.6 126.091 127.64 126.081 127.65 126.111L128.507 131.791C128.507 131.791 128.507 131.861 128.477 131.881L124.348 136.631H124.338Z" fill="#92B6DA"/>
</g>
<g opacity="0.5">
<path d="M117.137 148.372C117.137 148.372 117.097 148.352 117.117 148.332L120.787 142.942C120.787 142.942 120.837 142.902 120.867 142.902L127.011 143.482C127.011 143.482 127.051 143.502 127.031 143.522L123.51 148.052C123.51 148.052 123.46 148.092 123.431 148.092L117.147 148.362L117.137 148.372Z" fill="#92B6DA"/>
</g>
<g opacity="0.5">
<path d="M140.316 138.371C140.316 138.371 140.286 138.341 140.316 138.331L145.891 134.961C145.891 134.961 145.951 134.951 145.981 134.961L151.317 138.061C151.317 138.061 151.337 138.101 151.317 138.111L146.23 140.751C146.23 140.751 146.161 140.761 146.141 140.751L140.326 138.371H140.316Z" fill="#92B6DA"/>
</g>
<g opacity="0.5">
<path d="M132.577 146.514C132.577 146.514 132.537 146.534 132.537 146.504L131.16 140.124C131.16 140.124 131.16 140.064 131.19 140.044L135.838 135.974C135.838 135.974 135.878 135.964 135.888 135.994L136.746 141.674C136.746 141.674 136.746 141.744 136.716 141.764L132.587 146.514H132.577Z" fill="#92B6DA"/>
</g>
<g opacity="0.5">
<path d="M125.375 158.251C125.375 158.251 125.335 158.231 125.355 158.211L129.026 152.821C129.026 152.821 129.076 152.781 129.106 152.781L135.249 153.361C135.249 153.361 135.289 153.381 135.269 153.401L131.749 157.931C131.749 157.931 131.699 157.971 131.669 157.971L125.385 158.241L125.375 158.251Z" fill="#92B6DA"/>
</g>
<g opacity="0.5">
<path d="M130.911 176.45C130.911 176.45 130.881 176.42 130.911 176.41L136.486 173.04C136.486 173.04 136.546 173.03 136.576 173.04L141.912 176.14C141.912 176.14 141.931 176.18 141.912 176.19L136.825 178.83C136.825 178.83 136.755 178.84 136.735 178.83L130.92 176.45H130.911Z" fill="#92B6DA"/>
</g>
<g opacity="0.5">
<path d="M123.171 184.6C123.171 184.6 123.131 184.62 123.131 184.59L121.755 178.21C121.755 178.21 121.755 178.15 121.785 178.13L126.433 174.06C126.433 174.06 126.472 174.05 126.482 174.08L127.34 179.76C127.34 179.76 127.34 179.83 127.31 179.85L123.181 184.6H123.171Z" fill="#92B6DA"/>
</g>
<g opacity="0.5">
<path d="M115.97 196.341C115.97 196.341 115.93 196.321 115.95 196.301L119.62 190.911C119.62 190.911 119.67 190.871 119.7 190.871L125.844 191.451C125.844 191.451 125.884 191.471 125.864 191.491L122.343 196.021C122.343 196.021 122.293 196.061 122.264 196.061L115.98 196.331L115.97 196.341Z" fill="#92B6DA"/>
</g>
<g opacity="0.5">
<path d="M139.149 186.329C139.149 186.329 139.119 186.299 139.149 186.289L144.724 182.919C144.724 182.919 144.784 182.909 144.814 182.919L150.15 186.019C150.15 186.019 150.17 186.059 150.15 186.069L145.063 188.709C145.063 188.709 144.994 188.719 144.974 188.709L139.159 186.329H139.149Z" fill="#92B6DA"/>
</g>
<g opacity="0.5">
<path d="M131.409 194.479C131.409 194.479 131.37 194.499 131.37 194.469L129.993 188.089C129.993 188.089 129.993 188.029 130.023 188.009L134.671 183.939C134.671 183.939 134.711 183.929 134.721 183.959L135.578 189.639C135.578 189.639 135.578 189.709 135.549 189.729L131.419 194.479H131.409Z" fill="#92B6DA"/>
</g>
<g opacity="0.5">
<path d="M124.208 206.22C124.208 206.22 124.168 206.2 124.188 206.18L127.859 200.79C127.859 200.79 127.909 200.75 127.939 200.75L134.082 201.33C134.082 201.33 134.122 201.35 134.102 201.37L130.582 205.9C130.582 205.9 130.532 205.94 130.502 205.94L124.218 206.21L124.208 206.22Z" fill="#92B6DA"/>
</g>
<g opacity="0.5">
<path d="M113.387 156.411C113.387 156.411 113.357 156.381 113.387 156.371L118.962 153.001C118.962 153.001 119.022 152.991 119.052 153.001L124.388 156.101C124.388 156.101 124.408 156.141 124.388 156.151L119.301 158.791C119.301 158.791 119.231 158.801 119.211 158.791L113.397 156.411H113.387Z" fill="#92B6DA"/>
</g>
<g opacity="0.5">
<path d="M98.4462 176.302C98.4462 176.302 98.4063 176.282 98.4262 176.262L102.097 170.872C102.097 170.872 102.146 170.832 102.176 170.832L108.32 171.412C108.32 171.412 108.36 171.432 108.34 171.452L104.819 175.982C104.819 175.982 104.77 176.022 104.74 176.022L98.4562 176.292L98.4462 176.302Z" fill="#92B6DA"/>
</g>
<g opacity="0.5">
<path d="M121.625 166.289C121.625 166.289 121.595 166.259 121.625 166.249L127.2 162.879C127.2 162.879 127.26 162.869 127.29 162.879L132.626 165.979C132.626 165.979 132.646 166.019 132.626 166.029L127.54 168.669C127.54 168.669 127.47 168.679 127.45 168.669L121.635 166.289H121.625Z" fill="#92B6DA"/>
</g>
<g opacity="0.5">
<path d="M113.896 174.432C113.896 174.432 113.856 174.452 113.856 174.422L112.479 168.042C112.479 168.042 112.479 167.982 112.509 167.962L117.157 163.892C117.157 163.892 117.197 163.882 117.207 163.912L118.065 169.592C118.065 169.592 118.065 169.662 118.035 169.682L113.905 174.432H113.896Z" fill="#92B6DA"/>
</g>
<g opacity="0.5">
<path d="M106.694 186.169C106.694 186.169 106.655 186.149 106.675 186.129L110.345 180.739C110.345 180.739 110.395 180.699 110.425 180.699L116.568 181.279C116.568 181.279 116.608 181.299 116.588 181.319L113.068 185.849C113.068 185.849 113.018 185.889 112.988 185.889L106.704 186.159L106.694 186.169Z" fill="#92B6DA"/>
</g>
<g opacity="0.5">
<path d="M143.837 155.471C143.837 155.471 143.797 155.491 143.797 155.461L142.42 149.081C142.42 149.081 142.42 149.021 142.45 149.001L147.098 144.931C147.098 144.931 147.138 144.921 147.148 144.951L148.006 150.631C148.006 150.631 148.006 150.701 147.976 150.721L143.847 155.471H143.837Z" fill="#92B6DA"/>
</g>
<g opacity="0.5">
<path d="M136.636 167.212C136.636 167.212 136.596 167.192 136.616 167.172L140.286 161.782C140.286 161.782 140.336 161.742 140.366 161.742L146.51 162.322C146.51 162.322 146.55 162.342 146.53 162.362L143.009 166.892C143.009 166.892 142.959 166.932 142.929 166.932L136.646 167.202L136.636 167.212Z" fill="#92B6DA"/>
</g>
<g opacity="0.5">
<path d="M152.075 165.35C152.075 165.35 152.035 165.37 152.035 165.34L150.659 158.96C150.659 158.96 150.659 158.9 150.689 158.88L155.336 154.81C155.336 154.81 155.376 154.8 155.386 154.83L156.244 160.51C156.244 160.51 156.244 160.58 156.214 160.6L152.085 165.35H152.075Z" fill="#92B6DA"/>
</g>
<g opacity="0.5">
<path d="M144.874 177.091C144.874 177.091 144.834 177.071 144.854 177.051L148.524 171.661C148.524 171.661 148.574 171.621 148.604 171.621L154.748 172.201C154.748 172.201 154.788 172.221 154.768 172.241L151.247 176.771C151.247 176.771 151.197 176.811 151.167 176.811L144.884 177.081L144.874 177.091Z" fill="#92B6DA"/>
</g>
<g opacity="0.5">
<path d="M116.529 107.231C116.529 107.231 116.499 107.201 116.529 107.191L122.104 103.821C122.104 103.821 122.164 103.811 122.194 103.821L127.53 106.921C127.53 106.921 127.55 106.961 127.53 106.971L122.443 109.611C122.443 109.611 122.373 109.621 122.353 109.611L116.539 107.231H116.529Z" fill="#92B6DA"/>
</g>
<g opacity="0.5">
<path d="M124.767 117.11C124.767 117.11 124.737 117.08 124.767 117.07L130.342 113.7C130.342 113.7 130.402 113.69 130.432 113.7L135.768 116.8C135.768 116.8 135.788 116.84 135.768 116.85L130.681 119.49C130.681 119.49 130.612 119.5 130.592 119.49L124.777 117.11H124.767Z" fill="#92B6DA"/>
</g>
<g opacity="0.5">
<path d="M117.027 125.26C117.027 125.26 116.987 125.28 116.987 125.25L115.611 118.87C115.611 118.87 115.611 118.81 115.641 118.79L120.289 114.72C120.289 114.72 120.329 114.71 120.339 114.74L121.196 120.42C121.196 120.42 121.196 120.49 121.166 120.51L117.037 125.26H117.027Z" fill="#92B6DA"/>
</g>
<g opacity="0.5">
<path d="M109.826 137.001C109.826 137.001 109.786 136.981 109.806 136.961L113.477 131.571C113.477 131.571 113.527 131.531 113.556 131.531L119.7 132.111C119.7 132.111 119.74 132.131 119.72 132.151L116.2 136.681C116.2 136.681 116.15 136.721 116.12 136.721L109.836 136.991L109.826 137.001Z" fill="#92B6DA"/>
</g>
<g opacity="0.5">
<path d="M60.4164 186.509C60.4164 186.509 60.3765 186.489 60.3965 186.469L64.0668 181.079C64.0668 181.079 64.1167 181.039 64.1466 181.039L70.2904 181.619C70.2904 181.619 70.3303 181.639 70.3103 181.659L66.7896 186.189C66.7896 186.189 66.7397 186.229 66.7098 186.229L60.4264 186.499L60.4164 186.509Z" fill="#92B6DA"/>
</g>
<g opacity="0.5">
<path d="M83.6053 176.5C83.6053 176.5 83.5754 176.47 83.6053 176.46L89.1807 173.09C89.1807 173.09 89.2405 173.08 89.2704 173.09L94.6064 176.19C94.6064 176.19 94.6263 176.23 94.6064 176.24L89.5198 178.88C89.5198 178.88 89.45 178.89 89.43 178.88L83.6153 176.5H83.6053Z" fill="#92B6DA"/>
</g>
<g opacity="0.5">
<path d="M75.866 184.651C75.866 184.651 75.8261 184.671 75.8261 184.641L74.4497 178.261C74.4497 178.261 74.4497 178.201 74.4796 178.181L79.1274 174.111C79.1274 174.111 79.1673 174.101 79.1772 174.131L80.035 179.811C80.035 179.811 80.035 179.881 80.0051 179.901L75.8759 184.651H75.866Z" fill="#92B6DA"/>
</g>
<g opacity="0.5">
<path d="M68.6647 196.392C68.6647 196.392 68.6248 196.372 68.6447 196.352L72.3151 190.962C72.3151 190.962 72.365 190.922 72.3949 190.922L78.5387 191.502C78.5387 191.502 78.5786 191.522 78.5586 191.542L75.0379 196.072C75.0379 196.072 74.988 196.112 74.9581 196.112L68.6747 196.382L68.6647 196.392Z" fill="#92B6DA"/>
</g>
<g opacity="0.5">
<path d="M92.442 186.582C92.442 186.582 92.4121 186.552 92.442 186.542L98.0173 183.172C98.0173 183.172 98.0772 183.162 98.1071 183.172L103.443 186.272C103.443 186.272 103.463 186.312 103.443 186.322L98.3564 188.962C98.3564 188.962 98.2866 188.972 98.2667 188.962L92.452 186.582H92.442Z" fill="#92B6DA"/>
</g>
<g opacity="0.5">
<path d="M84.7024 194.733C84.7024 194.733 84.6625 194.753 84.6625 194.723L83.2861 188.343C83.2861 188.343 83.2861 188.283 83.3161 188.263L87.9638 184.193C87.9638 184.193 88.0037 184.183 88.0137 184.213L88.8714 189.893C88.8714 189.893 88.8714 189.963 88.8415 189.983L84.7124 194.733H84.7024Z" fill="#92B6DA"/>
</g>
<g opacity="0.5">
<path d="M77.5014 206.474C77.5014 206.474 77.4615 206.454 77.4814 206.434L81.1518 201.044C81.1518 201.044 81.2016 201.004 81.2315 201.004L87.3753 201.584C87.3753 201.584 87.4152 201.604 87.3953 201.624L83.8746 206.154C83.8746 206.154 83.8247 206.194 83.7948 206.194L77.5113 206.464L77.5014 206.474Z" fill="#92B6DA"/>
</g>
<g opacity="0.5">
<path d="M100.68 196.461C100.68 196.461 100.65 196.431 100.68 196.421L106.256 193.051C106.256 193.051 106.315 193.041 106.345 193.051L111.681 196.151C111.681 196.151 111.701 196.191 111.681 196.201L106.595 198.841C106.595 198.841 106.525 198.851 106.505 198.841L100.69 196.461H100.68Z" fill="#92B6DA"/>
</g>
<g opacity="0.5">
<path d="M92.9407 204.612C92.9407 204.612 92.9008 204.632 92.9008 204.602L91.5244 198.222C91.5244 198.222 91.5244 198.162 91.5543 198.142L96.2021 194.072C96.2021 194.072 96.242 194.062 96.252 194.092L97.1097 199.772C97.1097 199.772 97.1097 199.842 97.0798 199.862L92.9507 204.612H92.9407Z" fill="#92B6DA"/>
</g>
<g opacity="0.5">
<path d="M85.7396 216.353C85.7396 216.353 85.6998 216.333 85.7197 216.313L89.39 210.923C89.39 210.923 89.4399 210.883 89.4698 210.883L95.6136 211.463C95.6136 211.463 95.6535 211.483 95.6336 211.503L92.1128 216.033C92.1128 216.033 92.063 216.073 92.0331 216.073L85.7496 216.343L85.7396 216.353Z" fill="#92B6DA"/>
</g>
<g opacity="0.5">
<path d="M109.647 206.379C109.647 206.379 109.617 206.349 109.647 206.339L115.222 202.969C115.222 202.969 115.282 202.959 115.312 202.969L120.648 206.069C120.648 206.069 120.668 206.109 120.648 206.119L115.561 208.759C115.561 208.759 115.491 208.769 115.471 208.759L109.657 206.379H109.647Z" fill="#92B6DA"/>
</g>
<g opacity="0.5">
<path d="M101.907 214.53C101.907 214.53 101.867 214.55 101.867 214.52L100.491 208.14C100.491 208.14 100.491 208.08 100.521 208.06L105.169 203.99C105.169 203.99 105.209 203.98 105.219 204.01L106.076 209.69C106.076 209.69 106.076 209.76 106.046 209.78L101.917 214.53H101.907Z" fill="#92B6DA"/>
</g>
<g opacity="0.5">
<path d="M94.706 226.271C94.706 226.271 94.6661 226.251 94.686 226.231L98.3563 220.841C98.3563 220.841 98.4062 220.801 98.4361 220.801L104.58 221.381C104.58 221.381 104.62 221.401 104.6 221.421L101.079 225.951C101.079 225.951 101.029 225.991 100.999 225.991L94.7159 226.261L94.706 226.271Z" fill="#92B6DA"/>
</g>
<g opacity="0.5">
<path d="M117.885 216.258C117.885 216.258 117.855 216.228 117.885 216.218L123.46 212.848C123.46 212.848 123.52 212.838 123.55 212.848L128.886 215.948C128.886 215.948 128.906 215.988 128.886 215.998L123.799 218.638C123.799 218.638 123.729 218.648 123.71 218.638L117.895 216.258H117.885Z" fill="#92B6DA"/>
</g>
<g opacity="0.5">
<path d="M110.146 224.409C110.146 224.409 110.106 224.429 110.106 224.399L108.729 218.019C108.729 218.019 108.729 217.959 108.759 217.939L113.407 213.869C113.407 213.869 113.447 213.859 113.457 213.889L114.315 219.569C114.315 219.569 114.315 219.639 114.285 219.659L110.155 224.409H110.146Z" fill="#92B6DA"/>
</g>
<g opacity="0.5">
<path d="M102.944 236.15C102.944 236.15 102.904 236.13 102.924 236.11L106.595 230.72C106.595 230.72 106.644 230.68 106.674 230.68L112.818 231.26C112.818 231.26 112.858 231.28 112.838 231.3L109.317 235.83C109.317 235.83 109.268 235.87 109.238 235.87L102.954 236.14L102.944 236.15Z" fill="#92B6DA"/>
</g>
</g>
<mask id="mask0_262_12748" style="mask-type:alpha" maskUnits="userSpaceOnUse" x="0" y="201" width="321" height="194">
<path d="M320.5 394.012H208.871L186.986 369.097L186.193 368.195L186.111 369.393L184.427 394.012H129.687L122.407 385.725L121.616 384.823L121.533 386.02L120.977 394.012H105.468L101.443 384.433L101.176 383.797L100.654 384.248L89.3835 394.012H74.8025L60.7703 360.693L59.8103 360.854L57.5505 394.012H43.5945L17.033 378.521L16.3367 378.115L16.282 378.92L15.2576 394.012H1.34351V209.703C16.0549 214.31 34.3937 218.202 55.3679 221.142V221.141C57.9214 221.523 60.5085 221.866 63.1511 222.189L76.1833 235.131L77.0349 235.978V223.76C80.2238 224.1 83.473 224.405 86.7634 224.684L118.379 256.084L119.231 256.931V226.695C129.433 227.122 139.934 227.322 150.631 227.322H153.264L160.443 255.842L161.427 255.72V227.243C165.56 227.2 169.659 227.111 173.702 226.973L173.701 226.972C176.51 226.9 179.284 226.807 182.046 226.694C187.468 226.483 192.822 226.211 198.085 225.871L202.677 234.991L202.987 235.606L203.476 235.121L213.944 224.725C218.878 224.297 223.7 223.821 228.431 223.307L244.874 255.955L245.82 255.729V221.162C249.256 220.683 252.627 220.168 255.932 219.644L287.294 235.224L288.016 235.583V213.09C293.325 211.727 298.262 210.297 302.827 208.782L308.262 214.178L308.591 213.847L308.927 214.213L308.94 214.202L309.352 213.85L309.323 213.82L320.5 202.713V394.012Z" fill="#C59B6D" stroke="#C59B6D"/>
</mask>
<g mask="url(#mask0_262_12748)">
<path d="M159.975 53.2812C188.88 53.2813 206.548 55.9051 216.973 59.9932C222.179 62.0347 225.544 64.4285 227.608 67.0107C229.665 69.5841 230.457 72.3781 230.457 75.2812C230.457 77.8225 228.955 80.1322 226.521 82.2793C224.091 84.4219 220.808 86.3353 217.413 88.0859C215.719 88.9597 214.004 89.7885 212.362 90.584C210.723 91.378 209.154 92.1399 207.759 92.874C206.366 93.6072 205.131 94.3219 204.164 95.0244C203.27 95.674 202.552 96.3512 202.177 97.0703L202.106 97.2148C201.628 98.2703 201.384 99.4108 201.384 100.571V162.301C201.384 166.326 204.315 169.758 208.291 170.365C217.996 171.841 237.207 175.836 256.116 185.936C275.021 196.032 293.593 212.212 302.104 238.048C312.422 269.39 311.855 305.089 307.947 335.483C304.04 365.87 296.801 390.907 293.812 400.908C285.441 428.908 271.058 472.196 258.414 513.404C252.096 533.997 246.215 554.058 241.747 571.397C237.282 588.727 234.219 603.371 233.55 613.116C233.338 616.181 234.845 619.108 237.467 620.706V620.707C237.729 620.869 237.981 621.019 238.229 621.169C255.776 631.864 253.459 658.066 234.335 665.556C218.172 671.881 195.405 677.031 164.113 677.031C123.335 677.031 97.4366 670.263 81.7529 662.006C66.0427 653.735 60.667 644.028 60.667 638.171C60.6671 634.699 62.0719 631.693 64.332 628.938C66.3155 626.519 68.9427 624.313 71.8193 622.178L73.0664 621.267C81.5024 615.177 86.2719 605.171 85.4805 594.773C81.6338 544.164 56.558 477.076 39.9131 437.219C22.4825 395.465 12.8022 350.817 12.0254 305.572C11.6967 286.677 12.8727 267.046 16.6631 248.662C22.6036 219.895 42.0673 201.229 62.6865 189.243C83.3089 177.256 105.04 171.982 115.396 169.992H115.397C119.233 169.246 122.006 165.891 122.006 161.972V99.041C122.006 95.1377 119.605 91.6404 116.157 88.502C112.701 85.3552 108.104 82.4899 103.533 79.8584C95.8746 75.4464 96.8833 64.1234 105.018 61.0498L105.024 61.0625L105.437 60.9258C117.37 56.944 135.09 53.2812 159.975 53.2812Z" fill="#C59B6D" stroke="#C59B6D"/>
<path d="M105.268 60.4312C96.3517 63.4112 95.125 75.5912 103.283 80.2912C112.419 85.5512 121.505 91.6612 121.505 99.0412V161.971C121.505 165.651 118.902 168.801 115.302 169.501C94.5365 173.491 28.1315 190.651 16.173 248.561C12.373 266.991 11.1961 286.661 11.5252 305.581C12.3032 350.891 21.9976 395.601 39.4517 437.411C56.0978 477.271 81.1418 544.291 84.9817 594.811C85.7596 605.031 81.072 614.871 72.7739 620.861C66.0416 625.711 60.1671 630.931 60.1671 638.171C60.1671 650.431 82.4583 677.531 164.113 677.531C195.461 677.531 218.29 672.371 234.518 666.021C254.026 658.381 256.39 631.651 238.487 620.741C238.238 620.591 237.989 620.441 237.729 620.281C235.266 618.781 233.849 616.031 234.049 613.151C236.712 574.371 277.554 457.031 294.29 401.051C300.274 381.031 323.284 300.781 302.578 237.891C285.454 185.901 227.835 172.831 208.367 169.871C204.636 169.301 201.884 166.081 201.884 162.301V100.571C201.884 99.4812 202.113 98.4112 202.562 97.4212C204.916 92.2212 230.957 86.2913 230.957 75.2812C230.957 63.2712 217.812 52.7812 159.974 52.7812C135.04 52.7812 117.267 56.4512 105.278 60.4512L105.268 60.4312Z" stroke="#C59B6D" stroke-width="9" stroke-miterlimit="10"/>
</g>
<g clip-path="url(#clip0_262_12748)">
<path d="M155.153 283.358C155.856 292.826 146.475 299.827 137.568 296.481L120.959 290.241C113.025 287.256 105.346 291.003 102.076 298.602C99.189 305.311 102.165 315.423 110.366 317.473L125.771 321.331C136.498 324.018 140.795 336.912 133.816 345.471L123.514 358.105C120.179 362.197 121.215 368.814 123.092 372.226C126.023 377.531 130.746 380.686 136.718 380.466C141.921 380.268 146.785 376.755 149.436 372.433L156.063 361.639C161.893 352.143 175.676 352.01 181.689 361.392L188.157 371.485C193.248 379.433 202.842 382.281 210.21 377.076C217.516 371.917 218.775 361.731 212.556 354.572L204.376 345.155C197.073 336.749 201.097 323.619 211.863 320.722L226.641 316.746C233.777 314.828 236.836 307.121 236.067 300.619C235.997 300.024 235.875 299.434 235.704 298.86C233.978 293.053 229.401 289.517 223.478 288.469C220.797 287.994 218.034 288.402 215.517 289.439C212.674 290.611 208.188 292.46 203.376 294.444C193.032 298.708 181.789 290.668 182.518 279.526L183.228 268.683C183.8 260.005 180.155 252.815 171.768 250.915C166.871 249.81 162.076 251.115 158.606 254.152C155.179 257.151 153.546 261.704 153.883 266.24C154.164 270.03 154.659 276.694 155.153 283.358Z" fill="#603813"/>
</g>
<rect x="89.6748" y="394.43" width="15.4172" height="0.203125" fill="#DCD6CB"/>
<rect x="89.8811" y="394.301" width="15.168" height="0.273438" fill="#DCD6CB"/>
<line x1="104.751" y1="394.466" x2="105.069" y2="394.331" stroke="#DCD6CB"/>
<line x1="89.6535" y1="394.841" x2="89.4617" y2="394.554" stroke="#DCD6CB"/>
<defs>
<clipPath id="clip0_262_12748">
<rect width="135" height="134" fill="white" transform="matrix(1 0 0 -1 101 382.5)"/>
</clipPath>
</defs>
</svg>
