<svg width="340" height="683" viewBox="0 0 340 683" fill="none" xmlns="http://www.w3.org/2000/svg">
<path d="M83.105 77.7881L83.1654 84.9069C83.2258 92.276 87.9544 98.204 93.7185 98.1522L99.172 98.1005C103.918 98.0573 108.086 102.104 109.354 107.946C112.97 124.608 119.277 161.506 118.363 212.882C117.155 280.826 91.0349 336.888 87.5143 343.023C87.3245 343.359 87.1519 343.687 86.988 344.041L11.2521 461.42C10.4841 462.645 7.37775 470.946 6.98082 472.43C6.26462 475.14 6.25599 478.108 6.98082 480.869C14.8935 511.07 63.8453 674.527 120.494 676.279C201.26 678.781 237.243 678.764 243.982 674.7C244.776 674.225 245.492 673.638 246.165 672.922C255.692 662.826 320.693 568.91 333.214 473.517C333.602 470.54 332.739 467.529 331.393 465.044C309.122 423.893 263.32 373.914 245.578 335.421C227.242 295.65 215.792 234.696 215.602 212.916C215.455 195.943 215.662 134.799 216.516 108.636C216.741 101.811 220.969 96.3315 226.31 95.9432C232.497 95.4945 237.709 88.6432 237.882 80.7219L237.942 77.9865C238.106 70.4535 233.351 64.2148 227.458 64.2148L93.5028 64.3356C87.7128 64.3356 83.0532 70.3672 83.1222 77.7708L83.105 77.7881Z" fill="#DCD6CB" stroke="#DCD6CB" stroke-width="9" stroke-miterlimit="10"/>
<path d="M126.353 59.2265V43.9189C117.413 43.9189 110.225 37.9046 110.415 30.5873L110.683 20.457C110.942 10.4475 120.96 2.44848 133.187 2.50025L191.95 2.58654C203.09 2.6038 212.133 9.96424 212.236 19.085L212.366 31.4415C212.443 38.6294 205.514 44.5488 196.747 44.7904V59.4164L126.353 59.2352V59.2265Z" fill="#CDB43A" stroke="#CDB43A" stroke-width="5" stroke-miterlimit="10"/>
<path d="M116.033 120.535C124.058 148.096 127.389 176.882 128.027 205.53C129.554 277.313 108.88 350.443 64.4839 407.463C55.6479 418.784 46.0871 429.51 35.7583 439.424C45.3968 428.845 54.483 417.792 62.784 406.203C71.016 394.614 78.618 382.474 85.2623 369.901C125.3 294.649 133.593 203.347 116.033 120.535Z" fill="#E2E3E2"/>
<path d="M303.384 435.948C225.128 366.278 193.495 262.067 208.241 159.59C210.364 145.292 213.143 131.037 217.552 117.266C216.637 120.76 215.878 124.281 215.17 127.819C210.269 152.515 208.103 177.763 208.198 202.907C208.543 291.845 240.496 372.715 303.375 435.948H303.384Z" fill="#E2E3E2"/>
<path d="M89.3008 653.066C135.44 662.886 184.296 668.857 230.841 658.77C237.468 657.251 243.991 655.301 250.471 653.066C244.362 656.173 237.951 658.701 231.393 660.815C187.178 674.181 132.488 668.176 89.3008 653.066Z" fill="#E2E3E2"/>
<path d="M22.1763 460.977C20.3815 469.847 18.8973 478.64 21.184 487.485C21.4342 488.839 21.9261 490.047 22.1763 491.428C21.6327 490.988 21.1322 490.505 20.6317 490.004C13.1505 482.143 14.5656 468.259 22.1763 460.977Z" fill="#E2E3E2"/>
<path d="M315.723 489.147C317.06 484.228 318.156 479.163 317.871 474.046C317.707 468.851 316.724 463.942 315.723 458.695C323.877 466.427 324.826 481.769 315.723 489.147Z" fill="#E2E3E2"/>
<path d="M94.4692 403.538C94.4692 403.538 147.33 341.884 216.016 402.157C284.702 462.43 94.4692 403.538 94.4692 403.538Z" fill="#609437"/>
<path d="M37.8984 493.204C44.1975 523.059 59.6346 587.586 81.8108 622.887C86.7983 630.834 94.573 641.37 103.383 643.104C140.41 650.396 202.909 647.143 232.282 645.02C243.076 644.244 252.853 632.871 258.47 622.991C270.585 601.703 290.656 558.386 301.209 491.176C302.547 482.659 301.002 473.901 296.765 466.549C279.568 436.693 255.614 407.01 235.233 388.043C229.874 383.056 223.195 379.863 216.094 379.337C207.249 378.681 197.654 380.769 188.205 383.263C172.449 387.431 156.313 389.735 140.082 390.019C120.52 390.364 101.813 397.242 86.4014 409.296C78.644 415.362 71.7236 422.74 65.9509 431.257L43.4295 464.461C37.8034 472.753 35.7929 483.211 37.8984 493.195V493.204Z" fill="#215523"/>
<g opacity="0.5">
<g opacity="0.5">
<path d="M152.507 271.805C152.507 271.805 152.541 271.805 152.533 271.831L150.738 277.172C150.738 277.172 150.703 277.215 150.678 277.224L145.423 278.181C145.423 278.181 145.388 278.173 145.397 278.147L147.278 273.556C147.278 273.556 147.312 273.513 147.338 273.505L152.507 271.813V271.805Z" fill="#92B6DA"/>
</g>
<g opacity="0.5">
<path d="M153.051 262.108C153.051 262.108 153.068 262.074 153.086 262.091L157.555 265.516C157.555 265.516 157.59 265.56 157.581 265.585L156.787 270.866C156.787 270.866 156.77 270.892 156.744 270.884L153.008 267.622C153.008 267.622 152.973 267.57 152.973 267.553L153.042 262.117L153.051 262.108Z" fill="#92B6DA"/>
</g>
<g opacity="0.5">
<path d="M151.239 250.353C151.239 250.353 151.273 250.344 151.273 250.37L151.869 255.97C151.869 255.97 151.86 256.022 151.834 256.039L147.459 259.103C147.459 259.103 147.425 259.103 147.425 259.085L147.218 254.132C147.218 254.132 147.226 254.072 147.244 254.063L151.23 250.37L151.239 250.353Z" fill="#92B6DA"/>
</g>
<g opacity="0.5">
<path d="M141.549 269.922C141.549 269.922 141.583 269.922 141.575 269.948L139.78 275.289C139.78 275.289 139.745 275.332 139.719 275.341L134.464 276.299C134.464 276.299 134.43 276.29 134.438 276.264L136.32 271.674C136.32 271.674 136.354 271.63 136.38 271.622L141.549 269.931V269.922Z" fill="#92B6DA"/>
</g>
<g opacity="0.5">
<path d="M142.101 260.225C142.101 260.225 142.118 260.191 142.135 260.208L146.605 263.634C146.605 263.634 146.639 263.677 146.631 263.703L145.837 268.984C145.837 268.984 145.82 269.009 145.794 269.001L142.057 265.739C142.057 265.739 142.023 265.687 142.023 265.67L142.092 260.234L142.101 260.225Z" fill="#92B6DA"/>
</g>
<g opacity="0.5">
<path d="M140.288 248.47C140.288 248.47 140.323 248.461 140.323 248.487L140.918 254.088C140.918 254.088 140.91 254.139 140.884 254.157L136.509 257.22C136.509 257.22 136.474 257.22 136.474 257.203L136.267 252.25C136.267 252.25 136.276 252.189 136.293 252.181L140.28 248.487L140.288 248.47Z" fill="#92B6DA"/>
</g>
<g opacity="0.5">
<path d="M126.465 239.613C126.465 239.613 126.499 239.613 126.491 239.639L124.696 244.98C124.696 244.98 124.661 245.024 124.636 245.032L119.381 245.99C119.381 245.99 119.346 245.981 119.355 245.955L121.236 241.365C121.236 241.365 121.27 241.322 121.296 241.313L126.465 239.622V239.613Z" fill="#92B6DA"/>
</g>
<g opacity="0.5">
<path d="M127.017 229.924C127.017 229.924 127.034 229.89 127.052 229.907L131.521 233.333C131.521 233.333 131.556 233.376 131.547 233.402L130.753 238.683C130.753 238.683 130.736 238.709 130.71 238.7L126.974 235.438C126.974 235.438 126.939 235.387 126.939 235.369L127.008 229.933L127.017 229.924Z" fill="#92B6DA"/>
</g>
<g opacity="0.5">
<path d="M125.205 218.169C125.205 218.169 125.239 218.161 125.239 218.187L125.835 223.787C125.835 223.787 125.826 223.839 125.8 223.856L121.425 226.919C121.425 226.919 121.391 226.919 121.391 226.902L121.184 221.949C121.184 221.949 121.192 221.888 121.21 221.88L125.196 218.187L125.205 218.169Z" fill="#92B6DA"/>
</g>
<g opacity="0.5">
<path d="M115.515 237.734C115.515 237.734 115.549 237.734 115.541 237.76L113.746 243.102C113.746 243.102 113.711 243.145 113.685 243.153L108.43 244.111C108.43 244.111 108.396 244.102 108.404 244.077L110.286 239.486C110.286 239.486 110.32 239.443 110.346 239.434L115.515 237.743V237.734Z" fill="#92B6DA"/>
</g>
<g opacity="0.5">
<path d="M116.067 228.046C116.067 228.046 116.084 228.011 116.102 228.028L120.571 231.454C120.571 231.454 120.606 231.497 120.597 231.523L119.803 236.804C119.803 236.804 119.786 236.83 119.76 236.821L116.024 233.559C116.024 233.559 115.99 233.508 115.99 233.49L116.059 228.054L116.067 228.046Z" fill="#92B6DA"/>
</g>
<g opacity="0.5">
<path d="M114.255 216.29C114.255 216.29 114.29 216.282 114.29 216.308L114.885 221.908C114.885 221.908 114.876 221.96 114.851 221.977L110.476 225.04C110.476 225.04 110.441 225.04 110.441 225.023L110.234 220.07C110.234 220.07 110.243 220.009 110.26 220.001L114.247 216.308L114.255 216.29Z" fill="#92B6DA"/>
</g>
<g opacity="0.5">
<path d="M149.219 242.977C149.219 242.977 149.254 242.977 149.245 243.002L147.451 248.344C147.451 248.344 147.416 248.387 147.39 248.396L142.135 249.353C142.135 249.353 142.101 249.345 142.109 249.319L143.99 244.728C143.99 244.728 144.025 244.685 144.051 244.676L149.219 242.985V242.977Z" fill="#92B6DA"/>
</g>
<g opacity="0.5">
<path d="M149.772 233.28C149.772 233.28 149.789 233.245 149.806 233.263L154.276 236.688C154.276 236.688 154.311 236.731 154.302 236.757L153.508 242.038C153.508 242.038 153.491 242.064 153.465 242.055L149.729 238.794C149.729 238.794 149.694 238.742 149.694 238.725L149.763 233.289L149.772 233.28Z" fill="#92B6DA"/>
</g>
<g opacity="0.5">
<path d="M147.96 221.525C147.96 221.525 147.994 221.516 147.994 221.542L148.589 227.142C148.589 227.142 148.581 227.194 148.555 227.211L144.18 230.275C144.18 230.275 144.146 230.274 144.146 230.257L143.938 225.304C143.938 225.304 143.947 225.244 143.964 225.235L147.951 221.542L147.96 221.525Z" fill="#92B6DA"/>
</g>
<g opacity="0.5">
<path d="M138.269 241.098C138.269 241.098 138.304 241.098 138.295 241.124L136.5 246.465C136.5 246.465 136.466 246.508 136.44 246.517L131.185 247.474C131.185 247.474 131.15 247.466 131.159 247.44L133.04 242.849C133.04 242.849 133.075 242.806 133.101 242.798L138.269 241.106V241.098Z" fill="#92B6DA"/>
</g>
<g opacity="0.5">
<path d="M138.813 231.405C138.813 231.405 138.831 231.37 138.848 231.388L143.318 234.813C143.318 234.813 143.352 234.856 143.343 234.882L142.55 240.163C142.55 240.163 142.532 240.189 142.506 240.18L138.77 236.919C138.77 236.919 138.736 236.867 138.736 236.85L138.805 231.414L138.813 231.405Z" fill="#92B6DA"/>
</g>
<g opacity="0.5">
<path d="M137.001 219.642C137.001 219.642 137.036 219.633 137.036 219.659L137.631 225.259C137.631 225.259 137.622 225.311 137.596 225.328L133.222 228.392C133.222 228.392 133.187 228.392 133.187 228.374L132.98 223.421C132.98 223.421 132.989 223.361 133.006 223.352L136.992 219.659L137.001 219.642Z" fill="#92B6DA"/>
</g>
<g opacity="0.5">
<path d="M129.123 270.336C129.123 270.336 129.158 270.336 129.149 270.362L127.354 275.703C127.354 275.703 127.32 275.746 127.294 275.755L122.039 276.713C122.039 276.713 122.004 276.704 122.013 276.678L123.894 272.088C123.894 272.088 123.929 272.044 123.955 272.036L129.123 270.345V270.336Z" fill="#92B6DA"/>
</g>
<g opacity="0.5">
<path d="M129.675 260.651C129.675 260.651 129.692 260.616 129.709 260.634L134.179 264.059C134.179 264.059 134.214 264.103 134.205 264.128L133.411 269.409C133.411 269.409 133.394 269.435 133.368 269.427L129.632 266.165C129.632 266.165 129.597 266.113 129.597 266.096L129.666 260.66L129.675 260.651Z" fill="#92B6DA"/>
</g>
<g opacity="0.5">
<path d="M127.863 248.896C127.863 248.896 127.897 248.887 127.897 248.913L128.493 254.513C128.493 254.513 128.484 254.565 128.458 254.582L124.083 257.646C124.083 257.646 124.049 257.646 124.049 257.628L123.842 252.675C123.842 252.675 123.85 252.615 123.868 252.606L127.854 248.913L127.863 248.896Z" fill="#92B6DA"/>
</g>
<g opacity="0.5">
<path d="M118.173 268.465C118.173 268.465 118.207 268.465 118.199 268.491L116.404 273.832C116.404 273.832 116.369 273.875 116.343 273.884L111.088 274.842C111.088 274.842 111.054 274.833 111.062 274.807L112.944 270.217C112.944 270.217 112.978 270.173 113.004 270.165L118.173 268.473V268.465Z" fill="#92B6DA"/>
</g>
<g opacity="0.5">
<path d="M118.716 258.768C118.716 258.768 118.734 258.734 118.751 258.751L123.221 262.177C123.221 262.177 123.255 262.22 123.247 262.246L122.453 267.526C122.453 267.526 122.435 267.552 122.409 267.544L118.673 264.282C118.673 264.282 118.639 264.23 118.639 264.213L118.708 258.777L118.716 258.768Z" fill="#92B6DA"/>
</g>
<g opacity="0.5">
<path d="M116.904 247.013C116.904 247.013 116.939 247.004 116.939 247.03L117.534 252.631C117.534 252.631 117.525 252.682 117.5 252.7L113.125 255.763C113.125 255.763 113.09 255.763 113.09 255.746L112.883 250.793C112.883 250.793 112.892 250.732 112.909 250.724L116.895 247.03L116.904 247.013Z" fill="#92B6DA"/>
</g>
<g opacity="0.5">
<path d="M170.265 246.777C170.265 246.777 170.3 246.777 170.291 246.803L168.496 252.145C168.496 252.145 168.462 252.188 168.436 252.196L163.181 253.154C163.181 253.154 163.146 253.145 163.155 253.12L165.036 248.529C165.036 248.529 165.071 248.486 165.096 248.477L170.265 246.786V246.777Z" fill="#92B6DA"/>
</g>
<g opacity="0.5">
<path d="M170.809 237.088C170.809 237.088 170.826 237.054 170.844 237.071L175.313 240.497C175.313 240.497 175.348 240.54 175.339 240.566L174.545 245.847C174.545 245.847 174.528 245.873 174.502 245.864L170.766 242.602C170.766 242.602 170.731 242.551 170.731 242.533L170.8 237.097L170.809 237.088Z" fill="#92B6DA"/>
</g>
<g opacity="0.5">
<path d="M168.997 225.329C168.997 225.329 169.031 225.321 169.031 225.347L169.627 230.947C169.627 230.947 169.618 230.999 169.592 231.016L165.217 234.079C165.217 234.079 165.183 234.079 165.183 234.062L164.976 229.109C164.976 229.109 164.984 229.049 165.002 229.04L168.988 225.347L168.997 225.329Z" fill="#92B6DA"/>
</g>
<g opacity="0.5">
<path d="M159.307 244.902C159.307 244.902 159.341 244.902 159.333 244.928L157.538 250.27C157.538 250.27 157.503 250.313 157.477 250.321L152.222 251.279C152.222 251.279 152.188 251.27 152.196 251.245L154.078 246.654C154.078 246.654 154.112 246.611 154.138 246.602L159.307 244.911V244.902Z" fill="#92B6DA"/>
</g>
<g opacity="0.5">
<path d="M159.859 235.21C159.859 235.21 159.876 235.175 159.893 235.192L164.363 238.618C164.363 238.618 164.397 238.661 164.389 238.687L163.595 243.968C163.595 243.968 163.578 243.994 163.552 243.985L159.816 240.723C159.816 240.723 159.781 240.672 159.781 240.654L159.85 235.218L159.859 235.21Z" fill="#92B6DA"/>
</g>
<g opacity="0.5">
<path d="M158.047 223.455C158.047 223.455 158.081 223.446 158.081 223.472L158.677 229.072C158.677 229.072 158.668 229.124 158.642 229.141L154.267 232.204C154.267 232.204 154.233 232.204 154.233 232.187L154.026 227.234C154.026 227.234 154.034 227.174 154.052 227.165L158.038 223.472L158.047 223.455Z" fill="#92B6DA"/>
</g>
<g opacity="0.5">
<path d="M173.363 255.619C173.363 255.619 173.397 255.61 173.397 255.636L173.993 261.236C173.993 261.236 173.984 261.288 173.958 261.305L169.583 264.368C169.583 264.368 169.549 264.368 169.549 264.351L169.342 259.398C169.342 259.398 169.35 259.338 169.367 259.329L173.354 255.636L173.363 255.619Z" fill="#92B6DA"/>
</g>
<g opacity="0.5">
<path d="M163.672 275.191C163.672 275.191 163.707 275.191 163.698 275.217L161.903 280.559C161.903 280.559 161.869 280.602 161.843 280.61L156.588 281.568C156.588 281.568 156.554 281.56 156.562 281.534L158.443 276.943C158.443 276.943 158.478 276.9 158.504 276.891L163.672 275.2V275.191Z" fill="#92B6DA"/>
</g>
<g opacity="0.5">
<path d="M164.225 265.491C164.225 265.491 164.242 265.456 164.259 265.474L168.729 268.899C168.729 268.899 168.763 268.942 168.755 268.968L167.961 274.249C167.961 274.249 167.944 274.275 167.918 274.266L164.181 271.005C164.181 271.005 164.147 270.953 164.147 270.936L164.216 265.499L164.225 265.491Z" fill="#92B6DA"/>
</g>
<g opacity="0.5">
<path d="M162.413 253.74C162.413 253.74 162.447 253.731 162.447 253.757L163.043 259.357C163.043 259.357 163.034 259.409 163.008 259.426L158.633 262.489C158.633 262.489 158.599 262.489 158.599 262.472L158.392 257.519C158.392 257.519 158.4 257.459 158.417 257.45L162.404 253.757L162.413 253.74Z" fill="#92B6DA"/>
</g>
<g opacity="0.5">
<path d="M168.583 214.949C168.583 214.949 168.617 214.949 168.609 214.975L166.814 220.316C166.814 220.316 166.779 220.36 166.753 220.368L161.498 221.326C161.498 221.326 161.464 221.317 161.473 221.291L163.354 216.701C163.354 216.701 163.388 216.658 163.414 216.649L168.583 214.958V214.949Z" fill="#92B6DA"/>
</g>
<g opacity="0.5">
<path d="M157.633 213.074C157.633 213.074 157.667 213.074 157.658 213.1L155.864 218.441C155.864 218.441 155.829 218.485 155.803 218.493L150.548 219.451C150.548 219.451 150.514 219.442 150.522 219.416L152.403 214.826C152.403 214.826 152.438 214.783 152.464 214.774L157.633 213.083V213.074Z" fill="#92B6DA"/>
</g>
<g opacity="0.5">
<path d="M158.185 203.381C158.185 203.381 158.202 203.347 158.219 203.364L162.689 206.79C162.689 206.79 162.723 206.833 162.715 206.859L161.921 212.14C161.921 212.14 161.904 212.166 161.878 212.157L158.141 208.895C158.141 208.895 158.107 208.844 158.107 208.826L158.176 203.39L158.185 203.381Z" fill="#92B6DA"/>
</g>
<g opacity="0.5">
<path d="M156.364 191.626C156.364 191.626 156.399 191.618 156.399 191.644L156.994 197.244C156.994 197.244 156.985 197.296 156.959 197.313L152.585 200.376C152.585 200.376 152.55 200.376 152.55 200.359L152.343 195.406C152.343 195.406 152.352 195.345 152.369 195.337L156.355 191.644L156.364 191.626Z" fill="#92B6DA"/>
</g>
<g opacity="0.5">
<path d="M146.173 211.395C146.173 211.395 146.208 211.395 146.199 211.42L144.404 216.762C144.404 216.762 144.37 216.805 144.344 216.813L139.089 217.771C139.089 217.771 139.055 217.763 139.063 217.737L140.944 213.146C140.944 213.146 140.979 213.103 141.005 213.094L146.173 211.403V211.395Z" fill="#92B6DA"/>
</g>
<g opacity="0.5">
<path d="M146.717 201.702C146.717 201.702 146.734 201.667 146.752 201.685L151.221 205.11C151.221 205.11 151.256 205.153 151.247 205.179L150.453 210.46C150.453 210.46 150.436 210.486 150.41 210.477L146.674 207.216C146.674 207.216 146.639 207.164 146.639 207.147L146.708 201.71L146.717 201.702Z" fill="#92B6DA"/>
</g>
<g opacity="0.5">
<path d="M144.905 189.947C144.905 189.947 144.94 189.938 144.94 189.964L145.535 195.564C145.535 195.564 145.526 195.616 145.5 195.633L141.126 198.696C141.126 198.696 141.091 198.696 141.091 198.679L140.884 193.726C140.884 193.726 140.893 193.666 140.91 193.657L144.896 189.964L144.905 189.947Z" fill="#92B6DA"/>
</g>
<g opacity="0.5">
<path d="M135.215 209.523C135.215 209.523 135.249 209.523 135.241 209.549L133.446 214.891C133.446 214.891 133.411 214.934 133.386 214.942L128.131 215.9C128.131 215.9 128.096 215.892 128.105 215.866L129.986 211.275C129.986 211.275 130.02 211.232 130.046 211.223L135.215 209.532V209.523Z" fill="#92B6DA"/>
</g>
<g opacity="0.5">
<path d="M135.767 199.823C135.767 199.823 135.784 199.788 135.802 199.806L140.271 203.231C140.271 203.231 140.306 203.274 140.297 203.3L139.503 208.581C139.503 208.581 139.486 208.607 139.46 208.598L135.724 205.337C135.724 205.337 135.689 205.285 135.689 205.268L135.758 199.832L135.767 199.823Z" fill="#92B6DA"/>
</g>
<g opacity="0.5">
<path d="M133.955 188.072C133.955 188.072 133.989 188.063 133.989 188.089L134.585 193.689C134.585 193.689 134.576 193.741 134.55 193.758L130.175 196.821C130.175 196.821 130.141 196.821 130.141 196.804L129.934 191.851C129.934 191.851 129.942 191.791 129.96 191.782L133.946 188.089L133.955 188.072Z" fill="#92B6DA"/>
</g>
<g opacity="0.5">
<path d="M123.764 208.023C123.764 208.023 123.799 208.023 123.79 208.049L121.995 213.391C121.995 213.391 121.961 213.434 121.935 213.442L116.68 214.4C116.68 214.4 116.645 214.392 116.654 214.366L118.535 209.775C118.535 209.775 118.57 209.732 118.595 209.723L123.764 208.032V208.023Z" fill="#92B6DA"/>
</g>
<g opacity="0.5">
<path d="M124.317 198.323C124.317 198.323 124.334 198.288 124.351 198.306L128.821 201.731C128.821 201.731 128.855 201.774 128.847 201.8L128.053 207.081C128.053 207.081 128.036 207.107 128.01 207.098L124.274 203.837C124.274 203.837 124.239 203.785 124.239 203.768L124.308 198.331L124.317 198.323Z" fill="#92B6DA"/>
</g>
<g opacity="0.5">
<path d="M122.496 186.572C122.496 186.572 122.53 186.563 122.53 186.589L123.126 192.189C123.126 192.189 123.117 192.241 123.091 192.258L118.716 195.321C118.716 195.321 118.682 195.321 118.682 195.304L118.475 190.351C118.475 190.351 118.483 190.291 118.5 190.282L122.487 186.589L122.496 186.572Z" fill="#92B6DA"/>
</g>
<g opacity="0.5">
<path d="M112.814 206.141C112.814 206.141 112.849 206.141 112.84 206.167L111.045 211.508C111.045 211.508 111.011 211.551 110.985 211.56L105.73 212.517C105.73 212.517 105.695 212.509 105.704 212.483L107.585 207.892C107.585 207.892 107.62 207.849 107.646 207.841L112.814 206.149V206.141Z" fill="#92B6DA"/>
</g>
<g opacity="0.5">
<path d="M113.357 196.444C113.357 196.444 113.375 196.409 113.392 196.427L117.862 199.852C117.862 199.852 117.896 199.896 117.888 199.921L117.094 205.202C117.094 205.202 117.076 205.228 117.051 205.22L113.314 201.958C113.314 201.958 113.28 201.906 113.28 201.889L113.349 196.453L113.357 196.444Z" fill="#92B6DA"/>
</g>
<g opacity="0.5">
<path d="M149.297 359.723C149.297 359.723 149.332 359.723 149.323 359.749L147.528 365.09C147.528 365.09 147.494 365.133 147.468 365.142L142.213 366.099C142.213 366.099 142.179 366.091 142.187 366.065L144.068 361.474C144.068 361.474 144.103 361.431 144.129 361.423L149.297 359.731V359.723Z" fill="#92B6DA"/>
</g>
<g opacity="0.5">
<path d="M149.849 350.034C149.849 350.034 149.867 349.999 149.884 350.017L154.354 353.442C154.354 353.442 154.388 353.485 154.38 353.511L153.586 358.792C153.586 358.792 153.568 358.818 153.543 358.809L149.806 355.548C149.806 355.548 149.772 355.496 149.772 355.479L149.841 350.042L149.849 350.034Z" fill="#92B6DA"/>
</g>
<g opacity="0.5">
<path d="M148.037 338.275C148.037 338.275 148.072 338.266 148.072 338.292L148.667 343.892C148.667 343.892 148.658 343.944 148.633 343.961L144.258 347.024C144.258 347.024 144.223 347.025 144.223 347.007L144.016 342.054C144.016 342.054 144.025 341.994 144.042 341.985L148.029 338.292L148.037 338.275Z" fill="#92B6DA"/>
</g>
<g opacity="0.5">
<path d="M138.347 357.848C138.347 357.848 138.381 357.848 138.373 357.874L136.578 363.215C136.578 363.215 136.544 363.258 136.518 363.267L131.263 364.224C131.263 364.224 131.228 364.216 131.237 364.19L133.118 359.599C133.118 359.599 133.152 359.556 133.178 359.548L138.347 357.856V357.848Z" fill="#92B6DA"/>
</g>
<g opacity="0.5">
<path d="M138.899 348.155C138.899 348.155 138.917 348.12 138.934 348.138L143.404 351.563C143.404 351.563 143.438 351.606 143.43 351.632L142.636 356.913C142.636 356.913 142.618 356.939 142.593 356.93L138.856 353.669C138.856 353.669 138.822 353.617 138.822 353.6L138.891 348.164L138.899 348.155Z" fill="#92B6DA"/>
</g>
<g opacity="0.5">
<path d="M137.079 336.4C137.079 336.4 137.113 336.391 137.113 336.417L137.709 342.017C137.709 342.017 137.7 342.069 137.674 342.086L133.299 345.15C133.299 345.15 133.265 345.149 133.265 345.132L133.058 340.179C133.058 340.179 133.066 340.119 133.084 340.11L137.07 336.417L137.079 336.4Z" fill="#92B6DA"/>
</g>
<g opacity="0.5">
<path d="M123.263 327.535C123.263 327.535 123.298 327.535 123.289 327.561L121.495 332.902C121.495 332.902 121.46 332.945 121.434 332.954L116.179 333.912C116.179 333.912 116.145 333.903 116.153 333.877L118.034 329.287C118.034 329.287 118.069 329.244 118.095 329.235L123.263 327.544V327.535Z" fill="#92B6DA"/>
</g>
<g opacity="0.5">
<path d="M123.816 317.842C123.816 317.842 123.833 317.808 123.851 317.825L128.32 321.251C128.32 321.251 128.355 321.294 128.346 321.32L127.553 326.601C127.553 326.601 127.535 326.627 127.509 326.618L123.773 323.356C123.773 323.356 123.739 323.305 123.739 323.287L123.808 317.851L123.816 317.842Z" fill="#92B6DA"/>
</g>
<g opacity="0.5">
<path d="M122.004 306.087C122.004 306.087 122.038 306.079 122.038 306.105L122.634 311.705C122.634 311.705 122.625 311.756 122.599 311.774L118.224 314.837C118.224 314.837 118.19 314.837 118.19 314.82L117.983 309.867C117.983 309.867 117.991 309.806 118.009 309.798L121.995 306.105L122.004 306.087Z" fill="#92B6DA"/>
</g>
<g opacity="0.5">
<path d="M112.314 325.656C112.314 325.656 112.348 325.656 112.34 325.682L110.545 331.023C110.545 331.023 110.51 331.067 110.484 331.075L105.229 332.033C105.229 332.033 105.195 332.024 105.204 331.998L107.085 327.408C107.085 327.408 107.119 327.365 107.145 327.356L112.314 325.665V325.656Z" fill="#92B6DA"/>
</g>
<g opacity="0.5">
<path d="M112.866 315.956C112.866 315.956 112.883 315.921 112.9 315.938L117.37 319.364C117.37 319.364 117.405 319.407 117.396 319.433L116.602 324.714C116.602 324.714 116.585 324.74 116.559 324.731L112.823 321.47C112.823 321.47 112.788 321.418 112.788 321.4L112.857 315.964L112.866 315.956Z" fill="#92B6DA"/>
</g>
<g opacity="0.5">
<path d="M111.045 304.205C111.045 304.205 111.08 304.196 111.08 304.222L111.675 309.822C111.675 309.822 111.667 309.874 111.641 309.891L107.266 312.954C107.266 312.954 107.231 312.954 107.231 312.937L107.024 307.984C107.024 307.984 107.033 307.924 107.05 307.915L111.037 304.222L111.045 304.205Z" fill="#92B6DA"/>
</g>
<g opacity="0.5">
<path d="M146.018 330.898C146.018 330.898 146.053 330.898 146.044 330.924L144.249 336.266C144.249 336.266 144.215 336.309 144.189 336.317L138.934 337.275C138.934 337.275 138.899 337.267 138.908 337.241L140.789 332.65C140.789 332.65 140.823 332.607 140.849 332.598L146.018 330.907V330.898Z" fill="#92B6DA"/>
</g>
<g opacity="0.5">
<path d="M144.75 309.455C144.75 309.455 144.784 309.446 144.784 309.472L145.38 315.072C145.38 315.072 145.371 315.124 145.345 315.141L140.97 318.204C140.97 318.204 140.936 318.204 140.936 318.187L140.729 313.234C140.729 313.234 140.737 313.174 140.755 313.165L144.741 309.472L144.75 309.455Z" fill="#92B6DA"/>
</g>
<g opacity="0.5">
<path d="M135.068 329.016C135.068 329.016 135.103 329.016 135.094 329.042L133.299 334.383C133.299 334.383 133.265 334.426 133.239 334.435L127.984 335.392C127.984 335.392 127.949 335.384 127.958 335.358L129.839 330.767C129.839 330.767 129.874 330.724 129.899 330.716L135.068 329.024V329.016Z" fill="#92B6DA"/>
</g>
<g opacity="0.5">
<path d="M135.612 319.327C135.612 319.327 135.629 319.292 135.646 319.31L140.116 322.735C140.116 322.735 140.15 322.778 140.142 322.804L139.348 328.085C139.348 328.085 139.331 328.111 139.305 328.102L135.568 324.841C135.568 324.841 135.534 324.789 135.534 324.772L135.603 319.335L135.612 319.327Z" fill="#92B6DA"/>
</g>
<g opacity="0.5">
<path d="M133.799 307.576C133.799 307.576 133.834 307.567 133.834 307.593L134.429 313.193C134.429 313.193 134.421 313.245 134.395 313.262L130.02 316.325C130.02 316.325 129.985 316.325 129.985 316.308L129.778 311.355C129.778 311.355 129.787 311.295 129.804 311.286L133.791 307.593L133.799 307.576Z" fill="#92B6DA"/>
</g>
<g opacity="0.5">
<path d="M126.474 348.565C126.474 348.565 126.491 348.531 126.508 348.548L130.978 351.973C130.978 351.973 131.013 352.017 131.004 352.042L130.21 357.323C130.21 357.323 130.193 357.349 130.167 357.341L126.431 354.079C126.431 354.079 126.396 354.027 126.396 354.01L126.465 348.574L126.474 348.565Z" fill="#92B6DA"/>
</g>
<g opacity="0.5">
<path d="M124.653 336.814C124.653 336.814 124.687 336.805 124.687 336.831L125.283 342.431C125.283 342.431 125.274 342.483 125.248 342.5L120.873 345.564C120.873 345.564 120.839 345.564 120.839 345.546L120.632 340.593C120.632 340.593 120.64 340.533 120.658 340.524L124.644 336.831L124.653 336.814Z" fill="#92B6DA"/>
</g>
<g opacity="0.5">
<path d="M115.515 346.698C115.515 346.698 115.532 346.663 115.549 346.681L120.019 350.106C120.019 350.106 120.053 350.149 120.045 350.175L119.251 355.456C119.251 355.456 119.234 355.482 119.208 355.473L115.472 352.212C115.472 352.212 115.437 352.16 115.437 352.143L115.506 346.707L115.515 346.698Z" fill="#92B6DA"/>
</g>
<g opacity="0.5">
<path d="M113.703 334.943C113.703 334.943 113.737 334.934 113.737 334.96L114.333 340.56C114.333 340.56 114.324 340.612 114.298 340.629L109.923 343.692C109.923 343.692 109.889 343.692 109.889 343.675L109.682 338.722C109.682 338.722 109.691 338.662 109.708 338.653L113.694 334.96L113.703 334.943Z" fill="#92B6DA"/>
</g>
<g opacity="0.5">
<path d="M171.422 364.988C171.422 364.988 171.456 364.988 171.448 365.014L169.653 370.355C169.653 370.355 169.618 370.399 169.592 370.407L164.337 371.365C164.337 371.365 164.303 371.356 164.311 371.331L166.193 366.74C166.193 366.74 166.227 366.697 166.253 366.688L171.422 364.997V364.988Z" fill="#92B6DA"/>
</g>
<g opacity="0.5">
<path d="M160.471 363.105C160.471 363.105 160.506 363.105 160.497 363.131L158.703 368.473C158.703 368.473 158.668 368.516 158.642 368.524L153.387 369.482C153.387 369.482 153.353 369.474 153.361 369.448L155.242 364.857C155.242 364.857 155.277 364.814 155.303 364.805L160.471 363.114V363.105Z" fill="#92B6DA"/>
</g>
<g opacity="0.5">
<path d="M161.024 353.421C161.024 353.421 161.041 353.386 161.058 353.403L165.528 356.829C165.528 356.829 165.563 356.872 165.554 356.898L164.76 362.179C164.76 362.179 164.743 362.205 164.717 362.196L160.981 358.934C160.981 358.934 160.946 358.883 160.946 358.865L161.015 353.429L161.024 353.421Z" fill="#92B6DA"/>
</g>
<g opacity="0.5">
<path d="M159.203 341.665C159.203 341.665 159.237 341.657 159.237 341.683L159.833 347.283C159.833 347.283 159.824 347.335 159.798 347.352L155.423 350.415C155.423 350.415 155.389 350.415 155.389 350.398L155.182 345.445C155.182 345.445 155.191 345.384 155.208 345.376L159.194 341.683L159.203 341.665Z" fill="#92B6DA"/>
</g>
<g opacity="0.5">
<path d="M164.122 281.423C164.122 281.423 164.156 281.415 164.156 281.441L164.752 287.041C164.752 287.041 164.743 287.092 164.717 287.11L160.342 290.173C160.342 290.173 160.308 290.173 160.308 290.156L160.101 285.203C160.101 285.203 160.109 285.142 160.126 285.134L164.113 281.441L164.122 281.423Z" fill="#92B6DA"/>
</g>
<g opacity="0.5">
<path d="M154.431 300.996C154.431 300.996 154.466 300.996 154.457 301.022L152.662 306.363C152.662 306.363 152.628 306.406 152.602 306.415L147.347 307.373C147.347 307.373 147.313 307.364 147.321 307.338L149.202 302.748C149.202 302.748 149.237 302.705 149.263 302.696L154.431 301.005V300.996Z" fill="#92B6DA"/>
</g>
<g opacity="0.5">
<path d="M154.975 291.303C154.975 291.303 154.992 291.269 155.009 291.286L159.479 294.712C159.479 294.712 159.514 294.755 159.505 294.781L158.711 300.062C158.711 300.062 158.694 300.088 158.668 300.079L154.932 296.817C154.932 296.817 154.897 296.765 154.897 296.748L154.966 291.312L154.975 291.303Z" fill="#92B6DA"/>
</g>
<g opacity="0.5">
<path d="M153.163 279.548C153.163 279.548 153.197 279.54 153.197 279.566L153.793 285.166C153.793 285.166 153.784 285.217 153.758 285.235L149.383 288.298C149.383 288.298 149.349 288.298 149.349 288.281L149.142 283.328C149.142 283.328 149.15 283.267 149.167 283.259L153.154 279.566L153.163 279.548Z" fill="#92B6DA"/>
</g>
<g opacity="0.5">
<path d="M142.964 299.324C142.964 299.324 142.998 299.324 142.99 299.35L141.195 304.691C141.195 304.691 141.16 304.735 141.134 304.743L135.879 305.701C135.879 305.701 135.845 305.692 135.853 305.666L137.735 301.076C137.735 301.076 137.769 301.033 137.795 301.024L142.964 299.333V299.324Z" fill="#92B6DA"/>
</g>
<g opacity="0.5">
<path d="M143.516 289.635C143.516 289.635 143.533 289.601 143.55 289.618L148.02 293.044C148.02 293.044 148.054 293.087 148.046 293.113L147.252 298.394C147.252 298.394 147.235 298.42 147.209 298.411L143.472 295.149C143.472 295.149 143.438 295.097 143.438 295.08L143.507 289.644L143.516 289.635Z" fill="#92B6DA"/>
</g>
<g opacity="0.5">
<path d="M141.703 277.876C141.703 277.876 141.738 277.868 141.738 277.894L142.333 283.494C142.333 283.494 142.325 283.546 142.299 283.563L137.924 286.626C137.924 286.626 137.889 286.626 137.889 286.609L137.682 281.656C137.682 281.656 137.691 281.595 137.708 281.587L141.695 277.894L141.703 277.876Z" fill="#92B6DA"/>
</g>
<g opacity="0.5">
<path d="M132.013 297.445C132.013 297.445 132.048 297.445 132.039 297.471L130.245 302.812C130.245 302.812 130.21 302.856 130.184 302.864L124.929 303.822C124.929 303.822 124.895 303.813 124.903 303.788L126.784 299.197C126.784 299.197 126.819 299.154 126.845 299.145L132.013 297.454V297.445Z" fill="#92B6DA"/>
</g>
<g opacity="0.5">
<path d="M132.565 287.756C132.565 287.756 132.583 287.722 132.6 287.739L137.07 291.165C137.07 291.165 137.104 291.208 137.096 291.234L136.302 296.515C136.302 296.515 136.285 296.541 136.259 296.532L132.522 293.27C132.522 293.27 132.488 293.219 132.488 293.201L132.557 287.765L132.565 287.756Z" fill="#92B6DA"/>
</g>
<g opacity="0.5">
<path d="M130.745 276.001C130.745 276.001 130.779 275.993 130.779 276.019L131.375 281.619C131.375 281.619 131.366 281.671 131.34 281.688L126.966 284.751C126.966 284.751 126.931 284.751 126.931 284.734L126.724 279.781C126.724 279.781 126.733 279.72 126.75 279.712L130.736 276.019L130.745 276.001Z" fill="#92B6DA"/>
</g>
<g opacity="0.5">
<path d="M120.563 295.941C120.563 295.941 120.598 295.941 120.589 295.967L118.794 301.309C118.794 301.309 118.76 301.352 118.734 301.36L113.479 302.318C113.479 302.318 113.444 302.31 113.453 302.284L115.334 297.693C115.334 297.693 115.368 297.65 115.394 297.641L120.563 295.95V295.941Z" fill="#92B6DA"/>
</g>
<g opacity="0.5">
<path d="M121.107 286.253C121.107 286.253 121.124 286.218 121.141 286.235L125.611 289.661C125.611 289.661 125.646 289.704 125.637 289.73L124.843 295.011C124.843 295.011 124.826 295.037 124.8 295.028L121.064 291.766C121.064 291.766 121.029 291.715 121.029 291.697L121.098 286.261L121.107 286.253Z" fill="#92B6DA"/>
</g>
<g opacity="0.5">
<path d="M119.295 274.49C119.295 274.49 119.329 274.481 119.329 274.507L119.924 280.107C119.924 280.107 119.916 280.159 119.89 280.176L115.515 283.239C115.515 283.239 115.481 283.239 115.481 283.222L115.273 278.269C115.273 278.269 115.282 278.209 115.299 278.2L119.286 274.507L119.295 274.49Z" fill="#92B6DA"/>
</g>
<g opacity="0.5">
<path d="M109.604 294.055C109.604 294.055 109.639 294.055 109.63 294.081L107.835 299.422C107.835 299.422 107.801 299.465 107.775 299.474L102.52 300.431C102.52 300.431 102.485 300.423 102.494 300.397L104.375 295.806C104.375 295.806 104.41 295.763 104.436 295.755L109.604 294.063V294.055Z" fill="#92B6DA"/>
</g>
<g opacity="0.5">
<path d="M110.157 284.37C110.157 284.37 110.174 284.335 110.191 284.352L114.661 287.778C114.661 287.778 114.695 287.821 114.687 287.847L113.893 293.128C113.893 293.128 113.876 293.154 113.85 293.145L110.113 289.884C110.113 289.884 110.079 289.832 110.079 289.815L110.148 284.378L110.157 284.37Z" fill="#92B6DA"/>
</g>
<g opacity="0.5">
<path d="M108.344 272.619C108.344 272.619 108.379 272.61 108.379 272.636L108.974 278.236C108.974 278.236 108.966 278.288 108.94 278.305L104.565 281.368C104.565 281.368 104.53 281.368 104.53 281.351L104.323 276.398C104.323 276.398 104.332 276.338 104.349 276.329L108.336 272.636L108.344 272.619Z" fill="#92B6DA"/>
</g>
</g>
<g opacity="0.5">
<g opacity="0.5">
<path d="M114.255 145.208C114.255 145.208 114.221 145.225 114.221 145.208L112.607 139.806C112.607 139.806 112.607 139.754 112.624 139.737L116.361 135.932C116.361 135.932 116.395 135.923 116.404 135.94L117.517 140.773C117.517 140.773 117.517 140.833 117.5 140.85L114.255 145.217V145.208Z" fill="#92B6DA"/>
</g>
<g opacity="0.5">
<path d="M119.398 153.449C119.398 153.449 119.398 153.483 119.381 153.483L113.755 153.267C113.755 153.267 113.703 153.25 113.694 153.224L111.296 148.452C111.296 148.452 111.296 148.418 111.322 148.418L116.257 148.918C116.257 148.918 116.309 148.936 116.326 148.962L119.407 153.44L119.398 153.449Z" fill="#92B6DA"/>
</g>
<g opacity="0.5">
<path d="M127.656 161.998C127.656 161.998 127.63 162.024 127.621 162.006L123.902 157.778C123.902 157.778 123.876 157.727 123.885 157.709L125.688 152.687C125.688 152.687 125.714 152.661 125.732 152.687L128.76 156.613C128.76 156.613 128.786 156.665 128.778 156.691L127.647 162.015L127.656 161.998Z" fill="#92B6DA"/>
</g>
<g opacity="0.5">
<path d="M124.282 140.427C124.282 140.427 124.247 140.444 124.247 140.427L122.634 135.025C122.634 135.025 122.634 134.973 122.651 134.956L126.387 131.151C126.387 131.151 126.422 131.142 126.43 131.159L127.543 135.991C127.543 135.991 127.543 136.052 127.526 136.069L124.282 140.435V140.427Z" fill="#92B6DA"/>
</g>
<g opacity="0.5">
<path d="M129.425 148.656C129.425 148.656 129.425 148.69 129.408 148.69L123.782 148.474C123.782 148.474 123.73 148.457 123.721 148.431L121.323 143.66C121.323 143.66 121.323 143.625 121.348 143.625L126.284 144.125C126.284 144.125 126.336 144.143 126.353 144.169L129.434 148.647L129.425 148.656Z" fill="#92B6DA"/>
</g>
<g opacity="0.5">
<path d="M137.691 157.209C137.691 157.209 137.665 157.235 137.657 157.217L133.938 152.989C133.938 152.989 133.912 152.937 133.92 152.92L135.724 147.898C135.724 147.898 135.75 147.872 135.767 147.898L138.796 151.824C138.796 151.824 138.822 151.876 138.813 151.902L137.683 157.226L137.691 157.209Z" fill="#92B6DA"/>
</g>
<g opacity="0.5">
<path d="M133.567 166.868C133.567 166.868 133.532 166.885 133.532 166.868L131.918 161.466C131.918 161.466 131.918 161.415 131.936 161.397L135.672 157.592C135.672 157.592 135.707 157.583 135.715 157.601L136.828 162.433C136.828 162.433 136.828 162.493 136.811 162.51L133.567 166.877V166.868Z" fill="#92B6DA"/>
</g>
<g opacity="0.5">
<path d="M138.709 175.097C138.709 175.097 138.709 175.132 138.692 175.132L133.066 174.916C133.066 174.916 133.014 174.899 133.006 174.873L130.607 170.101C130.607 170.101 130.607 170.066 130.633 170.066L135.569 170.567C135.569 170.567 135.62 170.584 135.638 170.61L138.718 175.088L138.709 175.097Z" fill="#92B6DA"/>
</g>
<g opacity="0.5">
<path d="M146.976 183.65C146.976 183.65 146.95 183.676 146.941 183.659L143.222 179.431C143.222 179.431 143.196 179.379 143.205 179.362L145.008 174.34C145.008 174.34 145.034 174.314 145.051 174.34L148.08 178.266C148.08 178.266 148.106 178.318 148.097 178.343L146.967 183.667L146.976 183.65Z" fill="#92B6DA"/>
</g>
<g opacity="0.5">
<path d="M143.593 162.075C143.593 162.075 143.559 162.092 143.559 162.075L141.945 156.673C141.945 156.673 141.945 156.622 141.962 156.604L145.699 152.799C145.699 152.799 145.733 152.79 145.742 152.808L146.855 157.64C146.855 157.64 146.855 157.7 146.838 157.717L143.593 162.084V162.075Z" fill="#92B6DA"/>
</g>
<g opacity="0.5">
<path d="M148.745 170.308C148.745 170.308 148.745 170.342 148.728 170.342L143.102 170.127C143.102 170.127 143.05 170.11 143.041 170.084L140.643 165.312C140.643 165.312 140.643 165.277 140.668 165.277L145.604 165.778C145.604 165.778 145.656 165.795 145.673 165.821L148.754 170.299L148.745 170.308Z" fill="#92B6DA"/>
</g>
<g opacity="0.5">
<path d="M157.003 178.857C157.003 178.857 156.977 178.883 156.968 178.866L153.249 174.638C153.249 174.638 153.223 174.586 153.232 174.569L155.035 169.547C155.035 169.547 155.061 169.521 155.078 169.547L158.107 173.473C158.107 173.473 158.133 173.525 158.124 173.55L156.994 178.874L157.003 178.857Z" fill="#92B6DA"/>
</g>
<g opacity="0.5">
<path d="M134.188 132.911C134.188 132.911 134.153 132.928 134.153 132.911L132.54 127.509C132.54 127.509 132.54 127.458 132.557 127.44L136.293 123.635C136.293 123.635 136.328 123.626 136.336 123.644L137.449 128.476C137.449 128.476 137.449 128.536 137.432 128.553L134.188 132.92V132.911Z" fill="#92B6DA"/>
</g>
<g opacity="0.5">
<path d="M139.331 141.144C139.331 141.144 139.331 141.178 139.313 141.178L133.687 140.963C133.687 140.963 133.635 140.945 133.627 140.92L131.228 136.148C131.228 136.148 131.228 136.113 131.254 136.113L136.19 136.614C136.19 136.614 136.241 136.631 136.259 136.657L139.339 141.135L139.331 141.144Z" fill="#92B6DA"/>
</g>
<g opacity="0.5">
<path d="M147.597 149.701C147.597 149.701 147.571 149.727 147.563 149.71L143.843 145.481C143.843 145.481 143.818 145.43 143.826 145.412L145.63 140.39C145.63 140.39 145.656 140.365 145.673 140.39L148.702 144.317C148.702 144.317 148.727 144.368 148.719 144.394L147.588 149.718L147.597 149.701Z" fill="#92B6DA"/>
</g>
<g opacity="0.5">
<path d="M144.223 128.13C144.223 128.13 144.189 128.147 144.189 128.13L142.575 122.728C142.575 122.728 142.575 122.676 142.592 122.659L146.329 118.854C146.329 118.854 146.363 118.845 146.372 118.862L147.485 123.695C147.485 123.695 147.485 123.755 147.468 123.772L144.223 128.138V128.13Z" fill="#92B6DA"/>
</g>
<g opacity="0.5">
<path d="M149.366 136.363C149.366 136.363 149.366 136.397 149.349 136.397L143.723 136.181C143.723 136.181 143.671 136.164 143.662 136.138L141.263 131.367C141.263 131.367 141.263 131.332 141.289 131.332L146.225 131.832C146.225 131.832 146.277 131.85 146.294 131.876L149.375 136.354L149.366 136.363Z" fill="#92B6DA"/>
</g>
<g opacity="0.5">
<path d="M157.624 144.912C157.624 144.912 157.598 144.938 157.589 144.921L153.87 140.692C153.87 140.692 153.844 140.641 153.853 140.623L155.657 135.601C155.657 135.601 155.682 135.575 155.7 135.601L158.728 139.527C158.728 139.527 158.754 139.579 158.746 139.605L157.615 144.929L157.624 144.912Z" fill="#92B6DA"/>
</g>
<g opacity="0.5">
<path d="M114.186 175.884C114.186 175.884 114.151 175.901 114.151 175.884L112.538 170.482C112.538 170.482 112.538 170.43 112.555 170.413L116.291 166.608C116.291 166.608 116.326 166.599 116.335 166.616L117.448 171.448C117.448 171.448 117.448 171.509 117.43 171.526L114.186 175.892V175.884Z" fill="#92B6DA"/>
</g>
<g opacity="0.5">
<path d="M119.329 184.128C119.329 184.128 119.329 184.163 119.312 184.163L113.686 183.947C113.686 183.947 113.634 183.93 113.625 183.904L111.226 179.132C111.226 179.132 111.226 179.098 111.252 179.098L116.188 179.598C116.188 179.598 116.24 179.615 116.257 179.641L119.337 184.12L119.329 184.128Z" fill="#92B6DA"/>
</g>
<g opacity="0.5">
<path d="M127.596 192.681C127.596 192.681 127.57 192.707 127.561 192.69L123.842 188.462C123.842 188.462 123.816 188.41 123.825 188.393L125.628 183.371C125.628 183.371 125.654 183.345 125.671 183.371L128.7 187.297C128.7 187.297 128.726 187.349 128.717 187.375L127.587 192.699L127.596 192.681Z" fill="#92B6DA"/>
</g>
<g opacity="0.5">
<path d="M124.213 171.11C124.213 171.11 124.178 171.127 124.178 171.11L122.564 165.709C122.564 165.709 122.564 165.657 122.582 165.64L126.318 161.834C126.318 161.834 126.353 161.826 126.361 161.843L127.474 166.675C127.474 166.675 127.474 166.735 127.457 166.753L124.213 171.119V171.11Z" fill="#92B6DA"/>
</g>
<g opacity="0.5">
<path d="M129.355 179.339C129.355 179.339 129.355 179.374 129.338 179.374L123.712 179.158C123.712 179.158 123.66 179.141 123.652 179.115L121.253 174.343C121.253 174.343 121.253 174.309 121.279 174.309L126.215 174.809C126.215 174.809 126.266 174.826 126.284 174.852L129.364 179.331L129.355 179.339Z" fill="#92B6DA"/>
</g>
<g opacity="0.5">
<path d="M137.622 187.888C137.622 187.888 137.596 187.914 137.588 187.897L133.869 183.669C133.869 183.669 133.843 183.617 133.851 183.6L135.655 178.578C135.655 178.578 135.681 178.552 135.698 178.578L138.727 182.504C138.727 182.504 138.753 182.556 138.744 182.582L137.614 187.906L137.622 187.888Z" fill="#92B6DA"/>
</g>
<g opacity="0.5">
<path d="M106.55 170.463C106.55 170.463 106.524 170.489 106.515 170.471L102.796 166.243C102.796 166.243 102.77 166.191 102.779 166.174L104.582 161.152C104.582 161.152 104.608 161.126 104.625 161.152L107.654 165.078C107.654 165.078 107.68 165.13 107.671 165.156L106.541 170.48L106.55 170.463Z" fill="#92B6DA"/>
</g>
<g opacity="0.5">
<path d="M103.176 148.891C103.176 148.891 103.141 148.909 103.141 148.891L101.528 143.49C101.528 143.49 101.528 143.438 101.545 143.421L105.281 139.615C105.281 139.615 105.316 139.607 105.324 139.624L106.437 144.456C106.437 144.456 106.437 144.517 106.42 144.534L103.176 148.9V148.891Z" fill="#92B6DA"/>
</g>
<g opacity="0.5">
<path d="M108.319 157.12C108.319 157.12 108.319 157.155 108.301 157.155L102.675 156.939C102.675 156.939 102.624 156.922 102.615 156.896L100.216 152.124C100.216 152.124 100.216 152.09 100.242 152.09L105.178 152.59C105.178 152.59 105.229 152.608 105.247 152.633L108.327 157.112L108.319 157.12Z" fill="#92B6DA"/>
</g>
<g opacity="0.5">
<path d="M116.585 165.678C116.585 165.678 116.559 165.703 116.55 165.686L112.831 161.458C112.831 161.458 112.805 161.406 112.814 161.389L114.617 156.367C114.617 156.367 114.643 156.341 114.661 156.367L117.689 160.293C117.689 160.293 117.715 160.345 117.707 160.371L116.576 165.695L116.585 165.678Z" fill="#92B6DA"/>
</g>
<g opacity="0.5">
<path d="M79.5411 88.3416C79.5411 88.3416 79.5153 88.3675 79.5066 88.3502L75.7876 84.1221C75.7876 84.1221 75.7617 84.0703 75.7703 84.053L77.5738 79.031C77.5738 79.031 77.5996 79.0051 77.6169 79.031L80.6457 82.9572C80.6457 82.9572 80.6715 83.009 80.6629 83.0348L79.5325 88.3589L79.5411 88.3416Z" fill="#92B6DA"/>
</g>
<g opacity="0.5">
<path d="M76.1672 66.7587C76.1672 66.7587 76.1326 66.7759 76.1326 66.7587L74.519 61.357C74.519 61.357 74.519 61.3052 74.5363 61.288L78.2726 57.4826C78.2726 57.4826 78.3071 57.474 78.3158 57.4913L79.4289 62.3234C79.4289 62.3234 79.4289 62.3838 79.4116 62.4011L76.1672 66.7673V66.7587Z" fill="#92B6DA"/>
</g>
<g opacity="0.5">
<path d="M81.3098 75.0033C81.3098 75.0033 81.3098 75.0378 81.2926 75.0378L75.6665 74.8221C75.6665 74.8221 75.6147 74.8048 75.6061 74.7789L73.2073 70.0072C73.2073 70.0072 73.2073 69.9727 73.2332 69.9727L78.1689 70.4731C78.1689 70.4731 78.2207 70.4904 78.2379 70.5163L81.3184 74.9947L81.3098 75.0033Z" fill="#92B6DA"/>
</g>
<g opacity="0.5">
<path d="M89.5763 83.5525C89.5763 83.5525 89.5504 83.5784 89.5418 83.5612L85.8227 79.333C85.8227 79.333 85.7968 79.2812 85.8055 79.264L87.6089 74.242C87.6089 74.242 87.6348 74.2161 87.6521 74.242L90.6808 78.1681C90.6808 78.1681 90.7067 78.2199 90.6981 78.2458L89.5677 83.5698L89.5763 83.5525Z" fill="#92B6DA"/>
</g>
<g opacity="0.5">
<path d="M105.971 82.8173C105.971 82.8173 105.937 82.8345 105.937 82.8173L104.323 77.4156C104.323 77.4156 104.323 77.3638 104.341 77.3466L108.077 73.5412C108.077 73.5412 108.111 73.5326 108.12 73.5498L109.233 78.382C109.233 78.382 109.233 78.4424 109.216 78.4597L105.971 82.8259V82.8173Z" fill="#92B6DA"/>
</g>
<g opacity="0.5">
<path d="M111.114 91.0502C111.114 91.0502 111.114 91.0847 111.097 91.0847L105.471 90.869C105.471 90.869 105.419 90.8517 105.411 90.8258L103.012 86.0541C103.012 86.0541 103.012 86.0195 103.038 86.0195L107.973 86.52C107.973 86.52 108.025 86.5373 108.042 86.5632L111.123 91.0415L111.114 91.0502Z" fill="#92B6DA"/>
</g>
<g opacity="0.5">
<path d="M119.381 99.6111C119.381 99.6111 119.355 99.637 119.346 99.6198L115.627 95.3916C115.627 95.3916 115.601 95.3398 115.61 95.3226L117.413 90.3006C117.413 90.3006 117.439 90.2747 117.456 90.3006L120.485 94.2267C120.485 94.2267 120.511 94.2785 120.502 94.3044L119.372 99.6284L119.381 99.6111Z" fill="#92B6DA"/>
</g>
<g opacity="0.5">
<path d="M116.007 78.0282C116.007 78.0282 115.972 78.0455 115.972 78.0282L114.359 72.6265C114.359 72.6265 114.359 72.5748 114.376 72.5575L118.112 68.7522C118.112 68.7522 118.147 68.7435 118.155 68.7608L119.268 73.593C119.268 73.593 119.268 73.6534 119.251 73.6706L116.007 78.0368V78.0282Z" fill="#92B6DA"/>
</g>
<g opacity="0.5">
<path d="M121.15 86.2689C121.15 86.2689 121.15 86.3034 121.132 86.3034L115.506 86.0877C115.506 86.0877 115.455 86.0704 115.446 86.0446L113.047 81.2728C113.047 81.2728 113.047 81.2383 113.073 81.2383L118.009 81.7388C118.009 81.7388 118.061 81.756 118.078 81.7819L121.158 86.2603L121.15 86.2689Z" fill="#92B6DA"/>
</g>
<g opacity="0.5">
<path d="M129.408 94.8221C129.408 94.8221 129.382 94.848 129.373 94.8307L125.654 90.6025C125.654 90.6025 125.628 90.5508 125.637 90.5335L127.44 85.5115C127.44 85.5115 127.466 85.4856 127.483 85.5115L130.512 89.4376C130.512 89.4376 130.538 89.4894 130.529 89.5153L129.399 94.8393L129.408 94.8221Z" fill="#92B6DA"/>
</g>
<g opacity="0.5">
<path d="M85.4518 93.2001C85.4518 93.2001 85.4173 93.2173 85.4173 93.2001L83.8037 87.7984C83.8037 87.7984 83.8037 87.7466 83.821 87.7294L87.5573 83.924C87.5573 83.924 87.5918 83.9154 87.6004 83.9327L88.7136 88.7648C88.7136 88.7648 88.7136 88.8252 88.6963 88.8425L85.4518 93.2087V93.2001Z" fill="#92B6DA"/>
</g>
<g opacity="0.5">
<path d="M98.8612 109.994C98.8612 109.994 98.8353 110.02 98.8267 110.003L95.1076 105.774C95.1076 105.774 95.0818 105.723 95.0904 105.705L96.8938 100.683C96.8938 100.683 96.9197 100.657 96.937 100.683L99.9657 104.61C99.9657 104.61 99.9916 104.661 99.983 104.687L98.8526 110.011L98.8612 109.994Z" fill="#92B6DA"/>
</g>
<g opacity="0.5">
<path d="M95.4787 88.4188C95.4787 88.4188 95.4442 88.4361 95.4442 88.4188L93.8306 83.0172C93.8306 83.0172 93.8306 82.9654 93.8478 82.9481L97.5841 79.1428C97.5841 79.1428 97.6186 79.1342 97.6273 79.1514L98.7404 83.9836C98.7404 83.9836 98.7404 84.044 98.7232 84.0612L95.4787 88.4275V88.4188Z" fill="#92B6DA"/>
</g>
<g opacity="0.5">
<path d="M100.63 96.6517C100.63 96.6517 100.63 96.6862 100.613 96.6862L94.9868 96.4705C94.9868 96.4705 94.935 96.4533 94.9264 96.4274L92.5276 91.6556C92.5276 91.6556 92.5276 91.6211 92.5535 91.6211L97.4892 92.1216C97.4892 92.1216 97.541 92.1388 97.5582 92.1647L100.639 96.6431L100.63 96.6517Z" fill="#92B6DA"/>
</g>
<g opacity="0.5">
<path d="M108.888 105.205C108.888 105.205 108.862 105.231 108.854 105.214L105.134 100.985C105.134 100.985 105.109 100.934 105.117 100.916L106.921 95.8943C106.921 95.8943 106.947 95.8684 106.964 95.8943L109.993 99.8205C109.993 99.8205 110.018 99.8722 110.01 99.8981L108.879 105.222L108.888 105.205Z" fill="#92B6DA"/>
</g>
<g opacity="0.5">
<path d="M91.2158 67.4838C91.2158 67.4838 91.2158 67.5183 91.1986 67.5183L85.5725 67.3026C85.5725 67.3026 85.5207 67.2853 85.5121 67.2594L83.1133 62.4876C83.1133 62.4876 83.1133 62.4531 83.1392 62.4531L88.0749 62.9536C88.0749 62.9536 88.1267 62.9709 88.1439 62.9967L91.2244 67.4751L91.2158 67.4838Z" fill="#92B6DA"/>
</g>
<g opacity="0.5">
<path d="M99.4823 76.0369C99.4823 76.0369 99.4564 76.0628 99.4478 76.0455L95.7287 71.8174C95.7287 71.8174 95.7028 71.7656 95.7115 71.7484L97.5149 66.7263C97.5149 66.7263 97.5408 66.7005 97.5581 66.7263L100.587 70.6525C100.587 70.6525 100.613 70.7043 100.604 70.7302L99.4737 76.0542L99.4823 76.0369Z" fill="#92B6DA"/>
</g>
<g opacity="0.5">
<path d="M101.251 62.7064C101.251 62.7064 101.251 62.7409 101.234 62.7409L95.6079 62.5252C95.6079 62.5252 95.5561 62.508 95.5475 62.4821L93.1487 57.7103C93.1487 57.7103 93.1487 57.6758 93.1746 57.6758L98.1103 58.1763C98.1103 58.1763 98.1621 58.1935 98.1793 58.2194L101.26 62.6978L101.251 62.7064Z" fill="#92B6DA"/>
</g>
<g opacity="0.5">
<path d="M109.509 71.2557C109.509 71.2557 109.484 71.2815 109.475 71.2643L105.756 67.0361C105.756 67.0361 105.73 66.9844 105.739 66.9671L107.542 61.9451C107.542 61.9451 107.568 61.9192 107.585 61.9451L110.614 65.8712C110.614 65.8712 110.64 65.923 110.631 65.9489L109.501 71.2729L109.509 71.2557Z" fill="#92B6DA"/>
</g>
<g opacity="0.5">
<path d="M99.2064 144.049C99.2064 144.049 99.1805 144.075 99.1719 144.057L95.4528 139.829C95.4528 139.829 95.427 139.777 95.4356 139.76L97.239 134.738C97.239 134.738 97.2649 134.712 97.2822 134.738L100.311 138.664C100.311 138.664 100.337 138.716 100.328 138.742L99.1978 144.066L99.2064 144.049Z" fill="#92B6DA"/>
</g>
<g opacity="0.5">
<path d="M95.8324 122.477C95.8324 122.477 95.7979 122.495 95.7979 122.477L94.1843 117.076C94.1843 117.076 94.1843 117.024 94.2016 117.007L97.9379 113.201C97.9379 113.201 97.9724 113.193 97.981 113.21L99.0942 118.042C99.0942 118.042 99.0942 118.103 99.0769 118.12L95.8324 122.486V122.477Z" fill="#92B6DA"/>
</g>
<g opacity="0.5">
<path d="M100.975 130.71C100.975 130.71 100.975 130.745 100.958 130.745L95.332 130.529C95.332 130.529 95.2803 130.512 95.2716 130.486L92.8728 125.714C92.8728 125.714 92.8728 125.68 92.8987 125.68L97.8344 126.18C97.8344 126.18 97.8862 126.197 97.9035 126.223L100.984 130.702L100.975 130.71Z" fill="#92B6DA"/>
</g>
<g opacity="0.5">
<path d="M109.242 139.26C109.242 139.26 109.216 139.285 109.207 139.268L105.488 135.04C105.488 135.04 105.462 134.988 105.471 134.971L107.274 129.949C107.274 129.949 107.3 129.923 107.317 129.949L110.346 133.875C110.346 133.875 110.372 133.927 110.363 133.953L109.233 139.277L109.242 139.26Z" fill="#92B6DA"/>
</g>
<g opacity="0.5">
<path d="M106.161 117.231C106.161 117.231 106.127 117.249 106.127 117.231L104.513 111.83C104.513 111.83 104.513 111.778 104.53 111.761L108.267 107.955C108.267 107.955 108.301 107.947 108.31 107.964L109.423 112.796C109.423 112.796 109.423 112.856 109.406 112.874L106.161 117.24V117.231Z" fill="#92B6DA"/>
</g>
<g opacity="0.5">
<path d="M111.304 125.464C111.304 125.464 111.304 125.499 111.287 125.499L105.661 125.283C105.661 125.283 105.609 125.266 105.6 125.24L103.201 120.468C103.201 120.468 103.201 120.434 103.227 120.434L108.163 120.934C108.163 120.934 108.215 120.951 108.232 120.977L111.313 125.456L111.304 125.464Z" fill="#92B6DA"/>
</g>
<g opacity="0.5">
<path d="M119.57 134.017C119.57 134.017 119.545 134.043 119.536 134.026L115.817 129.798C115.817 129.798 115.791 129.746 115.8 129.729L117.603 124.707C117.603 124.707 117.629 124.681 117.646 124.707L120.675 128.633C120.675 128.633 120.701 128.685 120.692 128.711L119.562 134.035L119.57 134.017Z" fill="#92B6DA"/>
</g>
<g opacity="0.5">
<path d="M116.188 112.442C116.188 112.442 116.153 112.46 116.153 112.442L114.54 107.041C114.54 107.041 114.54 106.989 114.557 106.972L118.293 103.166C118.293 103.166 118.328 103.158 118.337 103.175L119.45 108.007C119.45 108.007 119.45 108.067 119.432 108.085L116.188 112.451V112.442Z" fill="#92B6DA"/>
</g>
<g opacity="0.5">
<path d="M121.339 120.675C121.339 120.675 121.339 120.71 121.322 120.71L115.696 120.494C115.696 120.494 115.644 120.477 115.636 120.451L113.237 115.679C113.237 115.679 113.237 115.645 113.263 115.645L118.198 116.145C118.198 116.145 118.25 116.162 118.267 116.188L121.348 120.667L121.339 120.675Z" fill="#92B6DA"/>
</g>
<g opacity="0.5">
<path d="M129.598 129.236C129.598 129.236 129.572 129.262 129.563 129.245L125.844 125.017C125.844 125.017 125.818 124.965 125.827 124.948L127.63 119.926C127.63 119.926 127.656 119.9 127.673 119.926L130.702 123.852C130.702 123.852 130.728 123.903 130.719 123.929L129.589 129.253L129.598 129.236Z" fill="#92B6DA"/>
</g>
<g opacity="0.5">
<path d="M126.413 107.067C126.413 107.067 126.378 107.085 126.378 107.067L124.765 101.666C124.765 101.666 124.765 101.614 124.782 101.597L128.518 97.7912C128.518 97.7912 128.553 97.7826 128.562 97.7999L129.675 102.632C129.675 102.632 129.675 102.692 129.657 102.71L126.413 107.076V107.067Z" fill="#92B6DA"/>
</g>
<g opacity="0.5">
<path d="M131.556 115.292C131.556 115.292 131.556 115.327 131.539 115.327L125.913 115.111C125.913 115.111 125.861 115.094 125.852 115.068L123.454 110.296C123.454 110.296 123.454 110.262 123.479 110.262L128.415 110.762C128.415 110.762 128.467 110.779 128.484 110.805L131.565 115.284L131.556 115.292Z" fill="#92B6DA"/>
</g>
<g opacity="0.5">
<path d="M139.822 123.849C139.822 123.849 139.796 123.875 139.788 123.858L136.069 119.63C136.069 119.63 136.043 119.578 136.052 119.561L137.855 114.539C137.855 114.539 137.881 114.513 137.898 114.539L140.927 118.465C140.927 118.465 140.953 118.517 140.944 118.543L139.814 123.867L139.822 123.849Z" fill="#92B6DA"/>
</g>
<g opacity="0.5">
<path d="M136.44 102.278C136.44 102.278 136.405 102.295 136.405 102.278L134.792 96.8765C134.792 96.8765 134.792 96.8248 134.809 96.8075L138.545 93.0022C138.545 93.0022 138.58 92.9935 138.588 93.0108L139.702 97.843C139.702 97.843 139.702 97.9034 139.684 97.9206L136.44 102.287V102.278Z" fill="#92B6DA"/>
</g>
<g opacity="0.5">
<path d="M141.592 110.507C141.592 110.507 141.592 110.542 141.574 110.542L135.948 110.326C135.948 110.326 135.896 110.309 135.888 110.283L133.489 105.511C133.489 105.511 133.489 105.477 133.515 105.477L138.451 105.977C138.451 105.977 138.502 105.994 138.52 106.02L141.6 110.499L141.592 110.507Z" fill="#92B6DA"/>
</g>
<g opacity="0.5">
<path d="M149.849 119.072C149.849 119.072 149.823 119.098 149.815 119.081L146.096 114.853C146.096 114.853 146.07 114.801 146.078 114.784L147.882 109.762C147.882 109.762 147.908 109.736 147.925 109.762L150.954 113.688C150.954 113.688 150.98 113.739 150.971 113.765L149.841 119.089L149.849 119.072Z" fill="#92B6DA"/>
</g>
</g>
<mask id="mask0_180_21688" style="mask-type:alpha" maskUnits="userSpaceOnUse" x="0" y="411" width="340" height="167">
<path d="M338.615 577.408H220.305L197.11 555.896L196.357 555.198L196.271 556.222L194.502 577.408H136.438L128.715 570.244L127.964 569.548L127.877 570.568L127.291 577.408H110.761L106.511 569.158L106.247 568.647L105.778 568.979L93.8291 577.408H78.2979L63.4375 548.665L62.6396 547.123L62.4951 548.853L60.1006 577.408H45.2559L17.0996 564.032L16.4473 563.722L16.3867 564.442L15.3076 577.408H0.5V418.496C16.0939 422.477 35.5413 425.839 57.7754 428.378C60.4808 428.709 63.2381 429.007 66.0469 429.286L79.8594 440.463L80.6738 441.122V430.634C84.0795 430.93 87.5504 431.196 91.0596 431.438L124.554 458.544L125.369 459.203V433.169C136.182 433.538 147.321 433.711 158.661 433.711H161.491L169.086 458.294L170.063 458.146V433.644C174.445 433.606 178.794 433.529 183.083 433.409L183.084 433.41C186.066 433.348 189.005 433.268 191.933 433.17L191.932 433.169C197.695 432.986 203.385 432.751 208.979 432.457L213.844 440.328L214.142 440.812L214.583 440.454L225.681 431.473C230.935 431.102 236.066 430.689 241.113 430.242L258.527 458.418L259.452 459.915V428.398C263.103 427.983 266.684 427.537 270.204 427.082L303.46 440.538L304.147 440.816V421.433C309.791 420.252 315.041 419.013 319.889 417.7L325.674 422.383L325.979 422.005L326.292 422.392L326.304 422.383L326.783 421.994L326.782 421.993L338.615 412.419V577.408Z" fill="#C59B6D" stroke="#C59B6D"/>
</mask>
<g mask="url(#mask0_180_21688)">
<path d="M83.3899 78.1865L83.4503 85.3054C83.5107 92.6744 88.2393 98.6025 94.0034 98.5507L99.4569 98.4989C104.203 98.4558 108.371 102.503 109.639 108.344C113.254 125.007 119.562 161.904 118.648 213.28C117.44 281.224 91.3198 337.286 87.7992 343.421C87.6094 343.758 87.4368 344.086 87.2729 344.439L11.537 461.818C10.7691 463.043 7.66266 471.344 7.26573 472.828C6.54953 475.538 6.5409 478.506 7.26573 481.268C15.1784 511.469 64.1302 674.926 120.779 676.677C201.545 679.18 237.528 679.162 244.267 675.098C245.061 674.624 245.777 674.037 246.45 673.321C255.976 663.225 320.978 569.308 333.498 473.916C333.887 470.939 333.024 467.927 331.678 465.442C309.407 424.291 263.604 374.313 245.863 335.819C227.527 296.049 216.076 235.094 215.887 213.315C215.74 196.342 215.947 135.198 216.801 109.035C217.026 102.209 221.254 96.73 226.595 96.3417C232.782 95.893 237.994 89.0417 238.166 81.1203L238.227 78.385C238.391 70.852 233.636 64.6133 227.743 64.6133L93.7877 64.7341C87.9977 64.7341 83.3381 70.7657 83.4071 78.1693L83.3899 78.1865Z" fill="#C59B6D" stroke="#C59B6D" stroke-width="9" stroke-miterlimit="10"/>
</g>
<path d="M151.898 560.243C145.265 561.434 139.915 558.025 138.816 551.556C136.547 538.155 142.225 524.826 148.664 512.309C138.241 500.582 123.968 486.484 127.038 471.029C135.304 457.711 161.315 468 175.198 475.424C183.32 466.511 192.367 459.138 203.324 454.6C207.441 452.895 211.949 452.361 216.077 454.086C221.16 456.838 222.495 462.168 222.29 467.764C221.858 479.645 217.391 490.632 211.744 501.619C221.766 511.744 233.944 525.032 234.129 538.956C233.811 543.721 230.946 546.76 226.479 547.972C213.428 551.514 197.799 544.059 185.138 538.391C176.214 547.849 164.252 558.014 151.888 560.243H151.898Z" fill="#603813"/>
<rect x="94.2354" y="577.738" width="16.0778" height="0.203194" fill="#215523"/>
<rect x="94.4504" y="577.609" width="15.8178" height="0.273531" fill="#215523"/>
<line y1="-0.5" x2="0.357321" y2="-0.5" transform="matrix(0.898794 -0.438371 0.465074 0.885272 110.254 578.289)" stroke="#215523"/>
<line y1="-0.5" x2="0.349388" y2="-0.5" transform="matrix(-0.572058 -0.820213 0.8416 -0.540102 94.6465 577.871)" stroke="#215523"/>
</svg>
