<svg width="340" height="683" viewBox="0 0 340 683" fill="none" xmlns="http://www.w3.org/2000/svg">
<path d="M83.8735 77.7957L83.9339 84.9145C83.9943 92.2835 88.723 98.2115 94.4872 98.1597L99.9407 98.1079C104.687 98.0648 108.854 102.112 110.123 107.953C113.739 124.616 120.046 161.512 119.132 212.888C117.924 280.831 91.8036 336.893 88.2829 343.028C88.0931 343.364 87.9205 343.692 87.7566 344.046L12.0198 461.423C11.2518 462.649 8.14534 470.949 7.7484 472.434C7.0322 475.143 7.02357 478.111 7.7484 480.873C15.6612 511.073 64.6136 674.529 121.263 676.28C202.031 678.782 238.014 678.765 244.753 674.701C245.547 674.226 246.263 673.64 246.936 672.924C256.462 662.828 321.465 568.912 333.985 473.521C334.374 470.544 333.511 467.532 332.165 465.047C309.893 423.897 264.09 373.919 246.349 335.426C228.012 295.656 216.562 234.702 216.372 212.923C216.225 195.95 216.432 134.806 217.287 108.644C217.511 101.818 221.739 96.339 227.081 95.9507C233.268 95.502 238.479 88.6508 238.652 80.7295L238.712 77.9942C238.876 70.4613 234.122 64.2227 228.228 64.2227L94.2715 64.3435C88.4814 64.3435 83.8217 70.375 83.8908 77.7785L83.8735 77.7957Z" fill="#DCD6CB" stroke="#DCD6CB" stroke-width="9" stroke-miterlimit="10"/>
<path d="M127.122 59.2259V43.9184C118.183 43.9184 110.995 37.9042 111.185 30.587L111.452 20.4568C111.711 10.4474 121.729 2.44848 133.957 2.50025L192.72 2.58654C203.86 2.6038 212.903 9.96416 213.007 19.0848L213.136 31.4412C213.214 38.629 206.285 44.5484 197.518 44.79V59.4158L127.122 59.2346V59.2259Z" fill="#CDB43A" stroke="#CDB43A" stroke-width="5" stroke-miterlimit="10"/>
<path d="M116.793 120.543C124.818 148.103 128.149 176.889 128.788 205.537C130.315 277.32 109.64 350.449 65.2438 407.468C56.4077 418.789 46.8467 429.514 36.5178 439.429C46.1564 428.85 55.2428 417.796 63.5439 406.208C71.776 394.619 79.3781 382.47 86.0224 369.906C126.061 294.655 134.354 203.353 116.793 120.543Z" fill="#E2E3E2"/>
<path d="M304.147 435.94C225.89 366.271 194.256 262.061 209.003 159.586C211.126 145.288 213.905 131.033 218.314 117.262C217.399 120.756 216.64 124.277 215.932 127.815C211.031 152.51 208.865 177.758 208.96 202.902C209.305 291.839 241.258 372.708 304.147 435.94Z" fill="#E2E3E2"/>
<path d="M90.061 653.07C136.2 662.89 185.058 668.861 231.603 658.774C238.23 657.255 244.753 655.305 251.234 653.07C245.124 656.177 238.713 658.705 232.155 660.819C187.94 674.185 133.249 668.179 90.061 653.07Z" fill="#E2E3E2"/>
<path d="M22.9444 460.977C21.1496 469.847 19.6655 478.64 21.9521 487.484C22.2024 488.839 22.6942 490.047 22.9444 491.428C22.4008 490.987 21.9003 490.504 21.3999 490.004C13.9273 482.143 15.3338 468.259 22.9444 460.977Z" fill="#E2E3E2"/>
<path d="M316.495 489.151C317.099 486.597 317.901 484.051 318.221 481.446C319.006 476.441 318.678 471.574 317.91 466.552C317.513 464.015 317.021 461.444 316.495 458.691C324.649 466.423 325.598 481.765 316.495 489.142V489.151Z" fill="#E2E3E2"/>
<path d="M95.2385 403.541C95.2385 403.541 148.1 341.889 216.787 402.161C285.474 462.433 95.2385 403.541 95.2385 403.541Z" fill="#866893"/>
<path d="M38.6664 493.194C44.9656 523.05 60.4029 587.576 82.5795 622.877C87.567 630.824 95.3418 641.359 104.152 643.094C141.179 650.385 203.679 647.132 233.052 645.009C243.847 644.233 253.624 632.86 259.241 622.98C271.356 601.693 291.427 558.376 301.981 491.167C303.318 482.65 301.774 473.892 297.537 466.54C280.339 436.684 256.385 407.001 236.003 388.035C230.645 383.048 223.966 379.855 216.864 379.329C208.019 378.673 198.424 380.761 188.975 383.255C173.219 387.423 157.082 389.727 140.851 390.011C121.289 390.356 102.581 397.234 87.1701 409.288C79.4126 415.354 72.4922 422.732 66.7193 431.248L44.1976 464.452C38.5715 472.744 36.561 483.202 38.6664 493.186V493.194Z" fill="#511E68"/>
<g opacity="0.5">
<g opacity="0.5">
<path d="M153.268 271.805C153.268 271.805 153.303 271.805 153.294 271.831L151.499 277.172C151.499 277.172 151.465 277.215 151.439 277.224L146.184 278.181C146.184 278.181 146.149 278.173 146.158 278.147L148.039 273.556C148.039 273.556 148.073 273.513 148.099 273.505L153.268 271.813V271.805Z" fill="#92B6DA"/>
</g>
<g opacity="0.5">
<path d="M153.821 262.116C153.821 262.116 153.838 262.081 153.855 262.099L158.325 265.524C158.325 265.524 158.36 265.567 158.351 265.593L157.557 270.874C157.557 270.874 157.54 270.9 157.514 270.891L153.778 267.63C153.778 267.63 153.743 267.578 153.743 267.561L153.812 262.124L153.821 262.116Z" fill="#92B6DA"/>
</g>
<g opacity="0.5">
<path d="M152 250.365C152 250.365 152.034 250.356 152.034 250.382L152.63 255.982C152.63 255.982 152.621 256.034 152.595 256.051L148.22 259.114C148.22 259.114 148.186 259.114 148.186 259.097L147.979 254.144C147.979 254.144 147.987 254.084 148.005 254.075L151.991 250.382L152 250.365Z" fill="#92B6DA"/>
</g>
<g opacity="0.5">
<path d="M142.318 269.926C142.318 269.926 142.353 269.926 142.344 269.952L140.549 275.293C140.549 275.293 140.515 275.336 140.489 275.345L135.234 276.302C135.234 276.302 135.199 276.294 135.208 276.268L137.089 271.677C137.089 271.677 137.124 271.634 137.149 271.626L142.318 269.934V269.926Z" fill="#92B6DA"/>
</g>
<g opacity="0.5">
<path d="M142.862 260.237C142.862 260.237 142.879 260.202 142.896 260.22L147.366 263.645C147.366 263.645 147.401 263.688 147.392 263.714L146.598 268.995C146.598 268.995 146.581 269.021 146.555 269.012L142.819 265.751C142.819 265.751 142.784 265.699 142.784 265.682L142.853 260.246L142.862 260.237Z" fill="#92B6DA"/>
</g>
<g opacity="0.5">
<path d="M141.05 248.482C141.05 248.482 141.084 248.473 141.084 248.499L141.679 254.099C141.679 254.099 141.671 254.151 141.645 254.168L137.27 257.231C137.27 257.231 137.236 257.231 137.236 257.214L137.029 252.261C137.029 252.261 137.037 252.201 137.054 252.192L141.041 248.499L141.05 248.482Z" fill="#92B6DA"/>
</g>
<g opacity="0.5">
<path d="M127.234 239.625C127.234 239.625 127.269 239.625 127.26 239.651L125.465 244.992C125.465 244.992 125.431 245.035 125.405 245.044L120.15 246.002C120.15 246.002 120.116 245.993 120.124 245.967L122.005 241.377C122.005 241.377 122.04 241.334 122.066 241.325L127.234 239.634V239.625Z" fill="#92B6DA"/>
</g>
<g opacity="0.5">
<path d="M127.787 229.924C127.787 229.924 127.804 229.89 127.821 229.907L132.291 233.333C132.291 233.333 132.326 233.376 132.317 233.402L131.523 238.683C131.523 238.683 131.506 238.709 131.48 238.7L127.744 235.438C127.744 235.438 127.709 235.386 127.709 235.369L127.778 229.933L127.787 229.924Z" fill="#92B6DA"/>
</g>
<g opacity="0.5">
<path d="M125.966 218.169C125.966 218.169 126 218.161 126 218.187L126.596 223.787C126.596 223.787 126.587 223.838 126.561 223.856L122.186 226.919C122.186 226.919 122.152 226.919 122.152 226.902L121.945 221.949C121.945 221.949 121.953 221.888 121.971 221.88L125.957 218.187L125.966 218.169Z" fill="#92B6DA"/>
</g>
<g opacity="0.5">
<path d="M116.284 237.742C116.284 237.742 116.319 237.742 116.31 237.768L114.515 243.109C114.515 243.109 114.481 243.152 114.455 243.161L109.2 244.119C109.2 244.119 109.165 244.11 109.174 244.084L111.055 239.494C111.055 239.494 111.09 239.451 111.115 239.442L116.284 237.751V237.742Z" fill="#92B6DA"/>
</g>
<g opacity="0.5">
<path d="M116.828 228.049C116.828 228.049 116.845 228.015 116.862 228.032L121.332 231.458C121.332 231.458 121.366 231.501 121.358 231.527L120.564 236.808C120.564 236.808 120.547 236.834 120.521 236.825L116.785 233.563C116.785 233.563 116.75 233.511 116.75 233.494L116.819 228.058L116.828 228.049Z" fill="#92B6DA"/>
</g>
<g opacity="0.5">
<path d="M115.016 216.29C115.016 216.29 115.05 216.282 115.05 216.308L115.646 221.908C115.646 221.908 115.637 221.96 115.611 221.977L111.236 225.04C111.236 225.04 111.202 225.04 111.202 225.023L110.995 220.07C110.995 220.07 111.003 220.009 111.021 220.001L115.007 216.308L115.016 216.29Z" fill="#92B6DA"/>
</g>
<g opacity="0.5">
<path d="M149.989 242.977C149.989 242.977 150.024 242.977 150.015 243.002L148.22 248.344C148.22 248.344 148.186 248.387 148.16 248.395L142.905 249.353C142.905 249.353 142.87 249.345 142.879 249.319L144.76 244.728C144.76 244.728 144.795 244.685 144.821 244.676L149.989 242.985V242.977Z" fill="#92B6DA"/>
</g>
<g opacity="0.5">
<path d="M150.533 233.288C150.533 233.288 150.55 233.253 150.568 233.27L155.037 236.696C155.037 236.696 155.072 236.739 155.063 236.765L154.269 242.046C154.269 242.046 154.252 242.072 154.226 242.063L150.49 238.802C150.49 238.802 150.455 238.75 150.455 238.732L150.524 233.296L150.533 233.288Z" fill="#92B6DA"/>
</g>
<g opacity="0.5">
<path d="M148.721 221.533C148.721 221.533 148.755 221.524 148.755 221.55L149.351 227.15C149.351 227.15 149.342 227.202 149.316 227.219L144.942 230.282C144.942 230.282 144.907 230.282 144.907 230.265L144.7 225.312C144.7 225.312 144.709 225.252 144.726 225.243L148.712 221.55L148.721 221.533Z" fill="#92B6DA"/>
</g>
<g opacity="0.5">
<path d="M139.03 241.105C139.03 241.105 139.065 241.105 139.056 241.131L137.261 246.473C137.261 246.473 137.227 246.516 137.201 246.524L131.946 247.482C131.946 247.482 131.911 247.473 131.92 247.448L133.801 242.857C133.801 242.857 133.836 242.814 133.862 242.805L139.03 241.114V241.105Z" fill="#92B6DA"/>
</g>
<g opacity="0.5">
<path d="M139.583 231.409C139.583 231.409 139.6 231.374 139.617 231.392L144.087 234.817C144.087 234.817 144.122 234.86 144.113 234.886L143.319 240.167C143.319 240.167 143.302 240.193 143.276 240.184L139.54 236.923C139.54 236.923 139.505 236.871 139.505 236.854L139.574 231.417L139.583 231.409Z" fill="#92B6DA"/>
</g>
<g opacity="0.5">
<path d="M137.771 219.654C137.771 219.654 137.805 219.645 137.805 219.671L138.4 225.271C138.4 225.271 138.392 225.323 138.366 225.34L133.991 228.403C133.991 228.403 133.957 228.403 133.957 228.386L133.75 223.433C133.75 223.433 133.758 223.373 133.775 223.364L137.762 219.671L137.771 219.654Z" fill="#92B6DA"/>
</g>
<g opacity="0.5">
<path d="M129.892 270.352C129.892 270.352 129.927 270.352 129.918 270.377L128.123 275.719C128.123 275.719 128.089 275.762 128.063 275.77L122.808 276.728C122.808 276.728 122.774 276.72 122.782 276.694L124.663 272.103C124.663 272.103 124.698 272.06 124.724 272.051L129.892 270.36V270.352Z" fill="#92B6DA"/>
</g>
<g opacity="0.5">
<path d="M130.436 260.663C130.436 260.663 130.453 260.628 130.471 260.645L134.94 264.071C134.94 264.071 134.975 264.114 134.966 264.14L134.172 269.421C134.172 269.421 134.155 269.447 134.129 269.438L130.393 266.177C130.393 266.177 130.358 266.125 130.358 266.107L130.427 260.671L130.436 260.663Z" fill="#92B6DA"/>
</g>
<g opacity="0.5">
<path d="M128.624 248.9C128.624 248.9 128.658 248.891 128.658 248.917L129.254 254.517C129.254 254.517 129.245 254.569 129.219 254.586L124.844 257.649C124.844 257.649 124.81 257.649 124.81 257.632L124.603 252.679C124.603 252.679 124.611 252.619 124.629 252.61L128.615 248.917L128.624 248.9Z" fill="#92B6DA"/>
</g>
<g opacity="0.5">
<path d="M118.933 268.469C118.933 268.469 118.968 268.469 118.959 268.495L117.164 273.836C117.164 273.836 117.13 273.879 117.104 273.888L111.849 274.845C111.849 274.845 111.815 274.837 111.823 274.811L113.704 270.22C113.704 270.22 113.739 270.177 113.765 270.169L118.933 268.477V268.469Z" fill="#92B6DA"/>
</g>
<g opacity="0.5">
<path d="M119.486 258.78C119.486 258.78 119.503 258.745 119.52 258.763L123.99 262.188C123.99 262.188 124.024 262.231 124.016 262.257L123.222 267.538C123.222 267.538 123.205 267.564 123.179 267.555L119.442 264.294C119.442 264.294 119.408 264.242 119.408 264.225L119.477 258.789L119.486 258.78Z" fill="#92B6DA"/>
</g>
<g opacity="0.5">
<path d="M117.674 247.025C117.674 247.025 117.708 247.016 117.708 247.042L118.304 252.642C118.304 252.642 118.295 252.694 118.269 252.711L113.894 255.774C113.894 255.774 113.86 255.774 113.86 255.757L113.653 250.804C113.653 250.804 113.661 250.744 113.678 250.735L117.665 247.042L117.674 247.025Z" fill="#92B6DA"/>
</g>
<g opacity="0.5">
<path d="M171.027 246.781C171.027 246.781 171.061 246.781 171.052 246.807L169.258 252.148C169.258 252.148 169.223 252.192 169.197 252.2L163.942 253.158C163.942 253.158 163.908 253.149 163.916 253.123L165.798 248.533C165.798 248.533 165.832 248.49 165.858 248.481L171.027 246.79V246.781Z" fill="#92B6DA"/>
</g>
<g opacity="0.5">
<path d="M171.579 237.092C171.579 237.092 171.597 237.058 171.614 237.075L176.084 240.501C176.084 240.501 176.118 240.544 176.109 240.57L175.316 245.851C175.316 245.851 175.298 245.877 175.272 245.868L171.536 242.606C171.536 242.606 171.502 242.554 171.502 242.537L171.571 237.101L171.579 237.092Z" fill="#92B6DA"/>
</g>
<g opacity="0.5">
<path d="M169.767 225.341C169.767 225.341 169.801 225.333 169.801 225.358L170.397 230.959C170.397 230.959 170.388 231.01 170.362 231.028L165.987 234.091C165.987 234.091 165.953 234.091 165.953 234.074L165.746 229.121C165.746 229.121 165.754 229.06 165.771 229.052L169.758 225.358L169.767 225.341Z" fill="#92B6DA"/>
</g>
<g opacity="0.5">
<path d="M160.077 244.91C160.077 244.91 160.111 244.91 160.103 244.936L158.308 250.277C158.308 250.277 158.273 250.32 158.247 250.329L152.992 251.287C152.992 251.287 152.958 251.278 152.966 251.252L154.848 246.662C154.848 246.662 154.882 246.619 154.908 246.61L160.077 244.919V244.91Z" fill="#92B6DA"/>
</g>
<g opacity="0.5">
<path d="M160.62 235.213C160.62 235.213 160.637 235.179 160.655 235.196L165.124 238.622C165.124 238.622 165.159 238.665 165.15 238.691L164.356 243.972C164.356 243.972 164.339 243.998 164.313 243.989L160.577 240.727C160.577 240.727 160.542 240.676 160.542 240.658L160.612 235.222L160.62 235.213Z" fill="#92B6DA"/>
</g>
<g opacity="0.5">
<path d="M158.808 223.458C158.808 223.458 158.843 223.45 158.843 223.476L159.438 229.076C159.438 229.076 159.429 229.128 159.404 229.145L155.029 232.208C155.029 232.208 154.994 232.208 154.994 232.191L154.787 227.238C154.787 227.238 154.796 227.177 154.813 227.169L158.799 223.476L158.808 223.458Z" fill="#92B6DA"/>
</g>
<g opacity="0.5">
<path d="M174.133 255.63C174.133 255.63 174.168 255.622 174.168 255.648L174.763 261.248C174.763 261.248 174.755 261.299 174.729 261.317L170.354 264.38C170.354 264.38 170.319 264.38 170.319 264.363L170.112 259.41C170.112 259.41 170.121 259.349 170.138 259.341L174.125 255.648L174.133 255.63Z" fill="#92B6DA"/>
</g>
<g opacity="0.5">
<path d="M164.443 275.191C164.443 275.191 164.477 275.191 164.469 275.217L162.674 280.559C162.674 280.559 162.639 280.602 162.614 280.61L157.359 281.568C157.359 281.568 157.324 281.559 157.333 281.534L159.214 276.943C159.214 276.943 159.248 276.9 159.274 276.891L164.443 275.2V275.191Z" fill="#92B6DA"/>
</g>
<g opacity="0.5">
<path d="M164.986 265.503C164.986 265.503 165.004 265.468 165.021 265.485L169.491 268.911C169.491 268.911 169.525 268.954 169.516 268.98L168.723 274.261C168.723 274.261 168.705 274.287 168.679 274.278L164.943 271.016C164.943 271.016 164.909 270.965 164.909 270.947L164.978 265.511L164.986 265.503Z" fill="#92B6DA"/>
</g>
<g opacity="0.5">
<path d="M163.174 253.747C163.174 253.747 163.209 253.739 163.209 253.765L163.804 259.365C163.804 259.365 163.796 259.417 163.77 259.434L159.395 262.497C159.395 262.497 159.36 262.497 159.36 262.48L159.153 257.527C159.153 257.527 159.162 257.466 159.179 257.458L163.166 253.765L163.174 253.747Z" fill="#92B6DA"/>
</g>
<g opacity="0.5">
<path d="M169.353 214.961C169.353 214.961 169.387 214.961 169.379 214.987L167.584 220.328C167.584 220.328 167.549 220.371 167.523 220.38L162.268 221.338C162.268 221.338 162.234 221.329 162.243 221.303L164.124 216.713C164.124 216.713 164.158 216.669 164.184 216.661L169.353 214.97V214.961Z" fill="#92B6DA"/>
</g>
<g opacity="0.5">
<path d="M158.394 213.078C158.394 213.078 158.428 213.078 158.42 213.104L156.625 218.445C156.625 218.445 156.59 218.488 156.564 218.497L151.309 219.455C151.309 219.455 151.275 219.446 151.284 219.42L153.165 214.83C153.165 214.83 153.199 214.787 153.225 214.778L158.394 213.087V213.078Z" fill="#92B6DA"/>
</g>
<g opacity="0.5">
<path d="M158.946 203.389C158.946 203.389 158.963 203.355 158.981 203.372L163.45 206.798C163.45 206.798 163.485 206.841 163.476 206.867L162.682 212.148C162.682 212.148 162.665 212.173 162.639 212.165L158.903 208.903C158.903 208.903 158.868 208.851 158.868 208.834L158.937 203.398L158.946 203.389Z" fill="#92B6DA"/>
</g>
<g opacity="0.5">
<path d="M157.134 191.638C157.134 191.638 157.168 191.629 157.168 191.655L157.764 197.255C157.764 197.255 157.755 197.307 157.729 197.324L153.354 200.388C153.354 200.388 153.32 200.388 153.32 200.37L153.113 195.418C153.113 195.418 153.121 195.357 153.139 195.348L157.125 191.655L157.134 191.638Z" fill="#92B6DA"/>
</g>
<g opacity="0.5">
<path d="M146.934 211.406C146.934 211.406 146.969 211.406 146.96 211.432L145.166 216.773C145.166 216.773 145.131 216.817 145.105 216.825L139.85 217.783C139.85 217.783 139.816 217.774 139.824 217.748L141.705 213.158C141.705 213.158 141.74 213.115 141.766 213.106L146.934 211.415V211.406Z" fill="#92B6DA"/>
</g>
<g opacity="0.5">
<path d="M147.487 201.717C147.487 201.717 147.504 201.683 147.522 201.7L151.991 205.126C151.991 205.126 152.026 205.169 152.017 205.195L151.223 210.476C151.223 210.476 151.206 210.502 151.18 210.493L147.444 207.231C147.444 207.231 147.409 207.179 147.409 207.162L147.478 201.726L147.487 201.717Z" fill="#92B6DA"/>
</g>
<g opacity="0.5">
<path d="M145.675 189.962C145.675 189.962 145.709 189.954 145.709 189.98L146.304 195.58C146.304 195.58 146.296 195.631 146.27 195.649L141.895 198.712C141.895 198.712 141.861 198.712 141.861 198.695L141.654 193.742C141.654 193.742 141.662 193.681 141.679 193.673L145.666 189.98L145.675 189.962Z" fill="#92B6DA"/>
</g>
<g opacity="0.5">
<path d="M135.984 209.523C135.984 209.523 136.019 209.523 136.01 209.549L134.215 214.891C134.215 214.891 134.181 214.934 134.155 214.942L128.9 215.9C128.9 215.9 128.866 215.891 128.874 215.866L130.755 211.275C130.755 211.275 130.79 211.232 130.816 211.223L135.984 209.532V209.523Z" fill="#92B6DA"/>
</g>
<g opacity="0.5">
<path d="M136.528 199.835C136.528 199.835 136.545 199.8 136.562 199.817L141.032 203.243C141.032 203.243 141.067 203.286 141.058 203.312L140.264 208.593C140.264 208.593 140.247 208.619 140.221 208.61L136.485 205.348C136.485 205.348 136.45 205.297 136.45 205.279L136.519 199.843L136.528 199.835Z" fill="#92B6DA"/>
</g>
<g opacity="0.5">
<path d="M134.716 188.08C134.716 188.08 134.75 188.071 134.75 188.097L135.346 193.697C135.346 193.697 135.337 193.749 135.311 193.766L130.936 196.829C130.936 196.829 130.902 196.829 130.902 196.812L130.695 191.859C130.695 191.859 130.703 191.799 130.721 191.79L134.707 188.097L134.716 188.08Z" fill="#92B6DA"/>
</g>
<g opacity="0.5">
<path d="M124.525 208.023C124.525 208.023 124.559 208.023 124.551 208.049L122.756 213.391C122.756 213.391 122.721 213.434 122.696 213.442L117.441 214.4C117.441 214.4 117.406 214.391 117.415 214.366L119.296 209.775C119.296 209.775 119.33 209.732 119.356 209.723L124.525 208.032V208.023Z" fill="#92B6DA"/>
</g>
<g opacity="0.5">
<path d="M125.078 198.335C125.078 198.335 125.095 198.3 125.112 198.317L129.582 201.743C129.582 201.743 129.616 201.786 129.608 201.812L128.814 207.093C128.814 207.093 128.797 207.119 128.771 207.11L125.035 203.848C125.035 203.848 125 203.797 125 203.779L125.069 198.343L125.078 198.335Z" fill="#92B6DA"/>
</g>
<g opacity="0.5">
<path d="M123.265 186.58C123.265 186.58 123.3 186.571 123.3 186.597L123.895 192.197C123.895 192.197 123.886 192.249 123.861 192.266L119.486 195.329C119.486 195.329 119.451 195.329 119.451 195.312L119.244 190.359C119.244 190.359 119.253 190.299 119.27 190.29L123.257 186.597L123.265 186.58Z" fill="#92B6DA"/>
</g>
<g opacity="0.5">
<path d="M113.575 206.145C113.575 206.145 113.609 206.145 113.601 206.17L111.806 211.512C111.806 211.512 111.771 211.555 111.746 211.563L106.491 212.521C106.491 212.521 106.456 212.513 106.465 212.487L108.346 207.896C108.346 207.896 108.38 207.853 108.406 207.844L113.575 206.153V206.145Z" fill="#92B6DA"/>
</g>
<g opacity="0.5">
<path d="M114.127 196.452C114.127 196.452 114.144 196.417 114.161 196.435L118.631 199.86C118.631 199.86 118.666 199.903 118.657 199.929L117.863 205.21C117.863 205.21 117.846 205.236 117.82 205.227L114.084 201.966C114.084 201.966 114.049 201.914 114.049 201.897L114.118 196.46L114.127 196.452Z" fill="#92B6DA"/>
</g>
<g opacity="0.5">
<path d="M150.067 359.738C150.067 359.738 150.102 359.738 150.093 359.764L148.298 365.105C148.298 365.105 148.264 365.149 148.238 365.157L142.983 366.115C142.983 366.115 142.948 366.106 142.957 366.08L144.838 361.49C144.838 361.49 144.873 361.447 144.898 361.438L150.067 359.747V359.738Z" fill="#92B6DA"/>
</g>
<g opacity="0.5">
<path d="M150.611 350.042C150.611 350.042 150.628 350.007 150.645 350.024L155.115 353.45C155.115 353.45 155.15 353.493 155.141 353.519L154.347 358.8C154.347 358.8 154.33 358.826 154.304 358.817L150.568 355.555C150.568 355.555 150.533 355.504 150.533 355.486L150.602 350.05L150.611 350.042Z" fill="#92B6DA"/>
</g>
<g opacity="0.5">
<path d="M148.799 338.287C148.799 338.287 148.833 338.278 148.833 338.304L149.429 343.904C149.429 343.904 149.42 343.956 149.394 343.973L145.019 347.036C145.019 347.036 144.985 347.036 144.985 347.019L144.778 342.066C144.778 342.066 144.786 342.006 144.803 341.997L148.79 338.304L148.799 338.287Z" fill="#92B6DA"/>
</g>
<g opacity="0.5">
<path d="M139.108 357.859C139.108 357.859 139.143 357.859 139.134 357.885L137.339 363.226C137.339 363.226 137.305 363.27 137.279 363.278L132.024 364.236C132.024 364.236 131.989 364.227 131.998 364.202L133.879 359.611C133.879 359.611 133.914 359.568 133.939 359.559L139.108 357.868V357.859Z" fill="#92B6DA"/>
</g>
<g opacity="0.5">
<path d="M139.661 348.167C139.661 348.167 139.678 348.132 139.695 348.149L144.165 351.575C144.165 351.575 144.199 351.618 144.191 351.644L143.397 356.925C143.397 356.925 143.38 356.951 143.354 356.942L139.618 353.68C139.618 353.68 139.583 353.629 139.583 353.611L139.652 348.175L139.661 348.167Z" fill="#92B6DA"/>
</g>
<g opacity="0.5">
<path d="M137.848 336.404C137.848 336.404 137.883 336.395 137.883 336.421L138.478 342.021C138.478 342.021 138.469 342.073 138.444 342.09L134.069 345.153C134.069 345.153 134.034 345.153 134.034 345.136L133.827 340.183C133.827 340.183 133.836 340.123 133.853 340.114L137.84 336.421L137.848 336.404Z" fill="#92B6DA"/>
</g>
<g opacity="0.5">
<path d="M124.033 327.543C124.033 327.543 124.067 327.543 124.059 327.569L122.264 332.91C122.264 332.91 122.229 332.953 122.204 332.962L116.949 333.92C116.949 333.92 116.914 333.911 116.923 333.885L118.804 329.295C118.804 329.295 118.838 329.251 118.864 329.243L124.033 327.552V327.543Z" fill="#92B6DA"/>
</g>
<g opacity="0.5">
<path d="M124.577 317.854C124.577 317.854 124.594 317.82 124.612 317.837L129.081 321.262C129.081 321.262 129.116 321.306 129.107 321.332L128.313 326.612C128.313 326.612 128.296 326.638 128.27 326.63L124.534 323.368C124.534 323.368 124.5 323.316 124.5 323.299L124.569 317.863L124.577 317.854Z" fill="#92B6DA"/>
</g>
<g opacity="0.5">
<path d="M122.765 306.099C122.765 306.099 122.799 306.09 122.799 306.116L123.395 311.716C123.395 311.716 123.386 311.768 123.36 311.785L118.985 314.849C118.985 314.849 118.951 314.849 118.951 314.831L118.744 309.878C118.744 309.878 118.752 309.818 118.77 309.809L122.756 306.116L122.765 306.099Z" fill="#92B6DA"/>
</g>
<g opacity="0.5">
<path d="M113.074 325.66C113.074 325.66 113.109 325.66 113.1 325.686L111.306 331.027C111.306 331.027 111.271 331.07 111.245 331.079L105.99 332.037C105.99 332.037 105.956 332.028 105.964 332.002L107.845 327.412C107.845 327.412 107.88 327.369 107.906 327.36L113.074 325.669V325.66Z" fill="#92B6DA"/>
</g>
<g opacity="0.5">
<path d="M113.626 315.971C113.626 315.971 113.644 315.937 113.661 315.954L118.131 319.38C118.131 319.38 118.165 319.423 118.157 319.449L117.363 324.73C117.363 324.73 117.345 324.755 117.32 324.747L113.583 321.485C113.583 321.485 113.549 321.433 113.549 321.416L113.618 315.98L113.626 315.971Z" fill="#92B6DA"/>
</g>
<g opacity="0.5">
<path d="M111.814 304.22C111.814 304.22 111.849 304.212 111.849 304.237L112.444 309.837C112.444 309.837 112.436 309.889 112.41 309.906L108.035 312.97C108.035 312.97 108.001 312.97 108.001 312.952L107.793 308C107.793 308 107.802 307.939 107.819 307.931L111.806 304.237L111.814 304.22Z" fill="#92B6DA"/>
</g>
<g opacity="0.5">
<path d="M146.779 330.91C146.779 330.91 146.814 330.91 146.805 330.936L145.01 336.277C145.01 336.277 144.976 336.32 144.95 336.329L139.695 337.287C139.695 337.287 139.66 337.278 139.669 337.252L141.55 332.662C141.55 332.662 141.585 332.619 141.611 332.61L146.779 330.919V330.91Z" fill="#92B6DA"/>
</g>
<g opacity="0.5">
<path d="M145.519 309.458C145.519 309.458 145.554 309.45 145.554 309.476L146.149 315.076C146.149 315.076 146.141 315.128 146.115 315.145L141.74 318.208C141.74 318.208 141.705 318.208 141.705 318.191L141.498 313.238C141.498 313.238 141.507 313.177 141.524 313.169L145.511 309.476L145.519 309.458Z" fill="#92B6DA"/>
</g>
<g opacity="0.5">
<path d="M135.829 329.027C135.829 329.027 135.864 329.027 135.855 329.053L134.06 334.394C134.06 334.394 134.026 334.438 134 334.446L128.745 335.404C128.745 335.404 128.71 335.395 128.719 335.37L130.6 330.779C130.6 330.779 130.635 330.736 130.66 330.727L135.829 329.036V329.027Z" fill="#92B6DA"/>
</g>
<g opacity="0.5">
<path d="M136.381 319.339C136.381 319.339 136.398 319.304 136.416 319.321L140.885 322.747C140.885 322.747 140.92 322.79 140.911 322.816L140.117 328.097C140.117 328.097 140.1 328.123 140.074 328.114L136.338 324.852C136.338 324.852 136.303 324.801 136.303 324.783L136.373 319.347L136.381 319.339Z" fill="#92B6DA"/>
</g>
<g opacity="0.5">
<path d="M134.569 307.576C134.569 307.576 134.604 307.567 134.604 307.593L135.199 313.193C135.199 313.193 135.19 313.245 135.165 313.262L130.79 316.325C130.79 316.325 130.755 316.325 130.755 316.308L130.548 311.355C130.548 311.355 130.557 311.295 130.574 311.286L134.56 307.593L134.569 307.576Z" fill="#92B6DA"/>
</g>
<g opacity="0.5">
<path d="M127.235 348.581C127.235 348.581 127.252 348.546 127.269 348.563L131.739 351.989C131.739 351.989 131.773 352.032 131.765 352.058L130.971 357.339C130.971 357.339 130.954 357.365 130.928 357.356L127.192 354.094C127.192 354.094 127.157 354.043 127.157 354.025L127.226 348.589L127.235 348.581Z" fill="#92B6DA"/>
</g>
<g opacity="0.5">
<path d="M125.422 336.826C125.422 336.826 125.457 336.817 125.457 336.843L126.052 342.443C126.052 342.443 126.044 342.495 126.018 342.512L121.643 345.575C121.643 345.575 121.608 345.575 121.608 345.558L121.401 340.605C121.401 340.605 121.41 340.545 121.427 340.536L125.414 336.843L125.422 336.826Z" fill="#92B6DA"/>
</g>
<g opacity="0.5">
<path d="M116.284 346.698C116.284 346.698 116.301 346.663 116.319 346.681L120.788 350.106C120.788 350.106 120.823 350.149 120.814 350.175L120.02 355.456C120.02 355.456 120.003 355.482 119.977 355.473L116.241 352.212C116.241 352.212 116.207 352.16 116.207 352.143L116.276 346.707L116.284 346.698Z" fill="#92B6DA"/>
</g>
<g opacity="0.5">
<path d="M114.472 334.947C114.472 334.947 114.507 334.938 114.507 334.964L115.102 340.564C115.102 340.564 115.093 340.616 115.068 340.633L110.693 343.696C110.693 343.696 110.658 343.696 110.658 343.679L110.451 338.726C110.451 338.726 110.46 338.666 110.477 338.657L114.464 334.964L114.472 334.947Z" fill="#92B6DA"/>
</g>
<g opacity="0.5">
<path d="M172.191 365C172.191 365 172.226 365 172.217 365.026L170.422 370.367C170.422 370.367 170.388 370.41 170.362 370.419L165.107 371.377C165.107 371.377 165.073 371.368 165.081 371.342L166.962 366.752C166.962 366.752 166.997 366.709 167.023 366.7L172.191 365.009V365Z" fill="#92B6DA"/>
</g>
<g opacity="0.5">
<path d="M161.233 363.121C161.233 363.121 161.267 363.121 161.259 363.147L159.464 368.488C159.464 368.488 159.429 368.531 159.404 368.54L154.149 369.498C154.149 369.498 154.114 369.489 154.123 369.463L156.004 364.873C156.004 364.873 156.038 364.83 156.064 364.821L161.233 363.13V363.121Z" fill="#92B6DA"/>
</g>
<g opacity="0.5">
<path d="M161.785 353.421C161.785 353.421 161.802 353.386 161.819 353.403L166.289 356.829C166.289 356.829 166.324 356.872 166.315 356.898L165.521 362.179C165.521 362.179 165.504 362.205 165.478 362.196L161.742 358.934C161.742 358.934 161.707 358.883 161.707 358.865L161.776 353.429L161.785 353.421Z" fill="#92B6DA"/>
</g>
<g opacity="0.5">
<path d="M159.973 341.665C159.973 341.665 160.008 341.657 160.008 341.683L160.603 347.283C160.603 347.283 160.594 347.335 160.569 347.352L156.194 350.415C156.194 350.415 156.159 350.415 156.159 350.398L155.952 345.445C155.952 345.445 155.961 345.384 155.978 345.376L159.965 341.683L159.973 341.665Z" fill="#92B6DA"/>
</g>
<g opacity="0.5">
<path d="M164.883 281.439C164.883 281.439 164.917 281.43 164.917 281.456L165.513 287.056C165.513 287.056 165.504 287.108 165.478 287.125L161.103 290.188C161.103 290.188 161.069 290.188 161.069 290.171L160.862 285.218C160.862 285.218 160.87 285.158 160.888 285.149L164.874 281.456L164.883 281.439Z" fill="#92B6DA"/>
</g>
<g opacity="0.5">
<path d="M155.193 301.008C155.193 301.008 155.227 301.008 155.218 301.034L153.424 306.375C153.424 306.375 153.389 306.418 153.363 306.427L148.108 307.385C148.108 307.385 148.074 307.376 148.082 307.35L149.964 302.759C149.964 302.759 149.998 302.716 150.024 302.708L155.193 301.016V301.008Z" fill="#92B6DA"/>
</g>
<g opacity="0.5">
<path d="M155.745 291.311C155.745 291.311 155.762 291.277 155.779 291.294L160.249 294.72C160.249 294.72 160.283 294.763 160.275 294.789L159.481 300.069C159.481 300.069 159.464 300.095 159.438 300.087L155.702 296.825C155.702 296.825 155.667 296.773 155.667 296.756L155.736 291.32L155.745 291.311Z" fill="#92B6DA"/>
</g>
<g opacity="0.5">
<path d="M153.933 279.556C153.933 279.556 153.967 279.547 153.967 279.573L154.563 285.173C154.563 285.173 154.554 285.225 154.528 285.242L150.153 288.306C150.153 288.306 150.119 288.306 150.119 288.288L149.912 283.335C149.912 283.335 149.92 283.275 149.938 283.266L153.924 279.573L153.933 279.556Z" fill="#92B6DA"/>
</g>
<g opacity="0.5">
<path d="M143.733 299.328C143.733 299.328 143.767 299.328 143.759 299.354L141.964 304.695C141.964 304.695 141.929 304.738 141.904 304.747L136.649 305.705C136.649 305.705 136.614 305.696 136.623 305.67L138.504 301.08C138.504 301.08 138.538 301.037 138.564 301.028L143.733 299.337V299.328Z" fill="#92B6DA"/>
</g>
<g opacity="0.5">
<path d="M144.277 289.639C144.277 289.639 144.294 289.605 144.312 289.622L148.781 293.048C148.781 293.048 148.816 293.091 148.807 293.117L148.013 298.397C148.013 298.397 147.996 298.423 147.97 298.415L144.234 295.153C144.234 295.153 144.199 295.101 144.199 295.084L144.269 289.648L144.277 289.639Z" fill="#92B6DA"/>
</g>
<g opacity="0.5">
<path d="M142.465 277.884C142.465 277.884 142.499 277.876 142.499 277.901L143.095 283.502C143.095 283.502 143.086 283.553 143.06 283.571L138.685 286.634C138.685 286.634 138.651 286.634 138.651 286.617L138.444 281.664C138.444 281.664 138.452 281.603 138.469 281.595L142.456 277.901L142.465 277.884Z" fill="#92B6DA"/>
</g>
<g opacity="0.5">
<path d="M132.774 297.457C132.774 297.457 132.809 297.457 132.8 297.483L131.005 302.824C131.005 302.824 130.971 302.867 130.945 302.876L125.69 303.834C125.69 303.834 125.656 303.825 125.664 303.799L127.545 299.209C127.545 299.209 127.58 299.166 127.606 299.157L132.774 297.466V297.457Z" fill="#92B6DA"/>
</g>
<g opacity="0.5">
<path d="M133.327 287.756C133.327 287.756 133.344 287.722 133.361 287.739L137.831 291.165C137.831 291.165 137.865 291.208 137.857 291.234L137.063 296.515C137.063 296.515 137.046 296.541 137.02 296.532L133.284 293.27C133.284 293.27 133.249 293.219 133.249 293.201L133.318 287.765L133.327 287.756Z" fill="#92B6DA"/>
</g>
<g opacity="0.5">
<path d="M131.515 276.005C131.515 276.005 131.549 275.997 131.549 276.023L132.145 281.623C132.145 281.623 132.136 281.674 132.11 281.692L127.735 284.755C127.735 284.755 127.701 284.755 127.701 284.738L127.494 279.785C127.494 279.785 127.502 279.724 127.52 279.716L131.506 276.023L131.515 276.005Z" fill="#92B6DA"/>
</g>
<g opacity="0.5">
<path d="M121.323 295.953C121.323 295.953 121.358 295.953 121.349 295.979L119.555 301.32C119.555 301.32 119.52 301.363 119.494 301.372L114.239 302.33C114.239 302.33 114.205 302.321 114.213 302.295L116.094 297.705C116.094 297.705 116.129 297.662 116.155 297.653L121.323 295.962V295.953Z" fill="#92B6DA"/>
</g>
<g opacity="0.5">
<path d="M121.876 286.253C121.876 286.253 121.894 286.218 121.911 286.235L126.381 289.661C126.381 289.661 126.415 289.704 126.407 289.73L125.613 295.011C125.613 295.011 125.595 295.037 125.57 295.028L121.833 291.766C121.833 291.766 121.799 291.715 121.799 291.697L121.868 286.261L121.876 286.253Z" fill="#92B6DA"/>
</g>
<g opacity="0.5">
<path d="M120.064 274.501C120.064 274.501 120.098 274.493 120.098 274.519L120.694 280.119C120.694 280.119 120.685 280.17 120.659 280.188L116.284 283.251C116.284 283.251 116.25 283.251 116.25 283.234L116.043 278.281C116.043 278.281 116.051 278.22 116.069 278.212L120.055 274.519L120.064 274.501Z" fill="#92B6DA"/>
</g>
<g opacity="0.5">
<path d="M110.374 294.074C110.374 294.074 110.408 294.074 110.4 294.1L108.605 299.441C108.605 299.441 108.57 299.484 108.544 299.493L103.289 300.451C103.289 300.451 103.255 300.442 103.264 300.416L105.145 295.826C105.145 295.826 105.179 295.783 105.205 295.774L110.374 294.083V294.074Z" fill="#92B6DA"/>
</g>
<g opacity="0.5">
<path d="M110.917 284.381C110.917 284.381 110.934 284.347 110.952 284.364L115.421 287.79C115.421 287.79 115.456 287.833 115.447 287.859L114.654 293.14C114.654 293.14 114.636 293.166 114.61 293.157L110.874 289.895C110.874 289.895 110.84 289.843 110.84 289.826L110.909 284.39L110.917 284.381Z" fill="#92B6DA"/>
</g>
<g opacity="0.5">
<path d="M109.105 272.619C109.105 272.619 109.14 272.61 109.14 272.636L109.735 278.236C109.735 278.236 109.727 278.288 109.701 278.305L105.326 281.368C105.326 281.368 105.291 281.368 105.291 281.351L105.084 276.398C105.084 276.398 105.093 276.338 105.11 276.329L109.097 272.636L109.105 272.619Z" fill="#92B6DA"/>
</g>
</g>
<g opacity="0.5">
<g opacity="0.5">
<path d="M115.016 145.216C115.016 145.216 114.981 145.233 114.981 145.216L113.368 139.814C113.368 139.814 113.368 139.762 113.385 139.745L117.121 135.94C117.121 135.94 117.156 135.931 117.165 135.948L118.278 140.78C118.278 140.78 118.278 140.841 118.26 140.858L115.016 145.224V145.216Z" fill="#92B6DA"/>
</g>
<g opacity="0.5">
<path d="M120.159 153.445C120.159 153.445 120.159 153.479 120.142 153.479L114.516 153.263C114.516 153.263 114.464 153.246 114.455 153.22L112.056 148.449C112.056 148.449 112.056 148.414 112.082 148.414L117.018 148.915C117.018 148.915 117.07 148.932 117.087 148.958L120.167 153.436L120.159 153.445Z" fill="#92B6DA"/>
</g>
<g opacity="0.5">
<path d="M128.426 162.006C128.426 162.006 128.4 162.031 128.391 162.014L124.672 157.786C124.672 157.786 124.646 157.734 124.655 157.717L126.458 152.695C126.458 152.695 126.484 152.669 126.501 152.695L129.53 156.621C129.53 156.621 129.556 156.673 129.547 156.699L128.417 162.023L128.426 162.006Z" fill="#92B6DA"/>
</g>
<g opacity="0.5">
<path d="M125.052 140.427C125.052 140.427 125.017 140.444 125.017 140.427L123.404 135.025C123.404 135.025 123.404 134.973 123.421 134.956L127.157 131.151C127.157 131.151 127.192 131.142 127.2 131.159L128.314 135.991C128.314 135.991 128.314 136.052 128.296 136.069L125.052 140.435V140.427Z" fill="#92B6DA"/>
</g>
<g opacity="0.5">
<path d="M130.194 148.663C130.194 148.663 130.194 148.698 130.177 148.698L124.551 148.482C124.551 148.482 124.499 148.465 124.491 148.439L122.092 143.667C122.092 143.667 122.092 143.633 122.118 143.633L127.053 144.133C127.053 144.133 127.105 144.151 127.122 144.176L130.203 148.655L130.194 148.663Z" fill="#92B6DA"/>
</g>
<g opacity="0.5">
<path d="M138.452 157.216C138.452 157.216 138.427 157.242 138.418 157.225L134.699 152.997C134.699 152.997 134.673 152.945 134.682 152.928L136.485 147.906C136.485 147.906 136.511 147.88 136.528 147.906L139.557 151.832C139.557 151.832 139.583 151.884 139.574 151.91L138.444 157.234L138.452 157.216Z" fill="#92B6DA"/>
</g>
<g opacity="0.5">
<path d="M134.336 166.864C134.336 166.864 134.302 166.881 134.302 166.864L132.688 161.462C132.688 161.462 132.688 161.411 132.706 161.393L136.442 157.588C136.442 157.588 136.476 157.579 136.485 157.597L137.598 162.429C137.598 162.429 137.598 162.489 137.581 162.507L134.336 166.873V166.864Z" fill="#92B6DA"/>
</g>
<g opacity="0.5">
<path d="M139.479 175.097C139.479 175.097 139.479 175.132 139.462 175.132L133.836 174.916C133.836 174.916 133.784 174.899 133.775 174.873L131.376 170.101C131.376 170.101 131.376 170.066 131.402 170.066L136.338 170.567C136.338 170.567 136.39 170.584 136.407 170.61L139.488 175.088L139.479 175.097Z" fill="#92B6DA"/>
</g>
<g opacity="0.5">
<path d="M147.737 183.658C147.737 183.658 147.711 183.684 147.703 183.667L143.984 179.438C143.984 179.438 143.958 179.387 143.966 179.369L145.77 174.347C145.77 174.347 145.796 174.322 145.813 174.347L148.842 178.274C148.842 178.274 148.868 178.325 148.859 178.351L147.729 183.675L147.737 183.658Z" fill="#92B6DA"/>
</g>
<g opacity="0.5">
<path d="M144.363 162.083C144.363 162.083 144.329 162.1 144.329 162.083L142.715 156.681C142.715 156.681 142.715 156.629 142.733 156.612L146.469 152.807C146.469 152.807 146.503 152.798 146.512 152.815L147.625 157.648C147.625 157.648 147.625 157.708 147.608 157.725L144.363 162.091V162.083Z" fill="#92B6DA"/>
</g>
<g opacity="0.5">
<path d="M149.506 170.316C149.506 170.316 149.506 170.35 149.489 170.35L143.863 170.135C143.863 170.135 143.811 170.117 143.802 170.091L141.404 165.32C141.404 165.32 141.404 165.285 141.429 165.285L146.365 165.786C146.365 165.786 146.417 165.803 146.434 165.829L149.515 170.307L149.506 170.316Z" fill="#92B6DA"/>
</g>
<g opacity="0.5">
<path d="M157.773 178.865C157.773 178.865 157.747 178.891 157.738 178.874L154.019 174.645C154.019 174.645 153.993 174.594 154.002 174.576L155.805 169.554C155.805 169.554 155.831 169.529 155.849 169.554L158.877 173.481C158.877 173.481 158.903 173.532 158.895 173.558L157.764 178.882L157.773 178.865Z" fill="#92B6DA"/>
</g>
<g opacity="0.5">
<path d="M134.957 132.919C134.957 132.919 134.923 132.936 134.923 132.919L133.309 127.517C133.309 127.517 133.309 127.465 133.327 127.448L137.063 123.643C137.063 123.643 137.097 123.634 137.106 123.651L138.219 128.484C138.219 128.484 138.219 128.544 138.202 128.561L134.957 132.927V132.919Z" fill="#92B6DA"/>
</g>
<g opacity="0.5">
<path d="M140.1 141.148C140.1 141.148 140.1 141.182 140.083 141.182L134.457 140.967C134.457 140.967 134.405 140.949 134.397 140.923L131.998 136.152C131.998 136.152 131.998 136.117 132.024 136.117L136.959 136.618C136.959 136.618 137.011 136.635 137.028 136.661L140.109 141.139L140.1 141.148Z" fill="#92B6DA"/>
</g>
<g opacity="0.5">
<path d="M148.358 149.701C148.358 149.701 148.333 149.727 148.324 149.71L144.605 145.481C144.605 145.481 144.579 145.43 144.588 145.412L146.391 140.39C146.391 140.39 146.417 140.365 146.434 140.39L149.463 144.317C149.463 144.317 149.489 144.368 149.48 144.394L148.35 149.718L148.358 149.701Z" fill="#92B6DA"/>
</g>
<g opacity="0.5">
<path d="M144.985 128.13C144.985 128.13 144.95 128.147 144.95 128.13L143.336 122.728C143.336 122.728 143.336 122.676 143.354 122.659L147.09 118.854C147.09 118.854 147.124 118.845 147.133 118.862L148.246 123.694C148.246 123.694 148.246 123.755 148.229 123.772L144.985 128.138V128.13Z" fill="#92B6DA"/>
</g>
<g opacity="0.5">
<path d="M150.127 136.359C150.127 136.359 150.127 136.393 150.11 136.393L144.484 136.178C144.484 136.178 144.432 136.16 144.423 136.134L142.025 131.363C142.025 131.363 142.025 131.328 142.051 131.328L146.986 131.829C146.986 131.829 147.038 131.846 147.055 131.872L150.136 136.35L150.127 136.359Z" fill="#92B6DA"/>
</g>
<g opacity="0.5">
<path d="M158.394 144.92C158.394 144.92 158.368 144.946 158.36 144.928L154.641 140.7C154.641 140.7 154.615 140.648 154.623 140.631L156.427 135.609C156.427 135.609 156.453 135.583 156.47 135.609L159.499 139.535C159.499 139.535 159.524 139.587 159.516 139.613L158.385 144.937L158.394 144.92Z" fill="#92B6DA"/>
</g>
<g opacity="0.5">
<path d="M114.947 175.895C114.947 175.895 114.912 175.913 114.912 175.895L113.299 170.494C113.299 170.494 113.299 170.442 113.316 170.425L117.052 166.619C117.052 166.619 117.087 166.611 117.096 166.628L118.209 171.46C118.209 171.46 118.209 171.52 118.191 171.538L114.947 175.904V175.895Z" fill="#92B6DA"/>
</g>
<g opacity="0.5">
<path d="M120.09 184.128C120.09 184.128 120.089 184.163 120.072 184.163L114.446 183.947C114.446 183.947 114.394 183.93 114.386 183.904L111.987 179.132C111.987 179.132 111.987 179.098 112.013 179.098L116.949 179.598C116.949 179.598 117 179.615 117.018 179.641L120.098 184.12L120.09 184.128Z" fill="#92B6DA"/>
</g>
<g opacity="0.5">
<path d="M128.357 192.681C128.357 192.681 128.331 192.707 128.322 192.69L124.603 188.462C124.603 188.462 124.577 188.41 124.586 188.393L126.389 183.371C126.389 183.371 126.415 183.345 126.432 183.371L129.461 187.297C129.461 187.297 129.487 187.349 129.478 187.375L128.348 192.699L128.357 192.681Z" fill="#92B6DA"/>
</g>
<g opacity="0.5">
<path d="M124.983 171.106C124.983 171.106 124.948 171.123 124.948 171.106L123.334 165.705C123.334 165.705 123.334 165.653 123.352 165.636L127.088 161.83C127.088 161.83 127.123 161.822 127.131 161.839L128.244 166.671C128.244 166.671 128.244 166.731 128.227 166.749L124.983 171.115V171.106Z" fill="#92B6DA"/>
</g>
<g opacity="0.5">
<path d="M130.125 179.347C130.125 179.347 130.125 179.382 130.108 179.382L124.482 179.166C124.482 179.166 124.43 179.149 124.422 179.123L122.023 174.351C122.023 174.351 122.023 174.316 122.049 174.316L126.984 174.817C126.984 174.817 127.036 174.834 127.053 174.86L130.134 179.338L130.125 179.347Z" fill="#92B6DA"/>
</g>
<g opacity="0.5">
<path d="M138.383 187.9C138.383 187.9 138.357 187.926 138.349 187.909L134.63 183.681C134.63 183.681 134.604 183.629 134.613 183.612L136.416 178.59C136.416 178.59 136.442 178.564 136.459 178.59L139.488 182.516C139.488 182.516 139.514 182.568 139.505 182.593L138.375 187.917L138.383 187.9Z" fill="#92B6DA"/>
</g>
<g opacity="0.5">
<path d="M107.319 170.47C107.319 170.47 107.293 170.496 107.285 170.479L103.566 166.251C103.566 166.251 103.54 166.199 103.548 166.182L105.352 161.16C105.352 161.16 105.378 161.134 105.395 161.16L108.424 165.086C108.424 165.086 108.45 165.138 108.441 165.164L107.311 170.488L107.319 170.47Z" fill="#92B6DA"/>
</g>
<g opacity="0.5">
<path d="M103.936 148.899C103.936 148.899 103.902 148.916 103.902 148.899L102.288 143.498C102.288 143.498 102.288 143.446 102.305 143.429L106.042 139.623C106.042 139.623 106.076 139.615 106.085 139.632L107.198 144.464C107.198 144.464 107.198 144.524 107.181 144.542L103.936 148.908V148.899Z" fill="#92B6DA"/>
</g>
<g opacity="0.5">
<path d="M109.088 157.128C109.088 157.128 109.088 157.163 109.07 157.163L103.444 156.947C103.444 156.947 103.393 156.93 103.384 156.904L100.985 152.132C100.985 152.132 100.985 152.098 101.011 152.098L105.947 152.598C105.947 152.598 105.998 152.615 106.016 152.641L109.096 157.12L109.088 157.128Z" fill="#92B6DA"/>
</g>
<g opacity="0.5">
<path d="M117.346 165.681C117.346 165.681 117.32 165.707 117.311 165.69L113.592 161.462C113.592 161.462 113.566 161.41 113.575 161.393L115.378 156.371C115.378 156.371 115.404 156.345 115.422 156.371L118.45 160.297C118.45 160.297 118.476 160.349 118.468 160.375L117.337 165.699L117.346 165.681Z" fill="#92B6DA"/>
</g>
<g opacity="0.5">
<path d="M80.3101 88.3415C80.3101 88.3415 80.2842 88.3674 80.2756 88.3501L76.5566 84.122C76.5566 84.122 76.5307 84.0703 76.5394 84.053L78.3428 79.031C78.3428 79.031 78.3686 79.0051 78.3859 79.031L81.4146 82.9571C81.4146 82.9571 81.4405 83.0089 81.4319 83.0348L80.3015 88.3588L80.3101 88.3415Z" fill="#92B6DA"/>
</g>
<g opacity="0.5">
<path d="M76.9276 66.7703C76.9276 66.7703 76.8931 66.7876 76.8931 66.7703L75.2795 61.3687C75.2795 61.3687 75.2796 61.3169 75.2968 61.2996L79.0331 57.4943C79.0331 57.4943 79.0676 57.4857 79.0762 57.503L80.1893 62.3351C80.1893 62.3351 80.1893 62.3955 80.1721 62.4128L76.9276 66.7789V66.7703Z" fill="#92B6DA"/>
</g>
<g opacity="0.5">
<path d="M82.079 74.9993C82.079 74.9993 82.079 75.0339 82.0617 75.0339L76.4357 74.8181C76.4357 74.8181 76.384 74.8009 76.3754 74.775L73.9766 70.0033C73.9766 70.0033 73.9766 69.9688 74.0024 69.9688L78.9381 70.4692C78.9381 70.4692 78.9899 70.4865 79.0071 70.5124L82.0876 74.9907L82.079 74.9993Z" fill="#92B6DA"/>
</g>
<g opacity="0.5">
<path d="M90.3367 83.5642C90.3367 83.5642 90.3109 83.59 90.3022 83.5728L86.5832 79.3447C86.5832 79.3447 86.5573 79.2929 86.566 79.2756L88.3694 74.2537C88.3694 74.2537 88.3953 74.2278 88.4125 74.2537L91.4412 78.1798C91.4412 78.1798 91.4671 78.2316 91.4585 78.2575L90.3281 83.5814L90.3367 83.5642Z" fill="#92B6DA"/>
</g>
<g opacity="0.5">
<path d="M106.741 82.8289C106.741 82.8289 106.706 82.8462 106.706 82.8289L105.093 77.4273C105.093 77.4273 105.093 77.3755 105.11 77.3582L108.846 73.5529C108.846 73.5529 108.881 73.5443 108.889 73.5616L110.003 78.3937C110.003 78.3937 110.003 78.4541 109.985 78.4714L106.741 82.8375V82.8289Z" fill="#92B6DA"/>
</g>
<g opacity="0.5">
<path d="M111.884 91.0579C111.884 91.0579 111.884 91.0924 111.866 91.0924L106.24 90.8767C106.24 90.8767 106.189 90.8595 106.18 90.8336L103.781 86.0619C103.781 86.0619 103.781 86.0273 103.807 86.0273L108.743 86.5278C108.743 86.5278 108.795 86.5451 108.812 86.571L111.892 91.0493L111.884 91.0579Z" fill="#92B6DA"/>
</g>
<g opacity="0.5">
<path d="M120.141 99.611C120.141 99.611 120.116 99.6369 120.107 99.6197L116.388 95.3916C116.388 95.3916 116.362 95.3398 116.371 95.3225L118.174 90.3006C118.174 90.3006 118.2 90.2747 118.217 90.3006L121.246 94.2267C121.246 94.2267 121.272 94.2784 121.263 94.3043L120.133 99.6283L120.141 99.611Z" fill="#92B6DA"/>
</g>
<g opacity="0.5">
<path d="M116.768 78.0359C116.768 78.0359 116.733 78.0532 116.733 78.0359L115.12 72.6343C115.12 72.6343 115.12 72.5825 115.137 72.5653L118.873 68.76C118.873 68.76 118.908 68.7513 118.916 68.7686L120.029 73.6007C120.029 73.6007 120.029 73.6611 120.012 73.6784L116.768 78.0446V78.0359Z" fill="#92B6DA"/>
</g>
<g opacity="0.5">
<path d="M121.91 86.2689C121.91 86.2689 121.91 86.3034 121.893 86.3034L116.267 86.0877C116.267 86.0877 116.215 86.0704 116.207 86.0445L113.808 81.2728C113.808 81.2728 113.808 81.2383 113.834 81.2383L118.769 81.7388C118.769 81.7388 118.821 81.756 118.838 81.7819L121.919 86.2602L121.91 86.2689Z" fill="#92B6DA"/>
</g>
<g opacity="0.5">
<path d="M130.177 94.8298C130.177 94.8298 130.151 94.8557 130.143 94.8384L126.424 90.6103C126.424 90.6103 126.398 90.5585 126.406 90.5413L128.21 85.5193C128.21 85.5193 128.236 85.4934 128.253 85.5193L131.282 89.4454C131.282 89.4454 131.307 89.4972 131.299 89.5231L130.168 94.847L130.177 94.8298Z" fill="#92B6DA"/>
</g>
<g opacity="0.5">
<path d="M86.2123 93.2078C86.2123 93.2078 86.1778 93.2251 86.1778 93.2078L84.5642 87.8062C84.5642 87.8062 84.5642 87.7544 84.5815 87.7371L88.3177 83.9318C88.3177 83.9318 88.3522 83.9232 88.3609 83.9405L89.474 88.7726C89.474 88.7726 89.474 88.833 89.4567 88.8503L86.2123 93.2164V93.2078Z" fill="#92B6DA"/>
</g>
<g opacity="0.5">
<path d="M99.6217 109.99C99.6217 109.99 99.5958 110.016 99.5872 109.999L95.8682 105.77C95.8682 105.77 95.8423 105.719 95.8509 105.701L97.6543 100.679C97.6543 100.679 97.6802 100.654 97.6975 100.679L100.726 104.606C100.726 104.606 100.752 104.657 100.743 104.683L99.613 110.007L99.6217 109.99Z" fill="#92B6DA"/>
</g>
<g opacity="0.5">
<path d="M96.248 88.4187C96.248 88.4187 96.2134 88.436 96.2134 88.4187L94.5999 83.0171C94.5999 83.0171 94.5998 82.9653 94.6171 82.9481L98.3534 79.1428C98.3534 79.1428 98.3879 79.1342 98.3965 79.1514L99.5096 83.9835C99.5096 83.9835 99.5096 84.0439 99.4924 84.0612L96.248 88.4274V88.4187Z" fill="#92B6DA"/>
</g>
<g opacity="0.5">
<path d="M101.391 96.6517C101.391 96.6517 101.391 96.6862 101.373 96.6862L95.7473 96.4705C95.7473 96.4705 95.6955 96.4532 95.6869 96.4273L93.2881 91.6556C93.2881 91.6556 93.2881 91.6211 93.314 91.6211L98.2496 92.1216C98.2496 92.1216 98.3014 92.1388 98.3187 92.1647L101.399 96.6431L101.391 96.6517Z" fill="#92B6DA"/>
</g>
<g opacity="0.5">
<path d="M109.657 105.213C109.657 105.213 109.631 105.238 109.623 105.221L105.904 100.993C105.904 100.993 105.878 100.941 105.887 100.924L107.69 95.9021C107.69 95.9021 107.716 95.8762 107.733 95.9021L110.762 99.8282C110.762 99.8282 110.788 99.88 110.779 99.9059L109.649 105.23L109.657 105.213Z" fill="#92B6DA"/>
</g>
<g opacity="0.5">
<path d="M91.9848 67.4954C91.9848 67.4954 91.9848 67.5299 91.9675 67.5299L86.3415 67.3142C86.3415 67.3142 86.2898 67.297 86.2811 67.2711L83.8823 62.4994C83.8823 62.4994 83.8823 62.4648 83.9082 62.4648L88.8439 62.9653C88.8439 62.9653 88.8957 62.9826 88.9129 63.0085L91.9934 67.4868L91.9848 67.4954Z" fill="#92B6DA"/>
</g>
<g opacity="0.5">
<path d="M100.243 76.0446C100.243 76.0446 100.217 76.0705 100.209 76.0533L96.4895 71.8252C96.4895 71.8252 96.4636 71.7734 96.4722 71.7561L98.2757 66.7342C98.2757 66.7342 98.3015 66.7083 98.3188 66.7342L101.348 70.6603C101.348 70.6603 101.373 70.712 101.365 70.7379L100.234 76.0619L100.243 76.0446Z" fill="#92B6DA"/>
</g>
<g opacity="0.5">
<path d="M102.012 62.7025C102.012 62.7025 102.012 62.737 101.995 62.737L96.3689 62.5213C96.3689 62.5213 96.3171 62.504 96.3085 62.4781L93.9097 57.7064C93.9097 57.7064 93.9097 57.6719 93.9356 57.6719L98.8712 58.1723C98.8712 58.1723 98.923 58.1896 98.9403 58.2155L102.021 62.6938L102.012 62.7025Z" fill="#92B6DA"/>
</g>
<g opacity="0.5">
<path d="M110.279 71.2556C110.279 71.2556 110.253 71.2815 110.244 71.2642L106.525 67.0361C106.525 67.0361 106.499 66.9843 106.508 66.9671L108.311 61.9451C108.311 61.9451 108.337 61.9192 108.354 61.9451L111.383 65.8712C111.383 65.8712 111.409 65.923 111.4 65.9489L110.27 71.2728L110.279 71.2556Z" fill="#92B6DA"/>
</g>
<g opacity="0.5">
<path d="M99.9757 144.049C99.9757 144.049 99.9498 144.074 99.9412 144.057L96.2222 139.829C96.2222 139.829 96.1963 139.777 96.2049 139.76L98.0083 134.738C98.0083 134.738 98.0342 134.712 98.0515 134.738L101.08 138.664C101.08 138.664 101.106 138.716 101.097 138.742L99.9671 144.066L99.9757 144.049Z" fill="#92B6DA"/>
</g>
<g opacity="0.5">
<path d="M96.6017 122.477C96.6017 122.477 96.5672 122.495 96.5672 122.477L94.9536 117.076C94.9536 117.076 94.9536 117.024 94.9709 117.007L98.7071 113.201C98.7071 113.201 98.7416 113.193 98.7503 113.21L99.8634 118.042C99.8634 118.042 99.8634 118.103 99.8461 118.12L96.6017 122.486V122.477Z" fill="#92B6DA"/>
</g>
<g opacity="0.5">
<path d="M101.745 130.718C101.745 130.718 101.745 130.753 101.727 130.753L96.1013 130.537C96.1013 130.537 96.0495 130.52 96.0409 130.494L93.6421 125.722C93.6421 125.722 93.6421 125.688 93.668 125.688L98.6036 126.188C98.6036 126.188 98.6554 126.205 98.6727 126.231L101.753 130.709L101.745 130.718Z" fill="#92B6DA"/>
</g>
<g opacity="0.5">
<path d="M110.002 139.267C110.002 139.267 109.976 139.293 109.968 139.276L106.249 135.048C106.249 135.048 106.223 134.996 106.231 134.979L108.035 129.957C108.035 129.957 108.061 129.931 108.078 129.957L111.107 133.883C111.107 133.883 111.133 133.935 111.124 133.961L109.994 139.285L110.002 139.267Z" fill="#92B6DA"/>
</g>
<g opacity="0.5">
<path d="M106.931 117.231C106.931 117.231 106.896 117.248 106.896 117.231L105.282 111.83C105.282 111.83 105.282 111.778 105.3 111.761L109.036 107.955C109.036 107.955 109.071 107.947 109.079 107.964L110.192 112.796C110.192 112.796 110.192 112.856 110.175 112.874L106.931 117.24V117.231Z" fill="#92B6DA"/>
</g>
<g opacity="0.5">
<path d="M112.073 125.472C112.073 125.472 112.073 125.507 112.056 125.507L106.43 125.291C106.43 125.291 106.378 125.274 106.37 125.248L103.971 120.476C103.971 120.476 103.971 120.441 103.997 120.441L108.933 120.942C108.933 120.942 108.984 120.959 109.002 120.985L112.082 125.463L112.073 125.472Z" fill="#92B6DA"/>
</g>
<g opacity="0.5">
<path d="M120.331 134.025C120.331 134.025 120.305 134.051 120.297 134.034L116.578 129.806C116.578 129.806 116.552 129.754 116.56 129.737L118.364 124.715C118.364 124.715 118.39 124.689 118.407 124.715L121.436 128.641C121.436 128.641 121.462 128.693 121.453 128.718L120.323 134.042L120.331 134.025Z" fill="#92B6DA"/>
</g>
<g opacity="0.5">
<path d="M116.957 112.45C116.957 112.45 116.923 112.467 116.923 112.45L115.309 107.048C115.309 107.048 115.309 106.997 115.326 106.979L119.063 103.174C119.063 103.174 119.097 103.165 119.106 103.183L120.219 108.015C120.219 108.015 120.219 108.075 120.202 108.092L116.957 112.459V112.45Z" fill="#92B6DA"/>
</g>
<g opacity="0.5">
<path d="M122.1 120.683C122.1 120.683 122.1 120.717 122.083 120.717L116.457 120.502C116.457 120.502 116.405 120.484 116.396 120.459L113.998 115.687C113.998 115.687 113.998 115.652 114.023 115.652L118.959 116.153C118.959 116.153 119.011 116.17 119.028 116.196L122.109 120.674L122.1 120.683Z" fill="#92B6DA"/>
</g>
<g opacity="0.5">
<path d="M130.367 129.236C130.367 129.236 130.341 129.262 130.333 129.245L126.614 125.017C126.614 125.017 126.588 124.965 126.596 124.948L128.4 119.926C128.4 119.926 128.426 119.9 128.443 119.926L131.472 123.852C131.472 123.852 131.497 123.903 131.489 123.929L130.358 129.253L130.367 129.236Z" fill="#92B6DA"/>
</g>
<g opacity="0.5">
<path d="M127.174 107.067C127.174 107.067 127.14 107.084 127.14 107.067L125.526 101.666C125.526 101.666 125.526 101.614 125.543 101.597L129.28 97.7912C129.28 97.7912 129.314 97.7826 129.323 97.7998L130.436 102.632C130.436 102.632 130.436 102.692 130.419 102.71L127.174 107.076V107.067Z" fill="#92B6DA"/>
</g>
<g opacity="0.5">
<path d="M132.326 115.308C132.326 115.308 132.326 115.342 132.308 115.342L126.682 115.127C126.682 115.127 126.631 115.109 126.622 115.084L124.223 110.312C124.223 110.312 124.223 110.277 124.249 110.277L129.185 110.778C129.185 110.778 129.236 110.795 129.254 110.821L132.334 115.299L132.326 115.308Z" fill="#92B6DA"/>
</g>
<g opacity="0.5">
<path d="M140.583 123.857C140.583 123.857 140.557 123.883 140.549 123.866L136.83 119.638C136.83 119.638 136.804 119.586 136.813 119.569L138.616 114.547C138.616 114.547 138.642 114.521 138.659 114.547L141.688 118.473C141.688 118.473 141.714 118.525 141.705 118.55L140.575 123.874L140.583 123.857Z" fill="#92B6DA"/>
</g>
<g opacity="0.5">
<path d="M137.21 102.286C137.21 102.286 137.175 102.303 137.175 102.286L135.562 96.8843C135.562 96.8843 135.562 96.8325 135.579 96.8153L139.315 93.01C139.315 93.01 139.35 93.0013 139.358 93.0186L140.471 97.8507C140.471 97.8507 140.471 97.9111 140.454 97.9284L137.21 102.295V102.286Z" fill="#92B6DA"/>
</g>
<g opacity="0.5">
<path d="M142.352 110.515C142.352 110.515 142.352 110.549 142.335 110.549L136.709 110.334C136.709 110.334 136.657 110.317 136.649 110.291L134.25 105.519C134.25 105.519 134.25 105.484 134.276 105.484L139.212 105.985C139.212 105.985 139.263 106.002 139.281 106.028L142.361 110.506L142.352 110.515Z" fill="#92B6DA"/>
</g>
<g opacity="0.5">
<path d="M150.619 119.068C150.619 119.068 150.593 119.094 150.585 119.077L146.866 114.849C146.866 114.849 146.84 114.797 146.848 114.78L148.652 109.758C148.652 109.758 148.678 109.732 148.695 109.758L151.724 113.684C151.724 113.684 151.75 113.735 151.741 113.761L150.611 119.085L150.619 119.068Z" fill="#92B6DA"/>
</g>
</g>
<mask id="mask0_180_22424" style="mask-type:alpha" maskUnits="userSpaceOnUse" x="0" y="411" width="340" height="167">
<path d="M338.62 577.337H220.309L197.112 555.825L196.359 555.127L196.274 556.149L194.505 577.337H136.44L128.717 570.172L127.966 569.476L127.879 570.496L127.293 577.337H110.763L106.512 569.086L106.249 568.575L105.779 568.906L93.8291 577.337H78.2988L63.4385 548.593L62.6406 547.051L62.4961 548.781L60.1016 577.337H45.2588L17.0996 563.96L16.4473 563.649L16.3867 564.37L15.3076 577.337H0.5V418.426C16.0941 422.407 35.5419 425.769 57.7764 428.309V428.308C60.4824 428.639 63.2403 428.936 66.0498 429.216L79.8604 440.393L80.6748 441.052V430.563C84.0805 430.859 87.5514 431.126 91.0605 431.367L124.556 458.473L125.37 459.132V433.099C136.183 433.468 147.323 433.641 158.663 433.641H161.494L169.088 458.223L170.065 458.075V433.573C174.448 433.536 178.8 433.459 183.09 433.339L183.089 433.338C186.07 433.276 189.008 433.196 191.935 433.099C197.698 432.916 203.387 432.681 208.982 432.387L213.847 440.258L214.145 440.741L214.586 440.384L225.684 431.402C230.938 431.031 236.069 430.618 241.116 430.172L258.53 458.348L259.456 459.845V428.327C263.106 427.912 266.687 427.466 270.207 427.012L303.463 440.468L304.151 440.746V421.361C309.795 420.181 315.045 418.943 319.893 417.63L325.679 422.312L325.983 421.935L326.297 422.321L326.788 421.924L326.787 421.923L338.62 412.348V577.337Z" fill="#C59B6D" stroke="#C59B6D"/>
</mask>
<g mask="url(#mask0_180_22424)">
<path d="M83.3909 78.1239L83.4512 85.2426C83.5116 92.6116 88.2404 98.5396 94.0045 98.4878L99.4581 98.4361C104.204 98.3929 108.372 102.44 109.64 108.282C113.256 124.944 119.564 161.84 118.649 213.216C117.441 281.159 91.3209 337.221 87.8003 343.356C87.6104 343.692 87.4379 344.02 87.2739 344.374L11.5371 461.751C10.7691 462.977 7.66267 471.278 7.26574 472.762C6.54953 475.471 6.5409 478.439 7.26574 481.201C15.1785 511.401 64.1309 674.857 120.78 676.608C201.548 679.111 237.531 679.093 244.27 675.029C245.064 674.555 245.78 673.968 246.453 673.252C255.98 663.156 320.982 569.24 333.503 473.849C333.891 470.872 333.028 467.861 331.682 465.375C309.41 424.225 263.608 374.247 245.866 335.754C227.53 295.984 216.079 235.03 215.889 213.251C215.743 196.278 215.95 135.134 216.804 108.972C217.028 102.146 221.257 96.6671 226.598 96.2789C232.785 95.8302 237.997 88.9789 238.169 81.0577L238.23 78.3223C238.394 70.7894 233.639 64.5508 227.746 64.5508L93.7888 64.6716C87.9987 64.6716 83.3391 70.7031 83.4081 78.1066L83.3909 78.1239Z" fill="#C59B6D" stroke="#C59B6D" stroke-width="9" stroke-miterlimit="10"/>
</g>
<path d="M191.415 530.844C191.936 541.889 194.199 551.421 193.125 562.018L158.936 562.039C158.06 551.463 159.509 541.889 160.897 530.666C152.083 537.018 144.73 543.078 135.103 548.292L117.435 518.172C126.853 512.581 136.24 508.764 146.232 504.644C136.178 500.389 126.864 497.145 117.644 491.107L134.863 461.267C144.469 466.075 152.156 472.166 160.907 479.092C156.015 475.191 159.238 478.445 159.238 478.445H192.823C192.739 484.286 193.633 473.389 194.29 478.771C202.853 472.67 207.435 466.117 216.749 461.027L234.428 491.096C225.155 496.989 216.029 500.358 205.766 504.696C215.925 508.733 225.228 512.633 234.428 518.234L217.093 548.376C208.082 543.589 200.551 537.748 191.425 530.854L191.415 530.844Z" fill="#603813"/>
<path d="M160.577 478.719C160.056 467.674 157.793 458.141 158.867 447.545L193.056 447.524C193.932 458.099 192.483 467.674 191.095 478.896C199.909 472.545 207.262 466.485 216.889 461.27L234.557 491.391C225.139 496.981 215.752 500.799 205.76 504.918C215.814 509.174 225.128 512.417 234.348 518.456L217.128 548.295C207.522 543.487 199.836 537.396 191.085 530.471C195.977 534.372 192.754 531.118 192.754 531.118H159.169C159.253 525.277 157.324 536.499 156.667 531.118C148.104 537.219 144.557 543.445 135.243 548.535L117.564 518.466C126.837 512.574 135.963 509.205 146.226 504.866C136.067 500.83 126.764 496.929 117.564 491.328L134.899 461.187C143.91 465.974 151.441 471.814 160.567 478.709L160.577 478.719Z" fill="#603813"/>
<rect x="94.2947" y="577.723" width="15.9762" height="0.101597" fill="#215523" stroke="#511E68" stroke-width="0.101597"/>
<rect x="94.5274" y="577.611" width="15.6811" height="0.136765" fill="#215523" stroke="#511E68" stroke-width="0.136765"/>
<line y1="-0.5" x2="0.357321" y2="-0.5" transform="matrix(0.898794 -0.438371 0.465074 0.885272 110.262 578.223)" stroke="#511E68"/>
<line y1="-0.5" x2="0.349388" y2="-0.5" transform="matrix(-0.572058 -0.820213 0.8416 -0.540102 94.655 577.805)" stroke="#511E68"/>
</svg>
