<svg width="340" height="683" viewBox="0 0 340 683" fill="none" xmlns="http://www.w3.org/2000/svg">
<path d="M83.3911 77.7919L83.4515 84.9107C83.5119 92.2797 88.2406 98.2077 94.0048 98.156L99.4583 98.1042C104.204 98.061 108.372 102.108 109.641 107.95C113.256 124.612 119.564 161.509 118.649 212.885C117.441 280.828 91.3211 336.89 87.8005 343.025C87.6107 343.362 87.4381 343.69 87.2742 344.043L11.5373 461.421C10.7694 462.647 7.66292 470.948 7.26598 472.432C6.54977 475.141 6.54115 478.11 7.26598 480.871C15.1788 511.072 64.1311 674.528 120.781 676.279C201.548 678.782 237.531 678.764 244.27 674.7C245.064 674.226 245.78 673.639 246.453 672.923C255.98 662.827 320.982 568.911 333.503 473.519C333.891 470.542 333.028 467.531 331.682 465.045C309.411 423.895 263.608 373.916 245.867 335.423C227.53 295.653 216.079 234.699 215.889 212.92C215.743 195.947 215.95 134.803 216.804 108.64C217.029 101.815 221.257 96.3353 226.598 95.947C232.785 95.4983 237.997 88.647 238.17 80.7257L238.23 77.9904C238.394 70.4574 233.639 64.2188 227.746 64.2188L93.789 64.3396C87.999 64.3396 83.3393 70.3711 83.4084 77.7747L83.3911 77.7919Z" fill="#DCD6CB" stroke="#DCD6CB" stroke-width="9" stroke-miterlimit="10"/>
<path d="M126.639 59.2262V43.9187C117.7 43.9187 110.512 37.9044 110.701 30.5871L110.969 20.4569C111.228 10.4474 121.246 2.44848 133.473 2.50025L192.237 2.58654C203.377 2.60379 212.42 9.96419 212.524 19.0849L212.653 31.4414C212.731 38.6292 205.802 44.5486 197.035 44.7902V59.4161L126.639 59.2348V59.2262Z" fill="#CDB43A" stroke="#CDB43A" stroke-width="5" stroke-miterlimit="10"/>
<path d="M116.31 120.531C124.335 148.092 127.666 176.878 128.304 205.525C129.832 277.309 109.157 350.438 64.7604 407.457C55.9243 418.778 46.3633 429.504 36.0344 439.418C45.673 428.84 54.7593 417.786 63.0605 406.197C71.2925 394.609 78.8947 382.46 85.539 369.896C125.578 294.644 133.87 203.342 116.31 120.531Z" fill="#E2E3E2"/>
<path d="M303.663 435.942C225.407 366.273 193.773 262.062 208.52 159.586C210.643 145.288 213.421 131.033 217.831 117.262C216.916 120.756 216.157 124.277 215.449 127.815C210.548 152.511 208.382 177.758 208.477 202.903C208.822 291.84 240.775 372.71 303.655 435.942H303.663Z" fill="#E2E3E2"/>
<path d="M89.5776 653.059C135.717 662.878 184.574 668.849 231.119 658.762C237.746 657.244 244.27 655.293 250.75 653.059C244.641 656.165 238.23 658.693 231.672 660.807C187.456 674.173 132.766 668.168 89.5776 653.059Z" fill="#E2E3E2"/>
<path d="M22.4612 460.973C20.6664 469.843 19.1822 478.636 21.4689 487.48C21.7191 488.835 22.2109 490.043 22.4612 491.424C21.9176 490.984 21.4171 490.501 20.9166 490C13.4439 482.139 14.8504 468.255 22.4612 460.973Z" fill="#E2E3E2"/>
<path d="M316.011 489.139C317.349 484.212 318.445 479.155 318.16 474.038C317.996 468.844 317.012 463.934 316.011 458.688C324.166 466.419 325.115 481.761 316.011 489.139Z" fill="#E2E3E2"/>
<path d="M94.7551 403.534C94.7551 403.534 147.616 341.881 216.303 402.153C284.99 462.426 94.7551 403.534 94.7551 403.534Z" fill="#F18CB8"/>
<path d="M38.183 493.195C44.4822 523.051 59.9195 587.577 82.0961 622.878C87.0836 630.825 94.8584 641.361 103.669 643.095C140.696 650.387 203.196 647.133 232.569 645.011C243.364 644.234 253.14 632.861 258.758 622.981C270.873 601.694 290.944 558.377 301.497 491.167C302.835 482.651 301.29 473.892 297.053 466.541C279.856 436.685 255.902 407.002 235.52 388.035C230.161 383.048 223.482 379.855 216.381 379.329C207.536 378.673 197.94 380.761 188.492 383.255C172.735 387.423 156.599 389.727 140.368 390.011C120.806 390.357 102.098 397.234 86.6867 409.288C78.9292 415.354 72.0088 422.732 66.2359 431.249L43.7142 464.452C38.0881 472.745 36.0776 483.203 38.183 493.186V493.195Z" fill="#D0518E"/>
<g opacity="0.5">
<g opacity="0.5">
<path d="M152.785 271.805C152.785 271.805 152.82 271.805 152.811 271.831L151.016 277.172C151.016 277.172 150.982 277.215 150.956 277.224L145.701 278.181C145.701 278.181 145.666 278.173 145.675 278.147L147.556 273.556C147.556 273.556 147.591 273.513 147.616 273.505L152.785 271.813V271.805Z" fill="#92B6DA"/>
</g>
<g opacity="0.5">
<path d="M153.337 262.104C153.337 262.104 153.355 262.07 153.372 262.087L157.842 265.513C157.842 265.513 157.876 265.556 157.868 265.582L157.074 270.862C157.074 270.862 157.057 270.888 157.031 270.88L153.294 267.618C153.294 267.618 153.26 267.566 153.26 267.549L153.329 262.113L153.337 262.104Z" fill="#92B6DA"/>
</g>
<g opacity="0.5">
<path d="M151.517 250.353C151.517 250.353 151.551 250.344 151.551 250.37L152.147 255.97C152.147 255.97 152.138 256.022 152.112 256.039L147.737 259.103C147.737 259.103 147.703 259.103 147.703 259.085L147.496 254.132C147.496 254.132 147.504 254.072 147.521 254.063L151.508 250.37L151.517 250.353Z" fill="#92B6DA"/>
</g>
<g opacity="0.5">
<path d="M141.835 269.922C141.835 269.922 141.87 269.922 141.861 269.948L140.066 275.289C140.066 275.289 140.032 275.332 140.006 275.341L134.751 276.299C134.751 276.299 134.716 276.29 134.725 276.264L136.606 271.674C136.606 271.674 136.64 271.63 136.666 271.622L141.835 269.93V269.922Z" fill="#92B6DA"/>
</g>
<g opacity="0.5">
<path d="M142.379 260.233C142.379 260.233 142.396 260.199 142.413 260.216L146.883 263.641C146.883 263.641 146.918 263.685 146.909 263.71L146.115 268.991C146.115 268.991 146.098 269.017 146.072 269.009L142.336 265.747C142.336 265.747 142.301 265.695 142.301 265.678L142.37 260.242L142.379 260.233Z" fill="#92B6DA"/>
</g>
<g opacity="0.5">
<path d="M140.567 248.482C140.567 248.482 140.601 248.473 140.601 248.499L141.196 254.099C141.196 254.099 141.188 254.151 141.162 254.168L136.787 257.231C136.787 257.231 136.753 257.231 136.753 257.214L136.545 252.261C136.545 252.261 136.554 252.201 136.571 252.192L140.558 248.499L140.567 248.482Z" fill="#92B6DA"/>
</g>
<g opacity="0.5">
<path d="M126.751 239.609C126.751 239.609 126.786 239.609 126.777 239.635L124.982 244.977C124.982 244.977 124.948 245.02 124.922 245.028L119.667 245.986C119.667 245.986 119.632 245.977 119.641 245.952L121.522 241.361C121.522 241.361 121.556 241.318 121.582 241.309L126.751 239.618V239.609Z" fill="#92B6DA"/>
</g>
<g opacity="0.5">
<path d="M127.303 229.921C127.303 229.921 127.321 229.886 127.338 229.903L131.808 233.329C131.808 233.329 131.842 233.372 131.834 233.398L131.04 238.679C131.04 238.679 131.023 238.705 130.997 238.696L127.26 235.434C127.26 235.434 127.226 235.383 127.226 235.365L127.295 229.929L127.303 229.921Z" fill="#92B6DA"/>
</g>
<g opacity="0.5">
<path d="M125.483 218.169C125.483 218.169 125.517 218.161 125.517 218.187L126.113 223.787C126.113 223.787 126.104 223.838 126.078 223.856L121.703 226.919C121.703 226.919 121.669 226.919 121.669 226.902L121.462 221.949C121.462 221.949 121.47 221.888 121.488 221.88L125.474 218.187L125.483 218.169Z" fill="#92B6DA"/>
</g>
<g opacity="0.5">
<path d="M115.801 237.742C115.801 237.742 115.836 237.742 115.827 237.768L114.032 243.109C114.032 243.109 113.998 243.152 113.972 243.161L108.717 244.119C108.717 244.119 108.682 244.11 108.691 244.084L110.572 239.494C110.572 239.494 110.606 239.451 110.632 239.442L115.801 237.751V237.742Z" fill="#92B6DA"/>
</g>
<g opacity="0.5">
<path d="M116.345 228.042C116.345 228.042 116.362 228.007 116.379 228.024L120.849 231.45C120.849 231.45 120.884 231.493 120.875 231.519L120.081 236.8C120.081 236.8 120.064 236.826 120.038 236.817L116.302 233.555C116.302 233.555 116.267 233.504 116.267 233.486L116.336 228.05L116.345 228.042Z" fill="#92B6DA"/>
</g>
<g opacity="0.5">
<path d="M114.533 216.287C114.533 216.287 114.567 216.278 114.567 216.304L115.162 221.904C115.162 221.904 115.154 221.956 115.128 221.973L110.753 225.036C110.753 225.036 110.719 225.036 110.719 225.019L110.511 220.066C110.511 220.066 110.52 220.006 110.537 219.997L114.524 216.304L114.533 216.287Z" fill="#92B6DA"/>
</g>
<g opacity="0.5">
<path d="M149.506 242.977C149.506 242.977 149.541 242.977 149.532 243.002L147.737 248.344C147.737 248.344 147.703 248.387 147.677 248.395L142.422 249.353C142.422 249.353 142.387 249.345 142.396 249.319L144.277 244.728C144.277 244.728 144.311 244.685 144.337 244.676L149.506 242.985V242.977Z" fill="#92B6DA"/>
</g>
<g opacity="0.5">
<path d="M150.05 233.276C150.05 233.276 150.067 233.241 150.084 233.259L154.554 236.684C154.554 236.684 154.589 236.728 154.58 236.753L153.786 242.034C153.786 242.034 153.769 242.06 153.743 242.052L150.007 238.79C150.007 238.79 149.972 238.738 149.972 238.721L150.041 233.285L150.05 233.276Z" fill="#92B6DA"/>
</g>
<g opacity="0.5">
<path d="M148.238 221.525C148.238 221.525 148.272 221.516 148.272 221.542L148.868 227.142C148.868 227.142 148.859 227.194 148.833 227.211L144.458 230.274C144.458 230.274 144.424 230.274 144.424 230.257L144.217 225.304C144.217 225.304 144.225 225.244 144.242 225.235L148.229 221.542L148.238 221.525Z" fill="#92B6DA"/>
</g>
<g opacity="0.5">
<path d="M138.547 241.094C138.547 241.094 138.582 241.094 138.573 241.12L136.778 246.461C136.778 246.461 136.744 246.504 136.718 246.513L131.463 247.47C131.463 247.47 131.428 247.462 131.437 247.436L133.318 242.845C133.318 242.845 133.353 242.802 133.378 242.794L138.547 241.102V241.094Z" fill="#92B6DA"/>
</g>
<g opacity="0.5">
<path d="M139.099 231.405C139.099 231.405 139.117 231.37 139.134 231.388L143.604 234.813C143.604 234.813 143.638 234.856 143.63 234.882L142.836 240.163C142.836 240.163 142.819 240.189 142.793 240.18L139.056 236.919C139.056 236.919 139.022 236.867 139.022 236.85L139.091 231.414L139.099 231.405Z" fill="#92B6DA"/>
</g>
<g opacity="0.5">
<path d="M137.287 219.65C137.287 219.65 137.322 219.641 137.322 219.667L137.917 225.267C137.917 225.267 137.909 225.319 137.883 225.336L133.508 228.399C133.508 228.399 133.473 228.399 133.473 228.382L133.266 223.429C133.266 223.429 133.275 223.369 133.292 223.36L137.279 219.667L137.287 219.65Z" fill="#92B6DA"/>
</g>
<g opacity="0.5">
<path d="M129.409 270.348C129.409 270.348 129.444 270.348 129.435 270.374L127.64 275.715C127.64 275.715 127.606 275.758 127.58 275.767L122.325 276.724C122.325 276.724 122.29 276.716 122.299 276.69L124.18 272.099C124.18 272.099 124.214 272.056 124.24 272.048L129.409 270.356V270.348Z" fill="#92B6DA"/>
</g>
<g opacity="0.5">
<path d="M129.953 260.647C129.953 260.647 129.97 260.613 129.987 260.63L134.457 264.055C134.457 264.055 134.492 264.099 134.483 264.125L133.689 269.405C133.689 269.405 133.672 269.431 133.646 269.423L129.909 266.161C129.909 266.161 129.875 266.109 129.875 266.092L129.944 260.656L129.953 260.647Z" fill="#92B6DA"/>
</g>
<g opacity="0.5">
<path d="M128.141 248.896C128.141 248.896 128.175 248.887 128.175 248.913L128.77 254.513C128.77 254.513 128.762 254.565 128.736 254.582L124.361 257.646C124.361 257.646 124.326 257.646 124.326 257.628L124.119 252.675C124.119 252.675 124.128 252.615 124.145 252.606L128.132 248.913L128.141 248.896Z" fill="#92B6DA"/>
</g>
<g opacity="0.5">
<path d="M118.45 268.469C118.45 268.469 118.485 268.469 118.476 268.495L116.681 273.836C116.681 273.836 116.647 273.879 116.621 273.888L111.366 274.845C111.366 274.845 111.331 274.837 111.34 274.811L113.221 270.22C113.221 270.22 113.256 270.177 113.282 270.169L118.45 268.477V268.469Z" fill="#92B6DA"/>
</g>
<g opacity="0.5">
<path d="M119.002 258.776C119.002 258.776 119.019 258.741 119.037 258.759L123.507 262.184C123.507 262.184 123.541 262.228 123.532 262.253L122.739 267.534C122.739 267.534 122.721 267.56 122.695 267.552L118.959 264.29C118.959 264.29 118.925 264.238 118.925 264.221L118.994 258.785L119.002 258.776Z" fill="#92B6DA"/>
</g>
<g opacity="0.5">
<path d="M117.19 247.013C117.19 247.013 117.225 247.004 117.225 247.03L117.82 252.63C117.82 252.63 117.812 252.682 117.786 252.699L113.411 255.763C113.411 255.763 113.376 255.763 113.376 255.745L113.169 250.793C113.169 250.793 113.178 250.732 113.195 250.724L117.182 247.03L117.19 247.013Z" fill="#92B6DA"/>
</g>
<g opacity="0.5">
<path d="M170.543 246.781C170.543 246.781 170.578 246.781 170.569 246.807L168.774 252.148C168.774 252.148 168.74 252.192 168.714 252.2L163.459 253.158C163.459 253.158 163.424 253.149 163.433 253.123L165.314 248.533C165.314 248.533 165.349 248.49 165.375 248.481L170.543 246.79V246.781Z" fill="#92B6DA"/>
</g>
<g opacity="0.5">
<path d="M171.096 237.092C171.096 237.092 171.113 237.058 171.13 237.075L175.6 240.501C175.6 240.501 175.635 240.544 175.626 240.57L174.832 245.851C174.832 245.851 174.815 245.877 174.789 245.868L171.053 242.606C171.053 242.606 171.018 242.554 171.018 242.537L171.087 237.101L171.096 237.092Z" fill="#92B6DA"/>
</g>
<g opacity="0.5">
<path d="M169.284 225.337C169.284 225.337 169.318 225.329 169.318 225.355L169.914 230.955C169.914 230.955 169.905 231.006 169.879 231.024L165.504 234.087C165.504 234.087 165.47 234.087 165.47 234.07L165.263 229.117C165.263 229.117 165.271 229.056 165.289 229.048L169.275 225.355L169.284 225.337Z" fill="#92B6DA"/>
</g>
<g opacity="0.5">
<path d="M159.593 244.898C159.593 244.898 159.628 244.898 159.619 244.924L157.824 250.266C157.824 250.266 157.79 250.309 157.764 250.317L152.509 251.275C152.509 251.275 152.474 251.267 152.483 251.241L154.364 246.65C154.364 246.65 154.399 246.607 154.425 246.598L159.593 244.907V244.898Z" fill="#92B6DA"/>
</g>
<g opacity="0.5">
<path d="M160.137 235.21C160.137 235.21 160.154 235.175 160.172 235.192L164.641 238.618C164.641 238.618 164.676 238.661 164.667 238.687L163.873 243.968C163.873 243.968 163.856 243.994 163.83 243.985L160.094 240.723C160.094 240.723 160.059 240.672 160.059 240.654L160.128 235.218L160.137 235.21Z" fill="#92B6DA"/>
</g>
<g opacity="0.5">
<path d="M158.325 223.458C158.325 223.458 158.36 223.45 158.36 223.476L158.955 229.076C158.955 229.076 158.946 229.128 158.92 229.145L154.546 232.208C154.546 232.208 154.511 232.208 154.511 232.191L154.304 227.238C154.304 227.238 154.313 227.177 154.33 227.169L158.316 223.476L158.325 223.458Z" fill="#92B6DA"/>
</g>
<g opacity="0.5">
<path d="M173.65 255.615C173.65 255.615 173.685 255.606 173.685 255.632L174.28 261.232C174.28 261.232 174.271 261.284 174.245 261.301L169.871 264.364C169.871 264.364 169.836 264.364 169.836 264.347L169.629 259.394C169.629 259.394 169.638 259.334 169.655 259.325L173.641 255.632L173.65 255.615Z" fill="#92B6DA"/>
</g>
<g opacity="0.5">
<path d="M163.96 275.188C163.96 275.188 163.994 275.187 163.985 275.213L162.191 280.555C162.191 280.555 162.156 280.598 162.13 280.606L156.875 281.564C156.875 281.564 156.841 281.556 156.849 281.53L158.73 276.939C158.73 276.939 158.765 276.896 158.791 276.887L163.96 275.196V275.188Z" fill="#92B6DA"/>
</g>
<g opacity="0.5">
<path d="M164.503 265.495C164.503 265.495 164.52 265.46 164.538 265.477L169.008 268.903C169.008 268.903 169.042 268.946 169.033 268.972L168.24 274.253C168.24 274.253 168.222 274.279 168.196 274.27L164.46 271.009C164.46 271.009 164.426 270.957 164.426 270.94L164.495 265.503L164.503 265.495Z" fill="#92B6DA"/>
</g>
<g opacity="0.5">
<path d="M162.691 253.736C162.691 253.736 162.726 253.727 162.726 253.753L163.321 259.353C163.321 259.353 163.313 259.405 163.287 259.422L158.912 262.485C158.912 262.485 158.877 262.485 158.877 262.468L158.67 257.515C158.67 257.515 158.679 257.455 158.696 257.446L162.683 253.753L162.691 253.736Z" fill="#92B6DA"/>
</g>
<g opacity="0.5">
<path d="M168.87 214.957C168.87 214.957 168.904 214.957 168.895 214.983L167.101 220.324C167.101 220.324 167.066 220.367 167.04 220.376L161.785 221.334C161.785 221.334 161.751 221.325 161.759 221.299L163.64 216.709C163.64 216.709 163.675 216.666 163.701 216.657L168.87 214.966V214.957Z" fill="#92B6DA"/>
</g>
<g opacity="0.5">
<path d="M157.911 213.078C157.911 213.078 157.946 213.078 157.937 213.104L156.142 218.445C156.142 218.445 156.108 218.488 156.082 218.497L150.827 219.455C150.827 219.455 150.792 219.446 150.801 219.42L152.682 214.83C152.682 214.83 152.716 214.787 152.742 214.778L157.911 213.087V213.078Z" fill="#92B6DA"/>
</g>
<g opacity="0.5">
<path d="M158.463 203.385C158.463 203.385 158.48 203.351 158.497 203.368L162.967 206.794C162.967 206.794 163.002 206.837 162.993 206.863L162.199 212.144C162.199 212.144 162.182 212.17 162.156 212.161L158.42 208.899C158.42 208.899 158.385 208.847 158.385 208.83L158.454 203.394L158.463 203.385Z" fill="#92B6DA"/>
</g>
<g opacity="0.5">
<path d="M156.651 191.626C156.651 191.626 156.685 191.618 156.685 191.644L157.281 197.244C157.281 197.244 157.272 197.296 157.246 197.313L152.871 200.376C152.871 200.376 152.837 200.376 152.837 200.359L152.63 195.406C152.63 195.406 152.638 195.345 152.656 195.337L156.642 191.644L156.651 191.626Z" fill="#92B6DA"/>
</g>
<g opacity="0.5">
<path d="M146.451 211.402C146.451 211.402 146.486 211.402 146.477 211.428L144.682 216.769C144.682 216.769 144.648 216.813 144.622 216.821L139.367 217.779C139.367 217.779 139.332 217.77 139.341 217.745L141.222 213.154C141.222 213.154 141.257 213.111 141.283 213.102L146.451 211.411V211.402Z" fill="#92B6DA"/>
</g>
<g opacity="0.5">
<path d="M147.004 201.702C147.004 201.702 147.021 201.667 147.038 201.685L151.508 205.11C151.508 205.11 151.543 205.153 151.534 205.179L150.74 210.46C150.74 210.46 150.723 210.486 150.697 210.477L146.961 207.216C146.961 207.216 146.926 207.164 146.926 207.147L146.995 201.71L147.004 201.702Z" fill="#92B6DA"/>
</g>
<g opacity="0.5">
<path d="M145.192 189.951C145.192 189.951 145.226 189.942 145.226 189.968L145.822 195.568C145.822 195.568 145.813 195.62 145.787 195.637L141.412 198.7C141.412 198.7 141.378 198.7 141.378 198.683L141.171 193.73C141.171 193.73 141.179 193.67 141.197 193.661L145.183 189.968L145.192 189.951Z" fill="#92B6DA"/>
</g>
<g opacity="0.5">
<path d="M135.501 209.52C135.501 209.52 135.536 209.52 135.527 209.545L133.732 214.887C133.732 214.887 133.698 214.93 133.672 214.938L128.417 215.896C128.417 215.896 128.382 215.888 128.391 215.862L130.272 211.271C130.272 211.271 130.306 211.228 130.332 211.219L135.501 209.528V209.52Z" fill="#92B6DA"/>
</g>
<g opacity="0.5">
<path d="M136.045 199.831C136.045 199.831 136.062 199.796 136.079 199.813L140.549 203.239C140.549 203.239 140.584 203.282 140.575 203.308L139.781 208.589C139.781 208.589 139.764 208.615 139.738 208.606L136.002 205.345C136.002 205.345 135.967 205.293 135.967 205.275L136.036 199.839L136.045 199.831Z" fill="#92B6DA"/>
</g>
<g opacity="0.5">
<path d="M134.233 188.068C134.233 188.068 134.267 188.059 134.267 188.085L134.863 193.685C134.863 193.685 134.854 193.737 134.828 193.754L130.453 196.817C130.453 196.817 130.419 196.817 130.419 196.8L130.212 191.847C130.212 191.847 130.22 191.787 130.238 191.778L134.224 188.085L134.233 188.068Z" fill="#92B6DA"/>
</g>
<g opacity="0.5">
<path d="M124.042 208.02C124.042 208.02 124.076 208.02 124.068 208.045L122.273 213.387C122.273 213.387 122.238 213.43 122.213 213.438L116.957 214.396C116.957 214.396 116.923 214.388 116.932 214.362L118.813 209.771C118.813 209.771 118.847 209.728 118.873 209.719L124.042 208.028V208.02Z" fill="#92B6DA"/>
</g>
<g opacity="0.5">
<path d="M124.594 198.323C124.594 198.323 124.612 198.288 124.629 198.306L129.099 201.731C129.099 201.731 129.133 201.774 129.125 201.8L128.331 207.081C128.331 207.081 128.313 207.107 128.287 207.098L124.551 203.837C124.551 203.837 124.517 203.785 124.517 203.768L124.586 198.331L124.594 198.323Z" fill="#92B6DA"/>
</g>
<g opacity="0.5">
<path d="M122.782 186.568C122.782 186.568 122.817 186.559 122.817 186.585L123.412 192.185C123.412 192.185 123.403 192.237 123.378 192.254L119.003 195.317C119.003 195.317 118.968 195.317 118.968 195.3L118.761 190.347C118.761 190.347 118.77 190.287 118.787 190.278L122.773 186.585L122.782 186.568Z" fill="#92B6DA"/>
</g>
<g opacity="0.5">
<path d="M113.092 206.137C113.092 206.137 113.126 206.137 113.118 206.163L111.323 211.504C111.323 211.504 111.288 211.547 111.263 211.556L106.007 212.513C106.007 212.513 105.973 212.505 105.982 212.479L107.863 207.888C107.863 207.888 107.897 207.845 107.923 207.837L113.092 206.145V206.137Z" fill="#92B6DA"/>
</g>
<g opacity="0.5">
<path d="M113.644 196.448C113.644 196.448 113.661 196.413 113.679 196.431L118.148 199.856C118.148 199.856 118.183 199.899 118.174 199.925L117.38 205.206C117.38 205.206 117.363 205.232 117.337 205.223L113.601 201.962C113.601 201.962 113.566 201.91 113.566 201.893L113.635 196.456L113.644 196.448Z" fill="#92B6DA"/>
</g>
<g opacity="0.5">
<path d="M149.584 359.723C149.584 359.723 149.618 359.723 149.61 359.749L147.815 365.09C147.815 365.09 147.78 365.133 147.754 365.142L142.499 366.099C142.499 366.099 142.465 366.091 142.473 366.065L144.354 361.474C144.354 361.474 144.389 361.431 144.415 361.423L149.584 359.731V359.723Z" fill="#92B6DA"/>
</g>
<g opacity="0.5">
<path d="M150.127 350.034C150.127 350.034 150.145 349.999 150.162 350.017L154.632 353.442C154.632 353.442 154.666 353.485 154.658 353.511L153.864 358.792C153.864 358.792 153.847 358.818 153.821 358.809L150.084 355.548C150.084 355.548 150.05 355.496 150.05 355.479L150.119 350.042L150.127 350.034Z" fill="#92B6DA"/>
</g>
<g opacity="0.5">
<path d="M148.315 338.283C148.315 338.283 148.35 338.274 148.35 338.3L148.945 343.9C148.945 343.9 148.937 343.952 148.911 343.969L144.536 347.032C144.536 347.032 144.501 347.032 144.501 347.015L144.294 342.062C144.294 342.062 144.303 342.002 144.32 341.993L148.307 338.3L148.315 338.283Z" fill="#92B6DA"/>
</g>
<g opacity="0.5">
<path d="M138.625 357.852C138.625 357.852 138.66 357.852 138.651 357.877L136.856 363.219C136.856 363.219 136.822 363.262 136.796 363.27L131.541 364.228C131.541 364.228 131.506 364.22 131.515 364.194L133.396 359.603C133.396 359.603 133.43 359.56 133.456 359.551L138.625 357.86V357.852Z" fill="#92B6DA"/>
</g>
<g opacity="0.5">
<path d="M139.178 348.155C139.178 348.155 139.195 348.12 139.212 348.138L143.682 351.563C143.682 351.563 143.716 351.606 143.708 351.632L142.914 356.913C142.914 356.913 142.897 356.939 142.871 356.93L139.134 353.669C139.134 353.669 139.1 353.617 139.1 353.6L139.169 348.164L139.178 348.155Z" fill="#92B6DA"/>
</g>
<g opacity="0.5">
<path d="M137.365 336.4C137.365 336.4 137.4 336.391 137.4 336.417L137.995 342.017C137.995 342.017 137.986 342.069 137.961 342.086L133.586 345.149C133.586 345.149 133.551 345.149 133.551 345.132L133.344 340.179C133.344 340.179 133.353 340.119 133.37 340.11L137.356 336.417L137.365 336.4Z" fill="#92B6DA"/>
</g>
<g opacity="0.5">
<path d="M123.55 327.539C123.55 327.539 123.585 327.539 123.576 327.565L121.781 332.906C121.781 332.906 121.747 332.949 121.721 332.958L116.466 333.916C116.466 333.916 116.431 333.907 116.44 333.881L118.321 329.291C118.321 329.291 118.356 329.248 118.381 329.239L123.55 327.548V327.539Z" fill="#92B6DA"/>
</g>
<g opacity="0.5">
<path d="M124.094 317.839C124.094 317.839 124.111 317.804 124.128 317.821L128.598 321.247C128.598 321.247 128.633 321.29 128.624 321.316L127.83 326.597C127.83 326.597 127.813 326.623 127.787 326.614L124.051 323.352C124.051 323.352 124.016 323.301 124.016 323.283L124.085 317.847L124.094 317.839Z" fill="#92B6DA"/>
</g>
<g opacity="0.5">
<path d="M122.281 306.087C122.281 306.087 122.316 306.079 122.316 306.105L122.911 311.705C122.911 311.705 122.903 311.756 122.877 311.774L118.502 314.837C118.502 314.837 118.467 314.837 118.467 314.82L118.26 309.867C118.26 309.867 118.269 309.806 118.286 309.798L122.273 306.105L122.281 306.087Z" fill="#92B6DA"/>
</g>
<g opacity="0.5">
<path d="M112.591 325.656C112.591 325.656 112.626 325.656 112.617 325.682L110.822 331.023C110.822 331.023 110.788 331.067 110.762 331.075L105.507 332.033C105.507 332.033 105.472 332.024 105.481 331.998L107.362 327.408C107.362 327.408 107.397 327.365 107.422 327.356L112.591 325.665V325.656Z" fill="#92B6DA"/>
</g>
<g opacity="0.5">
<path d="M113.143 315.967C113.143 315.967 113.161 315.933 113.178 315.95L117.648 319.376C117.648 319.376 117.682 319.419 117.674 319.445L116.88 324.726C116.88 324.726 116.862 324.752 116.837 324.743L113.1 321.481C113.1 321.481 113.066 321.429 113.066 321.412L113.135 315.976L113.143 315.967Z" fill="#92B6DA"/>
</g>
<g opacity="0.5">
<path d="M111.331 304.212C111.331 304.212 111.366 304.204 111.366 304.23L111.961 309.83C111.961 309.83 111.953 309.881 111.927 309.899L107.552 312.962C107.552 312.962 107.517 312.962 107.517 312.945L107.31 307.992C107.31 307.992 107.319 307.931 107.336 307.923L111.323 304.23L111.331 304.212Z" fill="#92B6DA"/>
</g>
<g opacity="0.5">
<path d="M146.305 330.895C146.305 330.895 146.34 330.895 146.331 330.92L144.536 336.262C144.536 336.262 144.502 336.305 144.476 336.313L139.221 337.271C139.221 337.271 139.186 337.263 139.195 337.237L141.076 332.646C141.076 332.646 141.11 332.603 141.136 332.594L146.305 330.903V330.895Z" fill="#92B6DA"/>
</g>
<g opacity="0.5">
<path d="M145.036 309.451C145.036 309.451 145.071 309.442 145.071 309.468L145.666 315.068C145.666 315.068 145.658 315.12 145.632 315.137L141.257 318.2C141.257 318.2 141.222 318.2 141.222 318.183L141.015 313.23C141.015 313.23 141.024 313.17 141.041 313.161L145.028 309.468L145.036 309.451Z" fill="#92B6DA"/>
</g>
<g opacity="0.5">
<path d="M135.346 329.023C135.346 329.023 135.381 329.023 135.372 329.049L133.577 334.391C133.577 334.391 133.543 334.434 133.517 334.442L128.262 335.4C128.262 335.4 128.227 335.392 128.236 335.366L130.117 330.775C130.117 330.775 130.151 330.732 130.177 330.723L135.346 329.032V329.023Z" fill="#92B6DA"/>
</g>
<g opacity="0.5">
<path d="M135.898 319.327C135.898 319.327 135.915 319.292 135.933 319.31L140.403 322.735C140.403 322.735 140.437 322.778 140.428 322.804L139.635 328.085C139.635 328.085 139.617 328.111 139.591 328.102L135.855 324.841C135.855 324.841 135.821 324.789 135.821 324.772L135.89 319.335L135.898 319.327Z" fill="#92B6DA"/>
</g>
<g opacity="0.5">
<path d="M134.086 307.572C134.086 307.572 134.121 307.563 134.121 307.589L134.716 313.189C134.716 313.189 134.708 313.241 134.682 313.258L130.307 316.321C130.307 316.321 130.272 316.321 130.272 316.304L130.065 311.351C130.065 311.351 130.074 311.291 130.091 311.282L134.078 307.589L134.086 307.572Z" fill="#92B6DA"/>
</g>
<g opacity="0.5">
<path d="M126.752 348.577C126.752 348.577 126.769 348.542 126.786 348.56L131.256 351.985C131.256 351.985 131.29 352.028 131.282 352.054L130.488 357.335C130.488 357.335 130.471 357.361 130.445 357.352L126.708 354.091C126.708 354.091 126.674 354.039 126.674 354.022L126.743 348.585L126.752 348.577Z" fill="#92B6DA"/>
</g>
<g opacity="0.5">
<path d="M124.939 336.822C124.939 336.822 124.974 336.813 124.974 336.839L125.569 342.439C125.569 342.439 125.561 342.491 125.535 342.508L121.16 345.571C121.16 345.571 121.125 345.571 121.125 345.554L120.918 340.601C120.918 340.601 120.927 340.541 120.944 340.532L124.931 336.839L124.939 336.822Z" fill="#92B6DA"/>
</g>
<g opacity="0.5">
<path d="M115.801 346.694C115.801 346.694 115.819 346.659 115.836 346.677L120.306 350.102C120.306 350.102 120.34 350.146 120.332 350.171L119.538 355.452C119.538 355.452 119.52 355.478 119.495 355.469L115.758 352.208C115.758 352.208 115.724 352.156 115.724 352.139L115.793 346.703L115.801 346.694Z" fill="#92B6DA"/>
</g>
<g opacity="0.5">
<path d="M113.989 334.939C113.989 334.939 114.024 334.93 114.024 334.956L114.619 340.556C114.619 340.556 114.61 340.608 114.585 340.625L110.21 343.689C110.21 343.689 110.175 343.689 110.175 343.671L109.968 338.718C109.968 338.718 109.977 338.658 109.994 338.649L113.981 334.956L113.989 334.939Z" fill="#92B6DA"/>
</g>
<g opacity="0.5">
<path d="M171.709 364.984C171.709 364.984 171.743 364.984 171.734 365.01L169.94 370.352C169.94 370.352 169.905 370.395 169.879 370.403L164.624 371.361C164.624 371.361 164.59 371.352 164.598 371.327L166.479 366.736C166.479 366.736 166.514 366.693 166.54 366.684L171.709 364.993V364.984Z" fill="#92B6DA"/>
</g>
<g opacity="0.5">
<path d="M160.75 363.105C160.75 363.105 160.784 363.105 160.776 363.131L158.981 368.473C158.981 368.473 158.946 368.516 158.921 368.524L153.665 369.482C153.665 369.482 153.631 369.474 153.64 369.448L155.521 364.857C155.521 364.857 155.555 364.814 155.581 364.805L160.75 363.114V363.105Z" fill="#92B6DA"/>
</g>
<g opacity="0.5">
<path d="M161.302 353.417C161.302 353.417 161.319 353.382 161.336 353.399L165.806 356.825C165.806 356.825 165.841 356.868 165.832 356.894L165.038 362.175C165.038 362.175 165.021 362.201 164.995 362.192L161.259 358.93C161.259 358.93 161.224 358.879 161.224 358.861L161.293 353.425L161.302 353.417Z" fill="#92B6DA"/>
</g>
<g opacity="0.5">
<path d="M159.49 341.662C159.49 341.662 159.524 341.653 159.524 341.679L160.12 347.279C160.12 347.279 160.111 347.331 160.085 347.348L155.71 350.411C155.71 350.411 155.676 350.411 155.676 350.394L155.469 345.441C155.469 345.441 155.477 345.381 155.494 345.372L159.481 341.679L159.49 341.662Z" fill="#92B6DA"/>
</g>
<g opacity="0.5">
<path d="M164.4 281.431C164.4 281.431 164.434 281.422 164.434 281.448L165.03 287.048C165.03 287.048 165.021 287.1 164.995 287.117L160.62 290.181C160.62 290.181 160.586 290.181 160.586 290.163L160.379 285.211C160.379 285.211 160.387 285.15 160.405 285.141L164.391 281.448L164.4 281.431Z" fill="#92B6DA"/>
</g>
<g opacity="0.5">
<path d="M154.709 300.992C154.709 300.992 154.744 300.992 154.735 301.018L152.94 306.359C152.94 306.359 152.906 306.402 152.88 306.411L147.625 307.369C147.625 307.369 147.59 307.36 147.599 307.334L149.48 302.744C149.48 302.744 149.515 302.701 149.541 302.692L154.709 301.001V300.992Z" fill="#92B6DA"/>
</g>
<g opacity="0.5">
<path d="M155.262 291.303C155.262 291.303 155.279 291.269 155.296 291.286L159.766 294.712C159.766 294.712 159.801 294.755 159.792 294.781L158.998 300.062C158.998 300.062 158.981 300.087 158.955 300.079L155.219 296.817C155.219 296.817 155.184 296.765 155.184 296.748L155.253 291.312L155.262 291.303Z" fill="#92B6DA"/>
</g>
<g opacity="0.5">
<path d="M153.45 279.552C153.45 279.552 153.484 279.544 153.484 279.569L154.08 285.17C154.08 285.17 154.071 285.221 154.045 285.239L149.67 288.302C149.67 288.302 149.636 288.302 149.636 288.285L149.429 283.332C149.429 283.332 149.437 283.271 149.455 283.263L153.441 279.569L153.45 279.552Z" fill="#92B6DA"/>
</g>
<g opacity="0.5">
<path d="M143.25 299.32C143.25 299.32 143.285 299.32 143.276 299.346L141.481 304.687C141.481 304.687 141.447 304.731 141.421 304.739L136.166 305.697C136.166 305.697 136.131 305.688 136.14 305.663L138.021 301.072C138.021 301.072 138.055 301.029 138.081 301.02L143.25 299.329V299.32Z" fill="#92B6DA"/>
</g>
<g opacity="0.5">
<path d="M143.802 289.631C143.802 289.631 143.82 289.597 143.837 289.614L148.307 293.04C148.307 293.04 148.341 293.083 148.332 293.109L147.539 298.39C147.539 298.39 147.521 298.416 147.495 298.407L143.759 295.145C143.759 295.145 143.725 295.094 143.725 295.076L143.794 289.64L143.802 289.631Z" fill="#92B6DA"/>
</g>
<g opacity="0.5">
<path d="M141.982 277.88C141.982 277.88 142.016 277.872 142.016 277.898L142.611 283.498C142.611 283.498 142.603 283.549 142.577 283.567L138.202 286.63C138.202 286.63 138.168 286.63 138.168 286.613L137.96 281.66C137.96 281.66 137.969 281.599 137.986 281.591L141.973 277.898L141.982 277.88Z" fill="#92B6DA"/>
</g>
<g opacity="0.5">
<path d="M132.291 297.441C132.291 297.441 132.326 297.441 132.317 297.467L130.522 302.809C130.522 302.809 130.488 302.852 130.462 302.86L125.207 303.818C125.207 303.818 125.172 303.809 125.181 303.784L127.062 299.193C127.062 299.193 127.096 299.15 127.122 299.141L132.291 297.45V297.441Z" fill="#92B6DA"/>
</g>
<g opacity="0.5">
<path d="M132.843 287.753C132.843 287.753 132.861 287.718 132.878 287.735L137.348 291.161C137.348 291.161 137.382 291.204 137.374 291.23L136.58 296.511C136.58 296.511 136.562 296.537 136.537 296.528L132.8 293.266C132.8 293.266 132.766 293.215 132.766 293.197L132.835 287.761L132.843 287.753Z" fill="#92B6DA"/>
</g>
<g opacity="0.5">
<path d="M131.031 275.997C131.031 275.997 131.066 275.989 131.066 276.015L131.661 281.615C131.661 281.615 131.653 281.667 131.627 281.684L127.252 284.747C127.252 284.747 127.217 284.747 127.217 284.73L127.01 279.777C127.01 279.777 127.019 279.717 127.036 279.708L131.023 276.015L131.031 275.997Z" fill="#92B6DA"/>
</g>
<g opacity="0.5">
<path d="M120.84 295.938C120.84 295.938 120.875 295.937 120.866 295.963L119.072 301.305C119.072 301.305 119.037 301.348 119.011 301.356L113.756 302.314C113.756 302.314 113.722 302.306 113.73 302.28L115.611 297.689C115.611 297.689 115.646 297.646 115.672 297.637L120.84 295.946V295.938Z" fill="#92B6DA"/>
</g>
<g opacity="0.5">
<path d="M121.393 286.249C121.393 286.249 121.41 286.214 121.428 286.231L125.897 289.657C125.897 289.657 125.932 289.7 125.923 289.726L125.129 295.007C125.129 295.007 125.112 295.033 125.086 295.024L121.35 291.762C121.35 291.762 121.315 291.711 121.315 291.693L121.384 286.257L121.393 286.249Z" fill="#92B6DA"/>
</g>
<g opacity="0.5">
<path d="M119.581 274.494C119.581 274.494 119.615 274.485 119.615 274.511L120.211 280.111C120.211 280.111 120.202 280.163 120.176 280.18L115.801 283.243C115.801 283.243 115.767 283.243 115.767 283.226L115.56 278.273C115.56 278.273 115.568 278.213 115.585 278.204L119.572 274.511L119.581 274.494Z" fill="#92B6DA"/>
</g>
<g opacity="0.5">
<path d="M109.89 294.066C109.89 294.066 109.925 294.066 109.916 294.092L108.121 299.434C108.121 299.434 108.087 299.477 108.061 299.485L102.806 300.443C102.806 300.443 102.771 300.434 102.78 300.409L104.661 295.818C104.661 295.818 104.696 295.775 104.721 295.766L109.89 294.075V294.066Z" fill="#92B6DA"/>
</g>
<g opacity="0.5">
<path d="M110.434 284.37C110.434 284.37 110.451 284.335 110.469 284.352L114.938 287.778C114.938 287.778 114.973 287.821 114.964 287.847L114.17 293.128C114.17 293.128 114.153 293.154 114.127 293.145L110.391 289.884C110.391 289.884 110.356 289.832 110.356 289.815L110.425 284.378L110.434 284.37Z" fill="#92B6DA"/>
</g>
<g opacity="0.5">
<path d="M108.622 272.615C108.622 272.615 108.656 272.606 108.656 272.632L109.252 278.232C109.252 278.232 109.243 278.284 109.217 278.301L104.842 281.364C104.842 281.364 104.808 281.364 104.808 281.347L104.601 276.394C104.601 276.394 104.609 276.334 104.627 276.325L108.613 272.632L108.622 272.615Z" fill="#92B6DA"/>
</g>
</g>
<g opacity="0.5">
<g opacity="0.5">
<path d="M114.533 145.212C114.533 145.212 114.499 145.229 114.499 145.212L112.885 139.81C112.885 139.81 112.885 139.758 112.902 139.741L116.639 135.936C116.639 135.936 116.673 135.927 116.682 135.944L117.795 140.777C117.795 140.777 117.795 140.837 117.778 140.854L114.533 145.22V145.212Z" fill="#92B6DA"/>
</g>
<g opacity="0.5">
<path d="M119.676 153.441C119.676 153.441 119.676 153.475 119.658 153.475L114.032 153.26C114.032 153.26 113.98 153.242 113.972 153.216L111.573 148.445C111.573 148.445 111.573 148.41 111.599 148.41L116.535 148.911C116.535 148.911 116.586 148.928 116.604 148.954L119.684 153.432L119.676 153.441Z" fill="#92B6DA"/>
</g>
<g opacity="0.5">
<path d="M127.942 161.994C127.942 161.994 127.916 162.02 127.908 162.003L124.189 157.774C124.189 157.774 124.163 157.723 124.171 157.705L125.975 152.683C125.975 152.683 126.001 152.657 126.018 152.683L129.047 156.61C129.047 156.61 129.073 156.661 129.064 156.687L127.934 162.011L127.942 161.994Z" fill="#92B6DA"/>
</g>
<g opacity="0.5">
<path d="M124.569 140.423C124.569 140.423 124.534 140.44 124.534 140.423L122.92 135.021C122.92 135.021 122.92 134.969 122.938 134.952L126.674 131.147C126.674 131.147 126.709 131.138 126.717 131.155L127.83 135.987C127.83 135.987 127.83 136.048 127.813 136.065L124.569 140.431V140.423Z" fill="#92B6DA"/>
</g>
<g opacity="0.5">
<path d="M129.712 148.652C129.712 148.652 129.712 148.686 129.694 148.686L124.068 148.47C124.068 148.47 124.016 148.453 124.008 148.427L121.609 143.656C121.609 143.656 121.609 143.621 121.635 143.621L126.571 144.122C126.571 144.122 126.622 144.139 126.64 144.165L129.72 148.643L129.712 148.652Z" fill="#92B6DA"/>
</g>
<g opacity="0.5">
<path d="M137.969 157.213C137.969 157.213 137.943 157.239 137.934 157.221L134.215 152.993C134.215 152.993 134.189 152.941 134.198 152.924L136.002 147.902C136.002 147.902 136.027 147.876 136.045 147.902L139.073 151.828C139.073 151.828 139.099 151.88 139.091 151.906L137.96 157.23L137.969 157.213Z" fill="#92B6DA"/>
</g>
<g opacity="0.5">
<path d="M133.853 166.86C133.853 166.86 133.819 166.877 133.819 166.86L132.205 161.459C132.205 161.459 132.205 161.407 132.222 161.389L135.959 157.584C135.959 157.584 135.993 157.576 136.002 157.593L137.115 162.425C137.115 162.425 137.115 162.485 137.098 162.503L133.853 166.869V166.86Z" fill="#92B6DA"/>
</g>
<g opacity="0.5">
<path d="M138.996 175.093C138.996 175.093 138.996 175.128 138.979 175.128L133.353 174.912C133.353 174.912 133.301 174.895 133.292 174.869L130.894 170.097C130.894 170.097 130.894 170.062 130.919 170.062L135.855 170.563C135.855 170.563 135.907 170.58 135.924 170.606L139.005 175.084L138.996 175.093Z" fill="#92B6DA"/>
</g>
<g opacity="0.5">
<path d="M147.254 183.642C147.254 183.642 147.228 183.668 147.22 183.651L143.5 179.423C143.5 179.423 143.475 179.371 143.483 179.354L145.287 174.332C145.287 174.332 145.313 174.306 145.33 174.332L148.359 178.258C148.359 178.258 148.384 178.31 148.376 178.336L147.245 183.66L147.254 183.642Z" fill="#92B6DA"/>
</g>
<g opacity="0.5">
<path d="M143.88 162.071C143.88 162.071 143.845 162.088 143.845 162.071L142.232 156.669C142.232 156.669 142.232 156.618 142.249 156.6L145.985 152.795C145.985 152.795 146.02 152.786 146.028 152.804L147.142 157.636C147.142 157.636 147.142 157.696 147.124 157.714L143.88 162.08V162.071Z" fill="#92B6DA"/>
</g>
<g opacity="0.5">
<path d="M149.023 170.304C149.023 170.304 149.023 170.339 149.006 170.339L143.379 170.123C143.379 170.123 143.328 170.106 143.319 170.08L140.92 165.308C140.92 165.308 140.92 165.273 140.946 165.273L145.882 165.774C145.882 165.774 145.934 165.791 145.951 165.817L149.031 170.295L149.023 170.304Z" fill="#92B6DA"/>
</g>
<g opacity="0.5">
<path d="M157.289 178.865C157.289 178.865 157.263 178.891 157.255 178.874L153.536 174.645C153.536 174.645 153.51 174.594 153.518 174.576L155.322 169.554C155.322 169.554 155.348 169.529 155.365 169.554L158.394 173.481C158.394 173.481 158.42 173.532 158.411 173.558L157.281 178.882L157.289 178.865Z" fill="#92B6DA"/>
</g>
<g opacity="0.5">
<path d="M134.474 132.915C134.474 132.915 134.44 132.932 134.44 132.915L132.826 127.513C132.826 127.513 132.826 127.461 132.843 127.444L136.58 123.639C136.58 123.639 136.614 123.63 136.623 123.648L137.736 128.48C137.736 128.48 137.736 128.54 137.719 128.557L134.474 132.924V132.915Z" fill="#92B6DA"/>
</g>
<g opacity="0.5">
<path d="M139.617 141.148C139.617 141.148 139.617 141.182 139.6 141.182L133.974 140.967C133.974 140.967 133.922 140.949 133.914 140.923L131.515 136.152C131.515 136.152 131.515 136.117 131.541 136.117L136.476 136.618C136.476 136.618 136.528 136.635 136.545 136.661L139.626 141.139L139.617 141.148Z" fill="#92B6DA"/>
</g>
<g opacity="0.5">
<path d="M147.875 149.697C147.875 149.697 147.849 149.723 147.841 149.706L144.122 145.478C144.122 145.478 144.096 145.426 144.104 145.408L145.908 140.387C145.908 140.387 145.934 140.361 145.951 140.387L148.98 144.313C148.98 144.313 149.006 144.364 148.997 144.39L147.867 149.714L147.875 149.697Z" fill="#92B6DA"/>
</g>
<g opacity="0.5">
<path d="M144.501 128.126C144.501 128.126 144.467 128.143 144.467 128.126L142.853 122.724C142.853 122.724 142.853 122.672 142.87 122.655L146.607 118.85C146.607 118.85 146.641 118.841 146.65 118.858L147.763 123.691C147.763 123.691 147.763 123.751 147.746 123.768L144.501 128.134V128.126Z" fill="#92B6DA"/>
</g>
<g opacity="0.5">
<path d="M149.644 136.355C149.644 136.355 149.644 136.389 149.627 136.389L144.001 136.174C144.001 136.174 143.949 136.156 143.94 136.13L141.541 131.359C141.541 131.359 141.541 131.324 141.567 131.324L146.503 131.825C146.503 131.825 146.555 131.842 146.572 131.868L149.653 136.346L149.644 136.355Z" fill="#92B6DA"/>
</g>
<g opacity="0.5">
<path d="M157.911 144.908C157.911 144.908 157.885 144.934 157.876 144.917L154.157 140.688C154.157 140.688 154.131 140.637 154.14 140.619L155.943 135.597C155.943 135.597 155.969 135.572 155.986 135.597L159.015 139.524C159.015 139.524 159.041 139.575 159.032 139.601L157.902 144.925L157.911 144.908Z" fill="#92B6DA"/>
</g>
<g opacity="0.5">
<path d="M114.464 175.895C114.464 175.895 114.43 175.913 114.43 175.895L112.816 170.494C112.816 170.494 112.816 170.442 112.833 170.425L116.57 166.619C116.57 166.619 116.604 166.611 116.613 166.628L117.726 171.46C117.726 171.46 117.726 171.521 117.709 171.538L114.464 175.904V175.895Z" fill="#92B6DA"/>
</g>
<g opacity="0.5">
<path d="M119.607 184.124C119.607 184.124 119.607 184.159 119.589 184.159L113.963 183.943C113.963 183.943 113.911 183.926 113.903 183.9L111.504 179.128C111.504 179.128 111.504 179.094 111.53 179.094L116.466 179.594C116.466 179.594 116.517 179.611 116.535 179.637L119.615 184.116L119.607 184.124Z" fill="#92B6DA"/>
</g>
<g opacity="0.5">
<path d="M127.873 192.677C127.873 192.677 127.847 192.703 127.839 192.686L124.12 188.458C124.12 188.458 124.094 188.406 124.102 188.389L125.906 183.367C125.906 183.367 125.932 183.341 125.949 183.367L128.978 187.293C128.978 187.293 129.004 187.345 128.995 187.371L127.865 192.695L127.873 192.677Z" fill="#92B6DA"/>
</g>
<g opacity="0.5">
<path d="M124.499 171.106C124.499 171.106 124.465 171.124 124.465 171.106L122.851 165.705C122.851 165.705 122.851 165.653 122.868 165.636L126.605 161.83C126.605 161.83 126.639 161.822 126.648 161.839L127.761 166.671C127.761 166.671 127.761 166.731 127.744 166.749L124.499 171.115V171.106Z" fill="#92B6DA"/>
</g>
<g opacity="0.5">
<path d="M129.642 179.335C129.642 179.335 129.642 179.37 129.625 179.37L123.999 179.154C123.999 179.154 123.947 179.137 123.939 179.111L121.54 174.339C121.54 174.339 121.54 174.305 121.566 174.305L126.501 174.805C126.501 174.805 126.553 174.822 126.57 174.848L129.651 179.327L129.642 179.335Z" fill="#92B6DA"/>
</g>
<g opacity="0.5">
<path d="M137.9 187.888C137.9 187.888 137.874 187.914 137.866 187.897L134.147 183.669C134.147 183.669 134.121 183.617 134.129 183.6L135.933 178.578C135.933 178.578 135.959 178.552 135.976 178.578L139.005 182.504C139.005 182.504 139.031 182.556 139.022 182.582L137.892 187.906L137.9 187.888Z" fill="#92B6DA"/>
</g>
<g opacity="0.5">
<path d="M106.836 170.459C106.836 170.459 106.81 170.485 106.801 170.467L103.082 166.239C103.082 166.239 103.056 166.187 103.065 166.17L104.868 161.148C104.868 161.148 104.894 161.122 104.911 161.148L107.94 165.074C107.94 165.074 107.966 165.126 107.957 165.152L106.827 170.476L106.836 170.459Z" fill="#92B6DA"/>
</g>
<g opacity="0.5">
<path d="M103.453 148.888C103.453 148.888 103.419 148.905 103.419 148.888L101.805 143.486C101.805 143.486 101.805 143.434 101.822 143.417L105.559 139.612C105.559 139.612 105.593 139.603 105.602 139.62L106.715 144.452C106.715 144.452 106.715 144.513 106.698 144.53L103.453 148.896V148.888Z" fill="#92B6DA"/>
</g>
<g opacity="0.5">
<path d="M108.605 157.124C108.605 157.124 108.605 157.159 108.588 157.159L102.961 156.943C102.961 156.943 102.91 156.926 102.901 156.9L100.502 152.128C100.502 152.128 100.502 152.094 100.528 152.094L105.464 152.594C105.464 152.594 105.516 152.611 105.533 152.637L108.613 157.116L108.605 157.124Z" fill="#92B6DA"/>
</g>
<g opacity="0.5">
<path d="M116.862 165.677C116.862 165.677 116.837 165.703 116.828 165.686L113.109 161.458C113.109 161.458 113.083 161.406 113.092 161.389L114.895 156.367C114.895 156.367 114.921 156.341 114.938 156.367L117.967 160.293C117.967 160.293 117.993 160.345 117.984 160.371L116.854 165.695L116.862 165.677Z" fill="#92B6DA"/>
</g>
<g opacity="0.5">
<path d="M79.8268 88.3377C79.8268 88.3377 79.8009 88.3635 79.7923 88.3463L76.0732 84.1182C76.0732 84.1182 76.0473 84.0664 76.056 84.0491L77.8594 79.0271C77.8594 79.0271 77.8853 79.0012 77.9026 79.0271L80.9313 82.9533C80.9313 82.9533 80.9572 83.005 80.9486 83.0309L79.8182 88.3549L79.8268 88.3377Z" fill="#92B6DA"/>
</g>
<g opacity="0.5">
<path d="M76.4443 66.7664C76.4443 66.7664 76.4098 66.7837 76.4098 66.7664L74.7961 61.3648C74.7961 61.3648 74.7962 61.313 74.8134 61.2957L78.5498 57.4904C78.5498 57.4904 78.5843 57.4818 78.5929 57.4991L79.706 62.3312C79.706 62.3312 79.7061 62.3916 79.6888 62.4089L76.4443 66.7751V66.7664Z" fill="#92B6DA"/>
</g>
<g opacity="0.5">
<path d="M81.5958 74.9955C81.5958 74.9955 81.5958 75.03 81.5785 75.03L75.9524 74.8142C75.9524 74.8142 75.9007 74.797 75.892 74.7711L73.4932 69.9994C73.4932 69.9994 73.4932 69.9648 73.5191 69.9648L78.4548 70.4653C78.4548 70.4653 78.5066 70.4826 78.5239 70.5085L81.6044 74.9868L81.5958 74.9955Z" fill="#92B6DA"/>
</g>
<g opacity="0.5">
<path d="M89.8537 83.5486C89.8537 83.5486 89.8278 83.5745 89.8192 83.5572L86.1001 79.3291C86.1001 79.3291 86.0742 79.2773 86.0828 79.2601L87.8863 74.2381C87.8863 74.2381 87.9122 74.2122 87.9294 74.2381L90.9582 78.1642C90.9582 78.1642 90.9841 78.216 90.9754 78.2418L89.8451 83.5659L89.8537 83.5486Z" fill="#92B6DA"/>
</g>
<g opacity="0.5">
<path d="M106.258 82.8133C106.258 82.8133 106.223 82.8306 106.223 82.8133L104.61 77.4117C104.61 77.4117 104.61 77.3599 104.627 77.3426L108.363 73.5373C108.363 73.5373 108.398 73.5287 108.406 73.5459L109.52 78.3781C109.52 78.3781 109.52 78.4385 109.502 78.4557L106.258 82.8219V82.8133Z" fill="#92B6DA"/>
</g>
<g opacity="0.5">
<path d="M111.401 91.0541C111.401 91.0541 111.4 91.0886 111.383 91.0886L105.757 90.8728C105.757 90.8728 105.705 90.8556 105.697 90.8297L103.298 86.058C103.298 86.058 103.298 86.0234 103.324 86.0234L108.26 86.5239C108.26 86.5239 108.311 86.5412 108.329 86.5671L111.409 91.0454L111.401 91.0541Z" fill="#92B6DA"/>
</g>
<g opacity="0.5">
<path d="M119.658 99.6072C119.658 99.6072 119.632 99.6331 119.624 99.6158L115.905 95.3877C115.905 95.3877 115.879 95.3359 115.887 95.3187L117.691 90.2967C117.691 90.2967 117.717 90.2708 117.734 90.2967L120.763 94.2228C120.763 94.2228 120.789 94.2746 120.78 94.3004L119.65 99.6244L119.658 99.6072Z" fill="#92B6DA"/>
</g>
<g opacity="0.5">
<path d="M116.285 78.036C116.285 78.036 116.25 78.0532 116.25 78.036L114.636 72.6343C114.636 72.6343 114.636 72.5825 114.654 72.5653L118.39 68.76C118.39 68.76 118.425 68.7513 118.433 68.7686L119.546 73.6007C119.546 73.6007 119.546 73.6611 119.529 73.6784L116.285 78.0446V78.036Z" fill="#92B6DA"/>
</g>
<g opacity="0.5">
<path d="M121.427 86.265C121.427 86.265 121.427 86.2995 121.41 86.2995L115.784 86.0838C115.784 86.0838 115.732 86.0665 115.724 86.0406L113.325 81.2689C113.325 81.2689 113.325 81.2344 113.351 81.2344L118.286 81.7348C118.286 81.7348 118.338 81.7521 118.355 81.778L121.436 86.2564L121.427 86.265Z" fill="#92B6DA"/>
</g>
<g opacity="0.5">
<path d="M129.695 94.8181C129.695 94.8181 129.669 94.844 129.66 94.8267L125.941 90.5986C125.941 90.5986 125.915 90.5468 125.924 90.5296L127.727 85.5076C127.727 85.5076 127.753 85.4817 127.77 85.5076L130.799 89.4337C130.799 89.4337 130.825 89.4855 130.816 89.5114L129.686 94.8354L129.695 94.8181Z" fill="#92B6DA"/>
</g>
<g opacity="0.5">
<path d="M85.7292 93.2078C85.7292 93.2078 85.6947 93.2251 85.6947 93.2078L84.0811 87.8062C84.0811 87.8062 84.081 87.7544 84.0983 87.7372L87.8347 83.9318C87.8347 83.9318 87.8692 83.9232 87.8778 83.9405L88.991 88.7726C88.991 88.7726 88.9909 88.833 88.9737 88.8503L85.7292 93.2165V93.2078Z" fill="#92B6DA"/>
</g>
<g opacity="0.5">
<path d="M99.1386 109.99C99.1386 109.99 99.1127 110.016 99.1041 109.999L95.385 105.77C95.385 105.77 95.3591 105.719 95.3677 105.701L97.1712 100.679C97.1712 100.679 97.1971 100.654 97.2143 100.679L100.243 104.606C100.243 104.606 100.269 104.657 100.26 104.683L99.13 110.007L99.1386 109.99Z" fill="#92B6DA"/>
</g>
<g opacity="0.5">
<path d="M95.7644 88.4149C95.7644 88.4149 95.7298 88.4321 95.7298 88.4149L94.1162 83.0132C94.1162 83.0132 94.1162 82.9615 94.1335 82.9442L97.8698 79.1389C97.8698 79.1389 97.9043 79.1302 97.913 79.1475L99.0261 83.9797C99.0261 83.9797 99.0261 84.0401 99.0088 84.0573L95.7644 88.4235V88.4149Z" fill="#92B6DA"/>
</g>
<g opacity="0.5">
<path d="M100.908 96.6478C100.908 96.6478 100.908 96.6823 100.89 96.6823L95.2642 96.4666C95.2642 96.4666 95.2124 96.4493 95.2038 96.4235L92.8049 91.6517C92.8049 91.6517 92.8049 91.6172 92.8308 91.6172L97.7666 92.1177C97.7666 92.1177 97.8184 92.1349 97.8357 92.1608L100.916 96.6392L100.908 96.6478Z" fill="#92B6DA"/>
</g>
<g opacity="0.5">
<path d="M109.174 105.197C109.174 105.197 109.148 105.223 109.14 105.206L105.421 100.978C105.421 100.978 105.395 100.926 105.403 100.908L107.207 95.8865C107.207 95.8865 107.233 95.8606 107.25 95.8865L110.279 99.8126C110.279 99.8126 110.305 99.8644 110.296 99.8903L109.166 105.214L109.174 105.197Z" fill="#92B6DA"/>
</g>
<g opacity="0.5">
<path d="M91.5021 67.4798C91.5021 67.4798 91.502 67.5143 91.4848 67.5143L85.8587 67.2986C85.8587 67.2986 85.8069 67.2814 85.7983 67.2555L83.3994 62.4837C83.3994 62.4837 83.3994 62.4492 83.4253 62.4492L88.3611 62.9497C88.3611 62.9497 88.4129 62.9669 88.4301 62.9928L91.5107 67.4712L91.5021 67.4798Z" fill="#92B6DA"/>
</g>
<g opacity="0.5">
<path d="M99.7599 76.0447C99.7599 76.0447 99.7341 76.0706 99.7254 76.0533L96.0063 71.8252C96.0063 71.8252 95.9804 71.7734 95.9891 71.7562L97.7925 66.7342C97.7925 66.7342 97.8184 66.7083 97.8357 66.7342L100.864 70.6603C100.864 70.6603 100.89 70.7121 100.882 70.7379L99.7513 76.0619L99.7599 76.0447Z" fill="#92B6DA"/>
</g>
<g opacity="0.5">
<path d="M101.529 62.7025C101.529 62.7025 101.529 62.737 101.511 62.737L95.8853 62.5213C95.8853 62.5213 95.8335 62.504 95.8249 62.4781L93.426 57.7064C93.426 57.7064 93.426 57.6719 93.4519 57.6719L98.3877 58.1723C98.3877 58.1723 98.4395 58.1896 98.4568 58.2155L101.537 62.6939L101.529 62.7025Z" fill="#92B6DA"/>
</g>
<g opacity="0.5">
<path d="M109.796 71.2517C109.796 71.2517 109.77 71.2776 109.761 71.2603L106.042 67.0322C106.042 67.0322 106.016 66.9804 106.025 66.9632L107.828 61.9412C107.828 61.9412 107.854 61.9153 107.871 61.9412L110.9 65.8673C110.9 65.8673 110.926 65.9191 110.917 65.945L109.787 71.269L109.796 71.2517Z" fill="#92B6DA"/>
</g>
<g opacity="0.5">
<path d="M99.4926 144.045C99.4926 144.045 99.4667 144.071 99.4581 144.053L95.739 139.825C95.739 139.825 95.7131 139.773 95.7217 139.756L97.5252 134.734C97.5252 134.734 97.5511 134.708 97.5684 134.734L100.597 138.66C100.597 138.66 100.623 138.712 100.614 138.738L99.484 144.062L99.4926 144.045Z" fill="#92B6DA"/>
</g>
<g opacity="0.5">
<path d="M96.1186 122.473C96.1186 122.473 96.0841 122.491 96.0841 122.473L94.4705 117.072C94.4705 117.072 94.4704 117.02 94.4877 117.003L98.2241 113.197C98.2241 113.197 98.2586 113.189 98.2672 113.206L99.3804 118.038C99.3804 118.038 99.3803 118.099 99.3631 118.116L96.1186 122.482V122.473Z" fill="#92B6DA"/>
</g>
<g opacity="0.5">
<path d="M101.262 130.702C101.262 130.702 101.262 130.737 101.244 130.737L95.6182 130.521C95.6182 130.521 95.5664 130.504 95.5578 130.478L93.1589 125.706C93.1589 125.706 93.1589 125.672 93.1848 125.672L98.1206 126.172C98.1206 126.172 98.1724 126.19 98.1897 126.215L101.27 130.694L101.262 130.702Z" fill="#92B6DA"/>
</g>
<g opacity="0.5">
<path d="M109.519 139.256C109.519 139.256 109.493 139.281 109.485 139.264L105.766 135.036C105.766 135.036 105.74 134.984 105.748 134.967L107.552 129.945C107.552 129.945 107.578 129.919 107.595 129.945L110.624 133.871C110.624 133.871 110.65 133.923 110.641 133.949L109.511 139.273L109.519 139.256Z" fill="#92B6DA"/>
</g>
<g opacity="0.5">
<path d="M106.447 117.227C106.447 117.227 106.413 117.245 106.413 117.227L104.799 111.826C104.799 111.826 104.799 111.774 104.817 111.757L108.553 107.951C108.553 107.951 108.587 107.943 108.596 107.96L109.709 112.792C109.709 112.792 109.709 112.853 109.692 112.87L106.447 117.236V117.227Z" fill="#92B6DA"/>
</g>
<g opacity="0.5">
<path d="M111.59 125.464C111.59 125.464 111.59 125.499 111.573 125.499L105.947 125.283C105.947 125.283 105.895 125.266 105.886 125.24L103.488 120.468C103.488 120.468 103.488 120.434 103.513 120.434L108.449 120.934C108.449 120.934 108.501 120.951 108.518 120.977L111.599 125.456L111.59 125.464Z" fill="#92B6DA"/>
</g>
<g opacity="0.5">
<path d="M119.848 134.021C119.848 134.021 119.822 134.047 119.814 134.03L116.094 129.802C116.094 129.802 116.069 129.75 116.077 129.733L117.881 124.711C117.881 124.711 117.907 124.685 117.924 124.711L120.953 128.637C120.953 128.637 120.978 128.689 120.97 128.715L119.839 134.038L119.848 134.021Z" fill="#92B6DA"/>
</g>
<g opacity="0.5">
<path d="M116.474 112.45C116.474 112.45 116.44 112.467 116.44 112.45L114.826 107.048C114.826 107.048 114.826 106.997 114.843 106.979L118.58 103.174C118.58 103.174 118.614 103.165 118.623 103.183L119.736 108.015C119.736 108.015 119.736 108.075 119.719 108.092L116.474 112.459V112.45Z" fill="#92B6DA"/>
</g>
<g opacity="0.5">
<path d="M121.617 120.679C121.617 120.679 121.617 120.714 121.6 120.714L115.974 120.498C115.974 120.498 115.922 120.481 115.914 120.455L113.515 115.683C113.515 115.683 113.515 115.648 113.541 115.648L118.476 116.149C118.476 116.149 118.528 116.166 118.545 116.192L121.626 120.67L121.617 120.679Z" fill="#92B6DA"/>
</g>
<g opacity="0.5">
<path d="M129.884 129.232C129.884 129.232 129.858 129.258 129.849 129.241L126.13 125.013C126.13 125.013 126.104 124.961 126.113 124.944L127.916 119.922C127.916 119.922 127.942 119.896 127.959 119.922L130.988 123.848C130.988 123.848 131.014 123.9 131.006 123.925L129.875 129.249L129.884 129.232Z" fill="#92B6DA"/>
</g>
<g opacity="0.5">
<path d="M126.691 107.063C126.691 107.063 126.656 107.081 126.656 107.063L125.043 101.662C125.043 101.662 125.043 101.61 125.06 101.593L128.796 97.7873C128.796 97.7873 128.831 97.7787 128.839 97.7959L129.953 102.628C129.953 102.628 129.953 102.688 129.935 102.706L126.691 107.072V107.063Z" fill="#92B6DA"/>
</g>
<g opacity="0.5">
<path d="M131.842 115.292C131.842 115.292 131.842 115.327 131.825 115.327L126.199 115.111C126.199 115.111 126.147 115.094 126.139 115.068L123.74 110.296C123.74 110.296 123.74 110.262 123.766 110.262L128.701 110.762C128.701 110.762 128.753 110.779 128.77 110.805L131.851 115.284L131.842 115.292Z" fill="#92B6DA"/>
</g>
<g opacity="0.5">
<path d="M140.101 123.845C140.101 123.845 140.075 123.871 140.066 123.854L136.347 119.626C136.347 119.626 136.321 119.574 136.33 119.557L138.133 114.535C138.133 114.535 138.159 114.509 138.176 114.535L141.205 118.461C141.205 118.461 141.231 118.513 141.222 118.539L140.092 123.863L140.101 123.845Z" fill="#92B6DA"/>
</g>
<g opacity="0.5">
<path d="M136.727 102.274C136.727 102.274 136.692 102.292 136.692 102.274L135.079 96.8726C135.079 96.8726 135.079 96.8208 135.096 96.8036L138.832 92.9983C138.832 92.9983 138.867 92.9896 138.875 93.0069L139.989 97.839C139.989 97.839 139.989 97.8994 139.971 97.9167L136.727 102.283V102.274Z" fill="#92B6DA"/>
</g>
<g opacity="0.5">
<path d="M141.869 110.515C141.869 110.515 141.87 110.549 141.852 110.549L136.226 110.334C136.226 110.334 136.174 110.317 136.166 110.291L133.767 105.519C133.767 105.519 133.767 105.484 133.793 105.484L138.729 105.985C138.729 105.985 138.78 106.002 138.798 106.028L141.878 110.506L141.869 110.515Z" fill="#92B6DA"/>
</g>
<g opacity="0.5">
<path d="M150.136 119.064C150.136 119.064 150.11 119.09 150.102 119.073L146.383 114.845C146.383 114.845 146.357 114.793 146.365 114.776L148.169 109.754C148.169 109.754 148.195 109.728 148.212 109.754L151.241 113.68C151.241 113.68 151.267 113.732 151.258 113.757L150.128 119.081L150.136 119.064Z" fill="#92B6DA"/>
</g>
</g>
<mask id="mask0_180_22052" style="mask-type:alpha" maskUnits="userSpaceOnUse" x="0" y="410" width="340" height="168">
<path d="M338.62 577.009H220.308L197.112 555.497L196.359 554.8L196.274 555.822L194.505 577.009H136.439L128.717 569.845L127.966 569.148L127.879 570.169L127.293 577.009H110.762L106.512 568.759L106.249 568.248L105.779 568.579L93.8301 577.009H78.2988L63.4385 548.266L62.6406 546.724L62.4961 548.454L60.1016 577.009H45.2568L17.0996 563.633L16.4473 563.322L16.3867 564.043L15.3076 577.009H0.5V418.098C16.0941 422.079 35.5419 425.441 57.7764 427.98V427.979C60.4824 428.311 63.2403 428.608 66.0498 428.888L79.8604 440.064L80.6748 440.724V430.235C84.0805 430.531 87.5514 430.797 91.0605 431.039L124.556 458.146L125.37 458.805V432.771C136.183 433.14 147.323 433.312 158.663 433.312H161.494L169.088 457.896L170.065 457.748V433.245C174.448 433.208 178.8 433.13 183.09 433.011L183.089 433.01C186.07 432.948 189.009 432.869 191.936 432.771L191.935 432.771C197.698 432.587 203.387 432.353 208.982 432.059L213.847 439.93L214.145 440.413L214.586 440.056L225.684 431.074C230.938 430.703 236.069 430.29 241.116 429.844L258.53 458.02L259.456 459.517V428C263.106 427.584 266.687 427.138 270.207 426.684L303.463 440.14L304.151 440.418V421.033C309.795 419.853 315.045 418.614 319.893 417.302L325.679 421.984L325.983 421.606L326.297 421.993L326.788 421.596L326.787 421.595L338.62 412.02V577.009Z" fill="#C59B6D" stroke="#C59B6D"/>
</mask>
<g mask="url(#mask0_180_22052)">
<path d="M83.3911 77.7919L83.4515 84.9107C83.5119 92.2797 88.2406 98.2077 94.0048 98.156L99.4583 98.1042C104.204 98.061 108.372 102.108 109.641 107.95C113.256 124.612 119.564 161.509 118.649 212.885C117.441 280.828 91.3211 336.89 87.8005 343.025C87.6107 343.362 87.4381 343.69 87.2742 344.043L11.5373 461.421C10.7694 462.647 7.66292 470.948 7.26598 472.432C6.54977 475.141 6.54115 478.11 7.26598 480.871C15.1788 511.072 64.1311 674.528 120.781 676.279C201.548 678.782 237.531 678.764 244.27 674.7C245.064 674.226 245.78 673.639 246.453 672.923C255.98 662.827 320.982 568.911 333.503 473.519C333.891 470.542 333.028 467.531 331.682 465.045C309.411 423.895 263.608 373.916 245.867 335.423C227.53 295.653 216.079 234.699 215.889 212.92C215.743 195.947 215.95 134.803 216.804 108.64C217.029 101.815 221.257 96.3353 226.598 95.947C232.785 95.4983 237.997 88.647 238.17 80.7257L238.23 77.9904C238.394 70.4574 233.639 64.2188 227.746 64.2188L93.789 64.3396C87.999 64.3396 83.3393 70.3711 83.4084 77.7747L83.3911 77.7919Z" fill="#C59B6D" stroke="#C59B6D" stroke-width="9" stroke-miterlimit="10"/>
</g>
<path d="M140.454 499.31C141.818 496.454 141.524 494.245 139.591 492.675C137.633 492.52 135.363 490.078 133.396 489.059C122.437 483.416 114.628 480.431 117.855 470.067L146.063 486.359C148.324 484.84 150.058 483.149 151.439 480.94L138.789 457.883C137.175 454.932 140.144 450.186 143.345 448.892L159.196 476.159L167.049 474.899V450.394C167.049 445.492 171.01 441.903 176.006 442.533L176.04 474.943L183.703 475.952L194.42 456.986C197.043 452.344 202.376 450.29 207.148 453.181L191.65 480.189C191.745 482.501 194.895 485.064 196.586 486.005C206.578 482.01 218.133 471.888 222.697 473.424C224.924 474.175 227.97 475.029 228.988 478.273L201.392 493.917C201.177 496.385 202.065 500.449 203.964 501.554L229.333 502.175C233.13 502.27 235.986 507.214 235.442 510.726L203.679 511.123C201.789 511.149 200.417 517.241 202.048 518.182L220.997 529.158C225.226 531.6 227.176 536.622 224.639 541.454L196.767 525.784C194.955 526.724 191.581 529.382 191.728 531.556L201.453 548.745C204.352 553.862 204.973 559.868 199.822 563.638L183.634 536.647C182.434 534.646 177.585 536.501 176.178 537.752L176.032 560.411C175.997 565.433 172.442 569.454 167.256 570.136L166.971 537.7C164.788 536.25 162.009 535.69 159.335 535.836L146.538 557.313C144.389 560.92 138.642 561.533 135.432 558.573L151.568 531.703C150.3 528.899 148.505 527.406 145.873 525.749L126.812 536.941C122.221 539.633 116.517 538.882 114.153 533.852L141.541 517.914L139.937 510.994L115.81 510.597C111.314 510.519 107.094 506.498 107.56 501.977L138.254 501.821C139.842 501.821 140.075 500.424 140.454 499.336V499.31Z" fill="#603813"/>
<rect x="94.2981" y="577.398" width="15.9762" height="0.101597" fill="#215523" stroke="#D0518E" stroke-width="0.101597"/>
<rect x="94.5308" y="577.287" width="15.6811" height="0.136765" fill="#215523" stroke="#D0518E" stroke-width="0.136765"/>
<line y1="-0.5" x2="0.357321" y2="-0.5" transform="matrix(0.898794 -0.438371 0.465074 0.885272 110.266 577.898)" stroke="#D0518E"/>
<line y1="-0.5" x2="0.349388" y2="-0.5" transform="matrix(-0.572058 -0.820213 0.8416 -0.540102 94.6584 577.48)" stroke="#D0518E"/>
</svg>
