<svg width="321" height="685" viewBox="0 0 321 685" fill="none" xmlns="http://www.w3.org/2000/svg">
<path d="M104.482 62.8922C95.5462 65.8722 94.3168 78.0522 102.493 82.7522C111.648 88.0122 120.753 94.1222 120.753 101.502V164.432C120.753 168.112 118.144 171.262 114.536 171.962C93.7271 175.952 27.1814 193.112 15.1976 251.022C11.3896 269.452 10.2102 289.122 10.54 308.042C11.3196 353.352 21.0346 398.062 38.5256 439.872C55.207 479.732 80.304 546.752 84.152 597.272C84.9316 607.492 80.2341 617.332 71.9183 623.322C65.1718 628.172 59.2849 633.392 59.2849 640.632C59.2849 652.892 81.6233 679.992 163.451 679.992C194.865 679.992 217.743 674.832 234.005 668.482C253.555 660.842 255.923 634.112 237.983 623.202C237.733 623.052 237.483 622.902 237.223 622.742C234.754 621.242 233.335 618.492 233.535 615.612C236.204 576.832 277.133 459.492 293.904 403.512C299.901 383.492 322.959 303.242 302.21 240.352C285.048 188.362 227.308 175.292 207.798 172.332C204.06 171.762 201.302 168.542 201.302 164.762V103.032C201.302 101.942 201.532 100.872 201.981 99.8822C204.34 94.6822 230.437 88.7522 230.437 77.7422C230.437 65.7322 217.263 55.2422 159.303 55.2422C134.316 55.2422 116.505 58.9122 104.492 62.9122L104.482 62.8922Z" fill="#DCD6CB"/>
<path d="M104.482 62.8922C95.5462 65.8722 94.3168 78.0522 102.493 82.7522C111.648 88.0122 120.753 94.1222 120.753 101.502V164.432C120.753 168.112 118.144 171.262 114.536 171.962C93.7271 175.952 27.1814 193.112 15.1976 251.022C11.3896 269.452 10.2102 289.122 10.54 308.042C11.3196 353.352 21.0346 398.062 38.5256 439.872C55.207 479.732 80.304 546.752 84.152 597.272C84.9316 607.492 80.2341 617.332 71.9183 623.322C65.1718 628.172 59.2849 633.392 59.2849 640.632C59.2849 652.892 81.6233 679.992 163.451 679.992C194.865 679.992 217.743 674.832 234.005 668.482C253.555 660.842 255.923 634.112 237.983 623.202C237.733 623.052 237.483 622.902 237.223 622.742C234.754 621.242 233.335 618.492 233.535 615.612C236.204 576.832 277.133 459.492 293.904 403.512C299.901 383.492 322.959 303.242 302.21 240.352C285.048 188.362 227.308 175.292 207.798 172.332C204.06 171.762 201.302 168.542 201.302 164.762V103.032C201.302 101.942 201.532 100.872 201.981 99.8822C204.34 94.6822 230.437 88.7522 230.437 77.7422C230.437 65.7322 217.263 55.2422 159.303 55.2422C134.316 55.2422 116.505 58.9122 104.492 62.9122L104.482 62.8922Z" stroke="#DCD6CB" stroke-width="9" stroke-miterlimit="10"/>
<mask id="mask0_180_21646" style="mask-type:alpha" maskUnits="userSpaceOnUse" x="0" y="205" width="321" height="194">
<path d="M320.5 398.473H208.632L186.701 373.558L185.909 372.658L185.827 373.854L184.139 398.473H129.281L121.986 390.185L121.195 389.286L121.112 390.48L120.554 398.473H105.011L100.977 388.893L100.709 388.259L100.189 388.709L88.8931 398.473H74.2808L60.2183 365.154L59.2583 365.314L56.9937 398.473H43.0073L16.3882 382.982L15.6929 382.577L15.6382 383.38L14.6108 398.473H0.665527V214.164C15.4082 218.771 33.7861 222.662 54.8052 225.602C57.3641 225.984 59.9567 226.327 62.605 226.65L75.6655 239.593L76.5171 240.437V228.221C79.7139 228.561 82.9713 228.867 86.27 229.146L117.952 260.546L118.803 261.391V231.156C129.027 231.583 139.55 231.783 150.27 231.783H152.912L160.104 260.303L161.088 260.181V231.704C165.23 231.661 169.338 231.572 173.39 231.434L173.389 231.433C176.205 231.361 178.984 231.268 181.751 231.155C187.186 230.944 192.551 230.672 197.825 230.332L202.428 239.452L202.738 240.066L203.226 239.582L213.717 229.186C218.662 228.758 223.494 228.282 228.236 227.768L244.713 260.416L245.66 260.19V225.623C249.104 225.143 252.483 224.629 255.796 224.104L287.224 239.686L287.946 240.043V217.551C293.266 216.188 298.214 214.758 302.789 213.243L308.237 218.639L308.564 218.308L308.902 218.674L308.914 218.664L309.327 218.311L309.297 218.282L320.5 207.172V398.473Z" fill="#C59B6D" stroke="#C59B6D"/>
</mask>
<g mask="url(#mask0_180_21646)">
<path d="M159.634 57.7422C188.6 57.7422 206.305 60.366 216.753 64.4541C221.97 66.4958 225.343 68.8902 227.412 71.4727C229.473 74.046 230.266 76.8393 230.266 79.7422C230.266 82.283 228.762 84.5929 226.322 86.7402C223.887 88.883 220.597 90.7952 217.194 92.5459C215.496 93.4197 213.779 94.2495 212.134 95.0449C210.491 95.839 208.918 96.6008 207.52 97.335C206.124 98.0681 204.886 98.782 203.918 99.4844C202.962 100.177 202.207 100.903 201.856 101.676C201.377 102.731 201.132 103.872 201.132 105.032V166.762C201.132 170.788 204.07 174.219 208.052 174.826H208.053C217.78 176.302 237.03 180.298 255.979 190.397C274.924 200.494 293.536 216.673 302.064 242.509C312.405 273.851 311.837 309.55 307.921 339.944C304.005 370.33 296.75 395.367 293.755 405.368C285.366 433.368 270.954 476.656 258.283 517.865C251.951 538.458 246.058 558.519 241.581 575.858C237.106 593.188 234.037 607.832 233.366 617.577C233.16 620.547 234.572 623.389 237.051 625.016L237.294 625.17L238.055 625.631C255.638 636.326 253.318 662.527 234.153 670.017C217.955 676.342 195.139 681.492 163.781 681.492C122.916 681.492 96.9621 674.724 81.2449 666.467C65.501 658.196 60.115 648.489 60.115 642.632C60.1151 639.16 61.5226 636.154 63.7878 633.398C66.0594 630.635 69.173 628.149 72.5398 625.729L72.5408 625.728C80.9941 619.638 85.7733 609.632 84.9802 599.234C81.1254 548.625 55.9973 481.537 39.3171 441.68C21.8496 399.926 12.1483 355.277 11.3699 310.033C11.0405 291.138 12.2189 271.506 16.0173 253.123C21.9705 224.356 41.4753 205.691 62.1384 193.705C82.8048 181.718 104.582 176.443 114.961 174.453H114.962C118.804 173.708 121.583 170.353 121.583 166.433V103.502C121.583 99.5981 119.177 96.1003 115.722 92.9619C112.258 89.8151 107.651 86.9499 103.071 84.3184H103.072C95.3969 79.9062 96.4074 68.5837 104.561 65.5107L104.568 65.5234L104.979 65.3867C116.938 61.4049 134.696 57.7422 159.634 57.7422Z" fill="#C59B6D" stroke="#C59B6D"/>
<path d="M104.811 64.8922C95.876 67.8722 94.6466 80.0522 102.822 84.7522C111.978 90.0122 121.083 96.1222 121.083 103.502V166.432C121.083 170.112 118.474 173.262 114.866 173.962C94.0569 177.952 27.5112 195.112 15.5274 253.022C11.7194 271.452 10.54 291.122 10.8698 310.042C11.6494 355.352 21.3644 400.062 38.8554 441.872C55.5368 481.732 80.6338 548.752 84.4819 599.272C85.2615 609.492 80.5639 619.332 72.2482 625.322C65.5017 630.172 59.6147 635.392 59.6147 642.632C59.6147 654.892 81.9532 681.992 163.781 681.992C195.195 681.992 218.073 676.832 234.335 670.482C253.885 662.842 256.253 636.112 238.313 625.202C238.063 625.052 237.813 624.902 237.553 624.742C235.084 623.242 233.665 620.492 233.865 617.612C236.533 578.832 277.462 461.492 294.234 405.512C300.231 385.492 323.289 305.242 302.539 242.352C285.378 190.362 227.638 177.292 208.128 174.332C204.39 173.762 201.631 170.542 201.631 166.762V105.032C201.631 103.942 201.861 102.872 202.311 101.882C204.67 96.6822 230.766 90.7522 230.766 79.7422C230.766 67.7322 217.593 57.2422 159.633 57.2422C134.646 57.2422 116.835 60.9122 104.821 64.9122L104.811 64.8922Z" stroke="#C59B6D" stroke-width="9" stroke-miterlimit="10"/>
</g>
<path d="M75.1467 612.434C114.556 626.084 157.264 633.574 198.603 625.744C212.286 623.164 225.539 618.554 238.263 612.434C220.712 624.464 199.543 631.204 178.344 633.154C143.332 636.254 106.321 628.544 75.1467 612.434Z" fill="#E2E3E2"/>
<path d="M127.849 53.6409V38.5109C127.849 38.5109 113.177 37.7709 113.177 20.2709C113.177 2.77086 136.555 4.55086 136.555 4.55086H194.275C199.902 4.55086 205.449 7.00086 208.658 11.6309C210.287 13.9909 211.476 17.0209 211.476 20.8709C211.476 33.1809 200.212 38.3709 200.212 38.3709L199.472 54.0909L127.869 53.6509L127.849 53.6409Z" fill="#CDB43A" stroke="#CDB43A" stroke-width="9" stroke-miterlimit="10"/>
<path d="M256.533 202.941C278.542 211.371 290.596 238.661 294.833 260.391C299.441 283.661 298.621 307.861 294.374 331.091C294.654 302.041 294.584 272.511 285.588 244.651C280.191 228.561 271.525 211.891 256.533 202.941Z" fill="#E7E2D5"/>
<path d="M65.5815 202.143C59.2248 205.703 54.1774 211.163 49.8297 216.913C43.9027 225.053 39.6449 234.303 36.5165 243.853C27.5212 271.713 27.4512 301.243 27.7311 330.293C23.2434 305.613 22.5238 279.783 28.2308 255.213C32.9884 234.793 44.8422 210.073 65.5716 202.133L65.5815 202.143Z" fill="#E7E2D5"/>
<path d="M125.71 103.633C136.685 120.213 135.735 146.013 126.93 163.373C127.12 159.493 127.619 155.793 127.889 151.963C129.339 135.803 129.059 119.603 125.71 103.633Z" fill="#E7E2D5"/>
<path d="M196.734 104.133C193.385 120.103 193.106 136.313 194.555 152.463C194.825 156.283 195.324 159.983 195.514 163.873C186.709 146.523 185.759 120.723 196.734 104.133Z" fill="#E7E2D5"/>
<path d="M32.7866 432.583C32.7866 432.583 161.38 421.983 280.469 432.003C265.457 452.023 256.951 457.033 256.951 457.033L32.7866 432.583Z" fill="#C2C4DC"/>
<path d="M31.3594 432.744C31.3594 432.744 95.1565 412.394 152.197 432.744C209.238 453.094 280.541 431.584 280.541 431.584C280.541 431.584 226.499 558.934 226.499 603.704C170.957 625.224 97.4053 606.034 97.4053 606.034C97.4053 606.034 101.153 541.484 31.3594 432.754V432.744Z" fill="#8EB3D6"/>
<g opacity="0.5">
<g opacity="0.5">
<path d="M63.5727 203.723C63.5727 203.723 63.5427 203.693 63.5727 203.683L69.1598 200.313C69.1598 200.313 69.2197 200.303 69.2497 200.313L74.597 203.413C74.597 203.413 74.617 203.453 74.597 203.463L69.4996 206.103C69.4996 206.103 69.4296 206.113 69.4096 206.103L63.5826 203.723H63.5727Z" fill="#92B6DA"/>
</g>
<g opacity="0.5">
<path d="M55.8167 211.874C55.8167 211.874 55.7767 211.894 55.7767 211.864L54.3975 205.484C54.3975 205.484 54.3975 205.424 54.4274 205.404L59.085 201.334C59.085 201.334 59.125 201.324 59.135 201.354L59.9946 207.034C59.9946 207.034 59.9946 207.104 59.9646 207.124L55.8267 211.874H55.8167Z" fill="#92B6DA"/>
</g>
<g opacity="0.5">
<path d="M48.6003 223.615C48.6003 223.615 48.5603 223.595 48.5803 223.575L52.2584 218.185C52.2584 218.185 52.3084 218.145 52.3384 218.145L58.4952 218.725C58.4952 218.725 58.5352 218.745 58.5152 218.765L54.987 223.295C54.987 223.295 54.937 223.335 54.907 223.335L48.6103 223.605L48.6003 223.615Z" fill="#92B6DA"/>
</g>
<g opacity="0.5">
<path d="M71.8285 213.602C71.8285 213.602 71.7985 213.572 71.8285 213.562L77.4156 210.192C77.4156 210.192 77.4756 210.182 77.5056 210.192L82.8528 213.292C82.8528 213.292 82.8728 213.332 82.8528 213.342L77.7555 215.982C77.7555 215.982 77.6855 215.992 77.6655 215.982L71.8385 213.602H71.8285Z" fill="#92B6DA"/>
</g>
<g opacity="0.5">
<path d="M64.0724 221.753C64.0724 221.753 64.0324 221.773 64.0324 221.743L62.6531 215.363C62.6531 215.363 62.6531 215.303 62.6831 215.283L67.3407 211.213C67.3407 211.213 67.3806 211.203 67.3906 211.233L68.2502 216.913C68.2502 216.913 68.2502 216.983 68.2202 217.003L64.0823 221.753H64.0724Z" fill="#92B6DA"/>
</g>
<g opacity="0.5">
<path d="M56.8559 233.493C56.8559 233.493 56.8159 233.473 56.8359 233.453L60.514 228.063C60.514 228.063 60.564 228.023 60.594 228.023L66.7508 228.603C66.7508 228.603 66.7908 228.623 66.7708 228.643L63.2426 233.173C63.2426 233.173 63.1926 233.213 63.1627 233.213L56.8659 233.483L56.8559 233.493Z" fill="#92B6DA"/>
</g>
<g opacity="0.5">
<path d="M62.4035 251.692C62.4035 251.692 62.3735 251.662 62.4035 251.652L67.9906 248.282C67.9906 248.282 68.0506 248.272 68.0805 248.282L73.4278 251.382C73.4278 251.382 73.4478 251.422 73.4278 251.432L68.3304 254.072C68.3304 254.072 68.2604 254.082 68.2405 254.072L62.4135 251.692H62.4035Z" fill="#92B6DA"/>
</g>
<g opacity="0.5">
<path d="M54.6478 259.831C54.6478 259.831 54.6078 259.851 54.6078 259.821L53.2285 253.441C53.2285 253.441 53.2285 253.381 53.2585 253.361L57.9161 249.291C57.9161 249.291 57.9561 249.281 57.9661 249.311L58.8256 254.991C58.8256 254.991 58.8256 255.061 58.7957 255.081L54.6578 259.831H54.6478Z" fill="#92B6DA"/>
</g>
<g opacity="0.5">
<path d="M47.4314 271.572C47.4314 271.572 47.3914 271.552 47.4114 271.532L51.0895 266.142C51.0895 266.142 51.1394 266.102 51.1694 266.102L57.3263 266.682C57.3263 266.682 57.3662 266.702 57.3462 266.722L53.8181 271.252C53.8181 271.252 53.7681 271.292 53.7381 271.292L47.4413 271.562L47.4314 271.572Z" fill="#92B6DA"/>
</g>
<g opacity="0.5">
<path d="M70.6596 261.571C70.6596 261.571 70.6296 261.541 70.6596 261.531L76.2467 258.161C76.2467 258.161 76.3067 258.151 76.3366 258.161L81.6839 261.261C81.6839 261.261 81.7039 261.301 81.6839 261.311L76.5865 263.951C76.5865 263.951 76.5165 263.961 76.4966 263.951L70.6696 261.571H70.6596Z" fill="#92B6DA"/>
</g>
<g opacity="0.5">
<path d="M62.9032 269.713C62.9032 269.713 62.8632 269.733 62.8632 269.703L61.4839 263.323C61.4839 263.323 61.4839 263.263 61.5139 263.243L66.1715 259.173C66.1715 259.173 66.2114 259.163 66.2214 259.193L67.081 264.873C67.081 264.873 67.081 264.943 67.051 264.963L62.9131 269.713H62.9032Z" fill="#92B6DA"/>
</g>
<g opacity="0.5">
<path d="M55.6867 281.45C55.6867 281.45 55.6467 281.43 55.6667 281.41L59.3448 276.02C59.3448 276.02 59.3948 275.98 59.4248 275.98L65.5816 276.56C65.5816 276.56 65.6216 276.58 65.6016 276.6L62.0734 281.13C62.0734 281.13 62.0235 281.17 61.9935 281.17L55.6967 281.44L55.6867 281.45Z" fill="#92B6DA"/>
</g>
<g opacity="0.5">
<path d="M44.8424 231.641C44.8424 231.641 44.8124 231.611 44.8424 231.601L50.4296 228.231C50.4296 228.231 50.4895 228.221 50.5195 228.231L55.8667 231.331C55.8667 231.331 55.8867 231.371 55.8667 231.381L50.7694 234.021C50.7694 234.021 50.6994 234.031 50.6794 234.021L44.8524 231.641H44.8424Z" fill="#92B6DA"/>
</g>
<g opacity="0.5">
<path d="M37.0868 239.792C37.0868 239.792 37.0468 239.812 37.0468 239.782L35.6675 233.402C35.6675 233.402 35.6675 233.342 35.6975 233.322L40.3551 229.252C40.3551 229.252 40.395 229.242 40.405 229.272L41.2646 234.952C41.2646 234.952 41.2646 235.022 41.2346 235.042L37.0967 239.792H37.0868Z" fill="#92B6DA"/>
</g>
<g opacity="0.5">
<path d="M29.8703 251.533C29.8703 251.533 29.8303 251.512 29.8503 251.492L33.5284 246.103C33.5284 246.103 33.5784 246.062 33.6084 246.062L39.7652 246.643C39.7652 246.643 39.8052 246.662 39.7852 246.682L36.257 251.212C36.257 251.212 36.207 251.253 36.1771 251.253L29.8803 251.522L29.8703 251.533Z" fill="#92B6DA"/>
</g>
<g opacity="0.5">
<path d="M53.1083 241.52C53.1083 241.52 53.0783 241.49 53.1083 241.48L58.6954 238.11C58.6954 238.11 58.7554 238.1 58.7854 238.11L64.1326 241.21C64.1326 241.21 64.1526 241.25 64.1326 241.26L59.0352 243.9C59.0352 243.9 58.9653 243.91 58.9453 243.9L53.1183 241.52H53.1083Z" fill="#92B6DA"/>
</g>
<g opacity="0.5">
<path d="M45.3524 249.671C45.3524 249.671 45.3124 249.691 45.3124 249.661L43.9331 243.281C43.9331 243.281 43.9331 243.221 43.9631 243.201L48.6207 239.131C48.6207 239.131 48.6607 239.12 48.6707 239.15L49.5302 244.83C49.5302 244.83 49.5302 244.901 49.5002 244.921L45.3624 249.671H45.3524Z" fill="#92B6DA"/>
</g>
<g opacity="0.5">
<path d="M38.1362 261.411C38.1362 261.411 38.0962 261.391 38.1162 261.371L41.7943 255.981C41.7943 255.981 41.8443 255.941 41.8743 255.941L48.0311 256.521C48.0311 256.521 48.0711 256.541 48.0511 256.561L44.5229 261.091C44.5229 261.091 44.4729 261.131 44.4429 261.131L38.1462 261.401L38.1362 261.411Z" fill="#92B6DA"/>
</g>
<g opacity="0.5">
<path d="M83.1124 222.563C83.1124 222.563 83.0825 222.533 83.1124 222.523L88.6996 219.153C88.6996 219.153 88.7595 219.143 88.7895 219.153L94.1368 222.253C94.1368 222.253 94.1568 222.293 94.1368 222.303L89.0394 224.943C89.0394 224.943 88.9694 224.953 88.9494 224.943L83.1224 222.563H83.1124Z" fill="#92B6DA"/>
</g>
<g opacity="0.5">
<path d="M75.3568 230.702C75.3568 230.702 75.3168 230.722 75.3168 230.692L73.9375 224.312C73.9375 224.312 73.9375 224.252 73.9675 224.232L78.6251 220.162C78.6251 220.162 78.6651 220.152 78.6751 220.182L79.5346 225.862C79.5346 225.862 79.5346 225.932 79.5046 225.952L75.3668 230.702H75.3568Z" fill="#92B6DA"/>
</g>
<g opacity="0.5">
<path d="M68.1403 242.454C68.1403 242.454 68.1004 242.434 68.1203 242.414L71.7984 237.024C71.7984 237.024 71.8484 236.984 71.8784 236.984L78.0352 237.564C78.0352 237.564 78.0752 237.584 78.0552 237.604L74.527 242.134C74.527 242.134 74.4771 242.174 74.4471 242.174L68.1503 242.444L68.1403 242.454Z" fill="#92B6DA"/>
</g>
<g opacity="0.5">
<path d="M91.3686 232.442C91.3686 232.442 91.3386 232.412 91.3686 232.402L96.9557 229.032C96.9557 229.032 97.0156 229.022 97.0456 229.032L102.393 232.132C102.393 232.132 102.413 232.172 102.393 232.182L97.2955 234.822C97.2955 234.822 97.2255 234.832 97.2055 234.822L91.3785 232.442H91.3686Z" fill="#92B6DA"/>
</g>
<g opacity="0.5">
<path d="M83.6121 240.585C83.6121 240.585 83.5721 240.605 83.5721 240.575L82.1929 234.195C82.1929 234.195 82.1929 234.135 82.2229 234.115L86.8804 230.045C86.8804 230.045 86.9204 230.035 86.9304 230.065L87.79 235.745C87.79 235.745 87.79 235.815 87.76 235.835L83.6221 240.585H83.6121Z" fill="#92B6DA"/>
</g>
<g opacity="0.5">
<path d="M76.396 252.322C76.396 252.322 76.356 252.302 76.376 252.282L80.0541 246.892C80.0541 246.892 80.104 246.852 80.134 246.852L86.2908 247.432C86.2908 247.432 86.3308 247.452 86.3108 247.472L82.7827 252.002C82.7827 252.002 82.7327 252.042 82.7027 252.042L76.4059 252.312L76.396 252.322Z" fill="#92B6DA"/>
</g>
<g opacity="0.5">
<path d="M29.1308 212.493C29.1308 212.493 29.1008 212.463 29.1308 212.453L34.7179 209.083C34.7179 209.083 34.7778 209.073 34.8078 209.083L40.1551 212.183C40.1551 212.183 40.1751 212.223 40.1551 212.233L35.0577 214.873C35.0577 214.873 34.9877 214.883 34.9677 214.873L29.1407 212.493H29.1308Z" fill="#92B6DA"/>
</g>
<g opacity="0.5">
<path d="M21.3748 220.643C21.3748 220.643 21.3349 220.663 21.3349 220.633L19.9556 214.253C19.9556 214.253 19.9556 214.193 19.9855 214.173L24.6431 210.103C24.6431 210.103 24.6831 210.093 24.6931 210.123L25.5527 215.803C25.5527 215.803 25.5527 215.873 25.5227 215.893L21.3848 220.643H21.3748Z" fill="#92B6DA"/>
</g>
<g opacity="0.5">
<path d="M14.1584 232.384C14.1584 232.384 14.1184 232.364 14.1384 232.344L17.8165 226.954C17.8165 226.954 17.8665 226.914 17.8965 226.914L24.0533 227.494C24.0533 227.494 24.0933 227.514 24.0733 227.534L20.5451 232.064C20.5451 232.064 20.4951 232.104 20.4651 232.104L14.1684 232.374L14.1584 232.384Z" fill="#92B6DA"/>
</g>
<g opacity="0.5">
<path d="M37.3866 222.371C37.3866 222.371 37.3566 222.341 37.3866 222.331L42.9737 218.961C42.9737 218.961 43.0337 218.951 43.0637 218.961L48.4109 222.061C48.4109 222.061 48.4309 222.102 48.4109 222.112L43.3136 224.751C43.3136 224.751 43.2436 224.761 43.2236 224.751L37.3966 222.371H37.3866Z" fill="#92B6DA"/>
</g>
<g opacity="0.5">
<path d="M29.6302 230.522C29.6302 230.522 29.5902 230.542 29.5902 230.512L28.2109 224.132C28.2109 224.132 28.2109 224.072 28.2409 224.052L32.8985 219.982C32.8985 219.982 32.9385 219.972 32.9485 220.002L33.8081 225.682C33.8081 225.682 33.8081 225.752 33.7781 225.772L29.6402 230.522H29.6302Z" fill="#92B6DA"/>
</g>
<g opacity="0.5">
<path d="M22.414 242.263C22.414 242.263 22.374 242.243 22.394 242.223L26.0721 236.833C26.0721 236.833 26.1221 236.793 26.1521 236.793L32.3089 237.373C32.3089 237.373 32.3489 237.393 32.3289 237.413L28.8007 241.943C28.8007 241.943 28.7507 241.983 28.7208 241.983L22.424 242.253L22.414 242.263Z" fill="#92B6DA"/>
</g>
<g opacity="0.5">
<path d="M33.0183 202.361C33.0183 202.361 32.9783 202.341 32.9983 202.321L36.6764 196.931C36.6764 196.931 36.7264 196.891 36.7563 196.891L42.9132 197.471C42.9132 197.471 42.9531 197.491 42.9332 197.511L39.405 202.041C39.405 202.041 39.355 202.081 39.325 202.081L33.0283 202.351L33.0183 202.361Z" fill="#92B6DA"/>
</g>
<g opacity="0.5">
<path d="M56.2465 192.352C56.2465 192.352 56.2165 192.322 56.2465 192.312L61.8336 188.942C61.8336 188.942 61.8936 188.932 61.9236 188.942L67.2708 192.042C67.2708 192.042 67.2908 192.082 67.2708 192.092L62.1734 194.732C62.1734 194.732 62.1035 194.742 62.0835 194.732L56.2565 192.352H56.2465Z" fill="#92B6DA"/>
</g>
<g opacity="0.5">
<path d="M48.5006 200.503C48.5006 200.503 48.4606 200.523 48.4606 200.493L47.0813 194.113C47.0813 194.113 47.0813 194.053 47.1113 194.033L51.7689 189.963C51.7689 189.963 51.8089 189.953 51.8189 189.983L52.6784 195.663C52.6784 195.663 52.6784 195.733 52.6484 195.753L48.5106 200.503H48.5006Z" fill="#92B6DA"/>
</g>
<g opacity="0.5">
<path d="M41.2841 212.243C41.2841 212.243 41.2442 212.223 41.2641 212.203L44.9422 206.813C44.9422 206.813 44.9922 206.773 45.0222 206.773L51.179 207.353C51.179 207.353 51.219 207.373 51.199 207.393L47.6708 211.923C47.6708 211.923 47.6209 211.963 47.5909 211.963L41.2941 212.233L41.2841 212.243Z" fill="#92B6DA"/>
</g>
<g opacity="0.5">
<path d="M6.73208 241.852C6.73208 241.852 6.70209 241.822 6.73208 241.812L12.3192 238.442C12.3192 238.442 12.3792 238.432 12.4091 238.442L17.7564 241.542C17.7564 241.542 17.7764 241.582 17.7564 241.592L12.659 244.232C12.659 244.232 12.5891 244.242 12.5691 244.232L6.74207 241.852H6.73208Z" fill="#92B6DA"/>
</g>
<g opacity="0.5">
<path d="M14.9977 251.731C14.9977 251.731 14.9677 251.701 14.9977 251.691L20.5848 248.321C20.5848 248.321 20.6448 248.311 20.6748 248.321L26.022 251.421C26.022 251.421 26.042 251.461 26.022 251.471L20.9246 254.111C20.9246 254.111 20.8547 254.121 20.8347 254.111L15.0077 251.731H14.9977Z" fill="#92B6DA"/>
</g>
<g opacity="0.5">
<path d="M7.24202 259.881C7.24202 259.881 7.20204 259.901 7.20204 259.871L5.82275 253.491C5.82275 253.491 5.82275 253.431 5.85274 253.411L10.5103 249.341C10.5103 249.341 10.5503 249.331 10.5603 249.361L11.4199 255.041C11.4199 255.041 11.4199 255.111 11.3899 255.131L7.25202 259.881H7.24202Z" fill="#92B6DA"/>
</g>
<g opacity="0.5">
<path d="M0.0255872 271.622C0.0255872 271.622 -0.0143926 271.602 0.00559707 271.582L3.6837 266.192C3.6837 266.192 3.73367 266.152 3.76366 266.152L9.92048 266.732C9.92048 266.732 9.96046 266.752 9.94047 266.772L6.41229 271.302C6.41229 271.302 6.36232 271.342 6.33233 271.342L0.0355804 271.612L0.0255872 271.622Z" fill="#92B6DA"/>
</g>
<g opacity="0.5">
<path d="M23.8529 261.821C23.8529 261.821 23.8229 261.791 23.8529 261.781L29.44 258.411C29.44 258.411 29.5 258.401 29.53 258.411L34.8772 261.511C34.8772 261.511 34.8972 261.551 34.8772 261.561L29.7799 264.201C29.7799 264.201 29.7099 264.211 29.6899 264.201L23.8629 261.821H23.8529Z" fill="#92B6DA"/>
</g>
<g opacity="0.5">
<path d="M16.097 269.96C16.097 269.96 16.057 269.98 16.057 269.95L14.6777 263.57C14.6777 263.57 14.6777 263.51 14.7077 263.49L19.3653 259.42C19.3653 259.42 19.4053 259.41 19.4153 259.44L20.2749 265.12C20.2749 265.12 20.2748 265.19 20.2449 265.21L16.107 269.96H16.097Z" fill="#92B6DA"/>
</g>
<g opacity="0.5">
<path d="M8.88057 281.7C8.88057 281.7 8.84059 281.68 8.86058 281.66L12.5387 276.27C12.5387 276.27 12.5887 276.23 12.6186 276.23L18.7755 276.81C18.7755 276.81 18.8154 276.83 18.7955 276.85L15.2673 281.38C15.2673 281.38 15.2173 281.42 15.1873 281.42L8.89056 281.69L8.88057 281.7Z" fill="#92B6DA"/>
</g>
<g opacity="0.5">
<path d="M32.1088 271.7C32.1088 271.7 32.0788 271.67 32.1088 271.66L37.6959 268.29C37.6959 268.29 37.7559 268.28 37.7859 268.29L43.1331 271.39C43.1331 271.39 43.1531 271.43 43.1331 271.44L38.0357 274.08C38.0357 274.08 37.9658 274.09 37.9458 274.08L32.1188 271.7H32.1088Z" fill="#92B6DA"/>
</g>
<g opacity="0.5">
<path d="M24.3526 279.842C24.3526 279.842 24.3126 279.862 24.3126 279.832L22.9333 273.452C22.9333 273.452 22.9333 273.392 22.9633 273.372L27.6209 269.302C27.6209 269.302 27.6609 269.292 27.6709 269.322L28.5305 275.002C28.5305 275.002 28.5305 275.072 28.5005 275.092L24.3626 279.842H24.3526Z" fill="#92B6DA"/>
</g>
<g opacity="0.5">
<path d="M17.1362 291.579C17.1362 291.579 17.0962 291.559 17.1162 291.539L20.7943 286.149C20.7943 286.149 20.8443 286.109 20.8743 286.109L27.0311 286.689C27.0311 286.689 27.0711 286.709 27.0511 286.729L23.5229 291.259C23.5229 291.259 23.4729 291.299 23.4429 291.299L17.1462 291.569L17.1362 291.579Z" fill="#92B6DA"/>
</g>
<g opacity="0.5">
<path d="M41.0944 281.621C41.0944 281.621 41.0644 281.591 41.0944 281.581L46.6815 278.211C46.6815 278.211 46.7415 278.201 46.7715 278.211L52.1187 281.311C52.1187 281.311 52.1387 281.352 52.1187 281.362L47.0213 284.001C47.0213 284.001 46.9514 284.011 46.9314 284.001L41.1044 281.621H41.0944Z" fill="#92B6DA"/>
</g>
<g opacity="0.5">
<path d="M33.3387 289.76C33.3387 289.76 33.2987 289.78 33.2987 289.75L31.9194 283.37C31.9194 283.37 31.9194 283.31 31.9494 283.29L36.607 279.22C36.607 279.22 36.647 279.21 36.657 279.24L37.5166 284.92C37.5166 284.92 37.5165 284.99 37.4866 285.01L33.3487 289.76H33.3387Z" fill="#92B6DA"/>
</g>
<g opacity="0.5">
<path d="M26.1223 301.513C26.1223 301.513 26.0823 301.493 26.1023 301.473L29.7804 296.083C29.7804 296.083 29.8304 296.043 29.8603 296.043L36.0172 296.623C36.0172 296.623 36.0571 296.643 36.0372 296.663L32.509 301.193C32.509 301.193 32.459 301.233 32.429 301.233L26.1323 301.503L26.1223 301.513Z" fill="#92B6DA"/>
</g>
<g opacity="0.5">
<path d="M49.3505 291.5C49.3505 291.5 49.3205 291.47 49.3505 291.46L54.9376 288.09C54.9376 288.09 54.9976 288.08 55.0276 288.09L60.3748 291.19C60.3748 291.19 60.3948 291.23 60.3748 291.24L55.2774 293.88C55.2774 293.88 55.2075 293.89 55.1875 293.88L49.3605 291.5H49.3505Z" fill="#92B6DA"/>
</g>
<g opacity="0.5">
<path d="M41.5941 299.643C41.5941 299.643 41.5541 299.663 41.5541 299.633L40.1748 293.253C40.1748 293.253 40.1748 293.193 40.2048 293.173L44.8624 289.103C44.8624 289.103 44.9024 289.093 44.9124 289.123L45.7719 294.803C45.7719 294.803 45.7719 294.873 45.7419 294.893L41.6041 299.643H41.5941Z" fill="#92B6DA"/>
</g>
<g opacity="0.5">
<path d="M132.347 128.481C132.347 128.481 132.317 128.451 132.347 128.441L137.934 125.071C137.934 125.071 137.994 125.061 138.024 125.071L143.371 128.171C143.371 128.171 143.391 128.211 143.371 128.221L138.274 130.861C138.274 130.861 138.204 130.871 138.184 130.861L132.357 128.481H132.347Z" fill="#92B6DA"/>
</g>
<g opacity="0.5">
<path d="M124.591 136.631C124.591 136.631 124.551 136.651 124.551 136.621L123.172 130.241C123.172 130.241 123.172 130.181 123.202 130.161L127.859 126.091C127.859 126.091 127.899 126.081 127.909 126.111L128.769 131.791C128.769 131.791 128.769 131.861 128.739 131.881L124.601 136.631H124.591Z" fill="#92B6DA"/>
</g>
<g opacity="0.5">
<path d="M117.375 148.372C117.375 148.372 117.335 148.352 117.355 148.332L121.033 142.942C121.033 142.942 121.083 142.902 121.113 142.902L127.27 143.482C127.27 143.482 127.31 143.502 127.29 143.522L123.761 148.052C123.761 148.052 123.711 148.092 123.681 148.092L117.385 148.362L117.375 148.372Z" fill="#92B6DA"/>
</g>
<g opacity="0.5">
<path d="M140.613 138.36C140.613 138.36 140.583 138.33 140.613 138.32L146.2 134.95C146.2 134.95 146.26 134.94 146.29 134.95L151.637 138.05C151.637 138.05 151.657 138.09 151.637 138.1L146.54 140.74C146.54 140.74 146.47 140.75 146.45 140.74L140.623 138.36H140.613Z" fill="#92B6DA"/>
</g>
<g opacity="0.5">
<path d="M132.857 146.51C132.857 146.51 132.817 146.53 132.817 146.5L131.438 140.12C131.438 140.12 131.437 140.06 131.467 140.04L136.125 135.97C136.125 135.97 136.165 135.96 136.175 135.99L137.035 141.67C137.035 141.67 137.035 141.74 137.005 141.76L132.867 146.51H132.857Z" fill="#92B6DA"/>
</g>
<g opacity="0.5">
<path d="M125.641 158.251C125.641 158.251 125.601 158.231 125.621 158.211L129.299 152.821C129.299 152.821 129.349 152.781 129.379 152.781L135.535 153.361C135.535 153.361 135.575 153.381 135.555 153.401L132.027 157.931C132.027 157.931 131.977 157.971 131.947 157.971L125.651 158.241L125.641 158.251Z" fill="#92B6DA"/>
</g>
<g opacity="0.5">
<path d="M131.188 176.45C131.188 176.45 131.158 176.42 131.188 176.41L136.775 173.04C136.775 173.04 136.835 173.03 136.865 173.04L142.212 176.14C142.212 176.14 142.232 176.18 142.212 176.19L137.115 178.83C137.115 178.83 137.045 178.84 137.025 178.83L131.198 176.45H131.188Z" fill="#92B6DA"/>
</g>
<g opacity="0.5">
<path d="M123.432 184.6C123.432 184.6 123.392 184.62 123.392 184.59L122.013 178.21C122.013 178.21 122.013 178.15 122.043 178.13L126.701 174.06C126.701 174.06 126.74 174.05 126.75 174.08L127.61 179.76C127.61 179.76 127.61 179.83 127.58 179.85L123.442 184.6H123.432Z" fill="#92B6DA"/>
</g>
<g opacity="0.5">
<path d="M116.216 196.341C116.216 196.341 116.176 196.321 116.196 196.301L119.874 190.911C119.874 190.911 119.924 190.871 119.954 190.871L126.111 191.451C126.111 191.451 126.151 191.471 126.131 191.491L122.603 196.021C122.603 196.021 122.553 196.061 122.523 196.061L116.226 196.331L116.216 196.341Z" fill="#92B6DA"/>
</g>
<g opacity="0.5">
<path d="M139.444 186.328C139.444 186.328 139.414 186.299 139.444 186.289L145.031 182.919C145.031 182.919 145.091 182.909 145.121 182.919L150.469 186.018C150.469 186.018 150.489 186.059 150.469 186.069L145.371 188.708C145.371 188.708 145.301 188.718 145.281 188.708L139.454 186.328H139.444Z" fill="#92B6DA"/>
</g>
<g opacity="0.5">
<path d="M131.688 194.471C131.688 194.471 131.648 194.491 131.648 194.461L130.269 188.081C130.269 188.081 130.269 188.021 130.299 188.001L134.956 183.931C134.956 183.931 134.996 183.921 135.006 183.951L135.866 189.631C135.866 189.631 135.866 189.701 135.836 189.721L131.698 194.471H131.688Z" fill="#92B6DA"/>
</g>
<g opacity="0.5">
<path d="M124.472 206.22C124.472 206.22 124.432 206.2 124.452 206.18L128.13 200.79C128.13 200.79 128.18 200.75 128.21 200.75L134.367 201.33C134.367 201.33 134.407 201.35 134.387 201.37L130.859 205.9C130.859 205.9 130.809 205.94 130.779 205.94L124.482 206.21L124.472 206.22Z" fill="#92B6DA"/>
</g>
<g opacity="0.5">
<path d="M113.627 156.403C113.627 156.403 113.597 156.373 113.627 156.363L119.214 152.993C119.214 152.993 119.274 152.983 119.304 152.993L124.651 156.093C124.651 156.093 124.671 156.133 124.651 156.143L119.554 158.783C119.554 158.783 119.484 158.793 119.464 158.783L113.637 156.403H113.627Z" fill="#92B6DA"/>
</g>
<g opacity="0.5">
<path d="M98.6545 176.294C98.6545 176.294 98.6145 176.274 98.6345 176.254L102.313 170.864C102.313 170.864 102.363 170.824 102.393 170.824L108.549 171.404C108.549 171.404 108.589 171.424 108.569 171.444L105.041 175.974C105.041 175.974 104.991 176.014 104.961 176.014L98.6645 176.284L98.6545 176.294Z" fill="#92B6DA"/>
</g>
<g opacity="0.5">
<path d="M121.883 166.282C121.883 166.282 121.853 166.252 121.883 166.242L127.47 162.872C127.47 162.872 127.53 162.862 127.56 162.872L132.907 165.972C132.907 165.972 132.927 166.012 132.907 166.022L127.81 168.662C127.81 168.662 127.74 168.672 127.72 168.662L121.893 166.282H121.883Z" fill="#92B6DA"/>
</g>
<g opacity="0.5">
<path d="M114.126 174.432C114.126 174.432 114.086 174.452 114.086 174.422L112.707 168.042C112.707 168.042 112.707 167.982 112.737 167.962L117.395 163.892C117.395 163.892 117.435 163.882 117.445 163.912L118.304 169.592C118.304 169.592 118.304 169.662 118.274 169.682L114.136 174.432H114.126Z" fill="#92B6DA"/>
</g>
<g opacity="0.5">
<path d="M106.91 186.173C106.91 186.173 106.87 186.153 106.89 186.133L110.568 180.743C110.568 180.743 110.618 180.703 110.648 180.703L116.805 181.283C116.805 181.283 116.845 181.303 116.825 181.323L113.297 185.853C113.297 185.853 113.247 185.893 113.217 185.893L106.92 186.163L106.91 186.173Z" fill="#92B6DA"/>
</g>
<g opacity="0.5">
<path d="M144.132 155.471C144.132 155.471 144.092 155.491 144.092 155.461L142.712 149.081C142.712 149.081 142.712 149.021 142.742 149.001L147.4 144.931C147.4 144.931 147.44 144.921 147.45 144.951L148.31 150.631C148.31 150.631 148.31 150.701 148.28 150.721L144.142 155.471H144.132Z" fill="#92B6DA"/>
</g>
<g opacity="0.5">
<path d="M136.915 167.212C136.915 167.212 136.875 167.192 136.895 167.172L140.573 161.782C140.573 161.782 140.623 161.742 140.653 161.742L146.81 162.322C146.81 162.322 146.85 162.342 146.83 162.362L143.302 166.892C143.302 166.892 143.252 166.932 143.222 166.932L136.925 167.202L136.915 167.212Z" fill="#92B6DA"/>
</g>
<g opacity="0.5">
<path d="M152.397 165.35C152.397 165.35 152.357 165.37 152.357 165.34L150.978 158.96C150.978 158.96 150.978 158.9 151.008 158.88L155.666 154.81C155.666 154.81 155.706 154.8 155.716 154.83L156.575 160.51C156.575 160.51 156.575 160.58 156.545 160.6L152.407 165.35H152.397Z" fill="#92B6DA"/>
</g>
<g opacity="0.5">
<path d="M145.181 177.091C145.181 177.091 145.141 177.071 145.161 177.051L148.839 171.661C148.839 171.661 148.889 171.621 148.919 171.621L155.076 172.201C155.076 172.201 155.116 172.221 155.096 172.241L151.568 176.771C151.568 176.771 151.518 176.811 151.488 176.811L145.191 177.081L145.181 177.091Z" fill="#92B6DA"/>
</g>
<g opacity="0.5">
<path d="M116.775 107.231C116.775 107.231 116.745 107.201 116.775 107.191L122.362 103.821C122.362 103.821 122.422 103.811 122.452 103.821L127.8 106.921C127.8 106.921 127.82 106.961 127.8 106.971L122.702 109.611C122.702 109.611 122.632 109.621 122.612 109.611L116.785 107.231H116.775Z" fill="#92B6DA"/>
</g>
<g opacity="0.5">
<path d="M125.031 117.11C125.031 117.11 125.001 117.08 125.031 117.07L130.618 113.7C130.618 113.7 130.678 113.69 130.708 113.7L136.055 116.8C136.055 116.8 136.075 116.84 136.055 116.85L130.958 119.49C130.958 119.49 130.888 119.5 130.868 119.49L125.041 117.11H125.031Z" fill="#92B6DA"/>
</g>
<g opacity="0.5">
<path d="M117.275 125.26C117.275 125.26 117.235 125.28 117.235 125.25L115.856 118.87C115.856 118.87 115.856 118.81 115.886 118.79L120.543 114.72C120.543 114.72 120.583 114.71 120.593 114.74L121.453 120.42C121.453 120.42 121.453 120.49 121.423 120.51L117.285 125.26H117.275Z" fill="#92B6DA"/>
</g>
<g opacity="0.5">
<path d="M110.059 137.001C110.059 137.001 110.019 136.981 110.039 136.961L113.717 131.571C113.717 131.571 113.767 131.531 113.797 131.531L119.954 132.111C119.954 132.111 119.994 132.131 119.974 132.151L116.445 136.681C116.445 136.681 116.396 136.721 116.366 136.721L110.069 136.991L110.059 137.001Z" fill="#92B6DA"/>
</g>
<g opacity="0.5">
<path d="M60.5441 186.501C60.5441 186.501 60.5042 186.481 60.5242 186.461L64.2023 181.071C64.2023 181.071 64.2522 181.031 64.2822 181.031L70.439 181.611C70.439 181.611 70.479 181.631 70.459 181.651L66.9309 186.181C66.9309 186.181 66.8809 186.221 66.8509 186.221L60.5541 186.491L60.5441 186.501Z" fill="#92B6DA"/>
</g>
<g opacity="0.5">
<path d="M83.7724 176.493C83.7724 176.493 83.7424 176.463 83.7724 176.453L89.3595 173.083C89.3595 173.083 89.4195 173.073 89.4494 173.083L94.7967 176.183C94.7967 176.183 94.8167 176.223 94.7967 176.233L89.6993 178.873C89.6993 178.873 89.6294 178.883 89.6094 178.873L83.7824 176.493H83.7724Z" fill="#92B6DA"/>
</g>
<g opacity="0.5">
<path d="M76.0159 184.643C76.0159 184.643 75.976 184.663 75.976 184.633L74.5967 178.253C74.5967 178.253 74.5967 178.193 74.6267 178.173L79.2843 174.103C79.2843 174.103 79.3242 174.093 79.3342 174.123L80.1938 179.803C80.1938 179.803 80.1938 179.873 80.1638 179.893L76.0259 184.643H76.0159Z" fill="#92B6DA"/>
</g>
<g opacity="0.5">
<path d="M68.7998 196.384C68.7998 196.384 68.7598 196.364 68.7798 196.344L72.4579 190.954C72.4579 190.954 72.5078 190.914 72.5378 190.914L78.6947 191.494C78.6947 191.494 78.7346 191.514 78.7146 191.534L75.1865 196.064C75.1865 196.064 75.1365 196.104 75.1065 196.104L68.8098 196.374L68.7998 196.384Z" fill="#92B6DA"/>
</g>
<g opacity="0.5">
<path d="M92.6276 186.582C92.6276 186.582 92.5976 186.552 92.6276 186.542L98.2147 183.172C98.2147 183.172 98.2747 183.162 98.3047 183.172L103.652 186.272C103.652 186.272 103.672 186.312 103.652 186.322L98.5545 188.962C98.5545 188.962 98.4846 188.972 98.4646 188.962L92.6376 186.582H92.6276Z" fill="#92B6DA"/>
</g>
<g opacity="0.5">
<path d="M84.8817 194.721C84.8817 194.721 84.8417 194.741 84.8417 194.711L83.4624 188.331C83.4624 188.331 83.4624 188.271 83.4924 188.251L88.15 184.181C88.15 184.181 88.19 184.171 88.2 184.201L89.0595 189.881C89.0595 189.881 89.0595 189.951 89.0295 189.971L84.8917 194.721H84.8817Z" fill="#92B6DA"/>
</g>
<g opacity="0.5">
<path d="M77.6652 206.474C77.6652 206.474 77.6253 206.454 77.6452 206.434L81.3233 201.044C81.3233 201.044 81.3733 201.004 81.4033 201.004L87.5601 201.584C87.5601 201.584 87.6001 201.604 87.5801 201.624L84.0519 206.154C84.0519 206.154 84.002 206.194 83.972 206.194L77.6752 206.464L77.6652 206.474Z" fill="#92B6DA"/>
</g>
<g opacity="0.5">
<path d="M100.893 196.461C100.893 196.461 100.863 196.431 100.893 196.421L106.481 193.051C106.481 193.051 106.541 193.041 106.571 193.051L111.918 196.151C111.918 196.151 111.938 196.191 111.918 196.201L106.82 198.841C106.82 198.841 106.75 198.851 106.73 198.841L100.903 196.461H100.893Z" fill="#92B6DA"/>
</g>
<g opacity="0.5">
<path d="M93.137 204.604C93.137 204.604 93.0971 204.624 93.0971 204.594L91.7178 198.214C91.7178 198.214 91.7178 198.154 91.7478 198.134L96.4053 194.064C96.4053 194.064 96.4453 194.054 96.4553 194.084L97.3149 199.764C97.3149 199.764 97.3149 199.834 97.2849 199.854L93.147 204.604H93.137Z" fill="#92B6DA"/>
</g>
<g opacity="0.5">
<path d="M85.9209 216.341C85.9209 216.341 85.8809 216.321 85.9009 216.301L89.579 210.911C89.579 210.911 89.6289 210.871 89.6589 210.871L95.8157 211.451C95.8157 211.451 95.8557 211.471 95.8357 211.491L92.3076 216.021C92.3076 216.021 92.2576 216.061 92.2276 216.061L85.9308 216.331L85.9209 216.341Z" fill="#92B6DA"/>
</g>
<g opacity="0.5">
<path d="M109.869 206.379C109.869 206.379 109.839 206.349 109.869 206.339L115.456 202.969C115.456 202.969 115.516 202.959 115.546 202.969L120.893 206.069C120.893 206.069 120.913 206.109 120.893 206.119L115.796 208.759C115.796 208.759 115.726 208.769 115.706 208.759L109.879 206.379H109.869Z" fill="#92B6DA"/>
</g>
<g opacity="0.5">
<path d="M102.113 214.53C102.113 214.53 102.073 214.55 102.073 214.52L100.694 208.14C100.694 208.14 100.694 208.08 100.724 208.06L105.381 203.99C105.381 203.99 105.421 203.98 105.431 204.01L106.291 209.69C106.291 209.69 106.291 209.76 106.261 209.78L102.123 214.53H102.113Z" fill="#92B6DA"/>
</g>
<g opacity="0.5">
<path d="M94.8967 226.271C94.8967 226.271 94.8567 226.251 94.8767 226.231L98.5548 220.841C98.5548 220.841 98.6048 220.801 98.6348 220.801L104.792 221.381C104.792 221.381 104.832 221.401 104.812 221.421L101.283 225.951C101.283 225.951 101.233 225.991 101.203 225.991L94.9067 226.261L94.8967 226.271Z" fill="#92B6DA"/>
</g>
<g opacity="0.5">
<path d="M118.135 216.258C118.135 216.258 118.105 216.228 118.135 216.218L123.722 212.848C123.722 212.848 123.782 212.838 123.812 212.848L129.159 215.948C129.159 215.948 129.179 215.988 129.159 215.998L124.062 218.638C124.062 218.638 123.992 218.648 123.972 218.638L118.145 216.258H118.135Z" fill="#92B6DA"/>
</g>
<g opacity="0.5">
<path d="M110.379 224.409C110.379 224.409 110.339 224.429 110.339 224.399L108.959 218.019C108.959 218.019 108.959 217.959 108.989 217.939L113.647 213.869C113.647 213.869 113.687 213.859 113.697 213.889L114.557 219.569C114.557 219.569 114.557 219.639 114.527 219.659L110.389 224.409H110.379Z" fill="#92B6DA"/>
</g>
<g opacity="0.5">
<path d="M103.162 236.15C103.162 236.15 103.122 236.13 103.142 236.11L106.82 230.72C106.82 230.72 106.87 230.68 106.9 230.68L113.057 231.26C113.057 231.26 113.097 231.28 113.077 231.3L109.549 235.83C109.549 235.83 109.499 235.87 109.469 235.87L103.172 236.14L103.162 236.15Z" fill="#92B6DA"/>
</g>
</g>
<path d="M166.57 347.373L145.021 380.943C140.233 388.403 131.448 390.043 123.952 385.693C117.335 381.853 113.507 371.493 119.104 364.653L145.321 332.583L104.722 322.283C99.3645 320.923 96.0962 314.713 95.5365 310.673C94.6769 304.383 96.6659 298.783 101.813 295.243C106.301 292.163 112.578 292.083 117.505 294.063L153.247 308.413L150.578 270.703C149.878 260.843 156.145 252.463 165.58 252.243C174.936 252.023 182.362 259.803 181.622 269.703L178.774 307.853L217.094 292.723C224.61 289.753 232.346 294.893 235.534 301.233C238.883 309.043 235.614 316.723 228.248 321.763L186.919 332.213L210.737 360.223C216.644 367.163 218.083 375.483 212.236 382.313C206.379 389.143 196.345 389.833 189.438 383.403L166.58 347.393L166.57 347.373Z" fill="#603813"/>
<path d="M180.513 342.651L182.242 382.521C182.622 391.371 176.395 397.781 167.759 398.551C160.143 399.231 151.048 392.971 151.668 384.161L154.616 342.841L115.506 357.841C110.349 359.821 104.102 356.631 101.314 353.651C96.986 349.011 95.3868 343.281 97.5557 337.431C99.4447 332.321 104.522 328.641 109.699 327.411L147.17 318.521L123.262 289.241C117.006 281.581 117.296 271.121 124.882 265.501C132.398 259.931 142.952 262.001 148.05 270.511L167.7 303.321L190.288 268.851C194.716 262.091 204.001 261.831 210.258 265.171C217.494 269.631 219.253 277.781 216.135 286.151L188.389 318.521L223.99 327.671C232.816 329.941 238.793 335.901 237.943 344.861C237.094 353.821 229.288 360.171 219.943 358.901L180.513 342.661V342.651Z" fill="#603813"/>
<rect x="89.1997" y="398.871" width="15.4172" height="0.203125" fill="#DCD6CB"/>
<rect x="89.406" y="398.742" width="15.168" height="0.273438" fill="#DCD6CB"/>
<line x1="104.276" y1="398.907" x2="104.594" y2="398.772" stroke="#DCD6CB"/>
<line x1="89.1784" y1="399.282" x2="88.9866" y2="398.995" stroke="#DCD6CB"/>
</svg>
