<svg width="321" height="685" viewBox="0 0 321 685" fill="none" xmlns="http://www.w3.org/2000/svg">
<path d="M105.03 62.8922C96.09 65.8722 94.86 78.0522 103.04 82.7522C112.2 88.0122 121.31 94.1222 121.31 101.502V164.432C121.31 168.112 118.7 171.262 115.09 171.962C94.27 175.952 27.69 193.112 15.7 251.022C11.89 269.452 10.71 289.122 11.04 308.042C11.82 353.352 21.54 398.062 39.04 439.872C55.73 479.732 80.84 546.752 84.69 597.272C85.47 607.492 80.77 617.332 72.45 623.322C65.7 628.172 59.81 633.392 59.81 640.632C59.81 652.892 82.16 679.992 164.03 679.992C195.46 679.992 218.35 674.832 234.62 668.482C254.18 660.842 256.55 634.112 238.6 623.202C238.35 623.052 238.1 622.902 237.84 622.742C235.37 621.242 233.95 618.492 234.15 615.612C236.82 576.832 277.77 459.492 294.55 403.512C300.55 383.492 323.62 303.242 302.86 240.352C285.69 188.362 227.92 175.292 208.4 172.332C204.66 171.762 201.9 168.542 201.9 164.762V103.032C201.9 101.942 202.13 100.872 202.58 99.8822C204.94 94.6822 231.05 88.7522 231.05 77.7422C231.05 65.7322 217.87 55.2422 159.88 55.2422C134.88 55.2422 117.06 58.9122 105.04 62.9122L105.03 62.8922Z" fill="#DCD6CB"/>
<path d="M105.03 62.8922C96.09 65.8722 94.86 78.0522 103.04 82.7522C112.2 88.0122 121.31 94.1222 121.31 101.502V164.432C121.31 168.112 118.7 171.262 115.09 171.962C94.27 175.952 27.69 193.112 15.7 251.022C11.89 269.452 10.71 289.122 11.04 308.042C11.82 353.352 21.54 398.062 39.04 439.872C55.73 479.732 80.84 546.752 84.69 597.272C85.47 607.492 80.77 617.332 72.45 623.322C65.7 628.172 59.81 633.392 59.81 640.632C59.81 652.892 82.16 679.992 164.03 679.992C195.46 679.992 218.35 674.832 234.62 668.482C254.18 660.842 256.55 634.112 238.6 623.202C238.35 623.052 238.1 622.902 237.84 622.742C235.37 621.242 233.95 618.492 234.15 615.612C236.82 576.832 277.77 459.492 294.55 403.512C300.55 383.492 323.62 303.242 302.86 240.352C285.69 188.362 227.92 175.292 208.4 172.332C204.66 171.762 201.9 168.542 201.9 164.762V103.032C201.9 101.942 202.13 100.872 202.58 99.8822C204.94 94.6822 231.05 88.7522 231.05 77.7422C231.05 65.7322 217.87 55.2422 159.88 55.2422C134.88 55.2422 117.06 58.9122 105.04 62.9122L105.03 62.8922Z" stroke="#DCD6CB" stroke-width="9" stroke-miterlimit="10"/>
<path d="M75.6802 612.434C115.11 626.084 157.84 633.574 199.2 625.744C212.89 623.164 226.15 618.554 238.88 612.434C221.32 624.464 200.14 631.194 178.93 633.154C143.9 636.254 106.87 628.544 75.6802 612.434Z" fill="#E2E3E2"/>
<path d="M128.41 53.6409V38.5109C128.41 38.5109 113.73 37.7709 113.73 20.2709C113.73 2.77086 137.12 4.55086 137.12 4.55086H194.87C200.5 4.55086 206.05 7.00086 209.26 11.6309C210.89 13.9909 212.08 17.0209 212.08 20.8709C212.08 33.1809 200.81 38.3709 200.81 38.3709L200.07 54.0909L128.43 53.6509L128.41 53.6409Z" fill="#CDB43A" stroke="#CDB43A" stroke-width="9" stroke-miterlimit="10"/>
<path d="M257.17 202.953C279.19 211.383 291.25 238.673 295.49 260.403C300.1 283.673 299.28 307.873 295.03 331.103C295.31 302.053 295.24 272.523 286.24 244.663C280.84 228.573 272.17 211.903 257.17 202.953Z" fill="#E7E2D5"/>
<path d="M66.1198 202.143C59.7598 205.703 54.7098 211.163 50.3598 216.913C44.4298 225.053 40.1698 234.303 37.0398 243.853C28.0398 271.713 27.9698 301.243 28.2498 330.293C23.7598 305.613 23.0398 279.783 28.7498 255.213C33.5098 234.793 45.3698 210.073 66.1098 202.133L66.1198 202.143Z" fill="#E7E2D5"/>
<path d="M126.27 103.631C137.25 120.211 136.3 146.011 127.49 163.371C127.68 159.491 128.18 155.791 128.45 151.961C129.9 135.801 129.62 119.601 126.27 103.621V103.631Z" fill="#E7E2D5"/>
<path d="M197.33 104.141C193.98 120.111 193.7 136.321 195.15 152.481C195.42 156.301 195.92 160.001 196.11 163.891C187.3 146.541 186.35 120.741 197.33 104.151V104.141Z" fill="#E7E2D5"/>
<path d="M33.1099 432.591C33.1099 432.591 161.77 421.991 280.92 432.011C265.9 452.031 257.39 457.041 257.39 457.041L33.1099 432.591Z" fill="#A2A2D0"/>
<path d="M31.8799 432.744C31.8799 432.744 95.7099 412.394 152.78 432.744C209.85 453.094 281.19 431.584 281.19 431.584C281.19 431.584 227.12 558.934 227.12 603.704C171.55 625.224 97.9599 606.034 97.9599 606.034C97.9599 606.034 101.71 541.484 31.8799 432.754V432.744Z" fill="#7474B9"/>
<g opacity="0.5">
<g opacity="0.5">
<path d="M62.6698 203.472C62.6698 203.472 62.6398 203.442 62.6698 203.432L68.2098 199.982C68.2098 199.982 68.2698 199.962 68.2998 199.982L73.6998 203.002C73.6998 203.002 73.7198 203.042 73.6998 203.052L68.6398 205.772C68.6398 205.772 68.5798 205.792 68.5498 205.772L62.6798 203.482L62.6698 203.472Z" fill="#92B6DA"/>
</g>
<g opacity="0.5">
<path d="M55.0399 211.74C55.0399 211.74 54.9999 211.76 54.9999 211.73L53.5199 205.37C53.5199 205.37 53.5199 205.31 53.5499 205.29L58.1499 201.15C58.1499 201.15 58.1899 201.14 58.1999 201.17L59.1499 206.84C59.1499 206.84 59.1499 206.91 59.1299 206.93L55.0699 211.75L55.0399 211.74Z" fill="#92B6DA"/>
</g>
<g opacity="0.5">
<path d="M48.0099 223.592C48.0099 223.592 47.9699 223.573 47.9899 223.553L51.5799 218.103C51.5799 218.103 51.6299 218.062 51.6599 218.062L57.8299 218.543C57.8299 218.543 57.8699 218.563 57.8499 218.583L54.3899 223.173C54.3899 223.173 54.3399 223.213 54.3099 223.213L48.0199 223.583L48.0099 223.592Z" fill="#92B6DA"/>
</g>
<g opacity="0.5">
<path d="M71.0899 213.222C71.0899 213.222 71.0599 213.192 71.0899 213.182L76.6299 209.732C76.6299 209.732 76.6899 209.712 76.7199 209.732L82.1199 212.752C82.1199 212.752 82.1399 212.792 82.1199 212.802L77.0599 215.522C77.0599 215.522 76.9999 215.542 76.9699 215.522L71.0999 213.232L71.0899 213.222Z" fill="#92B6DA"/>
</g>
<g opacity="0.5">
<path d="M63.4598 221.49C63.4598 221.49 63.4198 221.51 63.4198 221.48L61.9398 215.12C61.9398 215.12 61.9398 215.06 61.9698 215.04L66.5698 210.9C66.5698 210.9 66.6098 210.89 66.6198 210.92L67.5698 216.59C67.5698 216.59 67.5698 216.66 67.5498 216.68L63.4898 221.5L63.4598 221.49Z" fill="#92B6DA"/>
</g>
<g opacity="0.5">
<path d="M56.4199 233.342C56.4199 233.342 56.3799 233.323 56.3999 233.303L59.9899 227.853C59.9899 227.853 60.0399 227.812 60.0699 227.812L66.2399 228.293C66.2399 228.293 66.2799 228.313 66.2599 228.333L62.7999 232.923C62.7999 232.923 62.7499 232.963 62.7199 232.963L56.4299 233.333L56.4199 233.342Z" fill="#92B6DA"/>
</g>
<g opacity="0.5">
<path d="M62.2499 251.452C62.2499 251.452 62.2199 251.422 62.2499 251.412L67.7899 247.962C67.7899 247.962 67.8499 247.942 67.8799 247.962L73.2799 250.982C73.2799 250.982 73.2999 251.022 73.2799 251.032L68.2199 253.752C68.2199 253.752 68.1599 253.772 68.1299 253.752L62.2599 251.462L62.2499 251.452Z" fill="#92B6DA"/>
</g>
<g opacity="0.5">
<path d="M54.62 259.72C54.62 259.72 54.58 259.741 54.58 259.711L53.1 253.351C53.1 253.351 53.1 253.291 53.13 253.271L57.73 249.13C57.73 249.13 57.77 249.121 57.78 249.151L58.73 254.821C58.73 254.821 58.73 254.89 58.71 254.91L54.65 259.731L54.62 259.72Z" fill="#92B6DA"/>
</g>
<g opacity="0.5">
<path d="M47.5899 271.573C47.5899 271.573 47.5499 271.553 47.5699 271.533L51.1599 266.083C51.1599 266.083 51.2099 266.043 51.2399 266.043L57.4099 266.523C57.4099 266.523 57.4499 266.543 57.4299 266.563L53.9699 271.153C53.9699 271.153 53.9199 271.193 53.8899 271.193L47.5999 271.563L47.5899 271.573Z" fill="#92B6DA"/>
</g>
<g opacity="0.5">
<path d="M70.6699 261.202C70.6699 261.202 70.6399 261.172 70.6699 261.162L76.21 257.712C76.21 257.712 76.27 257.692 76.3 257.712L81.6999 260.732C81.6999 260.732 81.7199 260.772 81.6999 260.782L76.64 263.502C76.64 263.502 76.58 263.522 76.55 263.502L70.68 261.212L70.6699 261.202Z" fill="#92B6DA"/>
</g>
<g opacity="0.5">
<path d="M63.0399 269.47C63.0399 269.47 62.9999 269.491 62.9999 269.461L61.5199 263.101C61.5199 263.101 61.5199 263.041 61.5499 263.021L66.1499 258.88C66.1499 258.88 66.1899 258.871 66.1999 258.901L67.1499 264.571C67.1499 264.571 67.1499 264.64 67.1299 264.66L63.0699 269.481L63.0399 269.47Z" fill="#92B6DA"/>
</g>
<g opacity="0.5">
<path d="M56 281.323C56 281.323 55.96 281.303 55.98 281.283L59.57 275.833C59.57 275.833 59.62 275.793 59.65 275.793L65.82 276.273C65.82 276.273 65.86 276.293 65.84 276.313L62.38 280.903C62.38 280.903 62.33 280.943 62.3 280.943L56.01 281.313L56 281.323Z" fill="#92B6DA"/>
</g>
<g opacity="0.5">
<path d="M44.3699 231.683C44.3699 231.683 44.3399 231.652 44.3699 231.642L49.9099 228.192C49.9099 228.192 49.9699 228.172 49.9999 228.192L55.3999 231.213C55.3999 231.213 55.4199 231.252 55.3999 231.262L50.3399 233.982C50.3399 233.982 50.2799 234.002 50.2499 233.982L44.3799 231.692L44.3699 231.683Z" fill="#92B6DA"/>
</g>
<g opacity="0.5">
<path d="M36.74 239.951C36.74 239.951 36.7 239.971 36.7 239.941L35.22 233.581C35.22 233.581 35.22 233.521 35.25 233.501L39.85 229.361C39.85 229.361 39.89 229.351 39.9 229.381L40.85 235.051C40.85 235.051 40.85 235.121 40.83 235.141L36.77 239.961L36.74 239.951Z" fill="#92B6DA"/>
</g>
<g opacity="0.5">
<path d="M29.7099 251.803C29.7099 251.803 29.6699 251.783 29.6899 251.763L33.2799 246.313C33.2799 246.313 33.3299 246.273 33.3599 246.273L39.5299 246.753C39.5299 246.753 39.5699 246.773 39.5499 246.793L36.0899 251.383C36.0899 251.383 36.0399 251.423 36.0099 251.423L29.7199 251.793L29.7099 251.803Z" fill="#92B6DA"/>
</g>
<g opacity="0.5">
<path d="M52.7899 241.433C52.7899 241.433 52.7599 241.402 52.7899 241.392L58.3299 237.942C58.3299 237.942 58.3899 237.922 58.4199 237.942L63.8199 240.963C63.8199 240.963 63.8399 241.002 63.8199 241.012L58.7599 243.732C58.7599 243.732 58.6999 243.752 58.6699 243.732L52.7999 241.442L52.7899 241.433Z" fill="#92B6DA"/>
</g>
<g opacity="0.5">
<path d="M45.1599 249.701C45.1599 249.701 45.1199 249.721 45.1199 249.691L43.6399 243.331C43.6399 243.331 43.6399 243.271 43.6699 243.251L48.2699 239.111C48.2699 239.111 48.3099 239.101 48.3199 239.131L49.2699 244.801C49.2699 244.801 49.2699 244.871 49.2499 244.891L45.1899 249.711L45.1599 249.701Z" fill="#92B6DA"/>
</g>
<g opacity="0.5">
<path d="M38.12 261.553C38.12 261.553 38.08 261.533 38.1 261.513L41.69 256.063C41.69 256.063 41.74 256.023 41.77 256.023L47.94 256.503C47.94 256.503 47.98 256.523 47.96 256.543L44.5 261.133C44.5 261.133 44.45 261.173 44.42 261.173L38.13 261.543L38.12 261.553Z" fill="#92B6DA"/>
</g>
<g opacity="0.5">
<path d="M82.5098 222.003C82.5098 222.003 82.4798 221.973 82.5098 221.963L88.0498 218.513C88.0498 218.513 88.1098 218.493 88.1398 218.513L93.5398 221.533C93.5398 221.533 93.5598 221.573 93.5398 221.583L88.4798 224.303C88.4798 224.303 88.4198 224.323 88.3898 224.303L82.5198 222.013L82.5098 222.003Z" fill="#92B6DA"/>
</g>
<g opacity="0.5">
<path d="M74.8799 230.271C74.8799 230.271 74.8399 230.291 74.8399 230.261L73.3599 223.901C73.3599 223.901 73.3599 223.841 73.3899 223.821L77.9899 219.681C77.9899 219.681 78.0299 219.671 78.0399 219.701L78.9899 225.371C78.9899 225.371 78.9899 225.441 78.9699 225.461L74.9099 230.281L74.8799 230.271Z" fill="#92B6DA"/>
</g>
<g opacity="0.5">
<path d="M67.8498 242.124C67.8498 242.124 67.8098 242.104 67.8298 242.084L71.4198 236.634C71.4198 236.634 71.4698 236.594 71.4998 236.594L77.6698 237.074C77.6698 237.074 77.7098 237.094 77.6898 237.114L74.2298 241.704C74.2298 241.704 74.1798 241.744 74.1498 241.744L67.8598 242.114L67.8498 242.124Z" fill="#92B6DA"/>
</g>
<g opacity="0.5">
<path d="M90.9298 231.753C90.9298 231.753 90.8998 231.723 90.9298 231.713L96.4698 228.263C96.4698 228.263 96.5298 228.243 96.5598 228.263L101.96 231.283C101.96 231.283 101.98 231.323 101.96 231.333L96.8998 234.053C96.8998 234.053 96.8398 234.073 96.8098 234.053L90.9398 231.763L90.9298 231.753Z" fill="#92B6DA"/>
</g>
<g opacity="0.5">
<path d="M83.2998 240.021C83.2998 240.021 83.2598 240.041 83.2598 240.011L81.7798 233.651C81.7798 233.651 81.7798 233.591 81.8098 233.571L86.4098 229.431C86.4098 229.431 86.4498 229.421 86.4598 229.451L87.4098 235.121C87.4098 235.121 87.4098 235.191 87.3898 235.211L83.3298 240.031L83.2998 240.021Z" fill="#92B6DA"/>
</g>
<g opacity="0.5">
<path d="M76.2599 251.874C76.2599 251.874 76.2199 251.854 76.2399 251.834L79.8299 246.384C79.8299 246.384 79.8799 246.344 79.9099 246.344L86.0799 246.824C86.0799 246.824 86.1199 246.844 86.0999 246.864L82.6399 251.454C82.6399 251.454 82.5899 251.494 82.5599 251.494L76.2699 251.864L76.2599 251.874Z" fill="#92B6DA"/>
</g>
<g opacity="0.5">
<path d="M28.3499 212.78C28.3499 212.78 28.3199 212.75 28.3499 212.74L33.8899 209.29C33.8899 209.29 33.9499 209.27 33.9799 209.29L39.3799 212.31C39.3799 212.31 39.3999 212.35 39.3799 212.36L34.3199 215.08C34.3199 215.08 34.2599 215.1 34.2299 215.08L28.3599 212.79L28.3499 212.78Z" fill="#92B6DA"/>
</g>
<g opacity="0.5">
<path d="M20.72 221.049C20.72 221.049 20.68 221.069 20.68 221.039L19.2 214.679C19.2 214.679 19.1999 214.619 19.2299 214.599L23.83 210.459C23.83 210.459 23.87 210.449 23.88 210.479L24.83 216.149C24.83 216.149 24.83 216.219 24.81 216.239L20.75 221.059L20.72 221.049Z" fill="#92B6DA"/>
</g>
<g opacity="0.5">
<path d="M13.6899 232.901C13.6899 232.901 13.6499 232.881 13.6699 232.861L17.2599 227.411C17.2599 227.411 17.3099 227.371 17.3399 227.371L23.5099 227.851C23.5099 227.851 23.5499 227.871 23.5299 227.891L20.0699 232.481C20.0699 232.481 20.0199 232.521 19.9899 232.521L13.6999 232.891L13.6899 232.901Z" fill="#92B6DA"/>
</g>
<g opacity="0.5">
<path d="M36.7699 222.53C36.7699 222.53 36.7399 222.5 36.7699 222.49L42.3099 219.04C42.3099 219.04 42.3699 219.02 42.3999 219.04L47.7999 222.06C47.7999 222.06 47.8199 222.1 47.7999 222.11L42.7399 224.83C42.7399 224.83 42.6799 224.85 42.6499 224.83L36.7799 222.54L36.7699 222.53Z" fill="#92B6DA"/>
</g>
<g opacity="0.5">
<path d="M29.1399 230.799C29.1399 230.799 29.0999 230.819 29.0999 230.789L27.6199 224.429C27.6199 224.429 27.6199 224.369 27.6499 224.349L32.2499 220.209C32.2499 220.209 32.2899 220.199 32.2999 220.229L33.2499 225.899C33.2499 225.899 33.2499 225.969 33.2299 225.989L29.1699 230.809L29.1399 230.799Z" fill="#92B6DA"/>
</g>
<g opacity="0.5">
<path d="M22.0999 242.651C22.0999 242.651 22.0599 242.631 22.0799 242.611L25.6699 237.161C25.6699 237.161 25.7199 237.121 25.7499 237.121L31.9199 237.601C31.9199 237.601 31.9599 237.621 31.9399 237.641L28.4799 242.231C28.4799 242.231 28.4299 242.271 28.3999 242.271L22.1099 242.641L22.0999 242.651Z" fill="#92B6DA"/>
</g>
<g opacity="0.5">
<path d="M32.0899 202.592C32.0899 202.592 32.0499 202.573 32.0699 202.553L35.6599 197.103C35.6599 197.103 35.7099 197.062 35.7399 197.062L41.9099 197.543C41.9099 197.543 41.9499 197.563 41.9299 197.583L38.4699 202.173C38.4699 202.173 38.4199 202.213 38.3899 202.213L32.0999 202.583L32.0899 202.592Z" fill="#92B6DA"/>
</g>
<g opacity="0.5">
<path d="M55.1699 192.222C55.1699 192.222 55.1399 192.192 55.1699 192.182L60.71 188.732C60.71 188.732 60.77 188.712 60.8 188.732L66.1999 191.752C66.1999 191.752 66.2199 191.792 66.1999 191.802L61.14 194.522C61.14 194.522 61.08 194.542 61.05 194.522L55.18 192.232L55.1699 192.222Z" fill="#92B6DA"/>
</g>
<g opacity="0.5">
<path d="M47.5399 200.49C47.5399 200.49 47.4999 200.51 47.4999 200.48L46.0199 194.12C46.0199 194.12 46.0199 194.06 46.0499 194.04L50.6499 189.9C50.6499 189.9 50.6899 189.89 50.6999 189.92L51.6499 195.59C51.6499 195.59 51.6499 195.66 51.6299 195.68L47.5699 200.5L47.5399 200.49Z" fill="#92B6DA"/>
</g>
<g opacity="0.5">
<path d="M40.5 212.342C40.5 212.342 40.46 212.323 40.48 212.303L44.07 206.853C44.07 206.853 44.12 206.812 44.15 206.812L50.32 207.293C50.32 207.293 50.36 207.313 50.34 207.333L46.88 211.923C46.88 211.923 46.83 211.963 46.8 211.963L40.51 212.333L40.5 212.342Z" fill="#92B6DA"/>
</g>
<g opacity="0.5">
<path d="M6.40982 242.491C6.40982 242.491 6.37982 242.461 6.40982 242.451L11.9498 239.001C11.9498 239.001 12.0098 238.981 12.0398 239.001L17.4398 242.021C17.4398 242.021 17.4598 242.061 17.4398 242.071L12.3798 244.791C12.3798 244.791 12.3198 244.811 12.2898 244.791L6.41982 242.501L6.40982 242.491Z" fill="#92B6DA"/>
</g>
<g opacity="0.5">
<path d="M14.8199 252.241C14.8199 252.241 14.7899 252.211 14.8199 252.201L20.3599 248.751C20.3599 248.751 20.4199 248.731 20.4499 248.751L25.8499 251.771C25.8499 251.771 25.8699 251.811 25.8499 251.821L20.7899 254.541C20.7899 254.541 20.7299 254.561 20.6999 254.541L14.8299 252.251L14.8199 252.241Z" fill="#92B6DA"/>
</g>
<g opacity="0.5">
<path d="M7.18992 260.51C7.18992 260.51 7.14993 260.53 7.14993 260.5L5.66992 254.14C5.66992 254.14 5.66992 254.08 5.69992 254.06L10.2999 249.92C10.2999 249.92 10.3399 249.91 10.3499 249.94L11.2999 255.61C11.2999 255.61 11.2999 255.68 11.2799 255.7L7.21992 260.52L7.18992 260.51Z" fill="#92B6DA"/>
</g>
<g opacity="0.5">
<path d="M0.159878 272.362C0.159878 272.362 0.119877 272.342 0.139877 272.322L3.72988 266.872C3.72988 266.872 3.77988 266.832 3.80988 266.832L9.97988 267.312C9.97988 267.312 10.0199 267.332 9.99988 267.352L6.53988 271.942C6.53988 271.942 6.48988 271.982 6.45988 271.982L0.169876 272.352L0.159878 272.362Z" fill="#92B6DA"/>
</g>
<g opacity="0.5">
<path d="M23.8499 262.183C23.8499 262.183 23.8199 262.152 23.8499 262.142L29.3899 258.692C29.3899 258.692 29.4499 258.672 29.4799 258.692L34.8799 261.713C34.8799 261.713 34.8999 261.752 34.8799 261.762L29.8199 264.482C29.8199 264.482 29.7599 264.502 29.7299 264.482L23.8599 262.192L23.8499 262.183Z" fill="#92B6DA"/>
</g>
<g opacity="0.5">
<path d="M16.2099 270.451C16.2099 270.451 16.1699 270.471 16.1699 270.441L14.6899 264.081C14.6899 264.081 14.6899 264.021 14.7199 264.001L19.3199 259.861C19.3199 259.861 19.3599 259.851 19.3699 259.881L20.3199 265.551C20.3199 265.551 20.3199 265.621 20.2999 265.641L16.2399 270.461L16.2099 270.451Z" fill="#92B6DA"/>
</g>
<g opacity="0.5">
<path d="M9.1799 282.303C9.1799 282.303 9.1399 282.283 9.1599 282.263L12.7499 276.813C12.7499 276.813 12.7999 276.773 12.8299 276.773L18.9999 277.253C18.9999 277.253 19.0399 277.273 19.0199 277.293L15.5599 281.883C15.5599 281.883 15.5099 281.923 15.4799 281.923L9.1899 282.293L9.1799 282.303Z" fill="#92B6DA"/>
</g>
<g opacity="0.5">
<path d="M32.2599 271.933C32.2599 271.933 32.2299 271.902 32.2599 271.892L37.7999 268.442C37.7999 268.442 37.8599 268.422 37.8899 268.442L43.2899 271.463C43.2899 271.463 43.3099 271.502 43.2899 271.512L38.2299 274.232C38.2299 274.232 38.1699 274.252 38.1399 274.232L32.2699 271.942L32.2599 271.933Z" fill="#92B6DA"/>
</g>
<g opacity="0.5">
<path d="M24.6299 280.201C24.6299 280.201 24.5899 280.221 24.5899 280.191L23.1099 273.831C23.1099 273.831 23.1099 273.771 23.1399 273.751L27.7399 269.611C27.7399 269.611 27.7799 269.601 27.7899 269.631L28.7399 275.301C28.7399 275.301 28.7399 275.371 28.7199 275.391L24.6599 280.211L24.6299 280.201Z" fill="#92B6DA"/>
</g>
<g opacity="0.5">
<path d="M17.5999 292.053C17.5999 292.053 17.5599 292.033 17.5799 292.013L21.1699 286.563C21.1699 286.563 21.2199 286.523 21.2499 286.523L27.4199 287.003C27.4199 287.003 27.4599 287.023 27.4399 287.043L23.9799 291.633C23.9799 291.633 23.9299 291.673 23.8999 291.673L17.6099 292.043L17.5999 292.053Z" fill="#92B6DA"/>
</g>
<g opacity="0.5">
<path d="M41.3998 281.71C41.3998 281.71 41.3698 281.68 41.3998 281.67L46.9398 278.22C46.9398 278.22 46.9998 278.2 47.0298 278.22L52.4298 281.24C52.4298 281.24 52.4498 281.28 52.4298 281.29L47.3698 284.01C47.3698 284.01 47.3098 284.03 47.2798 284.01L41.4098 281.72L41.3998 281.71Z" fill="#92B6DA"/>
</g>
<g opacity="0.5">
<path d="M33.7699 289.978C33.7699 289.978 33.7299 289.998 33.7299 289.968L32.2499 283.608C32.2499 283.608 32.2499 283.548 32.2799 283.528L36.8799 279.388C36.8799 279.388 36.9199 279.378 36.9299 279.408L37.8799 285.078C37.8799 285.078 37.8799 285.148 37.8599 285.168L33.7999 289.988L33.7699 289.978Z" fill="#92B6DA"/>
</g>
<g opacity="0.5">
<path d="M26.7398 301.831C26.7398 301.831 26.6998 301.811 26.7198 301.791L30.3098 296.341C30.3098 296.341 30.3598 296.301 30.3898 296.301L36.5598 296.781C36.5598 296.781 36.5998 296.801 36.5798 296.821L33.1198 301.411C33.1198 301.411 33.0698 301.451 33.0398 301.451L26.7498 301.821L26.7398 301.831Z" fill="#92B6DA"/>
</g>
<g opacity="0.5">
<path d="M49.8199 291.46C49.8199 291.46 49.7899 291.43 49.8199 291.42L55.3599 287.97C55.3599 287.97 55.4198 287.95 55.4498 287.97L60.8499 290.99C60.8499 290.99 60.8699 291.03 60.8499 291.04L55.7899 293.76C55.7899 293.76 55.7298 293.78 55.6998 293.76L49.8299 291.47L49.8199 291.46Z" fill="#92B6DA"/>
</g>
<g opacity="0.5">
<path d="M42.1898 299.728C42.1898 299.728 42.1498 299.748 42.1498 299.718L40.6698 293.358C40.6698 293.358 40.6698 293.298 40.6998 293.278L45.2998 289.138C45.2998 289.138 45.3398 289.128 45.3498 289.158L46.2998 294.828C46.2998 294.828 46.2998 294.898 46.2798 294.918L42.2198 299.738L42.1898 299.728Z" fill="#92B6DA"/>
</g>
<g opacity="0.5">
<path d="M130.3 127.175C130.3 127.175 130.27 127.145 130.3 127.135L135.84 123.685C135.84 123.685 135.9 123.665 135.93 123.685L141.33 126.705C141.33 126.705 141.35 126.745 141.33 126.755L136.27 129.475C136.27 129.475 136.21 129.495 136.18 129.475L130.31 127.185L130.3 127.175Z" fill="#92B6DA"/>
</g>
<g opacity="0.5">
<path d="M122.67 135.443C122.67 135.443 122.63 135.463 122.63 135.433L121.15 129.073C121.15 129.073 121.15 129.013 121.18 128.993L125.78 124.853C125.78 124.853 125.82 124.843 125.83 124.873L126.78 130.543C126.78 130.543 126.78 130.613 126.76 130.633L122.7 135.453L122.67 135.443Z" fill="#92B6DA"/>
</g>
<g opacity="0.5">
<path d="M115.63 147.296C115.63 147.296 115.59 147.276 115.61 147.256L119.2 141.806C119.2 141.806 119.25 141.766 119.28 141.766L125.45 142.246C125.45 142.246 125.49 142.266 125.47 142.286L122.01 146.876C122.01 146.876 121.96 146.916 121.93 146.916L115.64 147.286L115.63 147.296Z" fill="#92B6DA"/>
</g>
<g opacity="0.5">
<path d="M138.72 136.925C138.72 136.925 138.69 136.895 138.72 136.885L144.26 133.435C144.26 133.435 144.32 133.415 144.35 133.435L149.75 136.455C149.75 136.455 149.77 136.495 149.75 136.505L144.69 139.225C144.69 139.225 144.63 139.245 144.6 139.225L138.73 136.935L138.72 136.925Z" fill="#92B6DA"/>
</g>
<g opacity="0.5">
<path d="M131.09 145.193C131.09 145.193 131.05 145.213 131.05 145.183L129.57 138.823C129.57 138.823 129.57 138.763 129.6 138.743L134.2 134.603C134.2 134.603 134.24 134.593 134.25 134.623L135.2 140.293C135.2 140.293 135.2 140.363 135.18 140.383L131.12 145.203L131.09 145.193Z" fill="#92B6DA"/>
</g>
<g opacity="0.5">
<path d="M124.05 157.046C124.05 157.046 124.01 157.026 124.03 157.006L127.62 151.556C127.62 151.556 127.67 151.516 127.7 151.516L133.87 151.996C133.87 151.996 133.91 152.016 133.89 152.036L130.43 156.626C130.43 156.626 130.38 156.666 130.35 156.666L124.06 157.036L124.05 157.046Z" fill="#92B6DA"/>
</g>
<g opacity="0.5">
<path d="M129.88 175.143C129.88 175.143 129.85 175.113 129.88 175.103L135.42 171.653C135.42 171.653 135.48 171.633 135.51 171.653L140.91 174.673C140.91 174.673 140.93 174.713 140.91 174.723L135.85 177.443C135.85 177.443 135.79 177.463 135.76 177.443L129.89 175.153L129.88 175.143Z" fill="#92B6DA"/>
</g>
<g opacity="0.5">
<path d="M122.25 183.412C122.25 183.412 122.21 183.432 122.21 183.402L120.73 177.042C120.73 177.042 120.73 176.982 120.76 176.962L125.36 172.822C125.36 172.822 125.4 172.812 125.41 172.842L126.36 178.512C126.36 178.512 126.36 178.582 126.34 178.602L122.28 183.422L122.25 183.412Z" fill="#92B6DA"/>
</g>
<g opacity="0.5">
<path d="M115.22 195.264C115.22 195.264 115.18 195.244 115.2 195.224L118.79 189.774C118.79 189.774 118.84 189.734 118.87 189.734L125.04 190.214C125.04 190.214 125.08 190.234 125.06 190.254L121.6 194.844C121.6 194.844 121.55 194.884 121.52 194.884L115.23 195.254L115.22 195.264Z" fill="#92B6DA"/>
</g>
<g opacity="0.5">
<path d="M138.3 184.893C138.3 184.893 138.27 184.863 138.3 184.853L143.84 181.403C143.84 181.403 143.9 181.383 143.93 181.403L149.33 184.423C149.33 184.423 149.35 184.463 149.33 184.473L144.27 187.193C144.27 187.193 144.21 187.213 144.18 187.193L138.31 184.903L138.3 184.893Z" fill="#92B6DA"/>
</g>
<g opacity="0.5">
<path d="M130.67 193.162C130.67 193.162 130.63 193.182 130.63 193.152L129.15 186.792C129.15 186.792 129.15 186.732 129.18 186.712L133.78 182.572C133.78 182.572 133.82 182.562 133.83 182.592L134.78 188.262C134.78 188.262 134.78 188.332 134.76 188.352L130.7 193.172L130.67 193.162Z" fill="#92B6DA"/>
</g>
<g opacity="0.5">
<path d="M123.63 205.014C123.63 205.014 123.59 204.994 123.61 204.974L127.2 199.524C127.2 199.524 127.25 199.484 127.28 199.484L133.45 199.964C133.45 199.964 133.49 199.984 133.47 200.004L130.01 204.594C130.01 204.594 129.96 204.634 129.93 204.634L123.64 205.004L123.63 205.014Z" fill="#92B6DA"/>
</g>
<g opacity="0.5">
<path d="M112 155.382C112 155.382 111.97 155.352 112 155.342L117.54 151.892C117.54 151.892 117.6 151.872 117.63 151.892L123.03 154.912C123.03 154.912 123.05 154.952 123.03 154.962L117.97 157.682C117.97 157.682 117.91 157.702 117.88 157.682L112.01 155.392L112 155.382Z" fill="#92B6DA"/>
</g>
<g opacity="0.5">
<path d="M97.3398 175.503C97.3398 175.503 97.2998 175.483 97.3198 175.463L100.91 170.013C100.91 170.013 100.96 169.973 100.99 169.973L107.16 170.453C107.16 170.453 107.2 170.473 107.18 170.493L103.72 175.083C103.72 175.083 103.67 175.123 103.64 175.123L97.3498 175.493L97.3398 175.503Z" fill="#92B6DA"/>
</g>
<g opacity="0.5">
<path d="M120.42 165.132C120.42 165.132 120.39 165.102 120.42 165.092L125.96 161.642C125.96 161.642 126.02 161.622 126.05 161.642L131.45 164.662C131.45 164.662 131.47 164.702 131.45 164.712L126.39 167.432C126.39 167.432 126.33 167.452 126.3 167.432L120.43 165.142L120.42 165.132Z" fill="#92B6DA"/>
</g>
<g opacity="0.5">
<path d="M112.79 173.4C112.79 173.4 112.75 173.42 112.75 173.39L111.27 167.03C111.27 167.03 111.27 166.97 111.3 166.95L115.9 162.81C115.9 162.81 115.94 162.8 115.95 162.83L116.9 168.5C116.9 168.5 116.9 168.57 116.88 168.59L112.82 173.41L112.79 173.4Z" fill="#92B6DA"/>
</g>
<g opacity="0.5">
<path d="M105.75 185.253C105.75 185.253 105.71 185.233 105.73 185.213L109.32 179.763C109.32 179.763 109.37 179.723 109.4 179.723L115.57 180.203C115.57 180.203 115.61 180.223 115.59 180.243L112.13 184.833C112.13 184.833 112.08 184.873 112.05 184.873L105.76 185.243L105.75 185.253Z" fill="#92B6DA"/>
</g>
<g opacity="0.5">
<path d="M142.51 153.963C142.51 153.963 142.47 153.983 142.47 153.953L140.99 147.593C140.99 147.593 140.99 147.533 141.02 147.513L145.62 143.373C145.62 143.373 145.66 143.363 145.67 143.393L146.62 149.063C146.62 149.063 146.62 149.133 146.6 149.153L142.54 153.973L142.51 153.963Z" fill="#92B6DA"/>
</g>
<g opacity="0.5">
<path d="M135.48 165.811C135.48 165.811 135.44 165.791 135.46 165.771L139.05 160.321C139.05 160.321 139.1 160.281 139.13 160.281L145.3 160.761C145.3 160.761 145.34 160.781 145.32 160.801L141.86 165.391C141.86 165.391 141.81 165.431 141.78 165.431L135.49 165.801L135.48 165.811Z" fill="#92B6DA"/>
</g>
<g opacity="0.5">
<path d="M150.93 163.713C150.93 163.713 150.89 163.733 150.89 163.703L149.41 157.343C149.41 157.343 149.41 157.283 149.44 157.263L154.04 153.123C154.04 153.123 154.08 153.113 154.09 153.143L155.04 158.813C155.04 158.813 155.04 158.883 155.02 158.903L150.96 163.723L150.93 163.713Z" fill="#92B6DA"/>
</g>
<g opacity="0.5">
<path d="M143.89 175.561C143.89 175.561 143.85 175.541 143.87 175.521L147.46 170.071C147.46 170.071 147.51 170.031 147.54 170.031L153.71 170.511C153.71 170.511 153.75 170.531 153.73 170.551L150.27 175.141C150.27 175.141 150.22 175.181 150.19 175.181L143.9 175.551L143.89 175.561Z" fill="#92B6DA"/>
</g>
<g opacity="0.5">
<path d="M114.38 106.163C114.38 106.163 114.35 106.133 114.38 106.123L119.92 102.673C119.92 102.673 119.98 102.653 120.01 102.673L125.41 105.693C125.41 105.693 125.43 105.733 125.41 105.743L120.35 108.463C120.35 108.463 120.29 108.483 120.26 108.463L114.39 106.173L114.38 106.163Z" fill="#92B6DA"/>
</g>
<g opacity="0.5">
<path d="M122.8 115.913C122.8 115.913 122.77 115.883 122.8 115.873L128.34 112.423C128.34 112.423 128.4 112.403 128.43 112.423L133.83 115.443C133.83 115.443 133.85 115.483 133.83 115.493L128.77 118.213C128.77 118.213 128.71 118.233 128.68 118.213L122.81 115.923L122.8 115.913Z" fill="#92B6DA"/>
</g>
<g opacity="0.5">
<path d="M115.17 124.181C115.17 124.181 115.13 124.201 115.13 124.171L113.65 117.811C113.65 117.811 113.65 117.751 113.68 117.731L118.28 113.591C118.28 113.591 118.32 113.581 118.33 113.611L119.28 119.281C119.28 119.281 119.28 119.351 119.26 119.371L115.2 124.191L115.17 124.181Z" fill="#92B6DA"/>
</g>
<g opacity="0.5">
<path d="M108.13 136.034C108.13 136.034 108.09 136.014 108.11 135.994L111.7 130.544C111.7 130.544 111.75 130.504 111.78 130.504L117.95 130.984C117.95 130.984 117.99 131.004 117.97 131.024L114.51 135.614C114.51 135.614 114.46 135.654 114.43 135.654L108.14 136.024L108.13 136.034Z" fill="#92B6DA"/>
</g>
<g opacity="0.5">
<path d="M59.3698 186.303C59.3698 186.303 59.3298 186.283 59.3498 186.263L62.9398 180.813C62.9398 180.813 62.9898 180.773 63.0198 180.773L69.1898 181.253C69.1898 181.253 69.2298 181.273 69.2098 181.293L65.7498 185.883C65.7498 185.883 65.6998 185.923 65.6698 185.923L59.3798 186.293L59.3698 186.303Z" fill="#92B6DA"/>
</g>
<g opacity="0.5">
<path d="M82.4499 175.933C82.4499 175.933 82.4199 175.902 82.4499 175.892L87.9899 172.442C87.9899 172.442 88.0499 172.422 88.0799 172.442L93.4799 175.463C93.4799 175.463 93.4999 175.502 93.4799 175.512L88.4199 178.232C88.4199 178.232 88.3599 178.252 88.3299 178.232L82.4599 175.942L82.4499 175.933Z" fill="#92B6DA"/>
</g>
<g opacity="0.5">
<path d="M74.8198 184.201C74.8198 184.201 74.7798 184.221 74.7798 184.191L73.2998 177.831C73.2998 177.831 73.2998 177.771 73.3298 177.751L77.9298 173.611C77.9298 173.611 77.9698 173.601 77.9798 173.631L78.9298 179.301C78.9298 179.301 78.9298 179.371 78.9098 179.391L74.8498 184.211L74.8198 184.201Z" fill="#92B6DA"/>
</g>
<g opacity="0.5">
<path d="M67.7899 196.053C67.7899 196.053 67.7499 196.033 67.7699 196.013L71.3599 190.563C71.3599 190.563 71.4099 190.523 71.4399 190.523L77.6099 191.003C77.6099 191.003 77.6499 191.023 77.6299 191.043L74.1699 195.633C74.1699 195.633 74.1199 195.673 74.0899 195.673L67.7999 196.043L67.7899 196.053Z" fill="#92B6DA"/>
</g>
<g opacity="0.5">
<path d="M91.4698 185.882C91.4698 185.882 91.4398 185.852 91.4698 185.842L97.0097 182.392C97.0097 182.392 97.0698 182.372 97.0998 182.392L102.5 185.412C102.5 185.412 102.52 185.452 102.5 185.462L97.4398 188.182C97.4398 188.182 97.3798 188.202 97.3498 188.182L91.4797 185.892L91.4698 185.882Z" fill="#92B6DA"/>
</g>
<g opacity="0.5">
<path d="M83.8398 194.142C83.8398 194.142 83.7998 194.162 83.7998 194.132L82.3198 187.772C82.3198 187.772 82.3198 187.712 82.3498 187.692L86.9498 183.552C86.9498 183.552 86.9898 183.542 86.9998 183.572L87.9498 189.242C87.9498 189.242 87.9498 189.312 87.9298 189.332L83.8698 194.152L83.8398 194.142Z" fill="#92B6DA"/>
</g>
<g opacity="0.5">
<path d="M76.8098 206.003C76.8098 206.003 76.7698 205.983 76.7898 205.963L80.3798 200.513C80.3798 200.513 80.4298 200.473 80.4598 200.473L86.6298 200.953C86.6298 200.953 86.6698 200.973 86.6498 200.993L83.1898 205.583C83.1898 205.583 83.1398 205.623 83.1098 205.623L76.8198 205.993L76.8098 206.003Z" fill="#92B6DA"/>
</g>
<g opacity="0.5">
<path d="M99.8898 195.632C99.8898 195.632 99.8598 195.602 99.8898 195.592L105.43 192.142C105.43 192.142 105.49 192.122 105.52 192.142L110.92 195.162C110.92 195.162 110.94 195.202 110.92 195.212L105.86 197.932C105.86 197.932 105.8 197.952 105.77 197.932L99.8998 195.642L99.8898 195.632Z" fill="#92B6DA"/>
</g>
<g opacity="0.5">
<path d="M92.2597 203.892C92.2597 203.892 92.2197 203.912 92.2197 203.882L90.7397 197.522C90.7397 197.522 90.7397 197.462 90.7697 197.442L95.3697 193.302C95.3697 193.302 95.4097 193.292 95.4197 193.322L96.3697 198.992C96.3697 198.992 96.3697 199.062 96.3497 199.082L92.2897 203.902L92.2597 203.892Z" fill="#92B6DA"/>
</g>
<g opacity="0.5">
<path d="M85.2198 215.753C85.2198 215.753 85.1798 215.733 85.1998 215.713L88.7898 210.263C88.7898 210.263 88.8398 210.223 88.8698 210.223L95.0398 210.703C95.0398 210.703 95.0798 210.723 95.0598 210.743L91.5998 215.333C91.5998 215.333 91.5498 215.373 91.5198 215.373L85.2298 215.743L85.2198 215.753Z" fill="#92B6DA"/>
</g>
<g opacity="0.5">
<path d="M109.03 205.413C109.03 205.413 109 205.383 109.03 205.373L114.57 201.923C114.57 201.923 114.63 201.903 114.66 201.923L120.06 204.943C120.06 204.943 120.08 204.983 120.06 204.993L115 207.713C115 207.713 114.94 207.733 114.91 207.713L109.04 205.423L109.03 205.413Z" fill="#92B6DA"/>
</g>
<g opacity="0.5">
<path d="M101.4 213.674C101.4 213.674 101.36 213.694 101.36 213.664L99.8799 207.304C99.8799 207.304 99.8799 207.244 99.9099 207.224L104.51 203.084C104.51 203.084 104.55 203.074 104.56 203.104L105.51 208.774C105.51 208.774 105.51 208.844 105.49 208.864L101.43 213.684L101.4 213.674Z" fill="#92B6DA"/>
</g>
<g opacity="0.5">
<path d="M94.3598 225.534C94.3598 225.534 94.3198 225.514 94.3398 225.494L97.9298 220.044C97.9298 220.044 97.9798 220.004 98.0098 220.004L104.18 220.484C104.18 220.484 104.22 220.504 104.2 220.524L100.74 225.114C100.74 225.114 100.69 225.154 100.66 225.154L94.3698 225.524L94.3598 225.534Z" fill="#92B6DA"/>
</g>
<g opacity="0.5">
<path d="M117.45 215.151C117.45 215.151 117.42 215.121 117.45 215.111L122.99 211.661C122.99 211.661 123.05 211.641 123.08 211.661L128.48 214.681C128.48 214.681 128.5 214.721 128.48 214.731L123.42 217.451C123.42 217.451 123.36 217.471 123.33 217.451L117.46 215.161L117.45 215.151Z" fill="#92B6DA"/>
</g>
<g opacity="0.5">
<path d="M109.82 223.424C109.82 223.424 109.78 223.444 109.78 223.414L108.3 217.054C108.3 217.054 108.3 216.994 108.33 216.974L112.93 212.834C112.93 212.834 112.97 212.824 112.98 212.854L113.93 218.524C113.93 218.524 113.93 218.594 113.91 218.614L109.85 223.434L109.82 223.424Z" fill="#92B6DA"/>
</g>
<g opacity="0.5">
<path d="M102.78 235.272C102.78 235.272 102.74 235.252 102.76 235.232L106.35 229.782C106.35 229.782 106.4 229.742 106.43 229.742L112.6 230.222C112.6 230.222 112.64 230.242 112.62 230.262L109.16 234.852C109.16 234.852 109.11 234.892 109.08 234.892L102.79 235.262L102.78 235.272Z" fill="#92B6DA"/>
</g>
</g>
<mask id="mask0_262_11935" style="mask-type:alpha" maskUnits="userSpaceOnUse" x="0" y="203" width="321" height="194">
<path d="M320.5 396.012H208.574L186.632 371.097L185.84 370.197L185.758 371.393L184.069 396.012H129.182L121.883 387.724L121.092 386.826L121.009 388.02L120.451 396.012H104.899L100.862 386.432L100.596 385.798L100.075 386.247L88.7734 396.012H74.1533L60.083 362.693L59.124 362.854L56.8574 396.012H42.8643L16.2314 380.521L15.5352 380.116L15.4805 380.919L14.4531 396.012H0.5V211.703C15.2503 216.311 33.6378 220.201 54.668 223.141C57.2282 223.523 59.8221 223.866 62.4717 224.189L75.5391 237.132L76.3906 237.976V225.76C79.589 226.1 82.8481 226.405 86.1484 226.684L117.847 258.085L118.698 258.929V228.695C128.927 229.122 139.456 229.322 150.182 229.322H152.825L160.021 257.842L161.006 257.72V229.243C165.15 229.2 169.26 229.111 173.314 228.973L173.313 228.972C176.13 228.9 178.911 228.808 181.68 228.695L181.679 228.694C187.116 228.483 192.485 228.211 197.762 227.871L202.367 236.991L202.677 237.604L203.165 237.121L213.662 226.725C218.609 226.297 223.444 225.821 228.188 225.307L244.675 257.955L245.621 257.729V223.162C249.067 222.682 252.448 222.168 255.763 221.644L287.206 237.225L287.929 237.582V215.09C293.252 213.727 298.202 212.297 302.779 210.782L308.23 216.178L308.558 215.847L308.895 216.213L308.907 216.203L309.32 215.85L309.291 215.821L320.5 204.711V396.012Z" fill="#C59B6D" stroke="#C59B6D"/>
</mask>
<g mask="url(#mask0_262_11935)">
<path d="M159.55 55.2812C188.532 55.2812 206.246 57.905 216.699 61.9932C221.92 64.0349 225.295 66.4292 227.364 69.0117C229.427 71.585 230.22 74.3785 230.22 77.2812C230.22 79.8219 228.715 82.1311 226.273 84.2783C223.837 86.421 220.546 88.3343 217.142 90.085C215.443 90.9588 213.723 91.7885 212.077 92.584C210.434 93.378 208.86 94.1399 207.462 94.874C206.065 95.6072 204.826 96.321 203.857 97.0234C202.902 97.7161 202.146 98.4409 201.795 99.2139C201.315 100.269 201.07 101.411 201.07 102.571V164.301C201.07 168.327 204.01 171.758 207.994 172.365H207.995C217.726 173.841 236.987 177.837 255.946 187.937C274.901 198.033 293.522 214.212 302.055 240.048C312.401 271.39 311.832 307.089 307.914 337.483C303.997 367.869 296.739 392.906 293.741 402.907C285.348 430.907 270.929 474.195 258.251 515.404C251.916 535.997 246.02 556.058 241.54 573.397C237.063 590.727 233.992 605.371 233.321 615.116C233.108 618.182 234.62 621.111 237.25 622.708C237.511 622.869 237.762 623.019 238.01 623.168V623.169C255.604 633.863 253.284 660.066 234.108 667.556C217.902 673.881 195.075 679.031 163.7 679.031C122.814 679.031 96.8465 672.263 81.1211 664.006C65.3689 655.735 59.9795 646.028 59.9795 640.171C59.9796 636.7 61.3889 633.693 63.6553 630.938C65.9281 628.174 69.0435 625.688 72.4121 623.268V623.267C80.8698 617.177 85.6519 607.171 84.8584 596.773C81.0015 546.164 55.8597 479.075 39.1709 439.218C21.6945 397.464 11.9888 352.816 11.21 307.572C10.8804 288.677 12.0591 269.046 15.8594 250.663C21.8154 221.896 41.3309 203.23 62.0049 191.244C82.6819 179.257 104.47 173.982 114.854 171.992H114.855C118.699 171.247 121.479 167.892 121.479 163.972V101.041C121.479 97.1371 119.073 93.6393 115.616 90.501C112.584 87.7476 108.676 85.2098 104.677 82.8555L102.959 81.8574C95.2799 77.4451 96.2914 66.1225 104.45 63.0498L104.457 63.0625L104.868 62.9258C116.834 58.944 134.6 55.2813 159.55 55.2812Z" fill="#C59B6D" stroke="#C59B6D"/>
<path d="M104.7 62.4312C95.7599 65.4112 94.5299 77.5912 102.71 82.2912C111.87 87.5512 120.98 93.6612 120.98 101.041V163.971C120.98 167.651 118.37 170.801 114.76 171.501C93.9399 175.491 27.3599 192.651 15.3699 250.561C11.5599 268.991 10.3799 288.661 10.7099 307.581C11.4899 352.891 21.2099 397.601 38.7099 439.411C55.3999 479.271 80.5099 546.291 84.3599 596.811C85.1399 607.031 80.4399 616.871 72.1199 622.861C65.3699 627.711 59.4799 632.931 59.4799 640.171C59.4799 652.431 81.8299 679.531 163.7 679.531C195.13 679.531 218.02 674.371 234.29 668.021C253.85 660.381 256.22 633.651 238.27 622.741C238.02 622.591 237.77 622.441 237.51 622.281C235.04 620.781 233.62 618.031 233.82 615.151C236.49 576.371 277.44 459.031 294.22 403.051C300.22 383.031 323.29 302.781 302.53 239.891C285.36 187.901 227.59 174.831 208.07 171.871C204.33 171.301 201.57 168.081 201.57 164.301V102.571C201.57 101.481 201.8 100.411 202.25 99.4212C204.61 94.2212 230.72 88.2913 230.72 77.2812C230.72 65.2712 217.54 54.7812 159.55 54.7812C134.55 54.7812 116.73 58.4512 104.71 62.4512L104.7 62.4312Z" stroke="#C59B6D" stroke-width="9" stroke-miterlimit="10"/>
</g>
<rect x="89.0999" y="396.418" width="15.4172" height="0.203125" fill="#DCD6CB"/>
<rect x="89.3062" y="396.289" width="15.168" height="0.273438" fill="#DCD6CB"/>
<line x1="104.176" y1="396.454" x2="104.494" y2="396.319" stroke="#DCD6CB"/>
<line x1="89.0786" y1="396.829" x2="88.8867" y2="396.542" stroke="#DCD6CB"/>
<path d="M157.19 370.932C150.337 381.611 136.522 379.859 127.507 372.657C118.025 365.087 116.834 351.618 124.878 342.067C130.439 335.461 135.276 328.653 139.857 321.304C127.013 310.872 107.811 307.303 106.134 292.265C104.879 281.016 112.574 269.483 123.486 267.153C138.483 263.941 147.937 279.199 162.641 287.255C167.606 279.979 172.068 273.015 176.016 265.217C181.989 253.436 196.006 250.069 207.119 257.271C215.483 262.684 220.357 273.346 215.749 282.695L206.194 296.926L196.684 310.083C203.436 314.734 210.197 318.827 217.746 322.717C227.512 327.754 233.934 337.993 229.646 349.022C228.226 352.664 224.983 357.61 222.052 360.188C213.156 368.023 201.366 365.216 192.928 358.013C186.763 352.747 180.826 348.141 174.037 344.085L166.708 356.105L157.181 370.95L157.19 370.932Z" fill="#603813"/>
</svg>
