<svg width="340" height="683" viewBox="0 0 340 683" fill="none" xmlns="http://www.w3.org/2000/svg">
<path d="M83.1052 77.7881L83.1656 84.907C83.226 92.2761 87.9546 98.2042 93.7187 98.1524L99.1722 98.1006C103.918 98.0575 108.086 102.104 109.354 107.946C112.97 124.609 119.278 161.506 118.363 212.883C117.155 280.827 91.0351 336.889 87.5145 343.024C87.3247 343.36 87.1521 343.688 86.9882 344.042L11.2521 461.421C10.4842 462.647 7.37775 470.948 6.98082 472.432C6.26462 475.141 6.25599 478.11 6.98082 480.871C14.8935 511.072 63.8454 674.53 120.494 676.282C201.261 678.784 237.244 678.767 243.983 674.702C244.777 674.228 245.493 673.641 246.166 672.925C255.692 662.829 320.694 568.912 333.214 473.519C333.603 470.542 332.74 467.531 331.394 465.046C309.122 423.894 263.32 373.916 245.579 335.422C227.243 295.651 215.792 234.696 215.602 212.917C215.456 195.944 215.663 134.799 216.517 108.637C216.741 101.811 220.969 96.3317 226.311 95.9434C232.498 95.4947 237.71 88.6433 237.882 80.722L237.943 77.9866C238.106 70.4536 233.352 64.2148 227.458 64.2148L93.503 64.3356C87.713 64.3356 83.0534 70.3673 83.1224 77.7709L83.1052 77.7881Z" fill="#DCD6CB" stroke="#DCD6CB" stroke-width="9" stroke-miterlimit="10"/>
<path d="M126.353 59.2268V43.9191C117.414 43.9191 110.226 37.9047 110.416 30.5874L110.683 20.457C110.942 10.4475 120.96 2.44848 133.187 2.50025L191.95 2.58654C203.09 2.6038 212.133 9.96427 212.237 19.085L212.366 31.4417C212.444 38.6295 205.515 44.549 196.748 44.7906V59.4166L126.353 59.2354V59.2268Z" fill="#CDB43A" stroke="#CDB43A" stroke-width="5" stroke-miterlimit="10"/>
<path d="M116.033 120.535C124.058 148.096 127.389 176.882 128.027 205.53C129.555 277.314 108.88 350.444 64.484 407.464C55.648 418.785 46.0871 429.511 35.7583 439.426C45.3968 428.847 54.4831 417.793 62.7841 406.204C71.0161 394.616 78.6182 382.475 85.2624 369.902C125.301 294.65 133.593 203.347 116.033 120.535Z" fill="#E2E3E2"/>
<path d="M303.384 435.949C225.129 366.279 193.495 262.068 208.242 159.59C210.365 145.292 213.143 131.037 217.553 117.266C216.638 120.76 215.879 124.281 215.171 127.819C210.27 152.515 208.104 177.763 208.199 202.908C208.544 291.846 240.497 372.716 303.376 435.949H303.384Z" fill="#E2E3E2"/>
<path d="M89.301 653.07C135.44 662.89 184.297 668.861 230.841 658.774C237.468 657.255 243.992 655.305 250.472 653.07C244.363 656.177 237.951 658.705 231.393 660.819C187.179 674.185 132.489 668.18 89.301 653.07Z" fill="#E2E3E2"/>
<path d="M22.1763 460.98C20.3815 469.851 18.8973 478.644 21.184 487.489C21.4342 488.843 21.9261 490.051 22.1763 491.432C21.6327 490.992 21.1322 490.509 20.6317 490.008C13.1505 482.147 14.5656 468.263 22.1763 460.98Z" fill="#E2E3E2"/>
<path d="M315.724 489.147C317.061 484.228 318.157 479.163 317.872 474.046C317.708 468.852 316.725 463.942 315.724 458.695C323.878 466.427 324.827 481.769 315.724 489.147Z" fill="#E2E3E2"/>
<path d="M94.4695 403.538C94.4695 403.538 147.33 341.884 216.016 402.157C284.703 462.43 94.4695 403.538 94.4695 403.538Z" fill="#D88D90"/>
<path d="M37.8984 493.204C44.1975 523.06 59.6346 587.587 81.8109 622.888C86.7985 630.835 94.5731 641.371 103.383 643.106C140.41 650.397 202.909 647.144 232.282 645.021C243.077 644.245 252.853 632.872 258.471 622.992C270.586 601.704 290.657 558.387 301.21 491.176C302.547 482.659 301.003 473.901 296.766 466.549C279.569 436.693 255.615 407.01 235.233 388.043C229.875 383.056 223.196 379.863 216.094 379.337C207.25 378.681 197.654 380.769 188.206 383.263C172.449 387.431 156.313 389.735 140.082 390.019C120.52 390.364 101.813 397.242 86.4015 409.296C78.6441 415.362 71.7237 422.74 65.951 431.257L43.4295 464.461C37.8034 472.753 35.7929 483.212 37.8984 493.195V493.204Z" fill="#BE272C"/>
<g opacity="0.5">
<g opacity="0.5">
<path d="M152.507 271.805C152.507 271.805 152.542 271.805 152.533 271.831L150.738 277.172C150.738 277.172 150.704 277.215 150.678 277.224L145.423 278.181C145.423 278.181 145.389 278.173 145.397 278.147L147.278 273.556C147.278 273.556 147.313 273.513 147.339 273.505L152.507 271.813V271.805Z" fill="#92B6DA"/>
</g>
<g opacity="0.5">
<path d="M153.051 262.108C153.051 262.108 153.069 262.074 153.086 262.091L157.556 265.516C157.556 265.516 157.59 265.56 157.581 265.585L156.788 270.866C156.788 270.866 156.77 270.892 156.744 270.884L153.008 267.622C153.008 267.622 152.974 267.57 152.974 267.553L153.043 262.117L153.051 262.108Z" fill="#92B6DA"/>
</g>
<g opacity="0.5">
<path d="M151.239 250.353C151.239 250.353 151.274 250.344 151.274 250.37L151.869 255.97C151.869 255.97 151.86 256.022 151.834 256.039L147.46 259.103C147.46 259.103 147.425 259.103 147.425 259.085L147.218 254.132C147.218 254.132 147.227 254.072 147.244 254.063L151.23 250.37L151.239 250.353Z" fill="#92B6DA"/>
</g>
<g opacity="0.5">
<path d="M141.549 269.926C141.549 269.926 141.583 269.926 141.575 269.952L139.78 275.293C139.78 275.293 139.745 275.336 139.72 275.345L134.465 276.303C134.465 276.303 134.43 276.294 134.439 276.268L136.32 271.677C136.32 271.677 136.354 271.634 136.38 271.626L141.549 269.934V269.926Z" fill="#92B6DA"/>
</g>
<g opacity="0.5">
<path d="M142.101 260.225C142.101 260.225 142.118 260.191 142.135 260.208L146.605 263.634C146.605 263.634 146.64 263.677 146.631 263.703L145.837 268.984C145.837 268.984 145.82 269.009 145.794 269.001L142.058 265.739C142.058 265.739 142.023 265.687 142.023 265.67L142.092 260.234L142.101 260.225Z" fill="#92B6DA"/>
</g>
<g opacity="0.5">
<path d="M140.289 248.474C140.289 248.474 140.323 248.465 140.323 248.491L140.919 254.091C140.919 254.091 140.91 254.143 140.884 254.16L136.509 257.224C136.509 257.224 136.475 257.224 136.475 257.207L136.268 252.254C136.268 252.254 136.276 252.193 136.294 252.184L140.28 248.491L140.289 248.474Z" fill="#92B6DA"/>
</g>
<g opacity="0.5">
<path d="M126.465 239.613C126.465 239.613 126.5 239.613 126.491 239.639L124.696 244.98C124.696 244.98 124.662 245.024 124.636 245.032L119.381 245.99C119.381 245.99 119.347 245.981 119.355 245.956L121.236 241.365C121.236 241.365 121.271 241.322 121.297 241.313L126.465 239.622V239.613Z" fill="#92B6DA"/>
</g>
<g opacity="0.5">
<path d="M127.018 229.924C127.018 229.924 127.035 229.89 127.052 229.907L131.522 233.333C131.522 233.333 131.557 233.376 131.548 233.402L130.754 238.683C130.754 238.683 130.737 238.709 130.711 238.7L126.975 235.438C126.975 235.438 126.94 235.387 126.94 235.369L127.009 229.933L127.018 229.924Z" fill="#92B6DA"/>
</g>
<g opacity="0.5">
<path d="M125.206 218.169C125.206 218.169 125.24 218.161 125.24 218.187L125.836 223.787C125.836 223.787 125.827 223.839 125.801 223.856L121.426 226.919C121.426 226.919 121.392 226.919 121.392 226.902L121.185 221.949C121.185 221.949 121.193 221.888 121.21 221.88L125.197 218.187L125.206 218.169Z" fill="#92B6DA"/>
</g>
<g opacity="0.5">
<path d="M115.515 237.734C115.515 237.734 115.55 237.734 115.541 237.76L113.746 243.102C113.746 243.102 113.712 243.145 113.686 243.153L108.431 244.111C108.431 244.111 108.397 244.103 108.405 244.077L110.286 239.486C110.286 239.486 110.321 239.443 110.347 239.434L115.515 237.743V237.734Z" fill="#92B6DA"/>
</g>
<g opacity="0.5">
<path d="M116.068 228.046C116.068 228.046 116.085 228.011 116.102 228.028L120.572 231.454C120.572 231.454 120.606 231.497 120.598 231.523L119.804 236.804C119.804 236.804 119.787 236.83 119.761 236.821L116.025 233.559C116.025 233.559 115.99 233.508 115.99 233.49L116.059 228.054L116.068 228.046Z" fill="#92B6DA"/>
</g>
<g opacity="0.5">
<path d="M114.255 216.29C114.255 216.29 114.29 216.282 114.29 216.308L114.885 221.908C114.885 221.908 114.877 221.96 114.851 221.977L110.476 225.04C110.476 225.04 110.441 225.04 110.441 225.023L110.234 220.07C110.234 220.07 110.243 220.01 110.26 220.001L114.247 216.308L114.255 216.29Z" fill="#92B6DA"/>
</g>
<g opacity="0.5">
<path d="M149.22 242.977C149.22 242.977 149.254 242.977 149.246 243.002L147.451 248.344C147.451 248.344 147.416 248.387 147.39 248.396L142.135 249.353C142.135 249.353 142.101 249.345 142.11 249.319L143.991 244.728C143.991 244.728 144.025 244.685 144.051 244.676L149.22 242.985V242.977Z" fill="#92B6DA"/>
</g>
<g opacity="0.5">
<path d="M149.772 233.28C149.772 233.28 149.789 233.245 149.807 233.263L154.277 236.688C154.277 236.688 154.311 236.731 154.302 236.757L153.509 242.038C153.509 242.038 153.491 242.064 153.465 242.056L149.729 238.794C149.729 238.794 149.695 238.742 149.695 238.725L149.764 233.289L149.772 233.28Z" fill="#92B6DA"/>
</g>
<g opacity="0.5">
<path d="M147.96 221.525C147.96 221.525 147.995 221.516 147.995 221.542L148.59 227.142C148.59 227.142 148.581 227.194 148.555 227.211L144.181 230.275C144.181 230.275 144.146 230.275 144.146 230.257L143.939 225.304C143.939 225.304 143.948 225.244 143.965 225.235L147.951 221.542L147.96 221.525Z" fill="#92B6DA"/>
</g>
<g opacity="0.5">
<path d="M138.27 241.098C138.27 241.098 138.304 241.098 138.296 241.124L136.501 246.465C136.501 246.465 136.466 246.508 136.44 246.517L131.185 247.474C131.185 247.474 131.151 247.466 131.16 247.44L133.041 242.849C133.041 242.849 133.075 242.806 133.101 242.798L138.27 241.106V241.098Z" fill="#92B6DA"/>
</g>
<g opacity="0.5">
<path d="M138.813 231.405C138.813 231.405 138.831 231.37 138.848 231.388L143.318 234.813C143.318 234.813 143.352 234.856 143.343 234.882L142.55 240.163C142.55 240.163 142.532 240.189 142.506 240.18L138.77 236.919C138.77 236.919 138.736 236.867 138.736 236.85L138.805 231.414L138.813 231.405Z" fill="#92B6DA"/>
</g>
<g opacity="0.5">
<path d="M137.001 219.642C137.001 219.642 137.036 219.633 137.036 219.659L137.631 225.259C137.631 225.259 137.623 225.311 137.597 225.328L133.222 228.392C133.222 228.392 133.187 228.392 133.187 228.374L132.98 223.421C132.98 223.421 132.989 223.361 133.006 223.352L136.993 219.659L137.001 219.642Z" fill="#92B6DA"/>
</g>
<g opacity="0.5">
<path d="M129.123 270.34C129.123 270.34 129.158 270.34 129.149 270.366L127.354 275.707C127.354 275.707 127.32 275.75 127.294 275.759L122.039 276.717C122.039 276.717 122.004 276.708 122.013 276.682L123.894 272.092C123.894 272.092 123.928 272.048 123.954 272.04L129.123 270.348V270.34Z" fill="#92B6DA"/>
</g>
<g opacity="0.5">
<path d="M129.675 260.651C129.675 260.651 129.693 260.616 129.71 260.634L134.18 264.059C134.18 264.059 134.214 264.103 134.205 264.128L133.412 269.409C133.412 269.409 133.394 269.435 133.368 269.427L129.632 266.165C129.632 266.165 129.598 266.113 129.598 266.096L129.667 260.66L129.675 260.651Z" fill="#92B6DA"/>
</g>
<g opacity="0.5">
<path d="M127.863 248.896C127.863 248.896 127.898 248.887 127.898 248.913L128.493 254.513C128.493 254.513 128.484 254.565 128.459 254.582L124.084 257.646C124.084 257.646 124.049 257.646 124.049 257.628L123.842 252.675C123.842 252.675 123.851 252.615 123.868 252.606L127.855 248.913L127.863 248.896Z" fill="#92B6DA"/>
</g>
<g opacity="0.5">
<path d="M118.173 268.469C118.173 268.469 118.207 268.469 118.199 268.495L116.404 273.836C116.404 273.836 116.369 273.879 116.344 273.888L111.089 274.846C111.089 274.846 111.054 274.837 111.063 274.811L112.944 270.22C112.944 270.22 112.978 270.177 113.004 270.169L118.173 268.477V268.469Z" fill="#92B6DA"/>
</g>
<g opacity="0.5">
<path d="M118.717 258.772C118.717 258.772 118.734 258.738 118.751 258.755L123.221 262.181C123.221 262.181 123.255 262.224 123.247 262.25L122.453 267.53C122.453 267.53 122.436 267.556 122.41 267.548L118.673 264.286C118.673 264.286 118.639 264.234 118.639 264.217L118.708 258.781L118.717 258.772Z" fill="#92B6DA"/>
</g>
<g opacity="0.5">
<path d="M116.904 247.017C116.904 247.017 116.939 247.008 116.939 247.034L117.534 252.634C117.534 252.634 117.526 252.686 117.5 252.703L113.125 255.767C113.125 255.767 113.09 255.767 113.09 255.749L112.883 250.796C112.883 250.796 112.892 250.736 112.909 250.727L116.896 247.034L116.904 247.017Z" fill="#92B6DA"/>
</g>
<g opacity="0.5">
<path d="M170.266 246.781C170.266 246.781 170.3 246.781 170.292 246.807L168.497 252.148C168.497 252.148 168.462 252.192 168.436 252.2L163.181 253.158C163.181 253.158 163.147 253.149 163.155 253.123L165.037 248.533C165.037 248.533 165.071 248.49 165.097 248.481L170.266 246.79V246.781Z" fill="#92B6DA"/>
</g>
<g opacity="0.5">
<path d="M170.809 237.092C170.809 237.092 170.827 237.058 170.844 237.075L175.314 240.501C175.314 240.501 175.348 240.544 175.34 240.57L174.546 245.851C174.546 245.851 174.528 245.877 174.503 245.868L170.766 242.606C170.766 242.606 170.732 242.554 170.732 242.537L170.801 237.101L170.809 237.092Z" fill="#92B6DA"/>
</g>
<g opacity="0.5">
<path d="M168.997 225.333C168.997 225.333 169.032 225.325 169.032 225.351L169.627 230.951C169.627 230.951 169.618 231.003 169.593 231.02L165.218 234.083C165.218 234.083 165.183 234.083 165.183 234.066L164.976 229.113C164.976 229.113 164.985 229.052 165.002 229.044L168.989 225.351L168.997 225.333Z" fill="#92B6DA"/>
</g>
<g opacity="0.5">
<path d="M159.307 244.902C159.307 244.902 159.341 244.902 159.333 244.928L157.538 250.27C157.538 250.27 157.503 250.313 157.478 250.321L152.223 251.279C152.223 251.279 152.188 251.27 152.197 251.245L154.078 246.654C154.078 246.654 154.112 246.611 154.138 246.602L159.307 244.911V244.902Z" fill="#92B6DA"/>
</g>
<g opacity="0.5">
<path d="M159.859 235.214C159.859 235.214 159.877 235.179 159.894 235.196L164.364 238.622C164.364 238.622 164.398 238.665 164.39 238.691L163.596 243.972C163.596 243.972 163.578 243.998 163.553 243.989L159.816 240.727C159.816 240.727 159.782 240.676 159.782 240.658L159.851 235.222L159.859 235.214Z" fill="#92B6DA"/>
</g>
<g opacity="0.5">
<path d="M158.047 223.458C158.047 223.458 158.082 223.45 158.082 223.476L158.677 229.076C158.677 229.076 158.668 229.128 158.643 229.145L154.268 232.208C154.268 232.208 154.233 232.208 154.233 232.191L154.026 227.238C154.026 227.238 154.035 227.177 154.052 227.169L158.039 223.476L158.047 223.458Z" fill="#92B6DA"/>
</g>
<g opacity="0.5">
<path d="M173.363 255.619C173.363 255.619 173.398 255.61 173.398 255.636L173.993 261.236C173.993 261.236 173.985 261.288 173.959 261.305L169.584 264.368C169.584 264.368 169.549 264.368 169.549 264.351L169.342 259.398C169.342 259.398 169.351 259.338 169.368 259.329L173.355 255.636L173.363 255.619Z" fill="#92B6DA"/>
</g>
<g opacity="0.5">
<path d="M163.673 275.191C163.673 275.191 163.708 275.191 163.699 275.217L161.904 280.559C161.904 280.559 161.87 280.602 161.844 280.61L156.589 281.568C156.589 281.568 156.554 281.56 156.563 281.534L158.444 276.943C158.444 276.943 158.479 276.9 158.504 276.891L163.673 275.2V275.191Z" fill="#92B6DA"/>
</g>
<g opacity="0.5">
<path d="M164.226 265.491C164.226 265.491 164.243 265.456 164.26 265.474L168.73 268.899C168.73 268.899 168.764 268.942 168.756 268.968L167.962 274.249C167.962 274.249 167.945 274.275 167.919 274.266L164.182 271.005C164.182 271.005 164.148 270.953 164.148 270.936L164.217 265.499L164.226 265.491Z" fill="#92B6DA"/>
</g>
<g opacity="0.5">
<path d="M162.413 253.74C162.413 253.74 162.448 253.731 162.448 253.757L163.043 259.357C163.043 259.357 163.035 259.409 163.009 259.426L158.634 262.489C158.634 262.489 158.599 262.489 158.599 262.472L158.392 257.519C158.392 257.519 158.401 257.459 158.418 257.45L162.405 253.757L162.413 253.74Z" fill="#92B6DA"/>
</g>
<g opacity="0.5">
<path d="M168.583 214.949C168.583 214.949 168.618 214.949 168.609 214.975L166.814 220.316C166.814 220.316 166.78 220.36 166.754 220.368L161.499 221.326C161.499 221.326 161.464 221.317 161.473 221.291L163.354 216.701C163.354 216.701 163.388 216.658 163.414 216.649L168.583 214.958V214.949Z" fill="#92B6DA"/>
</g>
<g opacity="0.5">
<path d="M157.633 213.078C157.633 213.078 157.668 213.078 157.659 213.104L155.864 218.445C155.864 218.445 155.83 218.488 155.804 218.497L150.549 219.455C150.549 219.455 150.514 219.446 150.523 219.42L152.404 214.83C152.404 214.83 152.438 214.787 152.464 214.778L157.633 213.087V213.078Z" fill="#92B6DA"/>
</g>
<g opacity="0.5">
<path d="M158.185 203.381C158.185 203.381 158.203 203.347 158.22 203.364L162.69 206.79C162.69 206.79 162.724 206.833 162.716 206.859L161.922 212.14C161.922 212.14 161.904 212.166 161.879 212.157L158.142 208.895C158.142 208.895 158.108 208.844 158.108 208.826L158.177 203.39L158.185 203.381Z" fill="#92B6DA"/>
</g>
<g opacity="0.5">
<path d="M156.365 191.626C156.365 191.626 156.399 191.618 156.399 191.644L156.995 197.244C156.995 197.244 156.986 197.296 156.96 197.313L152.585 200.376C152.585 200.376 152.551 200.376 152.551 200.359L152.344 195.406C152.344 195.406 152.352 195.345 152.369 195.337L156.356 191.644L156.365 191.626Z" fill="#92B6DA"/>
</g>
<g opacity="0.5">
<path d="M146.174 211.395C146.174 211.395 146.208 211.395 146.2 211.42L144.405 216.762C144.405 216.762 144.37 216.805 144.345 216.813L139.09 217.771C139.09 217.771 139.055 217.763 139.064 217.737L140.945 213.146C140.945 213.146 140.979 213.103 141.005 213.094L146.174 211.403V211.395Z" fill="#92B6DA"/>
</g>
<g opacity="0.5">
<path d="M146.718 201.706C146.718 201.706 146.735 201.671 146.752 201.688L151.222 205.114C151.222 205.114 151.256 205.157 151.248 205.183L150.454 210.464C150.454 210.464 150.437 210.49 150.411 210.481L146.674 207.22C146.674 207.22 146.64 207.168 146.64 207.151L146.709 201.714L146.718 201.706Z" fill="#92B6DA"/>
</g>
<g opacity="0.5">
<path d="M144.905 189.951C144.905 189.951 144.94 189.942 144.94 189.968L145.535 195.568C145.535 195.568 145.527 195.62 145.501 195.637L141.126 198.7C141.126 198.7 141.091 198.7 141.091 198.683L140.884 193.73C140.884 193.73 140.893 193.67 140.91 193.661L144.897 189.968L144.905 189.951Z" fill="#92B6DA"/>
</g>
<g opacity="0.5">
<path d="M135.215 209.523C135.215 209.523 135.25 209.523 135.241 209.549L133.446 214.891C133.446 214.891 133.412 214.934 133.386 214.942L128.131 215.9C128.131 215.9 128.096 215.892 128.105 215.866L129.986 211.275C129.986 211.275 130.021 211.232 130.046 211.223L135.215 209.532V209.523Z" fill="#92B6DA"/>
</g>
<g opacity="0.5">
<path d="M135.767 199.823C135.767 199.823 135.785 199.788 135.802 199.806L140.272 203.231C140.272 203.231 140.306 203.274 140.298 203.3L139.504 208.581C139.504 208.581 139.486 208.607 139.461 208.598L135.724 205.337C135.724 205.337 135.69 205.285 135.69 205.268L135.759 199.832L135.767 199.823Z" fill="#92B6DA"/>
</g>
<g opacity="0.5">
<path d="M133.955 188.072C133.955 188.072 133.99 188.063 133.99 188.089L134.585 193.689C134.585 193.689 134.576 193.741 134.551 193.758L130.176 196.821C130.176 196.821 130.141 196.821 130.141 196.804L129.934 191.851C129.934 191.851 129.943 191.791 129.96 191.782L133.947 188.089L133.955 188.072Z" fill="#92B6DA"/>
</g>
<g opacity="0.5">
<path d="M123.764 208.023C123.764 208.023 123.799 208.023 123.79 208.049L121.996 213.391C121.996 213.391 121.961 213.434 121.935 213.442L116.68 214.4C116.68 214.4 116.646 214.392 116.654 214.366L118.535 209.775C118.535 209.775 118.57 209.732 118.596 209.723L123.764 208.032V208.023Z" fill="#92B6DA"/>
</g>
<g opacity="0.5">
<path d="M124.317 198.323C124.317 198.323 124.334 198.288 124.351 198.306L128.821 201.731C128.821 201.731 128.856 201.774 128.847 201.8L128.053 207.081C128.053 207.081 128.036 207.107 128.01 207.098L124.274 203.837C124.274 203.837 124.239 203.785 124.239 203.768L124.308 198.331L124.317 198.323Z" fill="#92B6DA"/>
</g>
<g opacity="0.5">
<path d="M122.496 186.572C122.496 186.572 122.53 186.563 122.53 186.589L123.126 192.189C123.126 192.189 123.117 192.241 123.091 192.258L118.716 195.321C118.716 195.321 118.682 195.321 118.682 195.304L118.475 190.351C118.475 190.351 118.483 190.291 118.501 190.282L122.487 186.589L122.496 186.572Z" fill="#92B6DA"/>
</g>
<g opacity="0.5">
<path d="M112.815 206.141C112.815 206.141 112.849 206.141 112.84 206.167L111.046 211.508C111.046 211.508 111.011 211.551 110.985 211.56L105.73 212.517C105.73 212.517 105.696 212.509 105.704 212.483L107.585 207.892C107.585 207.892 107.62 207.849 107.646 207.841L112.815 206.149V206.141Z" fill="#92B6DA"/>
</g>
<g opacity="0.5">
<path d="M113.358 196.44C113.358 196.44 113.375 196.406 113.392 196.423L117.862 199.848C117.862 199.848 117.897 199.892 117.888 199.918L117.094 205.198C117.094 205.198 117.077 205.224 117.051 205.216L113.315 201.954C113.315 201.954 113.28 201.902 113.28 201.885L113.349 196.449L113.358 196.44Z" fill="#92B6DA"/>
</g>
<g opacity="0.5">
<path d="M149.298 359.727C149.298 359.727 149.332 359.727 149.324 359.752L147.529 365.094C147.529 365.094 147.494 365.137 147.468 365.146L142.213 366.103C142.213 366.103 142.179 366.095 142.187 366.069L144.069 361.478C144.069 361.478 144.103 361.435 144.129 361.426L149.298 359.735V359.727Z" fill="#92B6DA"/>
</g>
<g opacity="0.5">
<path d="M149.85 350.038C149.85 350.038 149.867 350.003 149.884 350.02L154.354 353.446C154.354 353.446 154.389 353.489 154.38 353.515L153.586 358.796C153.586 358.796 153.569 358.822 153.543 358.813L149.807 355.552C149.807 355.552 149.772 355.5 149.772 355.483L149.841 350.046L149.85 350.038Z" fill="#92B6DA"/>
</g>
<g opacity="0.5">
<path d="M148.038 338.279C148.038 338.279 148.072 338.27 148.072 338.296L148.668 343.896C148.668 343.896 148.659 343.948 148.633 343.965L144.258 347.028C144.258 347.028 144.224 347.028 144.224 347.011L144.017 342.058C144.017 342.058 144.025 341.998 144.042 341.989L148.029 338.296L148.038 338.279Z" fill="#92B6DA"/>
</g>
<g opacity="0.5">
<path d="M138.347 357.848C138.347 357.848 138.382 357.848 138.373 357.874L136.579 363.215C136.579 363.215 136.544 363.258 136.518 363.267L131.263 364.224C131.263 364.224 131.229 364.216 131.237 364.19L133.118 359.599C133.118 359.599 133.153 359.556 133.179 359.548L138.347 357.856V357.848Z" fill="#92B6DA"/>
</g>
<g opacity="0.5">
<path d="M138.9 348.159C138.9 348.159 138.917 348.124 138.934 348.142L143.404 351.567C143.404 351.567 143.438 351.61 143.43 351.636L142.636 356.917C142.636 356.917 142.619 356.943 142.593 356.934L138.857 353.673C138.857 353.673 138.822 353.621 138.822 353.604L138.891 348.167L138.9 348.159Z" fill="#92B6DA"/>
</g>
<g opacity="0.5">
<path d="M137.079 336.404C137.079 336.404 137.113 336.395 137.113 336.421L137.709 342.021C137.709 342.021 137.7 342.073 137.674 342.09L133.299 345.153C133.299 345.153 133.265 345.153 133.265 345.136L133.058 340.183C133.058 340.183 133.066 340.123 133.084 340.114L137.07 336.421L137.079 336.404Z" fill="#92B6DA"/>
</g>
<g opacity="0.5">
<path d="M123.264 327.539C123.264 327.539 123.298 327.539 123.29 327.565L121.495 332.906C121.495 332.906 121.461 332.949 121.435 332.958L116.18 333.916C116.18 333.916 116.145 333.907 116.154 333.881L118.035 329.291C118.035 329.291 118.069 329.248 118.095 329.239L123.264 327.548V327.539Z" fill="#92B6DA"/>
</g>
<g opacity="0.5">
<path d="M123.816 317.842C123.816 317.842 123.834 317.808 123.851 317.825L128.321 321.251C128.321 321.251 128.355 321.294 128.347 321.32L127.553 326.601C127.553 326.601 127.535 326.627 127.51 326.618L123.773 323.356C123.773 323.356 123.739 323.305 123.739 323.287L123.808 317.851L123.816 317.842Z" fill="#92B6DA"/>
</g>
<g opacity="0.5">
<path d="M122.004 306.087C122.004 306.087 122.038 306.079 122.038 306.105L122.634 311.705C122.634 311.705 122.625 311.757 122.599 311.774L118.225 314.837C118.225 314.837 118.19 314.837 118.19 314.82L117.983 309.867C117.983 309.867 117.992 309.806 118.009 309.798L121.995 306.105L122.004 306.087Z" fill="#92B6DA"/>
</g>
<g opacity="0.5">
<path d="M112.314 325.66C112.314 325.66 112.349 325.66 112.34 325.686L110.545 331.027C110.545 331.027 110.511 331.07 110.485 331.079L105.23 332.037C105.23 332.037 105.195 332.028 105.204 332.002L107.085 327.412C107.085 327.412 107.119 327.369 107.145 327.36L112.314 325.669V325.66Z" fill="#92B6DA"/>
</g>
<g opacity="0.5">
<path d="M112.866 315.96C112.866 315.96 112.883 315.925 112.9 315.942L117.37 319.368C117.37 319.368 117.405 319.411 117.396 319.437L116.602 324.718C116.602 324.718 116.585 324.744 116.559 324.735L112.823 321.473C112.823 321.473 112.788 321.422 112.788 321.404L112.857 315.968L112.866 315.96Z" fill="#92B6DA"/>
</g>
<g opacity="0.5">
<path d="M111.045 304.208C111.045 304.208 111.08 304.2 111.08 304.226L111.675 309.826C111.675 309.826 111.667 309.878 111.641 309.895L107.266 312.958C107.266 312.958 107.232 312.958 107.232 312.941L107.024 307.988C107.024 307.988 107.033 307.927 107.05 307.919L111.037 304.226L111.045 304.208Z" fill="#92B6DA"/>
</g>
<g opacity="0.5">
<path d="M146.019 330.898C146.019 330.898 146.053 330.898 146.044 330.924L144.25 336.266C144.25 336.266 144.215 336.309 144.189 336.317L138.934 337.275C138.934 337.275 138.9 337.267 138.908 337.241L140.789 332.65C140.789 332.65 140.824 332.607 140.85 332.598L146.019 330.907V330.898Z" fill="#92B6DA"/>
</g>
<g opacity="0.5">
<path d="M144.75 309.455C144.75 309.455 144.785 309.446 144.785 309.472L145.38 315.072C145.38 315.072 145.371 315.124 145.345 315.141L140.971 318.204C140.971 318.204 140.936 318.204 140.936 318.187L140.729 313.234C140.729 313.234 140.738 313.174 140.755 313.165L144.741 309.472L144.75 309.455Z" fill="#92B6DA"/>
</g>
<g opacity="0.5">
<path d="M135.068 329.016C135.068 329.016 135.103 329.016 135.094 329.042L133.299 334.383C133.299 334.383 133.265 334.426 133.239 334.435L127.984 335.392C127.984 335.392 127.95 335.384 127.958 335.358L129.839 330.767C129.839 330.767 129.874 330.724 129.9 330.716L135.068 329.024V329.016Z" fill="#92B6DA"/>
</g>
<g opacity="0.5">
<path d="M135.612 319.327C135.612 319.327 135.629 319.292 135.647 319.31L140.116 322.735C140.116 322.735 140.151 322.778 140.142 322.804L139.348 328.085C139.348 328.085 139.331 328.111 139.305 328.102L135.569 324.841C135.569 324.841 135.534 324.789 135.534 324.772L135.603 319.335L135.612 319.327Z" fill="#92B6DA"/>
</g>
<g opacity="0.5">
<path d="M133.8 307.576C133.8 307.576 133.834 307.567 133.834 307.593L134.43 313.193C134.43 313.193 134.421 313.245 134.395 313.262L130.02 316.325C130.02 316.325 129.986 316.325 129.986 316.308L129.779 311.355C129.779 311.355 129.787 311.295 129.805 311.286L133.791 307.593L133.8 307.576Z" fill="#92B6DA"/>
</g>
<g opacity="0.5">
<path d="M126.474 348.569C126.474 348.569 126.491 348.534 126.509 348.552L130.978 351.977C130.978 351.977 131.013 352.021 131.004 352.046L130.21 357.327C130.21 357.327 130.193 357.353 130.167 357.345L126.431 354.083C126.431 354.083 126.396 354.031 126.396 354.014L126.466 348.578L126.474 348.569Z" fill="#92B6DA"/>
</g>
<g opacity="0.5">
<path d="M124.653 336.818C124.653 336.818 124.688 336.809 124.688 336.835L125.283 342.435C125.283 342.435 125.274 342.487 125.249 342.504L120.874 345.568C120.874 345.568 120.839 345.568 120.839 345.55L120.632 340.597C120.632 340.597 120.641 340.537 120.658 340.528L124.645 336.835L124.653 336.818Z" fill="#92B6DA"/>
</g>
<g opacity="0.5">
<path d="M115.515 346.698C115.515 346.698 115.532 346.663 115.55 346.681L120.019 350.106C120.019 350.106 120.054 350.149 120.045 350.175L119.251 355.456C119.251 355.456 119.234 355.482 119.208 355.473L115.472 352.212C115.472 352.212 115.438 352.16 115.438 352.143L115.507 346.707L115.515 346.698Z" fill="#92B6DA"/>
</g>
<g opacity="0.5">
<path d="M113.703 334.943C113.703 334.943 113.738 334.934 113.738 334.96L114.333 340.56C114.333 340.56 114.324 340.612 114.299 340.629L109.924 343.693C109.924 343.693 109.889 343.693 109.889 343.675L109.682 338.722C109.682 338.722 109.691 338.662 109.708 338.653L113.695 334.96L113.703 334.943Z" fill="#92B6DA"/>
</g>
<g opacity="0.5">
<path d="M171.422 364.988C171.422 364.988 171.456 364.988 171.448 365.014L169.653 370.355C169.653 370.355 169.618 370.399 169.593 370.407L164.338 371.365C164.338 371.365 164.303 371.356 164.312 371.331L166.193 366.74C166.193 366.74 166.227 366.697 166.253 366.688L171.422 364.997V364.988Z" fill="#92B6DA"/>
</g>
<g opacity="0.5">
<path d="M160.472 363.109C160.472 363.109 160.506 363.109 160.498 363.135L158.703 368.477C158.703 368.477 158.669 368.52 158.643 368.528L153.388 369.486C153.388 369.486 153.353 369.478 153.362 369.452L155.243 364.861C155.243 364.861 155.277 364.818 155.303 364.809L160.472 363.118V363.109Z" fill="#92B6DA"/>
</g>
<g opacity="0.5">
<path d="M161.024 353.421C161.024 353.421 161.041 353.386 161.059 353.403L165.528 356.829C165.528 356.829 165.563 356.872 165.554 356.898L164.761 362.179C164.761 362.179 164.743 362.205 164.717 362.196L160.981 358.934C160.981 358.934 160.947 358.883 160.947 358.865L161.016 353.429L161.024 353.421Z" fill="#92B6DA"/>
</g>
<g opacity="0.5">
<path d="M159.203 341.665C159.203 341.665 159.238 341.657 159.238 341.683L159.833 347.283C159.833 347.283 159.825 347.335 159.799 347.352L155.424 350.415C155.424 350.415 155.389 350.415 155.389 350.398L155.182 345.445C155.182 345.445 155.191 345.385 155.208 345.376L159.195 341.683L159.203 341.665Z" fill="#92B6DA"/>
</g>
<g opacity="0.5">
<path d="M164.122 281.427C164.122 281.427 164.156 281.419 164.156 281.444L164.752 287.045C164.752 287.045 164.743 287.096 164.717 287.114L160.342 290.177C160.342 290.177 160.308 290.177 160.308 290.16L160.101 285.207C160.101 285.207 160.109 285.146 160.127 285.138L164.113 281.444L164.122 281.427Z" fill="#92B6DA"/>
</g>
<g opacity="0.5">
<path d="M154.432 300.996C154.432 300.996 154.466 300.996 154.458 301.022L152.663 306.363C152.663 306.363 152.628 306.406 152.602 306.415L147.347 307.373C147.347 307.373 147.313 307.364 147.321 307.338L149.203 302.748C149.203 302.748 149.237 302.705 149.263 302.696L154.432 301.005V300.996Z" fill="#92B6DA"/>
</g>
<g opacity="0.5">
<path d="M154.975 291.307C154.975 291.307 154.992 291.273 155.01 291.29L159.479 294.716C159.479 294.716 159.514 294.759 159.505 294.785L158.711 300.066C158.711 300.066 158.694 300.091 158.668 300.083L154.932 296.821C154.932 296.821 154.897 296.769 154.897 296.752L154.966 291.316L154.975 291.307Z" fill="#92B6DA"/>
</g>
<g opacity="0.5">
<path d="M153.163 279.552C153.163 279.552 153.198 279.544 153.198 279.569L153.793 285.17C153.793 285.17 153.784 285.221 153.759 285.239L149.384 288.302C149.384 288.302 149.349 288.302 149.349 288.285L149.142 283.332C149.142 283.332 149.151 283.271 149.168 283.263L153.155 279.569L153.163 279.552Z" fill="#92B6DA"/>
</g>
<g opacity="0.5">
<path d="M142.964 299.324C142.964 299.324 142.998 299.324 142.99 299.35L141.195 304.691C141.195 304.691 141.16 304.735 141.135 304.743L135.88 305.701C135.88 305.701 135.845 305.692 135.854 305.666L137.735 301.076C137.735 301.076 137.769 301.033 137.795 301.024L142.964 299.333V299.324Z" fill="#92B6DA"/>
</g>
<g opacity="0.5">
<path d="M143.516 289.635C143.516 289.635 143.533 289.601 143.551 289.618L148.02 293.044C148.02 293.044 148.055 293.087 148.046 293.113L147.252 298.394C147.252 298.394 147.235 298.42 147.209 298.411L143.473 295.149C143.473 295.149 143.438 295.097 143.438 295.08L143.507 289.644L143.516 289.635Z" fill="#92B6DA"/>
</g>
<g opacity="0.5">
<path d="M141.704 277.876C141.704 277.876 141.738 277.868 141.738 277.894L142.334 283.494C142.334 283.494 142.325 283.546 142.299 283.563L137.924 286.626C137.924 286.626 137.89 286.626 137.89 286.609L137.683 281.656C137.683 281.656 137.691 281.595 137.709 281.587L141.695 277.894L141.704 277.876Z" fill="#92B6DA"/>
</g>
<g opacity="0.5">
<path d="M132.014 297.445C132.014 297.445 132.048 297.445 132.04 297.471L130.245 302.813C130.245 302.813 130.21 302.856 130.184 302.864L124.929 303.822C124.929 303.822 124.895 303.813 124.903 303.788L126.785 299.197C126.785 299.197 126.819 299.154 126.845 299.145L132.014 297.454V297.445Z" fill="#92B6DA"/>
</g>
<g opacity="0.5">
<path d="M132.566 287.756C132.566 287.756 132.583 287.722 132.601 287.739L137.07 291.165C137.07 291.165 137.105 291.208 137.096 291.234L136.302 296.515C136.302 296.515 136.285 296.541 136.259 296.532L132.523 293.27C132.523 293.27 132.489 293.219 132.489 293.201L132.558 287.765L132.566 287.756Z" fill="#92B6DA"/>
</g>
<g opacity="0.5">
<path d="M130.745 276.001C130.745 276.001 130.78 275.993 130.78 276.019L131.375 281.619C131.375 281.619 131.366 281.671 131.341 281.688L126.966 284.751C126.966 284.751 126.931 284.751 126.931 284.734L126.724 279.781C126.724 279.781 126.733 279.72 126.75 279.712L130.737 276.019L130.745 276.001Z" fill="#92B6DA"/>
</g>
<g opacity="0.5">
<path d="M120.563 295.941C120.563 295.941 120.598 295.941 120.589 295.967L118.794 301.309C118.794 301.309 118.76 301.352 118.734 301.36L113.479 302.318C113.479 302.318 113.444 302.31 113.453 302.284L115.334 297.693C115.334 297.693 115.369 297.65 115.395 297.641L120.563 295.95V295.941Z" fill="#92B6DA"/>
</g>
<g opacity="0.5">
<path d="M121.107 286.253C121.107 286.253 121.124 286.218 121.141 286.235L125.611 289.661C125.611 289.661 125.646 289.704 125.637 289.73L124.843 295.011C124.843 295.011 124.826 295.037 124.8 295.028L121.064 291.766C121.064 291.766 121.029 291.715 121.029 291.697L121.098 286.261L121.107 286.253Z" fill="#92B6DA"/>
</g>
<g opacity="0.5">
<path d="M119.295 274.49C119.295 274.49 119.329 274.481 119.329 274.507L119.925 280.107C119.925 280.107 119.916 280.159 119.89 280.176L115.515 283.239C115.515 283.239 115.481 283.239 115.481 283.222L115.274 278.269C115.274 278.269 115.282 278.209 115.3 278.2L119.286 274.507L119.295 274.49Z" fill="#92B6DA"/>
</g>
<g opacity="0.5">
<path d="M109.605 294.059C109.605 294.059 109.639 294.059 109.63 294.084L107.836 299.426C107.836 299.426 107.801 299.469 107.775 299.478L102.52 300.435C102.52 300.435 102.486 300.427 102.494 300.401L104.375 295.81C104.375 295.81 104.41 295.767 104.436 295.758L109.605 294.067V294.059Z" fill="#92B6DA"/>
</g>
<g opacity="0.5">
<path d="M110.157 284.37C110.157 284.37 110.174 284.335 110.191 284.352L114.661 287.778C114.661 287.778 114.696 287.821 114.687 287.847L113.893 293.128C113.893 293.128 113.876 293.154 113.85 293.145L110.114 289.884C110.114 289.884 110.079 289.832 110.079 289.815L110.148 284.378L110.157 284.37Z" fill="#92B6DA"/>
</g>
<g opacity="0.5">
<path d="M108.345 272.619C108.345 272.619 108.379 272.61 108.379 272.636L108.974 278.236C108.974 278.236 108.966 278.288 108.94 278.305L104.565 281.368C104.565 281.368 104.531 281.368 104.531 281.351L104.323 276.398C104.323 276.398 104.332 276.338 104.349 276.329L108.336 272.636L108.345 272.619Z" fill="#92B6DA"/>
</g>
</g>
<g opacity="0.5">
<g opacity="0.5">
<path d="M114.256 145.208C114.256 145.208 114.221 145.225 114.221 145.208L112.607 139.806C112.607 139.806 112.607 139.754 112.625 139.737L116.361 135.932C116.361 135.932 116.396 135.923 116.404 135.94L117.517 140.773C117.517 140.773 117.517 140.833 117.5 140.85L114.256 145.217V145.208Z" fill="#92B6DA"/>
</g>
<g opacity="0.5">
<path d="M119.398 153.449C119.398 153.449 119.398 153.483 119.381 153.483L113.755 153.267C113.755 153.267 113.703 153.25 113.695 153.224L111.296 148.452C111.296 148.452 111.296 148.418 111.322 148.418L116.258 148.918C116.258 148.918 116.309 148.936 116.327 148.962L119.407 153.44L119.398 153.449Z" fill="#92B6DA"/>
</g>
<g opacity="0.5">
<path d="M127.656 161.998C127.656 161.998 127.63 162.024 127.622 162.007L123.903 157.778C123.903 157.778 123.877 157.727 123.885 157.709L125.689 152.687C125.689 152.687 125.715 152.661 125.732 152.687L128.761 156.613C128.761 156.613 128.787 156.665 128.778 156.691L127.648 162.015L127.656 161.998Z" fill="#92B6DA"/>
</g>
<g opacity="0.5">
<path d="M124.282 140.427C124.282 140.427 124.248 140.444 124.248 140.427L122.634 135.025C122.634 135.025 122.634 134.973 122.651 134.956L126.388 131.151C126.388 131.151 126.422 131.142 126.431 131.159L127.544 135.991C127.544 135.991 127.544 136.052 127.527 136.069L124.282 140.435V140.427Z" fill="#92B6DA"/>
</g>
<g opacity="0.5">
<path d="M129.425 148.656C129.425 148.656 129.425 148.69 129.408 148.69L123.782 148.474C123.782 148.474 123.73 148.457 123.722 148.431L121.323 143.66C121.323 143.66 121.323 143.625 121.349 143.625L126.284 144.125C126.284 144.125 126.336 144.143 126.353 144.169L129.434 148.647L129.425 148.656Z" fill="#92B6DA"/>
</g>
<g opacity="0.5">
<path d="M137.692 157.209C137.692 157.209 137.666 157.235 137.657 157.217L133.938 152.989C133.938 152.989 133.912 152.938 133.921 152.92L135.724 147.898C135.724 147.898 135.75 147.872 135.768 147.898L138.796 151.824C138.796 151.824 138.822 151.876 138.814 151.902L137.683 157.226L137.692 157.209Z" fill="#92B6DA"/>
</g>
<g opacity="0.5">
<path d="M133.567 166.868C133.567 166.868 133.533 166.885 133.533 166.868L131.919 161.466C131.919 161.466 131.919 161.415 131.936 161.397L135.673 157.592C135.673 157.592 135.707 157.583 135.716 157.601L136.829 162.433C136.829 162.433 136.829 162.493 136.812 162.51L133.567 166.877V166.868Z" fill="#92B6DA"/>
</g>
<g opacity="0.5">
<path d="M138.71 175.097C138.71 175.097 138.71 175.132 138.692 175.132L133.066 174.916C133.066 174.916 133.015 174.899 133.006 174.873L130.607 170.101C130.607 170.101 130.607 170.066 130.633 170.066L135.569 170.567C135.569 170.567 135.621 170.584 135.638 170.61L138.718 175.088L138.71 175.097Z" fill="#92B6DA"/>
</g>
<g opacity="0.5">
<path d="M146.976 183.65C146.976 183.65 146.95 183.676 146.942 183.659L143.223 179.431C143.223 179.431 143.197 179.379 143.205 179.362L145.009 174.34C145.009 174.34 145.035 174.314 145.052 174.34L148.081 178.266C148.081 178.266 148.107 178.318 148.098 178.343L146.968 183.667L146.976 183.65Z" fill="#92B6DA"/>
</g>
<g opacity="0.5">
<path d="M143.594 162.075C143.594 162.075 143.559 162.092 143.559 162.075L141.946 156.673C141.946 156.673 141.946 156.622 141.963 156.604L145.699 152.799C145.699 152.799 145.734 152.79 145.743 152.808L146.856 157.64C146.856 157.64 146.856 157.7 146.838 157.718L143.594 162.084V162.075Z" fill="#92B6DA"/>
</g>
<g opacity="0.5">
<path d="M148.745 170.308C148.745 170.308 148.745 170.343 148.728 170.343L143.102 170.127C143.102 170.127 143.05 170.11 143.041 170.084L140.643 165.312C140.643 165.312 140.643 165.277 140.668 165.277L145.604 165.778C145.604 165.778 145.656 165.795 145.673 165.821L148.754 170.299L148.745 170.308Z" fill="#92B6DA"/>
</g>
<g opacity="0.5">
<path d="M157.003 178.857C157.003 178.857 156.977 178.883 156.969 178.866L153.25 174.638C153.25 174.638 153.224 174.586 153.232 174.569L155.036 169.547C155.036 169.547 155.062 169.521 155.079 169.547L158.108 173.473C158.108 173.473 158.133 173.525 158.125 173.55L156.994 178.875L157.003 178.857Z" fill="#92B6DA"/>
</g>
<g opacity="0.5">
<path d="M134.188 132.911C134.188 132.911 134.154 132.928 134.154 132.911L132.54 127.509C132.54 127.509 132.54 127.458 132.557 127.44L136.294 123.635C136.294 123.635 136.328 123.626 136.337 123.644L137.45 128.476C137.45 128.476 137.45 128.536 137.433 128.553L134.188 132.92V132.911Z" fill="#92B6DA"/>
</g>
<g opacity="0.5">
<path d="M139.331 141.144C139.331 141.144 139.331 141.178 139.314 141.178L133.688 140.963C133.688 140.963 133.636 140.945 133.627 140.92L131.229 136.148C131.229 136.148 131.229 136.113 131.254 136.113L136.19 136.614C136.19 136.614 136.242 136.631 136.259 136.657L139.34 141.135L139.331 141.144Z" fill="#92B6DA"/>
</g>
<g opacity="0.5">
<path d="M147.598 149.701C147.598 149.701 147.572 149.727 147.563 149.71L143.844 145.481C143.844 145.481 143.818 145.43 143.827 145.412L145.63 140.39C145.63 140.39 145.656 140.365 145.673 140.39L148.702 144.317C148.702 144.317 148.728 144.368 148.719 144.394L147.589 149.718L147.598 149.701Z" fill="#92B6DA"/>
</g>
<g opacity="0.5">
<path d="M144.224 128.13C144.224 128.13 144.189 128.147 144.189 128.13L142.576 122.728C142.576 122.728 142.576 122.676 142.593 122.659L146.329 118.854C146.329 118.854 146.364 118.845 146.372 118.862L147.486 123.695C147.486 123.695 147.486 123.755 147.468 123.772L144.224 128.138V128.13Z" fill="#92B6DA"/>
</g>
<g opacity="0.5">
<path d="M149.367 136.363C149.367 136.363 149.367 136.397 149.349 136.397L143.723 136.181C143.723 136.181 143.672 136.164 143.663 136.138L141.264 131.367C141.264 131.367 141.264 131.332 141.29 131.332L146.226 131.832C146.226 131.832 146.278 131.85 146.295 131.876L149.375 136.354L149.367 136.363Z" fill="#92B6DA"/>
</g>
<g opacity="0.5">
<path d="M157.624 144.912C157.624 144.912 157.599 144.938 157.59 144.921L153.871 140.692C153.871 140.692 153.845 140.641 153.854 140.623L155.657 135.601C155.657 135.601 155.683 135.575 155.7 135.601L158.729 139.528C158.729 139.528 158.755 139.579 158.746 139.605L157.616 144.929L157.624 144.912Z" fill="#92B6DA"/>
</g>
<g opacity="0.5">
<path d="M114.186 175.888C114.186 175.888 114.152 175.905 114.152 175.888L112.538 170.486C112.538 170.486 112.538 170.434 112.556 170.417L116.292 166.612C116.292 166.612 116.326 166.603 116.335 166.62L117.448 171.452C117.448 171.452 117.448 171.513 117.431 171.53L114.186 175.896V175.888Z" fill="#92B6DA"/>
</g>
<g opacity="0.5">
<path d="M119.329 184.132C119.329 184.132 119.329 184.167 119.312 184.167L113.686 183.951C113.686 183.951 113.634 183.934 113.626 183.908L111.227 179.136C111.227 179.136 111.227 179.102 111.253 179.102L116.188 179.602C116.188 179.602 116.24 179.619 116.257 179.645L119.338 184.124L119.329 184.132Z" fill="#92B6DA"/>
</g>
<g opacity="0.5">
<path d="M127.596 192.681C127.596 192.681 127.57 192.707 127.561 192.69L123.842 188.462C123.842 188.462 123.816 188.41 123.825 188.393L125.628 183.371C125.628 183.371 125.654 183.345 125.672 183.371L128.7 187.297C128.7 187.297 128.726 187.349 128.718 187.375L127.587 192.699L127.596 192.681Z" fill="#92B6DA"/>
</g>
<g opacity="0.5">
<path d="M124.213 171.11C124.213 171.11 124.179 171.128 124.179 171.11L122.565 165.709C122.565 165.709 122.565 165.657 122.582 165.64L126.319 161.834C126.319 161.834 126.353 161.826 126.362 161.843L127.475 166.675C127.475 166.675 127.475 166.735 127.458 166.753L124.213 171.119V171.11Z" fill="#92B6DA"/>
</g>
<g opacity="0.5">
<path d="M129.356 179.339C129.356 179.339 129.356 179.374 129.339 179.374L123.713 179.158C123.713 179.158 123.661 179.141 123.653 179.115L121.254 174.343C121.254 174.343 121.254 174.309 121.28 174.309L126.215 174.809C126.215 174.809 126.267 174.826 126.284 174.852L129.365 179.331L129.356 179.339Z" fill="#92B6DA"/>
</g>
<g opacity="0.5">
<path d="M137.623 187.892C137.623 187.892 137.597 187.918 137.588 187.901L133.869 183.673C133.869 183.673 133.843 183.621 133.852 183.604L135.655 178.582C135.655 178.582 135.681 178.556 135.698 178.582L138.727 182.508C138.727 182.508 138.753 182.56 138.744 182.586L137.614 187.91L137.623 187.892Z" fill="#92B6DA"/>
</g>
<g opacity="0.5">
<path d="M106.55 170.463C106.55 170.463 106.524 170.489 106.515 170.471L102.796 166.243C102.796 166.243 102.77 166.191 102.779 166.174L104.583 161.152C104.583 161.152 104.608 161.126 104.626 161.152L107.654 165.078C107.654 165.078 107.68 165.13 107.672 165.156L106.541 170.48L106.55 170.463Z" fill="#92B6DA"/>
</g>
<g opacity="0.5">
<path d="M103.176 148.892C103.176 148.892 103.141 148.909 103.141 148.892L101.528 143.49C101.528 143.49 101.528 143.438 101.545 143.421L105.281 139.615C105.281 139.615 105.316 139.607 105.325 139.624L106.438 144.456C106.438 144.456 106.438 144.517 106.42 144.534L103.176 148.9V148.892Z" fill="#92B6DA"/>
</g>
<g opacity="0.5">
<path d="M108.319 157.121C108.319 157.121 108.319 157.155 108.302 157.155L102.676 156.939C102.676 156.939 102.624 156.922 102.615 156.896L100.216 152.124C100.216 152.124 100.216 152.09 100.242 152.09L105.178 152.59C105.178 152.59 105.23 152.608 105.247 152.633L108.327 157.112L108.319 157.121Z" fill="#92B6DA"/>
</g>
<g opacity="0.5">
<path d="M116.585 165.681C116.585 165.681 116.559 165.707 116.551 165.69L112.832 161.462C112.832 161.462 112.806 161.41 112.814 161.393L114.618 156.371C114.618 156.371 114.644 156.345 114.661 156.371L117.69 160.297C117.69 160.297 117.715 160.349 117.707 160.375L116.576 165.699L116.585 165.681Z" fill="#92B6DA"/>
</g>
<g opacity="0.5">
<path d="M79.5414 88.3416C79.5414 88.3416 79.5155 88.3675 79.5069 88.3503L75.7878 84.1221C75.7878 84.1221 75.7619 84.0703 75.7706 84.0531L77.574 79.031C77.574 79.031 77.5999 79.0051 77.6171 79.031L80.6459 82.9572C80.6459 82.9572 80.6718 83.009 80.6632 83.0349L79.5328 88.3589L79.5414 88.3416Z" fill="#92B6DA"/>
</g>
<g opacity="0.5">
<path d="M76.1674 66.7587C76.1674 66.7587 76.1329 66.776 76.1329 66.7587L74.5193 61.357C74.5193 61.357 74.5193 61.3052 74.5365 61.288L78.2729 57.4826C78.2729 57.4826 78.3074 57.474 78.316 57.4913L79.4291 62.3235C79.4291 62.3235 79.4291 62.3839 79.4119 62.4011L76.1674 66.7673V66.7587Z" fill="#92B6DA"/>
</g>
<g opacity="0.5">
<path d="M81.3101 75.0033C81.3101 75.0033 81.3101 75.0378 81.2928 75.0378L75.6668 74.8221C75.6668 74.8221 75.615 74.8049 75.6064 74.779L73.2075 70.0072C73.2075 70.0072 73.2075 69.9727 73.2334 69.9727L78.1691 70.4731C78.1691 70.4731 78.2209 70.4904 78.2382 70.5163L81.3187 74.9947L81.3101 75.0033Z" fill="#92B6DA"/>
</g>
<g opacity="0.5">
<path d="M89.5766 83.5526C89.5766 83.5526 89.5507 83.5785 89.542 83.5612L85.823 79.333C85.823 79.333 85.7971 79.2813 85.8057 79.264L87.6092 74.242C87.6092 74.242 87.635 74.2161 87.6523 74.242L90.6811 78.1681C90.6811 78.1681 90.7069 78.2199 90.6983 78.2458L89.5679 83.5698L89.5766 83.5526Z" fill="#92B6DA"/>
</g>
<g opacity="0.5">
<path d="M105.972 82.8173C105.972 82.8173 105.937 82.8346 105.937 82.8173L104.323 77.4156C104.323 77.4156 104.323 77.3638 104.341 77.3466L108.077 73.5412C108.077 73.5412 108.112 73.5326 108.12 73.5498L109.233 78.382C109.233 78.382 109.233 78.4425 109.216 78.4597L105.972 82.8259V82.8173Z" fill="#92B6DA"/>
</g>
<g opacity="0.5">
<path d="M111.115 91.0502C111.115 91.0502 111.115 91.0847 111.097 91.0847L105.471 90.869C105.471 90.869 105.419 90.8517 105.411 90.8258L103.012 86.0541C103.012 86.0541 103.012 86.0195 103.038 86.0195L107.974 86.52C107.974 86.52 108.025 86.5373 108.043 86.5632L111.123 91.0416L111.115 91.0502Z" fill="#92B6DA"/>
</g>
<g opacity="0.5">
<path d="M119.381 99.6112C119.381 99.6112 119.355 99.6371 119.346 99.6198L115.627 95.3916C115.627 95.3916 115.602 95.3399 115.61 95.3226L117.414 90.3006C117.414 90.3006 117.439 90.2747 117.457 90.3006L120.486 94.2267C120.486 94.2267 120.511 94.2785 120.503 94.3044L119.372 99.6284L119.381 99.6112Z" fill="#92B6DA"/>
</g>
<g opacity="0.5">
<path d="M116.007 78.0283C116.007 78.0283 115.972 78.0455 115.972 78.0283L114.359 72.6265C114.359 72.6265 114.359 72.5748 114.376 72.5575L118.112 68.7522C118.112 68.7522 118.147 68.7435 118.156 68.7608L119.269 73.593C119.269 73.593 119.269 73.6534 119.251 73.6706L116.007 78.0369V78.0283Z" fill="#92B6DA"/>
</g>
<g opacity="0.5">
<path d="M121.15 86.2689C121.15 86.2689 121.15 86.3035 121.133 86.3035L115.507 86.0877C115.507 86.0877 115.455 86.0705 115.446 86.0446L113.047 81.2728C113.047 81.2728 113.047 81.2383 113.073 81.2383L118.009 81.7388C118.009 81.7388 118.061 81.756 118.078 81.7819L121.159 86.2603L121.15 86.2689Z" fill="#92B6DA"/>
</g>
<g opacity="0.5">
<path d="M129.408 94.8221C129.408 94.8221 129.382 94.848 129.373 94.8307L125.654 90.6026C125.654 90.6026 125.628 90.5508 125.637 90.5335L127.44 85.5115C127.44 85.5115 127.466 85.4856 127.484 85.5115L130.512 89.4377C130.512 89.4377 130.538 89.4894 130.53 89.5153L129.399 94.8394L129.408 94.8221Z" fill="#92B6DA"/>
</g>
<g opacity="0.5">
<path d="M85.4521 93.2001C85.4521 93.2001 85.4176 93.2174 85.4176 93.2001L83.804 87.7984C83.804 87.7984 83.804 87.7466 83.8212 87.7294L87.5575 83.924C87.5575 83.924 87.5921 83.9154 87.6007 83.9327L88.7138 88.7649C88.7138 88.7649 88.7138 88.8253 88.6966 88.8425L85.4521 93.2087V93.2001Z" fill="#92B6DA"/>
</g>
<g opacity="0.5">
<path d="M98.8615 109.994C98.8615 109.994 98.8356 110.02 98.827 110.003L95.1079 105.774C95.1079 105.774 95.082 105.723 95.0906 105.705L96.8941 100.683C96.8941 100.683 96.92 100.657 96.9372 100.683L99.966 104.61C99.966 104.61 99.9919 104.661 99.9832 104.687L98.8528 110.011L98.8615 109.994Z" fill="#92B6DA"/>
</g>
<g opacity="0.5">
<path d="M95.4789 88.4189C95.4789 88.4189 95.4444 88.4361 95.4444 88.4189L93.8308 83.0172C93.8308 83.0172 93.8308 82.9654 93.8481 82.9481L97.5844 79.1428C97.5844 79.1428 97.6189 79.1342 97.6275 79.1514L98.7407 83.9836C98.7407 83.9836 98.7407 84.044 98.7234 84.0613L95.4789 88.4275V88.4189Z" fill="#92B6DA"/>
</g>
<g opacity="0.5">
<path d="M100.63 96.6518C100.63 96.6518 100.63 96.6863 100.613 96.6863L94.9871 96.4705C94.9871 96.4705 94.9353 96.4533 94.9267 96.4274L92.5278 91.6556C92.5278 91.6556 92.5278 91.6211 92.5537 91.6211L97.4895 92.1216C97.4895 92.1216 97.5412 92.1388 97.5585 92.1647L100.639 96.6431L100.63 96.6518Z" fill="#92B6DA"/>
</g>
<g opacity="0.5">
<path d="M108.888 105.205C108.888 105.205 108.862 105.231 108.854 105.214L105.135 100.985C105.135 100.985 105.109 100.934 105.117 100.916L106.921 95.8943C106.921 95.8943 106.947 95.8684 106.964 95.8943L109.993 99.8205C109.993 99.8205 110.019 99.8723 110.01 99.8981L108.88 105.222L108.888 105.205Z" fill="#92B6DA"/>
</g>
<g opacity="0.5">
<path d="M91.2161 67.4838C91.2161 67.4838 91.2161 67.5183 91.1988 67.5183L85.5728 67.3026C85.5728 67.3026 85.521 67.2853 85.5124 67.2594L83.1135 62.4876C83.1135 62.4876 83.1135 62.4531 83.1394 62.4531L88.0752 62.9536C88.0752 62.9536 88.1269 62.9709 88.1442 62.9967L91.2247 67.4752L91.2161 67.4838Z" fill="#92B6DA"/>
</g>
<g opacity="0.5">
<path d="M99.4826 76.037C99.4826 76.037 99.4567 76.0628 99.448 76.0456L95.729 71.8174C95.729 71.8174 95.7031 71.7656 95.7117 71.7484L97.5152 66.7263C97.5152 66.7263 97.5411 66.7005 97.5583 66.7263L100.587 70.6525C100.587 70.6525 100.613 70.7043 100.604 70.7302L99.4739 76.0542L99.4826 76.037Z" fill="#92B6DA"/>
</g>
<g opacity="0.5">
<path d="M101.251 62.7064C101.251 62.7064 101.251 62.741 101.234 62.741L95.6082 62.5252C95.6082 62.5252 95.5564 62.508 95.5478 62.4821L93.1489 57.7103C93.1489 57.7103 93.1489 57.6758 93.1748 57.6758L98.1106 58.1763C98.1106 58.1763 98.1623 58.1935 98.1796 58.2194L101.26 62.6978L101.251 62.7064Z" fill="#92B6DA"/>
</g>
<g opacity="0.5">
<path d="M109.51 71.2557C109.51 71.2557 109.484 71.2816 109.475 71.2643L105.756 67.0362C105.756 67.0362 105.73 66.9844 105.739 66.9671L107.542 61.9451C107.542 61.9451 107.568 61.9192 107.585 61.9451L110.614 65.8713C110.614 65.8713 110.64 65.923 110.631 65.9489L109.501 71.273L109.51 71.2557Z" fill="#92B6DA"/>
</g>
<g opacity="0.5">
<path d="M99.2067 144.049C99.2067 144.049 99.1808 144.075 99.1722 144.057L95.4531 139.829C95.4531 139.829 95.4272 139.777 95.4358 139.76L97.2393 134.738C97.2393 134.738 97.2652 134.712 97.2824 134.738L100.311 138.664C100.311 138.664 100.337 138.716 100.328 138.742L99.1981 144.066L99.2067 144.049Z" fill="#92B6DA"/>
</g>
<g opacity="0.5">
<path d="M95.8327 122.477C95.8327 122.477 95.7982 122.495 95.7982 122.477L94.1846 117.076C94.1846 117.076 94.1846 117.024 94.2018 117.007L97.9382 113.201C97.9382 113.201 97.9727 113.193 97.9813 113.21L99.0944 118.042C99.0944 118.042 99.0944 118.103 99.0772 118.12L95.8327 122.486V122.477Z" fill="#92B6DA"/>
</g>
<g opacity="0.5">
<path d="M100.976 130.71C100.976 130.71 100.976 130.745 100.958 130.745L95.3323 130.529C95.3323 130.529 95.2805 130.512 95.2719 130.486L92.873 125.714C92.873 125.714 92.873 125.68 92.8989 125.68L97.8347 126.18C97.8347 126.18 97.8865 126.197 97.9037 126.223L100.984 130.702L100.976 130.71Z" fill="#92B6DA"/>
</g>
<g opacity="0.5">
<path d="M109.242 139.26C109.242 139.26 109.216 139.286 109.208 139.268L105.489 135.04C105.489 135.04 105.463 134.988 105.471 134.971L107.275 129.949C107.275 129.949 107.301 129.923 107.318 129.949L110.347 133.875C110.347 133.875 110.372 133.927 110.364 133.953L109.233 139.277L109.242 139.26Z" fill="#92B6DA"/>
</g>
<g opacity="0.5">
<path d="M106.162 117.231C106.162 117.231 106.127 117.249 106.127 117.231L104.513 111.83C104.513 111.83 104.513 111.778 104.531 111.761L108.267 107.955C108.267 107.955 108.302 107.947 108.31 107.964L109.423 112.796C109.423 112.796 109.423 112.857 109.406 112.874L106.162 117.24V117.231Z" fill="#92B6DA"/>
</g>
<g opacity="0.5">
<path d="M111.304 125.464C111.304 125.464 111.304 125.499 111.287 125.499L105.661 125.283C105.661 125.283 105.609 125.266 105.6 125.24L103.202 120.468C103.202 120.468 103.202 120.434 103.228 120.434L108.163 120.934C108.163 120.934 108.215 120.951 108.232 120.977L111.313 125.456L111.304 125.464Z" fill="#92B6DA"/>
</g>
<g opacity="0.5">
<path d="M119.571 134.017C119.571 134.017 119.545 134.043 119.536 134.026L115.817 129.798C115.817 129.798 115.791 129.746 115.8 129.729L117.603 124.707C117.603 124.707 117.629 124.681 117.646 124.707L120.675 128.633C120.675 128.633 120.701 128.685 120.692 128.711L119.562 134.035L119.571 134.017Z" fill="#92B6DA"/>
</g>
<g opacity="0.5">
<path d="M116.188 112.442C116.188 112.442 116.154 112.46 116.154 112.442L114.54 107.041C114.54 107.041 114.54 106.989 114.557 106.972L118.294 103.166C118.294 103.166 118.328 103.158 118.337 103.175L119.45 108.007C119.45 108.007 119.45 108.067 119.433 108.085L116.188 112.451V112.442Z" fill="#92B6DA"/>
</g>
<g opacity="0.5">
<path d="M121.34 120.675C121.34 120.675 121.34 120.71 121.322 120.71L115.696 120.494C115.696 120.494 115.645 120.477 115.636 120.451L113.237 115.679C113.237 115.679 113.237 115.645 113.263 115.645L118.199 116.145C118.199 116.145 118.25 116.162 118.268 116.188L121.348 120.667L121.34 120.675Z" fill="#92B6DA"/>
</g>
<g opacity="0.5">
<path d="M129.598 129.236C129.598 129.236 129.572 129.262 129.563 129.245L125.844 125.017C125.844 125.017 125.818 124.965 125.827 124.948L127.63 119.926C127.63 119.926 127.656 119.9 127.674 119.926L130.702 123.852C130.702 123.852 130.728 123.904 130.72 123.929L129.589 129.253L129.598 129.236Z" fill="#92B6DA"/>
</g>
<g opacity="0.5">
<path d="M126.414 107.067C126.414 107.067 126.379 107.085 126.379 107.067L124.765 101.666C124.765 101.666 124.765 101.614 124.783 101.597L128.519 97.7912C128.519 97.7912 128.553 97.7826 128.562 97.7999L129.675 102.632C129.675 102.632 129.675 102.692 129.658 102.71L126.414 107.076V107.067Z" fill="#92B6DA"/>
</g>
<g opacity="0.5">
<path d="M131.556 115.296C131.556 115.296 131.556 115.331 131.539 115.331L125.913 115.115C125.913 115.115 125.861 115.098 125.853 115.072L123.454 110.3C123.454 110.3 123.454 110.266 123.48 110.266L128.415 110.766C128.415 110.766 128.467 110.783 128.485 110.809L131.565 115.288L131.556 115.296Z" fill="#92B6DA"/>
</g>
<g opacity="0.5">
<path d="M139.823 123.849C139.823 123.849 139.797 123.875 139.788 123.858L136.069 119.63C136.069 119.63 136.043 119.578 136.052 119.561L137.855 114.539C137.855 114.539 137.881 114.513 137.899 114.539L140.927 118.465C140.927 118.465 140.953 118.517 140.945 118.543L139.814 123.867L139.823 123.849Z" fill="#92B6DA"/>
</g>
<g opacity="0.5">
<path d="M136.44 102.278C136.44 102.278 136.406 102.296 136.406 102.278L134.792 96.8765C134.792 96.8765 134.792 96.8248 134.81 96.8075L138.546 93.0022C138.546 93.0022 138.58 92.9935 138.589 93.0108L139.702 97.843C139.702 97.843 139.702 97.9034 139.685 97.9206L136.44 102.287V102.278Z" fill="#92B6DA"/>
</g>
<g opacity="0.5">
<path d="M141.592 110.507C141.592 110.507 141.592 110.542 141.575 110.542L135.948 110.326C135.948 110.326 135.897 110.309 135.888 110.283L133.489 105.511C133.489 105.511 133.489 105.477 133.515 105.477L138.451 105.977C138.451 105.977 138.503 105.994 138.52 106.02L141.6 110.499L141.592 110.507Z" fill="#92B6DA"/>
</g>
<g opacity="0.5">
<path d="M149.85 119.072C149.85 119.072 149.824 119.098 149.815 119.081L146.096 114.853C146.096 114.853 146.07 114.801 146.079 114.784L147.882 109.762C147.882 109.762 147.908 109.736 147.925 109.762L150.954 113.688C150.954 113.688 150.98 113.739 150.971 113.765L149.841 119.089L149.85 119.072Z" fill="#92B6DA"/>
</g>
</g>
<mask id="mask0_180_22789" style="mask-type:alpha" maskUnits="userSpaceOnUse" x="0" y="411" width="340" height="167">
<path d="M338.616 577.409H220.305L197.11 555.897L196.357 555.199L196.272 556.223L194.503 577.409H136.438L128.716 570.245L127.965 569.548L127.877 570.568L127.292 577.409H110.762L106.511 569.159L106.248 568.647L105.778 568.979L93.8291 577.409H78.2988L63.4375 548.666L62.6406 547.123L62.4951 548.854L60.1006 577.409H45.2559L17.0996 564.032L16.4473 563.723L16.3867 564.442L15.3076 577.409H0.5V418.496C16.093 422.477 35.5391 425.839 57.7715 428.378V428.379C60.4783 428.711 63.2375 429.006 66.0479 429.286L79.8594 440.464L80.6748 441.123V430.634C84.0802 430.93 87.5507 431.196 91.0596 431.438L124.555 458.544L125.369 459.203V433.169C136.182 433.538 147.321 433.712 158.661 433.712H161.492L169.086 458.294L170.063 458.146V433.644C174.446 433.606 178.798 433.53 183.088 433.41L183.087 433.409C186.069 433.347 189.007 433.268 191.934 433.17L191.933 433.169C197.696 432.986 203.385 432.751 208.979 432.457L213.844 440.329L214.143 440.812L214.584 440.454L225.682 431.473C230.936 431.102 236.066 430.689 241.113 430.242L258.528 458.418L259.453 459.915V428.398C263.104 427.983 266.685 427.537 270.205 427.082L303.46 440.538L304.147 440.816V421.433C309.791 420.252 315.042 419.013 319.89 417.7L325.675 422.383L325.979 422.005L326.293 422.392L326.305 422.383L326.784 421.994L326.783 421.993L338.616 412.418V577.409Z" fill="#C59B6D" stroke="#C59B6D"/>
</mask>
<g mask="url(#mask0_180_22789)">
<path d="M83.3901 78.1905L83.4505 85.3094C83.5109 92.6785 88.2395 98.6065 94.0037 98.5547L99.4571 98.503C104.203 98.4598 108.371 102.507 109.639 108.349C113.255 125.011 119.563 161.908 118.648 213.285C117.44 281.229 91.3201 337.291 87.7995 343.426C87.6096 343.763 87.4371 344.091 87.2731 344.445L11.537 461.824C10.7691 463.049 7.66266 471.35 7.26573 472.834C6.54953 475.544 6.5409 478.512 7.26573 481.273C15.1785 511.475 64.1303 674.932 120.779 676.684C201.546 679.186 237.529 679.169 244.268 675.105C245.062 674.63 245.778 674.043 246.451 673.327C255.977 663.231 320.979 569.314 333.499 473.921C333.888 470.944 333.025 467.933 331.679 465.448C309.407 424.297 263.605 374.318 245.864 335.824C227.528 296.054 216.077 235.099 215.887 213.319C215.74 196.346 215.948 135.202 216.802 109.039C217.026 102.213 221.254 96.734 226.596 96.3457C232.783 95.897 237.994 89.0457 238.167 81.1243L238.227 78.389C238.391 70.8559 233.637 64.6172 227.743 64.6172L93.7879 64.738C87.9979 64.738 83.3383 70.7696 83.4073 78.1732L83.3901 78.1905Z" fill="#C59B6D" stroke="#C59B6D" stroke-width="9" stroke-miterlimit="10"/>
</g>
<path d="M178.842 444.715C183.652 456.543 182.965 471.293 182.332 485.31C182.195 488.26 179.245 491.164 181.398 494.929C190.532 480.152 206.848 463.533 224.557 457.945C217.531 475.965 203.248 490.431 187.719 500.307C191.301 502.149 194.022 500.197 197.119 499.812C212.831 497.87 228.57 498.832 244.31 505.786C225.748 514.196 205.85 514.022 185.667 509.67C195.039 516.321 205.438 523.751 212.199 532.858C216.963 539.28 221.946 545.345 224.338 553.801C205.813 546.774 191.897 533.142 181.26 516.862C179.492 520.398 182.058 523.385 182.241 526.491C183.12 541.964 183.817 559.014 176.13 573.351C171.403 564.263 170.377 554.827 169.525 545.326C168.572 534.791 170.276 525.675 172.465 514.965C161.829 530.861 146.914 547.507 127.95 553.453C135.801 534.186 149.901 520.398 166.914 509.743C155.251 511.786 145.137 513.573 134.125 512.19C125.302 511.081 116.333 510.421 108.271 505.676C126.631 497.449 144.56 497.998 164.797 500.875C148.893 489.515 134.995 476.9 127.904 457.716C146.135 464.367 161.408 479.547 172.044 496.203L169.58 479.025C167.958 467.702 171 450.102 175.26 439.228C177.825 438.715 178.521 442.425 178.851 444.715H178.842Z" fill="#603813"/>
<path d="M195.926 447.88C197.242 460.58 192.464 474.551 187.943 487.834C186.987 490.629 183.343 492.594 184.359 496.81C197.256 485.171 217.564 473.769 236.129 473.348C224.35 488.69 206.596 498.592 188.928 503.739C191.853 506.508 195.011 505.394 198.092 505.889C213.721 508.411 228.566 513.73 241.737 524.801C221.566 527.694 202.508 521.971 184.343 512.157C191.485 521.161 199.395 531.198 203.345 541.831C206.126 549.328 209.218 556.543 209.153 565.33C193.327 553.41 183.771 536.435 178.103 517.832C175.418 520.734 177.047 524.318 176.356 527.352C172.88 542.455 168.788 559.021 157.404 570.642C155.402 560.596 157.052 551.248 158.886 541.888C160.913 531.505 165.095 523.228 170.188 513.555C155.536 525.848 136.566 537.668 116.696 538.082C129.615 521.774 147.004 512.471 166.315 506.991C154.546 505.696 144.335 504.587 134.147 500.184C125.985 496.656 117.557 493.519 111.141 486.711C131.067 483.937 148.129 489.471 166.759 497.884C154.659 482.535 144.837 466.541 143.384 446.14C159.033 457.617 169.459 476.458 175.022 495.421L177.452 478.239C179.057 466.913 186.892 450.863 194.019 441.61C196.625 441.834 196.258 445.591 195.935 447.883L195.926 447.88Z" fill="#603813"/>
<rect x="94.2923" y="577.789" width="15.9762" height="0.101597" fill="#215523" stroke="#BE272C" stroke-width="0.101597"/>
<rect x="94.5249" y="577.678" width="15.6811" height="0.136765" fill="#215523" stroke="#BE272C" stroke-width="0.136765"/>
<line y1="-0.5" x2="0.357321" y2="-0.5" transform="matrix(0.898794 -0.438371 0.465074 0.885272 110.26 578.289)" stroke="#BE272C"/>
<line y1="-0.5" x2="0.349388" y2="-0.5" transform="matrix(-0.572058 -0.820213 0.8416 -0.540102 94.6526 577.871)" stroke="#BE272C"/>
</svg>
