<?xml version="1.0" encoding="UTF-8"?><svg id="a" xmlns="http://www.w3.org/2000/svg" xmlns:xlink="http://www.w3.org/1999/xlink" viewBox="0 0 321 685"><defs><mask id="b" x=".1655" y="52.7422" width="320.8345" height="633.7498" maskUnits="userSpaceOnUse"><g id="c"><path d="M320.5,398.473h-111.868l-21.931-24.915-.792-.9-.082,1.196-1.688,24.619h-54.858l-7.295-8.288-.791-.899-.083,1.194-.558,7.993h-15.543l-4.034-9.58-.268-.634-.52.45-11.2959,9.764h-14.6123l-14.0625-33.319-.96.16-2.2646,33.159h-13.9864l-26.6191-15.491-.6953-.405-.0547.803-1.0274,15.093H.6655v-184.309c14.7427,4.607,33.1206,8.498,54.1397,11.438,2.5589.382,5.1515.725,7.7998,1.048l13.0605,12.943.8516.844v-12.216c3.1968.34,6.4542.646,9.7529.925l31.682,31.4.851.845v-30.235c10.224.427,20.747.627,31.467.627h2.642l7.192,28.52.984-.122v-28.477c4.142-.043,8.25-.132,12.302-.27l-.001-.001c2.816-.072,5.595-.165,8.362-.278,5.435-.211,10.8-.483,16.074-.823l4.603,9.12.31.614.488-.484,10.491-10.396c4.945-.428,9.777-.904,14.519-1.418l16.477,32.648.947-.226v-34.567c3.444-.48,6.823-.994,10.136-1.519l31.428,15.582.722.357v-22.492c5.32-1.363,10.268-2.793,14.843-4.308l5.448,5.396.327-.331.338.366.012-.01.413-.353-.03-.029,11.203-11.11v191.301Z" style="fill:#c59b6d; stroke:#c59b6d;"/></g></mask></defs><path d="M104.482,62.8922c-8.9358,2.98-10.1652,15.16-1.989,19.86,9.155,5.26,18.26,11.37,18.26,18.7498v62.93c0,3.68-2.609,6.83-6.217,7.53-20.8089,3.99-87.3546,21.15-99.3384,79.06-3.808,18.43-4.9874,38.1-4.6576,57.02.7796,45.31,10.4946,90.02,27.9856,131.83,16.6814,39.86,41.7784,106.88,45.6264,157.4.7796,10.22-3.9179,20.06-12.2337,26.05-6.7465,4.85-12.6334,10.07-12.6334,17.31,0,12.26,22.3384,39.36,104.1661,39.36,31.414,0,54.292-5.16,70.554-11.51,19.55-7.64,21.918-34.37,3.978-45.28-.25-.15-.5-.3-.76-.46-2.469-1.5-3.888-4.25-3.688-7.13,2.669-38.78,43.598-156.12,60.369-212.1,5.997-20.02,29.055-100.27,8.306-163.16-17.162-51.99-74.902-65.06-94.412-68.02-3.738-.57-6.496-3.79-6.496-7.57v-61.73c0-1.09.23-2.16.679-3.1498,2.359-5.2,28.456-11.13,28.456-22.14,0-12.01-13.174-22.5-71.134-22.5-24.987,0-42.798,3.67-54.811,7.67l-.01-.02Z" style="fill:#dcd6cb;"/><path d="M104.482,62.8922c-8.9358,2.98-10.1652,15.16-1.989,19.86,9.155,5.26,18.26,11.37,18.26,18.7498v62.93c0,3.68-2.609,6.83-6.217,7.53-20.8089,3.99-87.3546,21.15-99.3384,79.06-3.808,18.43-4.9874,38.1-4.6576,57.02.7796,45.31,10.4946,90.02,27.9856,131.83,16.6814,39.86,41.7784,106.88,45.6264,157.4.7796,10.22-3.9179,20.06-12.2337,26.05-6.7465,4.85-12.6334,10.07-12.6334,17.31,0,12.26,22.3384,39.36,104.1661,39.36,31.414,0,54.292-5.16,70.554-11.51,19.55-7.64,21.918-34.37,3.978-45.28-.25-.15-.5-.3-.76-.46-2.469-1.5-3.888-4.25-3.688-7.13,2.669-38.78,43.598-156.12,60.369-212.1,5.997-20.02,29.055-100.27,8.306-163.16-17.162-51.99-74.902-65.06-94.412-68.02-3.738-.57-6.496-3.79-6.496-7.57v-61.73c0-1.09.23-2.16.679-3.1498,2.359-5.2,28.456-11.13,28.456-22.14,0-12.01-13.174-22.5-71.134-22.5-24.987,0-42.798,3.67-54.811,7.67l-.01-.02Z" style="fill:none; stroke:#dcd6cb; stroke-miterlimit:10; stroke-width:9px;"/><g style="mask:url(#b);"><path d="M159.634,57.7422c28.966,0,46.671,2.6238,57.119,6.7119,5.217,2.0417,8.59,4.4361,10.659,7.0186,2.061,2.5733,2.854,5.3666,2.854,8.2695,0,2.5408-1.504,4.8507-3.944,6.998-2.435,2.1428-5.725,4.055-9.128,5.8057-1.698.8738-3.415,1.7036-5.06,2.499-1.643.7941-3.216,1.5559-4.614,2.2901-1.396.7331-2.634,1.447-3.602,2.1494-.956.6926-1.711,1.4186-2.062,2.1916-.479,1.055-.724,2.196-.724,3.356v61.73c0,4.026,2.938,7.457,6.92,8.064h.001c9.727,1.476,28.977,5.472,47.926,15.571,18.945,10.097,37.557,26.276,46.085,52.112,10.341,31.342,9.773,67.041,5.857,97.435-3.916,30.386-11.171,55.423-14.166,65.424-8.389,28-22.801,71.288-35.472,112.497-6.332,20.593-12.225,40.654-16.702,57.993-4.475,17.33-7.544,31.974-8.215,41.7191-.206,2.97,1.206,5.812,3.685,7.439l.243.154.761.461c17.583,10.695,15.263,36.896-3.902,44.386-16.198,6.325-39.014,11.475-70.372,11.475-40.865,0-66.8189-6.768-82.5361-15.025-15.7439-8.271-21.1299-17.978-21.1299-23.835,0-3.472,1.4076-6.478,3.6728-9.234,2.2716-2.763,5.3852-5.249,8.752-7.669l.001-.001c8.4533-6.09,13.2325-16.096,12.4394-26.494-3.8548-50.609-28.9829-117.697-45.6631-157.554-17.4675-41.754-27.1688-86.403-27.9472-131.647-.3294-18.895.849-38.527,4.6474-56.91,5.9532-28.767,25.458-47.432,46.1211-59.418,20.6664-11.987,42.4436-17.262,52.8226-19.252h.001c3.842-.745,6.621-4.1,6.621-8.02v-62.931c0-3.9039-2.406-7.4017-5.861-10.5401-3.464-3.1468-8.071-6.012-12.651-8.6435h.001c-7.6751-4.4122-6.6646-15.7347,1.489-18.8077l.007.0127.411-.1367c11.959-3.9818,29.717-7.6445,54.655-7.6445Z" style="fill:#c59b6d; stroke:#c59b6d;"/><path d="M104.811,64.8922c-8.935,2.98-10.1644,15.16-1.989,19.86,9.156,5.26,18.261,11.37,18.261,18.7498v62.93c0,3.68-2.609,6.83-6.217,7.53-20.8091,3.99-87.3548,21.15-99.3386,79.06-3.808,18.43-4.9874,38.1-4.6576,57.02.7796,45.31,10.4946,90.02,27.9856,131.83,16.6814,39.86,41.7784,106.88,45.6265,157.4.7796,10.22-3.918,20.06-12.2337,26.05-6.7465,4.85-12.6335,10.07-12.6335,17.31,0,12.26,22.3385,39.36,104.1663,39.36,31.414,0,54.292-5.16,70.554-11.51,19.55-7.64,21.918-34.37,3.978-45.28-.25-.15-.5-.3-.76-.46-2.469-1.5-3.888-4.25-3.688-7.13,2.668-38.78,43.597-156.12,60.369-212.1,5.997-20.02,29.055-100.27,8.305-163.16-17.161-51.99-74.901-65.06-94.411-68.02-3.738-.57-6.497-3.79-6.497-7.57v-61.73c0-1.09.23-2.16.68-3.15,2.359-5.1998,28.455-11.1298,28.455-22.1398,0-12.01-13.173-22.5-71.133-22.5-24.987,0-42.798,3.67-54.812,7.67l-.01-.02Z" style="fill:none; stroke:#c59b6d; stroke-miterlimit:10; stroke-width:9px;"/></g><path d="M75.1467,612.434c39.4093,13.65,82.1173,21.14,123.4563,13.31,13.683-2.58,26.936-7.19,39.66-13.31-17.551,12.03-38.72,18.77-59.919,20.72-35.012,3.1-72.023-4.61-103.1973-20.72Z" style="fill:#e2e3e2;"/><path d="M127.849,53.6409v-15.13s-14.672-.74-14.672-18.24,23.378-15.72,23.378-15.72h57.72c5.627,0,11.174,2.45,14.383,7.08,1.629,2.36,2.818,5.39,2.818,9.24,0,12.31-11.264,17.5-11.264,17.5l-.74,15.72-71.603-.44-.02-.01Z" style="fill:#cdb43a; stroke:#cdb43a; stroke-miterlimit:10; stroke-width:9px;"/><path d="M256.533,202.941c22.009,8.43,34.063,35.72,38.3,57.45,4.608,23.27,3.788,47.47-.459,70.7.28-29.05.21-58.58-8.786-86.44-5.397-16.09-14.063-32.76-29.055-41.71Z" style="fill:#e7e2d5;"/><path d="M65.5815,202.143c-6.3567,3.56-11.4041,9.02-15.7518,14.77-5.927,8.14-10.1848,17.39-13.3132,26.94-8.9953,27.86-9.0653,57.39-8.7854,86.44-4.4877-24.68-5.2073-50.51.4997-75.08,4.7576-20.42,16.6114-45.14,37.3408-53.08l.0099.01Z" style="fill:#e7e2d5;"/><path d="M125.71,103.633c10.975,16.58,10.025,42.38,1.22,59.74.19-3.88.689-7.58.959-11.41,1.45-16.16,1.17-32.36-2.179-48.33Z" style="fill:#e7e2d5;"/><path d="M196.734,104.133c-3.349,15.97-3.628,32.18-2.179,48.33.27,3.82.769,7.52.959,11.41-8.805-17.35-9.755-43.15,1.22-59.74Z" style="fill:#e7e2d5;"/><path d="M32.7866,432.583s128.5934-10.6,247.6824-.58c-15.012,20.02-23.518,25.03-23.518,25.03l-224.1644-24.45Z" style="fill:#c2c4dc;"/><path d="M31.3594,432.744s63.7971-20.35,120.8376,0c57.041,20.35,128.344-1.16,128.344-1.16,0,0-54.042,127.35-54.042,172.12-55.542,21.52-129.0937,2.33-129.0937,2.33,0,0,3.7477-64.55-66.0459-173.28v-.01Z" style="fill:#8eb3d6;"/><g style="opacity:.5;"><g style="opacity:.5;"><path d="M63.5727,203.723s-.03-.03,0-.04l5.5871-3.37s.0599-.01.0899,0l5.3473,3.1s.02.04,0,.05l-5.0974,2.64s-.07.01-.09,0l-5.827-2.38h-.0099Z" style="fill:#92b6da;"/></g><g style="opacity:.5;"><path d="M55.8167,211.874s-.04.02-.04-.01l-1.3792-6.38s0-.06.0299-.08l4.6576-4.07s.04-.01.05.02l.8596,5.68s0,.07-.03.09l-4.1379,4.75h-.01Z" style="fill:#92b6da;"/></g><g style="opacity:.5;"><path d="M48.6003,223.615s-.04-.02-.02-.04l3.6781-5.39s.05-.04.08-.04l6.1568.58s.04.02.02.04l-3.5282,4.53s-.05.04-.08.04l-6.2967.27-.01.01Z" style="fill:#92b6da;"/></g><g style="opacity:.5;"><path d="M71.8285,213.602s-.03-.03,0-.04l5.5871-3.37s.06-.01.09,0l5.3472,3.1s.02.04,0,.05l-5.0973,2.64s-.07.01-.09,0l-5.827-2.38h-.01Z" style="fill:#92b6da;"/></g><g style="opacity:.5;"><path d="M64.0724,221.753s-.04.02-.04-.01l-1.3793-6.38s0-.06.03-.08l4.6576-4.07s.0399-.01.0499.02l.8596,5.68s0,.07-.03.09l-4.1379,4.75h-.0099Z" style="fill:#92b6da;"/></g><g style="opacity:.5;"><path d="M56.8559,233.493s-.04-.02-.02-.04l3.6781-5.39s.05-.04.08-.04l6.1568.58s.04.02.02.04l-3.5282,4.53s-.05.04-.0799.04l-6.2968.27-.01.01Z" style="fill:#92b6da;"/></g><g style="opacity:.5;"><path d="M62.4035,251.692s-.03-.03,0-.04l5.5871-3.37s.06-.01.0899,0l5.3473,3.1s.02.04,0,.05l-5.0974,2.64s-.07.01-.0899,0l-5.827-2.38h-.01Z" style="fill:#92b6da;"/></g><g style="opacity:.5;"><path d="M54.6478,259.831s-.04.02-.04-.01l-1.3793-6.38s0-.06.03-.08l4.6576-4.07s.04-.01.05.02l.8595,5.68s0,.07-.0299.09l-4.1379,4.75h-.01Z" style="fill:#92b6da;"/></g><g style="opacity:.5;"><path d="M47.4314,271.572s-.04-.02-.02-.04l3.6781-5.39s.0499-.04.0799-.04l6.1569.58s.0399.02.0199.04l-3.5281,4.53s-.05.04-.08.04l-6.2968.27-.0099.01Z" style="fill:#92b6da;"/></g><g style="opacity:.5;"><path d="M70.6596,261.571s-.03-.03,0-.04l5.5871-3.37s.06-.01.0899,0l5.3473,3.1s.02.04,0,.05l-5.0974,2.64s-.07.01-.0899,0l-5.827-2.38h-.01Z" style="fill:#92b6da;"/></g><g style="opacity:.5;"><path d="M62.9032,269.713s-.04.02-.04-.01l-1.3793-6.38s0-.06.03-.08l4.6576-4.07s.0399-.01.0499.02l.8596,5.68s0,.07-.03.09l-4.1379,4.75h-.0099Z" style="fill:#92b6da;"/></g><g style="opacity:.5;"><path d="M55.6867,281.45s-.04-.02-.02-.04l3.6781-5.39s.05-.04.08-.04l6.1568.58s.04.02.02.04l-3.5282,4.53s-.0499.04-.0799.04l-6.2968.27-.01.01Z" style="fill:#92b6da;"/></g><g style="opacity:.5;"><path d="M44.8424,231.641s-.03-.03,0-.04l5.5872-3.37s.0599-.01.0899,0l5.3472,3.1s.02.04,0,.05l-5.0973,2.64s-.07.01-.09,0l-5.827-2.38h-.01Z" style="fill:#92b6da;"/></g><g style="opacity:.5;"><path d="M37.0868,239.792s-.04.02-.04-.01l-1.3793-6.38s0-.06.03-.08l4.6576-4.07s.0399-.01.0499.02l.8596,5.68s0,.07-.03.09l-4.1379,4.75h-.0099Z" style="fill:#92b6da;"/></g><g style="opacity:.5;"><path d="M29.8703,251.533s-.04-.021-.02-.041l3.6781-5.389s.05-.041.08-.041l6.1568.581s.04.019.02.039l-3.5282,4.53s-.05.041-.0799.041l-6.2968.269-.01.011Z" style="fill:#92b6da;"/></g><g style="opacity:.5;"><path d="M53.1083,241.52s-.03-.03,0-.04l5.5871-3.37s.06-.01.09,0l5.3472,3.1s.02.04,0,.05l-5.0974,2.64s-.0699.01-.0899,0l-5.827-2.38h-.01Z" style="fill:#92b6da;"/></g><g style="opacity:.5;"><path d="M45.3524,249.671s-.04.02-.04-.01l-1.3793-6.38s0-.06.03-.08l4.6576-4.07s.04-.011.05.019l.8595,5.68s0,.071-.03.091l-4.1378,4.75h-.01Z" style="fill:#92b6da;"/></g><g style="opacity:.5;"><path d="M38.1362,261.411s-.04-.02-.02-.04l3.6781-5.39s.05-.04.08-.04l6.1568.58s.04.02.02.04l-3.5282,4.53s-.05.04-.08.04l-6.2967.27-.01.01Z" style="fill:#92b6da;"/></g><g style="opacity:.5;"><path d="M83.1124,222.563s-.0299-.03,0-.04l5.5872-3.37s.0599-.01.0899,0l5.3473,3.1s.02.04,0,.05l-5.0974,2.64s-.07.01-.09,0l-5.827-2.38h-.01Z" style="fill:#92b6da;"/></g><g style="opacity:.5;"><path d="M75.3568,230.702s-.04.02-.04-.01l-1.3793-6.38s0-.06.03-.08l4.6576-4.07s.04-.01.05.02l.8595,5.68s0,.07-.03.09l-4.1378,4.75h-.01Z" style="fill:#92b6da;"/></g><g style="opacity:.5;"><path d="M68.1403,242.454s-.0399-.02-.02-.04l3.6781-5.39s.05-.04.08-.04l6.1568.58s.04.02.02.04l-3.5282,4.53s-.0499.04-.0799.04l-6.2968.27-.01.01Z" style="fill:#92b6da;"/></g><g style="opacity:.5;"><path d="M91.3686,232.442s-.03-.03,0-.04l5.5871-3.37s.0599-.01.0899,0l5.3474,3.1s.02.04,0,.05l-5.0975,2.64s-.07.01-.09,0l-5.827-2.38h-.0099Z" style="fill:#92b6da;"/></g><g style="opacity:.5;"><path d="M83.6121,240.585s-.04.02-.04-.01l-1.3792-6.38s0-.06.03-.08l4.6575-4.07s.04-.01.05.02l.8596,5.68s0,.07-.03.09l-4.1379,4.75h-.01Z" style="fill:#92b6da;"/></g><g style="opacity:.5;"><path d="M76.396,252.322s-.04-.02-.02-.04l3.6781-5.39s.0499-.04.0799-.04l6.1568.58s.04.02.02.04l-3.5281,4.53s-.05.04-.08.04l-6.2968.27-.0099.01Z" style="fill:#92b6da;"/></g><g style="opacity:.5;"><path d="M29.1308,212.493s-.03-.03,0-.04l5.5871-3.37s.0599-.01.0899,0l5.3473,3.1s.02.04,0,.05l-5.0974,2.64s-.07.01-.09,0l-5.827-2.38h-.0099Z" style="fill:#92b6da;"/></g><g style="opacity:.5;"><path d="M21.3748,220.643s-.0399.02-.0399-.01l-1.3793-6.38s0-.06.0299-.08l4.6576-4.07s.04-.01.05.02l.8596,5.68s0,.07-.03.09l-4.1379,4.75h-.01Z" style="fill:#92b6da;"/></g><g style="opacity:.5;"><path d="M14.1584,232.384s-.04-.02-.02-.04l3.6781-5.39s.05-.04.08-.04l6.1568.58s.04.02.02.04l-3.5282,4.53s-.05.04-.08.04l-6.2967.27-.01.01Z" style="fill:#92b6da;"/></g><g style="opacity:.5;"><path d="M37.3866,222.371s-.03-.03,0-.04l5.5871-3.37s.06-.01.09,0l5.3472,3.1s.02.041,0,.051l-5.0973,2.639s-.07.01-.09,0l-5.827-2.38h-.01Z" style="fill:#92b6da;"/></g><g style="opacity:.5;"><path d="M29.6302,230.522s-.04.02-.04-.01l-1.3793-6.38s0-.06.03-.08l4.6576-4.07s.04-.01.05.02l.8596,5.68s0,.07-.03.09l-4.1379,4.75h-.01Z" style="fill:#92b6da;"/></g><g style="opacity:.5;"><path d="M22.414,242.263s-.04-.02-.02-.04l3.6781-5.39s.05-.04.08-.04l6.1568.58s.04.02.02.04l-3.5282,4.53s-.05.04-.0799.04l-6.2968.27-.01.01Z" style="fill:#92b6da;"/></g><g style="opacity:.5;"><path d="M33.0183,202.361s-.04-.02-.02-.04l3.6781-5.39s.05-.04.0799-.04l6.1569.58s.0399.02.02.04l-3.5282,4.53s-.05.04-.08.04l-6.2967.27-.01.01Z" style="fill:#92b6da;"/></g><g style="opacity:.5;"><path d="M56.2465,192.352s-.03-.03,0-.04l5.5871-3.37s.06-.01.09,0l5.3472,3.1s.02.04,0,.05l-5.0974,2.64s-.0699.01-.0899,0l-5.827-2.38h-.01Z" style="fill:#92b6da;"/></g><g style="opacity:.5;"><path d="M48.5006,200.503s-.04.02-.04-.01l-1.3793-6.38s0-.06.03-.08l4.6576-4.07s.04-.01.05.02l.8595,5.68s0,.07-.03.09l-4.1378,4.75h-.01Z" style="fill:#92b6da;"/></g><g style="opacity:.5;"><path d="M41.2841,212.243s-.0399-.02-.02-.04l3.6781-5.39s.05-.04.08-.04l6.1568.58s.04.02.02.04l-3.5282,4.53s-.0499.04-.0799.04l-6.2968.27-.01.01Z" style="fill:#92b6da;"/></g><g style="opacity:.5;"><path d="M6.7321,241.852s-.03-.03,0-.04l5.5871-3.37s.06-.01.0899,0l5.3473,3.1s.02.04,0,.05l-5.0974,2.64s-.0699.01-.0899,0l-5.827-2.38h-.01Z" style="fill:#92b6da;"/></g><g style="opacity:.5;"><path d="M14.9977,251.731s-.03-.03,0-.04l5.5871-3.37s.06-.01.09,0l5.3472,3.1s.02.04,0,.05l-5.0974,2.64s-.0699.01-.0899,0l-5.827-2.38h-.01Z" style="fill:#92b6da;"/></g><g style="opacity:.5;"><path d="M7.242,259.881s-.04.02-.04-.01l-1.3793-6.38s0-.06.03-.08l4.6576-4.07s.04-.01.05.02l.8596,5.68s0,.07-.03.09l-4.1379,4.75h-.01Z" style="fill:#92b6da;"/></g><g style="opacity:.5;"><path d="M.0256,271.622s-.04-.02-.02-.04l3.6781-5.39s.05-.04.08-.04l6.1568.58s.04.02.02.04l-3.5282,4.53s-.05.04-.08.04l-6.2967.27-.01.01Z" style="fill:#92b6da;"/></g><g style="opacity:.5;"><path d="M23.8529,261.821s-.03-.03,0-.04l5.5871-3.37s.06-.01.09,0l5.3472,3.1s.02.04,0,.05l-5.0973,2.64s-.07.01-.09,0l-5.827-2.38h-.01Z" style="fill:#92b6da;"/></g><g style="opacity:.5;"><path d="M16.097,269.96s-.04.02-.04-.01l-1.3793-6.38s0-.06.03-.08l4.6576-4.07s.04-.01.05.02l.8596,5.68s-.0001.07-.03.09l-4.1379,4.75h-.01Z" style="fill:#92b6da;"/></g><g style="opacity:.5;"><path d="M8.8806,281.7s-.04-.02-.02-.04l3.6781-5.39s.05-.04.0799-.04l6.1569.58s.0399.02.02.04l-3.5282,4.53s-.05.04-.08.04l-6.2967.27-.01.01Z" style="fill:#92b6da;"/></g><g style="opacity:.5;"><path d="M32.1088,271.7s-.03-.03,0-.04l5.5871-3.37s.06-.01.09,0l5.3472,3.1s.02.04,0,.05l-5.0974,2.64s-.0699.01-.0899,0l-5.827-2.38h-.01Z" style="fill:#92b6da;"/></g><g style="opacity:.5;"><path d="M24.3526,279.842s-.04.02-.04-.01l-1.3793-6.38s0-.06.03-.08l4.6576-4.07s.04-.01.05.02l.8596,5.68s0,.07-.03.09l-4.1379,4.75h-.01Z" style="fill:#92b6da;"/></g><g style="opacity:.5;"><path d="M17.1362,291.579s-.04-.02-.02-.04l3.6781-5.39s.05-.04.08-.04l6.1568.58s.04.02.02.04l-3.5282,4.53s-.05.04-.08.04l-6.2967.27-.01.01Z" style="fill:#92b6da;"/></g><g style="opacity:.5;"><path d="M41.0944,281.621s-.03-.03,0-.04l5.5871-3.37s.06-.01.09,0l5.3472,3.1s.02.041,0,.051l-5.0974,2.639s-.0699.01-.0899,0l-5.827-2.38h-.01Z" style="fill:#92b6da;"/></g><g style="opacity:.5;"><path d="M33.3387,289.76s-.04.02-.04-.01l-1.3793-6.38s0-.06.03-.08l4.6576-4.07s.04-.01.05.02l.8596,5.68s-.0001.07-.03.09l-4.1379,4.75h-.01Z" style="fill:#92b6da;"/></g><g style="opacity:.5;"><path d="M26.1223,301.513s-.04-.02-.02-.04l3.6781-5.39s.05-.04.0799-.04l6.1569.58s.0399.02.02.04l-3.5282,4.53s-.05.04-.08.04l-6.2967.27-.01.01Z" style="fill:#92b6da;"/></g><g style="opacity:.5;"><path d="M49.3505,291.5s-.03-.03,0-.04l5.5871-3.37s.06-.01.09,0l5.3472,3.1s.02.04,0,.05l-5.0974,2.64s-.0699.01-.0899,0l-5.827-2.38h-.01Z" style="fill:#92b6da;"/></g><g style="opacity:.5;"><path d="M41.5941,299.643s-.04.02-.04-.01l-1.3793-6.38s0-.06.03-.08l4.6576-4.07s.04-.01.05.02l.8595,5.68s0,.07-.03.09l-4.1378,4.75h-.01Z" style="fill:#92b6da;"/></g><g style="opacity:.5;"><path d="M132.347,128.481s-.03-.03,0-.04l5.587-3.37s.06-.01.09,0l5.347,3.1s.02.04,0,.05l-5.097,2.64s-.07.01-.09,0l-5.827-2.38h-.01Z" style="fill:#92b6da;"/></g><g style="opacity:.5;"><path d="M124.591,136.631s-.04.02-.04-.01l-1.379-6.38s0-.06.03-.08l4.657-4.07s.04-.01.05.02l.86,5.68s0,.07-.03.09l-4.138,4.75h-.01Z" style="fill:#92b6da;"/></g><g style="opacity:.5;"><path d="M117.375,148.372s-.04-.02-.02-.04l3.678-5.39s.05-.04.08-.04l6.157.58s.04.02.02.04l-3.529,4.53s-.05.04-.08.04l-6.296.27-.01.01Z" style="fill:#92b6da;"/></g><g style="opacity:.5;"><path d="M140.613,138.36s-.03-.03,0-.04l5.587-3.37s.06-.01.09,0l5.347,3.1s.02.04,0,.05l-5.097,2.64s-.07.01-.09,0l-5.827-2.38h-.01Z" style="fill:#92b6da;"/></g><g style="opacity:.5;"><path d="M132.857,146.51s-.04.02-.04-.01l-1.379-6.38s-.001-.06.029-.08l4.658-4.07s.04-.01.05.02l.86,5.68s0,.07-.03.09l-4.138,4.75h-.01Z" style="fill:#92b6da;"/></g><g style="opacity:.5;"><path d="M125.641,158.251s-.04-.02-.02-.04l3.678-5.39s.05-.04.08-.04l6.156.58s.04.02.02.04l-3.528,4.53s-.05.04-.08.04l-6.296.27-.01.01Z" style="fill:#92b6da;"/></g><g style="opacity:.5;"><path d="M131.188,176.45s-.03-.03,0-.04l5.587-3.37s.06-.01.09,0l5.347,3.1s.02.04,0,.05l-5.097,2.64s-.07.01-.09,0l-5.827-2.38h-.01Z" style="fill:#92b6da;"/></g><g style="opacity:.5;"><path d="M123.432,184.6s-.04.02-.04-.01l-1.379-6.38s0-.06.03-.08l4.658-4.07s.039-.01.049.02l.86,5.68s0,.07-.03.09l-4.138,4.75h-.01Z" style="fill:#92b6da;"/></g><g style="opacity:.5;"><path d="M116.216,196.341s-.04-.02-.02-.04l3.678-5.39s.05-.04.08-.04l6.157.58s.04.02.02.04l-3.528,4.53s-.05.04-.08.04l-6.297.27-.01.01Z" style="fill:#92b6da;"/></g><g style="opacity:.5;"><path d="M139.444,186.328s-.03-.029,0-.039l5.587-3.37s.06-.01.09,0l5.348,3.099s.02.041,0,.051l-5.098,2.639s-.07.01-.09,0l-5.827-2.38h-.01Z" style="fill:#92b6da;"/></g><g style="opacity:.5;"><path d="M131.688,194.471s-.04.02-.04-.01l-1.379-6.38s0-.06.03-.08l4.657-4.07s.04-.01.05.02l.86,5.68s0,.07-.03.09l-4.138,4.75h-.01Z" style="fill:#92b6da;"/></g><g style="opacity:.5;"><path d="M124.472,206.22s-.04-.02-.02-.04l3.678-5.39s.05-.04.08-.04l6.157.58s.04.02.02.04l-3.528,4.53s-.05.04-.08.04l-6.297.27-.01.01Z" style="fill:#92b6da;"/></g><g style="opacity:.5;"><path d="M113.627,156.403s-.03-.03,0-.04l5.587-3.37s.06-.01.09,0l5.347,3.1s.02.04,0,.05l-5.097,2.64s-.07.01-.09,0l-5.827-2.38h-.01Z" style="fill:#92b6da;"/></g><g style="opacity:.5;"><path d="M98.6545,176.294s-.04-.02-.02-.04l3.6785-5.39s.05-.04.08-.04l6.156.58s.04.02.02.04l-3.528,4.53s-.05.04-.08.04l-6.2965.27-.01.01Z" style="fill:#92b6da;"/></g><g style="opacity:.5;"><path d="M121.883,166.282s-.03-.03,0-.04l5.587-3.37s.06-.01.09,0l5.347,3.1s.02.04,0,.05l-5.097,2.64s-.07.01-.09,0l-5.827-2.38h-.01Z" style="fill:#92b6da;"/></g><g style="opacity:.5;"><path d="M114.126,174.432s-.04.02-.04-.01l-1.379-6.38s0-.06.03-.08l4.658-4.07s.04-.01.05.02l.859,5.68s0,.07-.03.09l-4.138,4.75h-.01Z" style="fill:#92b6da;"/></g><g style="opacity:.5;"><path d="M106.91,186.173s-.04-.02-.02-.04l3.678-5.39s.05-.04.08-.04l6.157.58s.04.02.02.04l-3.528,4.53s-.05.04-.08.04l-6.297.27-.01.01Z" style="fill:#92b6da;"/></g><g style="opacity:.5;"><path d="M144.132,155.471s-.04.02-.04-.01l-1.38-6.38s0-.06.03-.08l4.658-4.07s.04-.01.05.02l.86,5.68s0,.07-.03.09l-4.138,4.75h-.01Z" style="fill:#92b6da;"/></g><g style="opacity:.5;"><path d="M136.915,167.212s-.04-.02-.02-.04l3.678-5.39s.05-.04.08-.04l6.157.58s.04.02.02.04l-3.528,4.53s-.05.04-.08.04l-6.297.27-.01.01Z" style="fill:#92b6da;"/></g><g style="opacity:.5;"><path d="M152.397,165.35s-.04.02-.04-.01l-1.379-6.38s0-.06.03-.08l4.658-4.07s.04-.01.05.02l.859,5.68s0,.07-.03.09l-4.138,4.75h-.01Z" style="fill:#92b6da;"/></g><g style="opacity:.5;"><path d="M145.181,177.091s-.04-.02-.02-.04l3.678-5.39s.05-.04.08-.04l6.157.58s.04.02.02.04l-3.528,4.53s-.05.04-.08.04l-6.297.27-.01.01Z" style="fill:#92b6da;"/></g><g style="opacity:.5;"><path d="M116.775,107.231s-.03-.03,0-.04l5.587-3.37s.06-.01.09,0l5.348,3.1s.02.04,0,.05l-5.098,2.64s-.07.01-.09,0l-5.827-2.38h-.01Z" style="fill:#92b6da;"/></g><g style="opacity:.5;"><path d="M125.031,117.11s-.03-.03,0-.04l5.587-3.37s.06-.01.09,0l5.347,3.1s.02.04,0,.05l-5.097,2.64s-.07.01-.09,0l-5.827-2.38h-.01Z" style="fill:#92b6da;"/></g><g style="opacity:.5;"><path d="M117.275,125.26s-.04.02-.04-.01l-1.379-6.38s0-.06.03-.08l4.657-4.07s.04-.01.05.02l.86,5.68s0,.07-.03.09l-4.138,4.75h-.01Z" style="fill:#92b6da;"/></g><g style="opacity:.5;"><path d="M110.059,137.001s-.04-.02-.02-.04l3.678-5.39s.05-.04.08-.04l6.157.58s.04.02.02.04l-3.529,4.53s-.049.04-.079.04l-6.297.27-.01.01Z" style="fill:#92b6da;"/></g><g style="opacity:.5;"><path d="M60.5441,186.501s-.0399-.02-.0199-.04l3.6781-5.39s.0499-.04.0799-.04l6.1568.58s.04.02.02.04l-3.5281,4.53s-.05.04-.08.04l-6.2968.27-.01.01Z" style="fill:#92b6da;"/></g><g style="opacity:.5;"><path d="M83.7724,176.493s-.03-.03,0-.04l5.5871-3.37s.06-.01.0899,0l5.3473,3.1s.02.04,0,.05l-5.0974,2.64s-.0699.01-.0899,0l-5.827-2.38h-.01Z" style="fill:#92b6da;"/></g><g style="opacity:.5;"><path d="M76.0159,184.643s-.0399.02-.0399-.01l-1.3793-6.38s0-.06.03-.08l4.6576-4.07s.0399-.01.0499.02l.8596,5.68s0,.07-.03.09l-4.1379,4.75h-.01Z" style="fill:#92b6da;"/></g><g style="opacity:.5;"><path d="M68.7998,196.384s-.04-.02-.02-.04l3.6781-5.39s.0499-.04.0799-.04l6.1569.58s.0399.02.0199.04l-3.5281,4.53s-.05.04-.08.04l-6.2967.27-.01.01Z" style="fill:#92b6da;"/></g><g style="opacity:.5;"><path d="M92.6276,186.582s-.03-.03,0-.04l5.5871-3.37s.06-.01.09,0l5.3473,3.1s.02.04,0,.05l-5.0975,2.64s-.0699.01-.0899,0l-5.827-2.38h-.01Z" style="fill:#92b6da;"/></g><g style="opacity:.5;"><path d="M84.8817,194.721s-.04.02-.04-.01l-1.3793-6.38s0-.06.03-.08l4.6576-4.07s.04-.01.05.02l.8595,5.68s0,.07-.03.09l-4.1378,4.75h-.01Z" style="fill:#92b6da;"/></g><g style="opacity:.5;"><path d="M77.6652,206.474s-.0399-.02-.02-.04l3.6781-5.39s.05-.04.08-.04l6.1568.58s.04.02.02.04l-3.5282,4.53s-.0499.04-.0799.04l-6.2968.27-.01.01Z" style="fill:#92b6da;"/></g><g style="opacity:.5;"><path d="M100.893,196.461s-.03-.03,0-.04l5.588-3.37s.06-.01.09,0l5.347,3.1s.02.04,0,.05l-5.098,2.64s-.07.01-.09,0l-5.827-2.38h-.01Z" style="fill:#92b6da;"/></g><g style="opacity:.5;"><path d="M93.137,204.604s-.0399.02-.0399-.01l-1.3793-6.38s0-.06.03-.08l4.6575-4.07s.04-.01.05.02l.8596,5.68s0,.07-.03.09l-4.1379,4.75h-.01Z" style="fill:#92b6da;"/></g><g style="opacity:.5;"><path d="M85.9209,216.341s-.04-.02-.02-.04l3.6781-5.39s.0499-.04.0799-.04l6.1568.58s.04.02.02.04l-3.5281,4.53s-.05.04-.08.04l-6.2968.27-.0099.01Z" style="fill:#92b6da;"/></g><g style="opacity:.5;"><path d="M109.869,206.379s-.03-.03,0-.04l5.587-3.37s.06-.01.09,0l5.347,3.1s.02.04,0,.05l-5.097,2.64s-.07.01-.09,0l-5.827-2.38h-.01Z" style="fill:#92b6da;"/></g><g style="opacity:.5;"><path d="M102.113,214.53s-.04.02-.04-.01l-1.379-6.38s0-.06.03-.08l4.657-4.07s.04-.01.05.02l.86,5.68s0,.07-.03.09l-4.138,4.75h-.01Z" style="fill:#92b6da;"/></g><g style="opacity:.5;"><path d="M94.8967,226.271s-.04-.02-.02-.04l3.6781-5.39s.05-.04.08-.04l6.1572.58s.04.02.02.04l-3.529,4.53s-.05.04-.08.04l-6.2963.27-.01.01Z" style="fill:#92b6da;"/></g><g style="opacity:.5;"><path d="M118.135,216.258s-.03-.03,0-.04l5.587-3.37s.06-.01.09,0l5.347,3.1s.02.04,0,.05l-5.097,2.64s-.07.01-.09,0l-5.827-2.38h-.01Z" style="fill:#92b6da;"/></g><g style="opacity:.5;"><path d="M110.379,224.409s-.04.02-.04-.01l-1.38-6.38s0-.06.03-.08l4.658-4.07s.04-.01.05.02l.86,5.68s0,.07-.03.09l-4.138,4.75h-.01Z" style="fill:#92b6da;"/></g><g style="opacity:.5;"><path d="M103.162,236.15s-.04-.02-.02-.04l3.678-5.39s.05-.04.08-.04l6.157.58s.04.02.02.04l-3.528,4.53s-.05.04-.08.04l-6.297.27-.01.01Z" style="fill:#92b6da;"/></g></g><rect x="89.1997" y="398.871" width="15.4172" height=".2031" style="fill:#dcd6cb;"/><rect x="89.406" y="398.742" width="15.168" height=".2734" style="fill:#dcd6cb;"/><line x1="104.276" y1="398.907" x2="104.594" y2="398.772" style="fill:none; stroke:#dcd6cb;"/><line x1="89.1784" y1="399.282" x2="88.9866" y2="398.995" style="fill:none; stroke:#dcd6cb;"/><path d="M147.914,355.5717c.6878-9.2901-8.4937-16.1585-17.2116-12.8755l-16.2563,6.1218c-7.7652,2.9291-15.2813-.7474-18.4821-8.2037-2.8255-6.582.0873-16.5038,8.1138-18.5151l15.0775-3.7856c10.4996-2.6362,14.7055-15.2865,7.8746-23.6847l-10.0827-12.396c-3.265-4.0152-2.2506-10.5066-.4137-13.8544,2.8687-5.2056,7.4919-8.3013,13.3367-8.0848,5.0925.1938,9.8528,3.6409,12.4479,7.8813l6.486,10.5904c5.7063,9.3172,19.1963,9.4475,25.0814.2422l6.3309-9.9025c4.9833-7.7984,14.3736-10.5923,21.5846-5.4858,7.1509,5.0617,8.3834,15.0562,2.2959,22.0801l-8.0063,9.2392c-7.1472,8.2478-3.2092,21.1308,7.328,23.9729l14.4644,3.9014c6.9841,1.8816,9.9782,9.4434,9.226,15.823-.0688.5836-.1886,1.1625-.3557,1.7259-1.6896,5.6971-6.1686,9.1669-11.9661,10.1955-2.6245.4657-5.328.0656-7.7915-.9523-2.7829-1.1499-7.174-2.9643-11.8831-4.91-10.125-4.1836-21.1289,3.7044-20.415,14.6364l.6947,10.639c.56,8.5142-3.0077,15.5686-11.2165,17.4327-4.7929,1.0841-9.4865-.1958-12.8823-3.1754-3.3545-2.9433-4.9525-7.4101-4.623-11.8606.2753-3.7182.7593-10.2567,1.2434-16.7952Z" style="fill:#603813;"/></svg>