<svg width="321" height="685" viewBox="0 0 321 685" fill="none" xmlns="http://www.w3.org/2000/svg">
<path d="M104.682 62.8922C95.76 65.8722 94.5325 78.0522 102.696 82.7522C111.837 88.0122 120.929 94.1222 120.929 101.502V164.432C120.929 168.112 118.324 171.262 114.721 171.962C93.9437 175.952 27.4995 193.112 15.5339 251.022C11.7317 269.452 10.5541 289.122 10.8834 308.042C11.6618 353.352 21.362 398.062 38.8263 439.872C55.4823 479.732 80.5411 546.752 84.3833 597.272C85.1617 607.492 80.4713 617.332 72.1682 623.322C65.432 628.172 59.554 633.392 59.554 640.632C59.554 652.892 81.8584 679.992 163.562 679.992C194.927 679.992 217.771 674.832 234.008 668.482C253.528 660.842 255.893 634.112 237.979 623.202C237.73 623.052 237.48 622.902 237.221 622.742C234.756 621.242 233.339 618.492 233.539 615.612C236.203 576.832 277.07 459.492 293.815 403.512C299.803 383.492 322.826 303.242 302.108 240.352C284.973 188.362 227.321 175.292 207.841 172.332C204.109 171.762 201.354 168.542 201.354 164.762V103.032C201.354 101.942 201.584 100.872 202.033 99.8822C204.388 94.6822 230.445 88.7522 230.445 77.7422C230.445 65.7322 217.292 55.2422 159.42 55.2422C134.471 55.2422 116.687 58.9122 104.692 62.9122L104.682 62.8922Z" fill="#DCD6CB"/>
<path d="M104.682 62.8922C95.76 65.8722 94.5325 78.0522 102.696 82.7522C111.837 88.0122 120.929 94.1222 120.929 101.502V164.432C120.929 168.112 118.324 171.262 114.721 171.962C93.9437 175.952 27.4995 193.112 15.5339 251.022C11.7317 269.452 10.5541 289.122 10.8834 308.042C11.6618 353.352 21.362 398.062 38.8263 439.872C55.4823 479.732 80.5411 546.752 84.3833 597.272C85.1617 607.492 80.4713 617.332 72.1682 623.322C65.432 628.172 59.554 633.392 59.554 640.632C59.554 652.892 81.8584 679.992 163.562 679.992C194.927 679.992 217.771 674.832 234.008 668.482C253.528 660.842 255.893 634.112 237.979 623.202C237.73 623.052 237.48 622.902 237.221 622.742C234.756 621.242 233.339 618.492 233.539 615.612C236.203 576.832 277.07 459.492 293.815 403.512C299.803 383.492 322.826 303.242 302.108 240.352C284.973 188.362 227.321 175.292 207.841 172.332C204.109 171.762 201.354 168.542 201.354 164.762V103.032C201.354 101.942 201.584 100.872 202.033 99.8822C204.388 94.6822 230.445 88.7522 230.445 77.7422C230.445 65.7322 217.292 55.2422 159.42 55.2422C134.471 55.2422 116.687 58.9122 104.692 62.9122L104.682 62.8922Z" stroke="#DCD6CB" stroke-width="9" stroke-miterlimit="10"/>
<mask id="mask0_180_21680" style="mask-type:alpha" maskUnits="userSpaceOnUse" x="0" y="203" width="321" height="194">
<path d="M320.5 395.992H208.805L186.906 371.077L186.115 370.176L186.032 371.373L184.347 395.992H129.573L122.29 387.705L121.499 386.805L121.415 388L120.86 395.992H105.34L101.313 386.412L101.045 385.777L100.525 386.229L89.2473 395.992H74.6575L60.6165 362.674L59.6565 362.834L57.3958 395.992H43.4309L16.8538 380.502L16.1575 380.096L16.1028 380.9L15.0774 395.992H1.15454V211.684C15.8747 216.291 34.2244 220.183 55.2112 223.122V223.121C57.7657 223.504 60.3537 223.847 62.9973 224.17L76.0383 237.111L76.8909 237.957V225.74C80.082 226.08 83.3335 226.386 86.6262 226.664L118.26 258.065L119.113 258.911V228.676C129.32 229.103 139.827 229.303 150.531 229.303H153.166L160.349 257.822L161.333 257.7V229.224C165.468 229.18 169.57 229.092 173.615 228.953L173.615 228.952C176.426 228.88 179.201 228.789 181.964 228.676L181.963 228.675C187.389 228.463 192.746 228.191 198.012 227.852L202.608 236.972L202.918 237.587L203.406 237.102L213.881 226.705C218.818 226.277 223.643 225.801 228.377 225.287L244.829 257.936L245.776 257.71V223.143C249.214 222.663 252.587 222.149 255.895 221.624L287.275 237.204L287.997 237.563V215.069C293.309 213.707 298.249 212.278 302.817 210.763L308.255 216.158L308.583 215.827L308.92 216.193L308.933 216.184L309.345 215.83L309.316 215.801L320.5 204.693V395.992Z" fill="#C59B6D" stroke="#C59B6D"/>
</mask>
<g mask="url(#mask0_180_21680)">
<path d="M159.879 55.2617C188.802 55.2617 206.48 57.8856 216.911 61.9736C222.121 64.0153 225.489 66.4088 227.555 68.9912C229.613 71.5645 230.404 74.3587 230.404 77.2617C230.404 79.8028 228.902 82.1126 226.466 84.2598C224.035 86.4025 220.75 88.3157 217.353 90.0664C215.657 90.9402 213.942 91.769 212.299 92.5645C210.659 93.3585 209.088 94.1203 207.692 94.8545C206.299 95.5877 205.063 96.3024 204.096 97.0049C203.202 97.6544 202.482 98.3316 202.107 99.0508L202.037 99.1953C201.558 100.251 201.313 101.391 201.313 102.552V164.281C201.313 168.307 204.247 171.738 208.225 172.346H208.226C217.937 173.821 237.158 177.818 256.078 187.917C274.994 198.014 293.578 214.192 302.093 240.028C312.418 271.371 311.85 307.07 307.939 337.464C304.03 367.85 296.787 392.888 293.796 402.889C285.42 430.888 271.03 474.176 258.378 515.385C252.056 535.977 246.172 556.038 241.701 573.378C237.233 590.707 234.169 605.351 233.499 615.097C233.287 618.161 234.794 621.089 237.418 622.687V622.688C237.68 622.849 237.932 623 238.181 623.149C255.601 633.761 253.455 659.638 234.73 667.357L234.284 667.536C218.111 673.861 195.33 679.012 164.021 679.012C123.218 679.012 97.3043 672.243 81.6113 663.986C65.8917 655.715 60.5137 646.009 60.5137 640.151C60.5138 636.68 61.919 633.673 64.1807 630.918C66.1653 628.5 68.7936 626.293 71.6719 624.158L72.9199 623.247C81.3608 617.158 86.1327 607.151 85.3408 596.754C81.4919 546.144 56.4019 479.056 39.7471 439.199C22.3062 397.445 12.6201 352.797 11.8428 307.553C11.5139 288.657 12.6898 269.026 16.4824 250.643C22.4264 221.876 41.9017 203.209 62.5332 191.224C83.1677 179.236 104.911 173.963 115.274 171.973H115.275C119.113 171.227 121.887 167.872 121.888 163.952V101.021C121.888 97.1179 119.486 93.6199 116.036 90.4814C112.577 87.3346 107.978 84.4694 103.404 81.8379H103.403C95.7413 77.4253 96.7512 66.1035 104.891 63.0303L104.897 63.043L105.31 62.9062C117.25 58.9245 134.98 55.2617 159.879 55.2617Z" fill="#C59B6D" stroke="#C59B6D"/>
<path d="M105.141 62.4117C96.2192 65.3917 94.9918 77.5717 103.155 82.2717C112.296 87.5317 121.388 93.6417 121.388 101.022V163.952C121.388 167.632 118.783 170.782 115.181 171.482C94.403 175.472 27.9587 192.632 15.9931 250.542C12.1909 268.972 11.0133 288.642 11.3426 307.562C12.1211 352.872 21.8212 397.582 39.2856 439.392C55.9415 479.252 81.0003 546.272 84.8425 596.792C85.6209 607.012 80.9305 616.852 72.6274 622.842C65.8912 627.692 60.0132 632.912 60.0132 640.152C60.0132 652.412 82.3176 679.512 164.021 679.512C195.387 679.512 218.23 674.352 234.467 668.002C253.987 660.362 256.352 633.632 238.439 622.722C238.189 622.572 237.94 622.422 237.68 622.262C235.215 620.762 233.798 618.012 233.998 615.132C236.662 576.352 277.529 459.012 294.275 403.032C300.262 383.012 323.285 302.762 302.568 239.872C285.433 187.882 227.78 174.812 208.3 171.852C204.568 171.282 201.814 168.062 201.814 164.282V102.552C201.814 101.462 202.043 100.392 202.492 99.4017C204.847 94.2017 230.904 88.2717 230.904 77.2617C230.904 65.2517 217.751 54.7617 159.879 54.7617C134.93 54.7617 117.147 58.4317 105.151 62.4317L105.141 62.4117Z" stroke="#C59B6D" stroke-width="9" stroke-miterlimit="10"/>
</g>
<path d="M75.3918 612.434C114.741 626.084 157.384 633.574 198.66 625.744C212.322 623.164 225.555 618.554 238.259 612.434C220.735 624.464 199.598 631.194 178.431 633.144C143.473 636.244 106.518 628.534 75.3918 612.434Z" fill="#E2E3E2"/>
<path d="M128.014 53.6409V38.5109C128.014 38.5109 113.364 37.7709 113.364 20.2709C113.364 2.77086 136.706 4.55086 136.706 4.55086H194.339C199.957 4.55086 205.496 7.00086 208.699 11.6309C210.326 13.9909 211.513 17.0209 211.513 20.8709C211.513 33.1809 200.266 38.3709 200.266 38.3709L199.528 54.0909L128.034 53.6509L128.014 53.6409Z" fill="#CDB43A" stroke="#CDB43A" stroke-width="9" stroke-miterlimit="10"/>
<path d="M256.512 202.941C278.487 211.371 290.522 238.661 294.754 260.391C299.354 283.661 298.536 307.861 294.295 331.091C294.574 302.041 294.504 272.511 285.522 244.651C280.133 228.561 271.481 211.891 256.512 202.941Z" fill="#E7E2D5"/>
<path d="M65.8514 202.143C59.5044 205.703 54.4647 211.163 50.1236 216.913C44.2056 225.053 39.9543 234.303 36.8307 243.853C27.8491 271.713 27.7792 301.243 28.0586 330.293C23.5778 305.613 22.8593 279.783 28.5576 255.213C33.3079 234.793 45.1437 210.073 65.8414 202.133L65.8514 202.143Z" fill="#E7E2D5"/>
<path d="M125.879 103.631C136.836 120.211 135.888 146.011 127.096 163.371C127.286 159.491 127.785 155.791 128.054 151.961C129.501 135.801 129.222 119.601 125.879 103.621V103.631Z" fill="#E7E2D5"/>
<path d="M196.794 104.133C193.45 120.103 193.171 136.313 194.618 152.473C194.887 156.293 195.386 159.993 195.576 163.883C186.784 146.523 185.836 120.733 196.794 104.143V104.133Z" fill="#E7E2D5"/>
<path d="M32.9089 431.583C32.9089 431.583 161.307 420.983 280.214 431.003C265.224 451.023 256.732 456.033 256.732 456.033L32.9089 431.583Z" fill="#F3C791"/>
<path d="M31.6809 432.744C31.6809 432.744 95.3808 412.394 152.334 432.744C209.288 453.094 280.483 431.584 280.483 431.584C280.483 431.584 226.523 558.934 226.523 603.704C171.066 625.224 97.6262 606.034 97.6262 606.034C97.6262 606.034 101.369 541.484 31.6809 432.754V432.744Z" fill="#FD9D07"/>
<g opacity="0.5">
<g opacity="0.5">
<path d="M62.4083 203.475C62.4083 203.475 62.3784 203.445 62.4083 203.435L67.937 199.985C67.937 199.985 67.9969 199.965 68.0269 199.985L73.4158 203.005C73.4158 203.005 73.4358 203.045 73.4158 203.055L68.3662 205.775C68.3662 205.775 68.3063 205.795 68.2763 205.775L62.4183 203.485L62.4083 203.475Z" fill="#92B6DA"/>
</g>
<g opacity="0.5">
<path d="M54.7938 211.744C54.7938 211.744 54.7538 211.764 54.7538 211.734L53.2769 205.374C53.2769 205.374 53.2769 205.314 53.3068 205.294L57.8974 201.154C57.8974 201.154 57.9373 201.144 57.9473 201.174L58.8954 206.844C58.8954 206.844 58.8954 206.914 58.8754 206.934L54.8237 211.754L54.7938 211.744Z" fill="#92B6DA"/>
</g>
<g opacity="0.5">
<path d="M47.778 223.596C47.778 223.596 47.7381 223.576 47.758 223.556L51.3407 218.106C51.3407 218.106 51.3906 218.066 51.4206 218.066L57.578 218.546C57.578 218.546 57.6179 218.566 57.5979 218.586L54.145 223.176C54.145 223.176 54.0951 223.216 54.0651 223.216L47.788 223.586L47.778 223.596Z" fill="#92B6DA"/>
</g>
<g opacity="0.5">
<path d="M70.8112 213.225C70.8112 213.225 70.7812 213.195 70.8112 213.185L76.3399 209.735C76.3399 209.735 76.3997 209.715 76.4297 209.735L81.8187 212.755C81.8187 212.755 81.8386 212.795 81.8187 212.805L76.769 215.525C76.769 215.525 76.7091 215.545 76.6792 215.525L70.8211 213.235L70.8112 213.225Z" fill="#92B6DA"/>
</g>
<g opacity="0.5">
<path d="M63.1966 221.494C63.1966 221.494 63.1567 221.514 63.1567 221.484L61.6797 215.124C61.6797 215.124 61.6797 215.064 61.7096 215.044L66.3002 210.904C66.3002 210.904 66.3402 210.894 66.3501 210.924L67.2982 216.594C67.2982 216.594 67.2982 216.664 67.2783 216.684L63.2265 221.504L63.1966 221.494Z" fill="#92B6DA"/>
</g>
<g opacity="0.5">
<path d="M56.1708 233.346C56.1708 233.346 56.1309 233.326 56.1509 233.306L59.7335 227.856C59.7335 227.856 59.7834 227.816 59.8134 227.816L65.9708 228.296C65.9708 228.296 66.0107 228.316 65.9908 228.336L62.5378 232.926C62.5378 232.926 62.4879 232.966 62.458 232.966L56.1808 233.336L56.1708 233.346Z" fill="#92B6DA"/>
</g>
<g opacity="0.5">
<path d="M61.9889 251.452C61.9889 251.452 61.959 251.422 61.9889 251.412L67.5176 247.962C67.5176 247.962 67.5775 247.942 67.6074 247.962L72.9964 250.982C72.9964 250.982 73.0164 251.022 72.9964 251.032L67.9467 253.752C67.9467 253.752 67.8868 253.772 67.8569 253.752L61.9989 251.462L61.9889 251.452Z" fill="#92B6DA"/>
</g>
<g opacity="0.5">
<path d="M54.3746 259.713C54.3746 259.713 54.3347 259.733 54.3347 259.703L52.8577 253.343C52.8577 253.343 52.8577 253.283 52.8876 253.263L57.4782 249.123C57.4782 249.123 57.5181 249.113 57.5281 249.143L58.4762 254.813C58.4762 254.813 58.4762 254.883 58.4562 254.903L54.4045 259.723L54.3746 259.713Z" fill="#92B6DA"/>
</g>
<g opacity="0.5">
<path d="M47.3588 271.573C47.3588 271.573 47.3189 271.553 47.3388 271.533L50.9215 266.083C50.9215 266.083 50.9714 266.043 51.0014 266.043L57.1588 266.523C57.1588 266.523 57.1987 266.543 57.1787 266.563L53.7258 271.153C53.7258 271.153 53.6759 271.193 53.646 271.193L47.3688 271.563L47.3588 271.573Z" fill="#92B6DA"/>
</g>
<g opacity="0.5">
<path d="M70.3917 261.19C70.3917 261.19 70.3618 261.16 70.3917 261.15L75.9204 257.7C75.9204 257.7 75.9803 257.68 76.0103 257.7L81.3992 260.72C81.3992 260.72 81.4192 260.76 81.3992 260.77L76.3496 263.49C76.3496 263.49 76.2897 263.51 76.2597 263.49L70.4017 261.2L70.3917 261.19Z" fill="#92B6DA"/>
</g>
<g opacity="0.5">
<path d="M62.7772 269.463C62.7772 269.463 62.7372 269.483 62.7372 269.453L61.2603 263.093C61.2603 263.093 61.2603 263.033 61.2902 263.013L65.8808 258.873C65.8808 258.873 65.9207 258.863 65.9307 258.893L66.8788 264.563C66.8788 264.563 66.8788 264.633 66.8588 264.653L62.8071 269.473L62.7772 269.463Z" fill="#92B6DA"/>
</g>
<g opacity="0.5">
<path d="M55.7516 281.311C55.7516 281.311 55.7117 281.291 55.7317 281.271L59.3143 275.821C59.3143 275.821 59.3642 275.781 59.3942 275.781L65.5516 276.261C65.5516 276.261 65.5915 276.281 65.5716 276.301L62.1186 280.891C62.1186 280.891 62.0687 280.931 62.0388 280.931L55.7616 281.301L55.7516 281.311Z" fill="#92B6DA"/>
</g>
<g opacity="0.5">
<path d="M44.1456 231.682C44.1456 231.682 44.1157 231.652 44.1456 231.642L49.6743 228.192C49.6743 228.192 49.7342 228.172 49.7641 228.192L55.1531 231.212C55.1531 231.212 55.1731 231.252 55.1531 231.262L50.1035 233.982C50.1035 233.982 50.0436 234.002 50.0136 233.982L44.1556 231.692L44.1456 231.682Z" fill="#92B6DA"/>
</g>
<g opacity="0.5">
<path d="M36.5311 239.951C36.5311 239.951 36.4911 239.971 36.4911 239.941L35.0142 233.581C35.0142 233.581 35.0142 233.521 35.0441 233.501L39.6347 229.361C39.6347 229.361 39.6746 229.351 39.6846 229.381L40.6327 235.051C40.6327 235.051 40.6327 235.121 40.6127 235.141L36.561 239.961L36.5311 239.951Z" fill="#92B6DA"/>
</g>
<g opacity="0.5">
<path d="M29.5153 251.803C29.5153 251.803 29.4754 251.783 29.4953 251.763L33.078 246.313C33.078 246.313 33.1279 246.273 33.1579 246.273L39.3153 246.753C39.3153 246.753 39.3552 246.773 39.3352 246.793L35.8823 251.383C35.8823 251.383 35.8324 251.423 35.8025 251.423L29.5253 251.793L29.5153 251.803Z" fill="#92B6DA"/>
</g>
<g opacity="0.5">
<path d="M52.5482 241.432C52.5482 241.432 52.5183 241.402 52.5482 241.392L58.0769 237.942C58.0769 237.942 58.1368 237.922 58.1667 237.942L63.5557 240.962C63.5557 240.962 63.5757 241.002 63.5557 241.012L58.506 243.732C58.506 243.732 58.4462 243.752 58.4162 243.732L52.5582 241.442L52.5482 241.432Z" fill="#92B6DA"/>
</g>
<g opacity="0.5">
<path d="M44.9339 249.701C44.9339 249.701 44.894 249.721 44.894 249.691L43.417 243.331C43.417 243.331 43.417 243.271 43.4469 243.251L48.0376 239.111C48.0376 239.111 48.0775 239.101 48.0875 239.131L49.0355 244.801C49.0355 244.801 49.0355 244.871 49.0156 244.891L44.9638 249.711L44.9339 249.701Z" fill="#92B6DA"/>
</g>
<g opacity="0.5">
<path d="M37.9081 261.553C37.9081 261.553 37.8682 261.533 37.8882 261.513L41.4708 256.063C41.4708 256.063 41.5207 256.023 41.5507 256.023L47.7081 256.503C47.7081 256.503 47.748 256.523 47.7281 256.543L44.2751 261.133C44.2751 261.133 44.2252 261.173 44.1953 261.173L37.9181 261.543L37.9081 261.553Z" fill="#92B6DA"/>
</g>
<g opacity="0.5">
<path d="M82.2076 222.003C82.2076 222.003 82.1777 221.973 82.2076 221.963L87.7363 218.513C87.7363 218.513 87.7962 218.493 87.8262 218.513L93.2152 221.533C93.2152 221.533 93.2351 221.573 93.2152 221.583L88.1655 224.303C88.1655 224.303 88.1056 224.323 88.0757 224.303L82.2176 222.013L82.2076 222.003Z" fill="#92B6DA"/>
</g>
<g opacity="0.5">
<path d="M74.5933 230.263C74.5933 230.263 74.5534 230.283 74.5534 230.253L73.0764 223.893C73.0764 223.893 73.0764 223.833 73.1064 223.813L77.697 219.673C77.697 219.673 77.7369 219.663 77.7469 219.693L78.6949 225.363C78.6949 225.363 78.6949 225.433 78.675 225.453L74.6233 230.273L74.5933 230.263Z" fill="#92B6DA"/>
</g>
<g opacity="0.5">
<path d="M67.5775 242.124C67.5775 242.124 67.5376 242.104 67.5576 242.084L71.1403 236.634C71.1403 236.634 71.1902 236.594 71.2201 236.594L77.3775 237.074C77.3775 237.074 77.4174 237.094 77.3975 237.114L73.9445 241.704C73.9445 241.704 73.8946 241.744 73.8647 241.744L67.5875 242.114L67.5775 242.124Z" fill="#92B6DA"/>
</g>
<g opacity="0.5">
<path d="M90.6105 231.741C90.6105 231.741 90.5805 231.711 90.6105 231.701L96.1392 228.251C96.1392 228.251 96.1991 228.231 96.229 228.251L101.618 231.271C101.618 231.271 101.638 231.311 101.618 231.321L96.5683 234.041C96.5683 234.041 96.5084 234.061 96.4785 234.041L90.6204 231.751L90.6105 231.741Z" fill="#92B6DA"/>
</g>
<g opacity="0.5">
<path d="M82.9959 240.013C82.9959 240.013 82.956 240.033 82.956 240.003L81.479 233.643C81.479 233.643 81.479 233.583 81.5089 233.563L86.0996 229.423C86.0996 229.423 86.1395 229.413 86.1495 229.443L87.0975 235.113C87.0975 235.113 87.0975 235.183 87.0776 235.203L83.0258 240.023L82.9959 240.013Z" fill="#92B6DA"/>
</g>
<g opacity="0.5">
<path d="M75.9704 251.862C75.9704 251.862 75.9305 251.842 75.9504 251.822L79.5331 246.372C79.5331 246.372 79.583 246.332 79.6129 246.332L85.7703 246.812C85.7703 246.812 85.8103 246.832 85.7903 246.852L82.3374 251.442C82.3374 251.442 82.2875 251.482 82.2575 251.482L75.9804 251.852L75.9704 251.862Z" fill="#92B6DA"/>
</g>
<g opacity="0.5">
<path d="M28.1581 212.772C28.1581 212.772 28.1281 212.742 28.1581 212.732L33.6868 209.282C33.6868 209.282 33.7467 209.262 33.7766 209.282L39.1656 212.302C39.1656 212.302 39.1856 212.342 39.1656 212.352L34.1159 215.072C34.1159 215.072 34.056 215.092 34.0261 215.072L28.1681 212.782L28.1581 212.772Z" fill="#92B6DA"/>
</g>
<g opacity="0.5">
<path d="M20.5438 221.041C20.5438 221.041 20.5038 221.061 20.5038 221.031L19.0269 214.671C19.0269 214.671 19.0269 214.611 19.0568 214.591L23.6474 210.451C23.6474 210.451 23.6873 210.441 23.6973 210.471L24.6454 216.141C24.6454 216.141 24.6454 216.211 24.6254 216.231L20.5737 221.051L20.5438 221.041Z" fill="#92B6DA"/>
</g>
<g opacity="0.5">
<path d="M13.528 232.893C13.528 232.893 13.4881 232.873 13.508 232.853L17.0907 227.403C17.0907 227.403 17.1406 227.363 17.1705 227.363L23.328 227.843C23.328 227.843 23.3679 227.863 23.3479 227.883L19.895 232.473C19.895 232.473 19.8451 232.513 19.8151 232.513L13.538 232.883L13.528 232.893Z" fill="#92B6DA"/>
</g>
<g opacity="0.5">
<path d="M36.5609 222.522C36.5609 222.522 36.531 222.492 36.5609 222.482L42.0896 219.032C42.0896 219.032 42.1495 219.012 42.1794 219.032L47.5684 222.052C47.5684 222.052 47.5884 222.092 47.5684 222.102L42.5187 224.822C42.5187 224.822 42.4589 224.842 42.4289 224.822L36.5709 222.532L36.5609 222.522Z" fill="#92B6DA"/>
</g>
<g opacity="0.5">
<path d="M28.9463 230.791C28.9463 230.791 28.9064 230.811 28.9064 230.781L27.4294 224.421C27.4294 224.421 27.4294 224.361 27.4594 224.341L32.05 220.201C32.05 220.201 32.0899 220.191 32.0999 220.221L33.048 225.891C33.048 225.891 33.048 225.961 33.028 225.981L28.9763 230.801L28.9463 230.791Z" fill="#92B6DA"/>
</g>
<g opacity="0.5">
<path d="M21.9208 242.643C21.9208 242.643 21.8809 242.623 21.9009 242.603L25.4835 237.153C25.4835 237.153 25.5334 237.113 25.5634 237.113L31.7208 237.593C31.7208 237.593 31.7607 237.613 31.7408 237.633L28.2878 242.223C28.2878 242.223 28.2379 242.263 28.208 242.263L21.9308 242.633L21.9208 242.643Z" fill="#92B6DA"/>
</g>
<g opacity="0.5">
<path d="M31.8903 202.585C31.8903 202.585 31.8504 202.565 31.8703 202.545L35.453 197.095C35.453 197.095 35.5029 197.055 35.5329 197.055L41.6903 197.535C41.6903 197.535 41.7302 197.555 41.7102 197.575L38.2573 202.165C38.2573 202.165 38.2074 202.205 38.1774 202.205L31.9003 202.575L31.8903 202.585Z" fill="#92B6DA"/>
</g>
<g opacity="0.5">
<path d="M54.9235 192.214C54.9235 192.214 54.8935 192.184 54.9235 192.174L60.4522 188.724C60.4522 188.724 60.5121 188.704 60.542 188.724L65.931 191.744C65.931 191.744 65.9509 191.784 65.931 191.794L60.8813 194.514C60.8813 194.514 60.8214 194.534 60.7915 194.514L54.9334 192.224L54.9235 192.214Z" fill="#92B6DA"/>
</g>
<g opacity="0.5">
<path d="M47.3089 200.482C47.3089 200.482 47.269 200.502 47.269 200.472L45.792 194.112C45.792 194.112 45.792 194.052 45.8219 194.032L50.4126 189.892C50.4126 189.892 50.4525 189.882 50.4625 189.912L51.4105 195.582C51.4105 195.582 51.4105 195.652 51.3905 195.672L47.3388 200.492L47.3089 200.482Z" fill="#92B6DA"/>
</g>
<g opacity="0.5">
<path d="M40.2831 212.335C40.2831 212.335 40.2432 212.315 40.2632 212.295L43.8458 206.845C43.8458 206.845 43.8957 206.805 43.9257 206.805L50.0831 207.285C50.0831 207.285 50.123 207.305 50.1031 207.325L46.6501 211.915C46.6501 211.915 46.6002 211.955 46.5703 211.955L40.2931 212.325L40.2831 212.335Z" fill="#92B6DA"/>
</g>
<g opacity="0.5">
<path d="M6.26282 242.495C6.26282 242.495 6.23288 242.465 6.26282 242.455L11.7915 239.005C11.7915 239.005 11.8514 238.985 11.8813 239.005L17.2703 242.025C17.2703 242.025 17.2903 242.065 17.2703 242.075L12.2206 244.795C12.2206 244.795 12.1608 244.815 12.1308 244.795L6.2728 242.505L6.26282 242.495Z" fill="#92B6DA"/>
</g>
<g opacity="0.5">
<path d="M14.6656 252.233C14.6656 252.233 14.6357 252.203 14.6656 252.193L20.1944 248.743C20.1944 248.743 20.2542 248.723 20.2842 248.743L25.6732 251.763C25.6732 251.763 25.6931 251.803 25.6732 251.813L20.6235 254.533C20.6235 254.533 20.5636 254.553 20.5337 254.533L14.6756 252.243L14.6656 252.233Z" fill="#92B6DA"/>
</g>
<g opacity="0.5">
<path d="M7.04132 260.506C7.04132 260.506 7.0014 260.526 7.0014 260.496L5.52441 254.136C5.52441 254.136 5.52441 254.076 5.55435 254.056L10.145 249.916C10.145 249.916 10.1849 249.906 10.1949 249.936L11.1429 255.606C11.1429 255.606 11.1429 255.676 11.123 255.696L7.07125 260.516L7.04132 260.506Z" fill="#92B6DA"/>
</g>
<g opacity="0.5">
<path d="M0.0255482 272.354C0.0255482 272.354 -0.0143707 272.334 0.00558854 272.314L3.58827 266.864C3.58827 266.864 3.63817 266.824 3.66811 266.824L9.82553 267.304C9.82553 267.304 9.86545 267.324 9.84549 267.344L6.39254 271.934C6.39254 271.934 6.34264 271.974 6.3127 271.974L0.03553 272.344L0.0255482 272.354Z" fill="#92B6DA"/>
</g>
<g opacity="0.5">
<path d="M23.6674 262.182C23.6674 262.182 23.6374 262.152 23.6674 262.142L29.1961 258.692C29.1961 258.692 29.2559 258.672 29.2859 258.692L34.6749 261.712C34.6749 261.712 34.6948 261.752 34.6749 261.762L29.6252 264.482C29.6252 264.482 29.5653 264.502 29.5354 264.482L23.6773 262.192L23.6674 262.182Z" fill="#92B6DA"/>
</g>
<g opacity="0.5">
<path d="M16.0528 270.451C16.0528 270.451 16.0129 270.471 16.0129 270.441L14.5359 264.081C14.5359 264.081 14.5359 264.021 14.5658 264.001L19.1565 259.861C19.1565 259.861 19.1964 259.851 19.2063 259.881L20.1544 265.551C20.1544 265.551 20.1544 265.621 20.1345 265.641L16.0827 270.461L16.0528 270.451Z" fill="#92B6DA"/>
</g>
<g opacity="0.5">
<path d="M9.02726 282.303C9.02726 282.303 8.98734 282.283 9.0073 282.263L12.59 276.813C12.59 276.813 12.6399 276.773 12.6698 276.773L18.8272 277.253C18.8272 277.253 18.8672 277.273 18.8472 277.293L15.3943 281.883C15.3943 281.883 15.3444 281.923 15.3144 281.923L9.03724 282.293L9.02726 282.303Z" fill="#92B6DA"/>
</g>
<g opacity="0.5">
<path d="M32.0602 271.932C32.0602 271.932 32.0302 271.902 32.0602 271.892L37.5889 268.442C37.5889 268.442 37.6488 268.422 37.6787 268.442L43.0677 271.462C43.0677 271.462 43.0877 271.502 43.0677 271.512L38.018 274.232C38.018 274.232 37.9581 274.252 37.9282 274.232L32.0702 271.942L32.0602 271.932Z" fill="#92B6DA"/>
</g>
<g opacity="0.5">
<path d="M24.4456 280.193C24.4456 280.193 24.4057 280.213 24.4057 280.183L22.9287 273.823C22.9287 273.823 22.9287 273.763 22.9586 273.743L27.5493 269.603C27.5493 269.603 27.5892 269.593 27.5992 269.623L28.5472 275.293C28.5472 275.293 28.5472 275.363 28.5273 275.383L24.4756 280.203L24.4456 280.193Z" fill="#92B6DA"/>
</g>
<g opacity="0.5">
<path d="M17.4298 292.053C17.4298 292.053 17.3899 292.033 17.4099 292.013L20.9926 286.563C20.9926 286.563 21.0425 286.523 21.0724 286.523L27.2298 287.003C27.2298 287.003 27.2697 287.023 27.2498 287.043L23.7968 291.633C23.7968 291.633 23.7469 291.673 23.717 291.673L17.4398 292.043L17.4298 292.053Z" fill="#92B6DA"/>
</g>
<g opacity="0.5">
<path d="M41.1818 281.714C41.1818 281.714 41.1518 281.684 41.1818 281.674L46.7105 278.224C46.7105 278.224 46.7703 278.204 46.8003 278.224L52.1893 281.244C52.1893 281.244 52.2092 281.284 52.1893 281.294L47.1396 284.014C47.1396 284.014 47.0797 284.034 47.0498 284.014L41.1917 281.724L41.1818 281.714Z" fill="#92B6DA"/>
</g>
<g opacity="0.5">
<path d="M33.5672 289.974C33.5672 289.974 33.5273 289.994 33.5273 289.964L32.0503 283.604C32.0503 283.604 32.0503 283.544 32.0802 283.524L36.6709 279.384C36.6709 279.384 36.7108 279.374 36.7208 279.404L37.6688 285.074C37.6688 285.074 37.6688 285.144 37.6489 285.164L33.5971 289.984L33.5672 289.974Z" fill="#92B6DA"/>
</g>
<g opacity="0.5">
<path d="M26.5514 301.835C26.5514 301.835 26.5115 301.815 26.5315 301.795L30.1141 296.345C30.1141 296.345 30.164 296.305 30.194 296.305L36.3514 296.785C36.3514 296.785 36.3913 296.805 36.3714 296.825L32.9184 301.415C32.9184 301.415 32.8685 301.455 32.8386 301.455L26.5614 301.825L26.5514 301.835Z" fill="#92B6DA"/>
</g>
<g opacity="0.5">
<path d="M49.5844 291.464C49.5844 291.464 49.5544 291.434 49.5844 291.424L55.1131 287.974C55.1131 287.974 55.1729 287.954 55.2029 287.974L60.5919 290.994C60.5919 290.994 60.6118 291.034 60.5919 291.044L55.5422 293.764C55.5422 293.764 55.4823 293.784 55.4524 293.764L49.5943 291.474L49.5844 291.464Z" fill="#92B6DA"/>
</g>
<g opacity="0.5">
<path d="M41.97 299.724C41.97 299.724 41.9301 299.744 41.9301 299.714L40.4531 293.354C40.4531 293.354 40.4531 293.294 40.4831 293.274L45.0737 289.134C45.0737 289.134 45.1136 289.124 45.1236 289.154L46.0717 294.824C46.0717 294.824 46.0716 294.894 46.0517 294.914L42 299.734L41.97 299.724Z" fill="#92B6DA"/>
</g>
<g opacity="0.5">
<path d="M129.9 127.163C129.9 127.163 129.87 127.133 129.9 127.123L135.429 123.673C135.429 123.673 135.489 123.653 135.519 123.673L140.908 126.693C140.908 126.693 140.927 126.733 140.908 126.743L135.858 129.463C135.858 129.463 135.798 129.483 135.768 129.463L129.91 127.173L129.9 127.163Z" fill="#92B6DA"/>
</g>
<g opacity="0.5">
<path d="M122.286 135.431C122.286 135.431 122.246 135.451 122.246 135.421L120.769 129.061C120.769 129.061 120.769 129.001 120.799 128.981L125.389 124.841C125.389 124.841 125.429 124.831 125.439 124.861L126.387 130.531C126.387 130.531 126.387 130.601 126.367 130.621L122.316 135.441L122.286 135.431Z" fill="#92B6DA"/>
</g>
<g opacity="0.5">
<path d="M115.26 147.284C115.26 147.284 115.22 147.264 115.24 147.244L118.823 141.794C118.823 141.794 118.873 141.754 118.903 141.754L125.06 142.234C125.06 142.234 125.1 142.254 125.08 142.274L121.627 146.864C121.627 146.864 121.577 146.904 121.547 146.904L115.27 147.274L115.26 147.284Z" fill="#92B6DA"/>
</g>
<g opacity="0.5">
<path d="M138.303 136.913C138.303 136.913 138.273 136.883 138.303 136.873L143.832 133.423C143.832 133.423 143.892 133.403 143.922 133.423L149.311 136.443C149.311 136.443 149.331 136.483 149.311 136.493L144.261 139.213C144.261 139.213 144.201 139.233 144.171 139.213L138.313 136.923L138.303 136.913Z" fill="#92B6DA"/>
</g>
<g opacity="0.5">
<path d="M130.689 145.181C130.689 145.181 130.649 145.201 130.649 145.171L129.172 138.811C129.172 138.811 129.172 138.751 129.202 138.731L133.792 134.591C133.792 134.591 133.832 134.581 133.842 134.611L134.79 140.281C134.79 140.281 134.79 140.351 134.77 140.371L130.718 145.191L130.689 145.181Z" fill="#92B6DA"/>
</g>
<g opacity="0.5">
<path d="M123.663 157.034C123.663 157.034 123.623 157.014 123.643 156.994L127.225 151.544C127.225 151.544 127.275 151.504 127.305 151.504L133.463 151.984C133.463 151.984 133.503 152.004 133.483 152.024L130.03 156.614C130.03 156.614 129.98 156.654 129.95 156.654L123.673 157.024L123.663 157.034Z" fill="#92B6DA"/>
</g>
<g opacity="0.5">
<path d="M129.481 175.143C129.481 175.143 129.451 175.113 129.481 175.103L135.01 171.653C135.01 171.653 135.07 171.633 135.1 171.653L140.489 174.673C140.489 174.673 140.509 174.713 140.489 174.723L135.439 177.443C135.439 177.443 135.379 177.463 135.349 177.443L129.491 175.153L129.481 175.143Z" fill="#92B6DA"/>
</g>
<g opacity="0.5">
<path d="M121.867 183.412C121.867 183.412 121.827 183.432 121.827 183.402L120.35 177.042C120.35 177.042 120.35 176.982 120.38 176.962L124.97 172.822C124.97 172.822 125.01 172.812 125.02 172.842L125.968 178.512C125.968 178.512 125.968 178.582 125.948 178.602L121.897 183.422L121.867 183.412Z" fill="#92B6DA"/>
</g>
<g opacity="0.5">
<path d="M114.851 195.264C114.851 195.264 114.811 195.244 114.831 195.224L118.414 189.774C118.414 189.774 118.464 189.734 118.494 189.734L124.651 190.214C124.651 190.214 124.691 190.234 124.671 190.254L121.218 194.844C121.218 194.844 121.168 194.884 121.138 194.884L114.861 195.254L114.851 195.264Z" fill="#92B6DA"/>
</g>
<g opacity="0.5">
<path d="M137.884 184.893C137.884 184.893 137.854 184.863 137.884 184.853L143.413 181.403C143.413 181.403 143.472 181.383 143.502 181.403L148.891 184.423C148.891 184.423 148.911 184.463 148.891 184.473L143.842 187.193C143.842 187.193 143.782 187.213 143.752 187.193L137.894 184.903L137.884 184.893Z" fill="#92B6DA"/>
</g>
<g opacity="0.5">
<path d="M130.27 193.162C130.27 193.162 130.23 193.182 130.23 193.152L128.753 186.792C128.753 186.792 128.753 186.732 128.783 186.712L133.373 182.572C133.373 182.572 133.413 182.562 133.423 182.592L134.371 188.262C134.371 188.262 134.371 188.332 134.351 188.352L130.3 193.172L130.27 193.162Z" fill="#92B6DA"/>
</g>
<g opacity="0.5">
<path d="M123.244 205.014C123.244 205.014 123.204 204.994 123.224 204.974L126.807 199.524C126.807 199.524 126.856 199.484 126.886 199.484L133.044 199.964C133.044 199.964 133.084 199.984 133.064 200.004L129.611 204.594C129.611 204.594 129.561 204.634 129.531 204.634L123.254 205.004L123.244 205.014Z" fill="#92B6DA"/>
</g>
<g opacity="0.5">
<path d="M111.638 155.374C111.638 155.374 111.608 155.344 111.638 155.334L117.166 151.884C117.166 151.884 117.226 151.864 117.256 151.884L122.645 154.904C122.645 154.904 122.665 154.944 122.645 154.954L117.595 157.674C117.595 157.674 117.536 157.694 117.506 157.674L111.648 155.384L111.638 155.374Z" fill="#92B6DA"/>
</g>
<g opacity="0.5">
<path d="M97.0072 175.495C97.0072 175.495 96.9673 175.475 96.9873 175.455L100.57 170.005C100.57 170.005 100.62 169.965 100.65 169.965L106.807 170.445C106.807 170.445 106.847 170.465 106.827 170.485L103.374 175.075C103.374 175.075 103.324 175.115 103.294 175.115L97.0172 175.485L97.0072 175.495Z" fill="#92B6DA"/>
</g>
<g opacity="0.5">
<path d="M120.04 165.124C120.04 165.124 120.01 165.094 120.04 165.084L125.569 161.634C125.569 161.634 125.629 161.614 125.659 161.634L131.048 164.654C131.048 164.654 131.068 164.694 131.048 164.704L125.998 167.424C125.998 167.424 125.938 167.444 125.908 167.424L120.05 165.134L120.04 165.124Z" fill="#92B6DA"/>
</g>
<g opacity="0.5">
<path d="M112.426 173.392C112.426 173.392 112.386 173.412 112.386 173.382L110.909 167.022C110.909 167.022 110.909 166.962 110.939 166.942L115.53 162.802C115.53 162.802 115.569 162.792 115.579 162.822L116.527 168.492C116.527 168.492 116.527 168.562 116.507 168.582L112.456 173.402L112.426 173.392Z" fill="#92B6DA"/>
</g>
<g opacity="0.5">
<path d="M105.4 185.245C105.4 185.245 105.36 185.225 105.38 185.205L108.963 179.755C108.963 179.755 109.013 179.715 109.043 179.715L115.2 180.195C115.2 180.195 115.24 180.215 115.22 180.235L111.767 184.825C111.767 184.825 111.717 184.865 111.687 184.865L105.41 185.235L105.4 185.245Z" fill="#92B6DA"/>
</g>
<g opacity="0.5">
<path d="M142.086 153.963C142.086 153.963 142.046 153.983 142.046 153.953L140.569 147.593C140.569 147.593 140.569 147.533 140.599 147.513L145.189 143.373C145.189 143.373 145.229 143.363 145.239 143.393L146.187 149.063C146.187 149.063 146.187 149.133 146.167 149.153L142.115 153.973L142.086 153.963Z" fill="#92B6DA"/>
</g>
<g opacity="0.5">
<path d="M135.07 165.811C135.07 165.811 135.03 165.791 135.05 165.771L138.632 160.321C138.632 160.321 138.682 160.281 138.712 160.281L144.87 160.761C144.87 160.761 144.91 160.781 144.89 160.801L141.437 165.391C141.437 165.391 141.387 165.431 141.357 165.431L135.08 165.801L135.07 165.811Z" fill="#92B6DA"/>
</g>
<g opacity="0.5">
<path d="M150.488 163.713C150.488 163.713 150.448 163.733 150.448 163.703L148.971 157.343C148.971 157.343 148.971 157.283 149.001 157.263L153.592 153.123C153.592 153.123 153.632 153.113 153.642 153.143L154.59 158.813C154.59 158.813 154.59 158.883 154.57 158.903L150.518 163.723L150.488 163.713Z" fill="#92B6DA"/>
</g>
<g opacity="0.5">
<path d="M143.463 175.561C143.463 175.561 143.423 175.541 143.443 175.521L147.025 170.071C147.025 170.071 147.075 170.031 147.105 170.031L153.263 170.511C153.263 170.511 153.302 170.531 153.282 170.551L149.83 175.141C149.83 175.141 149.78 175.181 149.75 175.181L143.473 175.551L143.463 175.561Z" fill="#92B6DA"/>
</g>
<g opacity="0.5">
<path d="M114.013 106.163C114.013 106.163 113.983 106.133 114.013 106.123L119.541 102.673C119.541 102.673 119.601 102.653 119.631 102.673L125.02 105.693C125.02 105.693 125.04 105.733 125.02 105.743L119.97 108.463C119.97 108.463 119.911 108.483 119.881 108.463L114.023 106.173L114.013 106.163Z" fill="#92B6DA"/>
</g>
<g opacity="0.5">
<path d="M122.415 115.913C122.415 115.913 122.385 115.883 122.415 115.873L127.944 112.423C127.944 112.423 128.004 112.403 128.034 112.423L133.423 115.443C133.423 115.443 133.443 115.483 133.423 115.493L128.373 118.213C128.373 118.213 128.313 118.233 128.283 118.213L122.425 115.923L122.415 115.913Z" fill="#92B6DA"/>
</g>
<g opacity="0.5">
<path d="M114.801 124.181C114.801 124.181 114.761 124.201 114.761 124.171L113.284 117.811C113.284 117.811 113.284 117.751 113.314 117.731L117.905 113.591C117.905 113.591 117.945 113.581 117.955 113.611L118.903 119.281C118.903 119.281 118.903 119.351 118.883 119.371L114.831 124.191L114.801 124.181Z" fill="#92B6DA"/>
</g>
<g opacity="0.5">
<path d="M107.775 136.034C107.775 136.034 107.735 136.014 107.755 135.994L111.338 130.544C111.338 130.544 111.388 130.504 111.418 130.504L117.575 130.984C117.575 130.984 117.615 131.004 117.595 131.024L114.142 135.614C114.142 135.614 114.092 135.654 114.062 135.654L107.785 136.024L107.775 136.034Z" fill="#92B6DA"/>
</g>
<g opacity="0.5">
<path d="M59.1149 186.303C59.1149 186.303 59.075 186.283 59.0949 186.263L62.6776 180.813C62.6776 180.813 62.7275 180.773 62.7575 180.773L68.9149 181.253C68.9149 181.253 68.9548 181.273 68.9348 181.293L65.4819 185.883C65.4819 185.883 65.432 185.923 65.4021 185.923L59.1249 186.293L59.1149 186.303Z" fill="#92B6DA"/>
</g>
<g opacity="0.5">
<path d="M82.1478 175.932C82.1478 175.932 82.1179 175.902 82.1478 175.892L87.6765 172.442C87.6765 172.442 87.7364 172.422 87.7663 172.442L93.1553 175.462C93.1553 175.462 93.1753 175.502 93.1553 175.512L88.1057 178.232C88.1057 178.232 88.0458 178.252 88.0158 178.232L82.1578 175.942L82.1478 175.932Z" fill="#92B6DA"/>
</g>
<g opacity="0.5">
<path d="M74.5333 184.201C74.5333 184.201 74.4933 184.221 74.4933 184.191L73.0164 177.831C73.0164 177.831 73.0164 177.771 73.0463 177.751L77.6369 173.611C77.6369 173.611 77.6768 173.601 77.6868 173.631L78.6349 179.301C78.6349 179.301 78.6349 179.371 78.6149 179.391L74.5632 184.211L74.5333 184.201Z" fill="#92B6DA"/>
</g>
<g opacity="0.5">
<path d="M67.5175 196.053C67.5175 196.053 67.4776 196.033 67.4975 196.013L71.0802 190.563C71.0802 190.563 71.1301 190.523 71.16 190.523L77.3175 191.003C77.3175 191.003 77.3574 191.023 77.3374 191.043L73.8845 195.633C73.8845 195.633 73.8346 195.673 73.8046 195.673L67.5275 196.043L67.5175 196.053Z" fill="#92B6DA"/>
</g>
<g opacity="0.5">
<path d="M91.1593 185.874C91.1593 185.874 91.1294 185.844 91.1593 185.834L96.688 182.384C96.688 182.384 96.7479 182.364 96.7778 182.384L102.167 185.404C102.167 185.404 102.187 185.444 102.167 185.454L97.1171 188.174C97.1171 188.174 97.0573 188.194 97.0273 188.174L91.1693 185.884L91.1593 185.874Z" fill="#92B6DA"/>
</g>
<g opacity="0.5">
<path d="M83.535 194.142C83.535 194.142 83.4951 194.162 83.4951 194.132L82.0181 187.772C82.0181 187.772 82.0181 187.712 82.048 187.692L86.6386 183.552C86.6386 183.552 86.6786 183.542 86.6885 183.572L87.6366 189.242C87.6366 189.242 87.6366 189.312 87.6166 189.332L83.5649 194.152L83.535 194.142Z" fill="#92B6DA"/>
</g>
<g opacity="0.5">
<path d="M76.5192 205.995C76.5192 205.995 76.4793 205.975 76.4992 205.955L80.0819 200.505C80.0819 200.505 80.1318 200.465 80.1618 200.465L86.3192 200.945C86.3192 200.945 86.3591 200.965 86.3391 200.985L82.8862 205.575C82.8862 205.575 82.8363 205.615 82.8064 205.615L76.5292 205.985L76.5192 205.995Z" fill="#92B6DA"/>
</g>
<g opacity="0.5">
<path d="M99.5521 195.624C99.5521 195.624 99.5222 195.594 99.5521 195.584L105.081 192.134C105.081 192.134 105.141 192.114 105.171 192.134L110.56 195.154C110.56 195.154 110.58 195.194 110.56 195.204L105.51 197.924C105.51 197.924 105.45 197.944 105.42 197.924L99.5621 195.634L99.5521 195.624Z" fill="#92B6DA"/>
</g>
<g opacity="0.5">
<path d="M91.9376 203.892C91.9376 203.892 91.8976 203.912 91.8976 203.882L90.4207 197.522C90.4207 197.522 90.4207 197.462 90.4506 197.442L95.0412 193.302C95.0412 193.302 95.0811 193.292 95.0911 193.322L96.0392 198.992C96.0392 198.992 96.0392 199.062 96.0192 199.082L91.9675 203.902L91.9376 203.892Z" fill="#92B6DA"/>
</g>
<g opacity="0.5">
<path d="M84.922 215.745C84.922 215.745 84.8821 215.725 84.9021 215.705L88.4847 210.255C88.4847 210.255 88.5346 210.215 88.5646 210.215L94.722 210.695C94.722 210.695 94.7619 210.715 94.742 210.735L91.289 215.325C91.289 215.325 91.2391 215.365 91.2092 215.365L84.932 215.735L84.922 215.745Z" fill="#92B6DA"/>
</g>
<g opacity="0.5">
<path d="M108.674 205.401C108.674 205.401 108.644 205.371 108.674 205.361L114.202 201.911C114.202 201.911 114.262 201.891 114.292 201.911L119.681 204.931C119.681 204.931 119.701 204.971 119.681 204.981L114.632 207.701C114.632 207.701 114.572 207.721 114.542 207.701L108.684 205.411L108.674 205.401Z" fill="#92B6DA"/>
</g>
<g opacity="0.5">
<path d="M101.059 213.67C101.059 213.67 101.019 213.69 101.019 213.66L99.5422 207.3C99.5422 207.3 99.5422 207.24 99.5722 207.22L104.163 203.08C104.163 203.08 104.203 203.07 104.213 203.1L105.161 208.77C105.161 208.77 105.161 208.84 105.141 208.86L101.089 213.68L101.059 213.67Z" fill="#92B6DA"/>
</g>
<g opacity="0.5">
<path d="M94.0334 225.522C94.0334 225.522 93.9934 225.502 94.0134 225.482L97.5961 220.032C97.5961 220.032 97.646 219.992 97.6759 219.992L103.833 220.472C103.833 220.472 103.873 220.492 103.853 220.512L100.4 225.102C100.4 225.102 100.35 225.142 100.321 225.142L94.0433 225.512L94.0334 225.522Z" fill="#92B6DA"/>
</g>
<g opacity="0.5">
<path d="M117.076 215.151C117.076 215.151 117.046 215.121 117.076 215.111L122.605 211.661C122.605 211.661 122.665 211.641 122.695 211.661L128.084 214.681C128.084 214.681 128.104 214.721 128.084 214.731L123.034 217.451C123.034 217.451 122.974 217.471 122.944 217.451L117.086 215.161L117.076 215.151Z" fill="#92B6DA"/>
</g>
<g opacity="0.5">
<path d="M109.462 223.42C109.462 223.42 109.422 223.44 109.422 223.41L107.945 217.05C107.945 217.05 107.945 216.99 107.975 216.97L112.566 212.83C112.566 212.83 112.606 212.82 112.616 212.85L113.564 218.52C113.564 218.52 113.564 218.59 113.544 218.61L109.492 223.43L109.462 223.42Z" fill="#92B6DA"/>
</g>
<g opacity="0.5">
<path d="M102.436 235.272C102.436 235.272 102.396 235.252 102.416 235.232L105.999 229.782C105.999 229.782 106.049 229.742 106.079 229.742L112.236 230.222C112.236 230.222 112.276 230.242 112.256 230.262L108.803 234.852C108.803 234.852 108.753 234.892 108.723 234.892L102.446 235.262L102.436 235.272Z" fill="#92B6DA"/>
</g>
</g>
<path d="M171.301 359.564C169.233 369.442 166.931 382.892 162.617 382.914C157.744 382.937 155.185 369.117 153.676 359.822L141.494 376.911C140.757 377.953 139.65 378.838 138.678 379.129C133.179 380.775 134.587 365.489 136.778 353.842C128.105 360.035 117.689 369.744 114.459 365.343C113.699 364.313 113.308 363.103 113.934 361.759L123.076 341.993C114.481 345.442 103.138 349.317 98.7677 347.156C94.6101 345.095 105.607 333.751 114.425 327.009C104.937 325.273 91.1008 327.849 89.8379 322.081C89.5585 320.827 90.855 319.113 92.2073 318.442L111.05 309.09C102.243 306.089 89.8156 301.553 89.6926 297.287C89.5585 292.381 103.171 292.202 114.258 292.012C108.1 285.908 97.2701 277.341 97.8624 273.59C98.5889 268.908 112.548 272.783 123.154 276.658C118.639 268.494 112.101 256.22 114.001 253.655C117.275 249.221 128.172 258.65 136.286 264.731C135.325 254.596 133.302 241.65 136.789 240.239C140.555 238.716 148.39 250.441 153.531 258.896C155.654 250.329 157.219 236.834 161.678 235.793C166.417 234.684 169.032 248.571 171.301 258.986C176.464 251.684 182.555 238.951 187.361 240.295C188.758 240.687 190.289 242.915 190.11 244.931L188.423 264.395L205.377 252.983C206.584 252.177 208.629 252.468 209.568 253.039C213.837 255.626 205.657 268.035 201.98 276.658C210.541 274.004 217.157 270.443 225.64 271.954C230.881 272.895 219.314 285.292 210.295 291.922L227.059 292.852C229.73 292.997 234.838 294.565 234.949 297.32C230.892 304.846 220.387 304.924 214.463 310.233C222.801 313.335 230.311 315.328 235.787 321.51C231.608 328.901 220.8 324.59 211.479 327.759L225.438 341.937C226.433 342.945 226.712 344.815 226.444 345.857C225.204 350.605 212.228 345.565 202.259 342.732L210.552 361.479C211.256 363.081 210.865 365.298 209.591 366.418C208.741 367.157 206.428 366.676 205.12 365.78L187.965 354.066L190.155 369.274C190.703 373.059 190.01 377.214 187.048 379.812C179.56 374.504 175.604 367.157 171.29 359.598L171.301 359.564Z" fill="#603813"/>
<rect x="89.5256" y="396.391" width="15.4172" height="0.203125" fill="#DCD6CB"/>
<rect x="89.7319" y="396.262" width="15.168" height="0.273438" fill="#DCD6CB"/>
<line x1="104.602" y1="396.426" x2="104.92" y2="396.292" stroke="#DCD6CB"/>
<line x1="89.5043" y1="396.801" x2="89.3125" y2="396.515" stroke="#DCD6CB"/>
</svg>
