<svg width="340" height="683" viewBox="0 0 340 683" fill="none" xmlns="http://www.w3.org/2000/svg">
<path d="M83.5722 77.7957L83.6327 84.9145C83.6931 92.2835 88.4217 98.2115 94.1859 98.1597L99.6395 98.1079C104.385 98.0648 108.553 102.112 109.822 107.953C113.437 124.616 119.745 161.512 118.83 212.888C117.622 280.831 91.5023 336.892 87.9817 343.028C87.7918 343.364 87.6193 343.692 87.4553 344.046L11.7185 461.423C10.9505 462.648 7.84407 470.949 7.44713 472.434C6.73093 475.143 6.7223 478.111 7.44713 480.873C15.3599 511.073 64.3123 674.528 120.962 676.28C201.729 678.782 237.712 678.765 244.451 674.701C245.245 674.226 245.962 673.64 246.635 672.924C256.161 662.828 321.163 568.912 333.684 473.521C334.072 470.544 333.209 467.532 331.863 465.047C309.592 423.897 263.789 373.919 246.048 335.426C227.711 295.655 216.26 234.702 216.071 212.923C215.924 195.95 216.131 134.806 216.985 108.644C217.21 101.818 221.438 96.339 226.779 95.9507C232.966 95.502 238.178 88.6508 238.351 80.7295L238.411 77.9942C238.575 70.4613 233.821 64.2227 227.927 64.2227L93.9702 64.3435C88.1801 64.3435 83.5205 70.375 83.5895 77.7785L83.5722 77.7957Z" fill="#DCD6CB" stroke="#DCD6CB" stroke-width="9" stroke-miterlimit="10"/>
<path d="M126.82 59.2259V43.9185C117.881 43.9185 110.693 37.9042 110.883 30.587L111.15 20.4568C111.409 10.4474 121.427 2.44848 133.655 2.50025L192.418 2.58654C203.558 2.6038 212.601 9.96416 212.705 19.0848L212.834 31.4412C212.912 38.629 205.983 44.5484 197.216 44.79V59.4158L126.82 59.2346V59.2259Z" fill="#CDB43A" stroke="#CDB43A" stroke-width="5" stroke-miterlimit="10"/>
<path d="M116.492 120.543C124.517 148.103 127.848 176.889 128.486 205.537C130.014 277.319 109.339 350.449 64.9423 407.468C56.1062 418.789 46.5452 429.514 36.2163 439.429C45.8549 428.85 54.9412 417.796 63.2424 406.208C71.4744 394.619 79.0766 382.47 85.7209 369.906C125.76 294.655 134.052 203.353 116.492 120.543Z" fill="#E2E3E2"/>
<path d="M303.844 435.952C225.588 366.274 193.954 262.073 208.701 159.598C210.824 145.3 213.602 131.045 218.012 117.273C217.097 120.768 216.338 124.289 215.63 127.826C210.729 152.522 208.563 177.77 208.658 202.914C209.003 291.851 240.956 372.72 303.836 435.952H303.844Z" fill="#E2E3E2"/>
<path d="M89.759 653.066C135.898 662.886 184.756 668.857 231.301 658.77C237.928 657.251 244.451 655.301 250.932 653.066C244.822 656.173 238.411 658.701 231.853 660.815C187.638 674.181 132.947 668.175 89.759 653.066Z" fill="#E2E3E2"/>
<path d="M22.6424 460.977C20.8476 469.847 19.3635 478.64 21.6501 487.484C21.9003 488.839 22.3922 490.047 22.6424 491.428C22.0988 490.987 21.5983 490.504 21.0979 490.004C13.6253 482.143 15.0318 468.259 22.6424 460.977Z" fill="#E2E3E2"/>
<path d="M316.193 489.146C317.53 484.228 318.626 479.163 318.341 474.046C318.177 468.851 317.194 463.942 316.193 458.695C324.347 466.427 325.296 481.769 316.193 489.146Z" fill="#E2E3E2"/>
<path d="M94.9365 403.541C94.9365 403.541 147.798 341.889 216.485 402.161C285.172 462.433 94.9365 403.541 94.9365 403.541Z" fill="#F7E79D"/>
<path d="M38.3647 493.194C44.6639 523.05 60.1011 587.576 82.2777 622.877C87.2653 630.824 95.04 641.359 103.85 643.094C140.877 650.385 203.377 647.132 232.75 645.009C243.545 644.233 253.322 632.86 258.939 622.98C271.054 601.693 291.126 558.376 301.679 491.167C303.016 482.65 301.472 473.892 297.235 466.54C280.037 436.684 256.083 407.001 235.701 388.035C230.343 383.048 223.664 379.855 216.562 379.329C207.718 378.673 198.122 380.761 188.673 383.255C172.917 387.423 156.781 389.727 140.549 390.011C120.987 390.356 102.28 397.234 86.8683 409.288C79.1109 415.354 72.1904 422.732 66.4176 431.248L43.8959 464.452C38.2697 472.744 36.2592 483.202 38.3647 493.186V493.194Z" fill="#EFD000"/>
<g opacity="0.5">
<g opacity="0.5">
<path d="M152.966 271.801C152.966 271.801 153.001 271.801 152.992 271.827L151.197 277.168C151.197 277.168 151.163 277.211 151.137 277.22L145.882 278.177C145.882 278.177 145.847 278.169 145.856 278.143L147.737 273.552C147.737 273.552 147.771 273.509 147.797 273.501L152.966 271.809V271.801Z" fill="#92B6DA"/>
</g>
<g opacity="0.5">
<path d="M153.519 262.116C153.519 262.116 153.536 262.081 153.553 262.099L158.023 265.524C158.023 265.524 158.058 265.567 158.049 265.593L157.255 270.874C157.255 270.874 157.238 270.9 157.212 270.891L153.476 267.63C153.476 267.63 153.441 267.578 153.441 267.561L153.51 262.124L153.519 262.116Z" fill="#92B6DA"/>
</g>
<g opacity="0.5">
<path d="M151.698 250.361C151.698 250.361 151.733 250.352 151.733 250.378L152.328 255.978C152.328 255.978 152.319 256.03 152.293 256.047L147.919 259.11C147.919 259.11 147.884 259.11 147.884 259.093L147.677 254.14C147.677 254.14 147.686 254.08 147.703 254.071L151.689 250.378L151.698 250.361Z" fill="#92B6DA"/>
</g>
<g opacity="0.5">
<path d="M142.016 269.934C142.016 269.934 142.051 269.934 142.042 269.959L140.247 275.301C140.247 275.301 140.213 275.344 140.187 275.352L134.932 276.31C134.932 276.31 134.897 276.302 134.906 276.276L136.787 271.685C136.787 271.685 136.822 271.642 136.847 271.633L142.016 269.942V269.934Z" fill="#92B6DA"/>
</g>
<g opacity="0.5">
<path d="M142.56 260.233C142.56 260.233 142.577 260.199 142.594 260.216L147.064 263.641C147.064 263.641 147.099 263.685 147.09 263.71L146.296 268.991C146.296 268.991 146.279 269.017 146.253 269.009L142.517 265.747C142.517 265.747 142.482 265.695 142.482 265.678L142.551 260.242L142.56 260.233Z" fill="#92B6DA"/>
</g>
<g opacity="0.5">
<path d="M140.748 248.478C140.748 248.478 140.782 248.469 140.782 248.495L141.377 254.095C141.377 254.095 141.369 254.147 141.343 254.164L136.968 257.228C136.968 257.228 136.934 257.228 136.934 257.21L136.727 252.257C136.727 252.257 136.735 252.197 136.752 252.188L140.739 248.495L140.748 248.478Z" fill="#92B6DA"/>
</g>
<g opacity="0.5">
<path d="M126.933 239.621C126.933 239.621 126.967 239.621 126.958 239.647L125.164 244.988C125.164 244.988 125.129 245.031 125.103 245.04L119.848 245.998C119.848 245.998 119.814 245.989 119.822 245.963L121.704 241.373C121.704 241.373 121.738 241.33 121.764 241.321L126.933 239.63V239.621Z" fill="#92B6DA"/>
</g>
<g opacity="0.5">
<path d="M127.485 229.921C127.485 229.921 127.502 229.886 127.52 229.903L131.989 233.329C131.989 233.329 132.024 233.372 132.015 233.398L131.221 238.679C131.221 238.679 131.204 238.705 131.178 238.696L127.442 235.434C127.442 235.434 127.407 235.383 127.407 235.365L127.477 229.929L127.485 229.921Z" fill="#92B6DA"/>
</g>
<g opacity="0.5">
<path d="M125.664 218.169C125.664 218.169 125.699 218.161 125.699 218.187L126.294 223.787C126.294 223.787 126.285 223.838 126.259 223.856L121.885 226.919C121.885 226.919 121.85 226.919 121.85 226.902L121.643 221.949C121.643 221.949 121.652 221.888 121.669 221.88L125.655 218.187L125.664 218.169Z" fill="#92B6DA"/>
</g>
<g opacity="0.5">
<path d="M115.982 237.738C115.982 237.738 116.017 237.738 116.008 237.764L114.213 243.105C114.213 243.105 114.179 243.149 114.153 243.157L108.898 244.115C108.898 244.115 108.864 244.106 108.872 244.08L110.753 239.49C110.753 239.49 110.788 239.447 110.814 239.438L115.982 237.747V237.738Z" fill="#92B6DA"/>
</g>
<g opacity="0.5">
<path d="M116.526 228.049C116.526 228.049 116.543 228.015 116.561 228.032L121.03 231.458C121.03 231.458 121.065 231.501 121.056 231.527L120.262 236.808C120.262 236.808 120.245 236.834 120.219 236.825L116.483 233.563C116.483 233.563 116.448 233.511 116.448 233.494L116.518 228.058L116.526 228.049Z" fill="#92B6DA"/>
</g>
<g opacity="0.5">
<path d="M114.714 216.298C114.714 216.298 114.748 216.29 114.748 216.316L115.344 221.916C115.344 221.916 115.335 221.967 115.309 221.985L110.934 225.048C110.934 225.048 110.9 225.048 110.9 225.031L110.693 220.078C110.693 220.078 110.701 220.017 110.719 220.009L114.705 216.316L114.714 216.298Z" fill="#92B6DA"/>
</g>
<g opacity="0.5">
<path d="M149.687 242.973C149.687 242.973 149.722 242.973 149.713 242.999L147.918 248.34C147.918 248.34 147.884 248.383 147.858 248.392L142.603 249.349C142.603 249.349 142.568 249.341 142.577 249.315L144.458 244.724C144.458 244.724 144.493 244.681 144.519 244.673L149.687 242.981V242.973Z" fill="#92B6DA"/>
</g>
<g opacity="0.5">
<path d="M150.231 233.284C150.231 233.284 150.248 233.249 150.265 233.267L154.735 236.692C154.735 236.692 154.77 236.735 154.761 236.761L153.967 242.042C153.967 242.042 153.95 242.068 153.924 242.059L150.188 238.798C150.188 238.798 150.153 238.746 150.153 238.729L150.222 233.292L150.231 233.284Z" fill="#92B6DA"/>
</g>
<g opacity="0.5">
<path d="M148.419 221.533C148.419 221.533 148.453 221.524 148.453 221.55L149.049 227.15C149.049 227.15 149.04 227.202 149.014 227.219L144.639 230.282C144.639 230.282 144.605 230.282 144.605 230.265L144.398 225.312C144.398 225.312 144.406 225.252 144.424 225.243L148.41 221.55L148.419 221.533Z" fill="#92B6DA"/>
</g>
<g opacity="0.5">
<path d="M138.728 241.102C138.728 241.102 138.763 241.102 138.754 241.127L136.959 246.469C136.959 246.469 136.925 246.512 136.899 246.52L131.644 247.478C131.644 247.478 131.609 247.47 131.618 247.444L133.499 242.853C133.499 242.853 133.534 242.81 133.56 242.801L138.728 241.11V241.102Z" fill="#92B6DA"/>
</g>
<g opacity="0.5">
<path d="M139.281 231.405C139.281 231.405 139.298 231.37 139.315 231.388L143.785 234.813C143.785 234.813 143.819 234.856 143.811 234.882L143.017 240.163C143.017 240.163 143 240.189 142.974 240.18L139.237 236.919C139.237 236.919 139.203 236.867 139.203 236.85L139.272 231.414L139.281 231.405Z" fill="#92B6DA"/>
</g>
<g opacity="0.5">
<path d="M137.468 219.65C137.468 219.65 137.503 219.641 137.503 219.667L138.098 225.267C138.098 225.267 138.09 225.319 138.064 225.336L133.689 228.399C133.689 228.399 133.654 228.399 133.654 228.382L133.447 223.429C133.447 223.429 133.456 223.369 133.473 223.36L137.46 219.667L137.468 219.65Z" fill="#92B6DA"/>
</g>
<g opacity="0.5">
<path d="M129.59 270.348C129.59 270.348 129.625 270.348 129.616 270.374L127.821 275.715C127.821 275.715 127.787 275.758 127.761 275.767L122.506 276.724C122.506 276.724 122.472 276.716 122.48 276.69L124.361 272.099C124.361 272.099 124.396 272.056 124.422 272.048L129.59 270.356V270.348Z" fill="#92B6DA"/>
</g>
<g opacity="0.5">
<path d="M130.134 260.659C130.134 260.659 130.151 260.624 130.169 260.642L134.638 264.067C134.638 264.067 134.673 264.11 134.664 264.136L133.87 269.417C133.87 269.417 133.853 269.443 133.827 269.434L130.091 266.173C130.091 266.173 130.056 266.121 130.056 266.104L130.125 260.667L130.134 260.659Z" fill="#92B6DA"/>
</g>
<g opacity="0.5">
<path d="M128.322 248.904C128.322 248.904 128.356 248.895 128.356 248.921L128.952 254.521C128.952 254.521 128.943 254.573 128.917 254.59L124.542 257.653C124.542 257.653 124.508 257.653 124.508 257.636L124.301 252.683C124.301 252.683 124.309 252.623 124.327 252.614L128.313 248.921L128.322 248.904Z" fill="#92B6DA"/>
</g>
<g opacity="0.5">
<path d="M118.631 268.465C118.631 268.465 118.666 268.465 118.657 268.491L116.862 273.832C116.862 273.832 116.828 273.875 116.802 273.884L111.547 274.842C111.547 274.842 111.513 274.833 111.521 274.807L113.402 270.217C113.402 270.217 113.437 270.173 113.463 270.165L118.631 268.473V268.465Z" fill="#92B6DA"/>
</g>
<g opacity="0.5">
<path d="M119.184 258.776C119.184 258.776 119.201 258.741 119.218 258.759L123.688 262.184C123.688 262.184 123.722 262.228 123.714 262.253L122.92 267.534C122.92 267.534 122.903 267.56 122.877 267.551L119.14 264.29C119.14 264.29 119.106 264.238 119.106 264.221L119.175 258.785L119.184 258.776Z" fill="#92B6DA"/>
</g>
<g opacity="0.5">
<path d="M117.371 247.025C117.371 247.025 117.406 247.016 117.406 247.042L118.001 252.642C118.001 252.642 117.993 252.694 117.967 252.711L113.592 255.774C113.592 255.774 113.557 255.774 113.557 255.757L113.35 250.804C113.35 250.804 113.359 250.744 113.376 250.735L117.363 247.042L117.371 247.025Z" fill="#92B6DA"/>
</g>
<g opacity="0.5">
<path d="M170.725 246.789C170.725 246.789 170.759 246.789 170.75 246.815L168.956 252.156C168.956 252.156 168.921 252.199 168.895 252.208L163.64 253.166C163.64 253.166 163.606 253.157 163.614 253.131L165.496 248.541C165.496 248.541 165.53 248.498 165.556 248.489L170.725 246.798V246.789Z" fill="#92B6DA"/>
</g>
<g opacity="0.5">
<path d="M171.277 237.088C171.277 237.088 171.294 237.054 171.312 237.071L175.781 240.497C175.781 240.497 175.816 240.54 175.807 240.566L175.013 245.847C175.013 245.847 174.996 245.873 174.97 245.864L171.234 242.602C171.234 242.602 171.199 242.551 171.199 242.533L171.269 237.097L171.277 237.088Z" fill="#92B6DA"/>
</g>
<g opacity="0.5">
<path d="M169.465 225.337C169.465 225.337 169.499 225.329 169.499 225.355L170.095 230.955C170.095 230.955 170.086 231.006 170.06 231.024L165.685 234.087C165.685 234.087 165.651 234.087 165.651 234.07L165.444 229.117C165.444 229.117 165.452 229.056 165.47 229.048L169.456 225.355L169.465 225.337Z" fill="#92B6DA"/>
</g>
<g opacity="0.5">
<path d="M159.775 244.91C159.775 244.91 159.809 244.91 159.8 244.936L158.006 250.277C158.006 250.277 157.971 250.32 157.945 250.329L152.69 251.287C152.69 251.287 152.656 251.278 152.664 251.252L154.546 246.662C154.546 246.662 154.58 246.619 154.606 246.61L159.775 244.919V244.91Z" fill="#92B6DA"/>
</g>
<g opacity="0.5">
<path d="M160.327 235.217C160.327 235.217 160.344 235.183 160.361 235.2L164.831 238.626C164.831 238.626 164.866 238.669 164.857 238.695L164.063 243.976C164.063 243.976 164.046 244.002 164.02 243.993L160.284 240.731C160.284 240.731 160.249 240.679 160.249 240.662L160.318 235.226L160.327 235.217Z" fill="#92B6DA"/>
</g>
<g opacity="0.5">
<path d="M158.506 223.455C158.506 223.455 158.541 223.446 158.541 223.472L159.136 229.072C159.136 229.072 159.127 229.124 159.102 229.141L154.727 232.204C154.727 232.204 154.692 232.204 154.692 232.187L154.485 227.234C154.485 227.234 154.494 227.174 154.511 227.165L158.497 223.472L158.506 223.455Z" fill="#92B6DA"/>
</g>
<g opacity="0.5">
<path d="M173.831 255.626C173.831 255.626 173.866 255.618 173.866 255.644L174.461 261.244C174.461 261.244 174.452 261.295 174.426 261.313L170.052 264.376C170.052 264.376 170.017 264.376 170.017 264.359L169.81 259.406C169.81 259.406 169.819 259.345 169.836 259.337L173.822 255.644L173.831 255.626Z" fill="#92B6DA"/>
</g>
<g opacity="0.5">
<path d="M164.141 275.188C164.141 275.188 164.175 275.187 164.167 275.213L162.372 280.555C162.372 280.555 162.337 280.598 162.311 280.606L157.057 281.564C157.057 281.564 157.022 281.556 157.031 281.53L158.912 276.939C158.912 276.939 158.946 276.896 158.972 276.887L164.141 275.196V275.188Z" fill="#92B6DA"/>
</g>
<g opacity="0.5">
<path d="M164.684 265.499C164.684 265.499 164.701 265.464 164.719 265.481L169.188 268.907C169.188 268.907 169.223 268.95 169.214 268.976L168.42 274.257C168.42 274.257 168.403 274.283 168.377 274.274L164.641 271.012C164.641 271.012 164.606 270.961 164.606 270.943L164.675 265.507L164.684 265.499Z" fill="#92B6DA"/>
</g>
<g opacity="0.5">
<path d="M162.872 253.744C162.872 253.744 162.907 253.735 162.907 253.761L163.502 259.361C163.502 259.361 163.494 259.413 163.468 259.43L159.093 262.493C159.093 262.493 159.058 262.493 159.058 262.476L158.851 257.523C158.851 257.523 158.86 257.463 158.877 257.454L162.864 253.761L162.872 253.744Z" fill="#92B6DA"/>
</g>
<g opacity="0.5">
<path d="M169.051 214.957C169.051 214.957 169.085 214.957 169.077 214.983L167.282 220.324C167.282 220.324 167.247 220.367 167.221 220.376L161.966 221.334C161.966 221.334 161.932 221.325 161.941 221.299L163.822 216.709C163.822 216.709 163.856 216.666 163.882 216.657L169.051 214.966V214.957Z" fill="#92B6DA"/>
</g>
<g opacity="0.5">
<path d="M158.092 213.078C158.092 213.078 158.126 213.078 158.118 213.104L156.323 218.445C156.323 218.445 156.288 218.488 156.262 218.497L151.007 219.455C151.007 219.455 150.973 219.446 150.982 219.42L152.863 214.83C152.863 214.83 152.897 214.787 152.923 214.778L158.092 213.087V213.078Z" fill="#92B6DA"/>
</g>
<g opacity="0.5">
<path d="M158.644 203.389C158.644 203.389 158.661 203.355 158.679 203.372L163.148 206.798C163.148 206.798 163.183 206.841 163.174 206.867L162.38 212.147C162.38 212.147 162.363 212.173 162.337 212.165L158.601 208.903C158.601 208.903 158.566 208.851 158.566 208.834L158.635 203.398L158.644 203.389Z" fill="#92B6DA"/>
</g>
<g opacity="0.5">
<path d="M156.832 191.634C156.832 191.634 156.866 191.626 156.866 191.651L157.462 197.252C157.462 197.252 157.453 197.303 157.427 197.321L153.052 200.384C153.052 200.384 153.018 200.384 153.018 200.367L152.811 195.414C152.811 195.414 152.819 195.353 152.837 195.345L156.823 191.651L156.832 191.634Z" fill="#92B6DA"/>
</g>
<g opacity="0.5">
<path d="M146.632 211.402C146.632 211.402 146.667 211.402 146.658 211.428L144.863 216.769C144.863 216.769 144.829 216.813 144.803 216.821L139.548 217.779C139.548 217.779 139.514 217.77 139.522 217.744L141.403 213.154C141.403 213.154 141.438 213.111 141.464 213.102L146.632 211.411V211.402Z" fill="#92B6DA"/>
</g>
<g opacity="0.5">
<path d="M147.185 201.713C147.185 201.713 147.203 201.679 147.22 201.696L151.69 205.122C151.69 205.122 151.724 205.165 151.715 205.191L150.922 210.472C150.922 210.472 150.904 210.498 150.878 210.489L147.142 207.227C147.142 207.227 147.108 207.176 147.108 207.158L147.177 201.722L147.185 201.713Z" fill="#92B6DA"/>
</g>
<g opacity="0.5">
<path d="M145.373 189.958C145.373 189.958 145.407 189.95 145.407 189.976L146.002 195.576C146.002 195.576 145.994 195.628 145.968 195.645L141.593 198.708C141.593 198.708 141.559 198.708 141.559 198.691L141.352 193.738C141.352 193.738 141.36 193.677 141.377 193.669L145.364 189.976L145.373 189.958Z" fill="#92B6DA"/>
</g>
<g opacity="0.5">
<path d="M135.682 209.52C135.682 209.52 135.717 209.52 135.708 209.545L133.913 214.887C133.913 214.887 133.879 214.93 133.853 214.938L128.598 215.896C128.598 215.896 128.564 215.888 128.572 215.862L130.453 211.271C130.453 211.271 130.488 211.228 130.514 211.219L135.682 209.528V209.52Z" fill="#92B6DA"/>
</g>
<g opacity="0.5">
<path d="M136.226 199.831C136.226 199.831 136.243 199.796 136.26 199.813L140.73 203.239C140.73 203.239 140.765 203.282 140.756 203.308L139.962 208.589C139.962 208.589 139.945 208.615 139.919 208.606L136.183 205.344C136.183 205.344 136.148 205.293 136.148 205.275L136.217 199.839L136.226 199.831Z" fill="#92B6DA"/>
</g>
<g opacity="0.5">
<path d="M134.414 188.08C134.414 188.08 134.448 188.071 134.448 188.097L135.044 193.697C135.044 193.697 135.035 193.749 135.009 193.766L130.634 196.829C130.634 196.829 130.6 196.829 130.6 196.812L130.393 191.859C130.393 191.859 130.401 191.799 130.419 191.79L134.405 188.097L134.414 188.08Z" fill="#92B6DA"/>
</g>
<g opacity="0.5">
<path d="M124.223 208.02C124.223 208.02 124.257 208.02 124.248 208.045L122.454 213.387C122.454 213.387 122.419 213.43 122.393 213.438L117.138 214.396C117.138 214.396 117.104 214.388 117.112 214.362L118.994 209.771C118.994 209.771 119.028 209.728 119.054 209.719L124.223 208.028V208.02Z" fill="#92B6DA"/>
</g>
<g opacity="0.5">
<path d="M124.775 198.331C124.775 198.331 124.793 198.296 124.81 198.313L129.28 201.739C129.28 201.739 129.314 201.782 129.306 201.808L128.512 207.089C128.512 207.089 128.494 207.115 128.469 207.106L124.732 203.844C124.732 203.844 124.698 203.793 124.698 203.775L124.767 198.339L124.775 198.331Z" fill="#92B6DA"/>
</g>
<g opacity="0.5">
<path d="M122.963 186.579C122.963 186.579 122.998 186.571 122.998 186.597L123.593 192.197C123.593 192.197 123.584 192.249 123.559 192.266L119.184 195.329C119.184 195.329 119.149 195.329 119.149 195.312L118.942 190.359C118.942 190.359 118.951 190.299 118.968 190.29L122.955 186.597L122.963 186.579Z" fill="#92B6DA"/>
</g>
<g opacity="0.5">
<path d="M113.273 206.145C113.273 206.145 113.307 206.145 113.299 206.17L111.504 211.512C111.504 211.512 111.469 211.555 111.444 211.563L106.189 212.521C106.189 212.521 106.154 212.513 106.163 212.487L108.044 207.896C108.044 207.896 108.078 207.853 108.104 207.844L113.273 206.153V206.145Z" fill="#92B6DA"/>
</g>
<g opacity="0.5">
<path d="M113.825 196.448C113.825 196.448 113.842 196.413 113.859 196.431L118.329 199.856C118.329 199.856 118.364 199.899 118.355 199.925L117.561 205.206C117.561 205.206 117.544 205.232 117.518 205.223L113.782 201.962C113.782 201.962 113.747 201.91 113.747 201.893L113.816 196.456L113.825 196.448Z" fill="#92B6DA"/>
</g>
<g opacity="0.5">
<path d="M149.765 359.73C149.765 359.73 149.8 359.73 149.791 359.756L147.996 365.098C147.996 365.098 147.962 365.141 147.936 365.149L142.681 366.107C142.681 366.107 142.646 366.098 142.655 366.073L144.536 361.482C144.536 361.482 144.571 361.439 144.596 361.43L149.765 359.739V359.73Z" fill="#92B6DA"/>
</g>
<g opacity="0.5">
<path d="M150.309 350.034C150.309 350.034 150.326 349.999 150.343 350.017L154.813 353.442C154.813 353.442 154.847 353.485 154.839 353.511L154.045 358.792C154.045 358.792 154.028 358.818 154.002 358.809L150.265 355.548C150.265 355.548 150.231 355.496 150.231 355.479L150.3 350.042L150.309 350.034Z" fill="#92B6DA"/>
</g>
<g opacity="0.5">
<path d="M148.497 338.279C148.497 338.279 148.531 338.27 148.531 338.296L149.127 343.896C149.127 343.896 149.118 343.948 149.092 343.965L144.717 347.028C144.717 347.028 144.683 347.028 144.683 347.011L144.476 342.058C144.476 342.058 144.484 341.998 144.501 341.989L148.488 338.296L148.497 338.279Z" fill="#92B6DA"/>
</g>
<g opacity="0.5">
<path d="M138.806 357.852C138.806 357.852 138.84 357.852 138.832 357.877L137.037 363.219C137.037 363.219 137.002 363.262 136.977 363.27L131.722 364.228C131.722 364.228 131.687 364.22 131.696 364.194L133.577 359.603C133.577 359.603 133.611 359.56 133.637 359.551L138.806 357.86V357.852Z" fill="#92B6DA"/>
</g>
<g opacity="0.5">
<path d="M139.359 348.159C139.359 348.159 139.376 348.124 139.393 348.142L143.863 351.567C143.863 351.567 143.897 351.61 143.889 351.636L143.095 356.917C143.095 356.917 143.078 356.943 143.052 356.934L139.316 353.673C139.316 353.673 139.281 353.621 139.281 353.604L139.35 348.167L139.359 348.159Z" fill="#92B6DA"/>
</g>
<g opacity="0.5">
<path d="M137.546 336.4C137.546 336.4 137.581 336.391 137.581 336.417L138.176 342.017C138.176 342.017 138.167 342.069 138.142 342.086L133.767 345.149C133.767 345.149 133.732 345.149 133.732 345.132L133.525 340.179C133.525 340.179 133.534 340.119 133.551 340.11L137.538 336.417L137.546 336.4Z" fill="#92B6DA"/>
</g>
<g opacity="0.5">
<path d="M123.731 327.535C123.731 327.535 123.765 327.535 123.757 327.561L121.962 332.902C121.962 332.902 121.927 332.945 121.901 332.954L116.646 333.912C116.646 333.912 116.612 333.903 116.621 333.877L118.502 329.287C118.502 329.287 118.536 329.244 118.562 329.235L123.731 327.544V327.535Z" fill="#92B6DA"/>
</g>
<g opacity="0.5">
<path d="M124.275 317.846C124.275 317.846 124.292 317.812 124.309 317.829L128.779 321.255C128.779 321.255 128.814 321.298 128.805 321.324L128.011 326.605C128.011 326.605 127.994 326.63 127.968 326.622L124.232 323.36C124.232 323.36 124.197 323.308 124.197 323.291L124.266 317.855L124.275 317.846Z" fill="#92B6DA"/>
</g>
<g opacity="0.5">
<path d="M122.463 306.095C122.463 306.095 122.497 306.086 122.497 306.112L123.093 311.712C123.093 311.712 123.084 311.764 123.058 311.782L118.683 314.845C118.683 314.845 118.649 314.845 118.649 314.827L118.442 309.875C118.442 309.875 118.45 309.814 118.468 309.806L122.454 306.112L122.463 306.095Z" fill="#92B6DA"/>
</g>
<g opacity="0.5">
<path d="M112.772 325.664C112.772 325.664 112.807 325.664 112.798 325.69L111.003 331.031C111.003 331.031 110.969 331.074 110.943 331.083L105.688 332.041C105.688 332.041 105.653 332.032 105.662 332.006L107.543 327.416C107.543 327.416 107.578 327.373 107.604 327.364L112.772 325.673V325.664Z" fill="#92B6DA"/>
</g>
<g opacity="0.5">
<path d="M113.324 315.967C113.324 315.967 113.342 315.933 113.359 315.95L117.829 319.376C117.829 319.376 117.863 319.419 117.855 319.445L117.061 324.726C117.061 324.726 117.043 324.751 117.018 324.743L113.281 321.481C113.281 321.481 113.247 321.429 113.247 321.412L113.316 315.976L113.324 315.967Z" fill="#92B6DA"/>
</g>
<g opacity="0.5">
<path d="M111.512 304.212C111.512 304.212 111.547 304.204 111.547 304.23L112.142 309.83C112.142 309.83 112.134 309.881 112.108 309.899L107.733 312.962C107.733 312.962 107.699 312.962 107.699 312.945L107.491 307.992C107.491 307.992 107.5 307.931 107.517 307.923L111.504 304.23L111.512 304.212Z" fill="#92B6DA"/>
</g>
<g opacity="0.5">
<path d="M146.486 330.902C146.486 330.902 146.52 330.902 146.512 330.928L144.717 336.269C144.717 336.269 144.682 336.313 144.656 336.321L139.402 337.279C139.402 337.279 139.367 337.27 139.376 337.245L141.257 332.654C141.257 332.654 141.291 332.611 141.317 332.602L146.486 330.911V330.902Z" fill="#92B6DA"/>
</g>
<g opacity="0.5">
<path d="M145.217 309.454C145.217 309.454 145.252 309.446 145.252 309.472L145.847 315.072C145.847 315.072 145.839 315.124 145.813 315.141L141.438 318.204C141.438 318.204 141.403 318.204 141.403 318.187L141.196 313.234C141.196 313.234 141.205 313.174 141.222 313.165L145.209 309.472L145.217 309.454Z" fill="#92B6DA"/>
</g>
<g opacity="0.5">
<path d="M135.527 329.023C135.527 329.023 135.562 329.023 135.553 329.049L133.758 334.391C133.758 334.391 133.724 334.434 133.698 334.442L128.443 335.4C128.443 335.4 128.408 335.391 128.417 335.366L130.298 330.775C130.298 330.775 130.333 330.732 130.358 330.723L135.527 329.032V329.023Z" fill="#92B6DA"/>
</g>
<g opacity="0.5">
<path d="M136.079 319.335C136.079 319.335 136.096 319.3 136.114 319.317L140.583 322.743C140.583 322.743 140.618 322.786 140.609 322.812L139.815 328.093C139.815 328.093 139.798 328.119 139.772 328.11L136.036 324.848C136.036 324.848 136.001 324.797 136.001 324.779L136.071 319.343L136.079 319.335Z" fill="#92B6DA"/>
</g>
<g opacity="0.5">
<path d="M134.267 307.58C134.267 307.58 134.302 307.571 134.302 307.597L134.897 313.197C134.897 313.197 134.888 313.249 134.863 313.266L130.488 316.329C130.488 316.329 130.453 316.329 130.453 316.312L130.246 311.359C130.246 311.359 130.255 311.299 130.272 311.29L134.258 307.597L134.267 307.58Z" fill="#92B6DA"/>
</g>
<g opacity="0.5">
<path d="M126.933 348.573C126.933 348.573 126.95 348.538 126.967 348.556L131.437 351.981C131.437 351.981 131.471 352.024 131.463 352.05L130.669 357.331C130.669 357.331 130.652 357.357 130.626 357.348L126.889 354.087C126.889 354.087 126.855 354.035 126.855 354.018L126.924 348.581L126.933 348.573Z" fill="#92B6DA"/>
</g>
<g opacity="0.5">
<path d="M125.12 336.822C125.12 336.822 125.155 336.813 125.155 336.839L125.75 342.439C125.75 342.439 125.742 342.491 125.716 342.508L121.341 345.571C121.341 345.571 121.306 345.571 121.306 345.554L121.099 340.601C121.099 340.601 121.108 340.541 121.125 340.532L125.112 336.839L125.12 336.822Z" fill="#92B6DA"/>
</g>
<g opacity="0.5">
<path d="M115.982 346.694C115.982 346.694 115.999 346.659 116.017 346.677L120.486 350.102C120.486 350.102 120.521 350.145 120.512 350.171L119.718 355.452C119.718 355.452 119.701 355.478 119.675 355.469L115.939 352.208C115.939 352.208 115.905 352.156 115.905 352.139L115.974 346.703L115.982 346.694Z" fill="#92B6DA"/>
</g>
<g opacity="0.5">
<path d="M114.17 334.939C114.17 334.939 114.205 334.93 114.205 334.956L114.8 340.556C114.8 340.556 114.791 340.608 114.766 340.625L110.391 343.688C110.391 343.688 110.356 343.688 110.356 343.671L110.149 338.718C110.149 338.718 110.158 338.658 110.175 338.649L114.162 334.956L114.17 334.939Z" fill="#92B6DA"/>
</g>
<g opacity="0.5">
<path d="M171.889 364.996C171.889 364.996 171.924 364.996 171.915 365.022L170.12 370.363C170.12 370.363 170.086 370.406 170.06 370.415L164.805 371.373C164.805 371.373 164.771 371.364 164.779 371.338L166.66 366.748C166.66 366.748 166.695 366.705 166.721 366.696L171.889 365.005V364.996Z" fill="#92B6DA"/>
</g>
<g opacity="0.5">
<path d="M160.931 363.117C160.931 363.117 160.965 363.117 160.957 363.143L159.162 368.484C159.162 368.484 159.127 368.527 159.102 368.536L153.847 369.494C153.847 369.494 153.812 369.485 153.821 369.459L155.702 364.869C155.702 364.869 155.736 364.826 155.762 364.817L160.931 363.126V363.117Z" fill="#92B6DA"/>
</g>
<g opacity="0.5">
<path d="M161.483 353.424C161.483 353.424 161.5 353.39 161.517 353.407L165.987 356.833C165.987 356.833 166.022 356.876 166.013 356.902L165.219 362.183C165.219 362.183 165.202 362.209 165.176 362.2L161.44 358.938C161.44 358.938 161.405 358.886 161.405 358.869L161.474 353.433L161.483 353.424Z" fill="#92B6DA"/>
</g>
<g opacity="0.5">
<path d="M159.671 341.662C159.671 341.662 159.705 341.653 159.705 341.679L160.301 347.279C160.301 347.279 160.292 347.331 160.266 347.348L155.892 350.411C155.892 350.411 155.857 350.411 155.857 350.394L155.65 345.441C155.65 345.441 155.659 345.381 155.676 345.372L159.662 341.679L159.671 341.662Z" fill="#92B6DA"/>
</g>
<g opacity="0.5">
<path d="M164.581 281.435C164.581 281.435 164.615 281.426 164.615 281.452L165.211 287.052C165.211 287.052 165.202 287.104 165.176 287.121L160.801 290.185C160.801 290.185 160.767 290.185 160.767 290.167L160.56 285.214C160.56 285.214 160.568 285.154 160.586 285.145L164.572 281.452L164.581 281.435Z" fill="#92B6DA"/>
</g>
<g opacity="0.5">
<path d="M154.89 301.004C154.89 301.004 154.925 301.004 154.916 301.03L153.121 306.371C153.121 306.371 153.087 306.414 153.061 306.423L147.806 307.381C147.806 307.381 147.772 307.372 147.78 307.346L149.661 302.756C149.661 302.756 149.696 302.712 149.722 302.704L154.89 301.013V301.004Z" fill="#92B6DA"/>
</g>
<g opacity="0.5">
<path d="M155.443 291.307C155.443 291.307 155.46 291.273 155.477 291.29L159.947 294.716C159.947 294.716 159.981 294.759 159.973 294.785L159.179 300.065C159.179 300.065 159.162 300.091 159.136 300.083L155.4 296.821C155.4 296.821 155.365 296.769 155.365 296.752L155.434 291.316L155.443 291.307Z" fill="#92B6DA"/>
</g>
<g opacity="0.5">
<path d="M153.631 279.552C153.631 279.552 153.665 279.544 153.665 279.569L154.261 285.17C154.261 285.17 154.252 285.221 154.226 285.239L149.851 288.302C149.851 288.302 149.817 288.302 149.817 288.284L149.61 283.332C149.61 283.332 149.618 283.271 149.636 283.263L153.622 279.569L153.631 279.552Z" fill="#92B6DA"/>
</g>
<g opacity="0.5">
<path d="M143.431 299.332C143.431 299.332 143.465 299.332 143.457 299.358L141.662 304.699C141.662 304.699 141.627 304.742 141.602 304.751L136.347 305.709C136.347 305.709 136.312 305.7 136.321 305.674L138.202 301.084C138.202 301.084 138.236 301.041 138.262 301.032L143.431 299.341V299.332Z" fill="#92B6DA"/>
</g>
<g opacity="0.5">
<path d="M143.984 289.631C143.984 289.631 144.001 289.597 144.018 289.614L148.488 293.04C148.488 293.04 148.522 293.083 148.514 293.109L147.72 298.39C147.72 298.39 147.703 298.416 147.677 298.407L143.941 295.145C143.941 295.145 143.906 295.094 143.906 295.076L143.975 289.64L143.984 289.631Z" fill="#92B6DA"/>
</g>
<g opacity="0.5">
<path d="M142.163 277.876C142.163 277.876 142.197 277.868 142.197 277.894L142.793 283.494C142.793 283.494 142.784 283.545 142.758 283.563L138.383 286.626C138.383 286.626 138.349 286.626 138.349 286.609L138.142 281.656C138.142 281.656 138.15 281.595 138.167 281.587L142.154 277.894L142.163 277.876Z" fill="#92B6DA"/>
</g>
<g opacity="0.5">
<path d="M132.472 297.449C132.472 297.449 132.507 297.449 132.498 297.475L130.703 302.816C130.703 302.816 130.669 302.859 130.643 302.868L125.388 303.826C125.388 303.826 125.354 303.817 125.362 303.791L127.243 299.201C127.243 299.201 127.278 299.158 127.304 299.149L132.472 297.458V297.449Z" fill="#92B6DA"/>
</g>
<g opacity="0.5">
<path d="M133.024 287.756C133.024 287.756 133.042 287.722 133.059 287.739L137.529 291.165C137.529 291.165 137.563 291.208 137.555 291.234L136.761 296.515C136.761 296.515 136.743 296.541 136.718 296.532L132.981 293.27C132.981 293.27 132.947 293.218 132.947 293.201L133.016 287.765L133.024 287.756Z" fill="#92B6DA"/>
</g>
<g opacity="0.5">
<path d="M131.212 275.997C131.212 275.997 131.247 275.989 131.247 276.015L131.842 281.615C131.842 281.615 131.834 281.667 131.808 281.684L127.433 284.747C127.433 284.747 127.399 284.747 127.399 284.73L127.191 279.777C127.191 279.777 127.2 279.717 127.217 279.708L131.204 276.015L131.212 275.997Z" fill="#92B6DA"/>
</g>
<g opacity="0.5">
<path d="M121.021 295.945C121.021 295.945 121.056 295.945 121.047 295.971L119.253 301.312C119.253 301.312 119.218 301.356 119.192 301.364L113.937 302.322C113.937 302.322 113.903 302.313 113.911 302.287L115.792 297.697C115.792 297.697 115.827 297.654 115.853 297.645L121.021 295.954V295.945Z" fill="#92B6DA"/>
</g>
<g opacity="0.5">
<path d="M121.574 286.249C121.574 286.249 121.591 286.214 121.609 286.231L126.078 289.657C126.078 289.657 126.113 289.7 126.104 289.726L125.31 295.007C125.31 295.007 125.293 295.033 125.267 295.024L121.531 291.762C121.531 291.762 121.496 291.711 121.496 291.693L121.565 286.257L121.574 286.249Z" fill="#92B6DA"/>
</g>
<g opacity="0.5">
<path d="M119.761 274.497C119.761 274.497 119.796 274.489 119.796 274.515L120.391 280.115C120.391 280.115 120.383 280.167 120.357 280.184L115.982 283.247C115.982 283.247 115.948 283.247 115.948 283.23L115.74 278.277C115.74 278.277 115.749 278.216 115.766 278.208L119.753 274.515L119.761 274.497Z" fill="#92B6DA"/>
</g>
<g opacity="0.5">
<path d="M110.071 294.066C110.071 294.066 110.106 294.066 110.097 294.092L108.303 299.434C108.303 299.434 108.268 299.477 108.242 299.485L102.987 300.443C102.987 300.443 102.953 300.434 102.961 300.409L104.842 295.818C104.842 295.818 104.877 295.775 104.903 295.766L110.071 294.075V294.066Z" fill="#92B6DA"/>
</g>
<g opacity="0.5">
<path d="M110.615 284.378C110.615 284.378 110.633 284.343 110.65 284.36L115.119 287.786C115.119 287.786 115.154 287.829 115.145 287.855L114.352 293.136C114.352 293.136 114.334 293.162 114.308 293.153L110.572 289.891C110.572 289.891 110.538 289.84 110.538 289.822L110.607 284.386L110.615 284.378Z" fill="#92B6DA"/>
</g>
<g opacity="0.5">
<path d="M108.803 272.622C108.803 272.622 108.838 272.614 108.838 272.64L109.433 278.24C109.433 278.24 109.424 278.292 109.398 278.309L105.024 281.372C105.024 281.372 104.989 281.372 104.989 281.355L104.782 276.402C104.782 276.402 104.791 276.341 104.808 276.333L108.794 272.64L108.803 272.622Z" fill="#92B6DA"/>
</g>
</g>
<g opacity="0.5">
<g opacity="0.5">
<path d="M114.714 145.216C114.714 145.216 114.679 145.233 114.679 145.216L113.065 139.814C113.065 139.814 113.065 139.762 113.083 139.745L116.819 135.94C116.819 135.94 116.853 135.931 116.862 135.948L117.975 140.78C117.975 140.78 117.975 140.841 117.958 140.858L114.714 145.224V145.216Z" fill="#92B6DA"/>
</g>
<g opacity="0.5">
<path d="M119.856 153.449C119.856 153.449 119.856 153.483 119.839 153.483L114.213 153.267C114.213 153.267 114.161 153.25 114.153 153.224L111.754 148.452C111.754 148.452 111.754 148.418 111.78 148.418L116.715 148.918C116.715 148.918 116.767 148.936 116.784 148.962L119.865 153.44L119.856 153.449Z" fill="#92B6DA"/>
</g>
<g opacity="0.5">
<path d="M128.123 162.006C128.123 162.006 128.097 162.031 128.089 162.014L124.37 157.786C124.37 157.786 124.344 157.734 124.352 157.717L126.156 152.695C126.156 152.695 126.182 152.669 126.199 152.695L129.228 156.621C129.228 156.621 129.254 156.673 129.245 156.699L128.115 162.023L128.123 162.006Z" fill="#92B6DA"/>
</g>
<g opacity="0.5">
<path d="M124.749 140.434C124.749 140.434 124.715 140.452 124.715 140.434L123.101 135.033C123.101 135.033 123.101 134.981 123.119 134.964L126.855 131.158C126.855 131.158 126.889 131.15 126.898 131.167L128.011 135.999C128.011 135.999 128.011 136.06 127.994 136.077L124.749 140.443V140.434Z" fill="#92B6DA"/>
</g>
<g opacity="0.5">
<path d="M129.892 148.663C129.892 148.663 129.892 148.698 129.875 148.698L124.249 148.482C124.249 148.482 124.197 148.465 124.188 148.439L121.79 143.667C121.79 143.667 121.79 143.633 121.815 143.633L126.751 144.133C126.751 144.133 126.803 144.151 126.82 144.176L129.901 148.655L129.892 148.663Z" fill="#92B6DA"/>
</g>
<g opacity="0.5">
<path d="M138.15 157.216C138.15 157.216 138.124 157.242 138.116 157.225L134.397 152.997C134.397 152.997 134.371 152.945 134.379 152.928L136.183 147.906C136.183 147.906 136.209 147.88 136.226 147.906L139.255 151.832C139.255 151.832 139.281 151.884 139.272 151.91L138.142 157.234L138.15 157.216Z" fill="#92B6DA"/>
</g>
<g opacity="0.5">
<path d="M134.034 166.864C134.034 166.864 133.999 166.881 133.999 166.864L132.386 161.462C132.386 161.462 132.386 161.411 132.403 161.393L136.139 157.588C136.139 157.588 136.174 157.579 136.182 157.597L137.296 162.429C137.296 162.429 137.296 162.489 137.278 162.507L134.034 166.873V166.864Z" fill="#92B6DA"/>
</g>
<g opacity="0.5">
<path d="M139.177 175.105C139.177 175.105 139.177 175.139 139.159 175.139L133.533 174.924C133.533 174.924 133.482 174.906 133.473 174.88L131.074 170.109C131.074 170.109 131.074 170.074 131.1 170.074L136.036 170.575C136.036 170.575 136.088 170.592 136.105 170.618L139.185 175.096L139.177 175.105Z" fill="#92B6DA"/>
</g>
<g opacity="0.5">
<path d="M147.435 183.658C147.435 183.658 147.409 183.684 147.4 183.667L143.681 179.438C143.681 179.438 143.655 179.387 143.664 179.369L145.468 174.347C145.468 174.347 145.493 174.322 145.511 174.347L148.539 178.274C148.539 178.274 148.565 178.325 148.557 178.351L147.426 183.675L147.435 183.658Z" fill="#92B6DA"/>
</g>
<g opacity="0.5">
<path d="M144.061 162.083C144.061 162.083 144.027 162.1 144.027 162.083L142.413 156.681C142.413 156.681 142.413 156.629 142.43 156.612L146.167 152.807C146.167 152.807 146.201 152.798 146.21 152.815L147.323 157.648C147.323 157.648 147.323 157.708 147.306 157.725L144.061 162.091V162.083Z" fill="#92B6DA"/>
</g>
<g opacity="0.5">
<path d="M149.204 170.316C149.204 170.316 149.204 170.35 149.187 170.35L143.561 170.135C143.561 170.135 143.509 170.117 143.5 170.091L141.101 165.32C141.101 165.32 141.101 165.285 141.127 165.285L146.063 165.786C146.063 165.786 146.115 165.803 146.132 165.829L149.212 170.307L149.204 170.316Z" fill="#92B6DA"/>
</g>
<g opacity="0.5">
<path d="M157.471 178.865C157.471 178.865 157.445 178.891 157.436 178.874L153.717 174.645C153.717 174.645 153.691 174.594 153.7 174.576L155.503 169.554C155.503 169.554 155.529 169.529 155.546 169.554L158.575 173.481C158.575 173.481 158.601 173.532 158.592 173.558L157.462 178.882L157.471 178.865Z" fill="#92B6DA"/>
</g>
<g opacity="0.5">
<path d="M134.655 132.919C134.655 132.919 134.621 132.936 134.621 132.919L133.007 127.517C133.007 127.517 133.007 127.465 133.024 127.448L136.761 123.643C136.761 123.643 136.795 123.634 136.804 123.651L137.917 128.484C137.917 128.484 137.917 128.544 137.9 128.561L134.655 132.927V132.919Z" fill="#92B6DA"/>
</g>
<g opacity="0.5">
<path d="M139.798 141.148C139.798 141.148 139.798 141.182 139.781 141.182L134.155 140.967C134.155 140.967 134.103 140.949 134.094 140.923L131.696 136.152C131.696 136.152 131.696 136.117 131.721 136.117L136.657 136.618C136.657 136.618 136.709 136.635 136.726 136.661L139.807 141.139L139.798 141.148Z" fill="#92B6DA"/>
</g>
<g opacity="0.5">
<path d="M148.056 149.713C148.056 149.713 148.03 149.738 148.021 149.721L144.302 145.493C144.302 145.493 144.277 145.441 144.285 145.424L146.089 140.402C146.089 140.402 146.115 140.376 146.132 140.402L149.16 144.328C149.16 144.328 149.186 144.38 149.178 144.406L148.047 149.73L148.056 149.713Z" fill="#92B6DA"/>
</g>
<g opacity="0.5">
<path d="M144.682 128.13C144.682 128.13 144.648 128.147 144.648 128.13L143.034 122.728C143.034 122.728 143.034 122.676 143.051 122.659L146.788 118.854C146.788 118.854 146.822 118.845 146.831 118.862L147.944 123.694C147.944 123.694 147.944 123.755 147.927 123.772L144.682 128.138V128.13Z" fill="#92B6DA"/>
</g>
<g opacity="0.5">
<path d="M149.825 136.37C149.825 136.37 149.825 136.405 149.807 136.405L144.181 136.189C144.181 136.189 144.13 136.172 144.121 136.146L141.722 131.374C141.722 131.374 141.722 131.34 141.748 131.34L146.684 131.84C146.684 131.84 146.736 131.858 146.753 131.883L149.833 136.362L149.825 136.37Z" fill="#92B6DA"/>
</g>
<g opacity="0.5">
<path d="M158.092 144.92C158.092 144.92 158.066 144.946 158.057 144.928L154.338 140.7C154.338 140.7 154.312 140.648 154.321 140.631L156.124 135.609C156.124 135.609 156.15 135.583 156.167 135.609L159.196 139.535C159.196 139.535 159.222 139.587 159.213 139.613L158.083 144.937L158.092 144.92Z" fill="#92B6DA"/>
</g>
<g opacity="0.5">
<path d="M114.644 175.895C114.644 175.895 114.61 175.913 114.61 175.895L112.996 170.494C112.996 170.494 112.996 170.442 113.014 170.425L116.75 166.619C116.75 166.619 116.784 166.611 116.793 166.628L117.906 171.46C117.906 171.46 117.906 171.521 117.889 171.538L114.644 175.904V175.895Z" fill="#92B6DA"/>
</g>
<g opacity="0.5">
<path d="M119.787 184.128C119.787 184.128 119.787 184.163 119.77 184.163L114.144 183.947C114.144 183.947 114.092 183.93 114.084 183.904L111.685 179.132C111.685 179.132 111.685 179.098 111.711 179.098L116.646 179.598C116.646 179.598 116.698 179.615 116.715 179.641L119.796 184.12L119.787 184.128Z" fill="#92B6DA"/>
</g>
<g opacity="0.5">
<path d="M128.054 192.689C128.054 192.689 128.028 192.715 128.02 192.698L124.301 188.47C124.301 188.47 124.275 188.418 124.283 188.401L126.087 183.379C126.087 183.379 126.113 183.353 126.13 183.379L129.159 187.305C129.159 187.305 129.184 187.357 129.176 187.382L128.045 192.706L128.054 192.689Z" fill="#92B6DA"/>
</g>
<g opacity="0.5">
<path d="M124.68 171.106C124.68 171.106 124.646 171.123 124.646 171.106L123.032 165.705C123.032 165.705 123.032 165.653 123.05 165.636L126.786 161.83C126.786 161.83 126.82 161.822 126.829 161.839L127.942 166.671C127.942 166.671 127.942 166.731 127.925 166.749L124.68 171.115V171.106Z" fill="#92B6DA"/>
</g>
<g opacity="0.5">
<path d="M129.823 179.347C129.823 179.347 129.823 179.382 129.806 179.382L124.18 179.166C124.18 179.166 124.128 179.149 124.119 179.123L121.72 174.351C121.72 174.351 121.72 174.316 121.746 174.316L126.682 174.817C126.682 174.817 126.734 174.834 126.751 174.86L129.832 179.338L129.823 179.347Z" fill="#92B6DA"/>
</g>
<g opacity="0.5">
<path d="M138.081 187.9C138.081 187.9 138.055 187.926 138.047 187.909L134.328 183.681C134.328 183.681 134.302 183.629 134.31 183.612L136.114 178.59C136.114 178.59 136.14 178.564 136.157 178.59L139.186 182.516C139.186 182.516 139.212 182.567 139.203 182.593L138.073 187.917L138.081 187.9Z" fill="#92B6DA"/>
</g>
<g opacity="0.5">
<path d="M107.016 170.47C107.016 170.47 106.991 170.496 106.982 170.479L103.263 166.251C103.263 166.251 103.237 166.199 103.246 166.182L105.049 161.16C105.049 161.16 105.075 161.134 105.092 161.16L108.121 165.086C108.121 165.086 108.147 165.138 108.138 165.164L107.008 170.488L107.016 170.47Z" fill="#92B6DA"/>
</g>
<g opacity="0.5">
<path d="M103.634 148.899C103.634 148.899 103.599 148.916 103.599 148.899L101.986 143.498C101.986 143.498 101.986 143.446 102.003 143.429L105.739 139.623C105.739 139.623 105.774 139.615 105.783 139.632L106.896 144.464C106.896 144.464 106.896 144.524 106.878 144.542L103.634 148.908V148.899Z" fill="#92B6DA"/>
</g>
<g opacity="0.5">
<path d="M108.785 157.128C108.785 157.128 108.785 157.163 108.768 157.163L103.142 156.947C103.142 156.947 103.09 156.93 103.082 156.904L100.683 152.132C100.683 152.132 100.683 152.098 100.709 152.098L105.644 152.598C105.644 152.598 105.696 152.615 105.713 152.641L108.794 157.12L108.785 157.128Z" fill="#92B6DA"/>
</g>
<g opacity="0.5">
<path d="M117.044 165.681C117.044 165.681 117.018 165.707 117.009 165.69L113.29 161.462C113.29 161.462 113.264 161.41 113.273 161.393L115.076 156.371C115.076 156.371 115.102 156.345 115.119 156.371L118.148 160.297C118.148 160.297 118.174 160.349 118.165 160.375L117.035 165.699L117.044 165.681Z" fill="#92B6DA"/>
</g>
<g opacity="0.5">
<path d="M80.0079 88.3415C80.0079 88.3415 79.982 88.3674 79.9734 88.3501L76.2544 84.122C76.2544 84.122 76.2285 84.0702 76.2371 84.053L78.0405 79.031C78.0405 79.031 78.0664 79.0051 78.0837 79.031L81.1124 82.9571C81.1124 82.9571 81.1383 83.0089 81.1296 83.0348L79.9993 88.3588L80.0079 88.3415Z" fill="#92B6DA"/>
</g>
<g opacity="0.5">
<path d="M76.6254 66.7703C76.6254 66.7703 76.5909 66.7876 76.5909 66.7703L74.9773 61.3687C74.9773 61.3687 74.9773 61.3169 74.9945 61.2996L78.7308 57.4943C78.7308 57.4943 78.7653 57.4857 78.774 57.503L79.8871 62.3351C79.8871 62.3351 79.8871 62.3955 79.8698 62.4128L76.6254 66.7789V66.7703Z" fill="#92B6DA"/>
</g>
<g opacity="0.5">
<path d="M81.7767 74.9993C81.7767 74.9993 81.7767 75.0338 81.7595 75.0338L76.1335 74.8181C76.1335 74.8181 76.0817 74.8009 76.0731 74.775L73.6743 70.0033C73.6743 70.0033 73.6743 69.9688 73.7002 69.9688L78.6359 70.4692C78.6359 70.4692 78.6876 70.4865 78.7049 70.5124L81.7854 74.9907L81.7767 74.9993Z" fill="#92B6DA"/>
</g>
<g opacity="0.5">
<path d="M90.0343 83.5642C90.0343 83.5642 90.0084 83.59 89.9997 83.5728L86.2807 79.3447C86.2807 79.3447 86.2549 79.2929 86.2635 79.2757L88.0669 74.2537C88.0669 74.2537 88.0928 74.2278 88.11 74.2537L91.1387 78.1798C91.1387 78.1798 91.1646 78.2316 91.156 78.2575L90.0256 83.5814L90.0343 83.5642Z" fill="#92B6DA"/>
</g>
<g opacity="0.5">
<path d="M106.439 82.8289C106.439 82.8289 106.404 82.8462 106.404 82.8289L104.791 77.4273C104.791 77.4273 104.791 77.3755 104.808 77.3582L108.544 73.5529C108.544 73.5529 108.579 73.5443 108.587 73.5616L109.7 78.3937C109.7 78.3937 109.7 78.4541 109.683 78.4714L106.439 82.8375V82.8289Z" fill="#92B6DA"/>
</g>
<g opacity="0.5">
<path d="M111.581 91.0579C111.581 91.0579 111.581 91.0925 111.564 91.0925L105.938 90.8767C105.938 90.8767 105.886 90.8595 105.878 90.8336L103.479 86.0619C103.479 86.0619 103.479 86.0273 103.505 86.0273L108.44 86.5278C108.44 86.5278 108.492 86.5451 108.509 86.571L111.59 91.0493L111.581 91.0579Z" fill="#92B6DA"/>
</g>
<g opacity="0.5">
<path d="M119.839 99.611C119.839 99.611 119.813 99.6369 119.804 99.6197L116.085 95.3916C116.085 95.3916 116.06 95.3398 116.068 95.3225L117.872 90.3006C117.872 90.3006 117.897 90.2747 117.915 90.3006L120.943 94.2267C120.943 94.2267 120.969 94.2784 120.961 94.3043L119.83 99.6283L119.839 99.611Z" fill="#92B6DA"/>
</g>
<g opacity="0.5">
<path d="M116.465 78.0359C116.465 78.0359 116.43 78.0532 116.43 78.0359L114.817 72.6343C114.817 72.6343 114.817 72.5825 114.834 72.5653L118.57 68.76C118.57 68.76 118.605 68.7513 118.614 68.7686L119.727 73.6007C119.727 73.6007 119.727 73.6611 119.709 73.6784L116.465 78.0445V78.0359Z" fill="#92B6DA"/>
</g>
<g opacity="0.5">
<path d="M121.608 86.2689C121.608 86.2689 121.608 86.3034 121.591 86.3034L115.965 86.0877C115.965 86.0877 115.913 86.0704 115.904 86.0445L113.506 81.2728C113.506 81.2728 113.506 81.2383 113.532 81.2383L118.467 81.7388C118.467 81.7388 118.519 81.756 118.536 81.7819L121.617 86.2602L121.608 86.2689Z" fill="#92B6DA"/>
</g>
<g opacity="0.5">
<path d="M129.875 94.8298C129.875 94.8298 129.849 94.8557 129.84 94.8384L126.121 90.6103C126.121 90.6103 126.095 90.5585 126.104 90.5413L127.907 85.5193C127.907 85.5193 127.933 85.4934 127.951 85.5193L130.979 89.4454C130.979 89.4454 131.005 89.4972 130.997 89.5231L129.866 94.847L129.875 94.8298Z" fill="#92B6DA"/>
</g>
<g opacity="0.5">
<path d="M85.9098 93.2078C85.9098 93.2078 85.8753 93.2251 85.8753 93.2078L84.2617 87.8062C84.2617 87.8062 84.2617 87.7544 84.279 87.7371L88.0152 83.9318C88.0152 83.9318 88.0498 83.9232 88.0584 83.9405L89.1715 88.7726C89.1715 88.7726 89.1715 88.833 89.1543 88.8503L85.9098 93.2164V93.2078Z" fill="#92B6DA"/>
</g>
<g opacity="0.5">
<path d="M99.3194 110.002C99.3194 110.002 99.2935 110.028 99.2849 110.01L95.5659 105.782C95.5659 105.782 95.54 105.73 95.5486 105.713L97.3521 100.691C97.3521 100.691 97.3779 100.665 97.3952 100.691L100.424 104.617C100.424 104.617 100.45 104.669 100.441 104.695L99.3108 110.019L99.3194 110.002Z" fill="#92B6DA"/>
</g>
<g opacity="0.5">
<path d="M95.9455 88.4187C95.9455 88.4187 95.9109 88.436 95.9109 88.4187L94.2974 83.0171C94.2974 83.0171 94.2974 82.9653 94.3146 82.9481L98.0509 79.1428C98.0509 79.1428 98.0854 79.1342 98.094 79.1514L99.2071 83.9835C99.2071 83.9835 99.2072 84.0439 99.1899 84.0612L95.9455 88.4274V88.4187Z" fill="#92B6DA"/>
</g>
<g opacity="0.5">
<path d="M101.088 96.6595C101.088 96.6595 101.088 96.694 101.071 96.694L95.445 96.4783C95.445 96.4783 95.3933 96.461 95.3846 96.4351L92.9858 91.6634C92.9858 91.6634 92.9858 91.6289 93.0117 91.6289L97.9474 92.1294C97.9474 92.1294 97.9992 92.1466 98.0164 92.1725L101.097 96.6509L101.088 96.6595Z" fill="#92B6DA"/>
</g>
<g opacity="0.5">
<path d="M109.355 105.213C109.355 105.213 109.329 105.238 109.321 105.221L105.602 100.993C105.602 100.993 105.576 100.941 105.584 100.924L107.388 95.9021C107.388 95.9021 107.414 95.8762 107.431 95.9021L110.46 99.8282C110.46 99.8282 110.485 99.88 110.477 99.9059L109.346 105.23L109.355 105.213Z" fill="#92B6DA"/>
</g>
<g opacity="0.5">
<path d="M91.6825 67.4954C91.6825 67.4954 91.6825 67.53 91.6653 67.53L86.0393 67.3142C86.0393 67.3142 85.9875 67.297 85.9789 67.2711L83.5801 62.4994C83.5801 62.4994 83.5801 62.4648 83.606 62.4648L88.5416 62.9653C88.5416 62.9653 88.5934 62.9826 88.6107 63.0085L91.6912 67.4868L91.6825 67.4954Z" fill="#92B6DA"/>
</g>
<g opacity="0.5">
<path d="M99.9408 76.0446C99.9408 76.0446 99.9149 76.0705 99.9062 76.0532L96.1872 71.8251C96.1872 71.8251 96.1613 71.7734 96.17 71.7561L97.9734 66.7342C97.9734 66.7342 97.9993 66.7083 98.0165 66.7342L101.045 70.6603C101.045 70.6603 101.071 70.712 101.062 70.7379L99.9321 76.0619L99.9408 76.0446Z" fill="#92B6DA"/>
</g>
<g opacity="0.5">
<path d="M101.71 62.7024C101.71 62.7024 101.71 62.737 101.693 62.737L96.0666 62.5213C96.0666 62.5213 96.0149 62.504 96.0062 62.4781L93.6074 57.7064C93.6074 57.7064 93.6074 57.6719 93.6333 57.6719L98.569 58.1723C98.569 58.1723 98.6207 58.1896 98.638 58.2155L101.718 62.6938L101.71 62.7024Z" fill="#92B6DA"/>
</g>
<g opacity="0.5">
<path d="M109.976 71.2634C109.976 71.2634 109.951 71.2893 109.942 71.272L106.223 67.0439C106.223 67.0439 106.197 66.9921 106.206 66.9749L108.009 61.9529C108.009 61.9529 108.035 61.927 108.052 61.9529L111.081 65.879C111.081 65.879 111.107 65.9308 111.098 65.9567L109.968 71.2806L109.976 71.2634Z" fill="#92B6DA"/>
</g>
<g opacity="0.5">
<path d="M99.6734 144.056C99.6734 144.056 99.6475 144.082 99.6389 144.065L95.9199 139.837C95.9199 139.837 95.894 139.785 95.9026 139.768L97.7061 134.746C97.7061 134.746 97.7319 134.72 97.7492 134.746L100.778 138.672C100.778 138.672 100.804 138.724 100.795 138.75L99.6648 144.074L99.6734 144.056Z" fill="#92B6DA"/>
</g>
<g opacity="0.5">
<path d="M96.2995 122.477C96.2995 122.477 96.2649 122.495 96.2649 122.477L94.6514 117.076C94.6514 117.076 94.6514 117.024 94.6686 117.007L98.4049 113.201C98.4049 113.201 98.4394 113.193 98.448 113.21L99.5612 118.042C99.5612 118.042 99.5611 118.103 99.5439 118.12L96.2995 122.486V122.477Z" fill="#92B6DA"/>
</g>
<g opacity="0.5">
<path d="M101.442 130.718C101.442 130.718 101.442 130.753 101.425 130.753L95.799 130.537C95.799 130.537 95.7473 130.52 95.7386 130.494L93.3398 125.722C93.3398 125.722 93.3398 125.688 93.3657 125.688L98.3014 126.188C98.3014 126.188 98.3532 126.205 98.3704 126.231L101.451 130.709L101.442 130.718Z" fill="#92B6DA"/>
</g>
<g opacity="0.5">
<path d="M109.7 139.267C109.7 139.267 109.674 139.293 109.665 139.276L105.946 135.048C105.946 135.048 105.92 134.996 105.929 134.979L107.732 129.957C107.732 129.957 107.758 129.931 107.776 129.957L110.804 133.883C110.804 133.883 110.83 133.935 110.822 133.961L109.691 139.285L109.7 139.267Z" fill="#92B6DA"/>
</g>
<g opacity="0.5">
<path d="M106.628 117.243C106.628 117.243 106.594 117.26 106.594 117.243L104.98 111.841C104.98 111.841 104.98 111.79 104.997 111.772L108.734 107.967C108.734 107.967 108.768 107.958 108.777 107.976L109.89 112.808C109.89 112.808 109.89 112.868 109.873 112.885L106.628 117.252V117.243Z" fill="#92B6DA"/>
</g>
<g opacity="0.5">
<path d="M111.771 125.472C111.771 125.472 111.771 125.507 111.754 125.507L106.128 125.291C106.128 125.291 106.076 125.274 106.068 125.248L103.669 120.476C103.669 120.476 103.669 120.441 103.695 120.441L108.63 120.942C108.63 120.942 108.682 120.959 108.699 120.985L111.78 125.463L111.771 125.472Z" fill="#92B6DA"/>
</g>
<g opacity="0.5">
<path d="M120.029 134.025C120.029 134.025 120.003 134.051 119.994 134.034L116.275 129.806C116.275 129.806 116.249 129.754 116.258 129.737L118.062 124.715C118.062 124.715 118.087 124.689 118.105 124.715L121.133 128.641C121.133 128.641 121.159 128.693 121.151 128.718L120.02 134.042L120.029 134.025Z" fill="#92B6DA"/>
</g>
<g opacity="0.5">
<path d="M116.655 112.45C116.655 112.45 116.62 112.467 116.62 112.45L115.007 107.048C115.007 107.048 115.007 106.997 115.024 106.979L118.76 103.174C118.76 103.174 118.795 103.165 118.803 103.183L119.917 108.015C119.917 108.015 119.917 108.075 119.899 108.092L116.655 112.459V112.45Z" fill="#92B6DA"/>
</g>
<g opacity="0.5">
<path d="M121.798 120.683C121.798 120.683 121.798 120.717 121.78 120.717L116.154 120.502C116.154 120.502 116.103 120.484 116.094 120.459L113.695 115.687C113.695 115.687 113.695 115.652 113.721 115.652L118.657 116.153C118.657 116.153 118.709 116.17 118.726 116.196L121.806 120.674L121.798 120.683Z" fill="#92B6DA"/>
</g>
<g opacity="0.5">
<path d="M130.065 129.236C130.065 129.236 130.039 129.262 130.03 129.245L126.311 125.017C126.311 125.017 126.285 124.965 126.294 124.948L128.097 119.926C128.097 119.926 128.123 119.9 128.141 119.926L131.169 123.852C131.169 123.852 131.195 123.903 131.187 123.929L130.056 129.253L130.065 129.236Z" fill="#92B6DA"/>
</g>
<g opacity="0.5">
<path d="M126.872 107.067C126.872 107.067 126.837 107.084 126.837 107.067L125.224 101.666C125.224 101.666 125.224 101.614 125.241 101.597L128.977 97.7912C128.977 97.7912 129.012 97.7826 129.021 97.7999L130.134 102.632C130.134 102.632 130.134 102.692 130.116 102.71L126.872 107.076V107.067Z" fill="#92B6DA"/>
</g>
<g opacity="0.5">
<path d="M132.023 115.308C132.023 115.308 132.023 115.342 132.006 115.342L126.38 115.127C126.38 115.127 126.328 115.109 126.32 115.084L123.921 110.312C123.921 110.312 123.921 110.277 123.947 110.277L128.882 110.778C128.882 110.778 128.934 110.795 128.951 110.821L132.032 115.299L132.023 115.308Z" fill="#92B6DA"/>
</g>
<g opacity="0.5">
<path d="M140.281 123.857C140.281 123.857 140.255 123.883 140.247 123.866L136.528 119.638C136.528 119.638 136.502 119.586 136.51 119.569L138.314 114.547C138.314 114.547 138.34 114.521 138.357 114.547L141.386 118.473C141.386 118.473 141.411 118.525 141.403 118.55L140.272 123.874L140.281 123.857Z" fill="#92B6DA"/>
</g>
<g opacity="0.5">
<path d="M136.907 102.286C136.907 102.286 136.873 102.303 136.873 102.286L135.259 96.8843C135.259 96.8843 135.259 96.8325 135.277 96.8153L139.013 93.01C139.013 93.01 139.047 93.0013 139.056 93.0186L140.169 97.8507C140.169 97.8507 140.169 97.9111 140.152 97.9284L136.907 102.295V102.286Z" fill="#92B6DA"/>
</g>
<g opacity="0.5">
<path d="M142.05 110.515C142.05 110.515 142.05 110.549 142.033 110.549L136.407 110.334C136.407 110.334 136.355 110.317 136.347 110.291L133.948 105.519C133.948 105.519 133.948 105.484 133.974 105.484L138.909 105.985C138.909 105.985 138.961 106.002 138.978 106.028L142.059 110.506L142.05 110.515Z" fill="#92B6DA"/>
</g>
<g opacity="0.5">
<path d="M150.317 119.068C150.317 119.068 150.291 119.094 150.282 119.077L146.563 114.849C146.563 114.849 146.538 114.797 146.546 114.78L148.35 109.758C148.35 109.758 148.376 109.732 148.393 109.758L151.421 113.684C151.421 113.684 151.447 113.735 151.439 113.761L150.308 119.085L150.317 119.068Z" fill="#92B6DA"/>
</g>
</g>
<mask id="mask0_262_10452" style="mask-type:alpha" maskUnits="userSpaceOnUse" x="0" y="407" width="340" height="168">
<path d="M338.62 573.548H220.309L197.112 552.036L196.359 551.338L196.274 552.36L194.505 573.548H136.44L128.717 566.383L127.966 565.687L127.879 566.707L127.293 573.548H110.763L106.512 565.297L106.249 564.786L105.779 565.117L93.8291 573.548H78.2988L63.4385 544.804L62.6406 543.262L62.4961 544.992L60.1016 573.548H45.2588L17.0996 560.171L16.4473 559.86L16.3867 560.581L15.3076 573.548H0.5V414.637C16.0941 418.618 35.5419 421.98 57.7764 424.52V424.519C60.4824 424.85 63.2403 425.147 66.0498 425.427L79.8604 436.604L80.6748 437.263V426.774C84.0805 427.07 87.5514 427.337 91.0605 427.578L124.556 454.684L125.37 455.343V429.31C136.183 429.679 147.323 429.852 158.663 429.852H161.494L169.088 454.434L170.065 454.286V429.784C174.448 429.747 178.8 429.67 183.09 429.55L183.089 429.549C186.07 429.487 189.008 429.407 191.935 429.31C197.698 429.127 203.387 428.892 208.982 428.598L213.847 436.469L214.145 436.952L214.586 436.595L225.684 427.613C230.938 427.242 236.069 426.829 241.116 426.383L258.53 454.559L259.456 456.056V424.538C263.106 424.123 266.687 423.677 270.207 423.223L303.463 436.679L304.151 436.957V417.572C309.795 416.392 315.045 415.154 319.893 413.841L325.679 418.523L325.983 418.146L326.297 418.532L326.788 418.135L326.787 418.134L338.62 408.559V573.548Z" fill="#C59B6D" stroke="#C59B6D"/>
</mask>
<g mask="url(#mask0_262_10452)">
<path d="M83.3909 74.3348L83.4512 81.4536C83.5116 88.8226 88.2404 94.7505 94.0045 94.6988L99.4581 94.647C104.204 94.6038 108.372 98.6508 109.64 104.492C113.256 121.155 119.564 158.051 118.649 209.427C117.441 277.37 91.3209 333.432 87.8003 339.567C87.6104 339.903 87.4379 340.231 87.2739 340.585L11.5371 457.962C10.7691 459.188 7.66267 467.488 7.26574 468.973C6.54953 471.682 6.5409 474.65 7.26574 477.412C15.1785 507.612 64.1309 671.068 120.78 672.819C201.548 675.322 237.531 675.304 244.27 671.24C245.064 670.766 245.78 670.179 246.453 669.463C255.98 659.367 320.982 565.451 333.503 470.06C333.891 467.083 333.028 464.071 331.682 461.586C309.41 420.436 263.608 370.458 245.866 331.965C227.53 292.195 216.079 231.241 215.889 209.462C215.743 192.489 215.95 131.345 216.804 105.183C217.028 98.3574 221.257 92.8781 226.598 92.4898C232.785 92.0411 237.997 85.1898 238.169 77.2686L238.23 74.5333C238.394 67.0003 233.639 60.7617 227.746 60.7617L93.7888 60.8825C87.9987 60.8825 83.3391 66.9141 83.4081 74.3176L83.3909 74.3348Z" fill="#C59B6D" stroke="#C59B6D" stroke-width="9" stroke-miterlimit="10"/>
</g>
<path d="M144.289 495.72C145.309 493.601 144.478 492.244 142.562 490.456C141.966 489.901 141.337 489.481 140.637 489.063C139.402 488.325 137.051 486.581 135.396 485.731C129.247 482.588 124.109 480.292 121.425 477.016C118.599 473.567 122.887 468.8 126.766 471.023C132.964 474.576 141.842 479.665 145.797 481.932C147.095 482.676 151.68 485.462 152.814 484.489C153.45 483.943 154.035 483.366 154.574 482.744C155.531 481.64 152.729 477.127 152.023 475.85L140.691 455.351C140.453 454.92 140.317 454.449 140.267 453.956C139.828 449.6 145.924 447.887 148.141 451.672L159.502 471.068C160.24 472.329 162.665 476.906 164.116 476.675L166.43 476.306C168.152 476.032 168.437 470.659 168.437 468.929V448.052C168.437 447.814 168.447 447.578 168.466 447.346C168.915 441.887 177.233 442.398 177.239 447.875L177.261 468.887C177.263 470.654 177.601 476.045 179.366 476.275L181.43 476.545C182.866 476.733 185.255 472.139 185.967 470.887L195.31 454.477C195.439 454.251 195.575 454.031 195.716 453.818C198.855 449.091 206.11 453.704 203.271 458.614L193.415 475.661C192.716 476.871 190.82 480.336 191.665 481.45C192.212 482.171 192.913 482.849 193.611 483.419C194.659 484.275 198.07 482.52 199.302 481.954C208.646 477.666 218.873 469.092 223.073 470.495L223.139 470.517C226.647 471.687 227.106 476.426 223.886 478.238L204.03 489.41C202.74 490.135 200.083 491.578 200.308 493.033C200.461 494.025 200.735 495.037 201.124 495.898C201.679 497.124 204.872 497.911 206.225 497.944C211.662 498.076 229.589 498.512 229.589 498.512C229.961 498.521 230.325 498.577 230.677 498.675C235.292 499.956 234.138 506.862 229.345 506.922L203.419 506.257C201.564 506.282 200.217 512.218 201.818 513.134L221.404 524.804C221.635 524.936 221.859 525.076 222.075 525.224C226.598 528.3 222.09 535.174 217.31 532.506L199.501 522.569C198.244 521.867 195.699 521.009 194.571 521.902C193.916 522.422 193.269 523.024 192.754 523.655C191.853 524.758 192.75 527.287 193.454 528.523L202.215 543.892C202.374 544.169 202.525 544.449 202.669 544.73C205.213 549.72 197.76 553.681 194.862 548.885L184.72 532.103C183.922 530.78 181.245 529.842 179.322 530.621C178.009 531.152 177.396 533.78 177.387 535.188L177.257 555.26C177.256 555.309 177.256 556.332 177.255 556.381C177.136 561.979 168.606 561.818 168.556 556.219L168.38 535.279C168.368 533.972 167.902 530.503 166.663 530.061C165.72 529.724 164.724 529.508 163.712 529.401C162.353 529.258 160.508 531.902 159.809 533.068C156.786 538.103 148.299 552.241 148.299 552.241C148.193 552.417 148.079 552.585 147.957 552.746C144.718 557.009 138.101 552.302 140.87 547.725L151.29 530.504C152.907 527.831 153.82 525.311 152.96 524.169C152.293 523.283 151.517 522.549 150.61 521.858C149.477 520.994 146.933 521.899 145.701 522.617L128.932 532.389C128.681 532.535 128.427 532.671 128.171 532.795C123.142 535.245 119.295 527.766 124.137 524.97L141.127 515.157C142.474 514.379 145.116 511.846 144.764 510.34L144.407 508.813C144.039 507.237 140.673 507.087 139.043 507.06L118.13 506.718C118.085 506.718 118.041 506.717 117.997 506.715C112.514 506.525 112.747 498.304 118.234 498.277L140.166 498.167C141.725 498.167 143.916 496.804 144.289 495.745L144.289 495.72Z" fill="#603813"/>
<circle cx="173.8" cy="502.433" r="39.8667" fill="#603813"/>
<rect x="94.3186" y="573.938" width="15.9762" height="0.101597" fill="#215523" stroke="#EFD000" stroke-width="0.101597"/>
<rect x="94.5513" y="573.822" width="15.6811" height="0.136765" fill="#215523" stroke="#EFD000" stroke-width="0.136765"/>
<line y1="-0.5" x2="0.357321" y2="-0.5" transform="matrix(0.898794 -0.438371 0.465074 0.885272 110.286 574.438)" stroke="#EFD000"/>
<line y1="-0.5" x2="0.349388" y2="-0.5" transform="matrix(-0.572058 -0.820213 0.8416 -0.540102 94.679 574.02)" stroke="#EFD000"/>
</svg>
