<?xml version="1.0" encoding="UTF-8"?><svg id="a" xmlns="http://www.w3.org/2000/svg" xmlns:xlink="http://www.w3.org/1999/xlink" viewBox="0 0 340 683"><defs><mask id="b" x=".3415" y="60.1132" width="339.115" height="622.7736" maskUnits="userSpaceOnUse"><g id="c"><path d="M338.9564,577.4079h-118.31l-23.195-21.512-.753-.698-.086,1.024-1.769,21.186h-58.064l-7.723-7.164-.751-.696-.087,1.02-.586,6.84h-16.53l-4.25-8.25-.264-.511-.469.332-11.9489,8.429h-15.5312l-14.8604-28.743-.7979-1.542-.1445,1.73-2.3945,28.555h-14.8447l-28.1563-13.376-.6523-.31-.0606.72-1.0791,12.966H.8415v-158.912c15.5939,3.981,35.0413,7.343,57.2754,9.882,2.7054.331,5.4627.629,8.2715.908l13.8125,11.177.8144.659v-10.488c3.4057.296,6.8766.562,10.3858.804l33.4944,27.106.815.659v-26.034c10.813.369,21.952.542,33.292.542h2.83l7.595,24.583.977-.148v-24.502c4.382-.038,8.731-.115,13.02-.235l.001.001c2.982-.062,5.921-.142,8.849-.24l-.001-.001c5.763-.183,11.453-.418,17.047-.712l4.865,7.871.298.484.441-.358,11.098-8.981c5.254-.371,10.385-.784,15.432-1.231l17.414,28.176.925,1.497v-31.517c3.651-.415,7.232-.861,10.752-1.316l33.256,13.456.687.278v-19.383c5.644-1.181,10.894-2.42,15.742-3.733l5.785,4.683.305-.378.313.387.012-.009.479-.389-.001-.001,11.833-9.574v164.989Z" style="fill:#c59b6d; stroke:#c59b6d;"/></g></mask></defs><path d="M83.105,77.7881l.0604,7.1188c.0604,7.3691,4.789,13.2971,10.5531,13.2453l5.4535-.0517c4.746-.0432,8.914,4.0035,10.182,9.8455,3.616,16.662,9.923,53.56,9.009,104.936-1.208,67.944-27.3281,124.006-30.8487,130.141-.1898.336-.3624.664-.5263,1.018L11.2521,461.42c-.768,1.225-3.8744,9.526-4.2713,11.01-.7162,2.71-.7248,5.678,0,8.439,7.9127,30.201,56.8645,193.658,113.5132,195.41,80.766,2.502,116.749,2.485,123.488-1.579.794-.475,1.51-1.062,2.183-1.778,9.527-10.096,74.528-104.012,87.049-199.405.388-2.977-.475-5.988-1.821-8.473-22.271-41.151-68.073-91.13-85.815-129.623-18.336-39.771-29.786-100.725-29.976-122.505-.147-16.973.06-78.117.914-104.28.225-6.825,4.453-12.3045,9.794-12.6928,6.187-.4487,11.399-7.3,11.572-15.2213l.06-2.7354c.164-7.533-4.591-13.7717-10.484-13.7717l-133.9552.1208c-5.79,0-10.4496,6.0316-10.3806,13.4352l-.0172.0173Z" style="fill:#dcd6cb; stroke:#dcd6cb; stroke-miterlimit:10; stroke-width:9px;"/><path d="M126.353,59.2265v-15.3076c-8.94,0-16.128-6.0143-15.938-13.3316l.268-10.1303c.259-10.0095,10.277-18.0085,22.504-17.9568l58.763.0863c11.14.0173,20.183,7.3777,20.286,16.4985l.13,12.3565c.077,7.1879-6.852,13.1073-15.619,13.3489v14.626l-70.394-.1812v-.0087Z" style="fill:#cdb43a; stroke:#cdb43a; stroke-miterlimit:10; stroke-width:5px;"/><path d="M116.033,120.535c8.025,27.561,11.356,56.347,11.994,84.995,1.527,71.783-19.147,144.913-63.5431,201.933-8.836,11.321-18.3968,22.047-28.7256,31.961,9.6385-10.579,18.7247-21.632,27.0257-33.221,8.232-11.589,15.834-23.729,22.4783-36.302,40.0377-75.252,48.3307-166.554,30.7707-249.366Z" style="fill:#e2e3e2;"/><path d="M303.384,435.948c-78.256-69.67-109.889-173.881-95.143-276.358,2.123-14.298,4.902-28.553,9.311-42.324-.915,3.494-1.674,7.015-2.382,10.553-4.901,24.696-7.067,49.944-6.972,75.088.345,88.938,32.298,169.808,95.177,233.041h.009Z" style="fill:#e2e3e2;"/><path d="M89.3008,653.066c46.1392,9.82,94.9952,15.791,141.5402,5.704,6.627-1.519,13.15-3.469,19.63-5.704-6.109,3.107-12.52,5.635-19.078,7.749-44.215,13.366-98.905,7.361-142.0922-7.749Z" style="fill:#e2e3e2;"/><path d="M22.1763,460.977c-1.7948,8.87-3.279,17.663-.9923,26.508.2502,1.354.7421,2.562.9923,3.943-.5436-.44-1.0441-.923-1.5446-1.424-7.4812-7.861-6.0661-21.745,1.5446-29.027Z" style="fill:#e2e3e2;"/><path d="M315.723,489.147c1.337-4.919,2.433-9.984,2.148-15.101-.164-5.195-1.147-10.104-2.148-15.351,8.154,7.732,9.103,23.074,0,30.452Z" style="fill:#e2e3e2;"/><path d="M94.4692,403.538s52.8608-61.654,121.5468-1.381c68.686,60.273-121.5468,1.381-121.5468,1.381Z" style="fill:#609437;"/><path d="M37.8984,493.204c6.2991,29.855,21.7362,94.382,43.9124,129.683,4.9875,7.947,12.7622,18.483,21.5722,20.217,37.027,7.292,99.526,4.039,128.899,1.916,10.794-.776,20.571-12.149,26.188-22.029,12.115-21.288,32.186-64.605,42.739-131.815,1.338-8.517-.207-17.275-4.444-24.627-17.197-29.856-41.151-59.539-61.532-78.506-5.359-4.987-12.038-8.18-19.139-8.706-8.845-.656-18.44,1.432-27.889,3.926-15.756,4.168-31.892,6.472-48.123,6.756-19.562.345-38.269,7.223-53.6806,19.277-7.7574,6.066-14.6778,13.444-20.4505,21.961l-22.5214,33.204c-5.6261,8.292-7.6366,18.75-5.5311,28.734v.009Z" style="fill:#215523;"/><g style="opacity:.5;"><g style="opacity:.5;"><path d="M152.507,271.805s.034,0,.026.026l-1.795,5.341s-.035.043-.06.052l-5.255.957s-.035-.008-.026-.034l1.881-4.591s.034-.043.06-.051l5.169-1.692v-.008Z" style="fill:#92b6da;"/></g><g style="opacity:.5;"><path d="M153.051,262.108s.017-.034.035-.017l4.469,3.425s.035.044.026.069l-.794,5.281s-.017.026-.043.018l-3.736-3.262s-.035-.052-.035-.069l.069-5.436.009-.009Z" style="fill:#92b6da;"/></g><g style="opacity:.5;"><path d="M151.239,250.353s.034-.009.034.017l.596,5.6s-.009.052-.035.069l-4.375,3.064s-.034,0-.034-.018l-.207-4.953s.008-.06.026-.069l3.986-3.693.009-.017Z" style="fill:#92b6da;"/></g><g style="opacity:.5;"><path d="M141.549,269.922s.034,0,.026.026l-1.795,5.341s-.035.043-.061.052l-5.255.958s-.034-.009-.026-.035l1.882-4.59s.034-.044.06-.052l5.169-1.691v-.009Z" style="fill:#92b6da;"/></g><g style="opacity:.5;"><path d="M142.101,260.225s.017-.034.034-.017l4.47,3.426s.034.043.026.069l-.794,5.281s-.017.025-.043.017l-3.737-3.262s-.034-.052-.034-.069l.069-5.436.009-.009Z" style="fill:#92b6da;"/></g><g style="opacity:.5;"><path d="M140.288,248.47s.035-.009.035.017l.595,5.601s-.008.051-.034.069l-4.375,3.063s-.035,0-.035-.017l-.207-4.953s.009-.061.026-.069l3.987-3.694.008-.017Z" style="fill:#92b6da;"/></g><g style="opacity:.5;"><path d="M126.465,239.613s.034,0,.026.026l-1.795,5.341s-.035.044-.06.052l-5.255.958s-.035-.009-.026-.035l1.881-4.59s.034-.043.06-.052l5.169-1.691v-.009Z" style="fill:#92b6da;"/></g><g style="opacity:.5;"><path d="M127.017,229.924s.017-.034.035-.017l4.469,3.426s.035.043.026.069l-.794,5.281s-.017.026-.043.017l-3.736-3.262s-.035-.051-.035-.069l.069-5.436.009-.009Z" style="fill:#92b6da;"/></g><g style="opacity:.5;"><path d="M125.205,218.169s.034-.008.034.018l.596,5.6s-.009.052-.035.069l-4.375,3.063s-.034,0-.034-.017l-.207-4.953s.008-.061.026-.069l3.986-3.693.009-.018Z" style="fill:#92b6da;"/></g><g style="opacity:.5;"><path d="M115.515,237.734s.034,0,.026.026l-1.795,5.342s-.035.043-.061.051l-5.255.958s-.034-.009-.026-.034l1.882-4.591s.034-.043.06-.052l5.169-1.691v-.009Z" style="fill:#92b6da;"/></g><g style="opacity:.5;"><path d="M116.067,228.046s.017-.035.035-.018l4.469,3.426s.035.043.026.069l-.794,5.281s-.017.026-.043.017l-3.736-3.262s-.034-.051-.034-.069l.069-5.436.008-.008Z" style="fill:#92b6da;"/></g><g style="opacity:.5;"><path d="M114.255,216.29s.035-.008.035.018l.595,5.6s-.009.052-.034.069l-4.375,3.063s-.035,0-.035-.017l-.207-4.953s.009-.061.026-.069l3.987-3.693.008-.018Z" style="fill:#92b6da;"/></g><g style="opacity:.5;"><path d="M149.219,242.977s.035,0,.026.025l-1.794,5.342s-.035.043-.061.052l-5.255.957s-.034-.008-.026-.034l1.881-4.591s.035-.043.061-.052l5.168-1.691v-.008Z" style="fill:#92b6da;"/></g><g style="opacity:.5;"><path d="M149.772,233.28s.017-.035.034-.017l4.47,3.425s.035.043.026.069l-.794,5.281s-.017.026-.043.017l-3.736-3.261s-.035-.052-.035-.069l.069-5.436.009-.009Z" style="fill:#92b6da;"/></g><g style="opacity:.5;"><path d="M147.96,221.525s.034-.009.034.017l.595,5.6s-.008.052-.034.069l-4.375,3.064s-.034-.001-.034-.018l-.208-4.953s.009-.06.026-.069l3.987-3.693.009-.017Z" style="fill:#92b6da;"/></g><g style="opacity:.5;"><path d="M138.269,241.098s.035,0,.026.026l-1.795,5.341s-.034.043-.06.052l-5.255.957s-.035-.008-.026-.034l1.881-4.591s.035-.043.061-.051l5.168-1.692v-.008Z" style="fill:#92b6da;"/></g><g style="opacity:.5;"><path d="M138.813,231.405s.018-.035.035-.017l4.47,3.425s.034.043.025.069l-.793,5.281s-.018.026-.044.017l-3.736-3.261s-.034-.052-.034-.069l.069-5.436.008-.009Z" style="fill:#92b6da;"/></g><g style="opacity:.5;"><path d="M137.001,219.642s.035-.009.035.017l.595,5.6s-.009.052-.035.069l-4.374,3.064s-.035,0-.035-.018l-.207-4.953s.009-.06.026-.069l3.986-3.693.009-.017Z" style="fill:#92b6da;"/></g><g style="opacity:.5;"><path d="M129.123,270.336s.035,0,.026.026l-1.795,5.341s-.034.043-.06.052l-5.255.958s-.035-.009-.026-.035l1.881-4.59s.035-.044.061-.052l5.168-1.691v-.009Z" style="fill:#92b6da;"/></g><g style="opacity:.5;"><path d="M129.675,260.651s.017-.035.034-.017l4.47,3.425s.035.044.026.069l-.794,5.281s-.017.026-.043.018l-3.736-3.262s-.035-.052-.035-.069l.069-5.436.009-.009Z" style="fill:#92b6da;"/></g><g style="opacity:.5;"><path d="M127.863,248.896s.034-.009.034.017l.596,5.6s-.009.052-.035.069l-4.375,3.064s-.034,0-.034-.018l-.207-4.953s.008-.06.026-.069l3.986-3.693.009-.017Z" style="fill:#92b6da;"/></g><g style="opacity:.5;"><path d="M118.173,268.465s.034,0,.026.026l-1.795,5.341s-.035.043-.061.052l-5.255.958s-.034-.009-.026-.035l1.882-4.59s.034-.044.06-.052l5.169-1.692v-.008Z" style="fill:#92b6da;"/></g><g style="opacity:.5;"><path d="M118.716,258.768s.018-.034.035-.017l4.47,3.426s.034.043.026.069l-.794,5.28s-.018.026-.044.018l-3.736-3.262s-.034-.052-.034-.069l.069-5.436.008-.009Z" style="fill:#92b6da;"/></g><g style="opacity:.5;"><path d="M116.904,247.013s.035-.009.035.017l.595,5.601s-.009.051-.034.069l-4.375,3.063s-.035,0-.035-.017l-.207-4.953s.009-.061.026-.069l3.986-3.694.009-.017Z" style="fill:#92b6da;"/></g><g style="opacity:.5;"><path d="M170.265,246.777s.035,0,.026.026l-1.795,5.342s-.034.043-.06.051l-5.255.958s-.035-.009-.026-.034l1.881-4.591s.035-.043.06-.052l5.169-1.691v-.009Z" style="fill:#92b6da;"/></g><g style="opacity:.5;"><path d="M170.809,237.088s.017-.034.035-.017l4.469,3.426s.035.043.026.069l-.794,5.281s-.017.026-.043.017l-3.736-3.262s-.035-.051-.035-.069l.069-5.436.009-.009Z" style="fill:#92b6da;"/></g><g style="opacity:.5;"><path d="M168.997,225.329s.034-.008.034.018l.596,5.6s-.009.052-.035.069l-4.375,3.063s-.034,0-.034-.017l-.207-4.953s.008-.06.026-.069l3.986-3.693.009-.018Z" style="fill:#92b6da;"/></g><g style="opacity:.5;"><path d="M159.307,244.902s.034,0,.026.026l-1.795,5.342s-.035.043-.061.051l-5.255.958s-.034-.009-.026-.034l1.882-4.591s.034-.043.06-.052l5.169-1.691v-.009Z" style="fill:#92b6da;"/></g><g style="opacity:.5;"><path d="M159.859,235.21s.017-.035.034-.018l4.47,3.426s.034.043.026.069l-.794,5.281s-.017.026-.043.017l-3.736-3.262s-.035-.051-.035-.069l.069-5.436.009-.008Z" style="fill:#92b6da;"/></g><g style="opacity:.5;"><path d="M158.047,223.455s.034-.009.034.017l.596,5.6s-.009.052-.035.069l-4.375,3.063s-.034,0-.034-.017l-.207-4.953s.008-.06.026-.069l3.986-3.693.009-.017Z" style="fill:#92b6da;"/></g><g style="opacity:.5;"><path d="M173.363,255.619s.034-.009.034.017l.596,5.6s-.009.052-.035.069l-4.375,3.063s-.034,0-.034-.017l-.207-4.953s.008-.06.025-.069l3.987-3.693.009-.017Z" style="fill:#92b6da;"/></g><g style="opacity:.5;"><path d="M163.672,275.191s.035,0,.026.026l-1.795,5.342s-.034.043-.06.051l-5.255.958s-.034-.008-.026-.034l1.881-4.591s.035-.043.061-.052l5.168-1.691v-.009Z" style="fill:#92b6da;"/></g><g style="opacity:.5;"><path d="M164.225,265.491s.017-.035.034-.017l4.47,3.425s.034.043.026.069l-.794,5.281s-.017.026-.043.017l-3.737-3.261s-.034-.052-.034-.069l.069-5.437.009-.008Z" style="fill:#92b6da;"/></g><g style="opacity:.5;"><path d="M162.413,253.74s.034-.009.034.017l.596,5.6s-.009.052-.035.069l-4.375,3.063s-.034,0-.034-.017l-.207-4.953s.008-.06.025-.069l3.987-3.693.009-.017Z" style="fill:#92b6da;"/></g><g style="opacity:.5;"><path d="M168.583,214.949s.034,0,.026.026l-1.795,5.341s-.035.044-.061.052l-5.255.958s-.034-.009-.025-.035l1.881-4.59s.034-.043.06-.052l5.169-1.691v-.009Z" style="fill:#92b6da;"/></g><g style="opacity:.5;"><path d="M157.633,213.074s.034,0,.025.026l-1.794,5.341s-.035.044-.061.052l-5.255.958s-.034-.009-.026-.035l1.881-4.59s.035-.043.061-.052l5.169-1.691v-.009Z" style="fill:#92b6da;"/></g><g style="opacity:.5;"><path d="M158.185,203.381s.017-.034.034-.017l4.47,3.426s.034.043.026.069l-.794,5.281s-.017.026-.043.017l-3.737-3.262s-.034-.051-.034-.069l.069-5.436.009-.009Z" style="fill:#92b6da;"/></g><g style="opacity:.5;"><path d="M156.364,191.626s.035-.008.035.018l.595,5.6s-.009.052-.035.069l-4.374,3.063s-.035,0-.035-.017l-.207-4.953s.009-.061.026-.069l3.986-3.693.009-.018Z" style="fill:#92b6da;"/></g><g style="opacity:.5;"><path d="M146.173,211.395s.035,0,.026.025l-1.795,5.342s-.034.043-.06.051l-5.255.958s-.034-.008-.026-.034l1.881-4.591s.035-.043.061-.052l5.168-1.691v-.008Z" style="fill:#92b6da;"/></g><g style="opacity:.5;"><path d="M146.717,201.702s.017-.035.035-.017l4.469,3.425s.035.043.026.069l-.794,5.281s-.017.026-.043.017l-3.736-3.261s-.035-.052-.035-.069l.069-5.437.009-.008Z" style="fill:#92b6da;"/></g><g style="opacity:.5;"><path d="M144.905,189.947s.035-.009.035.017l.595,5.6s-.009.052-.035.069l-4.374,3.063s-.035,0-.035-.017l-.207-4.953s.009-.06.026-.069l3.986-3.693.009-.017Z" style="fill:#92b6da;"/></g><g style="opacity:.5;"><path d="M135.215,209.523s.034,0,.026.026l-1.795,5.342s-.035.043-.06.051l-5.255.958s-.035-.008-.026-.034l1.881-4.591s.034-.043.06-.052l5.169-1.691v-.009Z" style="fill:#92b6da;"/></g><g style="opacity:.5;"><path d="M135.767,199.823s.017-.035.035-.017l4.469,3.425s.035.043.026.069l-.794,5.281s-.017.026-.043.017l-3.736-3.261s-.035-.052-.035-.069l.069-5.436.009-.009Z" style="fill:#92b6da;"/></g><g style="opacity:.5;"><path d="M133.955,188.072s.034-.009.034.017l.596,5.6s-.009.052-.035.069l-4.375,3.063s-.034,0-.034-.017l-.207-4.953s.008-.06.026-.069l3.986-3.693.009-.017Z" style="fill:#92b6da;"/></g><g style="opacity:.5;"><path d="M123.764,208.023s.035,0,.026.026l-1.795,5.342s-.034.043-.06.051l-5.255.958s-.035-.008-.026-.034l1.881-4.591s.035-.043.06-.052l5.169-1.691v-.009Z" style="fill:#92b6da;"/></g><g style="opacity:.5;"><path d="M124.317,198.323s.017-.035.034-.017l4.47,3.425s.034.043.026.069l-.794,5.281s-.017.026-.043.017l-3.736-3.261s-.035-.052-.035-.069l.069-5.437.009-.008Z" style="fill:#92b6da;"/></g><g style="opacity:.5;"><path d="M122.496,186.572s.034-.009.034.017l.596,5.6s-.009.052-.035.069l-4.375,3.063s-.034,0-.034-.017l-.207-4.953s.008-.06.025-.069l3.987-3.693.009-.017Z" style="fill:#92b6da;"/></g><g style="opacity:.5;"><path d="M112.814,206.141s.035,0,.026.026l-1.795,5.341s-.034.043-.06.052l-5.255.957s-.035-.008-.026-.034l1.881-4.591s.035-.043.061-.051l5.168-1.692v-.008Z" style="fill:#92b6da;"/></g><g style="opacity:.5;"><path d="M113.357,196.444s.018-.035.035-.017l4.47,3.425s.034.044.026.069l-.794,5.281s-.018.026-.043.018l-3.737-3.262s-.034-.052-.034-.069l.069-5.436.008-.009Z" style="fill:#92b6da;"/></g><g style="opacity:.5;"><path d="M149.297,359.723s.035,0,.026.026l-1.795,5.341s-.034.043-.06.052l-5.255.957s-.034-.008-.026-.034l1.881-4.591s.035-.043.061-.051l5.168-1.692v-.008Z" style="fill:#92b6da;"/></g><g style="opacity:.5;"><path d="M149.849,350.034s.018-.035.035-.017l4.47,3.425s.034.043.026.069l-.794,5.281s-.018.026-.043.017l-3.737-3.261s-.034-.052-.034-.069l.069-5.437.008-.008Z" style="fill:#92b6da;"/></g><g style="opacity:.5;"><path d="M148.037,338.275s.035-.009.035.017l.595,5.6s-.009.052-.034.069l-4.375,3.063s-.035.001-.035-.017l-.207-4.953s.009-.06.026-.069l3.987-3.693.008-.017Z" style="fill:#92b6da;"/></g><g style="opacity:.5;"><path d="M138.347,357.848s.034,0,.026.026l-1.795,5.341s-.034.043-.06.052l-5.255.957s-.035-.008-.026-.034l1.881-4.591s.034-.043.06-.051l5.169-1.692v-.008Z" style="fill:#92b6da;"/></g><g style="opacity:.5;"><path d="M138.899,348.155s.018-.035.035-.017l4.47,3.425s.034.043.026.069l-.794,5.281s-.018.026-.043.017l-3.737-3.261s-.034-.052-.034-.069l.069-5.436.008-.009Z" style="fill:#92b6da;"/></g><g style="opacity:.5;"><path d="M137.079,336.4s.034-.009.034.017l.596,5.6s-.009.052-.035.069l-4.375,3.064s-.034-.001-.034-.018l-.207-4.953s.008-.06.026-.069l3.986-3.693.009-.017Z" style="fill:#92b6da;"/></g><g style="opacity:.5;"><path d="M123.263,327.535s.035,0,.026.026l-1.794,5.341s-.035.043-.061.052l-5.255.958s-.034-.009-.026-.035l1.881-4.59s.035-.043.061-.052l5.168-1.691v-.009Z" style="fill:#92b6da;"/></g><g style="opacity:.5;"><path d="M123.816,317.842s.017-.034.035-.017l4.469,3.426s.035.043.026.069l-.793,5.281s-.018.026-.044.017l-3.736-3.262s-.034-.051-.034-.069l.069-5.436.008-.009Z" style="fill:#92b6da;"/></g><g style="opacity:.5;"><path d="M122.004,306.087s.034-.008.034.018l.596,5.6s-.009.051-.035.069l-4.375,3.063s-.034,0-.034-.017l-.207-4.953s.008-.061.026-.069l3.986-3.693.009-.018Z" style="fill:#92b6da;"/></g><g style="opacity:.5;"><path d="M112.314,325.656s.034,0,.026.026l-1.795,5.341s-.035.044-.061.052l-5.255.958s-.034-.009-.025-.035l1.881-4.59s.034-.043.06-.052l5.169-1.691v-.009Z" style="fill:#92b6da;"/></g><g style="opacity:.5;"><path d="M112.866,315.956s.017-.035.034-.018l4.47,3.426s.035.043.026.069l-.794,5.281s-.017.026-.043.017l-3.736-3.261s-.035-.052-.035-.07l.069-5.436.009-.008Z" style="fill:#92b6da;"/></g><g style="opacity:.5;"><path d="M111.045,304.205s.035-.009.035.017l.595,5.6s-.008.052-.034.069l-4.375,3.063s-.035,0-.035-.017l-.207-4.953s.009-.06.026-.069l3.987-3.693.008-.017Z" style="fill:#92b6da;"/></g><g style="opacity:.5;"><path d="M146.018,330.898s.035,0,.026.026l-1.795,5.342s-.034.043-.06.051l-5.255.958s-.035-.008-.026-.034l1.881-4.591s.034-.043.06-.052l5.169-1.691v-.009Z" style="fill:#92b6da;"/></g><g style="opacity:.5;"><path d="M144.75,309.455s.034-.009.034.017l.596,5.6s-.009.052-.035.069l-4.375,3.063s-.034,0-.034-.017l-.207-4.953s.008-.06.026-.069l3.986-3.693.009-.017Z" style="fill:#92b6da;"/></g><g style="opacity:.5;"><path d="M135.068,329.016s.035,0,.026.026l-1.795,5.341s-.034.043-.06.052l-5.255.957s-.035-.008-.026-.034l1.881-4.591s.035-.043.06-.051l5.169-1.692v-.008Z" style="fill:#92b6da;"/></g><g style="opacity:.5;"><path d="M135.612,319.327s.017-.035.034-.017l4.47,3.425s.034.043.026.069l-.794,5.281s-.017.026-.043.017l-3.737-3.261s-.034-.052-.034-.069l.069-5.437.009-.008Z" style="fill:#92b6da;"/></g><g style="opacity:.5;"><path d="M133.799,307.576s.035-.009.035.017l.595,5.6s-.008.052-.034.069l-4.375,3.063s-.035,0-.035-.017l-.207-4.953s.009-.06.026-.069l3.987-3.693.008-.017Z" style="fill:#92b6da;"/></g><g style="opacity:.5;"><path d="M126.474,348.565s.017-.034.034-.017l4.47,3.425s.035.044.026.069l-.794,5.281s-.017.026-.043.018l-3.736-3.262s-.035-.052-.035-.069l.069-5.436.009-.009Z" style="fill:#92b6da;"/></g><g style="opacity:.5;"><path d="M124.653,336.814s.034-.009.034.017l.596,5.6s-.009.052-.035.069l-4.375,3.064s-.034,0-.034-.018l-.207-4.953s.008-.06.026-.069l3.986-3.693.009-.017Z" style="fill:#92b6da;"/></g><g style="opacity:.5;"><path d="M115.515,346.698s.017-.035.034-.017l4.47,3.425s.034.043.026.069l-.794,5.281s-.017.026-.043.017l-3.736-3.261s-.035-.052-.035-.069l.069-5.436.009-.009Z" style="fill:#92b6da;"/></g><g style="opacity:.5;"><path d="M113.703,334.943s.034-.009.034.017l.596,5.6s-.009.052-.035.069l-4.375,3.063s-.034,0-.034-.017l-.207-4.953s.009-.06.026-.069l3.986-3.693.009-.017Z" style="fill:#92b6da;"/></g><g style="opacity:.5;"><path d="M171.422,364.988s.034,0,.026.026l-1.795,5.341s-.035.044-.061.052l-5.255.958s-.034-.009-.026-.034l1.882-4.591s.034-.043.06-.052l5.169-1.691v-.009Z" style="fill:#92b6da;"/></g><g style="opacity:.5;"><path d="M160.471,363.105s.035,0,.026.026l-1.794,5.342s-.035.043-.061.051l-5.255.958s-.034-.008-.026-.034l1.881-4.591s.035-.043.061-.052l5.168-1.691v-.009Z" style="fill:#92b6da;"/></g><g style="opacity:.5;"><path d="M161.024,353.421s.017-.035.034-.018l4.47,3.426s.035.043.026.069l-.794,5.281s-.017.026-.043.017l-3.736-3.262s-.035-.051-.035-.069l.069-5.436.009-.008Z" style="fill:#92b6da;"/></g><g style="opacity:.5;"><path d="M159.203,341.665s.034-.008.034.018l.596,5.6s-.009.052-.035.069l-4.375,3.063s-.034,0-.034-.017l-.207-4.953s.009-.061.026-.069l3.986-3.693.009-.018Z" style="fill:#92b6da;"/></g><g style="opacity:.5;"><path d="M164.122,281.423s.034-.008.034.018l.596,5.6s-.009.051-.035.069l-4.375,3.063s-.034,0-.034-.017l-.207-4.953s.008-.061.025-.069l3.987-3.693.009-.018Z" style="fill:#92b6da;"/></g><g style="opacity:.5;"><path d="M154.431,300.996s.035,0,.026.026l-1.795,5.341s-.034.043-.06.052l-5.255.958s-.034-.009-.026-.035l1.881-4.59s.035-.043.061-.052l5.168-1.691v-.009Z" style="fill:#92b6da;"/></g><g style="opacity:.5;"><path d="M154.975,291.303s.017-.034.034-.017l4.47,3.426s.035.043.026.069l-.794,5.281s-.017.026-.043.017l-3.736-3.262s-.035-.052-.035-.069l.069-5.436.009-.009Z" style="fill:#92b6da;"/></g><g style="opacity:.5;"><path d="M153.163,279.548s.034-.008.034.018l.596,5.6s-.009.051-.035.069l-4.375,3.063s-.034,0-.034-.017l-.207-4.953s.008-.061.025-.069l3.987-3.693.009-.018Z" style="fill:#92b6da;"/></g><g style="opacity:.5;"><path d="M142.964,299.324s.034,0,.026.026l-1.795,5.341s-.035.044-.061.052l-5.255.958s-.034-.009-.026-.035l1.882-4.59s.034-.043.06-.052l5.169-1.691v-.009Z" style="fill:#92b6da;"/></g><g style="opacity:.5;"><path d="M143.516,289.635s.017-.034.034-.017l4.47,3.426s.034.043.026.069l-.794,5.281s-.017.026-.043.017l-3.737-3.262s-.034-.052-.034-.069l.069-5.436.009-.009Z" style="fill:#92b6da;"/></g><g style="opacity:.5;"><path d="M141.703,277.876s.035-.008.035.018l.595,5.6s-.008.052-.034.069l-4.375,3.063s-.035,0-.035-.017l-.207-4.953s.009-.061.026-.069l3.987-3.693.008-.018Z" style="fill:#92b6da;"/></g><g style="opacity:.5;"><path d="M132.013,297.445s.035,0,.026.026l-1.794,5.341s-.035.044-.061.052l-5.255.958s-.034-.009-.026-.034l1.881-4.591s.035-.043.061-.052l5.168-1.691v-.009Z" style="fill:#92b6da;"/></g><g style="opacity:.5;"><path d="M132.565,287.756s.018-.034.035-.017l4.47,3.426s.034.043.026.069l-.794,5.281s-.017.026-.043.017l-3.737-3.262s-.034-.051-.034-.069l.069-5.436.008-.009Z" style="fill:#92b6da;"/></g><g style="opacity:.5;"><path d="M130.745,276.001s.034-.008.034.018l.596,5.6s-.009.052-.035.069l-4.374,3.063s-.035,0-.035-.017l-.207-4.953s.009-.061.026-.069l3.986-3.693.009-.018Z" style="fill:#92b6da;"/></g><g style="opacity:.5;"><path d="M120.563,295.941s.035,0,.026.026l-1.795,5.342s-.034.043-.06.051l-5.255.958s-.035-.008-.026-.034l1.881-4.591s.034-.043.06-.052l5.169-1.691v-.009Z" style="fill:#92b6da;"/></g><g style="opacity:.5;"><path d="M121.107,286.253s.017-.035.034-.018l4.47,3.426s.035.043.026.069l-.794,5.281s-.017.026-.043.017l-3.736-3.262s-.035-.051-.035-.069l.069-5.436.009-.008Z" style="fill:#92b6da;"/></g><g style="opacity:.5;"><path d="M119.295,274.49s.034-.009.034.017l.595,5.6s-.008.052-.034.069l-4.375,3.063s-.034,0-.034-.017l-.208-4.953s.009-.06.026-.069l3.987-3.693.009-.017Z" style="fill:#92b6da;"/></g><g style="opacity:.5;"><path d="M109.604,294.055s.035,0,.026.026l-1.795,5.341s-.034.043-.06.052l-5.255.957s-.035-.008-.026-.034l1.881-4.591s.035-.043.061-.051l5.168-1.692v-.008Z" style="fill:#92b6da;"/></g><g style="opacity:.5;"><path d="M110.157,284.37s.017-.035.034-.018l4.47,3.426s.034.043.026.069l-.794,5.281s-.017.026-.043.017l-3.737-3.261s-.034-.052-.034-.069l.069-5.437.009-.008Z" style="fill:#92b6da;"/></g><g style="opacity:.5;"><path d="M108.344,272.619s.035-.009.035.017l.595,5.6s-.008.052-.034.069l-4.375,3.063s-.035,0-.035-.017l-.207-4.953s.009-.06.026-.069l3.987-3.693.008-.017Z" style="fill:#92b6da;"/></g></g><g style="opacity:.5;"><g style="opacity:.5;"><path d="M114.255,145.208s-.034.017-.034,0l-1.614-5.402s0-.052.017-.069l3.737-3.805s.034-.009.043.008l1.113,4.833s0,.06-.017.077l-3.245,4.367v-.009Z" style="fill:#92b6da;"/></g><g style="opacity:.5;"><path d="M119.398,153.449s0,.034-.017.034l-5.626-.216s-.052-.017-.061-.043l-2.398-4.772s0-.034.026-.034l4.935.5s.052.018.069.044l3.081,4.478-.009.009Z" style="fill:#92b6da;"/></g><g style="opacity:.5;"><path d="M127.656,161.998s-.026.026-.035.008l-3.719-4.228s-.026-.051-.017-.069l1.803-5.022s.026-.026.044,0l3.028,3.926s.026.052.018.078l-1.131,5.324.009-.017Z" style="fill:#92b6da;"/></g><g style="opacity:.5;"><path d="M124.282,140.427s-.035.017-.035,0l-1.613-5.402s0-.052.017-.069l3.736-3.805s.035-.009.043.008l1.113,4.832s0,.061-.017.078l-3.244,4.366v-.008Z" style="fill:#92b6da;"/></g><g style="opacity:.5;"><path d="M129.425,148.656s0,.034-.017.034l-5.626-.216s-.052-.017-.061-.043l-2.398-4.771s0-.035.025-.035l4.936.5s.052.018.069.044l3.081,4.478-.009.009Z" style="fill:#92b6da;"/></g><g style="opacity:.5;"><path d="M137.691,157.209s-.026.026-.034.008l-3.719-4.228s-.026-.052-.018-.069l1.804-5.022s.026-.026.043,0l3.029,3.926s.026.052.017.078l-1.13,5.324.008-.017Z" style="fill:#92b6da;"/></g><g style="opacity:.5;"><path d="M133.567,166.868s-.035.017-.035,0l-1.614-5.402s0-.051.018-.069l3.736-3.805s.035-.009.043.009l1.113,4.832s0,.06-.017.077l-3.244,4.367v-.009Z" style="fill:#92b6da;"/></g><g style="opacity:.5;"><path d="M138.709,175.097s0,.035-.017.035l-5.626-.216s-.052-.017-.06-.043l-2.399-4.772s0-.035.026-.035l4.936.501s.051.017.069.043l3.08,4.478-.009.009Z" style="fill:#92b6da;"/></g><g style="opacity:.5;"><path d="M146.976,183.65s-.026.026-.035.009l-3.719-4.228s-.026-.052-.017-.069l1.803-5.022s.026-.026.043,0l3.029,3.926s.026.052.017.077l-1.13,5.324.009-.017Z" style="fill:#92b6da;"/></g><g style="opacity:.5;"><path d="M143.593,162.075s-.034.017-.034,0l-1.614-5.402s0-.051.017-.069l3.737-3.805s.034-.009.043.009l1.113,4.832s0,.06-.017.077l-3.245,4.367v-.009Z" style="fill:#92b6da;"/></g><g style="opacity:.5;"><path d="M148.745,170.308s0,.034-.017.034l-5.626-.215s-.052-.017-.061-.043l-2.398-4.772s0-.035.025-.035l4.936.501s.052.017.069.043l3.081,4.478-.009.009Z" style="fill:#92b6da;"/></g><g style="opacity:.5;"><path d="M157.003,178.857s-.026.026-.035.009l-3.719-4.228s-.026-.052-.017-.069l1.803-5.022s.026-.026.043,0l3.029,3.926s.026.052.017.077l-1.13,5.324.009-.017Z" style="fill:#92b6da;"/></g><g style="opacity:.5;"><path d="M134.188,132.911s-.035.017-.035,0l-1.613-5.402s0-.051.017-.069l3.736-3.805s.035-.009.043.009l1.113,4.832s0,.06-.017.077l-3.244,4.367v-.009Z" style="fill:#92b6da;"/></g><g style="opacity:.5;"><path d="M139.331,141.144s0,.034-.018.034l-5.626-.215s-.052-.018-.06-.043l-2.399-4.772s0-.035.026-.035l4.936.501s.051.017.069.043l3.08,4.478-.008.009Z" style="fill:#92b6da;"/></g><g style="opacity:.5;"><path d="M147.597,149.701s-.026.026-.034.009l-3.72-4.229s-.025-.051-.017-.069l1.804-5.022s.026-.025.043,0l3.029,3.927s.025.051.017.077l-1.131,5.324.009-.017Z" style="fill:#92b6da;"/></g><g style="opacity:.5;"><path d="M144.223,128.13s-.034.017-.034,0l-1.614-5.402s0-.052.017-.069l3.737-3.805s.034-.009.043.008l1.113,4.833s0,.06-.017.077l-3.245,4.366v-.008Z" style="fill:#92b6da;"/></g><g style="opacity:.5;"><path d="M149.366,136.363s0,.034-.017.034l-5.626-.216s-.052-.017-.061-.043l-2.399-4.771s0-.035.026-.035l4.936.5s.052.018.069.044l3.081,4.478-.009.009Z" style="fill:#92b6da;"/></g><g style="opacity:.5;"><path d="M157.624,144.912s-.026.026-.035.009l-3.719-4.229s-.026-.051-.017-.069l1.804-5.022s.025-.026.043,0l3.028,3.926s.026.052.018.078l-1.131,5.324.009-.017Z" style="fill:#92b6da;"/></g><g style="opacity:.5;"><path d="M114.186,175.884s-.035.017-.035,0l-1.613-5.402s0-.052.017-.069l3.736-3.805s.035-.009.044.008l1.113,4.832s0,.061-.018.078l-3.244,4.366v-.008Z" style="fill:#92b6da;"/></g><g style="opacity:.5;"><path d="M119.329,184.128s0,.035-.017.035l-5.626-.216s-.052-.017-.061-.043l-2.399-4.772s0-.034.026-.034l4.936.5s.052.017.069.043l3.08,4.479-.008.008Z" style="fill:#92b6da;"/></g><g style="opacity:.5;"><path d="M127.596,192.681s-.026.026-.035.009l-3.719-4.228s-.026-.052-.017-.069l1.803-5.022s.026-.026.043,0l3.029,3.926s.026.052.017.078l-1.13,5.324.009-.018Z" style="fill:#92b6da;"/></g><g style="opacity:.5;"><path d="M124.213,171.11s-.035.017-.035,0l-1.614-5.401s0-.052.018-.069l3.736-3.806s.035-.008.043.009l1.113,4.832s0,.06-.017.078l-3.244,4.366v-.009Z" style="fill:#92b6da;"/></g><g style="opacity:.5;"><path d="M129.355,179.339s0,.035-.017.035l-5.626-.216s-.052-.017-.06-.043l-2.399-4.772s0-.034.026-.034l4.936.5s.051.017.069.043l3.08,4.479-.009.008Z" style="fill:#92b6da;"/></g><g style="opacity:.5;"><path d="M137.622,187.888s-.026.026-.034.009l-3.719-4.228s-.026-.052-.018-.069l1.804-5.022s.026-.026.043,0l3.029,3.926s.026.052.017.078l-1.13,5.324.008-.018Z" style="fill:#92b6da;"/></g><g style="opacity:.5;"><path d="M106.55,170.463s-.026.026-.035.008l-3.719-4.228s-.026-.052-.017-.069l1.803-5.022s.026-.026.043,0l3.029,3.926s.026.052.017.078l-1.13,5.324.009-.017Z" style="fill:#92b6da;"/></g><g style="opacity:.5;"><path d="M103.176,148.891s-.035.018-.035,0l-1.613-5.401s0-.052.017-.069l3.736-3.806s.035-.008.043.009l1.113,4.832s0,.061-.017.078l-3.244,4.366v-.009Z" style="fill:#92b6da;"/></g><g style="opacity:.5;"><path d="M108.319,157.12s0,.035-.018.035l-5.626-.216s-.051-.017-.06-.043l-2.399-4.772s0-.034.026-.034l4.936.5s.051.018.069.043l3.08,4.479-.008.008Z" style="fill:#92b6da;"/></g><g style="opacity:.5;"><path d="M116.585,165.678s-.026.025-.035.008l-3.719-4.228s-.026-.052-.017-.069l1.803-5.022s.026-.026.044,0l3.028,3.926s.026.052.018.078l-1.131,5.324.009-.017Z" style="fill:#92b6da;"/></g><g style="opacity:.5;"><path d="M79.5411,88.3416s-.0258.0259-.0345.0086l-3.719-4.2281s-.0259-.0518-.0173-.0691l1.8035-5.022s.0258-.0259.0431,0l3.0288,3.9262s.0258.0518.0172.0776l-1.1304,5.3241.0086-.0173Z" style="fill:#92b6da;"/></g><g style="opacity:.5;"><path d="M76.1672,66.7587s-.0346.0172-.0346,0l-1.6136-5.4017s0-.0518.0173-.069l3.7363-3.8054s.0345-.0086.0432.0087l1.1131,4.8321s0,.0604-.0173.0777l-3.2444,4.3662v-.0086Z" style="fill:#92b6da;"/></g><g style="opacity:.5;"><path d="M81.3098,75.0033s0,.0345-.0172.0345l-5.6261-.2157s-.0518-.0173-.0604-.0432l-2.3988-4.7717s0-.0345.0259-.0345l4.9357.5004s.0518.0173.069.0432l3.0805,4.4784-.0086.0086Z" style="fill:#92b6da;"/></g><g style="opacity:.5;"><path d="M89.5763,83.5525s-.0259.0259-.0345.0087l-3.7191-4.2282s-.0259-.0518-.0172-.069l1.8034-5.022s.0259-.0259.0432,0l3.0287,3.9261s.0259.0518.0173.0777l-1.1304,5.324.0086-.0173Z" style="fill:#92b6da;"/></g><g style="opacity:.5;"><path d="M105.971,82.8173s-.034.0172-.034,0l-1.614-5.4017s0-.0518.018-.069l3.736-3.8054s.034-.0086.043.0086l1.113,4.8322s0,.0604-.017.0777l-3.245,4.3662v-.0086Z" style="fill:#92b6da;"/></g><g style="opacity:.5;"><path d="M111.114,91.0502s0,.0345-.017.0345l-5.626-.2157s-.052-.0173-.06-.0432l-2.399-4.7717s0-.0346.026-.0346l4.935.5005s.052.0173.069.0432l3.081,4.4783-.009.0087Z" style="fill:#92b6da;"/></g><g style="opacity:.5;"><path d="M119.381,99.6111s-.026.0259-.035.0087l-3.719-4.2282s-.026-.0518-.017-.069l1.803-5.022s.026-.0259.043,0l3.029,3.9261s.026.0518.017.0777l-1.13,5.324.009-.0173Z" style="fill:#92b6da;"/></g><g style="opacity:.5;"><path d="M116.007,78.0282s-.035.0173-.035,0l-1.613-5.4017s0-.0517.017-.069l3.736-3.8053s.035-.0087.043.0086l1.113,4.8322s0,.0604-.017.0776l-3.244,4.3662v-.0086Z" style="fill:#92b6da;"/></g><g style="opacity:.5;"><path d="M121.15,86.2689s0,.0345-.018.0345l-5.626-.2157s-.051-.0173-.06-.0431l-2.399-4.7718s0-.0345.026-.0345l4.936.5005s.052.0172.069.0431l3.08,4.4784-.008.0086Z" style="fill:#92b6da;"/></g><g style="opacity:.5;"><path d="M129.408,94.8221s-.026.0259-.035.0086l-3.719-4.2282s-.026-.0517-.017-.069l1.803-5.022s.026-.0259.043,0l3.029,3.9261s.026.0518.017.0777l-1.13,5.324.009-.0172Z" style="fill:#92b6da;"/></g><g style="opacity:.5;"><path d="M85.4518,93.2001s-.0345.0172-.0345,0l-1.6136-5.4017s0-.0518.0173-.069l3.7363-3.8054s.0345-.0086.0431.0087l1.1132,4.8321s0,.0604-.0173.0777l-3.2445,4.3662v-.0086Z" style="fill:#92b6da;"/></g><g style="opacity:.5;"><path d="M98.8612,109.994s-.0259.026-.0345.009l-3.7191-4.229s-.0258-.051-.0172-.069l1.8034-5.022s.0259-.026.0432,0l3.0287,3.927s.0259.051.0173.077l-1.1304,5.324.0086-.017Z" style="fill:#92b6da;"/></g><g style="opacity:.5;"><path d="M95.4787,88.4188s-.0345.0173-.0345,0l-1.6136-5.4016s0-.0518.0172-.0691l3.7363-3.8053s.0345-.0086.0432.0086l1.1131,4.8322s0,.0604-.0172.0776l-3.2445,4.3663v-.0087Z" style="fill:#92b6da;"/></g><g style="opacity:.5;"><path d="M100.63,96.6517s0,.0345-.017.0345l-5.6262-.2157s-.0518-.0172-.0604-.0431l-2.3988-4.7718s0-.0345.0259-.0345l4.9357.5005s.0518.0172.069.0431l3.0808,4.4784-.009.0086Z" style="fill:#92b6da;"/></g><g style="opacity:.5;"><path d="M108.888,105.205s-.026.026-.034.009l-3.72-4.229s-.025-.051-.017-.069l1.804-5.0217s.026-.0259.043,0l3.029,3.9262s.025.0517.017.0776l-1.131,5.3239.009-.017Z" style="fill:#92b6da;"/></g><g style="opacity:.5;"><path d="M91.2158,67.4838s0,.0345-.0172.0345l-5.6261-.2157s-.0518-.0173-.0604-.0432l-2.3988-4.7718s0-.0345.0259-.0345l4.9357.5005s.0518.0173.069.0431l3.0805,4.4784-.0086.0087Z" style="fill:#92b6da;"/></g><g style="opacity:.5;"><path d="M99.4823,76.0369s-.0259.0259-.0345.0086l-3.7191-4.2281s-.0259-.0518-.0172-.069l1.8034-5.0221s.0259-.0258.0432,0l3.0289,3.9262s.026.0518.017.0777l-1.1303,5.324.0086-.0173Z" style="fill:#92b6da;"/></g><g style="opacity:.5;"><path d="M101.251,62.7064s0,.0345-.017.0345l-5.6261-.2157s-.0518-.0172-.0604-.0431l-2.3988-4.7718s0-.0345.0259-.0345l4.9357.5005s.0518.0172.069.0431l3.0807,4.4784-.009.0086Z" style="fill:#92b6da;"/></g><g style="opacity:.5;"><path d="M109.509,71.2557s-.025.0258-.034.0086l-3.719-4.2282s-.026-.0517-.017-.069l1.803-5.022s.026-.0259.043,0l3.029,3.9261s.026.0518.017.0777l-1.13,5.324.008-.0172Z" style="fill:#92b6da;"/></g><g style="opacity:.5;"><path d="M99.2064,144.049s-.0259.026-.0345.008l-3.7191-4.228s-.0258-.052-.0172-.069l1.8034-5.022s.0259-.026.0432,0l3.0288,3.926s.026.052.017.078l-1.1302,5.324.0086-.017Z" style="fill:#92b6da;"/></g><g style="opacity:.5;"><path d="M95.8324,122.477s-.0345.018-.0345,0l-1.6136-5.401s0-.052.0173-.069l3.7363-3.806s.0345-.008.0431.009l1.1132,4.832s0,.061-.0173.078l-3.2445,4.366v-.009Z" style="fill:#92b6da;"/></g><g style="opacity:.5;"><path d="M100.975,130.71s0,.035-.017.035l-5.626-.216s-.0517-.017-.0604-.043l-2.3988-4.772s0-.034.0259-.034l4.9357.5s.0518.017.0691.043l3.0805,4.479-.009.008Z" style="fill:#92b6da;"/></g><g style="opacity:.5;"><path d="M109.242,139.26s-.026.025-.035.008l-3.719-4.228s-.026-.052-.017-.069l1.803-5.022s.026-.026.043,0l3.029,3.926s.026.052.017.078l-1.13,5.324.009-.017Z" style="fill:#92b6da;"/></g><g style="opacity:.5;"><path d="M106.161,117.231s-.034.018-.034,0l-1.614-5.401s0-.052.017-.069l3.737-3.806s.034-.008.043.009l1.113,4.832s0,.06-.017.078l-3.245,4.366v-.009Z" style="fill:#92b6da;"/></g><g style="opacity:.5;"><path d="M111.304,125.464s0,.035-.017.035l-5.626-.216s-.052-.017-.061-.043l-2.399-4.772s0-.034.026-.034l4.936.5s.052.017.069.043l3.081,4.479-.009.008Z" style="fill:#92b6da;"/></g><g style="opacity:.5;"><path d="M119.57,134.017s-.025.026-.034.009l-3.719-4.228s-.026-.052-.017-.069l1.803-5.022s.026-.026.043,0l3.029,3.926s.026.052.017.078l-1.13,5.324.008-.018Z" style="fill:#92b6da;"/></g><g style="opacity:.5;"><path d="M116.188,112.442s-.035.018-.035,0l-1.613-5.401s0-.052.017-.069l3.736-3.806s.035-.008.044.009l1.113,4.832s0,.06-.018.078l-3.244,4.366v-.009Z" style="fill:#92b6da;"/></g><g style="opacity:.5;"><path d="M121.339,120.675s0,.035-.017.035l-5.626-.216s-.052-.017-.06-.043l-2.399-4.772s0-.034.026-.034l4.935.5s.052.017.069.043l3.081,4.479-.009.008Z" style="fill:#92b6da;"/></g><g style="opacity:.5;"><path d="M129.598,129.236s-.026.026-.035.009l-3.719-4.228s-.026-.052-.017-.069l1.803-5.022s.026-.026.043,0l3.029,3.926s.026.051.017.077l-1.13,5.324.009-.017Z" style="fill:#92b6da;"/></g><g style="opacity:.5;"><path d="M126.413,107.067s-.035.018-.035,0l-1.613-5.401s0-.052.017-.069l3.736-3.8058s.035-.0086.044.0087l1.113,4.8321s0,.06-.018.078l-3.244,4.366v-.009Z" style="fill:#92b6da;"/></g><g style="opacity:.5;"><path d="M131.556,115.292s0,.035-.017.035l-5.626-.216s-.052-.017-.061-.043l-2.398-4.772s0-.034.025-.034l4.936.5s.052.017.069.043l3.081,4.479-.009.008Z" style="fill:#92b6da;"/></g><g style="opacity:.5;"><path d="M139.822,123.849s-.026.026-.034.009l-3.719-4.228s-.026-.052-.017-.069l1.803-5.022s.026-.026.043,0l3.029,3.926s.026.052.017.078l-1.13,5.324.008-.018Z" style="fill:#92b6da;"/></g><g style="opacity:.5;"><path d="M136.44,102.278s-.035.017-.035,0l-1.613-5.4015s0-.0517.017-.069l3.736-3.8053s.035-.0087.043.0086l1.114,4.8322s0,.0604-.018.0776l-3.244,4.3664v-.009Z" style="fill:#92b6da;"/></g><g style="opacity:.5;"><path d="M141.592,110.507s0,.035-.018.035l-5.626-.216s-.052-.017-.06-.043l-2.399-4.772s0-.034.026-.034l4.936.5s.051.017.069.043l3.08,4.479-.008.008Z" style="fill:#92b6da;"/></g><g style="opacity:.5;"><path d="M149.849,119.072s-.026.026-.034.009l-3.719-4.228s-.026-.052-.018-.069l1.804-5.022s.026-.026.043,0l3.029,3.926s.026.051.017.077l-1.13,5.324.008-.017Z" style="fill:#92b6da;"/></g></g><path d="M151.898,560.243c-6.633,1.191-11.983-2.218-13.082-8.687-2.269-13.401,3.409-26.73,9.848-39.247-10.423-11.727-24.696-25.825-21.626-41.28,8.266-13.318,34.277-3.029,48.16,4.395,8.122-8.913,17.169-16.286,28.126-20.824,4.117-1.705,8.625-2.239,12.753-.514,5.083,2.752,6.418,8.082,6.213,13.678-.432,11.881-4.899,22.868-10.546,33.855,10.022,10.125,22.2,23.413,22.385,37.337-.318,4.765-3.183,7.804-7.65,9.016-13.051,3.542-28.68-3.913-41.341-9.581-8.924,9.458-20.886,19.623-33.25,21.852h.01Z" style="fill:#603813;"/><rect x="94.2354" y="577.738" width="16.0778" height=".2032" style="fill:#215523;"/><rect x="94.4504" y="577.609" width="15.8178" height=".2736" style="fill:#215523;"/><line x1="110.0215" y1="577.8464" x2="110.3426" y2="577.6897" style="fill:none; stroke:#215523; stroke-miterlimit:4; stroke-width:1px;"/><line x1="94.2257" y1="578.141" x2="94.0258" y2="577.8545" style="fill:none; stroke:#215523; stroke-miterlimit:4; stroke-width:1px;"/><path d="M94.7993,403.8975s52.8608-61.653,121.5468-1.38c68.686,60.273-121.5468,1.38-121.5468,1.38Z" style="fill:#f3c791;"/><path d="M38.2285,493.5635c6.2991,29.856,21.7362,94.383,43.9124,129.684,4.9875,7.947,12.7622,18.483,21.5722,20.217,37.027,7.291,99.526,4.038,128.899,1.916,10.794-.777,20.571-12.15,26.188-22.03,12.115-21.287,32.186-64.604,42.739-131.815,1.338-8.516-.207-17.275-4.444-24.627-17.197-29.856-41.151-59.539-61.532-78.505-5.359-4.988-12.038-8.18-19.139-8.707-8.845-.656-18.44,1.433-27.889,3.926-15.756,4.168-31.892,6.472-48.123,6.757-19.562.345-38.269,7.222-53.6806,19.277-7.7574,6.066-14.6778,13.444-20.4505,21.96l-22.5214,33.204c-5.6261,8.293-7.6366,18.751-5.5311,28.734v.009Z" style="fill:#fd9d07;"/><path d="M144.661,555.8259c-6.7361.2012-11.5257-3.9586-11.66-10.5189-.2708-13.5881,7.3083-25.9355,15.5204-37.3677-8.5823-13.1342-20.6233-29.1814-15.3108-44.0148,10.1372-11.9555,34.3493,2.052,46.9876,11.4396,9.3461-7.6197,19.3803-13.5799,30.8862-16.4558,4.323-1.0791,8.8605-.9434,12.6895,1.3707,4.6223,3.4706,5.1579,8.9381,4.1309,14.4439-2.1769,11.6868-8.2134,21.8972-15.4169,31.9327,8.4216,11.4906,18.51,26.4261,16.6422,40.2266-1.0161,4.6652-4.2976,7.2501-8.8942,7.7901-13.4305,1.5823-27.7912-8.0931-39.4794-15.5639-10.2194,8.0396-23.5482,16.3331-36.1055,16.716l.0099.0015Z" style="fill:#603813;"/><path d="M181.5177,458.7754c3.6043,8.8635,3.0891,19.9169,2.6154,30.4208-.1028,2.2103-2.3131,4.387-.6997,7.2086,6.8443-11.0738,19.0716-23.5277,32.3425-27.7157-5.2658,13.5041-15.9687,24.3447-27.6057,31.7456,2.6846,1.3802,4.7236-.0824,7.0439-.3709,11.7741-1.4553,23.5686-.7346,35.3631,4.4765-13.9086,6.3021-28.8206,6.1717-43.9446,2.9106,7.0228,4.9845,14.8151,10.552,19.882,17.3765,3.57,4.8125,7.3048,9.3569,9.0967,15.694-13.8822-5.2658-24.3104-15.4812-32.2812-27.6809-1.3248,2.6497.5975,4.8876.7346,7.2152.6595,11.5955,1.1812,24.3723-4.5793,35.116-3.5424-6.81-4.3112-13.8816-4.9496-21.0006-.7141-7.8957.5626-14.7262,2.2037-22.7517-7.9708,11.9111-19.1474,24.3855-33.359,28.841,5.8837-14.4376,16.4496-24.7703,29.1987-32.7543-8.7396,1.5304-16.3192,2.8691-24.5713,1.8328-6.6111-.8308-13.3324-1.3249-19.3739-4.8811,13.7583-6.1651,27.1939-5.7533,42.3595-3.5977-11.9184-8.513-22.3333-17.9668-27.6472-32.3425,13.6622,4.9838,25.1069,16.36,33.0777,28.841l-1.8473-12.8723c-1.2148-8.4854,1.0646-21.6739,4.2565-29.8233,1.9224-.3841,2.4442,2.3961,2.6912,4.1122h-.0066Z" style="fill:#603813;"/><path d="M144.713,556.214c-6.7361.2012-11.5257-3.9586-11.66-10.5189-.2708-13.5881,7.3083-25.9355,15.5204-37.3677-8.5823-13.1342-20.6233-29.1814-15.3108-44.0148,10.1372-11.9555,34.3493,2.052,46.9876,11.4396,9.3461-7.6197,19.3803-13.5799,30.8862-16.4558,4.323-1.0791,8.8605-.9434,12.6895,1.3707,4.6223,3.4706,5.1579,8.9381,4.1309,14.4439-2.1769,11.6868-8.2134,21.8972-15.4169,31.9327,8.4216,11.4906,18.51,26.4261,16.6422,40.2266-1.0161,4.6652-4.2976,7.2501-8.8942,7.7901-13.4305,1.5823-27.7912-8.0931-39.4794-15.5639-10.2194,8.0396-23.5482,16.3331-36.1055,16.716l.0099.0015Z" style="fill:#603813;"/><path d="M181.5697,459.1635c3.6043,8.8635,3.0891,19.9169,2.6154,30.4208-.1028,2.2103-2.3131,4.387-.6997,7.2086,6.8443-11.0738,19.0716-23.5277,32.3425-27.7157-5.2658,13.5041-15.9687,24.3447-27.6057,31.7456,2.6846,1.3802,4.7236-.0824,7.0439-.3709,11.7741-1.4553,23.5686-.7346,35.3631,4.4765-13.9086,6.3021-28.8206,6.1717-43.9446,2.9106,7.0228,4.9845,14.8151,10.552,19.882,17.3765,3.57,4.8125,7.3048,9.3569,9.0967,15.694-13.8822-5.2658-24.3104-15.4812-32.2812-27.6809-1.3248,2.6497.5975,4.8876.7346,7.2152.6595,11.5955,1.1812,24.3723-4.5793,35.116-3.5424-6.81-4.3112-13.8816-4.9496-21.0006-.7141-7.8957.5626-14.7262,2.2037-22.7517-7.9708,11.9111-19.1474,24.3855-33.359,28.841,5.8837-14.4376,16.4496-24.7703,29.1987-32.7543-8.7396,1.5304-16.3192,2.8691-24.5713,1.8328-6.6111-.8308-13.3324-1.3249-19.3739-4.8811,13.7583-6.1651,27.1939-5.7533,42.3595-3.5977-11.9184-8.513-22.3333-17.9668-27.6472-32.3425,13.6622,4.9838,25.1069,16.36,33.0777,28.841l-1.8473-12.8723c-1.2148-8.4854,1.0646-21.6739,4.2565-29.8233,1.9224-.3841,2.4442,2.3961,2.6912,4.1122h-.0066Z" style="fill:#603813;"/><g style="mask:url(#b);"><path d="M83.7314,78.1864l.0604,7.1189c.0604,7.369,4.789,13.2971,10.5531,13.2453l5.4535-.0518c4.7461-.0431,8.9141,4.0041,10.1821,9.8451,3.615,16.663,9.923,53.56,9.009,104.936-1.208,67.944-27.3282,124.006-30.8488,130.141-.1898.337-.3624.665-.5263,1.018L11.8785,461.8179c-.7679,1.225-3.8743,9.526-4.2713,11.01-.7162,2.71-.7248,5.678,0,8.44,7.9127,30.201,56.8645,193.658,113.5133,195.409,80.766,2.503,116.749,2.485,123.488-1.579.794-.474,1.51-1.061,2.183-1.777,9.526-10.096,74.528-104.013,87.048-199.405.389-2.977-.474-5.989-1.82-8.474-22.271-41.151-68.074-91.129-85.815-129.623-18.336-39.77-29.787-100.725-29.976-122.504-.147-16.973.06-78.117.914-104.28.225-6.826,4.453-12.305,9.794-12.6933,6.187-.4487,11.399-7.3,11.571-15.2214l.061-2.7353c.164-7.533-4.591-13.7717-10.484-13.7717l-133.9553.1208c-5.79,0-10.4496,6.0316-10.3806,13.4352l-.0172.0172Z" style="fill:#c59b6d; stroke:#c59b6d; stroke-miterlimit:10; stroke-width:9px;"/></g><path d="M144.713,555.214c-6.7361.2012-11.5257-3.9586-11.66-10.5189-.2708-13.5881,7.3083-25.9355,15.5204-37.3677-8.5823-13.1342-20.6233-29.1814-15.3108-44.0148,10.1372-11.9555,34.3493,2.052,46.9876,11.4396,9.3461-7.6197,19.3803-13.5799,30.8862-16.4558,4.323-1.0791,8.8605-.9434,12.6895,1.3707,4.6223,3.4706,5.1579,8.9381,4.1309,14.4439-2.1769,11.6868-8.2134,21.8972-15.4169,31.9327,8.4216,11.4906,18.51,26.4261,16.6422,40.2266-1.0161,4.6652-4.2976,7.2501-8.8942,7.7901-13.4305,1.5823-27.7912-8.0931-39.4794-15.5639-10.2194,8.0396-23.5482,16.3331-36.1055,16.716l.0099.0015Z" style="fill:#603813;"/><path d="M182.2648,450.5262c4.2285,10.3985,3.6241,23.3662,3.0684,35.6892-.1206,2.5931-2.7136,5.1467-.8208,8.457,8.0296-12.9916,22.3746-27.6024,37.9438-32.5157-6.1778,15.8428-18.7342,28.5608-32.3866,37.2435,3.1495,1.6192,5.5417-.0966,8.2638-.4351,13.8132-1.7073,27.6503-.8618,41.4875,5.2518-16.3174,7.3935-33.8119,7.2405-51.5552,3.4147,8.2391,5.8477,17.3809,12.3795,23.3252,20.3859,4.1883,5.646,8.5699,10.9774,10.6721,18.4119-16.2864-6.1778-28.5206-18.1623-37.8719-32.4748-1.5543,3.1086.701,5.7341.8618,8.4648.7737,13.6037,1.3858,28.5933-5.3724,41.1976-4.1559-7.9894-5.0578-16.2857-5.8068-24.6376-.8378-9.2632.6601-17.2765,2.5853-26.6919-9.3513,13.9739-22.4634,28.6087-39.1363,33.8358,6.9027-16.938,19.2984-29.0601,34.2555-38.4268-10.2532,1.7954-19.1454,3.366-28.8267,2.1502-7.756-.9746-15.6414-1.5543-22.7292-5.7264,16.1411-7.2328,31.9035-6.7497,49.6956-4.2208-13.9825-9.9873-26.2012-21.0784-32.4353-37.9437,16.0283,5.847,29.455,19.1933,38.8063,33.8358l-2.1672-15.1016c-1.4252-9.9549,1.249-25.4275,4.9937-34.9882,2.2553-.4506,2.8674,2.811,3.1573,4.8244h-.0077Z" style="fill:#603813;"/></svg>