<svg width="321" height="634" viewBox="0 0 321 634" fill="none" xmlns="http://www.w3.org/2000/svg">
<path d="M104.482 12.15C95.5462 15.13 94.3168 27.31 102.493 32.01C111.648 37.27 120.753 43.38 120.753 50.76V113.69C120.753 117.37 118.144 120.52 114.536 121.22C93.7271 125.21 27.1814 142.37 15.1976 200.28C11.3896 218.71 10.2102 238.38 10.54 257.3C11.3196 302.61 21.0346 347.32 38.5256 389.13C55.207 428.99 80.304 496.01 84.152 546.53C84.9316 556.75 80.2341 566.59 71.9183 572.58C65.1718 577.43 59.2849 582.65 59.2849 589.89C59.2849 602.15 81.6233 629.25 163.451 629.25C194.865 629.25 217.743 624.09 234.005 617.74C253.555 610.1 255.923 583.37 237.983 572.46C237.733 572.31 237.483 572.16 237.223 572C234.754 570.5 233.335 567.75 233.535 564.87C236.204 526.09 277.133 408.75 293.904 352.77C299.901 332.75 322.959 252.5 302.21 189.61C285.048 137.62 227.308 124.55 207.798 121.59C204.06 121.02 201.302 117.8 201.302 114.02V52.29C201.302 51.2 201.532 50.13 201.981 49.14C204.34 43.94 230.437 38.01 230.437 27C230.437 14.99 217.263 4.5 159.303 4.5C134.316 4.5 116.505 8.17 104.492 12.17L104.482 12.15Z" fill="#DCD6CB"/>
<path d="M104.482 12.15C95.5462 15.13 94.3168 27.31 102.493 32.01C111.648 37.27 120.753 43.38 120.753 50.76V113.69C120.753 117.37 118.144 120.52 114.536 121.22C93.7271 125.21 27.1814 142.37 15.1976 200.28C11.3896 218.71 10.2102 238.38 10.54 257.3C11.3196 302.61 21.0346 347.32 38.5256 389.13C55.207 428.99 80.304 496.01 84.152 546.53C84.9316 556.75 80.2341 566.59 71.9183 572.58C65.1718 577.43 59.2849 582.65 59.2849 589.89C59.2849 602.15 81.6233 629.25 163.451 629.25C194.865 629.25 217.743 624.09 234.005 617.74C253.555 610.1 255.923 583.37 237.983 572.46C237.733 572.31 237.483 572.16 237.223 572C234.754 570.5 233.335 567.75 233.535 564.87C236.204 526.09 277.133 408.75 293.904 352.77C299.901 332.75 322.959 252.5 302.21 189.61C285.048 137.62 227.308 124.55 207.798 121.59C204.06 121.02 201.302 117.8 201.302 114.02V52.29C201.302 51.2 201.532 50.13 201.981 49.14C204.34 43.94 230.437 38.01 230.437 27C230.437 14.99 217.263 4.5 159.303 4.5C134.316 4.5 116.505 8.17 104.492 12.17L104.482 12.15Z" stroke="#DCD6CB" stroke-width="9" stroke-miterlimit="10"/>
<mask id="mask0_190_48038" style="mask-type:alpha" maskUnits="userSpaceOnUse" x="0" y="155" width="322" height="194">
<path d="M320.5 347.73H208.632L186.701 322.815L185.909 321.916L185.827 323.111L184.139 347.73H129.281L121.986 339.442L121.195 338.544L121.112 339.738L120.554 347.73H105.011L100.977 338.15L100.709 337.517L100.189 337.967L88.8931 347.73H74.2808L60.2183 314.412L59.2583 314.572L56.9937 347.73H43.0073L16.3882 332.24L15.6929 331.835L15.6382 332.638L14.6108 347.73H0.665527V163.422C15.4082 168.029 33.7861 171.92 54.8052 174.859C57.3641 175.242 59.9567 175.585 62.605 175.908L75.6655 188.851L76.5171 189.694V177.479C79.7139 177.819 82.9713 178.125 86.27 178.403L117.952 209.804L118.803 210.648V180.414C129.027 180.841 139.55 181.041 150.27 181.041H152.912L160.104 209.561L161.088 209.438V180.962C165.23 180.919 169.338 180.83 173.39 180.691L173.389 180.69C176.205 180.618 178.984 180.526 181.751 180.413C187.186 180.202 192.551 179.929 197.825 179.59L202.428 188.71L202.738 189.324L203.226 188.84L213.717 178.443C218.662 178.016 223.494 177.539 228.236 177.025L244.713 209.674L245.66 209.448V174.881C249.104 174.401 252.483 173.887 255.796 173.362L287.224 188.943L287.946 189.301V166.809C293.266 165.446 298.214 164.016 302.789 162.501L308.237 167.896L308.564 167.565L308.902 167.932L308.914 167.922L309.327 167.568L309.297 167.54L320.5 156.43V347.73Z" fill="#C59B6D" stroke="#C59B6D"/>
</mask>
<g mask="url(#mask0_190_48038)">
<path d="M159.634 7C188.6 7.00003 206.305 9.62376 216.753 13.7119C221.97 15.7537 225.343 18.148 227.412 20.7305C229.473 23.3038 230.266 26.0971 230.266 29C230.266 31.5409 228.762 33.8508 226.322 35.998C223.887 38.1408 220.597 40.053 217.194 41.8037C215.496 42.6775 213.779 43.5073 212.134 44.3027C210.491 45.0968 208.918 45.8586 207.52 46.5928C206.124 47.3259 204.886 48.0398 203.918 48.7422C202.962 49.4351 202.207 50.1604 201.856 50.9336C201.377 51.9891 201.132 53.1294 201.132 54.29V116.02C201.132 120.046 204.07 123.477 208.052 124.084H208.053C217.78 125.56 237.03 129.556 255.979 139.655C274.924 149.752 293.536 165.931 302.064 191.767C312.405 223.109 311.837 258.808 307.921 289.202C304.005 319.588 296.75 344.625 293.755 354.626C285.366 382.626 270.954 425.914 258.283 467.123C251.951 487.716 246.058 507.777 241.581 525.116C237.106 542.446 234.037 557.09 233.366 566.835C233.16 569.805 234.572 572.647 237.051 574.273L237.294 574.428L238.055 574.889C255.638 585.584 253.318 611.785 234.153 619.274C217.955 625.599 195.139 630.75 163.781 630.75C122.916 630.75 96.9621 623.982 81.2449 615.725C65.501 607.453 60.115 597.746 60.115 591.89C60.1151 588.418 61.5226 585.412 63.7878 582.656C66.0594 579.893 69.173 577.407 72.5398 574.986L72.5408 574.985C80.9941 568.896 85.7733 558.89 84.9802 548.492C81.1254 497.883 55.9973 430.795 39.3171 390.938C21.8496 349.184 12.1483 304.535 11.3699 259.291C11.0405 240.396 12.2189 220.764 16.0173 202.381C21.9705 173.614 41.4753 154.948 62.1384 142.963C82.8048 130.976 104.582 125.701 114.961 123.711H114.962C118.804 122.965 121.583 119.61 121.583 115.69V52.7598C121.583 48.8559 119.177 45.3581 115.722 42.2197C112.258 39.0729 107.651 36.2077 103.071 33.5762H103.072C95.3969 29.164 96.4074 17.8415 104.561 14.7686L104.568 14.7812L104.979 14.6445C116.938 10.6627 134.696 7 159.634 7Z" fill="#C59B6D" stroke="#C59B6D"/>
<path d="M104.811 14.15C95.876 17.13 94.6466 29.31 102.822 34.01C111.978 39.27 121.083 45.38 121.083 52.76V115.69C121.083 119.37 118.474 122.52 114.866 123.22C94.0569 127.21 27.5112 144.37 15.5274 202.28C11.7194 220.71 10.54 240.38 10.8698 259.3C11.6494 304.61 21.3644 349.32 38.8554 391.13C55.5368 430.99 80.6338 498.01 84.4819 548.53C85.2615 558.75 80.5639 568.59 72.2482 574.58C65.5017 579.43 59.6147 584.65 59.6147 591.89C59.6147 604.15 81.9532 631.25 163.781 631.25C195.195 631.25 218.073 626.09 234.335 619.74C253.885 612.1 256.253 585.37 238.313 574.46C238.063 574.31 237.813 574.16 237.553 574C235.084 572.5 233.665 569.75 233.865 566.87C236.533 528.09 277.462 410.75 294.234 354.77C300.231 334.75 323.289 254.5 302.539 191.61C285.378 139.62 227.638 126.55 208.128 123.59C204.39 123.02 201.631 119.8 201.631 116.02V54.29C201.631 53.2 201.861 52.13 202.311 51.14C204.67 45.94 230.766 40.01 230.766 29C230.766 16.99 217.593 6.5 159.633 6.5C134.646 6.5 116.835 10.17 104.821 14.17L104.811 14.15Z" stroke="#C59B6D" stroke-width="9" stroke-miterlimit="10"/>
</g>
<path d="M75.1469 561.691C114.557 575.341 157.264 582.831 198.603 575.001C212.286 572.421 225.539 567.811 238.263 561.691C220.712 573.721 199.543 580.461 178.344 582.411C143.332 585.511 106.321 577.801 75.1469 561.691Z" fill="#E2E3E2"/>
<path d="M256.533 152.199C278.542 160.629 290.596 187.919 294.833 209.649C299.441 232.919 298.621 257.119 294.374 280.349C294.654 251.299 294.584 221.769 285.588 193.909C280.191 177.819 271.525 161.149 256.533 152.199Z" fill="#E7E2D5"/>
<path d="M65.5815 151.401C59.2248 154.961 54.1774 160.421 49.8297 166.171C43.9027 174.311 39.6449 183.561 36.5165 193.111C27.5212 220.971 27.4512 250.501 27.7311 279.551C23.2434 254.871 22.5238 229.041 28.2308 204.471C32.9884 184.051 44.8422 159.331 65.5716 151.391L65.5815 151.401Z" fill="#E7E2D5"/>
<path d="M125.711 52.8906C136.685 69.4706 135.735 95.2706 126.93 112.631C127.12 108.751 127.62 105.051 127.889 101.221C129.339 85.0606 129.059 68.8606 125.711 52.8906Z" fill="#E7E2D5"/>
<path d="M196.734 53.3906C193.386 69.3606 193.106 85.5706 194.555 101.721C194.825 105.541 195.325 109.241 195.515 113.131C186.709 95.7806 185.76 69.9806 196.734 53.3906Z" fill="#E7E2D5"/>
<path d="M32.7866 381.841C32.7866 381.841 161.38 371.241 280.469 381.261C265.457 401.281 256.951 406.291 256.951 406.291L32.7866 381.841Z" fill="#C2C4DC"/>
<path d="M31.3594 382.001C31.3594 382.001 95.1565 361.651 152.197 382.001C209.238 402.351 280.541 380.841 280.541 380.841C280.541 380.841 226.499 508.191 226.499 552.961C170.957 574.481 97.4053 555.291 97.4053 555.291C97.4053 555.291 101.153 490.741 31.3594 382.011V382.001Z" fill="#8EB3D6"/>
<g opacity="0.5">
<g opacity="0.5">
<path d="M63.5728 152.981C63.5728 152.981 63.5428 152.951 63.5728 152.941L69.1599 149.571C69.1599 149.571 69.2199 149.561 69.2498 149.571L74.5971 152.671C74.5971 152.671 74.6171 152.711 74.5971 152.721L69.4997 155.361C69.4997 155.361 69.4298 155.371 69.4098 155.361L63.5828 152.981H63.5728Z" fill="#92B6DA"/>
</g>
<g opacity="0.5">
<path d="M55.8168 161.131C55.8168 161.131 55.7769 161.151 55.7769 161.121L54.3976 154.741C54.3976 154.741 54.3976 154.681 54.4276 154.661L59.0852 150.591C59.0852 150.591 59.1251 150.581 59.1351 150.611L59.9947 156.291C59.9947 156.291 59.9947 156.361 59.9647 156.381L55.8268 161.131H55.8168Z" fill="#92B6DA"/>
</g>
<g opacity="0.5">
<path d="M48.6005 172.872C48.6005 172.872 48.5606 172.852 48.5805 172.832L52.2587 167.442C52.2587 167.442 52.3086 167.402 52.3386 167.402L58.4954 167.982C58.4954 167.982 58.5354 168.002 58.5154 168.022L54.9872 172.552C54.9872 172.552 54.9373 172.592 54.9073 172.592L48.6105 172.862L48.6005 172.872Z" fill="#92B6DA"/>
</g>
<g opacity="0.5">
<path d="M71.8288 162.86C71.8288 162.86 71.7988 162.83 71.8288 162.82L77.4159 159.45C77.4159 159.45 77.4759 159.44 77.5058 159.45L82.8531 162.55C82.8531 162.55 82.8731 162.59 82.8531 162.6L77.7557 165.24C77.7557 165.24 77.6857 165.25 77.6657 165.24L71.8388 162.86H71.8288Z" fill="#92B6DA"/>
</g>
<g opacity="0.5">
<path d="M64.0724 171.01C64.0724 171.01 64.0324 171.03 64.0324 171L62.6531 164.62C62.6531 164.62 62.6531 164.56 62.6831 164.54L67.3407 160.47C67.3407 160.47 67.3806 160.46 67.3906 160.49L68.2502 166.17C68.2502 166.17 68.2502 166.24 68.2202 166.26L64.0823 171.01H64.0724Z" fill="#92B6DA"/>
</g>
<g opacity="0.5">
<path d="M56.856 182.751C56.856 182.751 56.8161 182.731 56.836 182.711L60.5141 177.321C60.5141 177.321 60.5641 177.281 60.5941 177.281L66.7509 177.861C66.7509 177.861 66.7909 177.881 66.7709 177.901L63.2427 182.431C63.2427 182.431 63.1928 182.471 63.1628 182.471L56.866 182.741L56.856 182.751Z" fill="#92B6DA"/>
</g>
<g opacity="0.5">
<path d="M62.4035 200.95C62.4035 200.95 62.3735 200.92 62.4035 200.91L67.9906 197.54C67.9906 197.54 68.0506 197.53 68.0805 197.54L73.4278 200.64C73.4278 200.64 73.4478 200.68 73.4278 200.69L68.3304 203.33C68.3304 203.33 68.2604 203.34 68.2405 203.33L62.4135 200.95H62.4035Z" fill="#92B6DA"/>
</g>
<g opacity="0.5">
<path d="M54.6477 209.088C54.6477 209.088 54.6077 209.108 54.6077 209.078L53.2284 202.698C53.2284 202.698 53.2284 202.638 53.2584 202.618L57.916 198.548C57.916 198.548 57.956 198.538 57.966 198.568L58.8255 204.248C58.8255 204.248 58.8255 204.318 58.7955 204.338L54.6577 209.088H54.6477Z" fill="#92B6DA"/>
</g>
<g opacity="0.5">
<path d="M47.4314 220.829C47.4314 220.829 47.3914 220.809 47.4114 220.789L51.0895 215.399C51.0895 215.399 51.1394 215.359 51.1694 215.359L57.3263 215.939C57.3263 215.939 57.3662 215.959 57.3462 215.979L53.8181 220.509C53.8181 220.509 53.7681 220.549 53.7381 220.549L47.4413 220.819L47.4314 220.829Z" fill="#92B6DA"/>
</g>
<g opacity="0.5">
<path d="M70.6596 210.829C70.6596 210.829 70.6296 210.799 70.6596 210.789L76.2467 207.419C76.2467 207.419 76.3067 207.409 76.3366 207.419L81.6839 210.519C81.6839 210.519 81.7039 210.559 81.6839 210.569L76.5865 213.209C76.5865 213.209 76.5165 213.219 76.4966 213.209L70.6696 210.829H70.6596Z" fill="#92B6DA"/>
</g>
<g opacity="0.5">
<path d="M62.9032 218.971C62.9032 218.971 62.8632 218.991 62.8632 218.961L61.4839 212.581C61.4839 212.581 61.4839 212.521 61.5139 212.501L66.1715 208.431C66.1715 208.431 66.2114 208.421 66.2214 208.451L67.081 214.131C67.081 214.131 67.081 214.201 67.051 214.221L62.9131 218.971H62.9032Z" fill="#92B6DA"/>
</g>
<g opacity="0.5">
<path d="M55.6868 230.708C55.6868 230.708 55.6469 230.688 55.6669 230.668L59.345 225.278C59.345 225.278 59.3949 225.238 59.4249 225.238L65.5817 225.818C65.5817 225.818 65.6217 225.838 65.6017 225.858L62.0736 230.388C62.0736 230.388 62.0236 230.428 61.9936 230.428L55.6968 230.698L55.6868 230.708Z" fill="#92B6DA"/>
</g>
<g opacity="0.5">
<path d="M44.8426 180.899C44.8426 180.899 44.8126 180.869 44.8426 180.859L50.4297 177.489C50.4297 177.489 50.4896 177.479 50.5196 177.489L55.8669 180.589C55.8669 180.589 55.8869 180.629 55.8669 180.639L50.7695 183.279C50.7695 183.279 50.6995 183.289 50.6795 183.279L44.8525 180.899H44.8426Z" fill="#92B6DA"/>
</g>
<g opacity="0.5">
<path d="M37.0866 189.049C37.0866 189.049 37.0467 189.069 37.0467 189.039L35.6674 182.659C35.6674 182.659 35.6674 182.599 35.6973 182.579L40.3549 178.509C40.3549 178.509 40.3949 178.499 40.4049 178.529L41.2645 184.209C41.2645 184.209 41.2645 184.279 41.2345 184.299L37.0966 189.049H37.0866Z" fill="#92B6DA"/>
</g>
<g opacity="0.5">
<path d="M29.8703 200.79C29.8703 200.79 29.8303 200.77 29.8503 200.75L33.5284 195.36C33.5284 195.36 33.5784 195.32 33.6084 195.32L39.7652 195.9C39.7652 195.9 39.8052 195.92 39.7852 195.94L36.257 200.47C36.257 200.47 36.207 200.51 36.1771 200.51L29.8803 200.78L29.8703 200.79Z" fill="#92B6DA"/>
</g>
<g opacity="0.5">
<path d="M53.1083 190.778C53.1083 190.778 53.0783 190.748 53.1083 190.738L58.6954 187.368C58.6954 187.368 58.7554 187.358 58.7854 187.368L64.1326 190.468C64.1326 190.468 64.1526 190.508 64.1326 190.518L59.0352 193.158C59.0352 193.158 58.9653 193.168 58.9453 193.158L53.1183 190.778H53.1083Z" fill="#92B6DA"/>
</g>
<g opacity="0.5">
<path d="M45.3524 198.928C45.3524 198.928 45.3124 198.948 45.3124 198.918L43.9331 192.538C43.9331 192.538 43.9331 192.478 43.9631 192.458L48.6207 188.388C48.6207 188.388 48.6607 188.378 48.6707 188.408L49.5302 194.088C49.5302 194.088 49.5302 194.158 49.5002 194.178L45.3624 198.928H45.3524Z" fill="#92B6DA"/>
</g>
<g opacity="0.5">
<path d="M38.1361 210.669C38.1361 210.669 38.0961 210.649 38.1161 210.629L41.7942 205.239C41.7942 205.239 41.8442 205.199 41.8741 205.199L48.031 205.779C48.031 205.779 48.0709 205.799 48.051 205.819L44.5228 210.349C44.5228 210.349 44.4728 210.389 44.4428 210.389L38.1461 210.659L38.1361 210.669Z" fill="#92B6DA"/>
</g>
<g opacity="0.5">
<path d="M83.1126 171.821C83.1126 171.821 83.0826 171.791 83.1126 171.781L88.6997 168.411C88.6997 168.411 88.7597 168.401 88.7896 168.411L94.1369 171.511C94.1369 171.511 94.1569 171.551 94.1369 171.561L89.0395 174.201C89.0395 174.201 88.9695 174.211 88.9496 174.201L83.1226 171.821H83.1126Z" fill="#92B6DA"/>
</g>
<g opacity="0.5">
<path d="M75.3568 179.96C75.3568 179.96 75.3168 179.98 75.3168 179.95L73.9375 173.57C73.9375 173.57 73.9375 173.51 73.9675 173.49L78.6251 169.42C78.6251 169.42 78.6651 169.41 78.6751 169.44L79.5346 175.12C79.5346 175.12 79.5346 175.19 79.5046 175.21L75.3668 179.96H75.3568Z" fill="#92B6DA"/>
</g>
<g opacity="0.5">
<path d="M68.1403 191.712C68.1403 191.712 68.1004 191.692 68.1203 191.672L71.7984 186.282C71.7984 186.282 71.8484 186.242 71.8784 186.242L78.0352 186.822C78.0352 186.822 78.0752 186.842 78.0552 186.862L74.527 191.392C74.527 191.392 74.4771 191.432 74.4471 191.432L68.1503 191.702L68.1403 191.712Z" fill="#92B6DA"/>
</g>
<g opacity="0.5">
<path d="M91.3686 181.7C91.3686 181.7 91.3386 181.67 91.3686 181.66L96.9557 178.29C96.9557 178.29 97.0156 178.28 97.0456 178.29L102.393 181.39C102.393 181.39 102.413 181.43 102.393 181.44L97.2955 184.08C97.2955 184.08 97.2255 184.09 97.2055 184.08L91.3785 181.7H91.3686Z" fill="#92B6DA"/>
</g>
<g opacity="0.5">
<path d="M83.6123 189.842C83.6123 189.842 83.5723 189.862 83.5723 189.832L82.193 183.452C82.193 183.452 82.193 183.392 82.223 183.372L86.8806 179.302C86.8806 179.302 86.9205 179.292 86.9305 179.322L87.7901 185.002C87.7901 185.002 87.7901 185.072 87.7601 185.092L83.6222 189.842H83.6123Z" fill="#92B6DA"/>
</g>
<g opacity="0.5">
<path d="M76.3958 201.579C76.3958 201.579 76.3558 201.559 76.3758 201.539L80.0539 196.149C80.0539 196.149 80.1039 196.109 80.1339 196.109L86.2907 196.689C86.2907 196.689 86.3307 196.709 86.3107 196.729L82.7825 201.259C82.7825 201.259 82.7326 201.299 82.7026 201.299L76.4058 201.569L76.3958 201.579Z" fill="#92B6DA"/>
</g>
<g opacity="0.5">
<path d="M29.1306 161.75C29.1306 161.75 29.1007 161.72 29.1306 161.71L34.7178 158.34C34.7178 158.34 34.7777 158.33 34.8077 158.34L40.1549 161.44C40.1549 161.44 40.1749 161.48 40.1549 161.49L35.0576 164.13C35.0576 164.13 34.9876 164.14 34.9676 164.13L29.1406 161.75H29.1306Z" fill="#92B6DA"/>
</g>
<g opacity="0.5">
<path d="M21.3748 169.901C21.3748 169.901 21.3349 169.921 21.3349 169.891L19.9556 163.511C19.9556 163.511 19.9556 163.451 19.9855 163.431L24.6431 159.361C24.6431 159.361 24.6831 159.351 24.6931 159.381L25.5527 165.061C25.5527 165.061 25.5527 165.131 25.5227 165.151L21.3848 169.901H21.3748Z" fill="#92B6DA"/>
</g>
<g opacity="0.5">
<path d="M14.1584 181.642C14.1584 181.642 14.1184 181.622 14.1384 181.602L17.8165 176.212C17.8165 176.212 17.8665 176.172 17.8965 176.172L24.0533 176.752C24.0533 176.752 24.0933 176.772 24.0733 176.792L20.5451 181.322C20.5451 181.322 20.4951 181.362 20.4651 181.362L14.1684 181.632L14.1584 181.642Z" fill="#92B6DA"/>
</g>
<g opacity="0.5">
<path d="M37.3866 171.629C37.3866 171.629 37.3566 171.599 37.3866 171.589L42.9737 168.219C42.9737 168.219 43.0337 168.209 43.0637 168.219L48.4109 171.319C48.4109 171.319 48.4309 171.359 48.4109 171.369L43.3136 174.009C43.3136 174.009 43.2436 174.019 43.2236 174.009L37.3966 171.629H37.3866Z" fill="#92B6DA"/>
</g>
<g opacity="0.5">
<path d="M29.6303 179.78C29.6303 179.78 29.5904 179.8 29.5904 179.77L28.2111 173.39C28.2111 173.39 28.2111 173.33 28.241 173.31L32.8986 169.24C32.8986 169.24 32.9386 169.23 32.9486 169.26L33.8082 174.94C33.8082 174.94 33.8082 175.01 33.7782 175.03L29.6403 179.78H29.6303Z" fill="#92B6DA"/>
</g>
<g opacity="0.5">
<path d="M22.4139 191.521C22.4139 191.521 22.3739 191.501 22.3939 191.481L26.072 186.091C26.072 186.091 26.122 186.051 26.152 186.051L32.3088 186.631C32.3088 186.631 32.3488 186.651 32.3288 186.671L28.8006 191.201C28.8006 191.201 28.7506 191.241 28.7206 191.241L22.4239 191.511L22.4139 191.521Z" fill="#92B6DA"/>
</g>
<g opacity="0.5">
<path d="M33.0185 151.618C33.0185 151.618 32.9785 151.598 32.9985 151.578L36.6766 146.188C36.6766 146.188 36.7266 146.148 36.7566 146.148L42.9134 146.728C42.9134 146.728 42.9534 146.748 42.9334 146.768L39.4052 151.298C39.4052 151.298 39.3552 151.338 39.3253 151.338L33.0285 151.608L33.0185 151.618Z" fill="#92B6DA"/>
</g>
<g opacity="0.5">
<path d="M56.2466 141.61C56.2466 141.61 56.2166 141.58 56.2466 141.57L61.8337 138.2C61.8337 138.2 61.8937 138.19 61.9237 138.2L67.2709 141.3C67.2709 141.3 67.2909 141.34 67.2709 141.35L62.1735 143.99C62.1735 143.99 62.1036 144 62.0836 143.99L56.2566 141.61H56.2466Z" fill="#92B6DA"/>
</g>
<g opacity="0.5">
<path d="M48.5006 149.76C48.5006 149.76 48.4606 149.78 48.4606 149.75L47.0813 143.37C47.0813 143.37 47.0813 143.31 47.1113 143.29L51.7689 139.22C51.7689 139.22 51.8089 139.21 51.8189 139.24L52.6784 144.92C52.6784 144.92 52.6784 144.99 52.6484 145.01L48.5106 149.76H48.5006Z" fill="#92B6DA"/>
</g>
<g opacity="0.5">
<path d="M41.2843 161.501C41.2843 161.501 41.2443 161.481 41.2643 161.461L44.9424 156.071C44.9424 156.071 44.9923 156.031 45.0223 156.031L51.1791 156.611C51.1791 156.611 51.2191 156.631 51.1991 156.651L47.671 161.181C47.671 161.181 47.621 161.221 47.591 161.221L41.2942 161.491L41.2843 161.501Z" fill="#92B6DA"/>
</g>
<g opacity="0.5">
<path d="M6.73208 191.11C6.73208 191.11 6.70209 191.08 6.73208 191.07L12.3192 187.7C12.3192 187.7 12.3792 187.69 12.4091 187.7L17.7564 190.8C17.7564 190.8 17.7764 190.84 17.7564 190.85L12.659 193.49C12.659 193.49 12.5891 193.5 12.5691 193.49L6.74207 191.11H6.73208Z" fill="#92B6DA"/>
</g>
<g opacity="0.5">
<path d="M14.9978 200.989C14.9978 200.989 14.9678 200.959 14.9978 200.949L20.5849 197.579C20.5849 197.579 20.6449 197.569 20.6749 197.579L26.0221 200.679C26.0221 200.679 26.0421 200.719 26.0221 200.729L20.9248 203.369C20.9248 203.369 20.8548 203.379 20.8348 203.369L15.0078 200.989H14.9978Z" fill="#92B6DA"/>
</g>
<g opacity="0.5">
<path d="M7.2419 209.139C7.2419 209.139 7.20192 209.159 7.20192 209.129L5.82263 202.749C5.82263 202.749 5.82263 202.689 5.85262 202.669L10.5102 198.599C10.5102 198.599 10.5502 198.589 10.5602 198.619L11.4197 204.299C11.4197 204.299 11.4197 204.369 11.3898 204.389L7.2519 209.139H7.2419Z" fill="#92B6DA"/>
</g>
<g opacity="0.5">
<path d="M0.0255872 220.88C0.0255872 220.88 -0.0143926 220.86 0.00559707 220.84L3.6837 215.45C3.6837 215.45 3.73367 215.41 3.76366 215.41L9.92048 215.99C9.92048 215.99 9.96046 216.01 9.94047 216.03L6.41229 220.56C6.41229 220.56 6.36232 220.6 6.33233 220.6L0.0355804 220.87L0.0255872 220.88Z" fill="#92B6DA"/>
</g>
<g opacity="0.5">
<path d="M23.8529 211.079C23.8529 211.079 23.8229 211.049 23.8529 211.039L29.44 207.669C29.44 207.669 29.5 207.659 29.53 207.669L34.8772 210.769C34.8772 210.769 34.8972 210.809 34.8772 210.819L29.7799 213.459C29.7799 213.459 29.7099 213.469 29.6899 213.459L23.8629 211.079H23.8529Z" fill="#92B6DA"/>
</g>
<g opacity="0.5">
<path d="M16.0971 219.217C16.0971 219.217 16.0572 219.237 16.0572 219.207L14.6779 212.827C14.6779 212.827 14.6779 212.767 14.7078 212.747L19.3654 208.677C19.3654 208.677 19.4054 208.667 19.4154 208.697L20.275 214.377C20.275 214.377 20.275 214.447 20.245 214.467L16.1071 219.217H16.0971Z" fill="#92B6DA"/>
</g>
<g opacity="0.5">
<path d="M8.88081 230.958C8.88081 230.958 8.84083 230.938 8.86082 230.918L12.5389 225.528C12.5389 225.528 12.5889 225.488 12.6189 225.488L18.7757 226.068C18.7757 226.068 18.8157 226.088 18.7957 226.108L15.2675 230.638C15.2675 230.638 15.2175 230.678 15.1876 230.678L8.8908 230.948L8.88081 230.958Z" fill="#92B6DA"/>
</g>
<g opacity="0.5">
<path d="M32.1089 220.957C32.1089 220.957 32.0789 220.927 32.1089 220.917L37.696 217.547C37.696 217.547 37.756 217.537 37.786 217.547L43.1332 220.647C43.1332 220.647 43.1532 220.687 43.1332 220.697L38.0359 223.337C38.0359 223.337 37.9659 223.347 37.9459 223.337L32.1189 220.957H32.1089Z" fill="#92B6DA"/>
</g>
<g opacity="0.5">
<path d="M24.3526 229.1C24.3526 229.1 24.3126 229.12 24.3126 229.09L22.9333 222.71C22.9333 222.71 22.9333 222.65 22.9633 222.63L27.6209 218.56C27.6209 218.56 27.6609 218.55 27.6709 218.58L28.5305 224.26C28.5305 224.26 28.5305 224.33 28.5005 224.35L24.3626 229.1H24.3526Z" fill="#92B6DA"/>
</g>
<g opacity="0.5">
<path d="M17.1363 240.837C17.1363 240.837 17.0963 240.817 17.1163 240.797L20.7944 235.407C20.7944 235.407 20.8444 235.367 20.8744 235.367L27.0312 235.947C27.0312 235.947 27.0712 235.967 27.0512 235.987L23.523 240.517C23.523 240.517 23.473 240.557 23.4431 240.557L17.1463 240.827L17.1363 240.837Z" fill="#92B6DA"/>
</g>
<g opacity="0.5">
<path d="M41.0944 230.879C41.0944 230.879 41.0644 230.849 41.0944 230.839L46.6815 227.469C46.6815 227.469 46.7415 227.459 46.7715 227.469L52.1187 230.569C52.1187 230.569 52.1387 230.609 52.1187 230.619L47.0213 233.259C47.0213 233.259 46.9514 233.269 46.9314 233.259L41.1044 230.879H41.0944Z" fill="#92B6DA"/>
</g>
<g opacity="0.5">
<path d="M33.3386 239.018C33.3386 239.018 33.2986 239.038 33.2986 239.008L31.9193 232.628C31.9193 232.628 31.9193 232.568 31.9493 232.548L36.6069 228.478C36.6069 228.478 36.6469 228.468 36.6569 228.498L37.5164 234.178C37.5164 234.178 37.5164 234.248 37.4864 234.268L33.3486 239.018H33.3386Z" fill="#92B6DA"/>
</g>
<g opacity="0.5">
<path d="M26.1223 250.771C26.1223 250.771 26.0823 250.751 26.1023 250.731L29.7804 245.341C29.7804 245.341 29.8304 245.301 29.8603 245.301L36.0172 245.881C36.0172 245.881 36.0571 245.901 36.0372 245.921L32.509 250.451C32.509 250.451 32.459 250.491 32.429 250.491L26.1323 250.761L26.1223 250.771Z" fill="#92B6DA"/>
</g>
<g opacity="0.5">
<path d="M49.3505 240.758C49.3505 240.758 49.3205 240.728 49.3505 240.718L54.9376 237.348C54.9376 237.348 54.9976 237.338 55.0276 237.348L60.3748 240.448C60.3748 240.448 60.3948 240.488 60.3748 240.498L55.2774 243.138C55.2774 243.138 55.2075 243.148 55.1875 243.138L49.3605 240.758H49.3505Z" fill="#92B6DA"/>
</g>
<g opacity="0.5">
<path d="M41.5941 248.901C41.5941 248.901 41.5541 248.921 41.5541 248.891L40.1748 242.511C40.1748 242.511 40.1748 242.451 40.2048 242.431L44.8624 238.361C44.8624 238.361 44.9024 238.351 44.9124 238.381L45.7719 244.061C45.7719 244.061 45.7719 244.131 45.7419 244.151L41.6041 248.901H41.5941Z" fill="#92B6DA"/>
</g>
<g opacity="0.5">
<path d="M132.347 77.7387C132.347 77.7387 132.317 77.7087 132.347 77.6987L137.934 74.3287C137.934 74.3287 137.994 74.3187 138.024 74.3287L143.371 77.4287C143.371 77.4287 143.391 77.4687 143.371 77.4787L138.274 80.1187C138.274 80.1187 138.204 80.1287 138.184 80.1187L132.357 77.7387H132.347Z" fill="#92B6DA"/>
</g>
<g opacity="0.5">
<path d="M124.591 85.8893C124.591 85.8893 124.551 85.9092 124.551 85.8792L123.172 79.4992C123.172 79.4992 123.172 79.4393 123.202 79.4193L127.859 75.3492C127.859 75.3492 127.899 75.3393 127.909 75.3693L128.769 81.0493C128.769 81.0493 128.769 81.1193 128.739 81.1393L124.601 85.8893H124.591Z" fill="#92B6DA"/>
</g>
<g opacity="0.5">
<path d="M117.375 97.6302C117.375 97.6302 117.335 97.6101 117.355 97.5901L121.033 92.2002C121.033 92.2002 121.083 92.1602 121.113 92.1602L127.27 92.7402C127.27 92.7402 127.31 92.7602 127.29 92.7802L123.761 97.3102C123.761 97.3102 123.711 97.3502 123.681 97.3502L117.385 97.6202L117.375 97.6302Z" fill="#92B6DA"/>
</g>
<g opacity="0.5">
<path d="M140.613 87.6176C140.613 87.6176 140.583 87.5876 140.613 87.5776L146.2 84.2076C146.2 84.2076 146.26 84.1976 146.29 84.2076L151.637 87.3075C151.637 87.3075 151.657 87.3476 151.637 87.3576L146.54 89.9975C146.54 89.9975 146.47 90.0075 146.45 89.9975L140.623 87.6176H140.613Z" fill="#92B6DA"/>
</g>
<g opacity="0.5">
<path d="M132.857 95.7682C132.857 95.7682 132.817 95.7882 132.817 95.7582L131.438 89.3782C131.438 89.3782 131.438 89.3182 131.468 89.2982L136.125 85.2282C136.125 85.2282 136.165 85.2182 136.175 85.2482L137.035 90.9282C137.035 90.9282 137.035 90.9982 137.005 91.0182L132.867 95.7682H132.857Z" fill="#92B6DA"/>
</g>
<g opacity="0.5">
<path d="M125.64 107.509C125.64 107.509 125.6 107.489 125.62 107.469L129.299 102.079C129.299 102.079 129.349 102.039 129.379 102.039L135.535 102.619C135.535 102.619 135.575 102.639 135.555 102.659L132.027 107.189C132.027 107.189 131.977 107.229 131.947 107.229L125.65 107.499L125.64 107.509Z" fill="#92B6DA"/>
</g>
<g opacity="0.5">
<path d="M131.188 125.707C131.188 125.707 131.158 125.677 131.188 125.667L136.775 122.297C136.775 122.297 136.835 122.287 136.865 122.297L142.212 125.397C142.212 125.397 142.232 125.437 142.212 125.447L137.115 128.087C137.115 128.087 137.045 128.097 137.025 128.087L131.198 125.707H131.188Z" fill="#92B6DA"/>
</g>
<g opacity="0.5">
<path d="M123.432 133.858C123.432 133.858 123.392 133.878 123.392 133.848L122.013 127.468C122.013 127.468 122.013 127.408 122.043 127.388L126.701 123.318C126.701 123.318 126.74 123.308 126.75 123.338L127.61 129.018C127.61 129.018 127.61 129.088 127.58 129.108L123.442 133.858H123.432Z" fill="#92B6DA"/>
</g>
<g opacity="0.5">
<path d="M116.216 145.599C116.216 145.599 116.176 145.579 116.196 145.559L119.874 140.169C119.874 140.169 119.924 140.129 119.954 140.129L126.111 140.709C126.111 140.709 126.151 140.729 126.131 140.749L122.602 145.279C122.602 145.279 122.553 145.319 122.523 145.319L116.226 145.589L116.216 145.599Z" fill="#92B6DA"/>
</g>
<g opacity="0.5">
<path d="M139.444 135.586C139.444 135.586 139.414 135.556 139.444 135.546L145.031 132.176C145.031 132.176 145.091 132.166 145.121 132.176L150.468 135.276C150.468 135.276 150.488 135.316 150.468 135.326L145.371 137.966C145.371 137.966 145.301 137.976 145.281 137.966L139.454 135.586H139.444Z" fill="#92B6DA"/>
</g>
<g opacity="0.5">
<path d="M131.688 143.729C131.688 143.729 131.648 143.749 131.648 143.719L130.268 137.339C130.268 137.339 130.268 137.279 130.298 137.259L134.956 133.189C134.956 133.189 134.996 133.179 135.006 133.209L135.866 138.889C135.866 138.889 135.866 138.959 135.836 138.979L131.698 143.729H131.688Z" fill="#92B6DA"/>
</g>
<g opacity="0.5">
<path d="M124.472 155.478C124.472 155.478 124.432 155.458 124.452 155.438L128.13 150.048C128.13 150.048 128.18 150.008 128.21 150.008L134.367 150.588C134.367 150.588 134.407 150.608 134.387 150.628L130.858 155.158C130.858 155.158 130.808 155.198 130.778 155.198L124.482 155.468L124.472 155.478Z" fill="#92B6DA"/>
</g>
<g opacity="0.5">
<path d="M113.626 105.661C113.626 105.661 113.597 105.631 113.626 105.621L119.214 102.251C119.214 102.251 119.274 102.241 119.304 102.251L124.651 105.351C124.651 105.351 124.671 105.391 124.651 105.401L119.553 108.041C119.553 108.041 119.483 108.051 119.463 108.041L113.636 105.661H113.626Z" fill="#92B6DA"/>
</g>
<g opacity="0.5">
<path d="M98.6542 125.552C98.6542 125.552 98.6143 125.532 98.6343 125.512L102.312 120.122C102.312 120.122 102.362 120.082 102.392 120.082L108.549 120.662C108.549 120.662 108.589 120.682 108.569 120.702L105.041 125.232C105.041 125.232 104.991 125.272 104.961 125.272L98.6642 125.542L98.6542 125.552Z" fill="#92B6DA"/>
</g>
<g opacity="0.5">
<path d="M121.882 115.539C121.882 115.539 121.852 115.509 121.882 115.499L127.47 112.129C127.47 112.129 127.53 112.119 127.56 112.129L132.907 115.229C132.907 115.229 132.927 115.269 132.907 115.279L127.809 117.919C127.809 117.919 127.739 117.929 127.719 117.919L121.892 115.539H121.882Z" fill="#92B6DA"/>
</g>
<g opacity="0.5">
<path d="M114.126 123.69C114.126 123.69 114.086 123.71 114.086 123.68L112.707 117.3C112.707 117.3 112.707 117.24 112.737 117.22L117.394 113.15C117.394 113.15 117.434 113.14 117.444 113.17L118.304 118.85C118.304 118.85 118.304 118.92 118.274 118.94L114.136 123.69H114.126Z" fill="#92B6DA"/>
</g>
<g opacity="0.5">
<path d="M106.91 135.431C106.91 135.431 106.87 135.411 106.89 135.391L110.568 130.001C110.568 130.001 110.618 129.961 110.648 129.961L116.805 130.541C116.805 130.541 116.845 130.561 116.825 130.581L113.296 135.111C113.296 135.111 113.246 135.151 113.216 135.151L106.92 135.421L106.91 135.431Z" fill="#92B6DA"/>
</g>
<g opacity="0.5">
<path d="M144.132 104.729C144.132 104.729 144.092 104.749 144.092 104.719L142.712 98.3391C142.712 98.3391 142.712 98.2791 142.742 98.2591L147.4 94.1891C147.4 94.1891 147.44 94.1791 147.45 94.2091L148.309 99.8891C148.309 99.8891 148.309 99.9591 148.279 99.9791L144.142 104.729H144.132Z" fill="#92B6DA"/>
</g>
<g opacity="0.5">
<path d="M136.915 116.47C136.915 116.47 136.875 116.45 136.895 116.43L140.573 111.04C140.573 111.04 140.623 111 140.653 111L146.81 111.58C146.81 111.58 146.85 111.6 146.83 111.62L143.302 116.15C143.302 116.15 143.252 116.19 143.222 116.19L136.925 116.46L136.915 116.47Z" fill="#92B6DA"/>
</g>
<g opacity="0.5">
<path d="M152.397 114.608C152.397 114.608 152.357 114.628 152.357 114.598L150.978 108.218C150.978 108.218 150.978 108.158 151.008 108.138L155.666 104.068C155.666 104.068 155.706 104.058 155.716 104.088L156.575 109.768C156.575 109.768 156.575 109.838 156.545 109.858L152.407 114.608H152.397Z" fill="#92B6DA"/>
</g>
<g opacity="0.5">
<path d="M145.181 126.349C145.181 126.349 145.141 126.329 145.161 126.309L148.839 120.919C148.839 120.919 148.889 120.879 148.919 120.879L155.076 121.459C155.076 121.459 155.116 121.479 155.096 121.499L151.568 126.029C151.568 126.029 151.518 126.069 151.488 126.069L145.191 126.339L145.181 126.349Z" fill="#92B6DA"/>
</g>
<g opacity="0.5">
<path d="M116.775 56.4887C116.775 56.4887 116.745 56.4587 116.775 56.4487L122.362 53.0787C122.362 53.0787 122.422 53.0687 122.452 53.0787L127.8 56.1787C127.8 56.1787 127.82 56.2187 127.8 56.2287L122.702 58.8687C122.702 58.8687 122.632 58.8787 122.612 58.8687L116.785 56.4887H116.775Z" fill="#92B6DA"/>
</g>
<g opacity="0.5">
<path d="M125.031 66.3676C125.031 66.3676 125.001 66.3376 125.031 66.3276L130.618 62.9576C130.618 62.9576 130.678 62.9476 130.708 62.9576L136.055 66.0576C136.055 66.0576 136.075 66.0976 136.055 66.1076L130.958 68.7476C130.958 68.7476 130.888 68.7576 130.868 68.7476L125.041 66.3676H125.031Z" fill="#92B6DA"/>
</g>
<g opacity="0.5">
<path d="M117.275 74.5182C117.275 74.5182 117.235 74.5382 117.235 74.5082L115.856 68.1282C115.856 68.1282 115.856 68.0682 115.886 68.0482L120.543 63.9782C120.543 63.9782 120.583 63.9682 120.593 63.9982L121.453 69.6782C121.453 69.6782 121.453 69.7482 121.423 69.7682L117.285 74.5182H117.275Z" fill="#92B6DA"/>
</g>
<g opacity="0.5">
<path d="M110.059 86.2591C110.059 86.2591 110.019 86.2391 110.039 86.2191L113.717 80.8291C113.717 80.8291 113.767 80.7891 113.797 80.7891L119.953 81.3691C119.953 81.3691 119.993 81.3891 119.973 81.4091L116.445 85.9391C116.445 85.9391 116.395 85.9791 116.365 85.9791L110.069 86.2491L110.059 86.2591Z" fill="#92B6DA"/>
</g>
<g opacity="0.5">
<path d="M60.5441 135.759C60.5441 135.759 60.5042 135.739 60.5242 135.719L64.2023 130.329C64.2023 130.329 64.2522 130.289 64.2822 130.289L70.439 130.869C70.439 130.869 70.479 130.889 70.459 130.909L66.9309 135.439C66.9309 135.439 66.8809 135.479 66.8509 135.479L60.5541 135.749L60.5441 135.759Z" fill="#92B6DA"/>
</g>
<g opacity="0.5">
<path d="M83.7724 125.75C83.7724 125.75 83.7424 125.72 83.7724 125.71L89.3595 122.34C89.3595 122.34 89.4195 122.33 89.4494 122.34L94.7967 125.44C94.7967 125.44 94.8167 125.48 94.7967 125.49L89.6993 128.13C89.6993 128.13 89.6294 128.14 89.6094 128.13L83.7824 125.75H83.7724Z" fill="#92B6DA"/>
</g>
<g opacity="0.5">
<path d="M76.0161 133.901C76.0161 133.901 75.9761 133.921 75.9761 133.891L74.5968 127.511C74.5968 127.511 74.5968 127.451 74.6268 127.431L79.2844 123.361C79.2844 123.361 79.3244 123.351 79.3344 123.381L80.1939 129.061C80.1939 129.061 80.1939 129.131 80.1639 129.151L76.0261 133.901H76.0161Z" fill="#92B6DA"/>
</g>
<g opacity="0.5">
<path d="M68.7996 145.642C68.7996 145.642 68.7597 145.622 68.7796 145.602L72.4577 140.212C72.4577 140.212 72.5077 140.172 72.5377 140.172L78.6945 140.752C78.6945 140.752 78.7345 140.772 78.7145 140.792L75.1863 145.322C75.1863 145.322 75.1364 145.362 75.1064 145.362L68.8096 145.632L68.7996 145.642Z" fill="#92B6DA"/>
</g>
<g opacity="0.5">
<path d="M92.6277 135.84C92.6277 135.84 92.5977 135.81 92.6277 135.8L98.2148 132.43C98.2148 132.43 98.2748 132.42 98.3048 132.43L103.652 135.53C103.652 135.53 103.672 135.57 103.652 135.58L98.5547 138.22C98.5547 138.22 98.4847 138.23 98.4647 138.22L92.6377 135.84H92.6277Z" fill="#92B6DA"/>
</g>
<g opacity="0.5">
<path d="M84.8815 143.979C84.8815 143.979 84.8416 143.999 84.8416 143.969L83.4623 137.589C83.4623 137.589 83.4623 137.529 83.4923 137.509L88.1499 133.439C88.1499 133.439 88.1898 133.429 88.1998 133.459L89.0594 139.139C89.0594 139.139 89.0594 139.209 89.0294 139.229L84.8916 143.979H84.8815Z" fill="#92B6DA"/>
</g>
<g opacity="0.5">
<path d="M77.6652 155.732C77.6652 155.732 77.6253 155.712 77.6452 155.692L81.3233 150.302C81.3233 150.302 81.3733 150.262 81.4033 150.262L87.5601 150.842C87.5601 150.842 87.6001 150.862 87.5801 150.882L84.0519 155.412C84.0519 155.412 84.002 155.452 83.972 155.452L77.6752 155.722L77.6652 155.732Z" fill="#92B6DA"/>
</g>
<g opacity="0.5">
<path d="M100.893 145.719C100.893 145.719 100.863 145.689 100.893 145.679L106.481 142.309C106.481 142.309 106.541 142.299 106.571 142.309L111.918 145.409C111.918 145.409 111.938 145.449 111.918 145.459L106.82 148.099C106.82 148.099 106.75 148.109 106.73 148.099L100.903 145.719H100.893Z" fill="#92B6DA"/>
</g>
<g opacity="0.5">
<path d="M93.1372 153.862C93.1372 153.862 93.0972 153.882 93.0972 153.852L91.7179 147.472C91.7179 147.472 91.7179 147.412 91.7479 147.392L96.4055 143.322C96.4055 143.322 96.4454 143.312 96.4554 143.342L97.315 149.022C97.315 149.022 97.315 149.092 97.285 149.112L93.1472 153.862H93.1372Z" fill="#92B6DA"/>
</g>
<g opacity="0.5">
<path d="M85.9207 165.599C85.9207 165.599 85.8807 165.579 85.9007 165.559L89.5788 160.169C89.5788 160.169 89.6288 160.129 89.6588 160.129L95.8156 160.709C95.8156 160.709 95.8556 160.729 95.8356 160.749L92.3074 165.279C92.3074 165.279 92.2575 165.319 92.2275 165.319L85.9307 165.589L85.9207 165.599Z" fill="#92B6DA"/>
</g>
<g opacity="0.5">
<path d="M109.869 155.637C109.869 155.637 109.839 155.607 109.869 155.597L115.456 152.227C115.456 152.227 115.516 152.217 115.546 152.227L120.893 155.327C120.893 155.327 120.913 155.367 120.893 155.377L115.796 158.017C115.796 158.017 115.726 158.027 115.706 158.017L109.879 155.637H109.869Z" fill="#92B6DA"/>
</g>
<g opacity="0.5">
<path d="M102.113 163.788C102.113 163.788 102.073 163.808 102.073 163.778L100.694 157.398C100.694 157.398 100.694 157.338 100.724 157.318L105.381 153.248C105.381 153.248 105.421 153.238 105.431 153.268L106.291 158.948C106.291 158.948 106.291 159.018 106.261 159.038L102.123 163.788H102.113Z" fill="#92B6DA"/>
</g>
<g opacity="0.5">
<path d="M94.8964 175.529C94.8964 175.529 94.8565 175.509 94.8764 175.489L98.5546 170.099C98.5546 170.099 98.6045 170.059 98.6345 170.059L104.791 170.639C104.791 170.639 104.831 170.659 104.811 170.679L101.283 175.209C101.283 175.209 101.233 175.249 101.203 175.249L94.9064 175.519L94.8964 175.529Z" fill="#92B6DA"/>
</g>
<g opacity="0.5">
<path d="M118.134 165.516C118.134 165.516 118.104 165.486 118.134 165.476L123.722 162.106C123.722 162.106 123.782 162.096 123.812 162.106L129.159 165.206C129.159 165.206 129.179 165.246 129.159 165.256L124.061 167.896C124.061 167.896 123.991 167.906 123.971 167.896L118.144 165.516H118.134Z" fill="#92B6DA"/>
</g>
<g opacity="0.5">
<path d="M110.379 173.667C110.379 173.667 110.339 173.687 110.339 173.657L108.959 167.277C108.959 167.277 108.959 167.217 108.989 167.197L113.647 163.127C113.647 163.127 113.687 163.117 113.697 163.147L114.556 168.827C114.556 168.827 114.556 168.897 114.526 168.917L110.389 173.667H110.379Z" fill="#92B6DA"/>
</g>
<g opacity="0.5">
<path d="M103.162 185.408C103.162 185.408 103.122 185.388 103.142 185.368L106.82 179.978C106.82 179.978 106.87 179.938 106.9 179.938L113.057 180.518C113.057 180.518 113.097 180.537 113.077 180.557L109.549 185.087C109.549 185.087 109.499 185.128 109.469 185.128L103.172 185.398L103.162 185.408Z" fill="#92B6DA"/>
</g>
</g>
<path d="M166.57 296.631L145.021 330.201C140.233 337.661 131.448 339.301 123.952 334.951C117.335 331.111 113.507 320.751 119.104 313.911L145.321 281.841L104.722 271.541C99.3644 270.181 96.0961 263.971 95.5364 259.931C94.6768 253.641 96.6658 248.041 101.813 244.501C106.301 241.421 112.578 241.341 117.505 243.321L153.247 257.671L150.578 219.961C149.878 210.101 156.145 201.721 165.58 201.501C174.935 201.281 182.362 209.061 181.622 218.961L178.773 257.111L217.094 241.981C224.61 239.011 232.346 244.151 235.534 250.491C238.882 258.301 235.614 265.981 228.248 271.021L186.919 281.471L210.737 309.481C216.644 316.421 218.083 324.741 212.236 331.571C206.379 338.401 196.344 339.091 189.438 332.661L166.58 296.651L166.57 296.631Z" fill="#603813"/>
<path d="M180.513 291.909L182.242 331.779C182.622 340.629 176.395 347.039 167.759 347.809C160.143 348.489 151.048 342.229 151.668 333.419L154.616 292.099L115.506 307.099C110.349 309.079 104.102 305.889 101.314 302.909C96.9859 298.269 95.3867 292.539 97.5556 286.689C99.4446 281.579 104.522 277.899 109.699 276.669L147.17 267.779L123.262 238.499C117.006 230.839 117.295 220.379 124.881 214.759C132.398 209.189 142.952 211.259 148.05 219.769L167.699 252.579L190.288 218.109C194.715 211.349 204.001 211.089 210.257 214.429C217.494 218.889 219.253 227.039 216.134 235.409L188.389 267.779L223.99 276.929C232.816 279.199 238.793 285.159 237.943 294.119C237.094 303.079 229.288 309.429 219.942 308.159L180.513 291.919V291.909Z" fill="#603813"/>
<rect x="89.1997" y="348.129" width="15.4172" height="0.203125" fill="#DCD6CB"/>
<rect x="89.406" y="348" width="15.168" height="0.273438" fill="#DCD6CB"/>
<line x1="104.276" y1="348.165" x2="104.594" y2="348.03" stroke="#DCD6CB"/>
<line x1="89.1784" y1="348.54" x2="88.9866" y2="348.253" stroke="#DCD6CB"/>
</svg>
