<svg width="321" height="634" viewBox="0 0 321 634" fill="none" xmlns="http://www.w3.org/2000/svg">
<path d="M104.682 12.15C95.7601 15.13 94.5327 27.31 102.696 32.01C111.837 37.27 120.929 43.38 120.929 50.76V113.69C120.929 117.37 118.324 120.52 114.721 121.22C93.9439 125.21 27.4996 142.37 15.534 200.28C11.7318 218.71 10.5542 238.38 10.8835 257.3C11.6619 302.61 21.3621 347.32 38.8265 389.13C55.4824 428.99 80.5412 496.01 84.3834 546.53C85.1618 556.75 80.4714 566.59 72.1683 572.58C65.4321 577.43 59.5541 582.65 59.5541 589.89C59.5541 602.15 81.8585 629.25 163.562 629.25C194.928 629.25 217.771 624.09 234.008 617.74C253.528 610.1 255.893 583.37 237.98 572.46C237.73 572.31 237.481 572.16 237.221 572C234.756 570.5 233.339 567.75 233.539 564.87C236.203 526.09 277.07 408.75 293.816 352.77C299.803 332.75 322.826 252.5 302.109 189.61C284.974 137.62 227.321 124.55 207.841 121.59C204.109 121.02 201.354 117.8 201.354 114.02V52.29C201.354 51.2 201.584 50.13 202.033 49.14C204.388 43.94 230.445 38.01 230.445 27C230.445 14.99 217.292 4.5 159.42 4.5C134.471 4.5 116.687 8.17001 104.692 12.17L104.682 12.15Z" fill="#DCD6CB"/>
<path d="M104.682 12.15C95.7601 15.13 94.5327 27.31 102.696 32.01C111.837 37.27 120.929 43.38 120.929 50.76V113.69C120.929 117.37 118.324 120.52 114.721 121.22C93.9439 125.21 27.4996 142.37 15.534 200.28C11.7318 218.71 10.5542 238.38 10.8835 257.3C11.6619 302.61 21.3621 347.32 38.8265 389.13C55.4824 428.99 80.5412 496.01 84.3834 546.53C85.1618 556.75 80.4714 566.59 72.1683 572.58C65.4321 577.43 59.5541 582.65 59.5541 589.89C59.5541 602.15 81.8585 629.25 163.562 629.25C194.928 629.25 217.771 624.09 234.008 617.74C253.528 610.1 255.893 583.37 237.98 572.46C237.73 572.31 237.481 572.16 237.221 572C234.756 570.5 233.339 567.75 233.539 564.87C236.203 526.09 277.07 408.75 293.816 352.77C299.803 332.75 322.826 252.5 302.109 189.61C284.974 137.62 227.321 124.55 207.841 121.59C204.109 121.02 201.354 117.8 201.354 114.02V52.29C201.354 51.2 201.584 50.13 202.033 49.14C204.388 43.94 230.445 38.01 230.445 27C230.445 14.99 217.292 4.5 159.42 4.5C134.471 4.5 116.687 8.17001 104.692 12.17L104.682 12.15Z" stroke="#DCD6CB" stroke-width="9" stroke-miterlimit="10"/>
<mask id="mask0_190_46868" style="mask-type:alpha" maskUnits="userSpaceOnUse" x="0" y="152" width="321" height="194">
<path d="M320.5 345.25H208.805L186.906 320.335L186.114 319.434L186.032 320.631L184.347 345.25H129.573L122.29 336.963L121.499 336.062L121.415 337.258L120.859 345.25H105.34L101.313 335.67L101.045 335.035L100.525 335.486L89.2472 345.25H74.6573L60.6163 311.932L59.6564 312.092L57.3956 345.25H43.4308L16.8536 329.76L16.1573 329.354L16.1027 330.158L15.0773 345.25H1.15442V160.941C15.8746 165.549 34.2243 169.441 55.2111 172.38V172.379C57.7655 172.762 60.3536 173.105 62.9972 173.428L76.0382 186.369L76.8907 187.215V174.998C80.0818 175.338 83.3334 175.644 86.6261 175.922L118.26 207.323L119.112 208.169V177.934C129.32 178.361 139.827 178.561 150.53 178.561H153.166L160.349 207.08L161.333 206.958V178.481C165.468 178.438 169.57 178.349 173.615 178.211L173.614 178.21C176.426 178.138 179.201 178.047 181.964 177.934L181.963 177.933C187.389 177.721 192.746 177.449 198.012 177.109L202.608 186.229L202.918 186.845L203.406 186.359L213.881 175.963C218.818 175.535 223.642 175.059 228.377 174.545L244.829 207.193L245.776 206.968V172.4C249.214 171.921 252.587 171.406 255.895 170.882L287.275 186.462L287.997 186.821V164.327C293.309 162.965 298.249 161.536 302.817 160.021L308.255 165.416L308.583 165.085L308.92 165.451L308.933 165.441L309.345 165.088L309.316 165.059L320.5 153.951V345.25Z" fill="#C59B6D" stroke="#C59B6D"/>
</mask>
<g mask="url(#mask0_190_46868)">
<path d="M159.879 4.51953C188.801 4.51953 206.48 7.14337 216.911 11.2314C222.12 13.2731 225.489 15.6666 227.554 18.249C229.613 20.8223 230.404 23.6165 230.404 26.5195C230.404 29.0606 228.902 31.3704 226.466 33.5176C224.034 35.6603 220.749 37.5735 217.352 39.3242C215.657 40.198 213.941 41.0268 212.299 41.8223C210.658 42.6164 209.088 43.3781 207.692 44.1123C206.298 44.8455 205.063 45.5602 204.095 46.2627C203.201 46.9123 202.482 47.5895 202.107 48.3086L202.037 48.4531C201.558 49.5086 201.313 50.649 201.313 51.8096V113.539C201.313 117.565 204.247 120.996 208.224 121.604H208.225C217.937 123.079 237.158 127.076 256.078 137.175C274.994 147.272 293.577 163.45 302.093 189.286C312.418 220.628 311.85 256.327 307.939 286.722C304.03 317.108 296.787 342.146 293.796 352.146C285.42 380.146 271.029 423.434 258.378 464.643C252.055 485.235 246.171 505.296 241.701 522.636C237.233 539.965 234.168 554.609 233.499 564.354C233.286 567.419 234.794 570.346 237.418 571.944V571.945C237.68 572.107 237.932 572.258 238.18 572.407C255.6 583.019 253.455 608.896 234.73 616.615L234.284 616.794C218.111 623.119 195.33 628.27 164.02 628.27C123.217 628.27 97.3041 621.501 81.6111 613.244C65.8914 604.973 60.5134 595.266 60.5134 589.409C60.5135 585.938 61.9188 582.931 64.1804 580.176C66.1651 577.758 68.7934 575.551 71.6716 573.416L72.9197 572.505C81.3606 566.415 86.1324 556.409 85.3406 546.012C81.4916 495.402 56.4016 428.314 39.7468 388.457C22.3059 346.703 12.6198 302.055 11.8425 256.811C11.5136 237.915 12.6896 218.284 16.4822 199.9C22.4262 171.133 41.9015 152.467 62.533 140.481C83.1675 128.494 104.911 123.221 115.274 121.23H115.275C119.112 120.485 121.887 117.129 121.887 113.21V50.2793C121.887 46.3757 119.485 42.8777 116.036 39.7393C112.577 36.5924 107.977 33.7272 103.404 31.0957H103.403C95.7411 26.6831 96.751 15.3613 104.89 12.2881L104.897 12.3008L105.309 12.1641C117.25 8.18234 134.98 4.51956 159.879 4.51953Z" fill="#C59B6D" stroke="#C59B6D"/>
<path d="M105.141 11.6695C96.219 14.6495 94.9915 26.8295 103.155 31.5295C112.296 36.7895 121.388 42.8995 121.388 50.2795V113.21C121.388 116.89 118.783 120.04 115.18 120.74C94.4027 124.73 27.9585 141.89 15.9929 199.8C12.1907 218.23 11.0131 237.9 11.3424 256.82C12.1208 302.13 21.821 346.84 39.2853 388.65C55.9413 428.51 81.0001 495.529 84.8422 546.049C85.6207 556.269 80.9302 566.109 72.6272 572.099C65.891 576.949 60.013 582.169 60.013 589.409C60.013 601.669 82.3174 628.77 164.02 628.77C195.386 628.77 218.23 623.61 234.467 617.26C253.987 609.62 256.352 582.889 238.438 571.979C238.189 571.829 237.939 571.68 237.68 571.52C235.215 570.02 233.798 567.27 233.998 564.39C236.662 525.61 277.529 408.269 294.274 352.289C300.262 332.269 323.285 252.02 302.567 189.13C285.432 137.14 227.78 124.07 208.3 121.11C204.568 120.54 201.813 117.32 201.813 113.54V51.8095C201.813 50.7195 202.043 49.6495 202.492 48.6595C204.847 43.4595 230.904 37.5295 230.904 26.5195C230.904 14.5095 217.751 4.01953 159.879 4.01953C134.93 4.01953 117.146 7.68953 105.151 11.6895L105.141 11.6695Z" stroke="#C59B6D" stroke-width="9" stroke-miterlimit="10"/>
</g>
<path d="M75.3918 561.691C114.741 575.341 157.384 582.831 198.66 575.001C212.322 572.421 225.555 567.811 238.259 561.691C220.735 573.721 199.598 580.451 178.431 582.401C143.473 585.501 106.518 577.791 75.3918 561.691Z" fill="#E2E3E2"/>
<path d="M256.512 152.199C278.487 160.629 290.522 187.919 294.753 209.649C299.354 232.919 298.536 257.119 294.294 280.349C294.574 251.299 294.504 221.769 285.522 193.909C280.133 177.819 271.481 161.149 256.512 152.199Z" fill="#E7E2D5"/>
<path d="M65.8514 151.401C59.5044 154.961 54.4647 160.421 50.1236 166.171C44.2056 174.311 39.9543 183.561 36.8307 193.111C27.8491 220.971 27.7792 250.501 28.0586 279.551C23.5778 254.871 22.8593 229.041 28.5576 204.471C33.3079 184.051 45.1437 159.331 65.8414 151.391L65.8514 151.401Z" fill="#E7E2D5"/>
<path d="M125.879 52.8889C136.836 69.4689 135.888 95.2689 127.096 112.629C127.286 108.749 127.785 105.049 128.054 101.219C129.501 85.0589 129.222 68.8589 125.879 52.8789V52.8889Z" fill="#E7E2D5"/>
<path d="M196.794 53.3906C193.45 69.3606 193.171 85.5706 194.618 101.731C194.888 105.551 195.387 109.251 195.576 113.141C186.784 95.7806 185.836 69.9906 196.794 53.4006V53.3906Z" fill="#E7E2D5"/>
<path d="M32.9088 380.841C32.9088 380.841 161.307 370.241 280.214 380.261C265.224 400.281 256.732 405.291 256.732 405.291L32.9088 380.841Z" fill="#F3C791"/>
<path d="M31.6809 382.001C31.6809 382.001 95.3808 361.651 152.334 382.001C209.288 402.351 280.483 380.842 280.483 380.842C280.483 380.842 226.523 508.192 226.523 552.962C171.066 574.482 97.6262 555.291 97.6262 555.291C97.6262 555.291 101.369 490.741 31.6809 382.011V382.001Z" fill="#FD9D07"/>
<g opacity="0.5">
<g opacity="0.5">
<path d="M62.4084 152.733C62.4084 152.733 62.3785 152.703 62.4084 152.693L67.9372 149.243C67.9372 149.243 67.997 149.223 68.027 149.243L73.416 152.263C73.416 152.263 73.4359 152.303 73.416 152.313L68.3663 155.033C68.3663 155.033 68.3064 155.053 68.2765 155.033L62.4184 152.743L62.4084 152.733Z" fill="#92B6DA"/>
</g>
<g opacity="0.5">
<path d="M54.7939 161.002C54.7939 161.002 54.754 161.022 54.754 160.992L53.277 154.632C53.277 154.632 53.277 154.572 53.3069 154.552L57.8975 150.412C57.8975 150.412 57.9375 150.402 57.9474 150.432L58.8955 156.102C58.8955 156.102 58.8955 156.172 58.8755 156.192L54.8238 161.012L54.7939 161.002Z" fill="#92B6DA"/>
</g>
<g opacity="0.5">
<path d="M47.7782 172.854C47.7782 172.854 47.7383 172.834 47.7583 172.814L51.341 167.364C51.341 167.364 51.3909 167.324 51.4208 167.324L57.5782 167.804C57.5782 167.804 57.6181 167.824 57.5982 167.844L54.1452 172.434C54.1452 172.434 54.0953 172.474 54.0654 172.474L47.7882 172.844L47.7782 172.854Z" fill="#92B6DA"/>
</g>
<g opacity="0.5">
<path d="M70.8112 162.483C70.8112 162.483 70.7812 162.453 70.8112 162.443L76.3399 158.993C76.3399 158.993 76.3997 158.973 76.4297 158.993L81.8187 162.013C81.8187 162.013 81.8386 162.053 81.8187 162.063L76.769 164.783C76.769 164.783 76.7091 164.803 76.6792 164.783L70.8211 162.493L70.8112 162.483Z" fill="#92B6DA"/>
</g>
<g opacity="0.5">
<path d="M63.1967 170.752C63.1967 170.752 63.1568 170.772 63.1568 170.742L61.6798 164.382C61.6798 164.382 61.6798 164.322 61.7097 164.302L66.3004 160.162C66.3004 160.162 66.3403 160.152 66.3503 160.182L67.2983 165.852C67.2983 165.852 67.2983 165.922 67.2784 165.942L63.2266 170.762L63.1967 170.752Z" fill="#92B6DA"/>
</g>
<g opacity="0.5">
<path d="M56.1709 182.604C56.1709 182.604 56.131 182.584 56.151 182.564L59.7337 177.114C59.7337 177.114 59.7836 177.074 59.8135 177.074L65.9709 177.554C65.9709 177.554 66.0108 177.574 65.9909 177.594L62.5379 182.184C62.5379 182.184 62.488 182.224 62.4581 182.224L56.1809 182.594L56.1709 182.604Z" fill="#92B6DA"/>
</g>
<g opacity="0.5">
<path d="M61.989 200.71C61.989 200.71 61.9591 200.68 61.989 200.67L67.5177 197.22C67.5177 197.22 67.5776 197.2 67.6075 197.22L72.9965 200.24C72.9965 200.24 73.0165 200.28 72.9965 200.29L67.9468 203.01C67.9468 203.01 67.887 203.03 67.857 203.01L61.999 200.72L61.989 200.71Z" fill="#92B6DA"/>
</g>
<g opacity="0.5">
<path d="M54.3744 208.971C54.3744 208.971 54.3345 208.99 54.3345 208.96L52.8575 202.601C52.8575 202.601 52.8575 202.54 52.8875 202.52L57.4781 198.381C57.4781 198.381 57.518 198.37 57.528 198.4L58.4761 204.071C58.4761 204.071 58.4761 204.141 58.4561 204.161L54.4044 208.981L54.3744 208.971Z" fill="#92B6DA"/>
</g>
<g opacity="0.5">
<path d="M47.3588 220.831C47.3588 220.831 47.3189 220.811 47.3388 220.791L50.9215 215.341C50.9215 215.341 50.9714 215.301 51.0014 215.301L57.1588 215.781C57.1588 215.781 57.1987 215.801 57.1787 215.821L53.7258 220.411C53.7258 220.411 53.6759 220.451 53.646 220.451L47.3688 220.821L47.3588 220.831Z" fill="#92B6DA"/>
</g>
<g opacity="0.5">
<path d="M70.3917 210.448C70.3917 210.448 70.3618 210.418 70.3917 210.408L75.9204 206.958C75.9204 206.958 75.9803 206.938 76.0103 206.958L81.3992 209.978C81.3992 209.978 81.4192 210.018 81.3992 210.028L76.3496 212.748C76.3496 212.748 76.2897 212.768 76.2597 212.748L70.4017 210.458L70.3917 210.448Z" fill="#92B6DA"/>
</g>
<g opacity="0.5">
<path d="M62.7773 218.721C62.7773 218.721 62.7374 218.74 62.7374 218.71L61.2604 212.351C61.2604 212.351 61.2604 212.29 61.2903 212.27L65.8809 208.131C65.8809 208.131 65.9209 208.12 65.9308 208.15L66.8789 213.821C66.8789 213.821 66.8789 213.891 66.8589 213.911L62.8072 218.731L62.7773 218.721Z" fill="#92B6DA"/>
</g>
<g opacity="0.5">
<path d="M55.7515 230.569C55.7515 230.569 55.7116 230.549 55.7315 230.529L59.3142 225.079C59.3142 225.079 59.3641 225.039 59.3941 225.039L65.5515 225.519C65.5515 225.519 65.5914 225.539 65.5714 225.559L62.1185 230.149C62.1185 230.149 62.0686 230.189 62.0387 230.189L55.7615 230.559L55.7515 230.569Z" fill="#92B6DA"/>
</g>
<g opacity="0.5">
<path d="M44.1455 180.94C44.1455 180.94 44.1156 180.91 44.1455 180.9L49.6742 177.45C49.6742 177.45 49.7341 177.43 49.764 177.45L55.153 180.47C55.153 180.47 55.173 180.51 55.153 180.52L50.1033 183.24C50.1033 183.24 50.0435 183.26 50.0135 183.24L44.1555 180.95L44.1455 180.94Z" fill="#92B6DA"/>
</g>
<g opacity="0.5">
<path d="M36.5311 189.209C36.5311 189.209 36.4911 189.229 36.4911 189.199L35.0142 182.839C35.0142 182.839 35.0142 182.779 35.0441 182.759L39.6347 178.619C39.6347 178.619 39.6746 178.609 39.6846 178.639L40.6327 184.309C40.6327 184.309 40.6327 184.379 40.6127 184.399L36.561 189.219L36.5311 189.209Z" fill="#92B6DA"/>
</g>
<g opacity="0.5">
<path d="M29.5153 201.061C29.5153 201.061 29.4754 201.041 29.4953 201.021L33.078 195.571C33.078 195.571 33.1279 195.531 33.1579 195.531L39.3153 196.011C39.3153 196.011 39.3552 196.031 39.3352 196.051L35.8823 200.641C35.8823 200.641 35.8324 200.681 35.8025 200.681L29.5253 201.051L29.5153 201.061Z" fill="#92B6DA"/>
</g>
<g opacity="0.5">
<path d="M52.5483 190.69C52.5483 190.69 52.5184 190.66 52.5483 190.65L58.077 187.2C58.077 187.2 58.1369 187.18 58.1669 187.2L63.5559 190.22C63.5559 190.22 63.5758 190.26 63.5559 190.27L58.5062 192.99C58.5062 192.99 58.4463 193.01 58.4163 192.99L52.5583 190.7L52.5483 190.69Z" fill="#92B6DA"/>
</g>
<g opacity="0.5">
<path d="M44.9338 198.959C44.9338 198.959 44.8939 198.979 44.8939 198.949L43.4169 192.589C43.4169 192.589 43.4169 192.529 43.4468 192.509L48.0374 188.369C48.0374 188.369 48.0773 188.359 48.0873 188.389L49.0354 194.059C49.0354 194.059 49.0354 194.129 49.0154 194.149L44.9637 198.969L44.9338 198.959Z" fill="#92B6DA"/>
</g>
<g opacity="0.5">
<path d="M37.9081 210.811C37.9081 210.811 37.8682 210.791 37.8882 210.771L41.4708 205.321C41.4708 205.321 41.5207 205.281 41.5507 205.281L47.7081 205.761C47.7081 205.761 47.748 205.781 47.7281 205.801L44.2751 210.391C44.2751 210.391 44.2252 210.431 44.1953 210.431L37.9181 210.801L37.9081 210.811Z" fill="#92B6DA"/>
</g>
<g opacity="0.5">
<path d="M82.2076 171.261C82.2076 171.261 82.1777 171.231 82.2076 171.221L87.7363 167.771C87.7363 167.771 87.7962 167.751 87.8262 167.771L93.2152 170.791C93.2152 170.791 93.2351 170.831 93.2152 170.841L88.1655 173.561C88.1655 173.561 88.1056 173.581 88.0757 173.561L82.2176 171.271L82.2076 171.261Z" fill="#92B6DA"/>
</g>
<g opacity="0.5">
<path d="M74.5932 179.521C74.5932 179.521 74.5533 179.541 74.5533 179.511L73.0763 173.151C73.0763 173.151 73.0763 173.091 73.1062 173.071L77.6969 168.931C77.6969 168.931 77.7368 168.921 77.7468 168.951L78.6948 174.621C78.6948 174.621 78.6948 174.691 78.6749 174.711L74.6231 179.531L74.5932 179.521Z" fill="#92B6DA"/>
</g>
<g opacity="0.5">
<path d="M67.5775 191.382C67.5775 191.382 67.5376 191.362 67.5576 191.342L71.1403 185.892C71.1403 185.892 71.1902 185.852 71.2201 185.852L77.3775 186.332C77.3775 186.332 77.4174 186.352 77.3975 186.372L73.9445 190.962C73.9445 190.962 73.8946 191.002 73.8647 191.002L67.5875 191.372L67.5775 191.382Z" fill="#92B6DA"/>
</g>
<g opacity="0.5">
<path d="M90.6105 180.999C90.6105 180.999 90.5805 180.969 90.6105 180.959L96.1392 177.509C96.1392 177.509 96.1991 177.489 96.229 177.509L101.618 180.529C101.618 180.529 101.638 180.569 101.618 180.579L96.5683 183.299C96.5683 183.299 96.5084 183.319 96.4785 183.299L90.6204 181.009L90.6105 180.999Z" fill="#92B6DA"/>
</g>
<g opacity="0.5">
<path d="M82.9959 189.271C82.9959 189.271 82.956 189.291 82.956 189.261L81.479 182.901C81.479 182.901 81.479 182.841 81.5089 182.821L86.0996 178.681C86.0996 178.681 86.1395 178.671 86.1495 178.701L87.0975 184.371C87.0975 184.371 87.0975 184.441 87.0776 184.461L83.0258 189.281L82.9959 189.271Z" fill="#92B6DA"/>
</g>
<g opacity="0.5">
<path d="M75.9703 201.12C75.9703 201.12 75.9303 201.1 75.9503 201.08L79.533 195.63C79.533 195.63 79.5829 195.59 79.6128 195.59L85.7702 196.07C85.7702 196.07 85.8101 196.09 85.7902 196.11L82.3372 200.7C82.3372 200.7 82.2873 200.74 82.2574 200.74L75.9802 201.11L75.9703 201.12Z" fill="#92B6DA"/>
</g>
<g opacity="0.5">
<path d="M28.1582 162.03C28.1582 162.03 28.1283 162 28.1582 161.99L33.6869 158.54C33.6869 158.54 33.7468 158.52 33.7767 158.54L39.1657 161.56C39.1657 161.56 39.1857 161.6 39.1657 161.61L34.116 164.33C34.116 164.33 34.0562 164.35 34.0262 164.33L28.1682 162.04L28.1582 162.03Z" fill="#92B6DA"/>
</g>
<g opacity="0.5">
<path d="M20.5438 170.299C20.5438 170.299 20.5038 170.319 20.5038 170.289L19.0269 163.929C19.0269 163.929 19.0269 163.869 19.0568 163.849L23.6474 159.709C23.6474 159.709 23.6873 159.699 23.6973 159.729L24.6454 165.399C24.6454 165.399 24.6454 165.469 24.6254 165.489L20.5737 170.309L20.5438 170.299Z" fill="#92B6DA"/>
</g>
<g opacity="0.5">
<path d="M13.528 182.151C13.528 182.151 13.4881 182.131 13.508 182.111L17.0907 176.661C17.0907 176.661 17.1406 176.621 17.1705 176.621L23.328 177.101C23.328 177.101 23.3679 177.121 23.3479 177.141L19.895 181.731C19.895 181.731 19.8451 181.771 19.8151 181.771L13.538 182.141L13.528 182.151Z" fill="#92B6DA"/>
</g>
<g opacity="0.5">
<path d="M36.5609 171.78C36.5609 171.78 36.531 171.75 36.5609 171.74L42.0896 168.29C42.0896 168.29 42.1495 168.27 42.1794 168.29L47.5684 171.31C47.5684 171.31 47.5884 171.35 47.5684 171.36L42.5187 174.08C42.5187 174.08 42.4589 174.1 42.4289 174.08L36.5709 171.79L36.5609 171.78Z" fill="#92B6DA"/>
</g>
<g opacity="0.5">
<path d="M28.9465 180.049C28.9465 180.049 28.9065 180.069 28.9065 180.039L27.4296 173.679C27.4296 173.679 27.4296 173.619 27.4595 173.599L32.0501 169.459C32.0501 169.459 32.09 169.449 32.1 169.479L33.0481 175.149C33.0481 175.149 33.0481 175.219 33.0281 175.239L28.9764 180.059L28.9465 180.049Z" fill="#92B6DA"/>
</g>
<g opacity="0.5">
<path d="M21.9208 191.901C21.9208 191.901 21.8809 191.881 21.9009 191.861L25.4835 186.411C25.4835 186.411 25.5334 186.371 25.5634 186.371L31.7208 186.851C31.7208 186.851 31.7607 186.871 31.7408 186.891L28.2878 191.481C28.2878 191.481 28.2379 191.521 28.208 191.521L21.9308 191.891L21.9208 191.901Z" fill="#92B6DA"/>
</g>
<g opacity="0.5">
<path d="M31.8905 151.842C31.8905 151.842 31.8506 151.822 31.8706 151.802L35.4533 146.353C35.4533 146.353 35.5032 146.312 35.5331 146.312L41.6905 146.793C41.6905 146.793 41.7304 146.812 41.7105 146.832L38.2575 151.423C38.2575 151.423 38.2076 151.462 38.1777 151.462L31.9005 151.832L31.8905 151.842Z" fill="#92B6DA"/>
</g>
<g opacity="0.5">
<path d="M54.9235 141.472C54.9235 141.472 54.8935 141.442 54.9235 141.432L60.4522 137.982C60.4522 137.982 60.5121 137.962 60.542 137.982L65.931 141.002C65.931 141.002 65.9509 141.042 65.931 141.052L60.8813 143.772C60.8813 143.772 60.8214 143.792 60.7915 143.772L54.9334 141.482L54.9235 141.472Z" fill="#92B6DA"/>
</g>
<g opacity="0.5">
<path d="M47.309 149.74C47.309 149.74 47.2691 149.76 47.2691 149.73L45.7921 143.37C45.7921 143.37 45.7921 143.31 45.8221 143.29L50.4127 139.15C50.4127 139.15 50.4526 139.14 50.4626 139.17L51.4106 144.84C51.4106 144.84 51.4106 144.91 51.3907 144.93L47.3389 149.75L47.309 149.74Z" fill="#92B6DA"/>
</g>
<g opacity="0.5">
<path d="M40.2832 161.592C40.2832 161.592 40.2433 161.572 40.2633 161.552L43.846 156.103C43.846 156.103 43.8959 156.062 43.9258 156.062L50.0832 156.543C50.0832 156.543 50.1231 156.562 50.1032 156.582L46.6502 161.173C46.6502 161.173 46.6003 161.212 46.5704 161.212L40.2932 161.582L40.2832 161.592Z" fill="#92B6DA"/>
</g>
<g opacity="0.5">
<path d="M6.2627 191.753C6.2627 191.753 6.23276 191.723 6.2627 191.713L11.7914 188.263C11.7914 188.263 11.8513 188.243 11.8812 188.263L17.2702 191.283C17.2702 191.283 17.2902 191.323 17.2702 191.333L12.2205 194.053C12.2205 194.053 12.1606 194.073 12.1307 194.053L6.27268 191.763L6.2627 191.753Z" fill="#92B6DA"/>
</g>
<g opacity="0.5">
<path d="M14.6658 201.491C14.6658 201.491 14.6358 201.461 14.6658 201.451L20.1945 198.001C20.1945 198.001 20.2544 197.981 20.2843 198.001L25.6733 201.021C25.6733 201.021 25.6932 201.061 25.6733 201.071L20.6236 203.791C20.6236 203.791 20.5637 203.811 20.5338 203.791L14.6757 201.501L14.6658 201.491Z" fill="#92B6DA"/>
</g>
<g opacity="0.5">
<path d="M7.04132 209.763C7.04132 209.763 7.0014 209.783 7.0014 209.753L5.52441 203.393C5.52441 203.393 5.52441 203.333 5.55435 203.313L10.145 199.173C10.145 199.173 10.1849 199.163 10.1949 199.193L11.1429 204.863C11.1429 204.863 11.1429 204.933 11.123 204.953L7.07125 209.773L7.04132 209.763Z" fill="#92B6DA"/>
</g>
<g opacity="0.5">
<path d="M0.0255482 221.612C0.0255482 221.612 -0.0143707 221.592 0.00558854 221.572L3.58827 216.122C3.58827 216.122 3.63817 216.082 3.66811 216.082L9.82553 216.562C9.82553 216.562 9.86545 216.582 9.84549 216.602L6.39254 221.192C6.39254 221.192 6.34264 221.232 6.3127 221.232L0.03553 221.602L0.0255482 221.612Z" fill="#92B6DA"/>
</g>
<g opacity="0.5">
<path d="M23.6672 211.44C23.6672 211.44 23.6373 211.41 23.6672 211.4L29.1959 207.95C29.1959 207.95 29.2558 207.93 29.2858 207.95L34.6747 210.97C34.6747 210.97 34.6947 211.01 34.6747 211.02L29.6251 213.74C29.6251 213.74 29.5652 213.76 29.5353 213.74L23.6772 211.45L23.6672 211.44Z" fill="#92B6DA"/>
</g>
<g opacity="0.5">
<path d="M16.0528 219.709C16.0528 219.709 16.0129 219.729 16.0129 219.699L14.5359 213.339C14.5359 213.339 14.5359 213.279 14.5658 213.259L19.1565 209.119C19.1565 209.119 19.1964 209.109 19.2063 209.139L20.1544 214.809C20.1544 214.809 20.1544 214.879 20.1345 214.899L16.0827 219.719L16.0528 219.709Z" fill="#92B6DA"/>
</g>
<g opacity="0.5">
<path d="M9.02701 231.561C9.02701 231.561 8.98709 231.541 9.00705 231.521L12.5897 226.071C12.5897 226.071 12.6396 226.031 12.6696 226.031L18.827 226.511C18.827 226.511 18.8669 226.531 18.847 226.551L15.394 231.141C15.394 231.141 15.3441 231.181 15.3142 231.181L9.03699 231.551L9.02701 231.561Z" fill="#92B6DA"/>
</g>
<g opacity="0.5">
<path d="M32.0601 221.19C32.0601 221.19 32.0301 221.16 32.0601 221.15L37.5888 217.7C37.5888 217.7 37.6486 217.68 37.6786 217.7L43.0676 220.72C43.0676 220.72 43.0875 220.76 43.0676 220.77L38.0179 223.49C38.0179 223.49 37.958 223.51 37.9281 223.49L32.07 221.2L32.0601 221.19Z" fill="#92B6DA"/>
</g>
<g opacity="0.5">
<path d="M24.4455 229.451C24.4455 229.451 24.4056 229.471 24.4056 229.441L22.9286 223.081C22.9286 223.081 22.9286 223.021 22.9585 223.001L27.5491 218.861C27.5491 218.861 27.5891 218.851 27.599 218.881L28.5471 224.551C28.5471 224.551 28.5471 224.621 28.5272 224.641L24.4754 229.461L24.4455 229.451Z" fill="#92B6DA"/>
</g>
<g opacity="0.5">
<path d="M17.4298 241.311C17.4298 241.311 17.3899 241.291 17.4099 241.271L20.9926 235.821C20.9926 235.821 21.0425 235.781 21.0724 235.781L27.2298 236.261C27.2298 236.261 27.2697 236.281 27.2498 236.301L23.7968 240.891C23.7968 240.891 23.7469 240.931 23.717 240.931L17.4398 241.301L17.4298 241.311Z" fill="#92B6DA"/>
</g>
<g opacity="0.5">
<path d="M41.1816 230.972C41.1816 230.972 41.1517 230.942 41.1816 230.932L46.7103 227.482C46.7103 227.482 46.7702 227.462 46.8002 227.482L52.1892 230.502C52.1892 230.502 52.2091 230.542 52.1892 230.552L47.1395 233.272C47.1395 233.272 47.0796 233.292 47.0497 233.272L41.1916 230.982L41.1816 230.972Z" fill="#92B6DA"/>
</g>
<g opacity="0.5">
<path d="M33.5672 239.232C33.5672 239.232 33.5273 239.252 33.5273 239.222L32.0503 232.862C32.0503 232.862 32.0503 232.802 32.0802 232.782L36.6709 228.642C36.6709 228.642 36.7108 228.632 36.7208 228.662L37.6688 234.332C37.6688 234.332 37.6688 234.402 37.6489 234.422L33.5971 239.242L33.5672 239.232Z" fill="#92B6DA"/>
</g>
<g opacity="0.5">
<path d="M26.5514 251.093C26.5514 251.093 26.5115 251.072 26.5315 251.052L30.1141 245.602C30.1141 245.602 30.164 245.562 30.194 245.562L36.3514 246.042C36.3514 246.042 36.3913 246.063 36.3714 246.083L32.9184 250.672C32.9184 250.672 32.8685 250.713 32.8386 250.713L26.5614 251.083L26.5514 251.093Z" fill="#92B6DA"/>
</g>
<g opacity="0.5">
<path d="M49.5844 240.722C49.5844 240.722 49.5544 240.692 49.5844 240.682L55.1131 237.232C55.1131 237.232 55.1729 237.212 55.2029 237.232L60.5919 240.252C60.5919 240.252 60.6118 240.292 60.5919 240.302L55.5422 243.022C55.5422 243.022 55.4823 243.042 55.4524 243.022L49.5943 240.732L49.5844 240.722Z" fill="#92B6DA"/>
</g>
<g opacity="0.5">
<path d="M41.9699 248.982C41.9699 248.982 41.93 249.002 41.93 248.972L40.453 242.612C40.453 242.612 40.453 242.552 40.4829 242.532L45.0736 238.392C45.0736 238.392 45.1135 238.382 45.1235 238.412L46.0715 244.082C46.0715 244.082 46.0715 244.152 46.0516 244.172L41.9998 248.992L41.9699 248.982Z" fill="#92B6DA"/>
</g>
<g opacity="0.5">
<path d="M129.9 76.4208C129.9 76.4208 129.87 76.3908 129.9 76.3808L135.429 72.9308C135.429 72.9308 135.488 72.9108 135.518 72.9308L140.907 75.9508C140.907 75.9508 140.927 75.9908 140.907 76.0008L135.858 78.7208C135.858 78.7208 135.798 78.7408 135.768 78.7208L129.91 76.4308L129.9 76.4208Z" fill="#92B6DA"/>
</g>
<g opacity="0.5">
<path d="M122.286 84.6893C122.286 84.6893 122.246 84.7092 122.246 84.6792L120.769 78.3193C120.769 78.3193 120.769 78.2592 120.799 78.2392L125.389 74.0993C125.389 74.0993 125.429 74.0892 125.439 74.1192L126.387 79.7893C126.387 79.7893 126.387 79.8593 126.367 79.8793L122.316 84.6993L122.286 84.6893Z" fill="#92B6DA"/>
</g>
<g opacity="0.5">
<path d="M115.26 96.5417C115.26 96.5417 115.22 96.5217 115.24 96.5017L118.823 91.0517C118.823 91.0517 118.873 91.0117 118.902 91.0117L125.06 91.4917C125.06 91.4917 125.1 91.5117 125.08 91.5317L121.627 96.1217C121.627 96.1217 121.577 96.1617 121.547 96.1617L115.27 96.5317L115.26 96.5417Z" fill="#92B6DA"/>
</g>
<g opacity="0.5">
<path d="M138.303 86.1708C138.303 86.1708 138.273 86.1408 138.303 86.1308L143.832 82.6808C143.832 82.6808 143.891 82.6608 143.921 82.6808L149.31 85.7008C149.31 85.7008 149.33 85.7408 149.31 85.7508L144.261 88.4708C144.261 88.4708 144.201 88.4908 144.171 88.4708L138.313 86.1808L138.303 86.1708Z" fill="#92B6DA"/>
</g>
<g opacity="0.5">
<path d="M130.688 94.4393C130.688 94.4393 130.648 94.4592 130.648 94.4292L129.172 88.0693C129.172 88.0693 129.172 88.0092 129.201 87.9892L133.792 83.8493C133.792 83.8493 133.832 83.8392 133.842 83.8692L134.79 89.5393C134.79 89.5393 134.79 89.6093 134.77 89.6293L130.718 94.4493L130.688 94.4393Z" fill="#92B6DA"/>
</g>
<g opacity="0.5">
<path d="M123.663 106.292C123.663 106.292 123.623 106.272 123.643 106.252L127.225 100.802C127.225 100.802 127.275 100.762 127.305 100.762L133.463 101.242C133.463 101.242 133.503 101.262 133.483 101.282L130.03 105.872C130.03 105.872 129.98 105.912 129.95 105.912L123.673 106.282L123.663 106.292Z" fill="#92B6DA"/>
</g>
<g opacity="0.5">
<path d="M129.481 124.401C129.481 124.401 129.451 124.371 129.481 124.361L135.01 120.911C135.01 120.911 135.07 120.891 135.1 120.911L140.489 123.931C140.489 123.931 140.509 123.971 140.489 123.981L135.439 126.701C135.439 126.701 135.379 126.721 135.349 126.701L129.491 124.411L129.481 124.401Z" fill="#92B6DA"/>
</g>
<g opacity="0.5">
<path d="M121.867 132.67C121.867 132.67 121.827 132.69 121.827 132.66L120.35 126.3C120.35 126.3 120.35 126.24 120.38 126.22L124.97 122.08C124.97 122.08 125.01 122.07 125.02 122.1L125.968 127.77C125.968 127.77 125.968 127.84 125.948 127.86L121.897 132.68L121.867 132.67Z" fill="#92B6DA"/>
</g>
<g opacity="0.5">
<path d="M114.851 144.522C114.851 144.522 114.811 144.502 114.831 144.482L118.414 139.032C118.414 139.032 118.464 138.992 118.494 138.992L124.651 139.472C124.651 139.472 124.691 139.492 124.671 139.512L121.218 144.102C121.218 144.102 121.168 144.142 121.138 144.142L114.861 144.512L114.851 144.522Z" fill="#92B6DA"/>
</g>
<g opacity="0.5">
<path d="M137.884 134.151C137.884 134.151 137.854 134.121 137.884 134.111L143.413 130.661C143.413 130.661 143.472 130.641 143.502 130.661L148.891 133.681C148.891 133.681 148.911 133.721 148.891 133.731L143.842 136.451C143.842 136.451 143.782 136.471 143.752 136.451L137.894 134.161L137.884 134.151Z" fill="#92B6DA"/>
</g>
<g opacity="0.5">
<path d="M130.269 142.42C130.269 142.42 130.23 142.44 130.23 142.41L128.753 136.05C128.753 136.05 128.753 135.99 128.783 135.97L133.373 131.83C133.373 131.83 133.413 131.82 133.423 131.85L134.371 137.52C134.371 137.52 134.371 137.59 134.351 137.61L130.299 142.43L130.269 142.42Z" fill="#92B6DA"/>
</g>
<g opacity="0.5">
<path d="M123.244 154.272C123.244 154.272 123.204 154.252 123.224 154.232L126.806 148.782C126.806 148.782 126.856 148.742 126.886 148.742L133.044 149.222C133.044 149.222 133.084 149.242 133.064 149.262L129.611 153.852C129.611 153.852 129.561 153.892 129.531 153.892L123.254 154.262L123.244 154.272Z" fill="#92B6DA"/>
</g>
<g opacity="0.5">
<path d="M111.638 104.632C111.638 104.632 111.608 104.602 111.638 104.592L117.166 101.142C117.166 101.142 117.226 101.122 117.256 101.142L122.645 104.162C122.645 104.162 122.665 104.202 122.645 104.212L117.595 106.932C117.595 106.932 117.536 106.952 117.506 106.932L111.648 104.642L111.638 104.632Z" fill="#92B6DA"/>
</g>
<g opacity="0.5">
<path d="M97.0074 124.753C97.0074 124.753 96.9674 124.733 96.9874 124.713L100.57 119.263C100.57 119.263 100.62 119.223 100.65 119.223L106.807 119.703C106.807 119.703 106.847 119.723 106.827 119.743L103.374 124.333C103.374 124.333 103.324 124.373 103.295 124.373L97.0173 124.743L97.0074 124.753Z" fill="#92B6DA"/>
</g>
<g opacity="0.5">
<path d="M120.04 114.382C120.04 114.382 120.01 114.352 120.04 114.342L125.569 110.892C125.569 110.892 125.629 110.872 125.659 110.892L131.048 113.912C131.048 113.912 131.068 113.952 131.048 113.962L125.998 116.682C125.998 116.682 125.938 116.702 125.908 116.682L120.05 114.392L120.04 114.382Z" fill="#92B6DA"/>
</g>
<g opacity="0.5">
<path d="M112.426 122.65C112.426 122.65 112.386 122.67 112.386 122.64L110.909 116.28C110.909 116.28 110.909 116.22 110.939 116.2L115.53 112.06C115.53 112.06 115.569 112.05 115.579 112.08L116.527 117.75C116.527 117.75 116.527 117.82 116.507 117.84L112.456 122.66L112.426 122.65Z" fill="#92B6DA"/>
</g>
<g opacity="0.5">
<path d="M105.4 134.503C105.4 134.503 105.36 134.483 105.38 134.463L108.963 129.013C108.963 129.013 109.013 128.973 109.043 128.973L115.2 129.453C115.2 129.453 115.24 129.473 115.22 129.493L111.767 134.083C111.767 134.083 111.717 134.123 111.687 134.123L105.41 134.493L105.4 134.503Z" fill="#92B6DA"/>
</g>
<g opacity="0.5">
<path d="M142.085 103.221C142.085 103.221 142.045 103.24 142.045 103.21L140.568 96.8505C140.568 96.8505 140.568 96.7905 140.598 96.7705L145.189 92.6305C145.189 92.6305 145.229 92.6205 145.239 92.6505L146.187 98.3205C146.187 98.3205 146.187 98.3905 146.167 98.4105L142.115 103.231L142.085 103.221Z" fill="#92B6DA"/>
</g>
<g opacity="0.5">
<path d="M135.07 115.069C135.07 115.069 135.03 115.049 135.05 115.029L138.632 109.579C138.632 109.579 138.682 109.539 138.712 109.539L144.87 110.019C144.87 110.019 144.91 110.039 144.89 110.059L141.437 114.649C141.437 114.649 141.387 114.689 141.357 114.689L135.08 115.059L135.07 115.069Z" fill="#92B6DA"/>
</g>
<g opacity="0.5">
<path d="M150.488 112.971C150.488 112.971 150.448 112.99 150.448 112.96L148.971 106.601C148.971 106.601 148.971 106.54 149.001 106.52L153.592 102.381C153.592 102.381 153.632 102.37 153.642 102.4L154.59 108.071C154.59 108.071 154.59 108.141 154.57 108.161L150.518 112.981L150.488 112.971Z" fill="#92B6DA"/>
</g>
<g opacity="0.5">
<path d="M143.462 124.819C143.462 124.819 143.422 124.799 143.442 124.779L147.025 119.329C147.025 119.329 147.075 119.289 147.105 119.289L153.262 119.769C153.262 119.769 153.302 119.789 153.282 119.809L149.829 124.399C149.829 124.399 149.779 124.439 149.75 124.439L143.472 124.809L143.462 124.819Z" fill="#92B6DA"/>
</g>
<g opacity="0.5">
<path d="M114.013 55.4208C114.013 55.4208 113.983 55.3908 114.013 55.3808L119.541 51.9308C119.541 51.9308 119.601 51.9108 119.631 51.9308L125.02 54.9508C125.02 54.9508 125.04 54.9908 125.02 55.0008L119.97 57.7208C119.97 57.7208 119.911 57.7408 119.881 57.7208L114.023 55.4308L114.013 55.4208Z" fill="#92B6DA"/>
</g>
<g opacity="0.5">
<path d="M122.415 65.1708C122.415 65.1708 122.385 65.1408 122.415 65.1308L127.944 61.6808C127.944 61.6808 128.004 61.6608 128.034 61.6808L133.423 64.7008C133.423 64.7008 133.443 64.7408 133.423 64.7508L128.373 67.4708C128.373 67.4708 128.313 67.4908 128.283 67.4708L122.425 65.1808L122.415 65.1708Z" fill="#92B6DA"/>
</g>
<g opacity="0.5">
<path d="M114.801 73.4393C114.801 73.4393 114.761 73.4592 114.761 73.4292L113.284 67.0693C113.284 67.0693 113.284 67.0092 113.314 66.9892L117.905 62.8493C117.905 62.8493 117.945 62.8392 117.955 62.8692L118.903 68.5393C118.903 68.5393 118.903 68.6093 118.883 68.6293L114.831 73.4493L114.801 73.4393Z" fill="#92B6DA"/>
</g>
<g opacity="0.5">
<path d="M107.775 85.2917C107.775 85.2917 107.736 85.2717 107.755 85.2517L111.338 79.8017C111.338 79.8017 111.388 79.7617 111.418 79.7617L117.575 80.2417C117.575 80.2417 117.615 80.2617 117.595 80.2817L114.142 84.8717C114.142 84.8717 114.093 84.9117 114.063 84.9117L107.785 85.2817L107.775 85.2917Z" fill="#92B6DA"/>
</g>
<g opacity="0.5">
<path d="M59.1145 135.561C59.1145 135.561 59.0746 135.541 59.0946 135.521L62.6773 130.071C62.6773 130.071 62.7272 130.031 62.7571 130.031L68.9145 130.511C68.9145 130.511 68.9544 130.531 68.9345 130.551L65.4815 135.141C65.4815 135.141 65.4316 135.181 65.4017 135.181L59.1245 135.551L59.1145 135.561Z" fill="#92B6DA"/>
</g>
<g opacity="0.5">
<path d="M82.1475 125.19C82.1475 125.19 82.1175 125.16 82.1475 125.15L87.6762 121.7C87.6762 121.7 87.736 121.68 87.766 121.7L93.155 124.72C93.155 124.72 93.1749 124.76 93.155 124.77L88.1053 127.49C88.1053 127.49 88.0454 127.51 88.0155 127.49L82.1574 125.2L82.1475 125.19Z" fill="#92B6DA"/>
</g>
<g opacity="0.5">
<path d="M74.533 133.459C74.533 133.459 74.4931 133.479 74.4931 133.449L73.0161 127.089C73.0161 127.089 73.0161 127.029 73.0461 127.009L77.6367 122.869C77.6367 122.869 77.6766 122.859 77.6866 122.889L78.6346 128.559C78.6346 128.559 78.6346 128.629 78.6147 128.649L74.5629 133.469L74.533 133.459Z" fill="#92B6DA"/>
</g>
<g opacity="0.5">
<path d="M67.5174 145.311C67.5174 145.311 67.4775 145.291 67.4974 145.271L71.0801 139.821C71.0801 139.821 71.13 139.781 71.1599 139.781L77.3173 140.261C77.3173 140.261 77.3573 140.281 77.3373 140.301L73.8844 144.891C73.8844 144.891 73.8345 144.931 73.8045 144.931L67.5273 145.301L67.5174 145.311Z" fill="#92B6DA"/>
</g>
<g opacity="0.5">
<path d="M91.1592 135.132C91.1592 135.132 91.1293 135.102 91.1592 135.092L96.6879 131.642C96.6879 131.642 96.7478 131.622 96.7778 131.642L102.167 134.662C102.167 134.662 102.187 134.702 102.167 134.712L97.1171 137.432C97.1171 137.432 97.0572 137.452 97.0273 137.432L91.1692 135.142L91.1592 135.132Z" fill="#92B6DA"/>
</g>
<g opacity="0.5">
<path d="M83.5347 143.4C83.5347 143.4 83.4948 143.42 83.4948 143.39L82.0178 137.03C82.0178 137.03 82.0178 136.97 82.0478 136.95L86.6384 132.81C86.6384 132.81 86.6783 132.8 86.6883 132.83L87.6363 138.5C87.6363 138.5 87.6363 138.57 87.6164 138.59L83.5647 143.41L83.5347 143.4Z" fill="#92B6DA"/>
</g>
<g opacity="0.5">
<path d="M76.5191 155.253C76.5191 155.253 76.4792 155.233 76.4991 155.213L80.0818 149.763C80.0818 149.763 80.1317 149.723 80.1616 149.723L86.3191 150.203C86.3191 150.203 86.359 150.223 86.339 150.243L82.8861 154.833C82.8861 154.833 82.8362 154.873 82.8062 154.873L76.5291 155.243L76.5191 155.253Z" fill="#92B6DA"/>
</g>
<g opacity="0.5">
<path d="M99.552 144.882C99.552 144.882 99.5221 144.852 99.552 144.842L105.081 141.392C105.081 141.392 105.141 141.372 105.171 141.392L110.56 144.412C110.56 144.412 110.579 144.452 110.56 144.462L105.51 147.182C105.51 147.182 105.45 147.202 105.42 147.182L99.562 144.892L99.552 144.882Z" fill="#92B6DA"/>
</g>
<g opacity="0.5">
<path d="M91.9376 153.15C91.9376 153.15 91.8976 153.17 91.8976 153.14L90.4207 146.78C90.4207 146.78 90.4207 146.72 90.4506 146.7L95.0412 142.56C95.0412 142.56 95.0811 142.55 95.0911 142.58L96.0392 148.25C96.0392 148.25 96.0392 148.32 96.0192 148.34L91.9675 153.16L91.9376 153.15Z" fill="#92B6DA"/>
</g>
<g opacity="0.5">
<path d="M84.9218 165.003C84.9218 165.003 84.8819 164.983 84.9018 164.963L88.4845 159.513C88.4845 159.513 88.5344 159.473 88.5643 159.473L94.7218 159.953C94.7218 159.953 94.7617 159.973 94.7417 159.993L91.2888 164.583C91.2888 164.583 91.2389 164.623 91.209 164.623L84.9318 164.993L84.9218 165.003Z" fill="#92B6DA"/>
</g>
<g opacity="0.5">
<path d="M108.674 154.659C108.674 154.659 108.644 154.629 108.674 154.619L114.202 151.169C114.202 151.169 114.262 151.149 114.292 151.169L119.681 154.189C119.681 154.189 119.701 154.229 119.681 154.239L114.631 156.959C114.631 156.959 114.572 156.979 114.542 156.959L108.684 154.669L108.674 154.659Z" fill="#92B6DA"/>
</g>
<g opacity="0.5">
<path d="M101.059 162.928C101.059 162.928 101.019 162.948 101.019 162.918L99.5422 156.558C99.5422 156.558 99.5422 156.498 99.5722 156.478L104.163 152.338C104.163 152.338 104.203 152.328 104.213 152.358L105.161 158.028C105.161 158.028 105.161 158.098 105.141 158.118L101.089 162.938L101.059 162.928Z" fill="#92B6DA"/>
</g>
<g opacity="0.5">
<path d="M94.0335 174.78C94.0335 174.78 93.9936 174.76 94.0135 174.74L97.5962 169.29C97.5962 169.29 97.6461 169.25 97.676 169.25L103.833 169.73C103.833 169.73 103.873 169.75 103.853 169.77L100.4 174.36C100.4 174.36 100.351 174.4 100.321 174.4L94.0435 174.77L94.0335 174.78Z" fill="#92B6DA"/>
</g>
<g opacity="0.5">
<path d="M117.076 164.409C117.076 164.409 117.046 164.379 117.076 164.369L122.605 160.919C122.605 160.919 122.665 160.899 122.695 160.919L128.084 163.939C128.084 163.939 128.104 163.979 128.084 163.989L123.034 166.709C123.034 166.709 122.974 166.729 122.944 166.709L117.086 164.419L117.076 164.409Z" fill="#92B6DA"/>
</g>
<g opacity="0.5">
<path d="M109.462 172.678C109.462 172.678 109.422 172.698 109.422 172.668L107.945 166.308C107.945 166.308 107.945 166.248 107.975 166.228L112.566 162.088C112.566 162.088 112.605 162.078 112.615 162.108L113.564 167.778C113.564 167.778 113.564 167.848 113.544 167.868L109.492 172.688L109.462 172.678Z" fill="#92B6DA"/>
</g>
<g opacity="0.5">
<path d="M102.436 184.53C102.436 184.53 102.396 184.51 102.416 184.49L105.999 179.04C105.999 179.04 106.049 179 106.079 179L112.236 179.48C112.236 179.48 112.276 179.5 112.256 179.52L108.803 184.11C108.803 184.11 108.753 184.15 108.723 184.15L102.446 184.52L102.436 184.53Z" fill="#92B6DA"/>
</g>
</g>
<path d="M171.301 308.822C169.234 318.7 166.931 332.15 162.617 332.172C157.744 332.194 155.185 318.375 153.676 309.08L141.494 326.169C140.757 327.211 139.65 328.096 138.678 328.387C133.179 330.033 134.587 314.746 136.778 303.099C128.105 309.292 117.689 319.002 114.459 314.601C113.699 313.57 113.308 312.361 113.934 311.017L123.076 291.251C114.481 294.7 103.138 298.575 98.7678 296.414C94.6103 294.353 105.608 283.008 114.426 276.267C104.937 274.531 91.101 277.106 89.8381 271.339C89.5586 270.085 90.8551 268.371 92.2074 267.699L111.05 258.348C102.244 255.347 89.8157 250.811 89.6928 246.544C89.5586 241.639 103.171 241.46 114.258 241.27C108.1 235.166 97.2702 226.599 97.8625 222.847C98.589 218.166 112.548 222.041 123.154 225.916C118.639 217.752 112.101 205.478 114.001 202.913C117.276 198.478 128.172 207.908 136.286 213.989C135.325 203.854 133.302 190.908 136.789 189.497C140.555 187.974 148.39 199.699 153.531 208.154C155.654 199.587 157.219 186.092 161.678 185.051C166.417 183.942 169.032 197.829 171.301 208.244C176.465 200.942 182.556 188.209 187.361 189.553C188.758 189.945 190.289 192.173 190.111 194.189L188.423 213.653L205.377 202.241C206.584 201.435 208.629 201.726 209.568 202.297C213.838 204.884 205.657 217.293 201.98 225.916C210.541 223.262 217.157 219.7 225.64 221.212C230.881 222.153 219.314 234.55 210.295 241.18L227.059 242.11C229.73 242.255 234.838 243.823 234.949 246.578C230.892 254.104 220.387 254.182 214.463 259.491C222.801 262.593 230.311 264.586 235.788 270.768C231.608 278.159 220.8 273.848 211.479 277.017L225.438 291.195C226.433 292.203 226.713 294.073 226.444 295.115C225.204 299.863 212.228 294.823 202.259 291.99L210.552 310.737C211.256 312.339 210.865 314.556 209.591 315.676C208.741 316.415 206.428 315.933 205.12 315.038L187.965 303.323L190.155 318.532C190.703 322.317 190.01 326.472 187.048 329.07C179.56 323.762 175.604 316.415 171.29 308.856L171.301 308.822Z" fill="#603813"/>
<rect x="89.5256" y="345.648" width="15.4172" height="0.203125" fill="#DCD6CB"/>
<rect x="89.7319" y="345.52" width="15.168" height="0.273438" fill="#DCD6CB"/>
<line x1="104.602" y1="345.684" x2="104.92" y2="345.549" stroke="#DCD6CB"/>
<line x1="89.5043" y1="346.059" x2="89.3125" y2="345.773" stroke="#DCD6CB"/>
</svg>
