<svg width="321" height="634" viewBox="0 0 321 634" fill="none" xmlns="http://www.w3.org/2000/svg">
<path d="M105.03 12.15C96.09 15.13 94.86 27.31 103.04 32.01C112.2 37.27 121.31 43.38 121.31 50.76V113.69C121.31 117.37 118.7 120.52 115.09 121.22C94.27 125.21 27.69 142.37 15.7 200.28C11.89 218.71 10.71 238.38 11.04 257.3C11.82 302.61 21.54 347.32 39.04 389.13C55.73 428.99 80.84 496.01 84.69 546.53C85.47 556.75 80.77 566.59 72.45 572.58C65.7 577.43 59.81 582.65 59.81 589.89C59.81 602.15 82.16 629.25 164.03 629.25C195.46 629.25 218.35 624.09 234.62 617.74C254.18 610.1 256.55 583.37 238.6 572.46C238.35 572.31 238.1 572.16 237.84 572C235.37 570.5 233.95 567.75 234.15 564.87C236.82 526.09 277.77 408.75 294.55 352.77C300.55 332.75 323.62 252.5 302.86 189.61C285.69 137.62 227.92 124.55 208.4 121.59C204.66 121.02 201.9 117.8 201.9 114.02V52.29C201.9 51.2 202.13 50.13 202.58 49.14C204.94 43.94 231.05 38.01 231.05 27C231.05 14.99 217.87 4.5 159.88 4.5C134.88 4.5 117.06 8.17 105.04 12.17L105.03 12.15Z" fill="#DCD6CB"/>
<path d="M105.03 12.15C96.09 15.13 94.86 27.31 103.04 32.01C112.2 37.27 121.31 43.38 121.31 50.76V113.69C121.31 117.37 118.7 120.52 115.09 121.22C94.27 125.21 27.69 142.37 15.7 200.28C11.89 218.71 10.71 238.38 11.04 257.3C11.82 302.61 21.54 347.32 39.04 389.13C55.73 428.99 80.84 496.01 84.69 546.53C85.47 556.75 80.77 566.59 72.45 572.58C65.7 577.43 59.81 582.65 59.81 589.89C59.81 602.15 82.16 629.25 164.03 629.25C195.46 629.25 218.35 624.09 234.62 617.74C254.18 610.1 256.55 583.37 238.6 572.46C238.35 572.31 238.1 572.16 237.84 572C235.37 570.5 233.95 567.75 234.15 564.87C236.82 526.09 277.77 408.75 294.55 352.77C300.55 332.75 323.62 252.5 302.86 189.61C285.69 137.62 227.92 124.55 208.4 121.59C204.66 121.02 201.9 117.8 201.9 114.02V52.29C201.9 51.2 202.13 50.13 202.58 49.14C204.94 43.94 231.05 38.01 231.05 27C231.05 14.99 217.87 4.5 159.88 4.5C134.88 4.5 117.06 8.17 105.04 12.17L105.03 12.15Z" stroke="#DCD6CB" stroke-width="9" stroke-miterlimit="10"/>
<path d="M75.6802 561.691C115.11 575.341 157.84 582.831 199.2 575.001C212.89 572.421 226.15 567.811 238.88 561.691C221.32 573.721 200.14 580.451 178.93 582.411C143.9 585.511 106.87 577.801 75.6802 561.691Z" fill="#E2E3E2"/>
<path d="M257.17 152.211C279.19 160.641 291.25 187.931 295.49 209.661C300.1 232.931 299.28 257.131 295.03 280.361C295.31 251.311 295.24 221.781 286.24 193.921C280.84 177.831 272.17 161.161 257.17 152.211Z" fill="#E7E2D5"/>
<path d="M66.1198 151.401C59.7598 154.961 54.7098 160.421 50.3598 166.171C44.4298 174.311 40.1698 183.561 37.0398 193.111C28.0398 220.971 27.9698 250.501 28.2498 279.551C23.7598 254.871 23.0398 229.041 28.7498 204.471C33.5098 184.051 45.3698 159.331 66.1098 151.391L66.1198 151.401Z" fill="#E7E2D5"/>
<path d="M126.27 52.8889C137.25 69.4689 136.3 95.2689 127.49 112.629C127.68 108.749 128.18 105.049 128.45 101.219C129.9 85.0589 129.62 68.8589 126.27 52.8789V52.8889Z" fill="#E7E2D5"/>
<path d="M197.33 53.3984C193.98 69.3684 193.7 85.5784 195.15 101.738C195.42 105.558 195.92 109.258 196.11 113.148C187.3 95.7984 186.35 69.9984 197.33 53.4084V53.3984Z" fill="#E7E2D5"/>
<path d="M33.1099 381.849C33.1099 381.849 161.77 371.249 280.92 381.269C265.9 401.289 257.39 406.299 257.39 406.299L33.1099 381.849Z" fill="#C2C4DC"/>
<path d="M31.8799 382.001C31.8799 382.001 95.7099 361.651 152.78 382.001C209.85 402.351 281.19 380.842 281.19 380.842C281.19 380.842 227.12 508.192 227.12 552.962C171.55 574.482 97.9599 555.292 97.9599 555.292C97.9599 555.292 101.71 490.741 31.8799 382.011V382.001Z" fill="#8EB3D6"/>
<g opacity="0.5">
<g opacity="0.5">
<path d="M62.6701 152.729C62.6701 152.729 62.6401 152.699 62.6701 152.689L68.2101 149.239C68.2101 149.239 68.2701 149.219 68.3001 149.239L73.7001 152.259C73.7001 152.259 73.7201 152.299 73.7001 152.309L68.6401 155.029C68.6401 155.029 68.5801 155.049 68.5501 155.029L62.6801 152.739L62.6701 152.729Z" fill="#92B6DA"/>
</g>
<g opacity="0.5">
<path d="M55.04 160.998C55.04 160.998 55 161.018 55 160.988L53.52 154.628C53.52 154.628 53.52 154.568 53.55 154.548L58.15 150.408C58.15 150.408 58.19 150.398 58.2 150.428L59.15 156.098C59.15 156.098 59.15 156.168 59.13 156.188L55.07 161.008L55.04 160.998Z" fill="#92B6DA"/>
</g>
<g opacity="0.5">
<path d="M48.01 172.85C48.01 172.85 47.97 172.83 47.99 172.81L51.58 167.36C51.58 167.36 51.63 167.32 51.66 167.32L57.83 167.8C57.83 167.8 57.87 167.82 57.85 167.84L54.39 172.43C54.39 172.43 54.34 172.47 54.31 172.47L48.02 172.84L48.01 172.85Z" fill="#92B6DA"/>
</g>
<g opacity="0.5">
<path d="M71.09 162.479C71.09 162.479 71.06 162.449 71.09 162.439L76.63 158.989C76.63 158.989 76.69 158.969 76.72 158.989L82.12 162.009C82.12 162.009 82.14 162.049 82.12 162.059L77.06 164.779C77.06 164.779 77 164.799 76.97 164.779L71.1 162.489L71.09 162.479Z" fill="#92B6DA"/>
</g>
<g opacity="0.5">
<path d="M63.4599 170.748C63.4599 170.748 63.4199 170.768 63.4199 170.738L61.9399 164.378C61.9399 164.378 61.9399 164.318 61.9699 164.298L66.5699 160.158C66.5699 160.158 66.6099 160.148 66.6199 160.178L67.5699 165.848C67.5699 165.848 67.5699 165.918 67.5499 165.938L63.4899 170.758L63.4599 170.748Z" fill="#92B6DA"/>
</g>
<g opacity="0.5">
<path d="M56.4199 182.6C56.4199 182.6 56.3799 182.58 56.3999 182.56L59.9899 177.11C59.9899 177.11 60.0399 177.07 60.0699 177.07L66.2399 177.55C66.2399 177.55 66.2799 177.57 66.2599 177.59L62.7999 182.18C62.7999 182.18 62.7499 182.22 62.7199 182.22L56.4299 182.59L56.4199 182.6Z" fill="#92B6DA"/>
</g>
<g opacity="0.5">
<path d="M62.2499 200.71C62.2499 200.71 62.2199 200.68 62.2499 200.67L67.7899 197.22C67.7899 197.22 67.8499 197.2 67.8799 197.22L73.2799 200.24C73.2799 200.24 73.2999 200.28 73.2799 200.29L68.2199 203.01C68.2199 203.01 68.1599 203.03 68.1299 203.01L62.2599 200.72L62.2499 200.71Z" fill="#92B6DA"/>
</g>
<g opacity="0.5">
<path d="M54.6199 208.978C54.6199 208.978 54.5799 208.998 54.5799 208.968L53.0999 202.608C53.0999 202.608 53.0999 202.548 53.1299 202.528L57.7299 198.388C57.7299 198.388 57.7699 198.378 57.7799 198.408L58.7299 204.078C58.7299 204.078 58.7299 204.148 58.7099 204.168L54.6499 208.988L54.6199 208.978Z" fill="#92B6DA"/>
</g>
<g opacity="0.5">
<path d="M47.5898 220.831C47.5898 220.831 47.5498 220.811 47.5698 220.791L51.1598 215.341C51.1598 215.341 51.2098 215.301 51.2398 215.301L57.4098 215.781C57.4098 215.781 57.4498 215.801 57.4298 215.821L53.9698 220.411C53.9698 220.411 53.9198 220.451 53.8898 220.451L47.5998 220.821L47.5898 220.831Z" fill="#92B6DA"/>
</g>
<g opacity="0.5">
<path d="M70.6698 210.46C70.6698 210.46 70.6398 210.43 70.6698 210.42L76.2098 206.97C76.2098 206.97 76.2698 206.95 76.2998 206.97L81.6998 209.99C81.6998 209.99 81.7198 210.03 81.6998 210.04L76.6398 212.76C76.6398 212.76 76.5798 212.78 76.5498 212.76L70.6798 210.47L70.6698 210.46Z" fill="#92B6DA"/>
</g>
<g opacity="0.5">
<path d="M63.0398 218.728C63.0398 218.728 62.9998 218.748 62.9998 218.718L61.5198 212.358C61.5198 212.358 61.5198 212.298 61.5498 212.278L66.1498 208.138C66.1498 208.138 66.1898 208.128 66.1998 208.158L67.1498 213.828C67.1498 213.828 67.1498 213.898 67.1298 213.918L63.0698 218.738L63.0398 218.728Z" fill="#92B6DA"/>
</g>
<g opacity="0.5">
<path d="M55.9997 230.581C55.9997 230.581 55.9597 230.561 55.9797 230.541L59.5697 225.091C59.5697 225.091 59.6197 225.051 59.6497 225.051L65.8197 225.531C65.8197 225.531 65.8597 225.551 65.8397 225.571L62.3797 230.161C62.3797 230.161 62.3297 230.201 62.2997 230.201L56.0097 230.571L55.9997 230.581Z" fill="#92B6DA"/>
</g>
<g opacity="0.5">
<path d="M44.37 180.94C44.37 180.94 44.34 180.91 44.37 180.9L49.91 177.45C49.91 177.45 49.97 177.43 50 177.45L55.4 180.47C55.4 180.47 55.42 180.51 55.4 180.52L50.34 183.24C50.34 183.24 50.28 183.26 50.25 183.24L44.38 180.95L44.37 180.94Z" fill="#92B6DA"/>
</g>
<g opacity="0.5">
<path d="M36.74 189.209C36.74 189.209 36.7 189.229 36.7 189.199L35.22 182.839C35.22 182.839 35.22 182.779 35.25 182.759L39.85 178.619C39.85 178.619 39.89 178.609 39.9 178.639L40.85 184.309C40.85 184.309 40.85 184.379 40.83 184.399L36.77 189.219L36.74 189.209Z" fill="#92B6DA"/>
</g>
<g opacity="0.5">
<path d="M29.7099 201.061C29.7099 201.061 29.6699 201.041 29.6899 201.021L33.2799 195.571C33.2799 195.571 33.3299 195.531 33.3599 195.531L39.5299 196.011C39.5299 196.011 39.5699 196.031 39.5499 196.051L36.0899 200.641C36.0899 200.641 36.0399 200.681 36.0099 200.681L29.7199 201.051L29.7099 201.061Z" fill="#92B6DA"/>
</g>
<g opacity="0.5">
<path d="M52.7899 190.69C52.7899 190.69 52.7599 190.66 52.7899 190.65L58.3299 187.2C58.3299 187.2 58.3899 187.18 58.4199 187.2L63.8199 190.22C63.8199 190.22 63.8399 190.26 63.8199 190.27L58.7599 192.99C58.7599 192.99 58.6999 193.01 58.6699 192.99L52.7999 190.7L52.7899 190.69Z" fill="#92B6DA"/>
</g>
<g opacity="0.5">
<path d="M45.1599 198.959C45.1599 198.959 45.1199 198.979 45.1199 198.949L43.6399 192.589C43.6399 192.589 43.6399 192.529 43.6699 192.509L48.2699 188.369C48.2699 188.369 48.3099 188.359 48.3199 188.389L49.2699 194.059C49.2699 194.059 49.2699 194.129 49.2499 194.149L45.1899 198.969L45.1599 198.959Z" fill="#92B6DA"/>
</g>
<g opacity="0.5">
<path d="M38.1198 210.811C38.1198 210.811 38.0798 210.791 38.0998 210.771L41.6898 205.321C41.6898 205.321 41.7398 205.281 41.7698 205.281L47.9398 205.761C47.9398 205.761 47.9798 205.781 47.9598 205.801L44.4998 210.391C44.4998 210.391 44.4498 210.431 44.4198 210.431L38.1298 210.801L38.1198 210.811Z" fill="#92B6DA"/>
</g>
<g opacity="0.5">
<path d="M82.5099 171.261C82.5099 171.261 82.4799 171.231 82.5099 171.221L88.0499 167.771C88.0499 167.771 88.1099 167.751 88.1399 167.771L93.5399 170.791C93.5399 170.791 93.5599 170.831 93.5399 170.841L88.4799 173.561C88.4799 173.561 88.4199 173.581 88.3899 173.561L82.5199 171.271L82.5099 171.261Z" fill="#92B6DA"/>
</g>
<g opacity="0.5">
<path d="M74.8799 179.529C74.8799 179.529 74.8399 179.549 74.8399 179.519L73.3599 173.159C73.3599 173.159 73.3599 173.099 73.3899 173.079L77.9899 168.939C77.9899 168.939 78.0299 168.929 78.0399 168.959L78.9899 174.629C78.9899 174.629 78.9899 174.699 78.9699 174.719L74.9099 179.539L74.8799 179.529Z" fill="#92B6DA"/>
</g>
<g opacity="0.5">
<path d="M67.8498 191.382C67.8498 191.382 67.8098 191.362 67.8298 191.342L71.4198 185.892C71.4198 185.892 71.4698 185.852 71.4998 185.852L77.6698 186.332C77.6698 186.332 77.7098 186.352 77.6898 186.372L74.2298 190.962C74.2298 190.962 74.1798 191.002 74.1498 191.002L67.8598 191.372L67.8498 191.382Z" fill="#92B6DA"/>
</g>
<g opacity="0.5">
<path d="M90.9298 181.011C90.9298 181.011 90.8998 180.981 90.9298 180.971L96.4698 177.521C96.4698 177.521 96.5298 177.501 96.5598 177.521L101.96 180.541C101.96 180.541 101.98 180.581 101.96 180.591L96.8998 183.311C96.8998 183.311 96.8398 183.331 96.8098 183.311L90.9398 181.021L90.9298 181.011Z" fill="#92B6DA"/>
</g>
<g opacity="0.5">
<path d="M83.2998 189.279C83.2998 189.279 83.2598 189.299 83.2598 189.269L81.7798 182.909C81.7798 182.909 81.7798 182.849 81.8098 182.829L86.4098 178.689C86.4098 178.689 86.4498 178.679 86.4598 178.709L87.4098 184.379C87.4098 184.379 87.4098 184.449 87.3898 184.469L83.3298 189.289L83.2998 189.279Z" fill="#92B6DA"/>
</g>
<g opacity="0.5">
<path d="M76.2597 201.132C76.2597 201.132 76.2197 201.112 76.2397 201.092L79.8297 195.642C79.8297 195.642 79.8797 195.602 79.9097 195.602L86.0797 196.082C86.0797 196.082 86.1197 196.102 86.0997 196.122L82.6397 200.712C82.6397 200.712 82.5897 200.752 82.5597 200.752L76.2697 201.122L76.2597 201.132Z" fill="#92B6DA"/>
</g>
<g opacity="0.5">
<path d="M28.35 162.038C28.35 162.038 28.32 162.008 28.35 161.998L33.89 158.548C33.89 158.548 33.95 158.528 33.98 158.548L39.38 161.568C39.38 161.568 39.4 161.608 39.38 161.618L34.32 164.338C34.32 164.338 34.26 164.358 34.23 164.338L28.36 162.048L28.35 162.038Z" fill="#92B6DA"/>
</g>
<g opacity="0.5">
<path d="M20.72 170.306C20.72 170.306 20.68 170.326 20.68 170.296L19.2 163.936C19.2 163.936 19.1999 163.876 19.2299 163.856L23.83 159.716C23.83 159.716 23.87 159.706 23.88 159.736L24.83 165.406C24.83 165.406 24.83 165.476 24.81 165.496L20.75 170.316L20.72 170.306Z" fill="#92B6DA"/>
</g>
<g opacity="0.5">
<path d="M13.6899 182.159C13.6899 182.159 13.6499 182.139 13.6699 182.119L17.2599 176.669C17.2599 176.669 17.3099 176.629 17.3399 176.629L23.5099 177.109C23.5099 177.109 23.5499 177.129 23.5299 177.149L20.0699 181.739C20.0699 181.739 20.0199 181.779 19.9899 181.779L13.6999 182.149L13.6899 182.159Z" fill="#92B6DA"/>
</g>
<g opacity="0.5">
<path d="M36.7699 171.788C36.7699 171.788 36.7399 171.758 36.7699 171.748L42.3099 168.298C42.3099 168.298 42.3699 168.278 42.3999 168.298L47.7999 171.318C47.7999 171.318 47.8199 171.358 47.7999 171.368L42.7399 174.088C42.7399 174.088 42.6799 174.108 42.6499 174.088L36.7799 171.798L36.7699 171.788Z" fill="#92B6DA"/>
</g>
<g opacity="0.5">
<path d="M29.1399 180.056C29.1399 180.056 29.0999 180.076 29.0999 180.046L27.6199 173.686C27.6199 173.686 27.6199 173.626 27.6499 173.606L32.2499 169.466C32.2499 169.466 32.2899 169.456 32.2999 169.486L33.2499 175.156C33.2499 175.156 33.2499 175.226 33.2299 175.246L29.1699 180.066L29.1399 180.056Z" fill="#92B6DA"/>
</g>
<g opacity="0.5">
<path d="M22.0998 191.909C22.0998 191.909 22.0598 191.889 22.0798 191.869L25.6698 186.419C25.6698 186.419 25.7198 186.379 25.7498 186.379L31.9198 186.859C31.9198 186.859 31.9598 186.879 31.9398 186.899L28.4798 191.489C28.4798 191.489 28.4298 191.529 28.3998 191.529L22.1098 191.899L22.0998 191.909Z" fill="#92B6DA"/>
</g>
<g opacity="0.5">
<path d="M32.0898 151.85C32.0898 151.85 32.0498 151.83 32.0698 151.81L35.6598 146.36C35.6598 146.36 35.7098 146.32 35.7398 146.32L41.9098 146.8C41.9098 146.8 41.9498 146.82 41.9298 146.84L38.4698 151.43C38.4698 151.43 38.4198 151.47 38.3898 151.47L32.0998 151.84L32.0898 151.85Z" fill="#92B6DA"/>
</g>
<g opacity="0.5">
<path d="M55.1698 141.479C55.1698 141.479 55.1398 141.449 55.1698 141.439L60.7098 137.989C60.7098 137.989 60.7698 137.969 60.7998 137.989L66.1998 141.009C66.1998 141.009 66.2198 141.049 66.1998 141.059L61.1398 143.779C61.1398 143.779 61.0798 143.799 61.0498 143.779L55.1798 141.489L55.1698 141.479Z" fill="#92B6DA"/>
</g>
<g opacity="0.5">
<path d="M47.5398 149.748C47.5398 149.748 47.4998 149.768 47.4998 149.738L46.0198 143.378C46.0198 143.378 46.0198 143.318 46.0498 143.298L50.6498 139.158C50.6498 139.158 50.6898 139.148 50.6998 139.178L51.6498 144.848C51.6498 144.848 51.6498 144.918 51.6298 144.938L47.5698 149.758L47.5398 149.748Z" fill="#92B6DA"/>
</g>
<g opacity="0.5">
<path d="M40.4997 161.6C40.4997 161.6 40.4597 161.58 40.4797 161.56L44.0697 156.11C44.0697 156.11 44.1197 156.07 44.1497 156.07L50.3197 156.55C50.3197 156.55 50.3597 156.57 50.3397 156.59L46.8797 161.18C46.8797 161.18 46.8297 161.22 46.7997 161.22L40.5097 161.59L40.4997 161.6Z" fill="#92B6DA"/>
</g>
<g opacity="0.5">
<path d="M6.40982 191.749C6.40982 191.749 6.37982 191.719 6.40982 191.709L11.9498 188.259C11.9498 188.259 12.0098 188.239 12.0398 188.259L17.4398 191.279C17.4398 191.279 17.4598 191.319 17.4398 191.329L12.3798 194.049C12.3798 194.049 12.3198 194.069 12.2898 194.049L6.41982 191.759L6.40982 191.749Z" fill="#92B6DA"/>
</g>
<g opacity="0.5">
<path d="M14.82 201.499C14.82 201.499 14.79 201.469 14.82 201.459L20.36 198.009C20.36 198.009 20.42 197.989 20.45 198.009L25.85 201.029C25.85 201.029 25.87 201.069 25.85 201.079L20.79 203.799C20.79 203.799 20.73 203.819 20.7 203.799L14.83 201.509L14.82 201.499Z" fill="#92B6DA"/>
</g>
<g opacity="0.5">
<path d="M7.18992 209.767C7.18992 209.767 7.14993 209.787 7.14993 209.757L5.66992 203.397C5.66992 203.397 5.66992 203.337 5.69992 203.317L10.2999 199.177C10.2999 199.177 10.3399 199.167 10.3499 199.197L11.2999 204.867C11.2999 204.867 11.2999 204.937 11.2799 204.957L7.21992 209.777L7.18992 209.767Z" fill="#92B6DA"/>
</g>
<g opacity="0.5">
<path d="M0.159878 221.62C0.159878 221.62 0.119877 221.6 0.139877 221.58L3.72988 216.13C3.72988 216.13 3.77988 216.09 3.80988 216.09L9.97988 216.57C9.97988 216.57 10.0199 216.59 9.99988 216.61L6.53988 221.2C6.53988 221.2 6.48988 221.24 6.45988 221.24L0.169876 221.61L0.159878 221.62Z" fill="#92B6DA"/>
</g>
<g opacity="0.5">
<path d="M23.85 211.44C23.85 211.44 23.82 211.41 23.85 211.4L29.39 207.95C29.39 207.95 29.45 207.93 29.48 207.95L34.88 210.97C34.88 210.97 34.9 211.01 34.88 211.02L29.82 213.74C29.82 213.74 29.76 213.76 29.73 213.74L23.86 211.45L23.85 211.44Z" fill="#92B6DA"/>
</g>
<g opacity="0.5">
<path d="M16.2099 219.709C16.2099 219.709 16.1699 219.729 16.1699 219.699L14.6899 213.339C14.6899 213.339 14.6899 213.279 14.7199 213.259L19.3199 209.119C19.3199 209.119 19.3599 209.109 19.3699 209.139L20.3199 214.809C20.3199 214.809 20.3199 214.879 20.2999 214.899L16.2399 219.719L16.2099 219.709Z" fill="#92B6DA"/>
</g>
<g opacity="0.5">
<path d="M9.1799 231.561C9.1799 231.561 9.1399 231.541 9.1599 231.521L12.7499 226.071C12.7499 226.071 12.7999 226.031 12.8299 226.031L18.9999 226.511C18.9999 226.511 19.0399 226.531 19.0199 226.551L15.5599 231.141C15.5599 231.141 15.5099 231.181 15.4799 231.181L9.1899 231.551L9.1799 231.561Z" fill="#92B6DA"/>
</g>
<g opacity="0.5">
<path d="M32.2599 221.19C32.2599 221.19 32.2299 221.16 32.2599 221.15L37.7999 217.7C37.7999 217.7 37.8599 217.68 37.8899 217.7L43.2899 220.72C43.2899 220.72 43.3099 220.76 43.2899 220.77L38.2299 223.49C38.2299 223.49 38.1699 223.51 38.1399 223.49L32.2699 221.2L32.2599 221.19Z" fill="#92B6DA"/>
</g>
<g opacity="0.5">
<path d="M24.6299 229.459C24.6299 229.459 24.5899 229.479 24.5899 229.449L23.1099 223.089C23.1099 223.089 23.1099 223.029 23.1399 223.009L27.7399 218.869C27.7399 218.869 27.7799 218.859 27.7899 218.889L28.7399 224.559C28.7399 224.559 28.7399 224.629 28.7199 224.649L24.6599 229.469L24.6299 229.459Z" fill="#92B6DA"/>
</g>
<g opacity="0.5">
<path d="M17.5998 241.311C17.5998 241.311 17.5598 241.291 17.5798 241.271L21.1698 235.821C21.1698 235.821 21.2198 235.781 21.2498 235.781L27.4198 236.261C27.4198 236.261 27.4598 236.281 27.4398 236.301L23.9798 240.891C23.9798 240.891 23.9298 240.931 23.8998 240.931L17.6098 241.301L17.5998 241.311Z" fill="#92B6DA"/>
</g>
<g opacity="0.5">
<path d="M41.4001 230.968C41.4001 230.968 41.3701 230.938 41.4001 230.928L46.9401 227.478C46.9401 227.478 47 227.458 47.03 227.478L52.4301 230.498C52.4301 230.498 52.4501 230.538 52.4301 230.548L47.3701 233.268C47.3701 233.268 47.31 233.288 47.28 233.268L41.4101 230.978L41.4001 230.968Z" fill="#92B6DA"/>
</g>
<g opacity="0.5">
<path d="M33.77 239.236C33.77 239.236 33.73 239.256 33.73 239.226L32.25 232.866C32.25 232.866 32.25 232.806 32.28 232.786L36.88 228.646C36.88 228.646 36.92 228.636 36.93 228.666L37.88 234.336C37.88 234.336 37.88 234.406 37.86 234.426L33.8 239.246L33.77 239.236Z" fill="#92B6DA"/>
</g>
<g opacity="0.5">
<path d="M26.74 251.089C26.74 251.089 26.7 251.069 26.72 251.049L30.31 245.599C30.31 245.599 30.36 245.559 30.39 245.559L36.56 246.039C36.56 246.039 36.6 246.059 36.58 246.079L33.12 250.669C33.12 250.669 33.07 250.709 33.04 250.709L26.75 251.079L26.74 251.089Z" fill="#92B6DA"/>
</g>
<g opacity="0.5">
<path d="M49.82 240.718C49.82 240.718 49.79 240.688 49.82 240.678L55.36 237.228C55.36 237.228 55.42 237.208 55.45 237.228L60.85 240.248C60.85 240.248 60.87 240.288 60.85 240.298L55.79 243.018C55.79 243.018 55.73 243.038 55.7 243.018L49.83 240.728L49.82 240.718Z" fill="#92B6DA"/>
</g>
<g opacity="0.5">
<path d="M42.1899 248.986C42.1899 248.986 42.1499 249.006 42.1499 248.976L40.6699 242.616C40.6699 242.616 40.6699 242.556 40.6999 242.536L45.2999 238.396C45.2999 238.396 45.3399 238.386 45.3499 238.416L46.2999 244.086C46.2999 244.086 46.2999 244.156 46.2799 244.176L42.2199 248.996L42.1899 248.986Z" fill="#92B6DA"/>
</g>
<g opacity="0.5">
<path d="M130.3 76.4325C130.3 76.4325 130.27 76.4025 130.3 76.3925L135.84 72.9425C135.84 72.9425 135.9 72.9225 135.93 72.9425L141.33 75.9625C141.33 75.9625 141.35 76.0025 141.33 76.0125L136.27 78.7325C136.27 78.7325 136.21 78.7525 136.18 78.7325L130.31 76.4425L130.3 76.4325Z" fill="#92B6DA"/>
</g>
<g opacity="0.5">
<path d="M122.67 84.701C122.67 84.701 122.63 84.721 122.63 84.691L121.15 78.331C121.15 78.331 121.15 78.271 121.18 78.251L125.78 74.111C125.78 74.111 125.82 74.101 125.83 74.131L126.78 79.801C126.78 79.801 126.78 79.871 126.76 79.891L122.7 84.711L122.67 84.701Z" fill="#92B6DA"/>
</g>
<g opacity="0.5">
<path d="M115.63 96.5534C115.63 96.5534 115.59 96.5334 115.61 96.5134L119.2 91.0634C119.2 91.0634 119.25 91.0234 119.28 91.0234L125.45 91.5034C125.45 91.5034 125.49 91.5234 125.47 91.5434L122.01 96.1334C122.01 96.1334 121.96 96.1734 121.93 96.1734L115.64 96.5434L115.63 96.5534Z" fill="#92B6DA"/>
</g>
<g opacity="0.5">
<path d="M138.72 86.1825C138.72 86.1825 138.69 86.1525 138.72 86.1425L144.26 82.6925C144.26 82.6925 144.32 82.6725 144.35 82.6925L149.75 85.7125C149.75 85.7125 149.77 85.7525 149.75 85.7625L144.69 88.4825C144.69 88.4825 144.63 88.5025 144.6 88.4825L138.73 86.1925L138.72 86.1825Z" fill="#92B6DA"/>
</g>
<g opacity="0.5">
<path d="M131.09 94.451C131.09 94.451 131.05 94.471 131.05 94.441L129.57 88.081C129.57 88.081 129.57 88.021 129.6 88.001L134.2 83.861C134.2 83.861 134.24 83.851 134.25 83.881L135.2 89.551C135.2 89.551 135.2 89.621 135.18 89.641L131.12 94.461L131.09 94.451Z" fill="#92B6DA"/>
</g>
<g opacity="0.5">
<path d="M124.05 106.303C124.05 106.303 124.01 106.283 124.03 106.263L127.62 100.813C127.62 100.813 127.67 100.773 127.7 100.773L133.87 101.253C133.87 101.253 133.91 101.273 133.89 101.293L130.43 105.883C130.43 105.883 130.38 105.923 130.35 105.923L124.06 106.293L124.05 106.303Z" fill="#92B6DA"/>
</g>
<g opacity="0.5">
<path d="M129.88 124.401C129.88 124.401 129.85 124.371 129.88 124.361L135.42 120.911C135.42 120.911 135.48 120.891 135.51 120.911L140.91 123.931C140.91 123.931 140.93 123.971 140.91 123.981L135.85 126.701C135.85 126.701 135.79 126.721 135.76 126.701L129.89 124.411L129.88 124.401Z" fill="#92B6DA"/>
</g>
<g opacity="0.5">
<path d="M122.25 132.67C122.25 132.67 122.21 132.69 122.21 132.66L120.73 126.3C120.73 126.3 120.73 126.24 120.76 126.22L125.36 122.08C125.36 122.08 125.4 122.07 125.41 122.1L126.36 127.77C126.36 127.77 126.36 127.84 126.34 127.86L122.28 132.68L122.25 132.67Z" fill="#92B6DA"/>
</g>
<g opacity="0.5">
<path d="M115.22 144.522C115.22 144.522 115.18 144.502 115.2 144.482L118.79 139.032C118.79 139.032 118.84 138.992 118.87 138.992L125.04 139.472C125.04 139.472 125.08 139.492 125.06 139.512L121.6 144.102C121.6 144.102 121.55 144.142 121.52 144.142L115.23 144.512L115.22 144.522Z" fill="#92B6DA"/>
</g>
<g opacity="0.5">
<path d="M138.3 134.151C138.3 134.151 138.27 134.121 138.3 134.111L143.84 130.661C143.84 130.661 143.9 130.641 143.93 130.661L149.33 133.681C149.33 133.681 149.35 133.721 149.33 133.731L144.27 136.451C144.27 136.451 144.21 136.471 144.18 136.451L138.31 134.161L138.3 134.151Z" fill="#92B6DA"/>
</g>
<g opacity="0.5">
<path d="M130.67 142.42C130.67 142.42 130.63 142.44 130.63 142.41L129.15 136.05C129.15 136.05 129.15 135.99 129.18 135.97L133.78 131.83C133.78 131.83 133.82 131.82 133.83 131.85L134.78 137.52C134.78 137.52 134.78 137.59 134.76 137.61L130.7 142.43L130.67 142.42Z" fill="#92B6DA"/>
</g>
<g opacity="0.5">
<path d="M123.63 154.272C123.63 154.272 123.59 154.252 123.61 154.232L127.2 148.782C127.2 148.782 127.25 148.742 127.28 148.742L133.45 149.222C133.45 149.222 133.49 149.242 133.47 149.262L130.01 153.852C130.01 153.852 129.96 153.892 129.93 153.892L123.64 154.262L123.63 154.272Z" fill="#92B6DA"/>
</g>
<g opacity="0.5">
<path d="M112 104.64C112 104.64 111.97 104.609 112 104.599L117.54 101.15C117.54 101.15 117.6 101.13 117.63 101.15L123.03 104.17C123.03 104.17 123.05 104.21 123.03 104.22L117.97 106.94C117.97 106.94 117.91 106.96 117.88 106.94L112.01 104.65L112 104.64Z" fill="#92B6DA"/>
</g>
<g opacity="0.5">
<path d="M97.3398 124.76C97.3398 124.76 97.2998 124.74 97.3198 124.72L100.91 119.27C100.91 119.27 100.96 119.23 100.99 119.23L107.16 119.71C107.16 119.71 107.2 119.73 107.18 119.75L103.72 124.34C103.72 124.34 103.67 124.38 103.64 124.38L97.3498 124.75L97.3398 124.76Z" fill="#92B6DA"/>
</g>
<g opacity="0.5">
<path d="M120.42 114.39C120.42 114.39 120.39 114.359 120.42 114.349L125.96 110.9C125.96 110.9 126.02 110.88 126.05 110.9L131.45 113.92C131.45 113.92 131.47 113.96 131.45 113.97L126.39 116.69C126.39 116.69 126.33 116.71 126.3 116.69L120.43 114.4L120.42 114.39Z" fill="#92B6DA"/>
</g>
<g opacity="0.5">
<path d="M112.79 122.658C112.79 122.658 112.75 122.678 112.75 122.648L111.27 116.288C111.27 116.288 111.27 116.228 111.3 116.208L115.9 112.068C115.9 112.068 115.94 112.058 115.95 112.088L116.9 117.758C116.9 117.758 116.9 117.828 116.88 117.848L112.82 122.668L112.79 122.658Z" fill="#92B6DA"/>
</g>
<g opacity="0.5">
<path d="M105.75 134.51C105.75 134.51 105.71 134.49 105.73 134.47L109.32 129.02C109.32 129.02 109.37 128.98 109.4 128.98L115.57 129.46C115.57 129.46 115.61 129.48 115.59 129.5L112.13 134.09C112.13 134.09 112.08 134.13 112.05 134.13L105.76 134.5L105.75 134.51Z" fill="#92B6DA"/>
</g>
<g opacity="0.5">
<path d="M142.51 103.221C142.51 103.221 142.47 103.241 142.47 103.211L140.99 96.8505C140.99 96.8505 140.99 96.7905 141.02 96.7705L145.62 92.6305C145.62 92.6305 145.66 92.6205 145.67 92.6505L146.62 98.3205C146.62 98.3205 146.62 98.3905 146.6 98.4105L142.54 103.231L142.51 103.221Z" fill="#92B6DA"/>
</g>
<g opacity="0.5">
<path d="M135.48 115.069C135.48 115.069 135.44 115.049 135.46 115.029L139.05 109.579C139.05 109.579 139.1 109.539 139.13 109.539L145.3 110.019C145.3 110.019 145.34 110.039 145.32 110.059L141.86 114.649C141.86 114.649 141.81 114.689 141.78 114.689L135.49 115.059L135.48 115.069Z" fill="#92B6DA"/>
</g>
<g opacity="0.5">
<path d="M150.93 112.971C150.93 112.971 150.89 112.991 150.89 112.961L149.41 106.601C149.41 106.601 149.41 106.541 149.44 106.521L154.04 102.38C154.04 102.38 154.08 102.371 154.09 102.401L155.04 108.071C155.04 108.071 155.04 108.141 155.02 108.161L150.96 112.981L150.93 112.971Z" fill="#92B6DA"/>
</g>
<g opacity="0.5">
<path d="M143.89 124.819C143.89 124.819 143.85 124.799 143.87 124.779L147.46 119.329C147.46 119.329 147.51 119.289 147.54 119.289L153.71 119.769C153.71 119.769 153.75 119.789 153.73 119.809L150.27 124.399C150.27 124.399 150.22 124.439 150.19 124.439L143.9 124.809L143.89 124.819Z" fill="#92B6DA"/>
</g>
<g opacity="0.5">
<path d="M114.38 55.4208C114.38 55.4208 114.35 55.3908 114.38 55.3808L119.92 51.9308C119.92 51.9308 119.98 51.9108 120.01 51.9308L125.41 54.9508C125.41 54.9508 125.43 54.9908 125.41 55.0008L120.35 57.7208C120.35 57.7208 120.29 57.7408 120.26 57.7208L114.39 55.4308L114.38 55.4208Z" fill="#92B6DA"/>
</g>
<g opacity="0.5">
<path d="M122.8 65.1708C122.8 65.1708 122.77 65.1408 122.8 65.1308L128.34 61.6808C128.34 61.6808 128.4 61.6608 128.43 61.6808L133.83 64.7008C133.83 64.7008 133.85 64.7408 133.83 64.7508L128.77 67.4708C128.77 67.4708 128.71 67.4908 128.68 67.4708L122.81 65.1808L122.8 65.1708Z" fill="#92B6DA"/>
</g>
<g opacity="0.5">
<path d="M115.17 73.4393C115.17 73.4393 115.13 73.4593 115.13 73.4293L113.65 67.0693C113.65 67.0693 113.65 67.0093 113.68 66.9893L118.28 62.8493C118.28 62.8493 118.32 62.8393 118.33 62.8693L119.28 68.5393C119.28 68.5393 119.28 68.6093 119.26 68.6293L115.2 73.4492L115.17 73.4393Z" fill="#92B6DA"/>
</g>
<g opacity="0.5">
<path d="M108.13 85.2917C108.13 85.2917 108.09 85.2717 108.11 85.2517L111.7 79.8017C111.7 79.8017 111.75 79.7617 111.78 79.7617L117.95 80.2417C117.95 80.2417 117.99 80.2617 117.97 80.2817L114.51 84.8717C114.51 84.8717 114.46 84.9117 114.43 84.9117L108.14 85.2817L108.13 85.2917Z" fill="#92B6DA"/>
</g>
<g opacity="0.5">
<path d="M59.3698 135.561C59.3698 135.561 59.3298 135.541 59.3498 135.521L62.9398 130.071C62.9398 130.071 62.9898 130.031 63.0198 130.031L69.1898 130.511C69.1898 130.511 69.2298 130.531 69.2098 130.551L65.7498 135.141C65.7498 135.141 65.6998 135.181 65.6698 135.181L59.3798 135.551L59.3698 135.561Z" fill="#92B6DA"/>
</g>
<g opacity="0.5">
<path d="M82.4499 125.19C82.4499 125.19 82.4199 125.16 82.4499 125.15L87.9899 121.7C87.9899 121.7 88.0499 121.68 88.0799 121.7L93.4799 124.72C93.4799 124.72 93.4999 124.76 93.4799 124.77L88.4199 127.49C88.4199 127.49 88.3599 127.51 88.3299 127.49L82.4599 125.2L82.4499 125.19Z" fill="#92B6DA"/>
</g>
<g opacity="0.5">
<path d="M74.8198 133.459C74.8198 133.459 74.7798 133.479 74.7798 133.449L73.2998 127.089C73.2998 127.089 73.2998 127.029 73.3298 127.009L77.9298 122.869C77.9298 122.869 77.9698 122.859 77.9798 122.889L78.9298 128.559C78.9298 128.559 78.9298 128.629 78.9098 128.649L74.8498 133.469L74.8198 133.459Z" fill="#92B6DA"/>
</g>
<g opacity="0.5">
<path d="M67.7898 145.311C67.7898 145.311 67.7498 145.291 67.7698 145.271L71.3598 139.821C71.3598 139.821 71.4098 139.781 71.4398 139.781L77.6098 140.261C77.6098 140.261 77.6498 140.281 77.6298 140.301L74.1698 144.891C74.1698 144.891 74.1198 144.931 74.0898 144.931L67.7998 145.301L67.7898 145.311Z" fill="#92B6DA"/>
</g>
<g opacity="0.5">
<path d="M91.4699 135.14C91.4699 135.14 91.4399 135.109 91.4699 135.099L97.0099 131.65C97.0099 131.65 97.0699 131.63 97.0999 131.65L102.5 134.67C102.5 134.67 102.52 134.71 102.5 134.72L97.4399 137.44C97.4399 137.44 97.3799 137.46 97.3499 137.44L91.4799 135.15L91.4699 135.14Z" fill="#92B6DA"/>
</g>
<g opacity="0.5">
<path d="M83.8398 143.4C83.8398 143.4 83.7998 143.42 83.7998 143.39L82.3198 137.03C82.3198 137.03 82.3198 136.97 82.3498 136.95L86.9498 132.81C86.9498 132.81 86.9898 132.8 86.9998 132.83L87.9498 138.5C87.9498 138.5 87.9498 138.57 87.9298 138.59L83.8698 143.41L83.8398 143.4Z" fill="#92B6DA"/>
</g>
<g opacity="0.5">
<path d="M76.8098 155.26C76.8098 155.26 76.7698 155.24 76.7898 155.22L80.3798 149.77C80.3798 149.77 80.4298 149.73 80.4598 149.73L86.6298 150.21C86.6298 150.21 86.6698 150.23 86.6498 150.25L83.1898 154.84C83.1898 154.84 83.1398 154.88 83.1098 154.88L76.8198 155.25L76.8098 155.26Z" fill="#92B6DA"/>
</g>
<g opacity="0.5">
<path d="M99.8898 144.89C99.8898 144.89 99.8598 144.859 99.8898 144.849L105.43 141.4C105.43 141.4 105.49 141.38 105.52 141.4L110.92 144.42C110.92 144.42 110.94 144.46 110.92 144.47L105.86 147.19C105.86 147.19 105.8 147.21 105.77 147.19L99.8998 144.9L99.8898 144.89Z" fill="#92B6DA"/>
</g>
<g opacity="0.5">
<path d="M92.2597 153.15C92.2597 153.15 92.2197 153.17 92.2197 153.14L90.7397 146.78C90.7397 146.78 90.7397 146.72 90.7697 146.7L95.3697 142.56C95.3697 142.56 95.4097 142.55 95.4197 142.58L96.3697 148.25C96.3697 148.25 96.3697 148.32 96.3497 148.34L92.2897 153.16L92.2597 153.15Z" fill="#92B6DA"/>
</g>
<g opacity="0.5">
<path d="M85.2197 165.01C85.2197 165.01 85.1797 164.99 85.1997 164.97L88.7897 159.52C88.7897 159.52 88.8397 159.48 88.8697 159.48L95.0397 159.96C95.0397 159.96 95.0797 159.98 95.0597 160L91.5997 164.59C91.5997 164.59 91.5497 164.63 91.5197 164.63L85.2297 165L85.2197 165.01Z" fill="#92B6DA"/>
</g>
<g opacity="0.5">
<path d="M109.03 154.671C109.03 154.671 109 154.641 109.03 154.631L114.57 151.181C114.57 151.181 114.63 151.161 114.66 151.181L120.06 154.201C120.06 154.201 120.08 154.241 120.06 154.251L115 156.971C115 156.971 114.94 156.991 114.91 156.971L109.04 154.681L109.03 154.671Z" fill="#92B6DA"/>
</g>
<g opacity="0.5">
<path d="M101.4 162.931C101.4 162.931 101.36 162.951 101.36 162.921L99.8799 156.561C99.8799 156.561 99.8799 156.501 99.9099 156.481L104.51 152.341C104.51 152.341 104.55 152.331 104.56 152.361L105.51 158.031C105.51 158.031 105.51 158.101 105.49 158.121L101.43 162.941L101.4 162.931Z" fill="#92B6DA"/>
</g>
<g opacity="0.5">
<path d="M94.3598 174.792C94.3598 174.792 94.3198 174.772 94.3398 174.752L97.9298 169.302C97.9298 169.302 97.9798 169.262 98.0098 169.262L104.18 169.742C104.18 169.742 104.22 169.762 104.2 169.782L100.74 174.372C100.74 174.372 100.69 174.412 100.66 174.412L94.3698 174.782L94.3598 174.792Z" fill="#92B6DA"/>
</g>
<g opacity="0.5">
<path d="M117.45 164.409C117.45 164.409 117.42 164.379 117.45 164.369L122.99 160.919C122.99 160.919 123.05 160.899 123.08 160.919L128.48 163.939C128.48 163.939 128.5 163.979 128.48 163.989L123.42 166.709C123.42 166.709 123.36 166.729 123.33 166.709L117.46 164.419L117.45 164.409Z" fill="#92B6DA"/>
</g>
<g opacity="0.5">
<path d="M109.82 172.681C109.82 172.681 109.78 172.701 109.78 172.671L108.3 166.311C108.3 166.311 108.3 166.251 108.33 166.231L112.93 162.091C112.93 162.091 112.97 162.081 112.98 162.111L113.93 167.781C113.93 167.781 113.93 167.851 113.91 167.871L109.85 172.691L109.82 172.681Z" fill="#92B6DA"/>
</g>
<g opacity="0.5">
<path d="M102.78 184.53C102.78 184.53 102.74 184.51 102.76 184.49L106.35 179.04C106.35 179.04 106.4 179 106.43 179L112.6 179.48C112.6 179.48 112.64 179.5 112.62 179.52L109.16 184.11C109.16 184.11 109.11 184.15 109.08 184.15L102.79 184.52L102.78 184.53Z" fill="#92B6DA"/>
</g>
</g>
<mask id="mask0_262_13629" style="mask-type:alpha" maskUnits="userSpaceOnUse" x="0" y="152" width="321" height="194">
<path d="M320.5 345.27H208.574L186.632 320.354L185.84 319.455L185.758 320.65L184.069 345.27H129.182L121.883 336.981L121.092 336.084L121.009 337.277L120.451 345.27H104.899L100.862 335.689L100.596 335.056L100.075 335.505L88.7734 345.27H74.1533L60.083 311.951L59.124 312.111L56.8574 345.27H42.8643L16.2314 329.779L15.5352 329.374L15.4805 330.177L14.4531 345.27H0.5V160.961C15.2503 165.568 33.6378 169.459 54.668 172.398C57.2282 172.781 59.8221 173.124 62.4717 173.447L75.5391 186.39L76.3906 187.233V175.018C79.589 175.358 82.8481 175.663 86.1484 175.941L117.847 207.343L118.698 208.187V177.953C128.927 178.38 139.456 178.58 150.182 178.58H152.825L160.021 207.1L161.006 206.978V178.501C165.15 178.458 169.26 178.369 173.314 178.23L173.313 178.229C176.13 178.158 178.911 178.066 181.68 177.953L181.679 177.952C187.116 177.741 192.485 177.469 197.762 177.129L202.367 186.249L202.677 186.862L203.165 186.379L213.662 175.982C218.609 175.555 223.444 175.079 228.188 174.564L244.675 207.213L245.621 206.987V172.42C249.067 171.94 252.448 171.426 255.763 170.901L287.206 186.482L287.929 186.84V164.348C293.252 162.985 298.202 161.555 302.779 160.04L308.23 165.436L308.558 165.104L308.895 165.471L308.907 165.461L309.32 165.107L309.291 165.079L320.5 153.969V345.27Z" fill="#C59B6D" stroke="#C59B6D"/>
</mask>
<g mask="url(#mask0_262_13629)">
<path d="M159.55 4.53906C188.532 4.53906 206.246 7.16277 216.699 11.251C221.92 13.2927 225.295 15.687 227.364 18.2695C229.427 20.8428 230.22 23.6363 230.22 26.5391C230.22 29.0797 228.715 31.3889 226.273 33.5361C223.837 35.6788 220.546 37.5921 217.142 39.3428C215.443 40.2166 213.723 41.0463 212.077 41.8418C210.434 42.6358 208.86 43.3977 207.462 44.1318C206.065 44.865 204.826 45.5788 203.857 46.2812C202.902 46.9739 202.146 47.6987 201.795 48.4717C201.315 49.5272 201.07 50.6684 201.07 51.8291V113.559C201.07 117.585 204.01 121.016 207.994 121.623H207.995C217.726 123.099 236.987 127.095 255.946 137.194C274.901 147.291 293.522 163.47 302.055 189.306C312.401 220.648 311.832 256.347 307.914 286.741C303.997 317.127 296.739 342.164 293.741 352.165C285.348 380.165 270.929 423.453 258.251 464.662C251.916 485.255 246.02 505.316 241.54 522.655C237.063 539.985 233.992 554.629 233.321 564.374C233.108 567.44 234.62 570.368 237.25 571.966C237.511 572.126 237.762 572.277 238.01 572.426V572.427C255.604 583.121 253.284 609.323 234.108 616.813C217.902 623.139 195.075 628.289 163.7 628.289C122.814 628.289 96.8465 621.521 81.1211 613.264C65.3689 604.992 59.9795 595.285 59.9795 589.429C59.9796 585.957 61.3889 582.951 63.6553 580.195C65.9281 577.432 69.0435 574.946 72.4121 572.525V572.524C80.8698 566.435 85.6519 556.429 84.8584 546.031C81.0015 495.421 55.8597 428.333 39.1709 388.476C21.6945 346.722 11.9888 302.074 11.21 256.83C10.8804 237.935 12.0591 218.304 15.8594 199.921C21.8154 171.154 41.3309 152.488 62.0049 140.502C82.6819 128.515 104.47 123.24 114.854 121.25H114.855C118.699 120.505 121.479 117.15 121.479 113.229V50.2988C121.479 46.3949 119.073 42.8971 115.616 39.7588C112.584 37.0054 108.676 34.4676 104.677 32.1133L102.959 31.1152C95.2799 26.7029 96.2914 15.3803 104.45 12.3076L104.457 12.3203L104.868 12.1836C116.834 8.20179 134.6 4.53908 159.55 4.53906Z" fill="#C59B6D" stroke="#C59B6D"/>
<path d="M104.7 11.6891C95.7599 14.6691 94.5299 26.8491 102.71 31.5491C111.87 36.8091 120.98 42.9191 120.98 50.2991V113.229C120.98 116.909 118.37 120.059 114.76 120.759C93.9399 124.749 27.3599 141.909 15.3699 199.819C11.5599 218.249 10.3799 237.919 10.7099 256.839C11.4899 302.149 21.2099 346.859 38.7099 388.669C55.3999 428.529 80.5099 495.549 84.3599 546.069C85.1399 556.289 80.4399 566.129 72.1199 572.119C65.3699 576.969 59.4799 582.189 59.4799 589.429C59.4799 601.689 81.8299 628.789 163.7 628.789C195.13 628.789 218.02 623.629 234.29 617.279C253.85 609.639 256.22 582.909 238.27 571.999C238.02 571.849 237.77 571.699 237.51 571.539C235.04 570.039 233.62 567.289 233.82 564.409C236.49 525.629 277.44 408.289 294.22 352.309C300.22 332.289 323.29 252.039 302.53 189.149C285.36 137.159 227.59 124.089 208.07 121.129C204.33 120.559 201.57 117.339 201.57 113.559V51.8291C201.57 50.7391 201.8 49.6691 202.25 48.6791C204.61 43.4791 230.72 37.5491 230.72 26.5391C230.72 14.5291 217.54 4.03906 159.55 4.03906C134.55 4.03906 116.73 7.70906 104.71 11.7091L104.7 11.6891Z" stroke="#C59B6D" stroke-width="9" stroke-miterlimit="10"/>
</g>
<g clip-path="url(#clip0_262_13629)">
<path d="M151.153 302.972C151.856 293.497 142.475 286.492 133.568 289.84L116.959 296.084C109.025 299.071 101.346 295.321 98.0758 287.717C95.189 281.004 98.165 270.884 106.366 268.833L121.771 264.972C132.498 262.283 136.795 249.381 129.816 240.815L119.514 228.172C116.179 224.077 117.215 217.456 119.092 214.042C122.023 208.733 126.746 205.575 132.718 205.796C137.921 205.994 142.785 209.509 145.436 213.834L152.063 224.636C157.893 234.139 171.676 234.271 177.689 224.883L184.157 214.783C189.248 206.829 198.842 203.98 206.21 209.188C213.516 214.35 214.775 224.544 208.556 231.708L200.376 241.131C193.073 249.543 197.097 262.683 207.863 265.581L222.641 269.561C229.777 271.48 232.836 279.192 232.067 285.699C231.997 286.294 231.875 286.884 231.704 287.459C229.978 293.27 225.401 296.809 219.478 297.858C216.797 298.333 214.034 297.925 211.517 296.886C208.674 295.714 204.188 293.863 199.376 291.879C189.032 287.612 177.789 295.657 178.518 306.806L179.228 317.657C179.8 326.341 176.155 333.536 167.768 335.437C162.871 336.543 158.076 335.238 154.606 332.199C151.179 329.197 149.546 324.641 149.883 320.102C150.164 316.31 150.659 309.641 151.153 302.972Z" fill="#603813"/>
</g>
<rect x="89.0999" y="345.676" width="15.4172" height="0.203125" fill="#DCD6CB"/>
<rect x="89.3062" y="345.547" width="15.168" height="0.273438" fill="#DCD6CB"/>
<line x1="104.176" y1="345.712" x2="104.494" y2="345.577" stroke="#DCD6CB"/>
<line x1="89.0786" y1="346.087" x2="88.8867" y2="345.8" stroke="#DCD6CB"/>
<defs>
<clipPath id="clip0_262_13629">
<rect width="135" height="134.094" fill="white" transform="translate(97 203.758)"/>
</clipPath>
</defs>
</svg>
