<svg width="321" height="634" viewBox="0 0 321 634" fill="none" xmlns="http://www.w3.org/2000/svg">
<path d="M104.261 12.15C95.3447 15.13 94.1179 27.31 102.276 32.01C111.412 37.27 120.498 43.38 120.498 50.76V113.69C120.498 117.37 117.895 120.52 114.295 121.22C93.5294 125.21 27.1244 142.37 15.1659 200.28C11.3659 218.71 10.189 238.38 10.5181 257.3C11.2961 302.61 20.9906 347.32 38.4446 389.13C55.0907 428.99 80.1347 496.01 83.9746 546.53C84.7526 556.75 80.0649 566.59 71.7668 572.58C65.0345 577.43 59.16 582.65 59.16 589.89C59.16 602.15 81.4513 629.25 163.106 629.25C194.454 629.25 217.283 624.09 233.511 617.74C253.019 610.1 255.383 583.37 237.48 572.46C237.231 572.31 236.981 572.16 236.722 572C234.259 570.5 232.842 567.75 233.042 564.87C235.705 526.09 276.547 408.75 293.283 352.77C299.267 332.75 322.277 252.5 301.571 189.61C284.446 137.62 226.828 124.55 207.36 121.59C203.629 121.02 200.877 117.8 200.877 114.02V52.29C200.877 51.2 201.106 50.13 201.555 49.14C203.909 43.94 229.95 38.01 229.95 27C229.95 14.99 216.805 4.5 158.967 4.5C134.033 4.5 116.26 8.17 104.271 12.17L104.261 12.15Z" fill="#DCD6CB"/>
<path d="M104.261 12.15C95.3447 15.13 94.1179 27.31 102.276 32.01C111.412 37.27 120.498 43.38 120.498 50.76V113.69C120.498 117.37 117.895 120.52 114.295 121.22C93.5294 125.21 27.1244 142.37 15.1659 200.28C11.3659 218.71 10.189 238.38 10.5181 257.3C11.2961 302.61 20.9906 347.32 38.4446 389.13C55.0907 428.99 80.1347 496.01 83.9746 546.53C84.7526 556.75 80.0649 566.59 71.7668 572.58C65.0345 577.43 59.16 582.65 59.16 589.89C59.16 602.15 81.4513 629.25 163.106 629.25C194.454 629.25 217.283 624.09 233.511 617.74C253.019 610.1 255.383 583.37 237.48 572.46C237.231 572.31 236.981 572.16 236.722 572C234.259 570.5 232.842 567.75 233.042 564.87C235.705 526.09 276.547 408.75 293.283 352.77C299.267 332.75 322.277 252.5 301.571 189.61C284.446 137.62 226.828 124.55 207.36 121.59C203.629 121.02 200.877 117.8 200.877 114.02V52.29C200.877 51.2 201.106 50.13 201.555 49.14C203.909 43.94 229.95 38.01 229.95 27C229.95 14.99 216.805 4.5 158.967 4.5C134.033 4.5 116.26 8.17 104.271 12.17L104.261 12.15Z" stroke="#DCD6CB" stroke-width="9" stroke-miterlimit="10"/>
<path d="M74.988 561.691C114.314 575.341 156.932 582.831 198.183 575.001C211.837 572.421 225.063 567.811 237.759 561.691C220.245 573.721 199.121 580.461 177.967 582.411C143.029 585.511 106.096 577.801 74.988 561.691Z" fill="#E2E3E2"/>
<path d="M256.001 152.211C277.963 160.641 289.992 187.931 294.221 209.661C298.819 232.931 298.001 257.131 293.762 280.361C294.041 251.311 293.971 221.781 284.995 193.921C279.609 177.831 270.962 161.161 256.001 152.211Z" fill="#E7E2D5"/>
<path d="M65.4532 151.401C59.1099 154.961 54.0732 160.421 49.7346 166.171C43.8202 174.311 39.5714 183.561 36.4496 193.111C27.4733 220.971 27.4035 250.501 27.6827 279.551C23.2045 254.871 22.4864 229.041 28.1814 204.471C32.9289 184.051 44.7578 159.321 65.4433 151.391L65.4532 151.401Z" fill="#E7E2D5"/>
<path d="M125.445 52.8889C136.397 69.4689 135.449 95.2689 126.662 112.629C126.852 108.749 127.35 105.049 127.62 101.219C129.066 85.0589 128.787 68.8589 125.445 52.8789V52.8889Z" fill="#E7E2D5"/>
<path d="M196.319 53.3984C192.977 69.3684 192.698 85.5784 194.144 101.738C194.414 105.558 194.912 109.258 195.102 113.148C186.315 95.7884 185.367 69.9984 196.319 53.4084V53.3984Z" fill="#E7E2D5"/>
<path d="M32.7195 380.849C32.7195 380.849 161.041 370.249 279.878 380.269C264.898 400.289 256.41 405.299 256.41 405.299L32.7195 380.849Z" fill="#9AB4A5"/>
<path d="M31.3032 382.001C31.3032 382.001 94.9655 361.651 151.886 382.001C208.806 402.351 279.958 380.842 279.958 380.842C279.958 380.842 226.03 508.192 226.03 552.962C170.606 574.482 97.2096 555.292 97.2096 555.292C97.2096 555.292 100.95 490.741 31.3032 382.011V382.001Z" fill="#1F8087"/>
<g opacity="0.5">
<g opacity="0.5">
<path d="M63.4384 152.989C63.4384 152.989 63.4085 152.959 63.4384 152.949L69.0137 149.579C69.0137 149.579 69.0736 149.569 69.1035 149.579L74.4394 152.679C74.4394 152.679 74.4594 152.719 74.4394 152.729L69.3528 155.369C69.3528 155.369 69.283 155.379 69.2631 155.369L63.4484 152.989H63.4384Z" fill="#92B6DA"/>
</g>
<g opacity="0.5">
<path d="M55.7089 161.128C55.7089 161.128 55.669 161.148 55.669 161.118L54.2927 154.738C54.2927 154.738 54.2927 154.678 54.3226 154.658L58.9703 150.588C58.9703 150.588 59.0102 150.578 59.0202 150.608L59.878 156.288C59.878 156.288 59.878 156.358 59.848 156.378L55.7189 161.128H55.7089Z" fill="#92B6DA"/>
</g>
<g opacity="0.5">
<path d="M48.5078 172.868C48.5078 172.868 48.4679 172.848 48.4879 172.828L52.1582 167.438C52.1582 167.438 52.2081 167.398 52.238 167.398L58.3818 167.978C58.3818 167.978 58.4217 167.998 58.4018 168.018L54.881 172.548C54.881 172.548 54.8312 172.588 54.8013 172.588L48.5178 172.858L48.5078 172.868Z" fill="#92B6DA"/>
</g>
<g opacity="0.5">
<path d="M71.6867 162.86C71.6867 162.86 71.6568 162.83 71.6867 162.82L77.262 159.45C77.262 159.45 77.3219 159.44 77.3518 159.45L82.6877 162.55C82.6877 162.55 82.7077 162.59 82.6877 162.6L77.6011 165.24C77.6011 165.24 77.5313 165.25 77.5113 165.24L71.6967 162.86H71.6867Z" fill="#92B6DA"/>
</g>
<g opacity="0.5">
<path d="M63.9473 171.01C63.9473 171.01 63.9074 171.03 63.9074 171L62.531 164.62C62.531 164.62 62.531 164.56 62.5609 164.54L67.2087 160.47C67.2087 160.47 67.2486 160.46 67.2585 160.49L68.1163 166.17C68.1163 166.17 68.1163 166.24 68.0864 166.26L63.9572 171.01H63.9473Z" fill="#92B6DA"/>
</g>
<g opacity="0.5">
<path d="M56.7462 182.747C56.7462 182.747 56.7063 182.727 56.7262 182.707L60.3966 177.317C60.3966 177.317 60.4464 177.277 60.4763 177.277L66.6202 177.857C66.6202 177.857 66.6601 177.877 66.6401 177.897L63.1194 182.427C63.1194 182.427 63.0695 182.467 63.0396 182.467L56.7561 182.737L56.7462 182.747Z" fill="#92B6DA"/>
</g>
<g opacity="0.5">
<path d="M62.2815 200.95C62.2815 200.95 62.2516 200.92 62.2815 200.91L67.8568 197.54C67.8568 197.54 67.9166 197.53 67.9466 197.54L73.2825 200.64C73.2825 200.64 73.3024 200.68 73.2825 200.69L68.1959 203.33C68.1959 203.33 68.1261 203.34 68.1061 203.33L62.2915 200.95H62.2815Z" fill="#92B6DA"/>
</g>
<g opacity="0.5">
<path d="M54.5421 209.1C54.5421 209.1 54.5022 209.12 54.5022 209.09L53.1258 202.71C53.1258 202.71 53.1258 202.65 53.1557 202.63L57.8035 198.56C57.8035 198.56 57.8434 198.55 57.8533 198.58L58.7111 204.26C58.7111 204.26 58.7111 204.33 58.6812 204.35L54.552 209.1H54.5421Z" fill="#92B6DA"/>
</g>
<g opacity="0.5">
<path d="M47.341 220.841C47.341 220.841 47.3011 220.821 47.321 220.801L50.9913 215.411C50.9913 215.411 51.0412 215.371 51.0711 215.371L57.2149 215.951C57.2149 215.951 57.2548 215.971 57.2349 215.991L53.7142 220.521C53.7142 220.521 53.6643 220.561 53.6344 220.561L47.3509 220.831L47.341 220.841Z" fill="#92B6DA"/>
</g>
<g opacity="0.5">
<path d="M70.5198 210.829C70.5198 210.829 70.4899 210.799 70.5198 210.789L76.0951 207.419C76.0951 207.419 76.155 207.409 76.1849 207.419L81.5208 210.519C81.5208 210.519 81.5408 210.559 81.5208 210.569L76.4342 213.209C76.4342 213.209 76.3644 213.219 76.3445 213.209L70.5298 210.829H70.5198Z" fill="#92B6DA"/>
</g>
<g opacity="0.5">
<path d="M62.7803 218.979C62.7803 218.979 62.7404 218.999 62.7404 218.969L61.3641 212.589C61.3641 212.589 61.3641 212.529 61.394 212.509L66.0417 208.439C66.0417 208.439 66.0816 208.429 66.0916 208.459L66.9494 214.139C66.9494 214.139 66.9494 214.209 66.9194 214.229L62.7903 218.979H62.7803Z" fill="#92B6DA"/>
</g>
<g opacity="0.5">
<path d="M55.5792 230.72C55.5792 230.72 55.5393 230.7 55.5593 230.68L59.2296 225.29C59.2296 225.29 59.2795 225.25 59.3094 225.25L65.4532 225.83C65.4532 225.83 65.4931 225.85 65.4732 225.87L61.9525 230.4C61.9525 230.4 61.9026 230.44 61.8727 230.44L55.5892 230.71L55.5792 230.72Z" fill="#92B6DA"/>
</g>
<g opacity="0.5">
<path d="M44.7576 180.911C44.7576 180.911 44.7277 180.881 44.7576 180.871L50.3329 177.501C50.3329 177.501 50.3928 177.491 50.4227 177.501L55.7586 180.601C55.7586 180.601 55.7786 180.641 55.7586 180.651L50.672 183.291C50.672 183.291 50.6022 183.301 50.5823 183.291L44.7676 180.911H44.7576Z" fill="#92B6DA"/>
</g>
<g opacity="0.5">
<path d="M37.0182 189.049C37.0182 189.049 36.9783 189.069 36.9783 189.039L35.6019 182.659C35.6019 182.659 35.6019 182.599 35.6318 182.579L40.2796 178.509C40.2796 178.509 40.3195 178.499 40.3295 178.529L41.1872 184.209C41.1872 184.209 41.1872 184.279 41.1573 184.299L37.0282 189.049H37.0182Z" fill="#92B6DA"/>
</g>
<g opacity="0.5">
<path d="M29.8172 200.79C29.8172 200.79 29.7773 200.77 29.7972 200.75L33.4675 195.36C33.4675 195.36 33.5174 195.32 33.5473 195.32L39.6911 195.9C39.6911 195.9 39.731 195.92 39.7111 195.94L36.1904 200.47C36.1904 200.47 36.1405 200.51 36.1106 200.51L29.8271 200.78L29.8172 200.79Z" fill="#92B6DA"/>
</g>
<g opacity="0.5">
<path d="M52.9959 190.789C52.9959 190.789 52.966 190.759 52.9959 190.749L58.5712 187.379C58.5712 187.379 58.6311 187.369 58.661 187.379L63.9969 190.479C63.9969 190.479 64.0169 190.519 63.9969 190.529L58.9103 193.169C58.9103 193.169 58.8405 193.179 58.8206 193.169L53.0059 190.789H52.9959Z" fill="#92B6DA"/>
</g>
<g opacity="0.5">
<path d="M45.2565 198.932C45.2565 198.932 45.2166 198.952 45.2166 198.922L43.8402 192.542C43.8402 192.542 43.8402 192.482 43.8701 192.462L48.5179 188.392C48.5179 188.392 48.5578 188.382 48.5678 188.412L49.4255 194.092C49.4255 194.092 49.4255 194.162 49.3956 194.182L45.2665 198.932H45.2565Z" fill="#92B6DA"/>
</g>
<g opacity="0.5">
<path d="M38.0553 210.669C38.0553 210.669 38.0154 210.649 38.0354 210.629L41.7057 205.239C41.7057 205.239 41.7556 205.199 41.7855 205.199L47.9293 205.779C47.9293 205.779 47.9692 205.799 47.9493 205.819L44.4285 210.349C44.4285 210.349 44.3787 210.389 44.3487 210.389L38.0653 210.659L38.0553 210.669Z" fill="#92B6DA"/>
</g>
<g opacity="0.5">
<path d="M82.9371 171.821C82.9371 171.821 82.9071 171.791 82.9371 171.781L88.5124 168.411C88.5124 168.411 88.5722 168.401 88.6021 168.411L93.9381 171.511C93.9381 171.511 93.958 171.551 93.9381 171.561L88.8515 174.201C88.8515 174.201 88.7817 174.211 88.7617 174.201L82.947 171.821H82.9371Z" fill="#92B6DA"/>
</g>
<g opacity="0.5">
<path d="M75.1976 179.971C75.1976 179.971 75.1577 179.991 75.1577 179.961L73.7813 173.581C73.7813 173.581 73.7813 173.521 73.8112 173.501L78.459 169.431C78.459 169.431 78.4989 169.421 78.5088 169.451L79.3666 175.131C79.3666 175.131 79.3666 175.201 79.3367 175.221L75.2075 179.971H75.1976Z" fill="#92B6DA"/>
</g>
<g opacity="0.5">
<path d="M68.0065 191.712C68.0065 191.712 67.9666 191.692 67.9865 191.672L71.6569 186.282C71.6569 186.282 71.7067 186.242 71.7367 186.242L77.8805 186.822C77.8805 186.822 77.9204 186.842 77.9004 186.862L74.3797 191.392C74.3797 191.392 74.3298 191.432 74.2999 191.432L68.0165 191.702L68.0065 191.712Z" fill="#92B6DA"/>
</g>
<g opacity="0.5">
<path d="M91.1854 181.7C91.1854 181.7 91.1554 181.67 91.1854 181.66L96.7607 178.29C96.7607 178.29 96.8205 178.28 96.8504 178.29L102.186 181.39C102.186 181.39 102.206 181.43 102.186 181.44L97.0998 184.08C97.0998 184.08 97.03 184.09 97.01 184.08L91.1953 181.7H91.1854Z" fill="#92B6DA"/>
</g>
<g opacity="0.5">
<path d="M83.4459 189.85C83.4459 189.85 83.406 189.87 83.406 189.84L82.0296 183.46C82.0296 183.46 82.0296 183.4 82.0595 183.38L86.7073 179.31C86.7073 179.31 86.7472 179.3 86.7572 179.33L87.6149 185.01C87.6149 185.01 87.6149 185.08 87.585 185.1L83.4559 189.85H83.4459Z" fill="#92B6DA"/>
</g>
<g opacity="0.5">
<path d="M76.2448 201.591C76.2448 201.591 76.2049 201.571 76.2248 201.551L79.8951 196.161C79.8951 196.161 79.945 196.121 79.9749 196.121L86.1188 196.701C86.1188 196.701 86.1587 196.721 86.1387 196.741L82.618 201.271C82.618 201.271 82.5681 201.311 82.5382 201.311L76.2547 201.581L76.2448 201.591Z" fill="#92B6DA"/>
</g>
<g opacity="0.5">
<path d="M29.0688 161.75C29.0688 161.75 29.0389 161.72 29.0688 161.71L34.6441 158.34C34.6441 158.34 34.704 158.33 34.7339 158.34L40.0699 161.44C40.0699 161.44 40.0898 161.48 40.0699 161.49L34.9833 164.13C34.9833 164.13 34.9134 164.14 34.8935 164.13L29.0788 161.75H29.0688Z" fill="#92B6DA"/>
</g>
<g opacity="0.5">
<path d="M21.3294 169.901C21.3294 169.901 21.2895 169.921 21.2895 169.891L19.9131 163.511C19.9131 163.511 19.9131 163.451 19.943 163.431L24.5908 159.361C24.5908 159.361 24.6307 159.351 24.6406 159.381L25.4984 165.061C25.4984 165.061 25.4984 165.131 25.4684 165.151L21.3393 169.901H21.3294Z" fill="#92B6DA"/>
</g>
<g opacity="0.5">
<path d="M14.1283 181.642C14.1283 181.642 14.0884 181.622 14.1084 181.602L17.7787 176.212C17.7787 176.212 17.8286 176.172 17.8585 176.172L24.0023 176.752C24.0023 176.752 24.0422 176.772 24.0222 176.792L20.5015 181.322C20.5015 181.322 20.4517 181.362 20.4217 181.362L14.1383 181.632L14.1283 181.642Z" fill="#92B6DA"/>
</g>
<g opacity="0.5">
<path d="M37.3171 171.629C37.3171 171.629 37.2872 171.599 37.3171 171.589L42.8924 168.219C42.8924 168.219 42.9523 168.209 42.9822 168.219L48.3181 171.319C48.3181 171.319 48.3381 171.359 48.3181 171.369L43.2315 174.009C43.2315 174.009 43.1617 174.019 43.1418 174.009L37.3271 171.629H37.3171Z" fill="#92B6DA"/>
</g>
<g opacity="0.5">
<path d="M29.5776 179.78C29.5776 179.78 29.5377 179.8 29.5377 179.77L28.1614 173.39C28.1614 173.39 28.1614 173.33 28.1913 173.31L32.8391 169.24C32.8391 169.24 32.8789 169.23 32.8889 169.26L33.7467 174.94C33.7467 174.94 33.7467 175.01 33.7167 175.03L29.5876 179.78H29.5776Z" fill="#92B6DA"/>
</g>
<g opacity="0.5">
<path d="M22.3766 191.521C22.3766 191.521 22.3367 191.501 22.3567 191.481L26.027 186.091C26.027 186.091 26.0769 186.051 26.1068 186.051L32.2506 186.631C32.2506 186.631 32.2905 186.651 32.2705 186.671L28.7498 191.201C28.7498 191.201 28.6999 191.241 28.67 191.241L22.3866 191.511L22.3766 191.521Z" fill="#92B6DA"/>
</g>
<g opacity="0.5">
<path d="M32.9586 151.618C32.9586 151.618 32.9187 151.598 32.9387 151.578L36.609 146.188C36.609 146.188 36.6589 146.148 36.6888 146.148L42.8326 146.728C42.8326 146.728 42.8725 146.748 42.8526 146.768L39.3318 151.298C39.3318 151.298 39.282 151.338 39.2521 151.338L32.9686 151.608L32.9586 151.618Z" fill="#92B6DA"/>
</g>
<g opacity="0.5">
<path d="M56.1375 141.61C56.1375 141.61 56.1076 141.58 56.1375 141.57L61.7128 138.2C61.7128 138.2 61.7727 138.19 61.8026 138.2L67.1385 141.3C67.1385 141.3 67.1585 141.34 67.1385 141.35L62.0519 143.99C62.0519 143.99 61.9821 144 61.9622 143.99L56.1475 141.61H56.1375Z" fill="#92B6DA"/>
</g>
<g opacity="0.5">
<path d="M48.3981 149.76C48.3981 149.76 48.3582 149.78 48.3582 149.75L46.9818 143.37C46.9818 143.37 46.9818 143.31 47.0117 143.29L51.6595 139.22C51.6595 139.22 51.6994 139.21 51.7094 139.24L52.5671 144.92C52.5671 144.92 52.5671 144.99 52.5372 145.01L48.4081 149.76H48.3981Z" fill="#92B6DA"/>
</g>
<g opacity="0.5">
<path d="M41.1969 161.501C41.1969 161.501 41.157 161.481 41.177 161.461L44.8473 156.071C44.8473 156.071 44.8972 156.031 44.9271 156.031L51.0709 156.611C51.0709 156.611 51.1108 156.631 51.0908 156.651L47.5701 161.181C47.5701 161.181 47.5203 161.221 47.4903 161.221L41.2069 161.491L41.1969 161.501Z" fill="#92B6DA"/>
</g>
<g opacity="0.5">
<path d="M6.72778 191.121C6.72778 191.121 6.69785 191.091 6.72778 191.081L12.3031 187.711C12.3031 187.711 12.3629 187.701 12.3929 187.711L17.7288 190.811C17.7288 190.811 17.7487 190.851 17.7288 190.861L12.6422 193.501C12.6422 193.501 12.5724 193.511 12.5524 193.501L6.73775 191.121H6.72778Z" fill="#92B6DA"/>
</g>
<g opacity="0.5">
<path d="M14.9661 201C14.9661 201 14.9361 200.97 14.9661 200.96L20.5414 197.59C20.5414 197.59 20.6012 197.58 20.6311 197.59L25.9671 200.69C25.9671 200.69 25.987 200.73 25.9671 200.74L20.8805 203.38C20.8805 203.38 20.8107 203.39 20.7907 203.38L14.976 201H14.9661Z" fill="#92B6DA"/>
</g>
<g opacity="0.5">
<path d="M7.22669 209.143C7.22669 209.143 7.1868 209.163 7.1868 209.133L5.81042 202.753C5.81042 202.753 5.81042 202.693 5.84034 202.673L10.4881 198.603C10.4881 198.603 10.528 198.593 10.538 198.623L11.3957 204.303C11.3957 204.303 11.3957 204.373 11.3658 204.393L7.23667 209.143H7.22669Z" fill="#92B6DA"/>
</g>
<g opacity="0.5">
<path d="M0.0255297 220.88C0.0255297 220.88 -0.0143618 220.86 0.00558563 220.84L3.67591 215.45C3.67591 215.45 3.72578 215.41 3.7557 215.41L9.89952 215.99C9.89952 215.99 9.93941 216.01 9.91946 216.03L6.39874 220.56C6.39874 220.56 6.34887 220.6 6.31895 220.6L0.0355056 220.87L0.0255297 220.88Z" fill="#92B6DA"/>
</g>
<g opacity="0.5">
<path d="M23.8127 211.079C23.8127 211.079 23.7828 211.049 23.8127 211.039L29.3881 207.669C29.3881 207.669 29.4479 207.659 29.4778 207.669L34.8138 210.769C34.8138 210.769 34.8337 210.809 34.8138 210.819L29.7272 213.459C29.7272 213.459 29.6573 213.469 29.6374 213.459L23.8227 211.079H23.8127Z" fill="#92B6DA"/>
</g>
<g opacity="0.5">
<path d="M16.0734 219.229C16.0734 219.229 16.0335 219.249 16.0335 219.219L14.6571 212.839C14.6571 212.839 14.6571 212.779 14.687 212.759L19.3348 208.689C19.3348 208.689 19.3747 208.679 19.3846 208.709L20.2424 214.389C20.2424 214.389 20.2424 214.459 20.2125 214.479L16.0833 219.229H16.0734Z" fill="#92B6DA"/>
</g>
<g opacity="0.5">
<path d="M8.87222 230.97C8.87222 230.97 8.83232 230.95 8.85226 230.93L12.5226 225.54C12.5226 225.54 12.5725 225.5 12.6024 225.5L18.7462 226.08C18.7462 226.08 18.7861 226.1 18.7661 226.12L15.2454 230.65C15.2454 230.65 15.1956 230.69 15.1656 230.69L8.88218 230.96L8.87222 230.97Z" fill="#92B6DA"/>
</g>
<g opacity="0.5">
<path d="M32.0511 220.957C32.0511 220.957 32.0212 220.927 32.0511 220.917L37.6264 217.547C37.6264 217.547 37.6863 217.537 37.7162 217.547L43.0522 220.647C43.0522 220.647 43.0721 220.687 43.0522 220.697L37.9656 223.337C37.9656 223.337 37.8957 223.347 37.8758 223.337L32.0611 220.957H32.0511Z" fill="#92B6DA"/>
</g>
<g opacity="0.5">
<path d="M24.3117 229.108C24.3117 229.108 24.2718 229.128 24.2718 229.098L22.8954 222.718C22.8954 222.718 22.8954 222.658 22.9253 222.638L27.5731 218.568C27.5731 218.568 27.613 218.558 27.6229 218.588L28.4807 224.268C28.4807 224.268 28.4807 224.338 28.4507 224.358L24.3216 229.108H24.3117Z" fill="#92B6DA"/>
</g>
<g opacity="0.5">
<path d="M17.1105 240.849C17.1105 240.849 17.0706 240.829 17.0905 240.809L20.7609 235.419C20.7609 235.419 20.8107 235.379 20.8407 235.379L26.9845 235.959C26.9845 235.959 27.0244 235.979 27.0044 235.999L23.4837 240.529C23.4837 240.529 23.4338 240.569 23.4039 240.569L17.1205 240.839L17.1105 240.849Z" fill="#92B6DA"/>
</g>
<g opacity="0.5">
<path d="M41.0076 230.879C41.0076 230.879 40.9776 230.849 41.0076 230.839L46.5829 227.469C46.5829 227.469 46.6427 227.459 46.6726 227.469L52.0086 230.569C52.0086 230.569 52.0285 230.609 52.0086 230.619L46.922 233.259C46.922 233.259 46.8522 233.269 46.8322 233.259L41.0175 230.879H41.0076Z" fill="#92B6DA"/>
</g>
<g opacity="0.5">
<path d="M33.2682 239.03C33.2682 239.03 33.2283 239.05 33.2283 239.02L31.8519 232.64C31.8519 232.64 31.8519 232.58 31.8819 232.56L36.5296 228.49C36.5296 228.49 36.5695 228.48 36.5795 228.51L37.4372 234.19C37.4372 234.19 37.4372 234.26 37.4073 234.28L33.2782 239.03H33.2682Z" fill="#92B6DA"/>
</g>
<g opacity="0.5">
<path d="M26.067 250.771C26.067 250.771 26.0271 250.751 26.0471 250.731L29.7174 245.341C29.7174 245.341 29.7673 245.301 29.7972 245.301L35.941 245.881C35.941 245.881 35.9809 245.901 35.961 245.921L32.4402 250.451C32.4402 250.451 32.3904 250.491 32.3605 250.491L26.077 250.761L26.067 250.771Z" fill="#92B6DA"/>
</g>
<g opacity="0.5">
<path d="M49.2559 240.758C49.2559 240.758 49.2259 240.728 49.2559 240.718L54.8312 237.348C54.8312 237.348 54.891 237.338 54.9209 237.348L60.2569 240.448C60.2569 240.448 60.2768 240.488 60.2569 240.498L55.1703 243.138C55.1703 243.138 55.1005 243.148 55.0805 243.138L49.2658 240.758H49.2559Z" fill="#92B6DA"/>
</g>
<g opacity="0.5">
<path d="M41.5165 248.909C41.5165 248.909 41.4766 248.929 41.4766 248.899L40.1002 242.519C40.1002 242.519 40.1002 242.459 40.1301 242.439L44.7779 238.369C44.7779 238.369 44.8178 238.359 44.8278 238.389L45.6855 244.069C45.6855 244.069 45.6855 244.139 45.6556 244.159L41.5265 248.909H41.5165Z" fill="#92B6DA"/>
</g>
<g opacity="0.5">
<path d="M132.078 77.7504C132.078 77.7504 132.048 77.7204 132.078 77.7104L137.653 74.3404C137.653 74.3404 137.713 74.3304 137.743 74.3404L143.079 77.4404C143.079 77.4404 143.099 77.4804 143.079 77.4904L137.992 80.1304C137.992 80.1304 137.922 80.1404 137.902 80.1304L132.088 77.7504H132.078Z" fill="#92B6DA"/>
</g>
<g opacity="0.5">
<path d="M124.338 85.8893C124.338 85.8893 124.298 85.9092 124.298 85.8792L122.922 79.4993C122.922 79.4993 122.922 79.4393 122.952 79.4193L127.6 75.3492C127.6 75.3492 127.64 75.3393 127.65 75.3693L128.507 81.0493C128.507 81.0493 128.507 81.1193 128.477 81.1393L124.348 85.8893H124.338Z" fill="#92B6DA"/>
</g>
<g opacity="0.5">
<path d="M117.137 97.6301C117.137 97.6301 117.097 97.6101 117.117 97.5901L120.788 92.2001C120.788 92.2001 120.838 92.1602 120.867 92.1602L127.011 92.7401C127.011 92.7401 127.051 92.7602 127.031 92.7802L123.511 97.3102C123.511 97.3102 123.461 97.3501 123.431 97.3501L117.147 97.6201L117.137 97.6301Z" fill="#92B6DA"/>
</g>
<g opacity="0.5">
<path d="M140.316 87.6293C140.316 87.6293 140.286 87.5993 140.316 87.5893L145.891 84.2193C145.891 84.2193 145.951 84.2093 145.981 84.2193L151.317 87.3193C151.317 87.3193 151.337 87.3593 151.317 87.3693L146.231 90.0093C146.231 90.0093 146.161 90.0193 146.141 90.0093L140.326 87.6293H140.316Z" fill="#92B6DA"/>
</g>
<g opacity="0.5">
<path d="M132.577 95.7721C132.577 95.7721 132.537 95.7921 132.537 95.7621L131.16 89.3821C131.16 89.3821 131.16 89.3221 131.19 89.3021L135.838 85.2321C135.838 85.2321 135.878 85.2221 135.888 85.2521L136.746 90.9321C136.746 90.9321 136.746 91.0021 136.716 91.0221L132.587 95.7721H132.577Z" fill="#92B6DA"/>
</g>
<g opacity="0.5">
<path d="M125.376 107.509C125.376 107.509 125.336 107.489 125.356 107.469L129.026 102.079C129.026 102.079 129.076 102.039 129.106 102.039L135.25 102.619C135.25 102.619 135.289 102.639 135.27 102.659L131.749 107.189C131.749 107.189 131.699 107.229 131.669 107.229L125.386 107.499L125.376 107.509Z" fill="#92B6DA"/>
</g>
<g opacity="0.5">
<path d="M130.911 125.707C130.911 125.707 130.881 125.677 130.911 125.667L136.486 122.297C136.486 122.297 136.546 122.287 136.576 122.297L141.912 125.397C141.912 125.397 141.932 125.437 141.912 125.447L136.825 128.087C136.825 128.087 136.755 128.097 136.735 128.087L130.921 125.707H130.911Z" fill="#92B6DA"/>
</g>
<g opacity="0.5">
<path d="M123.171 133.858C123.171 133.858 123.131 133.878 123.131 133.848L121.755 127.468C121.755 127.468 121.755 127.408 121.785 127.388L126.433 123.318C126.433 123.318 126.472 123.308 126.482 123.338L127.34 129.018C127.34 129.018 127.34 129.088 127.31 129.108L123.181 133.858H123.171Z" fill="#92B6DA"/>
</g>
<g opacity="0.5">
<path d="M115.97 145.599C115.97 145.599 115.93 145.579 115.95 145.559L119.62 140.169C119.62 140.169 119.67 140.129 119.7 140.129L125.844 140.709C125.844 140.709 125.884 140.729 125.864 140.749L122.343 145.279C122.343 145.279 122.293 145.319 122.263 145.319L115.98 145.589L115.97 145.599Z" fill="#92B6DA"/>
</g>
<g opacity="0.5">
<path d="M139.149 135.586C139.149 135.586 139.119 135.556 139.149 135.546L144.724 132.176C144.724 132.176 144.784 132.166 144.814 132.176L150.15 135.276C150.15 135.276 150.17 135.316 150.15 135.326L145.063 137.966C145.063 137.966 144.994 137.976 144.974 137.966L139.159 135.586H139.149Z" fill="#92B6DA"/>
</g>
<g opacity="0.5">
<path d="M131.409 143.737C131.409 143.737 131.37 143.757 131.37 143.727L129.993 137.347C129.993 137.347 129.993 137.287 130.023 137.267L134.671 133.197C134.671 133.197 134.711 133.187 134.721 133.217L135.579 138.897C135.579 138.897 135.579 138.967 135.549 138.987L131.419 143.737H131.409Z" fill="#92B6DA"/>
</g>
<g opacity="0.5">
<path d="M124.208 155.478C124.208 155.478 124.168 155.458 124.188 155.438L127.859 150.048C127.859 150.048 127.909 150.008 127.939 150.008L134.082 150.588C134.082 150.588 134.122 150.608 134.102 150.628L130.582 155.158C130.582 155.158 130.532 155.198 130.502 155.198L124.218 155.468L124.208 155.478Z" fill="#92B6DA"/>
</g>
<g opacity="0.5">
<path d="M113.387 105.668C113.387 105.668 113.357 105.638 113.387 105.628L118.962 102.258C118.962 102.258 119.022 102.248 119.052 102.258L124.388 105.358C124.388 105.358 124.408 105.398 124.388 105.408L119.301 108.048C119.301 108.048 119.231 108.058 119.211 108.048L113.397 105.668H113.387Z" fill="#92B6DA"/>
</g>
<g opacity="0.5">
<path d="M98.4463 125.56C98.4463 125.56 98.4064 125.54 98.4263 125.52L102.097 120.13C102.097 120.13 102.147 120.09 102.176 120.09L108.32 120.67C108.32 120.67 108.36 120.69 108.34 120.71L104.819 125.24C104.819 125.24 104.77 125.28 104.74 125.28L98.4562 125.55L98.4463 125.56Z" fill="#92B6DA"/>
</g>
<g opacity="0.5">
<path d="M121.625 115.547C121.625 115.547 121.595 115.517 121.625 115.507L127.2 112.137C127.2 112.137 127.26 112.127 127.29 112.137L132.626 115.237C132.626 115.237 132.646 115.277 132.626 115.287L127.54 117.927C127.54 117.927 127.47 117.937 127.45 117.927L121.635 115.547H121.625Z" fill="#92B6DA"/>
</g>
<g opacity="0.5">
<path d="M113.896 123.69C113.896 123.69 113.856 123.71 113.856 123.68L112.479 117.3C112.479 117.3 112.479 117.24 112.509 117.22L117.157 113.15C117.157 113.15 117.197 113.14 117.207 113.17L118.065 118.85C118.065 118.85 118.065 118.92 118.035 118.94L113.906 123.69H113.896Z" fill="#92B6DA"/>
</g>
<g opacity="0.5">
<path d="M106.695 135.427C106.695 135.427 106.655 135.407 106.675 135.387L110.345 129.997C110.345 129.997 110.395 129.957 110.425 129.957L116.569 130.537C116.569 130.537 116.608 130.557 116.588 130.577L113.068 135.107C113.068 135.107 113.018 135.147 112.988 135.147L106.705 135.417L106.695 135.427Z" fill="#92B6DA"/>
</g>
<g opacity="0.5">
<path d="M143.837 104.729C143.837 104.729 143.797 104.749 143.797 104.719L142.42 98.3391C142.42 98.3391 142.42 98.2791 142.45 98.2591L147.098 94.1891C147.098 94.1891 147.138 94.1791 147.148 94.2091L148.006 99.8891C148.006 99.8891 148.006 99.9591 147.976 99.9791L143.847 104.729H143.837Z" fill="#92B6DA"/>
</g>
<g opacity="0.5">
<path d="M136.636 116.47C136.636 116.47 136.596 116.45 136.616 116.43L140.286 111.04C140.286 111.04 140.336 111 140.366 111L146.51 111.58C146.51 111.58 146.549 111.6 146.53 111.62L143.009 116.15C143.009 116.15 142.959 116.19 142.929 116.19L136.646 116.46L136.636 116.47Z" fill="#92B6DA"/>
</g>
<g opacity="0.5">
<path d="M152.075 114.608C152.075 114.608 152.035 114.628 152.035 114.598L150.659 108.218C150.659 108.218 150.659 108.158 150.689 108.138L155.336 104.068C155.336 104.068 155.376 104.058 155.386 104.088L156.244 109.768C156.244 109.768 156.244 109.838 156.214 109.858L152.085 114.608H152.075Z" fill="#92B6DA"/>
</g>
<g opacity="0.5">
<path d="M144.874 126.349C144.874 126.349 144.834 126.329 144.854 126.309L148.524 120.919C148.524 120.919 148.574 120.879 148.604 120.879L154.748 121.459C154.748 121.459 154.788 121.479 154.768 121.499L151.247 126.029C151.247 126.029 151.197 126.069 151.167 126.069L144.884 126.339L144.874 126.349Z" fill="#92B6DA"/>
</g>
<g opacity="0.5">
<path d="M116.529 56.4887C116.529 56.4887 116.499 56.4587 116.529 56.4487L122.104 53.0787C122.104 53.0787 122.164 53.0687 122.194 53.0787L127.53 56.1787C127.53 56.1787 127.55 56.2187 127.53 56.2287L122.443 58.8687C122.443 58.8687 122.373 58.8787 122.353 58.8687L116.539 56.4887H116.529Z" fill="#92B6DA"/>
</g>
<g opacity="0.5">
<path d="M124.767 66.3676C124.767 66.3676 124.737 66.3376 124.767 66.3276L130.342 62.9576C130.342 62.9576 130.402 62.9476 130.432 62.9576L135.768 66.0576C135.768 66.0576 135.788 66.0976 135.768 66.1076L130.681 68.7476C130.681 68.7476 130.612 68.7576 130.592 68.7476L124.777 66.3676H124.767Z" fill="#92B6DA"/>
</g>
<g opacity="0.5">
<path d="M117.028 74.5182C117.028 74.5182 116.988 74.5382 116.988 74.5082L115.611 68.1281C115.611 68.1281 115.611 68.0682 115.641 68.0482L120.289 63.9782C120.289 63.9782 120.329 63.9682 120.339 63.9982L121.197 69.6782C121.197 69.6782 121.197 69.7482 121.167 69.7682L117.038 74.5182H117.028Z" fill="#92B6DA"/>
</g>
<g opacity="0.5">
<path d="M109.826 86.2591C109.826 86.2591 109.786 86.2391 109.806 86.2191L113.477 80.8291C113.477 80.8291 113.527 80.7891 113.557 80.7891L119.7 81.3691C119.7 81.3691 119.74 81.3891 119.72 81.4091L116.2 85.9391C116.2 85.9391 116.15 85.9791 116.12 85.9791L109.836 86.2491L109.826 86.2591Z" fill="#92B6DA"/>
</g>
<g opacity="0.5">
<path d="M60.4166 135.767C60.4166 135.767 60.3767 135.747 60.3966 135.727L64.067 130.337C64.067 130.337 64.1168 130.297 64.1468 130.297L70.2906 130.877C70.2906 130.877 70.3305 130.897 70.3105 130.917L66.7898 135.447C66.7898 135.447 66.7399 135.487 66.71 135.487L60.4266 135.757L60.4166 135.767Z" fill="#92B6DA"/>
</g>
<g opacity="0.5">
<path d="M83.6055 125.758C83.6055 125.758 83.5755 125.728 83.6055 125.718L89.1808 122.348C89.1808 122.348 89.2406 122.338 89.2705 122.348L94.6065 125.448C94.6065 125.448 94.6264 125.488 94.6065 125.498L89.5199 128.138C89.5199 128.138 89.4501 128.148 89.4301 128.138L83.6154 125.758H83.6055Z" fill="#92B6DA"/>
</g>
<g opacity="0.5">
<path d="M75.866 133.909C75.866 133.909 75.8261 133.929 75.8261 133.899L74.4497 127.519C74.4497 127.519 74.4497 127.459 74.4796 127.439L79.1274 123.369C79.1274 123.369 79.1673 123.359 79.1772 123.389L80.035 129.069C80.035 129.069 80.035 129.139 80.0051 129.159L75.8759 133.909H75.866Z" fill="#92B6DA"/>
</g>
<g opacity="0.5">
<path d="M68.6649 145.65C68.6649 145.65 68.625 145.63 68.6449 145.61L72.3153 140.22C72.3153 140.22 72.3651 140.18 72.3951 140.18L78.5389 140.76C78.5389 140.76 78.5788 140.78 78.5588 140.8L75.0381 145.33C75.0381 145.33 74.9882 145.37 74.9583 145.37L68.6748 145.64L68.6649 145.65Z" fill="#92B6DA"/>
</g>
<g opacity="0.5">
<path d="M92.4419 135.84C92.4419 135.84 92.412 135.81 92.4419 135.8L98.0173 132.43C98.0173 132.43 98.0771 132.42 98.107 132.43L103.443 135.53C103.443 135.53 103.463 135.57 103.443 135.58L98.3564 138.22C98.3564 138.22 98.2865 138.23 98.2666 138.22L92.4519 135.84H92.4419Z" fill="#92B6DA"/>
</g>
<g opacity="0.5">
<path d="M84.7025 143.991C84.7025 143.991 84.6626 144.011 84.6626 143.981L83.2863 137.601C83.2863 137.601 83.2863 137.541 83.3162 137.521L87.9639 133.451C87.9639 133.451 88.0038 133.441 88.0138 133.471L88.8715 139.151C88.8715 139.151 88.8715 139.221 88.8416 139.241L84.7125 143.991H84.7025Z" fill="#92B6DA"/>
</g>
<g opacity="0.5">
<path d="M77.5014 155.732C77.5014 155.732 77.4615 155.712 77.4815 155.692L81.1518 150.302C81.1518 150.302 81.2017 150.262 81.2316 150.262L87.3754 150.842C87.3754 150.842 87.4153 150.862 87.3954 150.882L83.8746 155.412C83.8746 155.412 83.8248 155.452 83.7948 155.452L77.5114 155.722L77.5014 155.732Z" fill="#92B6DA"/>
</g>
<g opacity="0.5">
<path d="M100.68 145.719C100.68 145.719 100.65 145.689 100.68 145.679L106.256 142.309C106.256 142.309 106.315 142.299 106.345 142.309L111.681 145.409C111.681 145.409 111.701 145.449 111.681 145.459L106.595 148.099C106.595 148.099 106.525 148.109 106.505 148.099L100.69 145.719H100.68Z" fill="#92B6DA"/>
</g>
<g opacity="0.5">
<path d="M92.9408 153.87C92.9408 153.87 92.9009 153.89 92.9009 153.86L91.5245 147.48C91.5245 147.48 91.5245 147.42 91.5545 147.4L96.2022 143.33C96.2022 143.33 96.2421 143.32 96.2521 143.35L97.1098 149.03C97.1098 149.03 97.1098 149.1 97.0799 149.12L92.9508 153.87H92.9408Z" fill="#92B6DA"/>
</g>
<g opacity="0.5">
<path d="M85.7397 165.611C85.7397 165.611 85.6998 165.591 85.7198 165.571L89.3901 160.181C89.3901 160.181 89.44 160.141 89.4699 160.141L95.6137 160.721C95.6137 160.721 95.6536 160.741 95.6336 160.761L92.1129 165.291C92.1129 165.291 92.063 165.331 92.0331 165.331L85.7497 165.601L85.7397 165.611Z" fill="#92B6DA"/>
</g>
<g opacity="0.5">
<path d="M109.647 155.637C109.647 155.637 109.617 155.607 109.647 155.597L115.222 152.227C115.222 152.227 115.282 152.217 115.312 152.227L120.648 155.327C120.648 155.327 120.668 155.367 120.648 155.377L115.561 158.017C115.561 158.017 115.491 158.027 115.471 158.017L109.657 155.637H109.647Z" fill="#92B6DA"/>
</g>
<g opacity="0.5">
<path d="M101.907 163.788C101.907 163.788 101.867 163.808 101.867 163.778L100.491 157.398C100.491 157.398 100.491 157.338 100.521 157.318L105.169 153.248C105.169 153.248 105.209 153.238 105.219 153.268L106.076 158.948C106.076 158.948 106.076 159.018 106.046 159.038L101.917 163.788H101.907Z" fill="#92B6DA"/>
</g>
<g opacity="0.5">
<path d="M94.7061 175.529C94.7061 175.529 94.6662 175.509 94.6862 175.489L98.3565 170.099C98.3565 170.099 98.4064 170.059 98.4363 170.059L104.58 170.639C104.58 170.639 104.62 170.659 104.6 170.679L101.079 175.209C101.079 175.209 101.029 175.249 101 175.249L94.7161 175.519L94.7061 175.529Z" fill="#92B6DA"/>
</g>
<g opacity="0.5">
<path d="M117.885 165.516C117.885 165.516 117.855 165.486 117.885 165.476L123.46 162.106C123.46 162.106 123.52 162.096 123.55 162.106L128.886 165.206C128.886 165.206 128.906 165.246 128.886 165.256L123.799 167.896C123.799 167.896 123.73 167.906 123.71 167.896L117.895 165.516H117.885Z" fill="#92B6DA"/>
</g>
<g opacity="0.5">
<path d="M110.146 173.667C110.146 173.667 110.106 173.687 110.106 173.657L108.729 167.277C108.729 167.277 108.729 167.217 108.759 167.197L113.407 163.127C113.407 163.127 113.447 163.117 113.457 163.147L114.315 168.827C114.315 168.827 114.315 168.897 114.285 168.917L110.156 173.667H110.146Z" fill="#92B6DA"/>
</g>
<g opacity="0.5">
<path d="M102.944 185.408C102.944 185.408 102.905 185.387 102.925 185.367L106.595 179.977C106.595 179.977 106.645 179.938 106.675 179.938L112.818 180.517C112.818 180.517 112.858 180.537 112.838 180.557L109.318 185.087C109.318 185.087 109.268 185.127 109.238 185.127L102.954 185.397L102.944 185.408Z" fill="#92B6DA"/>
</g>
</g>
<mask id="mask0_190_47814" style="mask-type:alpha" maskUnits="userSpaceOnUse" x="0" y="150" width="321" height="194">
<path d="M320.5 343.27H208.871L186.986 318.354L186.193 317.453L186.111 318.65L184.427 343.27H129.687L122.407 334.982L121.616 334.081L121.533 335.277L120.977 343.27H105.468L101.443 333.69L101.176 333.055L100.654 333.506L89.3835 343.27H74.8025L60.7703 309.951L59.8103 310.111L57.5505 343.27H43.5945L17.033 327.779L16.3367 327.373L16.282 328.178L15.2576 343.27H1.34351V158.961C16.0549 163.568 34.3937 167.46 55.3679 170.399V170.398C57.9214 170.781 60.5085 171.124 63.1511 171.447L76.1833 184.389L77.0349 185.235V173.018C80.2238 173.358 83.473 173.663 86.7634 173.941L118.379 205.342L119.231 206.188V175.953C129.433 176.38 139.934 176.58 150.631 176.58H153.264L160.443 205.1L161.427 204.978V176.501C165.56 176.458 169.659 176.369 173.702 176.23L173.701 176.229C176.51 176.158 179.284 176.065 182.046 175.952C187.468 175.741 192.822 175.469 198.085 175.129L202.677 184.249L202.987 184.864L203.476 184.379L213.944 173.982C218.878 173.555 223.7 173.079 228.431 172.564L244.874 205.213L245.82 204.987V170.42C249.256 169.94 252.627 169.426 255.932 168.901L287.294 184.481L288.016 184.841V162.348C293.325 160.985 298.262 159.555 302.827 158.04L308.262 163.436L308.591 163.104L308.927 163.471L308.94 163.46L309.352 163.107L309.323 163.078L320.5 151.971V343.27Z" fill="#C59B6D" stroke="#C59B6D"/>
</mask>
<g mask="url(#mask0_190_47814)">
<path d="M159.975 2.53906C188.88 2.53909 206.548 5.16296 216.973 9.25098C222.179 11.2925 225.544 13.6863 227.608 16.2686C229.665 18.8419 230.457 21.636 230.457 24.5391C230.457 27.0804 228.955 29.39 226.521 31.5371C224.091 33.6798 220.808 35.5931 217.413 37.3438C215.719 38.2176 214.004 39.0464 212.362 39.8418C210.723 40.6359 209.154 41.3977 207.759 42.1318C206.366 42.865 205.131 43.5797 204.164 44.2822C203.27 44.9318 202.552 45.609 202.177 46.3281L202.106 46.4727C201.628 47.5281 201.384 48.6686 201.384 49.8291V111.559C201.384 115.584 204.315 119.015 208.291 119.623C217.996 121.099 237.207 125.094 256.116 135.193C275.021 145.29 293.593 161.47 302.104 187.306C312.422 218.648 311.855 254.347 307.947 284.741C304.04 315.128 296.801 340.165 293.812 350.166C285.441 378.166 271.058 421.453 258.414 462.662C252.096 483.255 246.215 503.316 241.747 520.655C237.282 537.985 234.219 552.629 233.55 562.374C233.338 565.438 234.845 568.366 237.467 569.964V569.965C237.729 570.126 237.981 570.277 238.229 570.427C255.776 581.122 253.459 607.324 234.335 614.813C218.172 621.138 195.405 626.289 164.113 626.289C123.335 626.289 97.4366 619.521 81.7529 611.264C66.0427 602.993 60.667 593.286 60.667 587.429C60.6671 583.957 62.0719 580.951 64.332 578.195C66.3155 575.777 68.9427 573.571 71.8193 571.436L73.0664 570.524C81.5024 564.435 86.2719 554.429 85.4805 544.031C81.6338 493.422 56.558 426.334 39.9131 386.477C22.4825 344.723 12.8022 300.074 12.0254 254.83C11.6967 235.935 12.8727 216.303 16.6631 197.92C22.6036 169.153 42.0673 150.486 62.6865 138.501C83.3089 126.514 105.04 121.24 115.396 119.25H115.397C119.233 118.504 122.006 115.149 122.006 111.229V48.2988C122.006 44.3955 119.605 40.8982 116.157 37.7598C112.701 34.613 108.104 31.7477 103.533 29.1162C95.8746 24.7042 96.8833 13.3812 105.018 10.3076L105.024 10.3203L105.437 10.1836C117.37 6.20184 135.09 2.53906 159.975 2.53906Z" fill="#C59B6D" stroke="#C59B6D"/>
<path d="M105.268 9.68906C96.3517 12.6691 95.125 24.8491 103.283 29.5491C112.419 34.8091 121.505 40.9191 121.505 48.2991V111.229C121.505 114.909 118.902 118.059 115.302 118.759C94.5365 122.749 28.1315 139.909 16.173 197.819C12.373 216.249 11.1961 235.919 11.5252 254.839C12.3032 300.149 21.9976 344.859 39.4517 386.669C56.0978 426.529 81.1418 493.549 84.9817 544.069C85.7596 554.289 81.072 564.129 72.7739 570.119C66.0416 574.969 60.1671 580.189 60.1671 587.429C60.1671 599.689 82.4583 626.789 164.113 626.789C195.461 626.789 218.29 621.629 234.518 615.279C254.026 607.639 256.39 580.909 238.487 569.999C238.238 569.849 237.989 569.699 237.729 569.539C235.266 568.039 233.849 565.289 234.049 562.409C236.712 523.629 277.554 406.289 294.29 350.309C300.274 330.289 323.284 250.039 302.578 187.149C285.454 135.159 227.835 122.089 208.367 119.129C204.636 118.559 201.884 115.339 201.884 111.559V49.8291C201.884 48.7391 202.113 47.6691 202.562 46.6791C204.916 41.4791 230.957 35.5491 230.957 24.5391C230.957 12.5291 217.812 2.03906 159.974 2.03906C135.04 2.03906 117.267 5.70906 105.278 9.70906L105.268 9.68906Z" stroke="#C59B6D" stroke-width="9" stroke-miterlimit="10"/>
</g>
<path d="M152.001 245.369L150.275 205.499C149.896 196.649 156.11 190.239 164.727 189.469C172.327 188.789 181.403 195.049 180.785 203.859L177.843 245.179L216.87 230.179C222.016 228.199 228.25 231.389 231.032 234.369C235.351 239.009 236.947 244.739 234.783 250.589C232.897 255.699 227.831 259.379 222.664 260.609L185.273 269.499L209.13 298.779C215.374 306.439 215.084 316.899 207.514 322.519C200.014 328.089 189.482 326.019 184.395 317.509L164.787 284.699L142.246 319.169C137.828 325.929 128.562 326.189 122.319 322.849C115.098 318.389 113.342 310.239 116.454 301.869L144.141 269.499L108.615 260.349C99.8081 258.079 93.8438 252.119 94.6916 243.159C95.5394 234.199 103.329 227.849 112.654 229.119L152.001 245.359V245.369Z" fill="#603813"/>
<rect x="89.6748" y="343.684" width="15.4172" height="0.203125" fill="#DCD6CB"/>
<rect x="89.8811" y="343.555" width="15.168" height="0.273438" fill="#DCD6CB"/>
<line x1="104.751" y1="343.719" x2="105.069" y2="343.585" stroke="#DCD6CB"/>
<line x1="89.6535" y1="344.094" x2="89.4617" y2="343.808" stroke="#DCD6CB"/>
</svg>
