<svg width="321" height="634" viewBox="0 0 321 634" fill="none" xmlns="http://www.w3.org/2000/svg">
<path d="M104.9 12.15C95.9601 15.13 94.7301 27.31 102.91 32.01C112.07 37.27 121.18 43.38 121.18 50.76V113.69C121.18 117.37 118.57 120.52 114.96 121.22C94.1401 125.21 27.5601 142.37 15.5701 200.28C11.7601 218.71 10.5801 238.38 10.9101 257.3C11.6901 302.61 21.4101 347.32 38.9101 389.13C55.6001 428.99 80.7101 496.01 84.5601 546.53C85.3401 556.75 80.6401 566.59 72.3201 572.58C65.5701 577.43 59.6801 582.65 59.6801 589.89C59.6801 602.15 82.0301 629.25 163.9 629.25C195.33 629.25 218.22 624.09 234.49 617.74C254.05 610.1 256.42 583.37 238.47 572.46C238.22 572.31 237.97 572.16 237.71 572C235.24 570.5 233.82 567.75 234.02 564.87C236.69 526.09 277.64 408.75 294.42 352.77C300.42 332.75 323.49 252.5 302.73 189.61C285.56 137.62 227.79 124.55 208.27 121.59C204.53 121.02 201.77 117.8 201.77 114.02V52.29C201.77 51.2 202 50.13 202.45 49.14C204.81 43.94 230.92 38.01 230.92 27C230.92 14.99 217.74 4.5 159.75 4.5C134.75 4.5 116.93 8.17001 104.91 12.17L104.9 12.15Z" fill="#DCD6CB"/>
<path d="M104.9 12.15C95.9601 15.13 94.7301 27.31 102.91 32.01C112.07 37.27 121.18 43.38 121.18 50.76V113.69C121.18 117.37 118.57 120.52 114.96 121.22C94.1401 125.21 27.5601 142.37 15.5701 200.28C11.7601 218.71 10.5801 238.38 10.9101 257.3C11.6901 302.61 21.4101 347.32 38.9101 389.13C55.6001 428.99 80.7101 496.01 84.5601 546.53C85.3401 556.75 80.6401 566.59 72.3201 572.58C65.5701 577.43 59.6801 582.65 59.6801 589.89C59.6801 602.15 82.0301 629.25 163.9 629.25C195.33 629.25 218.22 624.09 234.49 617.74C254.05 610.1 256.42 583.37 238.47 572.46C238.22 572.31 237.97 572.16 237.71 572C235.24 570.5 233.82 567.75 234.02 564.87C236.69 526.09 277.64 408.75 294.42 352.77C300.42 332.75 323.49 252.5 302.73 189.61C285.56 137.62 227.79 124.55 208.27 121.59C204.53 121.02 201.77 117.8 201.77 114.02V52.29C201.77 51.2 202 50.13 202.45 49.14C204.81 43.94 230.92 38.01 230.92 27C230.92 14.99 217.74 4.5 159.75 4.5C134.75 4.5 116.93 8.17001 104.91 12.17L104.9 12.15Z" stroke="#DCD6CB" stroke-width="9" stroke-miterlimit="10"/>
<mask id="mask0_190_46644" style="mask-type:alpha" maskUnits="userSpaceOnUse" x="0" y="154" width="321" height="194">
<path d="M320.5 347.25H208.574L186.632 322.335L185.84 321.436L185.758 322.631L184.069 347.25H129.182L121.883 338.962L121.092 338.064L121.009 339.258L120.451 347.25H104.899L100.862 337.67L100.596 337.036L100.075 337.485L88.7734 347.25H74.1533L60.083 313.932L59.124 314.092L56.8574 347.25H42.8643L16.2314 331.76L15.5352 331.354L15.4805 332.157L14.4531 347.25H0.5V162.941C15.2503 167.549 33.6378 171.44 54.668 174.379C57.2282 174.762 59.8221 175.105 62.4717 175.428L75.5391 188.37L76.3906 189.214V176.998C79.589 177.338 82.8481 177.644 86.1484 177.922L117.847 209.323L118.698 210.167V179.934C128.927 180.361 139.456 180.561 150.182 180.561H152.825L160.021 209.08L161.006 208.958V180.481C165.15 180.438 169.26 180.349 173.314 180.211L173.313 180.21C176.13 180.138 178.911 180.047 181.68 179.934L181.679 179.933C187.116 179.721 192.485 179.449 197.762 179.109L202.367 188.229L202.677 188.843L203.165 188.359L213.662 177.963C218.609 177.535 223.444 177.059 228.188 176.545L244.675 209.193L245.621 208.968V174.4C249.067 173.921 252.448 173.407 255.763 172.882L287.206 188.463L287.929 188.82V166.328C293.252 164.966 298.202 163.536 302.779 162.021L308.23 167.416L308.558 167.085L308.895 167.451L308.907 167.441L309.32 167.088L309.291 167.06L320.5 155.949V347.25Z" fill="#C59B6D" stroke="#C59B6D"/>
</mask>
<g mask="url(#mask0_190_46644)">
<path d="M159.55 6.51953C188.532 6.51953 206.246 9.14324 216.699 13.2314C221.92 15.2732 225.295 17.6675 227.364 20.25C229.427 22.8233 230.22 25.6168 230.22 28.5195C230.22 31.0601 228.715 33.3694 226.273 35.5166C223.837 37.6593 220.546 39.5726 217.142 41.3232C215.443 42.1971 213.723 43.0268 212.077 43.8223C210.434 44.6163 208.86 45.3782 207.462 46.1123C206.065 46.8455 204.826 47.5593 203.857 48.2617C202.902 48.9544 202.146 49.6792 201.795 50.4521C201.315 51.5077 201.07 52.6488 201.07 53.8096V115.539C201.07 119.565 204.01 122.996 207.994 123.604H207.995C217.726 125.079 236.987 129.076 255.946 139.175C274.901 149.272 293.522 165.451 302.055 191.286C312.401 222.628 311.832 258.327 307.914 288.722C303.997 319.107 296.739 344.144 293.741 354.146C285.348 382.145 270.929 425.434 258.251 466.643C251.916 487.235 246.02 507.296 241.54 524.636C237.063 541.965 233.992 556.609 233.321 566.354C233.108 569.42 234.62 572.349 237.25 573.946C237.511 574.107 237.762 574.257 238.01 574.406V574.407C255.604 585.101 253.284 611.304 234.108 618.794C217.902 625.119 195.075 630.27 163.7 630.27C122.814 630.27 96.8465 623.501 81.1211 615.244C65.3689 606.973 59.9795 597.266 59.9795 591.409C59.9796 587.938 61.3889 584.931 63.6553 582.176C65.9281 579.412 69.0435 576.926 72.4121 574.506V574.505C80.8698 568.416 85.6519 558.41 84.8584 548.012C81.0015 497.402 55.8597 430.313 39.1709 390.456C21.6945 348.702 11.9888 304.055 11.21 258.811C10.8804 239.915 12.0591 220.285 15.8594 201.901C21.8154 173.134 41.3309 154.468 62.0049 142.482C82.6819 130.495 104.47 125.221 114.854 123.23H114.855C118.699 122.485 121.479 119.13 121.479 115.21V52.2793C121.479 48.3754 119.073 44.8776 115.616 41.7393C112.584 38.9859 108.676 36.448 104.677 34.0938L102.959 33.0957C95.2799 28.6834 96.2914 17.3608 104.45 14.2881L104.457 14.3008L104.868 14.1641C116.834 10.1823 134.6 6.51954 159.55 6.51953Z" fill="#C59B6D" stroke="#C59B6D"/>
<path d="M104.7 13.6695C95.7599 16.6495 94.5299 28.8295 102.71 33.5295C111.87 38.7895 120.98 44.8995 120.98 52.2795V115.21C120.98 118.89 118.37 122.04 114.76 122.74C93.9399 126.73 27.3599 143.89 15.3699 201.8C11.5599 220.23 10.3799 239.9 10.7099 258.82C11.4899 304.13 21.2099 348.84 38.7099 390.65C55.3999 430.51 80.5099 497.529 84.3599 548.049C85.1399 558.269 80.4399 568.109 72.1199 574.099C65.3699 578.949 59.4799 584.169 59.4799 591.409C59.4799 603.669 81.8299 630.77 163.7 630.77C195.13 630.77 218.02 625.61 234.29 619.26C253.85 611.62 256.22 584.889 238.27 573.979C238.02 573.829 237.77 573.68 237.51 573.52C235.04 572.02 233.62 569.27 233.82 566.39C236.49 527.61 277.44 410.269 294.22 354.289C300.22 334.269 323.29 254.02 302.53 191.13C285.36 139.14 227.59 126.07 208.07 123.11C204.33 122.54 201.57 119.32 201.57 115.54V53.8095C201.57 52.7195 201.8 51.6495 202.25 50.6595C204.61 45.4595 230.72 39.5295 230.72 28.5195C230.72 16.5095 217.54 6.01953 159.55 6.01953C134.55 6.01953 116.73 9.68953 104.71 13.6895L104.7 13.6695Z" stroke="#C59B6D" stroke-width="9" stroke-miterlimit="10"/>
</g>
<path d="M75.5498 561.691C114.98 575.341 157.71 582.831 199.07 575.001C212.76 572.421 226.02 567.811 238.75 561.691C221.19 573.721 200.01 580.451 178.8 582.401C143.77 585.501 106.74 577.791 75.5498 561.691Z" fill="#E2E3E2"/>
<path d="M257.04 152.199C279.06 160.629 291.12 187.919 295.36 209.649C299.97 232.919 299.15 257.119 294.9 280.349C295.18 251.299 295.11 221.769 286.11 193.909C280.71 177.819 272.04 161.149 257.04 152.199Z" fill="#E7E2D5"/>
<path d="M65.9899 151.401C59.6299 154.961 54.5799 160.421 50.2299 166.171C44.2999 174.311 40.0399 183.561 36.9099 193.111C27.9099 220.971 27.8399 250.501 28.1199 279.551C23.6299 254.871 22.9099 229.041 28.6199 204.471C33.3799 184.051 45.2399 159.331 65.9799 151.391L65.9899 151.401Z" fill="#E7E2D5"/>
<path d="M126.14 52.8889C137.12 69.4689 136.17 95.2689 127.36 112.629C127.55 108.749 128.05 105.049 128.32 101.219C129.77 85.0589 129.49 68.8589 126.14 52.8789V52.8889Z" fill="#E7E2D5"/>
<path d="M197.2 53.3906C193.85 69.3606 193.57 85.5706 195.02 101.731C195.29 105.551 195.79 109.251 195.98 113.141C187.17 95.7906 186.22 69.9906 197.2 53.4006V53.3906Z" fill="#E7E2D5"/>
<path d="M33.1802 380.841C33.1802 380.841 161.84 370.241 280.99 380.261C265.97 400.281 257.46 405.291 257.46 405.291L33.1802 380.841Z" fill="#92B6DA"/>
<path d="M31.75 382.001C31.75 382.001 95.58 361.651 152.65 382.001C209.72 402.351 281.06 380.842 281.06 380.842C281.06 380.842 226.99 508.192 226.99 552.962C171.42 574.482 97.83 555.291 97.83 555.291C97.83 555.291 101.58 490.741 31.75 382.011V382.001Z" fill="#5388C5"/>
<g opacity="0.5">
<g opacity="0.5">
<path d="M63.9798 152.981C63.9798 152.981 63.9498 152.951 63.9798 152.941L69.5698 149.571C69.5698 149.571 69.6298 149.561 69.6598 149.571L75.0098 152.671C75.0098 152.671 75.0298 152.711 75.0098 152.721L69.9098 155.361C69.9098 155.361 69.8398 155.371 69.8198 155.361L63.9898 152.981H63.9798Z" fill="#92B6DA"/>
</g>
<g opacity="0.5">
<path d="M56.2198 161.131C56.2198 161.131 56.1798 161.151 56.1798 161.121L54.7998 154.741C54.7998 154.741 54.7998 154.681 54.8298 154.661L59.4898 150.591C59.4898 150.591 59.5298 150.581 59.5398 150.611L60.3998 156.291C60.3998 156.291 60.3998 156.361 60.3698 156.381L56.2298 161.131H56.2198Z" fill="#92B6DA"/>
</g>
<g opacity="0.5">
<path d="M48.9998 172.872C48.9998 172.872 48.9598 172.852 48.9798 172.832L52.6598 167.442C52.6598 167.442 52.7098 167.402 52.7398 167.402L58.8998 167.982C58.8998 167.982 58.9398 168.002 58.9198 168.022L55.3898 172.552C55.3898 172.552 55.3398 172.592 55.3098 172.592L49.0098 172.862L48.9998 172.872Z" fill="#92B6DA"/>
</g>
<g opacity="0.5">
<path d="M72.2398 162.86C72.2398 162.86 72.2098 162.83 72.2398 162.82L77.8298 159.45C77.8298 159.45 77.8898 159.44 77.9198 159.45L83.2698 162.55C83.2698 162.55 83.2898 162.59 83.2698 162.6L78.1698 165.24C78.1698 165.24 78.0998 165.25 78.0798 165.24L72.2498 162.86H72.2398Z" fill="#92B6DA"/>
</g>
<g opacity="0.5">
<path d="M64.4798 171.01C64.4798 171.01 64.4398 171.03 64.4398 171L63.0598 164.62C63.0598 164.62 63.0598 164.56 63.0898 164.54L67.7498 160.47C67.7498 160.47 67.7898 160.46 67.7998 160.49L68.6598 166.17C68.6598 166.17 68.6598 166.24 68.6298 166.26L64.4898 171.01H64.4798Z" fill="#92B6DA"/>
</g>
<g opacity="0.5">
<path d="M57.2599 182.751C57.2599 182.751 57.2199 182.731 57.2399 182.711L60.9199 177.321C60.9199 177.321 60.9699 177.281 60.9999 177.281L67.1599 177.861C67.1599 177.861 67.1998 177.881 67.1798 177.901L63.6498 182.431C63.6498 182.431 63.5999 182.471 63.5699 182.471L57.2699 182.741L57.2599 182.751Z" fill="#92B6DA"/>
</g>
<g opacity="0.5">
<path d="M62.8098 200.938C62.8098 200.938 62.7798 200.908 62.8098 200.898L68.3998 197.528C68.3998 197.528 68.4598 197.518 68.4898 197.528L73.8398 200.628C73.8398 200.628 73.8598 200.668 73.8398 200.678L68.7398 203.318C68.7398 203.318 68.6698 203.328 68.6498 203.318L62.8198 200.938H62.8098Z" fill="#92B6DA"/>
</g>
<g opacity="0.5">
<path d="M55.0498 209.088C55.0498 209.088 55.0098 209.108 55.0098 209.078L53.6298 202.698C53.6298 202.698 53.6298 202.638 53.6598 202.618L58.3198 198.548C58.3198 198.548 58.3598 198.538 58.3698 198.568L59.2298 204.248C59.2298 204.248 59.2298 204.318 59.1998 204.338L55.0598 209.088H55.0498Z" fill="#92B6DA"/>
</g>
<g opacity="0.5">
<path d="M47.8298 220.829C47.8298 220.829 47.7898 220.809 47.8098 220.789L51.4898 215.399C51.4898 215.399 51.5398 215.359 51.5698 215.359L57.7298 215.939C57.7298 215.939 57.7698 215.959 57.7498 215.979L54.2198 220.509C54.2198 220.509 54.1698 220.549 54.1398 220.549L47.8398 220.819L47.8298 220.829Z" fill="#92B6DA"/>
</g>
<g opacity="0.5">
<path d="M71.0698 210.817C71.0698 210.817 71.0398 210.787 71.0698 210.777L76.6598 207.407C76.6598 207.407 76.7198 207.397 76.7498 207.407L82.0998 210.507C82.0998 210.507 82.1198 210.547 82.0998 210.557L76.9998 213.197C76.9998 213.197 76.9298 213.207 76.9098 213.197L71.0798 210.817H71.0698Z" fill="#92B6DA"/>
</g>
<g opacity="0.5">
<path d="M63.3098 218.967C63.3098 218.967 63.2698 218.987 63.2698 218.957L61.8898 212.577C61.8898 212.577 61.8898 212.517 61.9198 212.497L66.5798 208.427C66.5798 208.427 66.6198 208.417 66.6298 208.447L67.4898 214.127C67.4898 214.127 67.4898 214.197 67.4598 214.217L63.3198 218.967H63.3098Z" fill="#92B6DA"/>
</g>
<g opacity="0.5">
<path d="M56.0898 230.708C56.0898 230.708 56.0498 230.688 56.0698 230.668L59.7498 225.278C59.7498 225.278 59.7998 225.238 59.8298 225.238L65.9898 225.818C65.9898 225.818 66.0298 225.838 66.0098 225.858L62.4798 230.388C62.4798 230.388 62.4298 230.428 62.3998 230.428L56.0998 230.698L56.0898 230.708Z" fill="#92B6DA"/>
</g>
<g opacity="0.5">
<path d="M45.2399 180.899C45.2399 180.899 45.2099 180.869 45.2399 180.859L50.8299 177.489C50.8299 177.489 50.8899 177.479 50.9199 177.489L56.2699 180.589C56.2699 180.589 56.2899 180.629 56.2699 180.639L51.1699 183.279C51.1699 183.279 51.0999 183.289 51.0799 183.279L45.2499 180.899H45.2399Z" fill="#92B6DA"/>
</g>
<g opacity="0.5">
<path d="M37.4798 189.049C37.4798 189.049 37.4398 189.069 37.4398 189.039L36.0598 182.659C36.0598 182.659 36.0598 182.599 36.0898 182.579L40.7498 178.509C40.7498 178.509 40.7898 178.499 40.7998 178.529L41.6598 184.209C41.6598 184.209 41.6598 184.279 41.6298 184.299L37.4898 189.049H37.4798Z" fill="#92B6DA"/>
</g>
<g opacity="0.5">
<path d="M30.2599 200.79C30.2599 200.79 30.2199 200.77 30.2399 200.75L33.9199 195.36C33.9199 195.36 33.9699 195.32 33.9999 195.32L40.1599 195.9C40.1599 195.9 40.1999 195.92 40.1799 195.94L36.6499 200.47C36.6499 200.47 36.5999 200.51 36.5699 200.51L30.2699 200.78L30.2599 200.79Z" fill="#92B6DA"/>
</g>
<g opacity="0.5">
<path d="M53.4999 190.778C53.4999 190.778 53.4699 190.748 53.4999 190.738L59.0899 187.368C59.0899 187.368 59.1499 187.358 59.1799 187.368L64.5299 190.468C64.5299 190.468 64.5499 190.508 64.5299 190.518L59.4299 193.158C59.4299 193.158 59.3599 193.168 59.3399 193.158L53.5099 190.778H53.4999Z" fill="#92B6DA"/>
</g>
<g opacity="0.5">
<path d="M45.7398 198.928C45.7398 198.928 45.6998 198.948 45.6998 198.918L44.3198 192.538C44.3198 192.538 44.3198 192.478 44.3498 192.458L49.0098 188.388C49.0098 188.388 49.0498 188.378 49.0598 188.408L49.9198 194.088C49.9198 194.088 49.9198 194.158 49.8898 194.178L45.7498 198.928H45.7398Z" fill="#92B6DA"/>
</g>
<g opacity="0.5">
<path d="M38.5199 210.669C38.5199 210.669 38.4799 210.649 38.4999 210.629L42.1799 205.239C42.1799 205.239 42.2299 205.199 42.2599 205.199L48.4199 205.779C48.4199 205.779 48.4599 205.799 48.4399 205.819L44.9099 210.349C44.9099 210.349 44.8599 210.389 44.8299 210.389L38.5299 210.659L38.5199 210.669Z" fill="#92B6DA"/>
</g>
<g opacity="0.5">
<path d="M83.5198 171.809C83.5198 171.809 83.4898 171.779 83.5198 171.769L89.1098 168.399C89.1098 168.399 89.1698 168.389 89.1998 168.399L94.5498 171.499C94.5498 171.499 94.5698 171.539 94.5498 171.549L89.4498 174.189C89.4498 174.189 89.3798 174.199 89.3598 174.189L83.5298 171.809H83.5198Z" fill="#92B6DA"/>
</g>
<g opacity="0.5">
<path d="M75.7699 179.96C75.7699 179.96 75.7298 179.98 75.7298 179.95L74.3499 173.57C74.3499 173.57 74.3499 173.51 74.3799 173.49L79.0398 169.42C79.0398 169.42 79.0798 169.41 79.0898 169.44L79.9498 175.12C79.9498 175.12 79.9498 175.19 79.9198 175.21L75.7798 179.96H75.7699Z" fill="#92B6DA"/>
</g>
<g opacity="0.5">
<path d="M68.5498 191.7C68.5498 191.7 68.5098 191.68 68.5298 191.66L72.2098 186.27C72.2098 186.27 72.2598 186.23 72.2898 186.23L78.4498 186.81C78.4498 186.81 78.4898 186.83 78.4698 186.85L74.9398 191.38C74.9398 191.38 74.8898 191.42 74.8598 191.42L68.5598 191.69L68.5498 191.7Z" fill="#92B6DA"/>
</g>
<g opacity="0.5">
<path d="M91.7898 181.688C91.7898 181.688 91.7598 181.658 91.7898 181.648L97.3798 178.278C97.3798 178.278 97.4398 178.268 97.4698 178.278L102.82 181.378C102.82 181.378 102.84 181.418 102.82 181.428L97.7198 184.068C97.7198 184.068 97.6498 184.078 97.6298 184.068L91.7998 181.688H91.7898Z" fill="#92B6DA"/>
</g>
<g opacity="0.5">
<path d="M84.0299 189.838C84.0299 189.838 83.9899 189.858 83.9899 189.828L82.6099 183.448C82.6099 183.448 82.6099 183.388 82.6399 183.368L87.2999 179.298C87.2999 179.298 87.3399 179.288 87.3499 179.318L88.2099 184.998C88.2099 184.998 88.2099 185.068 88.1799 185.088L84.0399 189.838H84.0299Z" fill="#92B6DA"/>
</g>
<g opacity="0.5">
<path d="M76.8098 201.579C76.8098 201.579 76.7698 201.559 76.7898 201.539L80.4698 196.149C80.4698 196.149 80.5198 196.109 80.5498 196.109L86.7099 196.689C86.7099 196.689 86.7498 196.709 86.7298 196.729L83.1998 201.259C83.1998 201.259 83.1498 201.299 83.1198 201.299L76.8199 201.569L76.8098 201.579Z" fill="#92B6DA"/>
</g>
<g opacity="0.5">
<path d="M29.5099 161.75C29.5099 161.75 29.4799 161.72 29.5099 161.71L35.0999 158.34C35.0999 158.34 35.1599 158.33 35.1899 158.34L40.5399 161.44C40.5399 161.44 40.5599 161.48 40.5399 161.49L35.4399 164.13C35.4399 164.13 35.3699 164.14 35.3499 164.13L29.5199 161.75H29.5099Z" fill="#92B6DA"/>
</g>
<g opacity="0.5">
<path d="M21.7498 169.889C21.7498 169.889 21.7098 169.909 21.7098 169.879L20.3298 163.499C20.3298 163.499 20.3298 163.439 20.3598 163.419L25.0198 159.349C25.0198 159.349 25.0598 159.339 25.0698 159.369L25.9298 165.049C25.9298 165.049 25.9298 165.119 25.8998 165.139L21.7598 169.889H21.7498Z" fill="#92B6DA"/>
</g>
<g opacity="0.5">
<path d="M14.5299 181.63C14.5299 181.63 14.4899 181.61 14.5099 181.59L18.1899 176.2C18.1899 176.2 18.2399 176.16 18.2699 176.16L24.4299 176.74C24.4299 176.74 24.4699 176.76 24.4499 176.78L20.9199 181.31C20.9199 181.31 20.8699 181.35 20.8399 181.35L14.5399 181.62L14.5299 181.63Z" fill="#92B6DA"/>
</g>
<g opacity="0.5">
<path d="M37.7798 171.629C37.7798 171.629 37.7498 171.599 37.7798 171.589L43.3698 168.219C43.3698 168.219 43.4298 168.209 43.4598 168.219L48.8098 171.319C48.8098 171.319 48.8298 171.359 48.8098 171.369L43.7098 174.009C43.7098 174.009 43.6398 174.019 43.6198 174.009L37.7898 171.629H37.7798Z" fill="#92B6DA"/>
</g>
<g opacity="0.5">
<path d="M30.0199 179.772C30.0199 179.772 29.9799 179.792 29.9799 179.762L28.5999 173.382C28.5999 173.382 28.5999 173.322 28.6299 173.302L33.2899 169.232C33.2899 169.232 33.3299 169.222 33.3399 169.252L34.1999 174.932C34.1999 174.932 34.1999 175.002 34.1699 175.022L30.0299 179.772H30.0199Z" fill="#92B6DA"/>
</g>
<g opacity="0.5">
<path d="M22.7999 191.509C22.7999 191.509 22.7599 191.489 22.7799 191.469L26.4599 186.079C26.4599 186.079 26.5099 186.039 26.5399 186.039L32.6999 186.619C32.6999 186.619 32.7399 186.639 32.7199 186.659L29.1899 191.189C29.1899 191.189 29.1399 191.229 29.1099 191.229L22.8099 191.499L22.7999 191.509Z" fill="#92B6DA"/>
</g>
<g opacity="0.5">
<path d="M33.4099 151.618C33.4099 151.618 33.3699 151.598 33.3899 151.578L37.0699 146.188C37.0699 146.188 37.1199 146.148 37.1499 146.148L43.3099 146.728C43.3099 146.728 43.3499 146.748 43.3299 146.768L39.7999 151.298C39.7999 151.298 39.7499 151.338 39.7199 151.338L33.4199 151.608L33.4099 151.618Z" fill="#92B6DA"/>
</g>
<g opacity="0.5">
<path d="M56.6499 141.61C56.6499 141.61 56.6199 141.58 56.6499 141.57L62.2399 138.2C62.2399 138.2 62.2999 138.19 62.3299 138.2L67.6799 141.3C67.6799 141.3 67.6999 141.34 67.6799 141.35L62.5799 143.99C62.5799 143.99 62.5099 144 62.4899 143.99L56.6599 141.61H56.6499Z" fill="#92B6DA"/>
</g>
<g opacity="0.5">
<path d="M48.8898 149.76C48.8898 149.76 48.8498 149.78 48.8498 149.75L47.4698 143.37C47.4698 143.37 47.4698 143.31 47.4998 143.29L52.1599 139.22C52.1599 139.22 52.1998 139.21 52.2098 139.24L53.0698 144.92C53.0698 144.92 53.0698 144.99 53.0398 145.01L48.8998 149.76H48.8898Z" fill="#92B6DA"/>
</g>
<g opacity="0.5">
<path d="M41.6699 161.501C41.6699 161.501 41.6299 161.481 41.6499 161.461L45.3299 156.071C45.3299 156.071 45.3799 156.031 45.4099 156.031L51.5699 156.611C51.5699 156.611 51.6099 156.631 51.5899 156.651L48.0599 161.181C48.0599 161.181 48.0099 161.221 47.9799 161.221L41.6799 161.491L41.6699 161.501Z" fill="#92B6DA"/>
</g>
<g opacity="0.5">
<path d="M7.10989 191.11C7.10989 191.11 7.07989 191.08 7.10989 191.07L12.6999 187.7C12.6999 187.7 12.7599 187.69 12.7899 187.7L18.1399 190.8C18.1399 190.8 18.1599 190.84 18.1399 190.85L13.0399 193.49C13.0399 193.49 12.9699 193.5 12.9499 193.49L7.11989 191.11H7.10989Z" fill="#92B6DA"/>
</g>
<g opacity="0.5">
<path d="M15.3699 200.989C15.3699 200.989 15.3399 200.959 15.3699 200.949L20.9599 197.579C20.9599 197.579 21.0199 197.569 21.0499 197.579L26.3999 200.679C26.3999 200.679 26.4199 200.719 26.3999 200.729L21.2999 203.369C21.2999 203.369 21.2299 203.379 21.2099 203.369L15.3799 200.989H15.3699Z" fill="#92B6DA"/>
</g>
<g opacity="0.5">
<path d="M7.60982 209.139C7.60982 209.139 7.56982 209.159 7.56982 209.129L6.18982 202.749C6.18982 202.749 6.18982 202.689 6.21982 202.669L10.8798 198.599C10.8798 198.599 10.9198 198.589 10.9298 198.619L11.7898 204.299C11.7898 204.299 11.7898 204.369 11.7598 204.389L7.61982 209.139H7.60982Z" fill="#92B6DA"/>
</g>
<g opacity="0.5">
<path d="M0.389855 220.88C0.389855 220.88 0.349858 220.86 0.369858 220.84L4.04986 215.45C4.04986 215.45 4.09985 215.41 4.12985 215.41L10.2899 215.99C10.2899 215.99 10.3299 216.01 10.3099 216.03L6.77985 220.56C6.77985 220.56 6.72985 220.6 6.69985 220.6L0.399857 220.87L0.389855 220.88Z" fill="#92B6DA"/>
</g>
<g opacity="0.5">
<path d="M24.2399 211.071C24.2399 211.071 24.2099 211.041 24.2399 211.031L29.8299 207.661C29.8299 207.661 29.8899 207.651 29.9199 207.661L35.2699 210.761C35.2699 210.761 35.2899 210.801 35.2699 210.811L30.1699 213.451C30.1699 213.451 30.0999 213.461 30.0799 213.451L24.2499 211.071H24.2399Z" fill="#92B6DA"/>
</g>
<g opacity="0.5">
<path d="M16.4798 219.221C16.4798 219.221 16.4398 219.241 16.4398 219.211L15.0598 212.831C15.0598 212.831 15.0598 212.771 15.0898 212.751L19.7498 208.681C19.7498 208.681 19.7898 208.671 19.7998 208.701L20.6598 214.381C20.6598 214.381 20.6598 214.451 20.6298 214.471L16.4898 219.221H16.4798Z" fill="#92B6DA"/>
</g>
<g opacity="0.5">
<path d="M9.25986 230.962C9.25986 230.962 9.21985 230.942 9.23985 230.922L12.9199 225.532C12.9199 225.532 12.9699 225.492 12.9999 225.492L19.1599 226.072C19.1599 226.072 19.1999 226.092 19.1799 226.112L15.6499 230.642C15.6499 230.642 15.5999 230.682 15.5699 230.682L9.26985 230.952L9.25986 230.962Z" fill="#92B6DA"/>
</g>
<g opacity="0.5">
<path d="M32.4999 220.95C32.4999 220.95 32.4699 220.92 32.4999 220.91L38.0899 217.54C38.0899 217.54 38.1499 217.53 38.1799 217.54L43.5299 220.64C43.5299 220.64 43.5499 220.68 43.5299 220.69L38.4299 223.33C38.4299 223.33 38.3599 223.34 38.3399 223.33L32.5099 220.95H32.4999Z" fill="#92B6DA"/>
</g>
<g opacity="0.5">
<path d="M24.7398 229.1C24.7398 229.1 24.6998 229.12 24.6998 229.09L23.3198 222.71C23.3198 222.71 23.3198 222.65 23.3498 222.63L28.0098 218.56C28.0098 218.56 28.0498 218.55 28.0598 218.58L28.9198 224.26C28.9198 224.26 28.9198 224.33 28.8898 224.35L24.7498 229.1H24.7398Z" fill="#92B6DA"/>
</g>
<g opacity="0.5">
<path d="M17.5199 240.841C17.5199 240.841 17.4799 240.821 17.4999 240.801L21.1799 235.411C21.1799 235.411 21.2299 235.371 21.2599 235.371L27.4199 235.951C27.4199 235.951 27.4599 235.971 27.4399 235.991L23.9099 240.521C23.9099 240.521 23.8599 240.561 23.8299 240.561L17.5299 240.831L17.5199 240.841Z" fill="#92B6DA"/>
</g>
<g opacity="0.5">
<path d="M41.4799 230.871C41.4799 230.871 41.4499 230.841 41.4799 230.831L47.0699 227.461C47.0699 227.461 47.1299 227.451 47.1599 227.461L52.5099 230.561C52.5099 230.561 52.5299 230.601 52.5099 230.611L47.4099 233.251C47.4099 233.251 47.3399 233.261 47.3199 233.251L41.4899 230.871H41.4799Z" fill="#92B6DA"/>
</g>
<g opacity="0.5">
<path d="M33.7198 239.022C33.7198 239.022 33.6798 239.042 33.6798 239.012L32.2998 232.632C32.2998 232.632 32.2998 232.572 32.3298 232.552L36.9898 228.482C36.9898 228.482 37.0298 228.472 37.0398 228.502L37.8998 234.182C37.8998 234.182 37.8998 234.252 37.8698 234.272L33.7298 239.022H33.7198Z" fill="#92B6DA"/>
</g>
<g opacity="0.5">
<path d="M26.4998 250.763C26.4998 250.763 26.4598 250.743 26.4798 250.723L30.1598 245.333C30.1598 245.333 30.2098 245.293 30.2398 245.293L36.3998 245.873C36.3998 245.873 36.4398 245.893 36.4198 245.913L32.8898 250.443C32.8898 250.443 32.8398 250.483 32.8098 250.483L26.5098 250.753L26.4998 250.763Z" fill="#92B6DA"/>
</g>
<g opacity="0.5">
<path d="M49.7498 240.75C49.7498 240.75 49.7198 240.72 49.7498 240.71L55.3398 237.34C55.3398 237.34 55.3998 237.33 55.4298 237.34L60.7798 240.44C60.7798 240.44 60.7998 240.48 60.7798 240.49L55.6798 243.13C55.6798 243.13 55.6098 243.14 55.5898 243.13L49.7598 240.75H49.7498Z" fill="#92B6DA"/>
</g>
<g opacity="0.5">
<path d="M41.9898 248.901C41.9898 248.901 41.9498 248.921 41.9498 248.891L40.5698 242.511C40.5698 242.511 40.5698 242.451 40.5998 242.431L45.2598 238.361C45.2598 238.361 45.2998 238.351 45.3098 238.381L46.1698 244.061C46.1698 244.061 46.1698 244.131 46.1398 244.151L41.9998 248.901H41.9898Z" fill="#92B6DA"/>
</g>
<g opacity="0.5">
<path d="M132.79 77.7387C132.79 77.7387 132.76 77.7087 132.79 77.6987L138.38 74.3287C138.38 74.3287 138.44 74.3187 138.47 74.3287L143.82 77.4287C143.82 77.4287 143.84 77.4687 143.82 77.4787L138.72 80.1187C138.72 80.1187 138.65 80.1287 138.63 80.1187L132.8 77.7387H132.79Z" fill="#92B6DA"/>
</g>
<g opacity="0.5">
<path d="M125.03 85.8893C125.03 85.8893 124.99 85.9093 124.99 85.8793L123.61 79.4993C123.61 79.4993 123.61 79.4393 123.64 79.4193L128.3 75.3493C128.3 75.3493 128.34 75.3392 128.35 75.3692L129.21 81.0492C129.21 81.0492 129.21 81.1193 129.18 81.1393L125.04 85.8893H125.03Z" fill="#92B6DA"/>
</g>
<g opacity="0.5">
<path d="M117.81 97.6302C117.81 97.6302 117.77 97.6101 117.79 97.5901L121.47 92.2002C121.47 92.2002 121.52 92.1602 121.55 92.1602L127.71 92.7401C127.71 92.7401 127.75 92.7602 127.73 92.7802L124.2 97.3102C124.2 97.3102 124.15 97.3502 124.12 97.3502L117.82 97.6201L117.81 97.6302Z" fill="#92B6DA"/>
</g>
<g opacity="0.5">
<path d="M141.05 87.6176C141.05 87.6176 141.02 87.5876 141.05 87.5776L146.64 84.2076C146.64 84.2076 146.7 84.1976 146.73 84.2076L152.08 87.3076C152.08 87.3076 152.1 87.3476 152.08 87.3576L146.98 89.9976C146.98 89.9976 146.91 90.0076 146.89 89.9976L141.06 87.6176H141.05Z" fill="#92B6DA"/>
</g>
<g opacity="0.5">
<path d="M133.29 95.7681C133.29 95.7681 133.25 95.7882 133.25 95.7582L131.87 89.3782C131.87 89.3782 131.87 89.3181 131.9 89.2981L136.56 85.2282C136.56 85.2282 136.6 85.2182 136.61 85.2482L137.47 90.9281C137.47 90.9281 137.47 90.9981 137.44 91.0181L133.3 95.7681H133.29Z" fill="#92B6DA"/>
</g>
<g opacity="0.5">
<path d="M126.07 107.509C126.07 107.509 126.03 107.489 126.05 107.469L129.73 102.079C129.73 102.079 129.78 102.039 129.81 102.039L135.97 102.619C135.97 102.619 136.01 102.639 135.99 102.659L132.46 107.189C132.46 107.189 132.41 107.229 132.38 107.229L126.08 107.499L126.07 107.509Z" fill="#92B6DA"/>
</g>
<g opacity="0.5">
<path d="M131.62 125.7C131.62 125.7 131.59 125.67 131.62 125.66L137.21 122.29C137.21 122.29 137.27 122.28 137.3 122.29L142.65 125.39C142.65 125.39 142.67 125.43 142.65 125.44L137.55 128.08C137.55 128.08 137.48 128.09 137.46 128.08L131.63 125.7H131.62Z" fill="#92B6DA"/>
</g>
<g opacity="0.5">
<path d="M123.86 133.85C123.86 133.85 123.82 133.87 123.82 133.84L122.44 127.46C122.44 127.46 122.44 127.4 122.47 127.38L127.13 123.31C127.13 123.31 127.17 123.3 127.18 123.33L128.04 129.01C128.04 129.01 128.04 129.08 128.01 129.1L123.87 133.85H123.86Z" fill="#92B6DA"/>
</g>
<g opacity="0.5">
<path d="M116.64 145.591C116.64 145.591 116.6 145.571 116.62 145.551L120.3 140.161C120.3 140.161 120.35 140.121 120.38 140.121L126.54 140.701C126.54 140.701 126.58 140.721 126.56 140.741L123.03 145.271C123.03 145.271 122.98 145.311 122.95 145.311L116.65 145.581L116.64 145.591Z" fill="#92B6DA"/>
</g>
<g opacity="0.5">
<path d="M139.88 135.578C139.88 135.578 139.85 135.549 139.88 135.539L145.47 132.169C145.47 132.169 145.53 132.159 145.56 132.169L150.91 135.268C150.91 135.268 150.93 135.309 150.91 135.319L145.81 137.958C145.81 137.958 145.74 137.968 145.72 137.958L139.89 135.578H139.88Z" fill="#92B6DA"/>
</g>
<g opacity="0.5">
<path d="M132.12 143.729C132.12 143.729 132.08 143.749 132.08 143.719L130.7 137.339C130.7 137.339 130.7 137.279 130.73 137.259L135.39 133.189C135.39 133.189 135.43 133.179 135.44 133.209L136.3 138.889C136.3 138.889 136.3 138.959 136.27 138.979L132.13 143.729H132.12Z" fill="#92B6DA"/>
</g>
<g opacity="0.5">
<path d="M124.9 155.47C124.9 155.47 124.86 155.45 124.88 155.43L128.56 150.04C128.56 150.04 128.61 150 128.64 150L134.8 150.58C134.8 150.58 134.84 150.6 134.82 150.62L131.29 155.15C131.29 155.15 131.24 155.19 131.21 155.19L124.91 155.46L124.9 155.47Z" fill="#92B6DA"/>
</g>
<g opacity="0.5">
<path d="M114.05 105.661C114.05 105.661 114.02 105.631 114.05 105.621L119.64 102.251C119.64 102.251 119.7 102.241 119.73 102.251L125.08 105.351C125.08 105.351 125.1 105.391 125.08 105.401L119.98 108.041C119.98 108.041 119.91 108.051 119.89 108.041L114.06 105.661H114.05Z" fill="#92B6DA"/>
</g>
<g opacity="0.5">
<path d="M99.0699 125.552C99.0699 125.552 99.0299 125.532 99.0499 125.512L102.73 120.122C102.73 120.122 102.78 120.082 102.81 120.082L108.97 120.662C108.97 120.662 109.01 120.682 108.99 120.702L105.46 125.232C105.46 125.232 105.41 125.272 105.38 125.272L99.0798 125.542L99.0699 125.552Z" fill="#92B6DA"/>
</g>
<g opacity="0.5">
<path d="M122.31 115.539C122.31 115.539 122.28 115.509 122.31 115.499L127.9 112.129C127.9 112.129 127.96 112.119 127.99 112.129L133.34 115.229C133.34 115.229 133.36 115.269 133.34 115.279L128.24 117.919C128.24 117.919 128.17 117.929 128.15 117.919L122.32 115.539H122.31Z" fill="#92B6DA"/>
</g>
<g opacity="0.5">
<path d="M114.56 123.69C114.56 123.69 114.52 123.71 114.52 123.68L113.14 117.3C113.14 117.3 113.14 117.24 113.17 117.22L117.83 113.15C117.83 113.15 117.87 113.14 117.88 113.17L118.74 118.85C118.74 118.85 118.74 118.92 118.71 118.94L114.57 123.69H114.56Z" fill="#92B6DA"/>
</g>
<g opacity="0.5">
<path d="M107.34 135.431C107.34 135.431 107.3 135.411 107.32 135.391L111 130.001C111 130.001 111.05 129.961 111.08 129.961L117.24 130.541C117.24 130.541 117.28 130.561 117.26 130.581L113.73 135.111C113.73 135.111 113.68 135.151 113.65 135.151L107.35 135.421L107.34 135.431Z" fill="#92B6DA"/>
</g>
<g opacity="0.5">
<path d="M144.58 104.717C144.58 104.717 144.54 104.737 144.54 104.707L143.16 98.3274C143.16 98.3274 143.16 98.2674 143.19 98.2474L147.85 94.1774C147.85 94.1774 147.89 94.1674 147.9 94.1974L148.76 99.8774C148.76 99.8774 148.76 99.9474 148.73 99.9674L144.59 104.717H144.58Z" fill="#92B6DA"/>
</g>
<g opacity="0.5">
<path d="M137.36 116.458C137.36 116.458 137.32 116.438 137.34 116.418L141.02 111.028C141.02 111.028 141.07 110.988 141.1 110.988L147.26 111.568C147.26 111.568 147.3 111.588 147.28 111.608L143.75 116.138C143.75 116.138 143.7 116.178 143.67 116.178L137.37 116.448L137.36 116.458Z" fill="#92B6DA"/>
</g>
<g opacity="0.5">
<path d="M152.84 114.596C152.84 114.596 152.8 114.616 152.8 114.586L151.42 108.206C151.42 108.206 151.42 108.146 151.45 108.126L156.11 104.056C156.11 104.056 156.15 104.046 156.16 104.076L157.02 109.756C157.02 109.756 157.02 109.826 156.99 109.846L152.85 114.596H152.84Z" fill="#92B6DA"/>
</g>
<g opacity="0.5">
<path d="M145.62 126.337C145.62 126.337 145.58 126.317 145.6 126.297L149.28 120.907C149.28 120.907 149.33 120.867 149.36 120.867L155.52 121.447C155.52 121.447 155.56 121.467 155.54 121.487L152.01 126.017C152.01 126.017 151.96 126.057 151.93 126.057L145.63 126.327L145.62 126.337Z" fill="#92B6DA"/>
</g>
<g opacity="0.5">
<path d="M117.2 56.4887C117.2 56.4887 117.17 56.4587 117.2 56.4487L122.79 53.0787C122.79 53.0787 122.85 53.0687 122.88 53.0787L128.23 56.1787C128.23 56.1787 128.25 56.2187 128.23 56.2287L123.13 58.8687C123.13 58.8687 123.06 58.8787 123.04 58.8687L117.21 56.4887H117.2Z" fill="#92B6DA"/>
</g>
<g opacity="0.5">
<path d="M125.46 66.3676C125.46 66.3676 125.43 66.3376 125.46 66.3276L131.05 62.9576C131.05 62.9576 131.11 62.9476 131.14 62.9576L136.49 66.0576C136.49 66.0576 136.51 66.0976 136.49 66.1076L131.39 68.7476C131.39 68.7476 131.32 68.7576 131.3 68.7476L125.47 66.3676H125.46Z" fill="#92B6DA"/>
</g>
<g opacity="0.5">
<path d="M117.7 74.5181C117.7 74.5181 117.66 74.5382 117.66 74.5082L116.28 68.1282C116.28 68.1282 116.28 68.0681 116.31 68.0481L120.97 63.9782C120.97 63.9782 121.01 63.9682 121.02 63.9982L121.88 69.6781C121.88 69.6781 121.88 69.7481 121.85 69.7681L117.71 74.5181H117.7Z" fill="#92B6DA"/>
</g>
<g opacity="0.5">
<path d="M110.48 86.2591C110.48 86.2591 110.44 86.2391 110.46 86.2191L114.14 80.829C114.14 80.829 114.19 80.7891 114.22 80.7891L120.38 81.369C120.38 81.369 120.42 81.3891 120.4 81.4091L116.87 85.9391C116.87 85.9391 116.82 85.9791 116.79 85.9791L110.49 86.2491L110.48 86.2591Z" fill="#92B6DA"/>
</g>
<g opacity="0.5">
<path d="M60.9398 135.759C60.9398 135.759 60.8998 135.739 60.9198 135.719L64.5999 130.329C64.5999 130.329 64.6498 130.289 64.6798 130.289L70.8398 130.869C70.8398 130.869 70.8798 130.889 70.8598 130.909L67.3298 135.439C67.3298 135.439 67.2798 135.479 67.2498 135.479L60.9498 135.749L60.9398 135.759Z" fill="#92B6DA"/>
</g>
<g opacity="0.5">
<path d="M84.1898 125.75C84.1898 125.75 84.1598 125.72 84.1898 125.71L89.7798 122.34C89.7798 122.34 89.8398 122.33 89.8698 122.34L95.2198 125.44C95.2198 125.44 95.2398 125.48 95.2198 125.49L90.1198 128.13C90.1198 128.13 90.0498 128.14 90.0298 128.13L84.1998 125.75H84.1898Z" fill="#92B6DA"/>
</g>
<g opacity="0.5">
<path d="M76.4298 133.901C76.4298 133.901 76.3898 133.921 76.3898 133.891L75.0098 127.511C75.0098 127.511 75.0098 127.451 75.0398 127.431L79.6998 123.361C79.6998 123.361 79.7398 123.351 79.7498 123.381L80.6098 129.061C80.6098 129.061 80.6098 129.131 80.5798 129.151L76.4398 133.901H76.4298Z" fill="#92B6DA"/>
</g>
<g opacity="0.5">
<path d="M69.2099 145.642C69.2099 145.642 69.1699 145.622 69.1899 145.602L72.8699 140.212C72.8699 140.212 72.9199 140.172 72.9499 140.172L79.1099 140.752C79.1099 140.752 79.1499 140.772 79.1299 140.792L75.5999 145.322C75.5999 145.322 75.5499 145.362 75.5199 145.362L69.2199 145.632L69.2099 145.642Z" fill="#92B6DA"/>
</g>
<g opacity="0.5">
<path d="M93.0498 135.828C93.0498 135.828 93.0198 135.799 93.0498 135.789L98.6398 132.419C98.6398 132.419 98.6998 132.409 98.7298 132.419L104.08 135.518C104.08 135.518 104.1 135.559 104.08 135.569L98.9798 138.208C98.9798 138.208 98.9098 138.218 98.8898 138.208L93.0598 135.828H93.0498Z" fill="#92B6DA"/>
</g>
<g opacity="0.5">
<path d="M85.2899 143.979C85.2899 143.979 85.2499 143.999 85.2499 143.969L83.8699 137.589C83.8699 137.589 83.8699 137.529 83.8999 137.509L88.5599 133.439C88.5599 133.439 88.5999 133.429 88.6099 133.459L89.4699 139.139C89.4699 139.139 89.4699 139.209 89.4399 139.229L85.2999 143.979H85.2899Z" fill="#92B6DA"/>
</g>
<g opacity="0.5">
<path d="M78.0699 155.72C78.0699 155.72 78.0299 155.7 78.0499 155.68L81.7298 150.29C81.7298 150.29 81.7798 150.25 81.8098 150.25L87.9698 150.83C87.9698 150.83 88.0099 150.85 87.9899 150.87L84.4599 155.4C84.4599 155.4 84.4099 155.44 84.3799 155.44L78.0798 155.71L78.0699 155.72Z" fill="#92B6DA"/>
</g>
<g opacity="0.5">
<path d="M101.31 145.707C101.31 145.707 101.28 145.677 101.31 145.667L106.9 142.297C106.9 142.297 106.96 142.287 106.99 142.297L112.34 145.397C112.34 145.397 112.36 145.437 112.34 145.447L107.24 148.087C107.24 148.087 107.17 148.097 107.15 148.087L101.32 145.707H101.31Z" fill="#92B6DA"/>
</g>
<g opacity="0.5">
<path d="M93.5499 153.858C93.5499 153.858 93.5099 153.878 93.5099 153.848L92.1299 147.468C92.1299 147.468 92.1299 147.408 92.1599 147.388L96.8199 143.318C96.8199 143.318 96.8599 143.308 96.8699 143.338L97.7299 149.018C97.7299 149.018 97.7299 149.088 97.6999 149.108L93.5599 153.858H93.5499Z" fill="#92B6DA"/>
</g>
<g opacity="0.5">
<path d="M86.3299 165.599C86.3299 165.599 86.2899 165.579 86.3099 165.559L89.9899 160.169C89.9899 160.169 90.0399 160.129 90.0699 160.129L96.2299 160.709C96.2299 160.709 96.2699 160.729 96.2499 160.749L92.7199 165.279C92.7199 165.279 92.6699 165.319 92.6399 165.319L86.3399 165.589L86.3299 165.599Z" fill="#92B6DA"/>
</g>
<g opacity="0.5">
<path d="M110.3 155.637C110.3 155.637 110.27 155.607 110.3 155.597L115.89 152.227C115.89 152.227 115.95 152.217 115.98 152.227L121.33 155.327C121.33 155.327 121.35 155.367 121.33 155.377L116.23 158.017C116.23 158.017 116.16 158.027 116.14 158.017L110.31 155.637H110.3Z" fill="#92B6DA"/>
</g>
<g opacity="0.5">
<path d="M102.54 163.776C102.54 163.776 102.5 163.796 102.5 163.766L101.12 157.386C101.12 157.386 101.12 157.326 101.15 157.306L105.81 153.236C105.81 153.236 105.85 153.226 105.86 153.256L106.72 158.936C106.72 158.936 106.72 159.006 106.69 159.026L102.55 163.776H102.54Z" fill="#92B6DA"/>
</g>
<g opacity="0.5">
<path d="M95.3199 175.517C95.3199 175.517 95.2799 175.497 95.2999 175.477L98.9798 170.087C98.9798 170.087 99.0298 170.047 99.0598 170.047L105.22 170.627C105.22 170.627 105.26 170.647 105.24 170.667L101.71 175.197C101.71 175.197 101.66 175.237 101.63 175.237L95.3298 175.507L95.3199 175.517Z" fill="#92B6DA"/>
</g>
<g opacity="0.5">
<path d="M118.56 165.516C118.56 165.516 118.53 165.486 118.56 165.476L124.15 162.106C124.15 162.106 124.21 162.096 124.24 162.106L129.59 165.206C129.59 165.206 129.61 165.246 129.59 165.256L124.49 167.896C124.49 167.896 124.42 167.906 124.4 167.896L118.57 165.516H118.56Z" fill="#92B6DA"/>
</g>
<g opacity="0.5">
<path d="M110.8 173.659C110.8 173.659 110.76 173.679 110.76 173.649L109.38 167.269C109.38 167.269 109.38 167.209 109.41 167.189L114.07 163.119C114.07 163.119 114.11 163.109 114.12 163.139L114.98 168.819C114.98 168.819 114.98 168.889 114.95 168.909L110.81 173.659H110.8Z" fill="#92B6DA"/>
</g>
<g opacity="0.5">
<path d="M103.58 185.396C103.58 185.396 103.54 185.376 103.56 185.356L107.24 179.966C107.24 179.966 107.29 179.926 107.32 179.926L113.48 180.506C113.48 180.506 113.52 180.526 113.5 180.546L109.97 185.076C109.97 185.076 109.92 185.116 109.89 185.116L103.59 185.386L103.58 185.396Z" fill="#92B6DA"/>
</g>
</g>
<path d="M168.643 202.07C174.114 215.524 173.332 232.302 172.613 248.246C172.457 251.601 169.102 254.905 171.551 259.188C181.94 242.379 200.5 223.475 220.644 217.118C212.651 237.616 196.405 254.071 178.741 265.305C182.816 267.4 185.911 265.18 189.433 264.742C207.305 262.533 225.208 263.627 243.111 271.537C221.999 281.103 199.364 280.905 176.407 275.955C187.067 283.521 198.895 291.972 206.586 302.331C212.005 309.636 217.674 316.534 220.394 326.153C199.322 318.16 183.493 302.654 171.394 284.136C169.383 288.158 172.301 291.555 172.509 295.088C173.51 312.689 174.302 332.083 165.558 348.391C160.181 338.054 159.014 327.32 158.045 316.514C156.961 304.529 158.899 294.161 161.39 281.979C149.291 300.059 132.326 318.994 110.754 325.757C119.685 303.842 135.723 288.158 155.075 276.039C141.809 278.362 130.304 280.394 117.778 278.821C107.743 277.56 97.5406 276.81 88.3701 271.412C109.254 262.054 129.648 262.679 152.668 265.951C134.577 253.029 118.768 238.679 110.702 216.858C131.44 224.423 148.812 241.691 160.911 260.636L158.107 241.097C156.263 228.217 159.723 208.198 164.568 195.828C167.486 195.245 168.278 199.465 168.653 202.07H168.643Z" fill="#603813"/>
<rect x="89.1045" y="347.668" width="15.4172" height="0.203125" fill="#DCD6CB"/>
<rect x="89.3108" y="347.539" width="15.168" height="0.273438" fill="#DCD6CB"/>
<line x1="104.181" y1="347.704" x2="104.499" y2="347.569" stroke="#DCD6CB"/>
<line x1="89.0832" y1="348.079" x2="88.8914" y2="347.792" stroke="#DCD6CB"/>
</svg>
