<svg width="321" height="634" viewBox="0 0 321 634" fill="none" xmlns="http://www.w3.org/2000/svg">
<path d="M104.832 12.15C95.8973 15.13 94.668 27.31 102.843 32.01C111.997 37.27 121.102 43.38 121.102 50.76V113.69C121.102 117.37 118.493 120.52 114.886 121.22C94.0784 125.21 27.539 142.37 15.5563 200.28C11.7486 218.71 10.5693 238.38 10.8991 257.3C11.6786 302.61 21.3927 347.32 38.882 389.13C55.5619 428.99 80.6566 496.01 84.5042 546.53C85.2837 556.75 80.5866 566.59 72.2717 572.58C65.5258 577.43 59.6394 582.65 59.6394 589.89C59.6394 602.15 81.9758 629.25 163.796 629.25C195.207 629.25 218.083 624.09 234.343 617.74C253.891 610.1 256.259 583.37 238.32 572.46C238.071 572.31 237.821 572.16 237.561 572C235.092 570.5 233.673 567.75 233.873 564.87C236.541 526.09 277.467 408.75 294.236 352.77C300.233 332.75 323.289 252.5 302.541 189.61C285.382 137.62 227.647 124.55 208.139 121.59C204.401 121.02 201.643 117.8 201.643 114.02V52.29C201.643 51.2 201.873 50.13 202.322 49.14C204.681 43.94 230.775 38.01 230.775 27C230.775 14.99 217.603 4.5 159.648 4.5C134.664 4.5 116.854 8.17 104.842 12.17L104.832 12.15Z" fill="#DCD6CB"/>
<path d="M104.832 12.15C95.8973 15.13 94.668 27.31 102.843 32.01C111.997 37.27 121.102 43.38 121.102 50.76V113.69C121.102 117.37 118.493 120.52 114.886 121.22C94.0784 125.21 27.539 142.37 15.5563 200.28C11.7486 218.71 10.5693 238.38 10.8991 257.3C11.6786 302.61 21.3927 347.32 38.882 389.13C55.5619 428.99 80.6566 496.01 84.5042 546.53C85.2837 556.75 80.5866 566.59 72.2717 572.58C65.5258 577.43 59.6394 582.65 59.6394 589.89C59.6394 602.15 81.9758 629.25 163.796 629.25C195.207 629.25 218.083 624.09 234.343 617.74C253.891 610.1 256.259 583.37 238.32 572.46C238.071 572.31 237.821 572.16 237.561 572C235.092 570.5 233.673 567.75 233.873 564.87C236.541 526.09 277.467 408.75 294.236 352.77C300.233 332.75 323.289 252.5 302.541 189.61C285.382 137.62 227.647 124.55 208.139 121.59C204.401 121.02 201.643 117.8 201.643 114.02V52.29C201.643 51.2 201.873 50.13 202.322 49.14C204.681 43.94 230.775 38.01 230.775 27C230.775 14.99 217.603 4.5 159.648 4.5C134.664 4.5 116.854 8.17 104.842 12.17L104.832 12.15Z" stroke="#DCD6CB" stroke-width="9" stroke-miterlimit="10"/>
<mask id="mask0_190_45108" style="mask-type:alpha" maskUnits="userSpaceOnUse" x="0" y="154" width="322" height="194">
<path d="M320.5 346.73H208.643L186.713 321.815L185.921 320.916L185.839 322.111L184.152 346.73H129.299L122.004 338.442L121.213 337.544L121.13 338.738L120.574 346.73H105.032L100.998 337.15L100.73 336.517L100.209 336.967L88.9155 346.73H74.3042L60.2427 313.412L59.2837 313.572L57.019 346.73H43.0337L16.4175 331.24L15.7212 330.835L15.6665 331.638L14.6401 346.73H0.695801V162.422C15.4371 167.029 33.8133 170.921 54.8306 173.86V173.859C57.3889 174.242 59.9808 174.585 62.6284 174.908L75.689 187.851L76.5405 188.694V176.479C79.7367 176.819 82.9935 177.124 86.2915 177.402L117.97 208.804L118.823 209.648V179.414C129.045 179.841 139.567 180.041 150.286 180.041H152.927L160.12 208.561L161.104 208.438V179.962C165.245 179.919 169.352 179.83 173.404 179.691L173.403 179.69C176.218 179.618 178.998 179.527 181.765 179.414L181.764 179.413C187.198 179.202 192.563 178.929 197.836 178.59L202.439 187.71L202.75 188.324L203.238 187.84L213.727 177.443C218.671 177.016 223.503 176.539 228.245 176.025L244.721 208.674L245.667 208.448V173.881C249.111 173.401 252.49 172.887 255.802 172.362L287.227 187.943L287.949 188.301V165.809C293.269 164.446 298.216 163.016 302.791 161.501L308.238 166.896L308.565 166.565L308.903 166.932L308.915 166.922L309.328 166.568L309.299 166.54L320.5 155.43V346.73Z" fill="#C59B6D" stroke="#C59B6D"/>
</mask>
<g mask="url(#mask0_190_45108)">
<path d="M159.648 6C188.612 6 206.316 8.62375 216.762 12.7119C221.98 14.7537 225.352 17.148 227.421 19.7305C229.482 22.3038 230.275 25.0971 230.275 28C230.275 30.5409 228.771 32.8508 226.331 34.998C223.896 37.1407 220.607 39.0531 217.205 40.8037C215.507 41.6775 213.789 42.5073 212.143 43.3027C210.501 44.0967 208.929 44.8587 207.531 45.5928C206.135 46.3259 204.897 47.0397 203.928 47.7422C202.973 48.4351 202.218 49.1603 201.867 49.9336C201.388 50.989 201.142 52.1295 201.142 53.29V115.02C201.142 119.046 204.081 122.477 208.063 123.084H208.064C217.789 124.56 237.038 128.556 255.985 138.655C274.928 148.752 293.539 164.931 302.066 190.767C312.406 222.109 311.838 257.808 307.922 288.202C304.007 318.588 296.753 343.626 293.758 353.627C285.37 381.627 270.959 424.914 258.289 466.123C251.957 486.716 246.065 506.777 241.589 524.116C237.114 541.446 234.045 556.09 233.375 565.835C233.169 568.805 234.58 571.647 237.058 573.273L237.302 573.428L238.063 573.889C255.507 584.5 253.359 610.377 234.607 618.096L234.161 618.274C217.965 624.599 195.151 629.75 163.796 629.75C122.934 629.75 96.983 622.982 81.2673 614.725C65.5251 606.453 60.1394 596.746 60.1394 590.89C60.1395 587.418 61.5472 584.412 63.8123 581.656C66.0836 578.893 69.1968 576.407 72.5632 573.986L72.5642 573.985C81.0168 567.896 85.7957 557.89 85.0027 547.492C81.2686 498.464 57.5712 433.971 40.9304 393.752L39.3435 389.937C21.8777 348.183 12.1776 303.535 11.3992 258.291C11.0698 239.396 12.2476 219.764 16.0457 201.381C21.9982 172.614 41.5016 153.948 62.1628 141.963C82.8273 129.976 104.602 124.701 114.98 122.711H114.981C118.823 121.965 121.602 118.61 121.602 114.69V51.7598C121.602 47.856 119.196 44.3581 115.742 41.2197C112.278 38.073 107.672 35.2077 103.093 32.5762C95.4181 28.164 96.4287 16.8415 104.582 13.7686L104.589 13.7812L105 13.6445C116.958 9.66272 134.713 6.00002 159.648 6Z" fill="#C59B6D" stroke="#C59B6D"/>
<path d="M104.832 13.15C95.8973 16.13 94.668 28.31 102.843 33.01C111.997 38.27 121.102 44.38 121.102 51.76V114.69C121.102 118.37 118.493 121.52 114.886 122.22C94.0784 126.21 27.539 143.37 15.5563 201.28C11.7486 219.71 10.5693 239.38 10.8991 258.3C11.6786 303.61 21.3927 348.32 38.882 390.13C55.5619 429.99 80.6566 497.01 84.5042 547.53C85.2837 557.75 80.5866 567.59 72.2717 573.58C65.5258 578.43 59.6394 583.65 59.6394 590.89C59.6394 603.15 81.9758 630.25 163.796 630.25C195.207 630.25 218.083 625.09 234.343 618.74C253.891 611.1 256.259 584.37 238.32 573.46C238.071 573.31 237.821 573.16 237.561 573C235.092 571.5 233.673 568.75 233.873 565.87C236.541 527.09 277.467 409.75 294.236 353.77C300.233 333.75 323.289 253.5 302.541 190.61C285.382 138.62 227.647 125.55 208.139 122.59C204.401 122.02 201.643 118.8 201.643 115.02V53.29C201.643 52.2 201.873 51.13 202.322 50.14C204.681 44.94 230.775 39.01 230.775 28C230.775 15.99 217.603 5.5 159.648 5.5C134.664 5.5 116.854 9.17 104.842 13.17L104.832 13.15Z" stroke="#C59B6D" stroke-width="9" stroke-miterlimit="10"/>
</g>
<path d="M75.5096 561.691C114.916 575.341 157.62 582.831 198.954 575.001C212.636 572.421 225.888 567.811 238.61 561.691C221.061 573.721 199.894 580.461 178.697 582.411C143.688 585.511 106.681 577.801 75.5096 561.691Z" fill="#E2E3E2"/>
<path d="M256.879 152.199C278.886 160.629 290.938 187.919 295.176 209.649C299.783 232.919 298.963 257.119 294.716 280.349C294.996 251.299 294.926 221.769 285.931 193.909C280.535 177.819 271.87 161.149 256.879 152.199Z" fill="#E7E2D5"/>
<path d="M65.9457 151.401C59.5896 154.961 54.5426 160.421 50.1953 166.171C44.2689 174.311 40.0115 183.561 36.8834 193.111C27.8889 220.971 27.8189 250.501 28.0988 279.551C23.6115 254.871 22.892 229.041 28.5985 204.471C33.3556 184.051 45.2083 159.321 65.9357 151.391L65.9457 151.401Z" fill="#E7E2D5"/>
<path d="M126.069 52.8906C137.042 69.4706 136.093 95.2706 127.288 112.631C127.478 108.751 127.978 105.051 128.248 101.221C129.697 85.0606 129.417 68.8606 126.069 52.8906Z" fill="#E7E2D5"/>
<path d="M197.086 53.3906C193.738 69.3606 193.458 85.5706 194.907 101.721C195.177 105.541 195.677 109.241 195.866 113.131C187.062 95.7706 186.112 69.9806 197.086 53.3906Z" fill="#E7E2D5"/>
<path d="M32.1755 382.118C32.1755 382.118 160.757 371.518 279.834 381.538C264.824 401.558 256.319 406.568 256.319 406.568L32.1755 382.118Z" fill="#584B5A"/>
<path d="M31.7262 382.001C31.7262 382.001 95.5173 361.651 152.552 382.001C209.588 402.351 280.884 380.841 280.884 380.841C280.884 380.841 226.847 508.191 226.847 552.961C171.311 574.481 97.7659 555.291 97.7659 555.291C97.7659 555.291 101.514 490.741 31.7262 382.011V382.001Z" fill="#231F20"/>
<g opacity="0.5">
<g opacity="0.5">
<path d="M62.5076 152.729C62.5076 152.729 62.4776 152.699 62.5076 152.689L68.0442 149.239C68.0442 149.239 68.1042 149.219 68.1342 149.239L73.5309 152.259C73.5309 152.259 73.5509 152.299 73.5309 152.309L68.4739 155.029C68.4739 155.029 68.414 155.049 68.384 155.029L62.5176 152.739L62.5076 152.729Z" fill="#92B6DA"/>
</g>
<g opacity="0.5">
<path d="M54.8821 160.998C54.8821 160.998 54.8421 161.018 54.8421 160.988L53.363 154.628C53.363 154.628 53.363 154.568 53.393 154.548L57.9902 150.408C57.9902 150.408 58.0302 150.398 58.0402 150.428L58.9896 156.098C58.9896 156.098 58.9896 156.168 58.9696 156.188L54.9121 161.008L54.8821 160.998Z" fill="#92B6DA"/>
</g>
<g opacity="0.5">
<path d="M47.8464 172.85C47.8464 172.85 47.8064 172.83 47.8264 172.81L51.4142 167.36C51.4142 167.36 51.4642 167.32 51.4942 167.32L57.6604 167.8C57.6604 167.8 57.7004 167.82 57.6804 167.84L54.2225 172.43C54.2225 172.43 54.1725 172.47 54.1425 172.47L47.8564 172.84L47.8464 172.85Z" fill="#92B6DA"/>
</g>
<g opacity="0.5">
<path d="M70.9124 162.479C70.9124 162.479 70.8824 162.449 70.9124 162.439L76.449 158.989C76.449 158.989 76.509 158.969 76.5389 158.989L81.9356 162.009C81.9356 162.009 81.9556 162.049 81.9356 162.059L76.8787 164.779C76.8787 164.779 76.8188 164.799 76.7888 164.779L70.9224 162.489L70.9124 162.479Z" fill="#92B6DA"/>
</g>
<g opacity="0.5">
<path d="M63.2869 170.748C63.2869 170.748 63.2469 170.768 63.2469 170.738L61.7678 164.378C61.7678 164.378 61.7678 164.318 61.7978 164.298L66.395 160.158C66.395 160.158 66.435 160.148 66.445 160.178L67.3944 165.848C67.3944 165.848 67.3944 165.918 67.3744 165.938L63.3169 170.758L63.2869 170.748Z" fill="#92B6DA"/>
</g>
<g opacity="0.5">
<path d="M56.2612 182.6C56.2612 182.6 56.2212 182.58 56.2412 182.56L59.829 177.11C59.829 177.11 59.879 177.07 59.909 177.07L66.0752 177.55C66.0752 177.55 66.1152 177.57 66.0952 177.59L62.6373 182.18C62.6373 182.18 62.5873 182.22 62.5573 182.22L56.2712 182.59L56.2612 182.6Z" fill="#92B6DA"/>
</g>
<g opacity="0.5">
<path d="M62.0877 200.71C62.0877 200.71 62.0577 200.68 62.0877 200.67L67.6243 197.22C67.6243 197.22 67.6842 197.2 67.7142 197.22L73.1109 200.24C73.1109 200.24 73.1309 200.28 73.1109 200.29L68.054 203.01C68.054 203.01 67.9941 203.03 67.9641 203.01L62.0977 200.72L62.0877 200.71Z" fill="#92B6DA"/>
</g>
<g opacity="0.5">
<path d="M54.4622 208.978C54.4622 208.978 54.4222 208.998 54.4222 208.968L52.9431 202.608C52.9431 202.608 52.9431 202.548 52.9731 202.528L57.5703 198.388C57.5703 198.388 57.6103 198.378 57.6203 198.408L58.5697 204.078C58.5697 204.078 58.5697 204.148 58.5497 204.168L54.4922 208.988L54.4622 208.978Z" fill="#92B6DA"/>
</g>
<g opacity="0.5">
<path d="M47.4265 220.831C47.4265 220.831 47.3865 220.811 47.4065 220.791L50.9943 215.341C50.9943 215.341 51.0443 215.301 51.0742 215.301L57.2405 215.781C57.2405 215.781 57.2805 215.801 57.2605 215.821L53.8026 220.411C53.8026 220.411 53.7526 220.451 53.7226 220.451L47.4365 220.821L47.4265 220.831Z" fill="#92B6DA"/>
</g>
<g opacity="0.5">
<path d="M70.4925 210.46C70.4925 210.46 70.4625 210.43 70.4925 210.42L76.0291 206.97C76.0291 206.97 76.089 206.95 76.119 206.97L81.5157 209.99C81.5157 209.99 81.5357 210.03 81.5157 210.04L76.4588 212.76C76.4588 212.76 76.3989 212.78 76.3689 212.76L70.5024 210.47L70.4925 210.46Z" fill="#92B6DA"/>
</g>
<g opacity="0.5">
<path d="M62.867 218.728C62.867 218.728 62.827 218.748 62.827 218.718L61.3479 212.358C61.3479 212.358 61.3479 212.298 61.3779 212.278L65.9751 208.138C65.9751 208.138 66.0151 208.128 66.025 208.158L66.9745 213.828C66.9745 213.828 66.9745 213.898 66.9545 213.918L62.897 218.738L62.867 218.728Z" fill="#92B6DA"/>
</g>
<g opacity="0.5">
<path d="M55.8413 230.581C55.8413 230.581 55.8013 230.561 55.8213 230.541L59.4091 225.091C59.4091 225.091 59.459 225.051 59.489 225.051L65.6553 225.531C65.6553 225.531 65.6952 225.551 65.6753 225.571L62.2174 230.161C62.2174 230.161 62.1674 230.201 62.1374 230.201L55.8513 230.571L55.8413 230.581Z" fill="#92B6DA"/>
</g>
<g opacity="0.5">
<path d="M44.2188 180.94C44.2188 180.94 44.1888 180.91 44.2188 180.9L49.7554 177.45C49.7554 177.45 49.8154 177.43 49.8453 177.45L55.242 180.47C55.242 180.47 55.262 180.51 55.242 180.52L50.1851 183.24C50.1851 183.24 50.1252 183.26 50.0952 183.24L44.2288 180.95L44.2188 180.94Z" fill="#92B6DA"/>
</g>
<g opacity="0.5">
<path d="M36.5934 189.209C36.5934 189.209 36.5534 189.229 36.5534 189.199L35.0743 182.839C35.0743 182.839 35.0743 182.779 35.1043 182.759L39.7015 178.619C39.7015 178.619 39.7415 178.609 39.7515 178.639L40.7009 184.309C40.7009 184.309 40.7009 184.379 40.6809 184.399L36.6234 189.219L36.5934 189.209Z" fill="#92B6DA"/>
</g>
<g opacity="0.5">
<path d="M29.5576 201.061C29.5576 201.061 29.5176 201.041 29.5376 201.021L33.1254 195.571C33.1254 195.571 33.1754 195.531 33.2053 195.531L39.3716 196.011C39.3716 196.011 39.4116 196.031 39.3916 196.051L35.9337 200.641C35.9337 200.641 35.8837 200.681 35.8537 200.681L29.5676 201.051L29.5576 201.061Z" fill="#92B6DA"/>
</g>
<g opacity="0.5">
<path d="M52.6236 190.69C52.6236 190.69 52.5936 190.66 52.6236 190.65L58.1602 187.2C58.1602 187.2 58.2201 187.18 58.2501 187.2L63.6468 190.22C63.6468 190.22 63.6668 190.26 63.6468 190.27L58.5899 192.99C58.5899 192.99 58.5299 193.01 58.5 192.99L52.6336 190.7L52.6236 190.69Z" fill="#92B6DA"/>
</g>
<g opacity="0.5">
<path d="M44.9982 198.959C44.9982 198.959 44.9582 198.979 44.9582 198.949L43.4791 192.589C43.4791 192.589 43.4791 192.529 43.5091 192.509L48.1063 188.369C48.1063 188.369 48.1463 188.359 48.1563 188.389L49.1057 194.059C49.1057 194.059 49.1057 194.129 49.0857 194.149L45.0282 198.969L44.9982 198.959Z" fill="#92B6DA"/>
</g>
<g opacity="0.5">
<path d="M37.9724 210.811C37.9724 210.811 37.9324 210.791 37.9524 210.771L41.5402 205.321C41.5402 205.321 41.5902 205.281 41.6201 205.281L47.7864 205.761C47.7864 205.761 47.8264 205.781 47.8064 205.801L44.3485 210.391C44.3485 210.391 44.2985 210.431 44.2685 210.431L37.9824 210.801L37.9724 210.811Z" fill="#92B6DA"/>
</g>
<g opacity="0.5">
<path d="M82.3355 171.261C82.3355 171.261 82.3055 171.231 82.3355 171.221L87.8721 167.771C87.8721 167.771 87.9321 167.751 87.962 167.771L93.3587 170.791C93.3587 170.791 93.3787 170.831 93.3587 170.841L88.3018 173.561C88.3018 173.561 88.2419 173.581 88.2119 173.561L82.3455 171.271L82.3355 171.261Z" fill="#92B6DA"/>
</g>
<g opacity="0.5">
<path d="M74.71 179.529C74.71 179.529 74.67 179.549 74.67 179.519L73.1909 173.159C73.1909 173.159 73.1909 173.099 73.2209 173.079L77.8181 168.939C77.8181 168.939 77.8581 168.929 77.8681 168.959L78.8175 174.629C78.8175 174.629 78.8175 174.699 78.7975 174.719L74.74 179.539L74.71 179.529Z" fill="#92B6DA"/>
</g>
<g opacity="0.5">
<path d="M67.6743 191.382C67.6743 191.382 67.6343 191.362 67.6543 191.342L71.2421 185.892C71.2421 185.892 71.2921 185.852 71.322 185.852L77.4883 186.332C77.4883 186.332 77.5283 186.352 77.5083 186.372L74.0504 190.962C74.0504 190.962 74.0004 191.002 73.9704 191.002L67.6843 191.372L67.6743 191.382Z" fill="#92B6DA"/>
</g>
<g opacity="0.5">
<path d="M90.7403 181.011C90.7403 181.011 90.7103 180.981 90.7403 180.971L96.2769 177.521C96.2769 177.521 96.3368 177.501 96.3668 177.521L101.764 180.541C101.764 180.541 101.784 180.581 101.764 180.591L96.7066 183.311C96.7066 183.311 96.6466 183.331 96.6167 183.311L90.7502 181.021L90.7403 181.011Z" fill="#92B6DA"/>
</g>
<g opacity="0.5">
<path d="M83.1148 189.279C83.1148 189.279 83.0748 189.299 83.0748 189.269L81.5957 182.909C81.5957 182.909 81.5957 182.849 81.6257 182.829L86.2229 178.689C86.2229 178.689 86.2629 178.679 86.2729 178.709L87.2223 184.379C87.2223 184.379 87.2223 184.449 87.2023 184.469L83.1448 189.289L83.1148 189.279Z" fill="#92B6DA"/>
</g>
<g opacity="0.5">
<path d="M76.0891 201.132C76.0891 201.132 76.0491 201.112 76.0691 201.092L79.6569 195.642C79.6569 195.642 79.7069 195.602 79.7368 195.602L85.9031 196.082C85.9031 196.082 85.9431 196.102 85.9231 196.122L82.4652 200.712C82.4652 200.712 82.4152 200.752 82.3852 200.752L76.0991 201.122L76.0891 201.132Z" fill="#92B6DA"/>
</g>
<g opacity="0.5">
<path d="M28.2085 162.038C28.2085 162.038 28.1785 162.008 28.2085 161.998L33.7451 158.548C33.7451 158.548 33.8051 158.528 33.8351 158.548L39.2318 161.568C39.2318 161.568 39.2518 161.608 39.2318 161.618L34.1749 164.338C34.1749 164.338 34.1149 164.358 34.0849 164.338L28.2185 162.048L28.2085 162.038Z" fill="#92B6DA"/>
</g>
<g opacity="0.5">
<path d="M20.5832 170.299C20.5832 170.299 20.5432 170.319 20.5432 170.289L19.0641 163.929C19.0641 163.929 19.0641 163.869 19.0941 163.849L23.6913 159.709C23.6913 159.709 23.7312 159.699 23.7412 159.729L24.6907 165.399C24.6907 165.399 24.6907 165.469 24.6707 165.489L20.6131 170.309L20.5832 170.299Z" fill="#92B6DA"/>
</g>
<g opacity="0.5">
<path d="M13.5473 182.159C13.5473 182.159 13.5073 182.139 13.5273 182.119L17.1151 176.669C17.1151 176.669 17.1651 176.629 17.1951 176.629L23.3613 177.109C23.3613 177.109 23.4013 177.129 23.3813 177.149L19.9234 181.739C19.9234 181.739 19.8735 181.779 19.8435 181.779L13.5573 182.149L13.5473 182.159Z" fill="#92B6DA"/>
</g>
<g opacity="0.5">
<path d="M36.6133 171.776C36.6133 171.776 36.5833 171.746 36.6133 171.736L42.1499 168.286C42.1499 168.286 42.2099 168.266 42.2399 168.286L47.6366 171.306C47.6366 171.306 47.6566 171.346 47.6366 171.356L42.5797 174.076C42.5797 174.076 42.5197 174.096 42.4897 174.076L36.6233 171.786L36.6133 171.776Z" fill="#92B6DA"/>
</g>
<g opacity="0.5">
<path d="M28.9879 180.049C28.9879 180.049 28.948 180.069 28.948 180.039L27.4689 173.679C27.4689 173.679 27.4689 173.619 27.4989 173.599L32.096 169.459C32.096 169.459 32.136 169.449 32.146 169.479L33.0954 175.149C33.0954 175.149 33.0954 175.219 33.0755 175.239L29.0179 180.059L28.9879 180.049Z" fill="#92B6DA"/>
</g>
<g opacity="0.5">
<path d="M21.9621 191.909C21.9621 191.909 21.9221 191.889 21.9421 191.869L25.5299 186.419C25.5299 186.419 25.5799 186.379 25.6099 186.379L31.7761 186.859C31.7761 186.859 31.8161 186.879 31.7961 186.899L28.3382 191.489C28.3382 191.489 28.2882 191.529 28.2583 191.529L21.9721 191.899L21.9621 191.909Z" fill="#92B6DA"/>
</g>
<g opacity="0.5">
<path d="M31.9362 151.85C31.9362 151.85 31.8963 151.83 31.9162 151.81L35.5041 146.36C35.5041 146.36 35.554 146.32 35.584 146.32L41.7502 146.8C41.7502 146.8 41.7902 146.82 41.7702 146.84L38.3123 151.43C38.3123 151.43 38.2624 151.47 38.2324 151.47L31.9462 151.84L31.9362 151.85Z" fill="#92B6DA"/>
</g>
<g opacity="0.5">
<path d="M55.0021 141.479C55.0021 141.479 54.9721 141.449 55.0021 141.439L60.5387 137.989C60.5387 137.989 60.5987 137.969 60.6287 137.989L66.0254 141.009C66.0254 141.009 66.0454 141.049 66.0254 141.059L60.9685 143.779C60.9685 143.779 60.9085 143.799 60.8785 143.779L55.0121 141.489L55.0021 141.479Z" fill="#92B6DA"/>
</g>
<g opacity="0.5">
<path d="M47.3767 149.74C47.3767 149.74 47.3368 149.76 47.3368 149.73L45.8577 143.37C45.8577 143.37 45.8577 143.31 45.8876 143.29L50.4848 139.15C50.4848 139.15 50.5248 139.14 50.5348 139.17L51.4842 144.84C51.4842 144.84 51.4842 144.91 51.4642 144.93L47.4067 149.75L47.3767 149.74Z" fill="#92B6DA"/>
</g>
<g opacity="0.5">
<path d="M40.351 161.6C40.351 161.6 40.311 161.58 40.331 161.56L43.9188 156.11C43.9188 156.11 43.9688 156.07 43.9988 156.07L50.165 156.55C50.165 156.55 50.205 156.57 50.185 156.59L46.7271 161.18C46.7271 161.18 46.6772 161.22 46.6472 161.22L40.361 161.59L40.351 161.6Z" fill="#92B6DA"/>
</g>
<g opacity="0.5">
<path d="M6.27175 191.749C6.27175 191.749 6.24177 191.719 6.27175 191.709L11.8084 188.259C11.8084 188.259 11.8683 188.239 11.8983 188.259L17.295 191.279C17.295 191.279 17.315 191.319 17.295 191.329L12.2381 194.049C12.2381 194.049 12.1781 194.069 12.1482 194.049L6.28174 191.759L6.27175 191.749Z" fill="#92B6DA"/>
</g>
<g opacity="0.5">
<path d="M14.6868 201.499C14.6868 201.499 14.6568 201.469 14.6868 201.459L20.2234 198.009C20.2234 198.009 20.2834 197.989 20.3134 198.009L25.7101 201.029C25.7101 201.029 25.73 201.069 25.7101 201.079L20.6531 203.799C20.6531 203.799 20.5932 203.819 20.5632 203.799L14.6968 201.509L14.6868 201.499Z" fill="#92B6DA"/>
</g>
<g opacity="0.5">
<path d="M7.06131 209.767C7.06131 209.767 7.02134 209.787 7.02134 209.757L5.54224 203.397C5.54224 203.397 5.54224 203.337 5.57222 203.317L10.1694 199.177C10.1694 199.177 10.2094 199.167 10.2194 199.197L11.1688 204.867C11.1688 204.867 11.1688 204.937 11.1488 204.957L7.09129 209.777L7.06131 209.767Z" fill="#92B6DA"/>
</g>
<g opacity="0.5">
<path d="M0.0255848 221.62C0.0255848 221.62 -0.0143913 221.6 0.00559654 221.58L3.59341 216.13C3.59341 216.13 3.64338 216.09 3.67336 216.09L9.8396 216.57C9.8396 216.57 9.87957 216.59 9.85958 216.61L6.40169 221.2C6.40169 221.2 6.35173 221.24 6.32174 221.24L0.035577 221.61L0.0255848 221.62Z" fill="#92B6DA"/>
</g>
<g opacity="0.5">
<path d="M23.7014 211.44C23.7014 211.44 23.6715 211.41 23.7014 211.4L29.2381 207.95C29.2381 207.95 29.298 207.93 29.328 207.95L34.7247 210.97C34.7247 210.97 34.7447 211.01 34.7247 211.02L29.6678 213.74C29.6678 213.74 29.6078 213.76 29.5779 213.74L23.7114 211.45L23.7014 211.44Z" fill="#92B6DA"/>
</g>
<g opacity="0.5">
<path d="M16.076 219.709C16.076 219.709 16.036 219.729 16.036 219.699L14.5569 213.339C14.5569 213.339 14.5569 213.279 14.5869 213.259L19.1841 209.119C19.1841 209.119 19.224 209.109 19.234 209.139L20.1834 214.809C20.1834 214.809 20.1835 214.879 20.1635 214.899L16.1059 219.719L16.076 219.709Z" fill="#92B6DA"/>
</g>
<g opacity="0.5">
<path d="M9.04023 231.561C9.04023 231.561 9.00026 231.541 9.02025 231.521L12.6081 226.071C12.6081 226.071 12.658 226.031 12.688 226.031L18.8542 226.511C18.8542 226.511 18.8942 226.531 18.8742 226.551L15.4163 231.141C15.4163 231.141 15.3664 231.181 15.3364 231.181L9.05023 231.551L9.04023 231.561Z" fill="#92B6DA"/>
</g>
<g opacity="0.5">
<path d="M32.1162 221.19C32.1162 221.19 32.0862 221.16 32.1162 221.15L37.6529 217.7C37.6529 217.7 37.7128 217.68 37.7428 217.7L43.1395 220.72C43.1395 220.72 43.1595 220.76 43.1395 220.77L38.0826 223.49C38.0826 223.49 38.0226 223.51 37.9926 223.49L32.1262 221.2L32.1162 221.19Z" fill="#92B6DA"/>
</g>
<g opacity="0.5">
<path d="M24.4907 229.459C24.4907 229.459 24.4508 229.479 24.4508 229.449L22.9717 223.089C22.9717 223.089 22.9717 223.029 23.0017 223.009L27.5989 218.869C27.5989 218.869 27.6388 218.859 27.6488 218.889L28.5982 224.559C28.5982 224.559 28.5982 224.629 28.5783 224.649L24.5207 229.469L24.4907 229.459Z" fill="#92B6DA"/>
</g>
<g opacity="0.5">
<path d="M17.455 241.311C17.455 241.311 17.4151 241.291 17.435 241.271L21.0228 235.821C21.0228 235.821 21.0728 235.781 21.1028 235.781L27.269 236.261C27.269 236.261 27.309 236.281 27.289 236.301L23.8311 240.891C23.8311 240.891 23.7812 240.931 23.7512 240.931L17.465 241.301L17.455 241.311Z" fill="#92B6DA"/>
</g>
<g opacity="0.5">
<path d="M41.2505 230.968C41.2505 230.968 41.2205 230.938 41.2505 230.928L46.7871 227.478C46.7871 227.478 46.8471 227.458 46.8771 227.478L52.2738 230.498C52.2738 230.498 52.2938 230.538 52.2738 230.548L47.2169 233.268C47.2169 233.268 47.1569 233.288 47.1269 233.268L41.2605 230.978L41.2505 230.968Z" fill="#92B6DA"/>
</g>
<g opacity="0.5">
<path d="M33.6251 239.236C33.6251 239.236 33.5852 239.256 33.5852 239.226L32.1061 232.866C32.1061 232.866 32.1061 232.806 32.1361 232.786L36.7333 228.646C36.7333 228.646 36.7732 228.636 36.7832 228.666L37.7326 234.336C37.7326 234.336 37.7326 234.406 37.7127 234.426L33.6551 239.246L33.6251 239.236Z" fill="#92B6DA"/>
</g>
<g opacity="0.5">
<path d="M26.5893 251.089C26.5893 251.089 26.5493 251.069 26.5693 251.049L30.1571 245.599C30.1571 245.599 30.2071 245.559 30.2371 245.559L36.4033 246.039C36.4033 246.039 36.4433 246.059 36.4233 246.079L32.9654 250.669C32.9654 250.669 32.9154 250.709 32.8855 250.709L26.5993 251.079L26.5893 251.089Z" fill="#92B6DA"/>
</g>
<g opacity="0.5">
<path d="M49.6553 240.718C49.6553 240.718 49.6253 240.688 49.6553 240.678L55.1919 237.228C55.1919 237.228 55.2519 237.208 55.2819 237.228L60.6786 240.248C60.6786 240.248 60.6986 240.288 60.6786 240.298L55.6217 243.018C55.6217 243.018 55.5617 243.038 55.5317 243.018L49.6653 240.728L49.6553 240.718Z" fill="#92B6DA"/>
</g>
<g opacity="0.5">
<path d="M42.0299 248.986C42.0299 248.986 41.99 249.006 41.99 248.976L40.5109 242.616C40.5109 242.616 40.5109 242.556 40.5409 242.536L45.138 238.396C45.138 238.396 45.178 238.386 45.188 238.416L46.1374 244.086C46.1374 244.086 46.1374 244.156 46.1174 244.176L42.0599 248.996L42.0299 248.986Z" fill="#92B6DA"/>
</g>
<g opacity="0.5">
<path d="M130.096 76.4325C130.096 76.4325 130.066 76.4025 130.096 76.3925L135.633 72.9425C135.633 72.9425 135.693 72.9225 135.723 72.9425L141.12 75.9625C141.12 75.9625 141.14 76.0025 141.12 76.0125L136.063 78.7325C136.063 78.7325 136.003 78.7525 135.973 78.7325L130.106 76.4425L130.096 76.4325Z" fill="#92B6DA"/>
</g>
<g opacity="0.5">
<path d="M122.461 84.6932C122.461 84.6932 122.421 84.7132 122.421 84.6832L120.942 78.3232C120.942 78.3232 120.942 78.2632 120.972 78.2432L125.569 74.1032C125.569 74.1032 125.609 74.0932 125.619 74.1232L126.568 79.7932C126.568 79.7932 126.568 79.8632 126.548 79.8832L122.491 84.7032L122.461 84.6932Z" fill="#92B6DA"/>
</g>
<g opacity="0.5">
<path d="M115.435 96.5534C115.435 96.5534 115.395 96.5334 115.415 96.5134L119.003 91.0634C119.003 91.0634 119.053 91.0234 119.083 91.0234L125.249 91.5034C125.249 91.5034 125.289 91.5234 125.269 91.5434L121.811 96.1334C121.811 96.1334 121.761 96.1734 121.731 96.1734L115.445 96.5434L115.435 96.5534Z" fill="#92B6DA"/>
</g>
<g opacity="0.5">
<path d="M138.501 86.1708C138.501 86.1708 138.471 86.1408 138.501 86.1308L144.038 82.6808C144.038 82.6808 144.098 82.6608 144.128 82.6808L149.524 85.7008C149.524 85.7008 149.544 85.7408 149.524 85.7508L144.467 88.4708C144.467 88.4708 144.407 88.4908 144.377 88.4708L138.511 86.1808L138.501 86.1708Z" fill="#92B6DA"/>
</g>
<g opacity="0.5">
<path d="M130.876 94.4432C130.876 94.4432 130.836 94.4632 130.836 94.4332L129.357 88.0732C129.357 88.0732 129.357 88.0132 129.387 87.9932L133.984 83.8532C133.984 83.8532 134.024 83.8432 134.034 83.8732L134.983 89.5432C134.983 89.5432 134.983 89.6132 134.963 89.6332L130.906 94.4532L130.876 94.4432Z" fill="#92B6DA"/>
</g>
<g opacity="0.5">
<path d="M123.85 106.303C123.85 106.303 123.81 106.283 123.83 106.263L127.418 100.813C127.418 100.813 127.468 100.773 127.498 100.773L133.664 101.253C133.664 101.253 133.704 101.273 133.684 101.293L130.226 105.883C130.226 105.883 130.176 105.923 130.146 105.923L123.86 106.293L123.85 106.303Z" fill="#92B6DA"/>
</g>
<g opacity="0.5">
<path d="M129.677 124.401C129.677 124.401 129.647 124.371 129.677 124.361L135.213 120.911C135.213 120.911 135.273 120.891 135.303 120.911L140.7 123.931C140.7 123.931 140.72 123.971 140.7 123.981L135.643 126.701C135.643 126.701 135.583 126.721 135.553 126.701L129.687 124.411L129.677 124.401Z" fill="#92B6DA"/>
</g>
<g opacity="0.5">
<path d="M122.051 132.67C122.051 132.67 122.011 132.69 122.011 132.66L120.532 126.3C120.532 126.3 120.532 126.24 120.562 126.22L125.159 122.08C125.159 122.08 125.199 122.07 125.209 122.1L126.159 127.77C126.159 127.77 126.159 127.84 126.139 127.86L122.081 132.68L122.051 132.67Z" fill="#92B6DA"/>
</g>
<g opacity="0.5">
<path d="M115.015 144.522C115.015 144.522 114.975 144.502 114.995 144.482L118.583 139.032C118.583 139.032 118.633 138.992 118.663 138.992L124.829 139.472C124.829 139.472 124.869 139.492 124.849 139.512L121.392 144.102C121.392 144.102 121.342 144.142 121.312 144.142L115.025 144.512L115.015 144.522Z" fill="#92B6DA"/>
</g>
<g opacity="0.5">
<path d="M138.081 134.151C138.081 134.151 138.051 134.121 138.081 134.111L143.618 130.661C143.618 130.661 143.678 130.641 143.708 130.661L149.105 133.681C149.105 133.681 149.125 133.721 149.105 133.731L144.048 136.451C144.048 136.451 143.988 136.471 143.958 136.451L138.091 134.161L138.081 134.151Z" fill="#92B6DA"/>
</g>
<g opacity="0.5">
<path d="M130.456 142.42C130.456 142.42 130.416 142.44 130.416 142.41L128.937 136.05C128.937 136.05 128.937 135.99 128.967 135.97L133.564 131.83C133.564 131.83 133.604 131.82 133.614 131.85L134.563 137.52C134.563 137.52 134.563 137.59 134.543 137.61L130.486 142.43L130.456 142.42Z" fill="#92B6DA"/>
</g>
<g opacity="0.5">
<path d="M123.43 154.272C123.43 154.272 123.39 154.252 123.41 154.232L126.998 148.782C126.998 148.782 127.048 148.742 127.078 148.742L133.244 149.222C133.244 149.222 133.284 149.242 133.264 149.262L129.806 153.852C129.806 153.852 129.756 153.892 129.726 153.892L123.44 154.262L123.43 154.272Z" fill="#92B6DA"/>
</g>
<g opacity="0.5">
<path d="M111.808 104.64C111.808 104.64 111.778 104.609 111.808 104.599L117.344 101.15C117.344 101.15 117.404 101.13 117.434 101.15L122.831 104.17C122.831 104.17 122.851 104.209 122.831 104.219L117.774 106.939C117.774 106.939 117.714 106.959 117.684 106.939L111.818 104.65L111.808 104.64Z" fill="#92B6DA"/>
</g>
<g opacity="0.5">
<path d="M97.1464 124.76C97.1464 124.76 97.1065 124.74 97.1264 124.72L100.714 119.27C100.714 119.27 100.764 119.23 100.794 119.23L106.96 119.71C106.96 119.71 107 119.73 106.98 119.75L103.523 124.34C103.523 124.34 103.473 124.38 103.443 124.38L97.1564 124.75L97.1464 124.76Z" fill="#92B6DA"/>
</g>
<g opacity="0.5">
<path d="M120.212 114.39C120.212 114.39 120.182 114.359 120.212 114.349L125.749 110.9C125.749 110.9 125.809 110.88 125.839 110.9L131.236 113.92C131.236 113.92 131.256 113.959 131.236 113.969L126.179 116.689C126.179 116.689 126.119 116.709 126.089 116.689L120.222 114.4L120.212 114.39Z" fill="#92B6DA"/>
</g>
<g opacity="0.5">
<path d="M112.587 122.65C112.587 122.65 112.547 122.67 112.547 122.64L111.068 116.28C111.068 116.28 111.068 116.22 111.098 116.2L115.695 112.06C115.695 112.06 115.735 112.05 115.745 112.08L116.694 117.75C116.694 117.75 116.694 117.82 116.674 117.84L112.617 122.66L112.587 122.65Z" fill="#92B6DA"/>
</g>
<g opacity="0.5">
<path d="M105.561 134.51C105.561 134.51 105.521 134.49 105.541 134.47L109.129 129.02C109.129 129.02 109.179 128.98 109.209 128.98L115.375 129.46C115.375 129.46 115.415 129.48 115.395 129.5L111.937 134.09C111.937 134.09 111.887 134.13 111.857 134.13L105.571 134.5L105.561 134.51Z" fill="#92B6DA"/>
</g>
<g opacity="0.5">
<path d="M142.299 103.22C142.299 103.22 142.259 103.241 142.259 103.211L140.78 96.8505C140.78 96.8505 140.78 96.7905 140.81 96.7705L145.407 92.6305C145.407 92.6305 145.447 92.6205 145.457 92.6505L146.406 98.3205C146.406 98.3205 146.406 98.3905 146.386 98.4105L142.329 103.231L142.299 103.22Z" fill="#92B6DA"/>
</g>
<g opacity="0.5">
<path d="M135.263 115.069C135.263 115.069 135.223 115.049 135.243 115.029L138.831 109.579C138.831 109.579 138.881 109.539 138.911 109.539L145.077 110.019C145.077 110.019 145.117 110.039 145.097 110.059L141.639 114.649C141.639 114.649 141.589 114.689 141.559 114.689L135.273 115.059L135.263 115.069Z" fill="#92B6DA"/>
</g>
<g opacity="0.5">
<path d="M150.704 112.97C150.704 112.97 150.664 112.991 150.664 112.961L149.185 106.601C149.185 106.601 149.185 106.541 149.215 106.521L153.812 102.38C153.812 102.38 153.852 102.371 153.862 102.401L154.811 108.071C154.811 108.071 154.811 108.14 154.791 108.16L150.734 112.981L150.704 112.97Z" fill="#92B6DA"/>
</g>
<g opacity="0.5">
<path d="M143.678 124.819C143.678 124.819 143.638 124.799 143.658 124.779L147.246 119.329C147.246 119.329 147.296 119.289 147.326 119.289L153.492 119.769C153.492 119.769 153.532 119.789 153.512 119.809L150.054 124.399C150.054 124.399 150.004 124.439 149.974 124.439L143.688 124.809L143.678 124.819Z" fill="#92B6DA"/>
</g>
<g opacity="0.5">
<path d="M114.186 55.4208C114.186 55.4208 114.156 55.3908 114.186 55.3808L119.723 51.9308C119.723 51.9308 119.783 51.9108 119.813 51.9308L125.209 54.9508C125.209 54.9508 125.229 54.9908 125.209 55.0008L120.152 57.7208C120.152 57.7208 120.092 57.7408 120.062 57.7208L114.196 55.4308L114.186 55.4208Z" fill="#92B6DA"/>
</g>
<g opacity="0.5">
<path d="M122.591 65.1708C122.591 65.1708 122.561 65.1408 122.591 65.1308L128.128 61.6808C128.128 61.6808 128.188 61.6608 128.218 61.6808L133.614 64.7008C133.614 64.7008 133.634 64.7408 133.614 64.7508L128.557 67.4708C128.557 67.4708 128.497 67.4908 128.467 67.4708L122.601 65.1808L122.591 65.1708Z" fill="#92B6DA"/>
</g>
<g opacity="0.5">
<path d="M114.966 73.4393C114.966 73.4393 114.926 73.4593 114.926 73.4293L113.447 67.0693C113.447 67.0693 113.447 67.0093 113.477 66.9893L118.074 62.8493C118.074 62.8493 118.114 62.8393 118.124 62.8693L119.073 68.5393C119.073 68.5393 119.073 68.6093 119.053 68.6293L114.996 73.4493L114.966 73.4393Z" fill="#92B6DA"/>
</g>
<g opacity="0.5">
<path d="M107.94 85.2917C107.94 85.2917 107.9 85.2717 107.92 85.2517L111.508 79.8017C111.508 79.8017 111.558 79.7617 111.588 79.7617L117.754 80.2417C117.754 80.2417 117.794 80.2617 117.774 80.2817L114.316 84.8717C114.316 84.8717 114.266 84.9117 114.236 84.9117L107.95 85.2817L107.94 85.2917Z" fill="#92B6DA"/>
</g>
<g opacity="0.5">
<path d="M59.2094 135.561C59.2094 135.561 59.1694 135.541 59.1894 135.521L62.7772 130.071C62.7772 130.071 62.8272 130.031 62.8572 130.031L69.0234 130.511C69.0234 130.511 69.0634 130.531 69.0434 130.551L65.5855 135.141C65.5855 135.141 65.5356 135.181 65.5056 135.181L59.2194 135.551L59.2094 135.561Z" fill="#92B6DA"/>
</g>
<g opacity="0.5">
<path d="M82.2754 125.19C82.2754 125.19 82.2454 125.16 82.2754 125.15L87.812 121.7C87.812 121.7 87.872 121.68 87.902 121.7L93.2987 124.72C93.2987 124.72 93.3187 124.76 93.2987 124.77L88.2418 127.49C88.2418 127.49 88.1818 127.51 88.1518 127.49L82.2854 125.2L82.2754 125.19Z" fill="#92B6DA"/>
</g>
<g opacity="0.5">
<path d="M74.6501 133.459C74.6501 133.459 74.6101 133.479 74.6101 133.449L73.131 127.089C73.131 127.089 73.131 127.029 73.161 127.009L77.7582 122.869C77.7582 122.869 77.7981 122.859 77.8081 122.889L78.7575 128.559C78.7575 128.559 78.7575 128.629 78.7376 128.649L74.68 133.469L74.6501 133.459Z" fill="#92B6DA"/>
</g>
<g opacity="0.5">
<path d="M67.6142 145.311C67.6142 145.311 67.5742 145.291 67.5942 145.271L71.182 139.821C71.182 139.821 71.232 139.781 71.262 139.781L77.4282 140.261C77.4282 140.261 77.4682 140.281 77.4482 140.301L73.9903 144.891C73.9903 144.891 73.9403 144.931 73.9104 144.931L67.6242 145.301L67.6142 145.311Z" fill="#92B6DA"/>
</g>
<g opacity="0.5">
<path d="M91.2896 135.132C91.2896 135.132 91.2596 135.102 91.2896 135.092L96.8262 131.642C96.8262 131.642 96.8862 131.622 96.9161 131.642L102.313 134.662C102.313 134.662 102.333 134.702 102.313 134.712L97.2559 137.432C97.2559 137.432 97.196 137.452 97.166 137.432L91.2996 135.142L91.2896 135.132Z" fill="#92B6DA"/>
</g>
<g opacity="0.5">
<path d="M83.6645 143.4C83.6645 143.4 83.6245 143.42 83.6245 143.39L82.1454 137.03C82.1454 137.03 82.1454 136.97 82.1754 136.95L86.7726 132.81C86.7726 132.81 86.8125 132.8 86.8225 132.83L87.772 138.5C87.772 138.5 87.772 138.57 87.752 138.59L83.6944 143.41L83.6645 143.4Z" fill="#92B6DA"/>
</g>
<g opacity="0.5">
<path d="M76.6286 155.253C76.6286 155.253 76.5886 155.233 76.6086 155.213L80.1964 149.763C80.1964 149.763 80.2464 149.723 80.2764 149.723L86.4426 150.203C86.4426 150.203 86.4826 150.223 86.4626 150.243L83.0047 154.833C83.0047 154.833 82.9547 154.873 82.9248 154.873L76.6386 155.243L76.6286 155.253Z" fill="#92B6DA"/>
</g>
<g opacity="0.5">
<path d="M99.7046 144.882C99.7046 144.882 99.6746 144.852 99.7046 144.842L105.241 141.392C105.241 141.392 105.301 141.372 105.331 141.392L110.728 144.412C110.728 144.412 110.748 144.452 110.728 144.462L105.671 147.182C105.671 147.182 105.611 147.202 105.581 147.182L99.7146 144.892L99.7046 144.882Z" fill="#92B6DA"/>
</g>
<g opacity="0.5">
<path d="M92.0791 153.15C92.0791 153.15 92.0392 153.17 92.0392 153.14L90.5601 146.78C90.5601 146.78 90.5601 146.72 90.59 146.7L95.1872 142.56C95.1872 142.56 95.2272 142.55 95.2372 142.58L96.1866 148.25C96.1866 148.25 96.1866 148.32 96.1666 148.34L92.1091 153.16L92.0791 153.15Z" fill="#92B6DA"/>
</g>
<g opacity="0.5">
<path d="M85.0434 165.003C85.0434 165.003 85.0034 164.983 85.0234 164.963L88.6112 159.513C88.6112 159.513 88.6612 159.473 88.6912 159.473L94.8574 159.953C94.8574 159.953 94.8974 159.973 94.8774 159.993L91.4195 164.583C91.4195 164.583 91.3695 164.623 91.3396 164.623L85.0534 164.993L85.0434 165.003Z" fill="#92B6DA"/>
</g>
<g opacity="0.5">
<path d="M108.839 154.659C108.839 154.659 108.809 154.629 108.839 154.619L114.376 151.169C114.376 151.169 114.436 151.149 114.466 151.169L119.863 154.189C119.863 154.189 119.883 154.229 119.863 154.239L114.806 156.959C114.806 156.959 114.746 156.979 114.716 156.959L108.849 154.669L108.839 154.659Z" fill="#92B6DA"/>
</g>
<g opacity="0.5">
<path d="M101.204 162.928C101.204 162.928 101.164 162.948 101.164 162.918L99.6848 156.558C99.6848 156.558 99.6848 156.498 99.7148 156.478L104.312 152.338C104.312 152.338 104.352 152.328 104.362 152.358L105.311 158.028C105.311 158.028 105.311 158.098 105.291 158.118L101.234 162.938L101.204 162.928Z" fill="#92B6DA"/>
</g>
<g opacity="0.5">
<path d="M94.1782 174.78C94.1782 174.78 94.1382 174.76 94.1582 174.74L97.746 169.29C97.746 169.29 97.796 169.25 97.8259 169.25L103.992 169.73C103.992 169.73 104.032 169.75 104.012 169.77L100.554 174.36C100.554 174.36 100.504 174.4 100.474 174.4L94.1882 174.77L94.1782 174.78Z" fill="#92B6DA"/>
</g>
<g opacity="0.5">
<path d="M117.244 164.409C117.244 164.409 117.214 164.379 117.244 164.369L122.781 160.919C122.781 160.919 122.841 160.899 122.871 160.919L128.267 163.939C128.267 163.939 128.287 163.979 128.267 163.989L123.21 166.709C123.21 166.709 123.15 166.729 123.12 166.709L117.254 164.419L117.244 164.409Z" fill="#92B6DA"/>
</g>
<g opacity="0.5">
<path d="M109.619 172.678C109.619 172.678 109.579 172.698 109.579 172.668L108.1 166.308C108.1 166.308 108.1 166.248 108.13 166.228L112.727 162.088C112.727 162.088 112.767 162.078 112.777 162.108L113.726 167.778C113.726 167.778 113.726 167.848 113.706 167.868L109.649 172.688L109.619 172.678Z" fill="#92B6DA"/>
</g>
<g opacity="0.5">
<path d="M102.593 184.53C102.593 184.53 102.553 184.51 102.573 184.49L106.161 179.04C106.161 179.04 106.211 179 106.241 179L112.407 179.48C112.407 179.48 112.447 179.5 112.427 179.52L108.969 184.11C108.969 184.11 108.919 184.15 108.889 184.15L102.603 184.52L102.593 184.53Z" fill="#92B6DA"/>
</g>
</g>
<path d="M180.411 279.44L182.14 319.31C182.52 328.16 176.294 334.57 167.659 335.34C160.044 336.02 150.949 329.76 151.569 320.95L154.517 279.63L115.411 294.63C110.254 296.61 104.008 293.42 101.22 290.44C96.8922 285.8 95.2932 280.07 97.4619 274.22C99.3507 269.11 104.428 265.43 109.604 264.2L147.072 255.31L123.166 226.03C116.91 218.37 117.2 207.91 124.785 202.29C132.301 196.72 142.854 198.79 147.951 207.3L167.599 240.11L190.185 205.64C194.613 198.88 203.897 198.62 210.153 201.96C217.389 206.42 219.148 214.57 216.03 222.94L188.286 255.31L223.885 264.46C232.709 266.73 238.686 272.69 237.836 281.65C236.987 290.61 229.182 296.96 219.837 295.69L180.411 279.45V279.44Z" fill="#603813"/>
<rect x="89.2262" y="347.098" width="15.4172" height="0.203125" fill="#DCD6CB"/>
<rect x="89.4325" y="346.969" width="15.168" height="0.273438" fill="#DCD6CB"/>
<line x1="104.303" y1="347.133" x2="104.62" y2="346.999" stroke="#DCD6CB"/>
<line x1="89.2049" y1="347.508" x2="89.0131" y2="347.222" stroke="#DCD6CB"/>
</svg>
