<svg width="340" height="625" viewBox="0 0 340 625" fill="none" xmlns="http://www.w3.org/2000/svg">
<path d="M83.8737 20.3036L83.934 27.4223C83.9944 34.7913 88.7231 40.7193 94.4873 40.6675L99.9409 40.6157C104.687 40.5726 108.855 44.6195 110.123 50.4612C113.739 67.1234 120.046 104.02 119.132 155.396C117.924 223.339 91.8037 279.4 88.2831 285.535C88.0932 285.872 87.9207 286.2 87.7567 286.554L12.0199 403.931C11.2519 405.156 8.14546 413.457 7.74853 414.941C7.03232 417.651 7.02369 420.619 7.74853 423.38C15.6613 453.581 64.6137 617.036 121.263 618.788C202.031 621.29 238.014 621.273 244.753 617.209C245.547 616.734 246.263 616.148 246.936 615.431C256.462 605.336 321.465 511.42 333.985 416.029C334.374 413.052 333.511 410.04 332.165 407.555C309.893 366.404 264.09 316.426 246.349 277.933C228.013 238.163 216.562 177.21 216.372 155.43C216.225 138.458 216.432 77.314 217.287 51.1515C217.511 44.3261 221.739 38.8468 227.081 38.4585C233.268 38.0098 238.48 31.1586 238.652 23.2374L238.713 20.502C238.877 12.9691 234.122 6.73047 228.228 6.73047L94.2716 6.85128C88.4815 6.85128 83.8219 12.8828 83.8909 20.2863L83.8737 20.3036Z" fill="#DCD6CB" stroke="#DCD6CB" stroke-width="9" stroke-miterlimit="10"/>
<path d="M116.793 63.0508C124.818 90.6111 128.149 119.397 128.788 148.044C130.315 219.827 109.64 292.956 65.2436 349.975C56.4075 361.296 46.8466 372.022 36.5177 381.936C46.1563 371.358 55.2427 360.304 63.5438 348.716C71.7758 337.127 79.378 324.978 86.0223 312.414C126.061 237.163 134.353 145.861 116.793 63.0508Z" fill="#E2E3E2"/>
<path d="M304.147 378.448C225.89 308.779 194.256 204.569 209.003 102.094C211.126 87.7958 213.905 73.5411 218.314 59.7695C217.399 63.2642 216.64 66.7847 215.932 70.3225C211.031 95.0181 208.865 120.266 208.96 145.41C209.305 234.347 241.258 315.216 304.147 378.448Z" fill="#E2E3E2"/>
<path d="M90.0611 595.578C136.2 605.398 185.058 611.369 231.603 601.282C238.23 599.763 244.753 597.813 251.234 595.578C245.124 598.684 238.713 601.213 232.155 603.327C187.94 616.693 133.249 610.687 90.0611 595.578Z" fill="#E2E3E2"/>
<path d="M22.9443 403.484C21.1495 412.355 19.6654 421.147 21.952 429.992C22.2022 431.347 22.6941 432.555 22.9443 433.935C22.4007 433.495 21.9002 433.012 21.3997 432.512C13.9272 424.651 15.3337 410.767 22.9443 403.484Z" fill="#E2E3E2"/>
<path d="M316.495 431.659C317.099 429.105 317.901 426.559 318.221 423.953C319.006 418.949 318.678 414.082 317.91 409.06C317.513 406.523 317.021 403.952 316.495 401.199C324.649 408.931 325.598 424.273 316.495 431.65V431.659Z" fill="#E2E3E2"/>
<path d="M95.2385 346.049C95.2385 346.049 148.1 284.397 216.787 344.669C285.474 404.941 95.2385 346.049 95.2385 346.049Z" fill="#866893"/>
<path d="M38.6664 435.702C44.9656 465.558 60.4029 530.084 82.5795 565.384C87.567 573.331 95.3418 583.867 104.152 585.602C141.179 592.893 203.679 589.64 233.052 587.517C243.847 586.741 253.624 575.368 259.241 565.488C271.356 544.201 291.427 500.884 301.981 433.674C303.318 425.158 301.774 416.4 297.537 409.048C280.339 379.192 256.385 349.509 236.003 330.543C230.645 325.556 223.966 322.363 216.864 321.837C208.019 321.181 198.424 323.269 188.975 325.763C173.219 329.931 157.082 332.234 140.851 332.519C121.289 332.864 102.581 339.741 87.1701 351.796C79.4126 357.862 72.4922 365.24 66.7193 373.756L44.1976 406.96C38.5715 415.252 36.561 425.71 38.6664 435.694V435.702Z" fill="#511E68"/>
<g opacity="0.5">
<g opacity="0.5">
<path d="M153.268 214.313C153.268 214.313 153.302 214.312 153.294 214.338L151.499 219.68C151.499 219.68 151.464 219.723 151.439 219.731L146.184 220.689C146.184 220.689 146.149 220.681 146.158 220.655L148.039 216.064C148.039 216.064 148.073 216.021 148.099 216.012L153.268 214.321V214.313Z" fill="#92B6DA"/>
</g>
<g opacity="0.5">
<path d="M153.821 204.624C153.821 204.624 153.838 204.589 153.855 204.606L158.325 208.032C158.325 208.032 158.359 208.075 158.351 208.101L157.557 213.382C157.557 213.382 157.54 213.408 157.514 213.399L153.777 210.137C153.777 210.137 153.743 210.086 153.743 210.068L153.812 204.632L153.821 204.624Z" fill="#92B6DA"/>
</g>
<g opacity="0.5">
<path d="M152 192.872C152 192.872 152.034 192.864 152.034 192.89L152.63 198.49C152.63 198.49 152.621 198.542 152.595 198.559L148.22 201.622C148.22 201.622 148.186 201.622 148.186 201.605L147.979 196.652C147.979 196.652 147.987 196.591 148.004 196.583L151.991 192.89L152 192.872Z" fill="#92B6DA"/>
</g>
<g opacity="0.5">
<path d="M142.318 212.434C142.318 212.434 142.352 212.434 142.344 212.459L140.549 217.801C140.549 217.801 140.514 217.844 140.489 217.852L135.234 218.81C135.234 218.81 135.199 218.802 135.208 218.776L137.089 214.185C137.089 214.185 137.123 214.142 137.149 214.133L142.318 212.442V212.434Z" fill="#92B6DA"/>
</g>
<g opacity="0.5">
<path d="M142.862 202.745C142.862 202.745 142.879 202.71 142.896 202.727L147.366 206.153C147.366 206.153 147.4 206.196 147.392 206.222L146.598 211.503C146.598 211.503 146.581 211.529 146.555 211.52L142.819 208.259C142.819 208.259 142.784 208.207 142.784 208.19L142.853 202.753L142.862 202.745Z" fill="#92B6DA"/>
</g>
<g opacity="0.5">
<path d="M141.049 190.99C141.049 190.99 141.084 190.981 141.084 191.007L141.679 196.607C141.679 196.607 141.671 196.659 141.645 196.676L137.27 199.739C137.27 199.739 137.235 199.739 137.235 199.722L137.028 194.769C137.028 194.769 137.037 194.709 137.054 194.7L141.041 191.007L141.049 190.99Z" fill="#92B6DA"/>
</g>
<g opacity="0.5">
<path d="M127.234 182.133C127.234 182.133 127.269 182.133 127.26 182.159L125.465 187.5C125.465 187.5 125.431 187.543 125.405 187.552L120.15 188.509C120.15 188.509 120.115 188.501 120.124 188.475L122.005 183.884C122.005 183.884 122.04 183.841 122.066 183.833L127.234 182.141V182.133Z" fill="#92B6DA"/>
</g>
<g opacity="0.5">
<path d="M127.787 172.432C127.787 172.432 127.804 172.398 127.821 172.415L132.291 175.841C132.291 175.841 132.326 175.884 132.317 175.91L131.523 181.19C131.523 181.19 131.506 181.216 131.48 181.208L127.744 177.946C127.744 177.946 127.709 177.894 127.709 177.877L127.778 172.441L127.787 172.432Z" fill="#92B6DA"/>
</g>
<g opacity="0.5">
<path d="M125.966 160.677C125.966 160.677 126 160.669 126 160.694L126.596 166.295C126.596 166.295 126.587 166.346 126.561 166.364L122.186 169.427C122.186 169.427 122.152 169.427 122.152 169.409L121.945 164.457C121.945 164.457 121.953 164.396 121.971 164.388L125.957 160.694L125.966 160.677Z" fill="#92B6DA"/>
</g>
<g opacity="0.5">
<path d="M116.284 180.25C116.284 180.25 116.319 180.25 116.31 180.276L114.515 185.617C114.515 185.617 114.481 185.66 114.455 185.669L109.2 186.627C109.2 186.627 109.165 186.618 109.174 186.592L111.055 182.002C111.055 182.002 111.089 181.959 111.115 181.95L116.284 180.259V180.25Z" fill="#92B6DA"/>
</g>
<g opacity="0.5">
<path d="M116.828 170.557C116.828 170.557 116.845 170.523 116.862 170.54L121.332 173.966C121.332 173.966 121.366 174.009 121.358 174.035L120.564 179.315C120.564 179.315 120.547 179.341 120.521 179.333L116.784 176.071C116.784 176.071 116.75 176.019 116.75 176.002L116.819 170.566L116.828 170.557Z" fill="#92B6DA"/>
</g>
<g opacity="0.5">
<path d="M115.016 158.798C115.016 158.798 115.05 158.79 115.05 158.816L115.645 164.416C115.645 164.416 115.637 164.467 115.611 164.485L111.236 167.548C111.236 167.548 111.202 167.548 111.202 167.531L110.995 162.578C110.995 162.578 111.003 162.517 111.02 162.509L115.007 158.816L115.016 158.798Z" fill="#92B6DA"/>
</g>
<g opacity="0.5">
<path d="M149.989 185.484C149.989 185.484 150.024 185.484 150.015 185.51L148.22 190.851C148.22 190.851 148.186 190.895 148.16 190.903L142.905 191.861C142.905 191.861 142.87 191.852 142.879 191.827L144.76 187.236C144.76 187.236 144.795 187.193 144.82 187.184L149.989 185.493V185.484Z" fill="#92B6DA"/>
</g>
<g opacity="0.5">
<path d="M150.533 175.796C150.533 175.796 150.55 175.761 150.568 175.778L155.037 179.204C155.037 179.204 155.072 179.247 155.063 179.273L154.269 184.554C154.269 184.554 154.252 184.58 154.226 184.571L150.49 181.309C150.49 181.309 150.455 181.258 150.455 181.24L150.524 175.804L150.533 175.796Z" fill="#92B6DA"/>
</g>
<g opacity="0.5">
<path d="M148.721 164.04C148.721 164.04 148.755 164.032 148.755 164.058L149.351 169.658C149.351 169.658 149.342 169.71 149.316 169.727L144.941 172.79C144.941 172.79 144.907 172.79 144.907 172.773L144.7 167.82C144.7 167.82 144.709 167.759 144.726 167.751L148.712 164.058L148.721 164.04Z" fill="#92B6DA"/>
</g>
<g opacity="0.5">
<path d="M139.03 183.613C139.03 183.613 139.065 183.613 139.056 183.639L137.261 188.98C137.261 188.98 137.227 189.024 137.201 189.032L131.946 189.99C131.946 189.99 131.911 189.981 131.92 189.955L133.801 185.365C133.801 185.365 133.836 185.322 133.862 185.313L139.03 183.622V183.613Z" fill="#92B6DA"/>
</g>
<g opacity="0.5">
<path d="M139.583 173.917C139.583 173.917 139.6 173.882 139.617 173.899L144.087 177.325C144.087 177.325 144.122 177.368 144.113 177.394L143.319 182.675C143.319 182.675 143.302 182.701 143.276 182.692L139.54 179.43C139.54 179.43 139.505 179.379 139.505 179.361L139.574 173.925L139.583 173.917Z" fill="#92B6DA"/>
</g>
<g opacity="0.5">
<path d="M137.77 162.162C137.77 162.162 137.805 162.153 137.805 162.179L138.4 167.779C138.4 167.779 138.392 167.831 138.366 167.848L133.991 170.911C133.991 170.911 133.957 170.911 133.957 170.894L133.749 165.941C133.749 165.941 133.758 165.881 133.775 165.872L137.762 162.179L137.77 162.162Z" fill="#92B6DA"/>
</g>
<g opacity="0.5">
<path d="M129.892 212.859C129.892 212.859 129.927 212.859 129.918 212.885L128.123 218.226C128.123 218.226 128.089 218.27 128.063 218.278L122.808 219.236C122.808 219.236 122.773 219.227 122.782 219.202L124.663 214.611C124.663 214.611 124.697 214.568 124.723 214.559L129.892 212.868V212.859Z" fill="#92B6DA"/>
</g>
<g opacity="0.5">
<path d="M130.436 203.171C130.436 203.171 130.453 203.136 130.471 203.153L134.94 206.579C134.94 206.579 134.975 206.622 134.966 206.648L134.172 211.929C134.172 211.929 134.155 211.955 134.129 211.946L130.393 208.684C130.393 208.684 130.358 208.633 130.358 208.615L130.427 203.179L130.436 203.171Z" fill="#92B6DA"/>
</g>
<g opacity="0.5">
<path d="M128.624 191.408C128.624 191.408 128.658 191.399 128.658 191.425L129.254 197.025C129.254 197.025 129.245 197.077 129.219 197.094L124.844 200.157C124.844 200.157 124.81 200.157 124.81 200.14L124.603 195.187C124.603 195.187 124.611 195.127 124.628 195.118L128.615 191.425L128.624 191.408Z" fill="#92B6DA"/>
</g>
<g opacity="0.5">
<path d="M118.933 210.977C118.933 210.977 118.968 210.977 118.959 211.002L117.164 216.344C117.164 216.344 117.13 216.387 117.104 216.395L111.849 217.353C111.849 217.353 111.814 217.345 111.823 217.319L113.704 212.728C113.704 212.728 113.739 212.685 113.765 212.676L118.933 210.985V210.977Z" fill="#92B6DA"/>
</g>
<g opacity="0.5">
<path d="M119.486 201.288C119.486 201.288 119.503 201.253 119.52 201.27L123.99 204.696C123.99 204.696 124.024 204.739 124.016 204.765L123.222 210.046C123.222 210.046 123.205 210.072 123.179 210.063L119.442 206.802C119.442 206.802 119.408 206.75 119.408 206.732L119.477 201.296L119.486 201.288Z" fill="#92B6DA"/>
</g>
<g opacity="0.5">
<path d="M117.673 189.533C117.673 189.533 117.708 189.524 117.708 189.55L118.303 195.15C118.303 195.15 118.295 195.202 118.269 195.219L113.894 198.282C113.894 198.282 113.86 198.282 113.86 198.265L113.652 193.312C113.652 193.312 113.661 193.252 113.678 193.243L117.665 189.55L117.673 189.533Z" fill="#92B6DA"/>
</g>
<g opacity="0.5">
<path d="M171.026 189.289C171.026 189.289 171.061 189.289 171.052 189.315L169.257 194.656C169.257 194.656 169.223 194.699 169.197 194.708L163.942 195.666C163.942 195.666 163.908 195.657 163.916 195.631L165.797 191.041C165.797 191.041 165.832 190.998 165.858 190.989L171.026 189.298V189.289Z" fill="#92B6DA"/>
</g>
<g opacity="0.5">
<path d="M171.579 179.6C171.579 179.6 171.596 179.566 171.614 179.583L176.083 183.009C176.083 183.009 176.118 183.052 176.109 183.078L175.315 188.358C175.315 188.358 175.298 188.384 175.272 188.376L171.536 185.114C171.536 185.114 171.501 185.062 171.501 185.045L171.57 179.609L171.579 179.6Z" fill="#92B6DA"/>
</g>
<g opacity="0.5">
<path d="M169.766 167.849C169.766 167.849 169.801 167.84 169.801 167.866L170.396 173.466C170.396 173.466 170.388 173.518 170.362 173.535L165.987 176.599C165.987 176.599 165.952 176.599 165.952 176.581L165.745 171.628C165.745 171.628 165.754 171.568 165.771 171.559L169.758 167.866L169.766 167.849Z" fill="#92B6DA"/>
</g>
<g opacity="0.5">
<path d="M160.076 187.418C160.076 187.418 160.111 187.418 160.102 187.444L158.307 192.785C158.307 192.785 158.273 192.828 158.247 192.837L152.992 193.795C152.992 193.795 152.958 193.786 152.966 193.76L154.847 189.17C154.847 189.17 154.882 189.126 154.908 189.118L160.076 187.427V187.418Z" fill="#92B6DA"/>
</g>
<g opacity="0.5">
<path d="M160.62 177.721C160.62 177.721 160.637 177.687 160.654 177.704L165.124 181.13C165.124 181.13 165.159 181.173 165.15 181.199L164.356 186.48C164.356 186.48 164.339 186.505 164.313 186.497L160.577 183.235C160.577 183.235 160.542 183.183 160.542 183.166L160.611 177.73L160.62 177.721Z" fill="#92B6DA"/>
</g>
<g opacity="0.5">
<path d="M158.808 165.966C158.808 165.966 158.842 165.958 158.842 165.983L159.438 171.584C159.438 171.584 159.429 171.635 159.403 171.653L155.028 174.716C155.028 174.716 154.994 174.716 154.994 174.699L154.787 169.746C154.787 169.746 154.795 169.685 154.813 169.677L158.799 165.983L158.808 165.966Z" fill="#92B6DA"/>
</g>
<g opacity="0.5">
<path d="M174.133 198.138C174.133 198.138 174.168 198.129 174.168 198.155L174.763 203.755C174.763 203.755 174.755 203.807 174.729 203.824L170.354 206.888C170.354 206.888 170.319 206.888 170.319 206.87L170.112 201.918C170.112 201.918 170.121 201.857 170.138 201.848L174.125 198.155L174.133 198.138Z" fill="#92B6DA"/>
</g>
<g opacity="0.5">
<path d="M164.443 217.699C164.443 217.699 164.477 217.699 164.469 217.725L162.674 223.066C162.674 223.066 162.639 223.109 162.613 223.118L157.358 224.076C157.358 224.076 157.324 224.067 157.333 224.041L159.214 219.451C159.214 219.451 159.248 219.408 159.274 219.399L164.443 217.708V217.699Z" fill="#92B6DA"/>
</g>
<g opacity="0.5">
<path d="M164.986 208.01C164.986 208.01 165.003 207.976 165.021 207.993L169.49 211.419C169.49 211.419 169.525 211.462 169.516 211.488L168.723 216.769C168.723 216.769 168.705 216.794 168.679 216.786L164.943 213.524C164.943 213.524 164.909 213.472 164.909 213.455L164.978 208.019L164.986 208.01Z" fill="#92B6DA"/>
</g>
<g opacity="0.5">
<path d="M163.174 196.255C163.174 196.255 163.209 196.247 163.209 196.273L163.804 201.873C163.804 201.873 163.795 201.924 163.77 201.942L159.395 205.005C159.395 205.005 159.36 205.005 159.36 204.988L159.153 200.035C159.153 200.035 159.162 199.974 159.179 199.966L163.166 196.273L163.174 196.255Z" fill="#92B6DA"/>
</g>
<g opacity="0.5">
<path d="M169.353 157.469C169.353 157.469 169.387 157.469 169.379 157.495L167.584 162.836C167.584 162.836 167.549 162.879 167.523 162.888L162.268 163.845C162.268 163.845 162.234 163.837 162.242 163.811L164.124 159.22C164.124 159.22 164.158 159.177 164.184 159.169L169.353 157.477V157.469Z" fill="#92B6DA"/>
</g>
<g opacity="0.5">
<path d="M158.394 155.586C158.394 155.586 158.428 155.586 158.42 155.612L156.625 160.953C156.625 160.953 156.59 160.996 156.564 161.005L151.309 161.963C151.309 161.963 151.275 161.954 151.284 161.928L153.165 157.338C153.165 157.338 153.199 157.294 153.225 157.286L158.394 155.595V155.586Z" fill="#92B6DA"/>
</g>
<g opacity="0.5">
<path d="M158.946 145.897C158.946 145.897 158.963 145.863 158.981 145.88L163.45 149.305C163.45 149.305 163.485 149.349 163.476 149.374L162.682 154.655C162.682 154.655 162.665 154.681 162.639 154.673L158.903 151.411C158.903 151.411 158.868 151.359 158.868 151.342L158.938 145.906L158.946 145.897Z" fill="#92B6DA"/>
</g>
<g opacity="0.5">
<path d="M157.134 134.146C157.134 134.146 157.168 134.137 157.168 134.163L157.764 139.763C157.764 139.763 157.755 139.815 157.729 139.832L153.354 142.896C153.354 142.896 153.32 142.896 153.32 142.878L153.113 137.925C153.113 137.925 153.121 137.865 153.139 137.856L157.125 134.163L157.134 134.146Z" fill="#92B6DA"/>
</g>
<g opacity="0.5">
<path d="M146.934 153.914C146.934 153.914 146.969 153.914 146.96 153.94L145.166 159.281C145.166 159.281 145.131 159.324 145.105 159.333L139.85 160.291C139.85 160.291 139.816 160.282 139.824 160.256L141.705 155.666C141.705 155.666 141.74 155.623 141.766 155.614L146.934 153.923V153.914Z" fill="#92B6DA"/>
</g>
<g opacity="0.5">
<path d="M147.487 144.225C147.487 144.225 147.504 144.191 147.522 144.208L151.991 147.634C151.991 147.634 152.026 147.677 152.017 147.703L151.223 152.983C151.223 152.983 151.206 153.009 151.18 153.001L147.444 149.739C147.444 149.739 147.409 149.687 147.409 149.67L147.478 144.234L147.487 144.225Z" fill="#92B6DA"/>
</g>
<g opacity="0.5">
<path d="M145.675 132.47C145.675 132.47 145.709 132.461 145.709 132.487L146.305 138.087C146.305 138.087 146.296 138.139 146.27 138.157L141.895 141.22C141.895 141.22 141.861 141.22 141.861 141.202L141.654 136.25C141.654 136.25 141.662 136.189 141.68 136.181L145.666 132.487L145.675 132.47Z" fill="#92B6DA"/>
</g>
<g opacity="0.5">
<path d="M135.984 152.031C135.984 152.031 136.019 152.031 136.01 152.057L134.215 157.398C134.215 157.398 134.181 157.442 134.155 157.45L128.9 158.408C128.9 158.408 128.865 158.399 128.874 158.373L130.755 153.783C130.755 153.783 130.79 153.74 130.816 153.731L135.984 152.04V152.031Z" fill="#92B6DA"/>
</g>
<g opacity="0.5">
<path d="M136.528 142.342C136.528 142.342 136.545 142.308 136.562 142.325L141.032 145.751C141.032 145.751 141.067 145.794 141.058 145.82L140.264 151.101C140.264 151.101 140.247 151.127 140.221 151.118L136.485 147.856C136.485 147.856 136.45 147.804 136.45 147.787L136.519 142.351L136.528 142.342Z" fill="#92B6DA"/>
</g>
<g opacity="0.5">
<path d="M134.716 130.587C134.716 130.587 134.75 130.579 134.75 130.605L135.346 136.205C135.346 136.205 135.337 136.256 135.311 136.274L130.936 139.337C130.936 139.337 130.902 139.337 130.902 139.32L130.695 134.367C130.695 134.367 130.703 134.306 130.721 134.298L134.707 130.605L134.716 130.587Z" fill="#92B6DA"/>
</g>
<g opacity="0.5">
<path d="M124.525 150.531C124.525 150.531 124.559 150.531 124.551 150.557L122.756 155.898C122.756 155.898 122.721 155.942 122.695 155.95L117.44 156.908C117.44 156.908 117.406 156.899 117.415 156.873L119.296 152.283C119.296 152.283 119.33 152.24 119.356 152.231L124.525 150.54V150.531Z" fill="#92B6DA"/>
</g>
<g opacity="0.5">
<path d="M125.077 140.842C125.077 140.842 125.095 140.808 125.112 140.825L129.582 144.251C129.582 144.251 129.616 144.294 129.608 144.32L128.814 149.601C128.814 149.601 128.797 149.627 128.771 149.618L125.034 146.356C125.034 146.356 125 146.304 125 146.287L125.069 140.851L125.077 140.842Z" fill="#92B6DA"/>
</g>
<g opacity="0.5">
<path d="M123.265 129.087C123.265 129.087 123.3 129.079 123.3 129.105L123.895 134.705C123.895 134.705 123.886 134.756 123.86 134.774L119.486 137.837C119.486 137.837 119.451 137.837 119.451 137.82L119.244 132.867C119.244 132.867 119.253 132.806 119.27 132.798L123.256 129.105L123.265 129.087Z" fill="#92B6DA"/>
</g>
<g opacity="0.5">
<path d="M113.575 148.652C113.575 148.652 113.609 148.652 113.601 148.678L111.806 154.019C111.806 154.019 111.771 154.063 111.745 154.071L106.491 155.029C106.491 155.029 106.456 155.02 106.465 154.995L108.346 150.404C108.346 150.404 108.38 150.361 108.406 150.352L113.575 148.661V148.652Z" fill="#92B6DA"/>
</g>
<g opacity="0.5">
<path d="M114.127 138.96C114.127 138.96 114.144 138.925 114.161 138.942L118.631 142.368C118.631 142.368 118.666 142.411 118.657 142.437L117.863 147.718C117.863 147.718 117.846 147.744 117.82 147.735L114.084 144.473C114.084 144.473 114.049 144.422 114.049 144.404L114.118 138.968L114.127 138.96Z" fill="#92B6DA"/>
</g>
<g opacity="0.5">
<path d="M150.067 302.246C150.067 302.246 150.101 302.246 150.093 302.272L148.298 307.613C148.298 307.613 148.264 307.656 148.238 307.665L142.983 308.623C142.983 308.623 142.948 308.614 142.957 308.588L144.838 303.998C144.838 303.998 144.872 303.955 144.898 303.946L150.067 302.255V302.246Z" fill="#92B6DA"/>
</g>
<g opacity="0.5">
<path d="M150.611 292.549C150.611 292.549 150.628 292.515 150.645 292.532L155.115 295.958C155.115 295.958 155.15 296.001 155.141 296.027L154.347 301.308C154.347 301.308 154.33 301.334 154.304 301.325L150.568 298.063C150.568 298.063 150.533 298.011 150.533 297.994L150.602 292.558L150.611 292.549Z" fill="#92B6DA"/>
</g>
<g opacity="0.5">
<path d="M148.799 280.794C148.799 280.794 148.833 280.786 148.833 280.812L149.428 286.412C149.428 286.412 149.42 286.463 149.394 286.481L145.019 289.544C145.019 289.544 144.985 289.544 144.985 289.527L144.778 284.574C144.778 284.574 144.786 284.513 144.803 284.505L148.79 280.812L148.799 280.794Z" fill="#92B6DA"/>
</g>
<g opacity="0.5">
<path d="M139.108 300.367C139.108 300.367 139.143 300.367 139.134 300.393L137.339 305.734C137.339 305.734 137.305 305.777 137.279 305.786L132.024 306.744C132.024 306.744 131.989 306.735 131.998 306.709L133.879 302.119C133.879 302.119 133.914 302.076 133.939 302.067L139.108 300.376V300.367Z" fill="#92B6DA"/>
</g>
<g opacity="0.5">
<path d="M139.661 290.674C139.661 290.674 139.678 290.64 139.695 290.657L144.165 294.083C144.165 294.083 144.199 294.126 144.191 294.152L143.397 299.433C143.397 299.433 143.38 299.459 143.354 299.45L139.618 296.188C139.618 296.188 139.583 296.136 139.583 296.119L139.652 290.683L139.661 290.674Z" fill="#92B6DA"/>
</g>
<g opacity="0.5">
<path d="M137.848 278.912C137.848 278.912 137.883 278.903 137.883 278.929L138.478 284.529C138.478 284.529 138.469 284.581 138.444 284.598L134.069 287.661C134.069 287.661 134.034 287.661 134.034 287.644L133.827 282.691C133.827 282.691 133.836 282.631 133.853 282.622L137.84 278.929L137.848 278.912Z" fill="#92B6DA"/>
</g>
<g opacity="0.5">
<path d="M124.033 270.051C124.033 270.051 124.067 270.051 124.059 270.077L122.264 275.418C122.264 275.418 122.229 275.461 122.203 275.47L116.949 276.427C116.949 276.427 116.914 276.419 116.923 276.393L118.804 271.802C118.804 271.802 118.838 271.759 118.864 271.751L124.033 270.059V270.051Z" fill="#92B6DA"/>
</g>
<g opacity="0.5">
<path d="M124.577 260.362C124.577 260.362 124.594 260.327 124.612 260.345L129.081 263.77C129.081 263.77 129.116 263.813 129.107 263.839L128.313 269.12C128.313 269.12 128.296 269.146 128.27 269.137L124.534 265.876C124.534 265.876 124.499 265.824 124.499 265.807L124.568 260.371L124.577 260.362Z" fill="#92B6DA"/>
</g>
<g opacity="0.5">
<path d="M122.765 248.607C122.765 248.607 122.799 248.598 122.799 248.624L123.394 254.224C123.394 254.224 123.386 254.276 123.36 254.293L118.985 257.356C118.985 257.356 118.951 257.356 118.951 257.339L118.744 252.386C118.744 252.386 118.752 252.326 118.769 252.317L122.756 248.624L122.765 248.607Z" fill="#92B6DA"/>
</g>
<g opacity="0.5">
<path d="M113.074 268.168C113.074 268.168 113.109 268.168 113.1 268.194L111.305 273.535C111.305 273.535 111.271 273.578 111.245 273.587L105.99 274.545C105.99 274.545 105.956 274.536 105.964 274.51L107.845 269.92C107.845 269.92 107.88 269.876 107.906 269.868L113.074 268.177V268.168Z" fill="#92B6DA"/>
</g>
<g opacity="0.5">
<path d="M113.626 258.479C113.626 258.479 113.644 258.445 113.661 258.462L118.131 261.887C118.131 261.887 118.165 261.931 118.156 261.957L117.363 267.237C117.363 267.237 117.345 267.263 117.319 267.255L113.583 263.993C113.583 263.993 113.549 263.941 113.549 263.924L113.618 258.488L113.626 258.479Z" fill="#92B6DA"/>
</g>
<g opacity="0.5">
<path d="M111.814 246.728C111.814 246.728 111.849 246.719 111.849 246.745L112.444 252.345C112.444 252.345 112.436 252.397 112.41 252.414L108.035 255.478C108.035 255.478 108 255.478 108 255.46L107.793 250.507C107.793 250.507 107.802 250.447 107.819 250.438L111.806 246.745L111.814 246.728Z" fill="#92B6DA"/>
</g>
<g opacity="0.5">
<path d="M146.779 273.418C146.779 273.418 146.814 273.418 146.805 273.444L145.01 278.785C145.01 278.785 144.976 278.828 144.95 278.837L139.695 279.795C139.695 279.795 139.66 279.786 139.669 279.76L141.55 275.17C141.55 275.17 141.585 275.126 141.611 275.118L146.779 273.427V273.418Z" fill="#92B6DA"/>
</g>
<g opacity="0.5">
<path d="M145.519 251.966C145.519 251.966 145.554 251.958 145.554 251.983L146.149 257.584C146.149 257.584 146.141 257.635 146.115 257.653L141.74 260.716C141.74 260.716 141.705 260.716 141.705 260.699L141.498 255.746C141.498 255.746 141.507 255.685 141.524 255.677L145.511 251.983L145.519 251.966Z" fill="#92B6DA"/>
</g>
<g opacity="0.5">
<path d="M135.829 271.535C135.829 271.535 135.863 271.535 135.855 271.561L134.06 276.902C134.06 276.902 134.026 276.945 134 276.954L128.745 277.912C128.745 277.912 128.71 277.903 128.719 277.877L130.6 273.287C130.6 273.287 130.634 273.244 130.66 273.235L135.829 271.544V271.535Z" fill="#92B6DA"/>
</g>
<g opacity="0.5">
<path d="M136.381 261.846C136.381 261.846 136.398 261.812 136.416 261.829L140.885 265.255C140.885 265.255 140.92 265.298 140.911 265.324L140.117 270.605C140.117 270.605 140.1 270.63 140.074 270.622L136.338 267.36C136.338 267.36 136.303 267.308 136.303 267.291L136.372 261.855L136.381 261.846Z" fill="#92B6DA"/>
</g>
<g opacity="0.5">
<path d="M134.569 250.083C134.569 250.083 134.604 250.075 134.604 250.101L135.199 255.701C135.199 255.701 135.19 255.753 135.164 255.77L130.79 258.833C130.79 258.833 130.755 258.833 130.755 258.816L130.548 253.863C130.548 253.863 130.557 253.802 130.574 253.794L134.56 250.101L134.569 250.083Z" fill="#92B6DA"/>
</g>
<g opacity="0.5">
<path d="M127.235 291.088C127.235 291.088 127.252 291.054 127.269 291.071L131.739 294.497C131.739 294.497 131.773 294.54 131.765 294.566L130.971 299.847C130.971 299.847 130.954 299.873 130.928 299.864L127.191 296.602C127.191 296.602 127.157 296.551 127.157 296.533L127.226 291.097L127.235 291.088Z" fill="#92B6DA"/>
</g>
<g opacity="0.5">
<path d="M125.422 279.333C125.422 279.333 125.457 279.325 125.457 279.351L126.052 284.951C126.052 284.951 126.044 285.003 126.018 285.02L121.643 288.083C121.643 288.083 121.608 288.083 121.608 288.066L121.401 283.113C121.401 283.113 121.41 283.052 121.427 283.044L125.414 279.351L125.422 279.333Z" fill="#92B6DA"/>
</g>
<g opacity="0.5">
<path d="M116.284 289.206C116.284 289.206 116.301 289.171 116.319 289.188L120.788 292.614C120.788 292.614 120.823 292.657 120.814 292.683L120.02 297.964C120.02 297.964 120.003 297.99 119.977 297.981L116.241 294.719C116.241 294.719 116.206 294.668 116.206 294.65L116.275 289.214L116.284 289.206Z" fill="#92B6DA"/>
</g>
<g opacity="0.5">
<path d="M114.472 277.455C114.472 277.455 114.507 277.446 114.507 277.472L115.102 283.072C115.102 283.072 115.093 283.124 115.067 283.141L110.693 286.204C110.693 286.204 110.658 286.204 110.658 286.187L110.451 281.234C110.451 281.234 110.46 281.174 110.477 281.165L114.463 277.472L114.472 277.455Z" fill="#92B6DA"/>
</g>
<g opacity="0.5">
<path d="M172.191 307.508C172.191 307.508 172.226 307.508 172.217 307.534L170.422 312.875C170.422 312.875 170.388 312.918 170.362 312.927L165.107 313.885C165.107 313.885 165.072 313.876 165.081 313.85L166.962 309.259C166.962 309.259 166.997 309.216 167.023 309.208L172.191 307.516V307.508Z" fill="#92B6DA"/>
</g>
<g opacity="0.5">
<path d="M161.233 305.629C161.233 305.629 161.267 305.629 161.259 305.655L159.464 310.996C159.464 310.996 159.429 311.039 159.403 311.048L154.148 312.006C154.148 312.006 154.114 311.997 154.123 311.971L156.004 307.381C156.004 307.381 156.038 307.337 156.064 307.329L161.233 305.638V305.629Z" fill="#92B6DA"/>
</g>
<g opacity="0.5">
<path d="M161.785 295.928C161.785 295.928 161.802 295.894 161.819 295.911L166.289 299.337C166.289 299.337 166.324 299.38 166.315 299.406L165.521 304.687C165.521 304.687 165.504 304.712 165.478 304.704L161.742 301.442C161.742 301.442 161.707 301.39 161.707 301.373L161.776 295.937L161.785 295.928Z" fill="#92B6DA"/>
</g>
<g opacity="0.5">
<path d="M159.973 284.173C159.973 284.173 160.007 284.165 160.007 284.191L160.603 289.791C160.603 289.791 160.594 289.842 160.568 289.86L156.194 292.923C156.194 292.923 156.159 292.923 156.159 292.906L155.952 287.953C155.952 287.953 155.961 287.892 155.978 287.884L159.964 284.191L159.973 284.173Z" fill="#92B6DA"/>
</g>
<g opacity="0.5">
<path d="M164.883 223.947C164.883 223.947 164.917 223.938 164.917 223.964L165.513 229.564C165.513 229.564 165.504 229.616 165.478 229.633L161.103 232.696C161.103 232.696 161.069 232.696 161.069 232.679L160.862 227.726C160.862 227.726 160.87 227.666 160.888 227.657L164.874 223.964L164.883 223.947Z" fill="#92B6DA"/>
</g>
<g opacity="0.5">
<path d="M155.192 243.516C155.192 243.516 155.227 243.516 155.218 243.542L153.424 248.883C153.424 248.883 153.389 248.926 153.363 248.935L148.108 249.892C148.108 249.892 148.074 249.884 148.082 249.858L149.963 245.267C149.963 245.267 149.998 245.224 150.024 245.215L155.192 243.524V243.516Z" fill="#92B6DA"/>
</g>
<g opacity="0.5">
<path d="M155.745 233.819C155.745 233.819 155.762 233.784 155.779 233.802L160.249 237.227C160.249 237.227 160.283 237.27 160.275 237.296L159.481 242.577C159.481 242.577 159.464 242.603 159.438 242.594L155.701 239.333C155.701 239.333 155.667 239.281 155.667 239.264L155.736 233.828L155.745 233.819Z" fill="#92B6DA"/>
</g>
<g opacity="0.5">
<path d="M153.933 222.064C153.933 222.064 153.967 222.055 153.967 222.081L154.562 227.681C154.562 227.681 154.554 227.733 154.528 227.75L150.153 230.813C150.153 230.813 150.119 230.813 150.119 230.796L149.911 225.843C149.911 225.843 149.92 225.783 149.937 225.774L153.924 222.081L153.933 222.064Z" fill="#92B6DA"/>
</g>
<g opacity="0.5">
<path d="M143.733 241.836C143.733 241.836 143.767 241.836 143.759 241.862L141.964 247.203C141.964 247.203 141.929 247.246 141.903 247.255L136.648 248.213C136.648 248.213 136.614 248.204 136.623 248.178L138.504 243.588C138.504 243.588 138.538 243.544 138.564 243.536L143.733 241.845V241.836Z" fill="#92B6DA"/>
</g>
<g opacity="0.5">
<path d="M144.277 232.147C144.277 232.147 144.294 232.113 144.311 232.13L148.781 235.555C148.781 235.555 148.816 235.599 148.807 235.624L148.013 240.905C148.013 240.905 147.996 240.931 147.97 240.923L144.234 237.661C144.234 237.661 144.199 237.609 144.199 237.592L144.268 232.156L144.277 232.147Z" fill="#92B6DA"/>
</g>
<g opacity="0.5">
<path d="M142.465 220.392C142.465 220.392 142.499 220.383 142.499 220.409L143.094 226.009C143.094 226.009 143.086 226.061 143.06 226.078L138.685 229.142C138.685 229.142 138.651 229.142 138.651 229.124L138.443 224.171C138.443 224.171 138.452 224.111 138.469 224.102L142.456 220.409L142.465 220.392Z" fill="#92B6DA"/>
</g>
<g opacity="0.5">
<path d="M132.774 239.965C132.774 239.965 132.809 239.965 132.8 239.991L131.005 245.332C131.005 245.332 130.971 245.375 130.945 245.384L125.69 246.342C125.69 246.342 125.655 246.333 125.664 246.307L127.545 241.716C127.545 241.716 127.58 241.673 127.606 241.665L132.774 239.973V239.965Z" fill="#92B6DA"/>
</g>
<g opacity="0.5">
<path d="M133.326 230.264C133.326 230.264 133.344 230.23 133.361 230.247L137.831 233.673C137.831 233.673 137.865 233.716 137.857 233.742L137.063 239.023C137.063 239.023 137.046 239.048 137.02 239.04L133.283 235.778C133.283 235.778 133.249 235.726 133.249 235.709L133.318 230.273L133.326 230.264Z" fill="#92B6DA"/>
</g>
<g opacity="0.5">
<path d="M131.514 218.513C131.514 218.513 131.549 218.504 131.549 218.53L132.144 224.13C132.144 224.13 132.136 224.182 132.11 224.199L127.735 227.263C127.735 227.263 127.701 227.263 127.701 227.245L127.493 222.292C127.493 222.292 127.502 222.232 127.519 222.223L131.506 218.53L131.514 218.513Z" fill="#92B6DA"/>
</g>
<g opacity="0.5">
<path d="M121.323 238.461C121.323 238.461 121.358 238.461 121.349 238.487L119.554 243.828C119.554 243.828 119.52 243.871 119.494 243.88L114.239 244.838C114.239 244.838 114.205 244.829 114.213 244.803L116.094 240.213C116.094 240.213 116.129 240.169 116.155 240.161L121.323 238.47V238.461Z" fill="#92B6DA"/>
</g>
<g opacity="0.5">
<path d="M121.876 228.76C121.876 228.76 121.894 228.726 121.911 228.743L126.381 232.169C126.381 232.169 126.415 232.212 126.407 232.238L125.613 237.519C125.613 237.519 125.595 237.544 125.57 237.536L121.833 234.274C121.833 234.274 121.799 234.222 121.799 234.205L121.868 228.769L121.876 228.76Z" fill="#92B6DA"/>
</g>
<g opacity="0.5">
<path d="M120.064 217.009C120.064 217.009 120.098 217.001 120.098 217.026L120.694 222.627C120.694 222.627 120.685 222.678 120.659 222.696L116.284 225.759C116.284 225.759 116.25 225.759 116.25 225.742L116.043 220.789C116.043 220.789 116.051 220.728 116.068 220.72L120.055 217.026L120.064 217.009Z" fill="#92B6DA"/>
</g>
<g opacity="0.5">
<path d="M110.374 236.582C110.374 236.582 110.408 236.582 110.399 236.608L108.605 241.949C108.605 241.949 108.57 241.992 108.544 242.001L103.289 242.959C103.289 242.959 103.255 242.95 103.263 242.924L105.145 238.334C105.145 238.334 105.179 238.291 105.205 238.282L110.374 236.591V236.582Z" fill="#92B6DA"/>
</g>
<g opacity="0.5">
<path d="M110.917 226.889C110.917 226.889 110.934 226.855 110.952 226.872L115.421 230.298C115.421 230.298 115.456 230.341 115.447 230.367L114.653 235.647C114.653 235.647 114.636 235.673 114.61 235.665L110.874 232.403C110.874 232.403 110.839 232.351 110.839 232.334L110.908 226.898L110.917 226.889Z" fill="#92B6DA"/>
</g>
<g opacity="0.5">
<path d="M109.105 215.126C109.105 215.126 109.14 215.118 109.14 215.144L109.735 220.744C109.735 220.744 109.726 220.795 109.701 220.813L105.326 223.876C105.326 223.876 105.291 223.876 105.291 223.859L105.084 218.906C105.084 218.906 105.093 218.845 105.11 218.837L109.096 215.144L109.105 215.126Z" fill="#92B6DA"/>
</g>
</g>
<g opacity="0.5">
<g opacity="0.5">
<path d="M115.016 87.7234C115.016 87.7234 114.982 87.7407 114.982 87.7234L113.368 82.3218C113.368 82.3218 113.368 82.27 113.385 82.2528L117.122 78.4475C117.122 78.4475 117.156 78.4388 117.165 78.4561L118.278 83.2882C118.278 83.2882 118.278 83.3486 118.26 83.3659L115.016 87.732V87.7234Z" fill="#92B6DA"/>
</g>
<g opacity="0.5">
<path d="M120.159 95.9525C120.159 95.9525 120.159 95.987 120.142 95.987L114.516 95.7713C114.516 95.7713 114.464 95.754 114.455 95.7281L112.056 90.9564C112.056 90.9564 112.056 90.9219 112.082 90.9219L117.018 91.4223C117.018 91.4223 117.07 91.4396 117.087 91.4655L120.167 95.9438L120.159 95.9525Z" fill="#92B6DA"/>
</g>
<g opacity="0.5">
<path d="M128.426 104.513C128.426 104.513 128.4 104.539 128.391 104.522L124.672 100.294C124.672 100.294 124.646 100.242 124.655 100.225L126.458 95.2029C126.458 95.2029 126.484 95.177 126.501 95.2029L129.53 99.129C129.53 99.129 129.556 99.1808 129.547 99.2067L128.417 104.531L128.426 104.513Z" fill="#92B6DA"/>
</g>
<g opacity="0.5">
<path d="M125.052 82.9344C125.052 82.9344 125.017 82.9516 125.017 82.9344L123.404 77.5327C123.404 77.5327 123.404 77.481 123.421 77.4637L127.157 73.6584C127.157 73.6584 127.192 73.6498 127.2 73.667L128.314 78.4992C128.314 78.4992 128.314 78.5596 128.296 78.5768L125.052 82.943V82.9344Z" fill="#92B6DA"/>
</g>
<g opacity="0.5">
<path d="M130.194 91.1712C130.194 91.1712 130.194 91.2057 130.177 91.2057L124.551 90.99C124.551 90.99 124.499 90.9727 124.491 90.9469L122.092 86.1751C122.092 86.1751 122.092 86.1406 122.118 86.1406L127.054 86.6411C127.054 86.6411 127.105 86.6583 127.123 86.6842L130.203 91.1626L130.194 91.1712Z" fill="#92B6DA"/>
</g>
<g opacity="0.5">
<path d="M138.452 99.7243C138.452 99.7243 138.427 99.7502 138.418 99.7329L134.699 95.5048C134.699 95.5048 134.673 95.4531 134.682 95.4358L136.485 90.4138C136.485 90.4138 136.511 90.388 136.528 90.4138L139.557 94.34C139.557 94.34 139.583 94.3917 139.574 94.4176L138.444 99.7416L138.452 99.7243Z" fill="#92B6DA"/>
</g>
<g opacity="0.5">
<path d="M134.336 109.372C134.336 109.372 134.302 109.389 134.302 109.372L132.688 103.97C132.688 103.97 132.688 103.918 132.706 103.901L136.442 100.096C136.442 100.096 136.476 100.087 136.485 100.105L137.598 104.937C137.598 104.937 137.598 104.997 137.581 105.014L134.336 109.38V109.372Z" fill="#92B6DA"/>
</g>
<g opacity="0.5">
<path d="M139.479 117.605C139.479 117.605 139.479 117.639 139.462 117.639L133.836 117.424C133.836 117.424 133.784 117.406 133.775 117.38L131.377 112.609C131.377 112.609 131.377 112.574 131.402 112.574L136.338 113.075C136.338 113.075 136.39 113.092 136.407 113.118L139.488 117.596L139.479 117.605Z" fill="#92B6DA"/>
</g>
<g opacity="0.5">
<path d="M147.737 126.166C147.737 126.166 147.711 126.192 147.703 126.174L143.984 121.946C143.984 121.946 143.958 121.894 143.966 121.877L145.77 116.855C145.77 116.855 145.796 116.829 145.813 116.855L148.842 120.781C148.842 120.781 148.868 120.833 148.859 120.859L147.729 126.183L147.737 126.166Z" fill="#92B6DA"/>
</g>
<g opacity="0.5">
<path d="M144.363 104.591C144.363 104.591 144.329 104.608 144.329 104.591L142.715 99.189C142.715 99.189 142.715 99.1372 142.733 99.12L146.469 95.3147C146.469 95.3147 146.503 95.306 146.512 95.3233L147.625 100.155C147.625 100.155 147.625 100.216 147.608 100.233L144.363 104.599V104.591Z" fill="#92B6DA"/>
</g>
<g opacity="0.5">
<path d="M149.506 112.824C149.506 112.824 149.506 112.858 149.489 112.858L143.863 112.642C143.863 112.642 143.811 112.625 143.803 112.599L141.404 107.827C141.404 107.827 141.404 107.793 141.43 107.793L146.365 108.293C146.365 108.293 146.417 108.311 146.434 108.337L149.515 112.815L149.506 112.824Z" fill="#92B6DA"/>
</g>
<g opacity="0.5">
<path d="M157.773 121.373C157.773 121.373 157.747 121.399 157.738 121.381L154.019 117.153C154.019 117.153 153.993 117.102 154.002 117.084L155.805 112.062C155.805 112.062 155.831 112.036 155.849 112.062L158.877 115.988C158.877 115.988 158.903 116.04 158.895 116.066L157.764 121.39L157.773 121.373Z" fill="#92B6DA"/>
</g>
<g opacity="0.5">
<path d="M134.957 75.4265C134.957 75.4265 134.923 75.4438 134.923 75.4265L133.309 70.0249C133.309 70.0249 133.309 69.9731 133.327 69.9559L137.063 66.1506C137.063 66.1506 137.097 66.142 137.106 66.1592L138.219 70.9914C138.219 70.9914 138.219 71.0517 138.202 71.069L134.957 75.4352V75.4265Z" fill="#92B6DA"/>
</g>
<g opacity="0.5">
<path d="M140.1 83.6556C140.1 83.6556 140.1 83.6901 140.083 83.6901L134.457 83.4744C134.457 83.4744 134.405 83.4571 134.397 83.4312L131.998 78.6595C131.998 78.6595 131.998 78.625 132.024 78.625L136.959 79.1255C136.959 79.1255 137.011 79.1427 137.028 79.1686L140.109 83.647L140.1 83.6556Z" fill="#92B6DA"/>
</g>
<g opacity="0.5">
<path d="M148.358 92.2087C148.358 92.2087 148.333 92.2346 148.324 92.2173L144.605 87.9892C144.605 87.9892 144.579 87.9374 144.588 87.9202L146.391 82.8982C146.391 82.8982 146.417 82.8723 146.434 82.8982L149.463 86.8243C149.463 86.8243 149.489 86.8761 149.48 86.902L148.35 92.226L148.358 92.2087Z" fill="#92B6DA"/>
</g>
<g opacity="0.5">
<path d="M144.985 70.6375C144.985 70.6375 144.95 70.6547 144.95 70.6375L143.336 65.2359C143.336 65.2359 143.336 65.1841 143.354 65.1668L147.09 61.3615C147.09 61.3615 147.124 61.3529 147.133 61.3702L148.246 66.2023C148.246 66.2023 148.246 66.2627 148.229 66.2799L144.985 70.6461V70.6375Z" fill="#92B6DA"/>
</g>
<g opacity="0.5">
<path d="M150.127 78.8665C150.127 78.8665 150.127 78.901 150.11 78.901L144.484 78.6853C144.484 78.6853 144.432 78.6681 144.424 78.6422L142.025 73.8705C142.025 73.8705 142.025 73.8359 142.051 73.8359L146.986 74.3364C146.986 74.3364 147.038 74.3537 147.055 74.3796L150.136 78.8579L150.127 78.8665Z" fill="#92B6DA"/>
</g>
<g opacity="0.5">
<path d="M158.394 87.4274C158.394 87.4274 158.368 87.4533 158.36 87.4361L154.641 83.208C154.641 83.208 154.615 83.1562 154.623 83.1389L156.427 78.117C156.427 78.117 156.453 78.0911 156.47 78.117L159.499 82.0431C159.499 82.0431 159.524 82.0948 159.516 82.1207L158.385 87.4447L158.394 87.4274Z" fill="#92B6DA"/>
</g>
<g opacity="0.5">
<path d="M114.947 118.403C114.947 118.403 114.912 118.42 114.912 118.403L113.299 113.001C113.299 113.001 113.299 112.95 113.316 112.932L117.052 109.127C117.052 109.127 117.087 109.119 117.096 109.136L118.209 113.968C118.209 113.968 118.209 114.028 118.191 114.046L114.947 118.412V118.403Z" fill="#92B6DA"/>
</g>
<g opacity="0.5">
<path d="M120.09 126.636C120.09 126.636 120.09 126.671 120.072 126.671L114.446 126.455C114.446 126.455 114.395 126.438 114.386 126.412L111.987 121.64C111.987 121.64 111.987 121.605 112.013 121.605L116.949 122.106C116.949 122.106 117 122.123 117.018 122.149L120.098 126.627L120.09 126.636Z" fill="#92B6DA"/>
</g>
<g opacity="0.5">
<path d="M128.357 135.189C128.357 135.189 128.331 135.215 128.322 135.198L124.603 130.97C124.603 130.97 124.577 130.918 124.586 130.901L126.389 125.879C126.389 125.879 126.415 125.853 126.432 125.879L129.461 129.805C129.461 129.805 129.487 129.857 129.478 129.882L128.348 135.206L128.357 135.189Z" fill="#92B6DA"/>
</g>
<g opacity="0.5">
<path d="M124.983 113.614C124.983 113.614 124.948 113.631 124.948 113.614L123.334 108.212C123.334 108.212 123.334 108.161 123.352 108.143L127.088 104.338C127.088 104.338 127.122 104.329 127.131 104.347L128.244 109.179C128.244 109.179 128.244 109.239 128.227 109.257L124.983 113.623V113.614Z" fill="#92B6DA"/>
</g>
<g opacity="0.5">
<path d="M130.125 121.855C130.125 121.855 130.125 121.889 130.108 121.889L124.482 121.674C124.482 121.674 124.43 121.656 124.422 121.63L122.023 116.859C122.023 116.859 122.023 116.824 122.049 116.824L126.984 117.325C126.984 117.325 127.036 117.342 127.053 117.368L130.134 121.846L130.125 121.855Z" fill="#92B6DA"/>
</g>
<g opacity="0.5">
<path d="M138.383 130.408C138.383 130.408 138.357 130.434 138.349 130.417L134.63 126.188C134.63 126.188 134.604 126.137 134.613 126.119L136.416 121.097C136.416 121.097 136.442 121.072 136.459 121.097L139.488 125.024C139.488 125.024 139.514 125.075 139.505 125.101L138.375 130.425L138.383 130.408Z" fill="#92B6DA"/>
</g>
<g opacity="0.5">
<path d="M107.319 112.978C107.319 112.978 107.293 113.004 107.284 112.987L103.565 108.759C103.565 108.759 103.54 108.707 103.548 108.69L105.352 103.668C105.352 103.668 105.378 103.642 105.395 103.668L108.423 107.594C108.423 107.594 108.449 107.646 108.441 107.672L107.31 112.995L107.319 112.978Z" fill="#92B6DA"/>
</g>
<g opacity="0.5">
<path d="M103.936 91.407C103.936 91.407 103.902 91.4243 103.902 91.407L102.288 86.0054C102.288 86.0054 102.288 85.9536 102.305 85.9364L106.042 82.1311C106.042 82.1311 106.076 82.1224 106.085 82.1397L107.198 86.9718C107.198 86.9718 107.198 87.0322 107.181 87.0495L103.936 91.4156V91.407Z" fill="#92B6DA"/>
</g>
<g opacity="0.5">
<path d="M109.087 99.6361C109.087 99.6361 109.087 99.6706 109.07 99.6706L103.444 99.4548C103.444 99.4548 103.392 99.4376 103.384 99.4117L100.985 94.64C100.985 94.64 100.985 94.6055 101.011 94.6055L105.947 95.1059C105.947 95.1059 105.998 95.1232 106.016 95.1491L109.096 99.6274L109.087 99.6361Z" fill="#92B6DA"/>
</g>
<g opacity="0.5">
<path d="M117.346 108.189C117.346 108.189 117.32 108.215 117.311 108.198L113.592 103.97C113.592 103.97 113.566 103.918 113.575 103.901L115.378 98.8787C115.378 98.8787 115.404 98.8528 115.421 98.8787L118.45 102.805C118.45 102.805 118.476 102.857 118.467 102.882L117.337 108.206L117.346 108.189Z" fill="#92B6DA"/>
</g>
<g opacity="0.5">
<path d="M80.31 30.8493C80.31 30.8493 80.2841 30.8752 80.2755 30.8579L76.5565 26.6298C76.5565 26.6298 76.5306 26.5781 76.5392 26.5608L78.3427 21.5388C78.3427 21.5388 78.3685 21.513 78.3858 21.5388L81.4145 25.465C81.4145 25.465 81.4404 25.5167 81.4317 25.5426L80.3014 30.8666L80.31 30.8493Z" fill="#92B6DA"/>
</g>
<g opacity="0.5">
<path d="M76.9275 9.27811C76.9275 9.27811 76.893 9.29537 76.893 9.27811L75.2794 3.87648C75.2794 3.87648 75.2794 3.82471 75.2967 3.80745L79.0329 0.00215628C79.0329 0.00215628 79.0675 -0.00647067 79.0761 0.0107869L80.1892 4.84291C80.1892 4.84291 80.1892 4.90331 80.172 4.92057L76.9275 9.28674V9.27811Z" fill="#92B6DA"/>
</g>
<g opacity="0.5">
<path d="M82.0789 17.5071C82.0789 17.5071 82.0789 17.5417 82.0616 17.5417L76.4356 17.3259C76.4356 17.3259 76.3839 17.3087 76.3752 17.2828L73.9764 12.5111C73.9764 12.5111 73.9764 12.4766 74.0023 12.4766L78.938 12.977C78.938 12.977 78.9898 12.9943 79.007 13.0202L82.0875 17.4985L82.0789 17.5071Z" fill="#92B6DA"/>
</g>
<g opacity="0.5">
<path d="M90.3366 26.072C90.3366 26.072 90.3107 26.0979 90.3021 26.0806L86.5831 21.8525C86.5831 21.8525 86.5572 21.8007 86.5658 21.7835L88.3693 16.7615C88.3693 16.7615 88.3951 16.7356 88.4124 16.7615L91.4411 20.6876C91.4411 20.6876 91.467 20.7394 91.4584 20.7653L90.328 26.0892L90.3366 26.072Z" fill="#92B6DA"/>
</g>
<g opacity="0.5">
<path d="M106.741 25.3367C106.741 25.3367 106.706 25.354 106.706 25.3367L105.093 19.9351C105.093 19.9351 105.093 19.8833 105.11 19.866L108.846 16.0608C108.846 16.0608 108.881 16.0521 108.889 16.0694L110.002 20.9015C110.002 20.9015 110.002 20.9619 109.985 20.9792L106.741 25.3453V25.3367Z" fill="#92B6DA"/>
</g>
<g opacity="0.5">
<path d="M111.883 33.5657C111.883 33.5657 111.883 33.6003 111.866 33.6003L106.24 33.3845C106.24 33.3845 106.188 33.3673 106.18 33.3414L103.781 28.5697C103.781 28.5697 103.781 28.5352 103.807 28.5352L108.743 29.0356C108.743 29.0356 108.794 29.0529 108.812 29.0788L111.892 33.5571L111.883 33.5657Z" fill="#92B6DA"/>
</g>
<g opacity="0.5">
<path d="M120.141 42.1188C120.141 42.1188 120.115 42.1447 120.107 42.1275L116.388 37.8994C116.388 37.8994 116.362 37.8476 116.37 37.8303L118.174 32.8084C118.174 32.8084 118.2 32.7825 118.217 32.8084L121.246 36.7345C121.246 36.7345 121.272 36.7863 121.263 36.8121L120.133 42.1361L120.141 42.1188Z" fill="#92B6DA"/>
</g>
<g opacity="0.5">
<path d="M116.767 20.5437C116.767 20.5437 116.733 20.561 116.733 20.5437L115.119 15.1421C115.119 15.1421 115.119 15.0903 115.137 15.0731L118.873 11.2678C118.873 11.2678 118.907 11.2592 118.916 11.2764L120.029 16.1085C120.029 16.1085 120.029 16.1689 120.012 16.1862L116.767 20.5524V20.5437Z" fill="#92B6DA"/>
</g>
<g opacity="0.5">
<path d="M121.91 28.7767C121.91 28.7767 121.91 28.8112 121.893 28.8112L116.267 28.5955C116.267 28.5955 116.215 28.5782 116.206 28.5523L113.808 23.7806C113.808 23.7806 113.808 23.7461 113.834 23.7461L118.769 24.2466C118.769 24.2466 118.821 24.2638 118.838 24.2897L121.919 28.7681L121.91 28.7767Z" fill="#92B6DA"/>
</g>
<g opacity="0.5">
<path d="M130.177 37.3376C130.177 37.3376 130.151 37.3635 130.142 37.3462L126.423 33.1181C126.423 33.1181 126.397 33.0663 126.406 33.0491L128.209 28.0271C128.209 28.0271 128.235 28.0012 128.253 28.0271L131.281 31.9532C131.281 31.9532 131.307 32.005 131.299 32.0309L130.168 37.3549L130.177 37.3376Z" fill="#92B6DA"/>
</g>
<g opacity="0.5">
<path d="M86.2122 35.7156C86.2122 35.7156 86.1777 35.7329 86.1777 35.7156L84.5641 30.314C84.5641 30.314 84.5641 30.2622 84.5813 30.245L88.3176 26.4397C88.3176 26.4397 88.3521 26.431 88.3608 26.4483L89.4739 31.2804C89.4739 31.2804 89.4739 31.3408 89.4566 31.3581L86.2122 35.7242V35.7156Z" fill="#92B6DA"/>
</g>
<g opacity="0.5">
<path d="M99.6215 52.4977C99.6215 52.4977 99.5956 52.5236 99.587 52.5064L95.868 48.2783C95.868 48.2783 95.8421 48.2265 95.8507 48.2092L97.6541 43.1873C97.6541 43.1873 97.68 43.1614 97.6973 43.1873L100.726 47.1134C100.726 47.1134 100.752 47.1652 100.743 47.191L99.6129 52.515L99.6215 52.4977Z" fill="#92B6DA"/>
</g>
<g opacity="0.5">
<path d="M96.2478 30.9265C96.2478 30.9265 96.2133 30.9438 96.2133 30.9265L94.5997 25.5249C94.5997 25.5249 94.5997 25.4732 94.6169 25.4559L98.3532 21.6506C98.3532 21.6506 98.3877 21.642 98.3963 21.6592L99.5095 26.4913C99.5095 26.4913 99.5094 26.5518 99.4922 26.569L96.2478 30.9352V30.9265Z" fill="#92B6DA"/>
</g>
<g opacity="0.5">
<path d="M101.39 39.1595C101.39 39.1595 101.39 39.194 101.373 39.194L95.7471 38.9783C95.7471 38.9783 95.6953 38.961 95.6867 38.9351L93.2878 34.1634C93.2878 34.1634 93.2879 34.1289 93.3138 34.1289L98.2494 34.6294C98.2494 34.6294 98.3012 34.6466 98.3184 34.6725L101.399 39.1509L101.39 39.1595Z" fill="#92B6DA"/>
</g>
<g opacity="0.5">
<path d="M109.657 47.7204C109.657 47.7204 109.631 47.7463 109.623 47.729L105.904 43.5009C105.904 43.5009 105.878 43.4492 105.886 43.4319L107.69 38.4099C107.69 38.4099 107.716 38.3841 107.733 38.4099L110.762 42.336C110.762 42.336 110.788 42.3878 110.779 42.4137L109.649 47.7377L109.657 47.7204Z" fill="#92B6DA"/>
</g>
<g opacity="0.5">
<path d="M91.9847 10.0032C91.9847 10.0032 91.9846 10.0378 91.9674 10.0378L86.3414 9.82203C86.3414 9.82203 86.2896 9.80478 86.281 9.77889L83.8822 5.00717C83.8822 5.00717 83.8822 4.97266 83.9081 4.97266L88.8438 5.47312C88.8438 5.47312 88.8955 5.49038 88.9128 5.51627L91.9933 9.99461L91.9847 10.0032Z" fill="#92B6DA"/>
</g>
<g opacity="0.5">
<path d="M100.243 18.5524C100.243 18.5524 100.217 18.5783 100.208 18.5611L96.4893 14.333C96.4893 14.333 96.4634 14.2812 96.472 14.2639L98.2755 9.24197C98.2755 9.24197 98.3014 9.21609 98.3186 9.24197L101.347 13.1681C101.347 13.1681 101.373 13.2198 101.365 13.2457L100.234 18.5697L100.243 18.5524Z" fill="#92B6DA"/>
</g>
<g opacity="0.5">
<path d="M102.012 5.21027C102.012 5.21027 102.012 5.24479 101.995 5.24479L96.3686 5.02907C96.3686 5.02907 96.3169 5.01181 96.3082 4.98592L93.9094 0.214203C93.9094 0.214203 93.9094 0.179688 93.9353 0.179688L98.871 0.680159C98.871 0.680159 98.9228 0.697413 98.94 0.723299L102.021 5.20164L102.012 5.21027Z" fill="#92B6DA"/>
</g>
<g opacity="0.5">
<path d="M110.279 13.7634C110.279 13.7634 110.253 13.7893 110.244 13.772L106.525 9.5439C106.525 9.5439 106.499 9.49213 106.508 9.47487L108.311 4.45291C108.311 4.45291 108.337 4.42702 108.354 4.45291L111.383 8.37901C111.383 8.37901 111.409 8.43078 111.4 8.45667L110.27 13.7806L110.279 13.7634Z" fill="#92B6DA"/>
</g>
<g opacity="0.5">
<path d="M99.9754 86.5563C99.9754 86.5563 99.9496 86.5822 99.9409 86.565L96.2219 82.3369C96.2219 82.3369 96.196 82.2851 96.2046 82.2678L98.0081 77.2459C98.0081 77.2459 98.034 77.22 98.0512 77.2459L101.08 81.172C101.08 81.172 101.106 81.2238 101.097 81.2496L99.9668 86.5736L99.9754 86.5563Z" fill="#92B6DA"/>
</g>
<g opacity="0.5">
<path d="M96.6015 64.9851C96.6015 64.9851 96.5669 65.0024 96.5669 64.9851L94.9534 59.5835C94.9534 59.5835 94.9534 59.5317 94.9706 59.5145L98.7069 55.7092C98.7069 55.7092 98.7414 55.7006 98.75 55.7178L99.8632 60.5499C99.8632 60.5499 99.8631 60.6103 99.8459 60.6276L96.6015 64.9938V64.9851Z" fill="#92B6DA"/>
</g>
<g opacity="0.5">
<path d="M101.744 73.2259C101.744 73.2259 101.744 73.2604 101.727 73.2604L96.1011 73.0447C96.1011 73.0447 96.0493 73.0274 96.0406 73.0016L93.6418 68.2298C93.6418 68.2298 93.6418 68.1953 93.6677 68.1953L98.6034 68.6958C98.6034 68.6958 98.6552 68.713 98.6724 68.7389L101.753 73.2173L101.744 73.2259Z" fill="#92B6DA"/>
</g>
<g opacity="0.5">
<path d="M110.002 81.7751C110.002 81.7751 109.976 81.801 109.968 81.7837L106.249 77.5556C106.249 77.5556 106.223 77.5039 106.231 77.4866L108.035 72.4646C108.035 72.4646 108.061 72.4387 108.078 72.4646L111.107 76.3907C111.107 76.3907 111.132 76.4425 111.124 76.4684L109.993 81.7924L110.002 81.7751Z" fill="#92B6DA"/>
</g>
<g opacity="0.5">
<path d="M106.93 59.739C106.93 59.739 106.896 59.7563 106.896 59.739L105.282 54.3374C105.282 54.3374 105.282 54.2856 105.3 54.2684L109.036 50.4631C109.036 50.4631 109.07 50.4545 109.079 50.4717L110.192 55.3038C110.192 55.3038 110.192 55.3642 110.175 55.3815L106.93 59.7477V59.739Z" fill="#92B6DA"/>
</g>
<g opacity="0.5">
<path d="M112.073 67.9798C112.073 67.9798 112.073 68.0143 112.056 68.0143L106.43 67.7986C106.43 67.7986 106.378 67.7813 106.37 67.7555L103.971 62.9837C103.971 62.9837 103.971 62.9492 103.997 62.9492L108.932 63.4497C108.932 63.4497 108.984 63.467 109.001 63.4928L112.082 67.9712L112.073 67.9798Z" fill="#92B6DA"/>
</g>
<g opacity="0.5">
<path d="M120.331 76.5329C120.331 76.5329 120.305 76.5588 120.296 76.5415L116.577 72.3134C116.577 72.3134 116.551 72.2617 116.56 72.2444L118.364 67.2224C118.364 67.2224 118.389 67.1966 118.407 67.2224L121.435 71.1485C121.435 71.1485 121.461 71.2003 121.453 71.2262L120.322 76.5502L120.331 76.5329Z" fill="#92B6DA"/>
</g>
<g opacity="0.5">
<path d="M116.957 54.9578C116.957 54.9578 116.922 54.9751 116.922 54.9578L115.309 49.5562C115.309 49.5562 115.309 49.5044 115.326 49.4871L119.062 45.6818C119.062 45.6818 119.097 45.6732 119.106 45.6905L120.219 50.5226C120.219 50.5226 120.219 50.583 120.201 50.6003L116.957 54.9664V54.9578Z" fill="#92B6DA"/>
</g>
<g opacity="0.5">
<path d="M122.1 63.1907C122.1 63.1907 122.1 63.2253 122.083 63.2253L116.457 63.0095C116.457 63.0095 116.405 62.9923 116.396 62.9664L113.997 58.1947C113.997 58.1947 113.997 58.1602 114.023 58.1602L118.959 58.6606C118.959 58.6606 119.011 58.6779 119.028 58.7038L122.108 63.1821L122.1 63.1907Z" fill="#92B6DA"/>
</g>
<g opacity="0.5">
<path d="M130.367 71.7438C130.367 71.7438 130.341 71.7697 130.332 71.7525L126.613 67.5244C126.613 67.5244 126.587 67.4726 126.596 67.4553L128.399 62.4334C128.399 62.4334 128.425 62.4075 128.443 62.4334L131.471 66.3595C131.471 66.3595 131.497 66.4113 131.489 66.4371L130.358 71.7611L130.367 71.7438Z" fill="#92B6DA"/>
</g>
<g opacity="0.5">
<path d="M127.174 49.575C127.174 49.575 127.14 49.5922 127.14 49.575L125.526 44.1734C125.526 44.1734 125.526 44.1216 125.543 44.1043L129.279 40.299C129.279 40.299 129.314 40.2904 129.323 40.3077L130.436 45.1398C130.436 45.1398 130.436 45.2002 130.418 45.2174L127.174 49.5836V49.575Z" fill="#92B6DA"/>
</g>
<g opacity="0.5">
<path d="M132.325 57.8157C132.325 57.8157 132.325 57.8503 132.308 57.8503L126.682 57.6345C126.682 57.6345 126.63 57.6173 126.622 57.5914L124.223 52.8197C124.223 52.8197 124.223 52.7852 124.249 52.7852L129.185 53.2856C129.185 53.2856 129.236 53.3029 129.254 53.3288L132.334 57.8071L132.325 57.8157Z" fill="#92B6DA"/>
</g>
<g opacity="0.5">
<path d="M140.583 66.3649C140.583 66.3649 140.557 66.3908 140.549 66.3736L136.83 62.1455C136.83 62.1455 136.804 62.0937 136.812 62.0764L138.616 57.0545C138.616 57.0545 138.642 57.0286 138.659 57.0545L141.688 60.9806C141.688 60.9806 141.714 61.0323 141.705 61.0582L140.575 66.3822L140.583 66.3649Z" fill="#92B6DA"/>
</g>
<g opacity="0.5">
<path d="M137.21 44.7937C137.21 44.7937 137.175 44.811 137.175 44.7937L135.561 39.3921C135.561 39.3921 135.561 39.3403 135.579 39.3231L139.315 35.5178C139.315 35.5178 139.349 35.5092 139.358 35.5264L140.471 40.3585C140.471 40.3585 140.471 40.4189 140.454 40.4362L137.21 44.8024V44.7937Z" fill="#92B6DA"/>
</g>
<g opacity="0.5">
<path d="M142.352 53.0228C142.352 53.0228 142.352 53.0573 142.335 53.0573L136.709 52.8416C136.709 52.8416 136.657 52.8243 136.649 52.7984L134.25 48.0267C134.25 48.0267 134.25 47.9922 134.276 47.9922L139.211 48.4927C139.211 48.4927 139.263 48.5099 139.28 48.5358L142.361 53.0142L142.352 53.0228Z" fill="#92B6DA"/>
</g>
<g opacity="0.5">
<path d="M150.619 61.5759C150.619 61.5759 150.593 61.6018 150.585 61.5845L146.866 57.3564C146.866 57.3564 146.84 57.3046 146.848 57.2874L148.652 52.2654C148.652 52.2654 148.678 52.2395 148.695 52.2654L151.724 56.1915C151.724 56.1915 151.749 56.2433 151.741 56.2692L150.61 61.5931L150.619 61.5759Z" fill="#92B6DA"/>
</g>
</g>
<mask id="mask0_190_46281" style="mask-type:alpha" maskUnits="userSpaceOnUse" x="0" y="353" width="340" height="168">
<path d="M338.62 519.845H220.309L197.112 498.333L196.359 497.635L196.274 498.657L194.505 519.845H136.44L128.717 512.68L127.966 511.983L127.879 513.004L127.293 519.845H110.763L106.512 511.594L106.249 511.083L105.779 511.414L93.8291 519.845H78.2988L63.4385 491.101L62.6406 489.559L62.4961 491.289L60.1016 519.845H45.2588L17.0996 506.468L16.4473 506.157L16.3867 506.878L15.3076 519.845H0.5V360.934C16.0941 364.914 35.5419 368.277 57.7764 370.816V370.815C60.4824 371.147 63.2403 371.444 66.0498 371.724L79.8604 382.9L80.6748 383.56V373.071C84.0805 373.367 87.5514 373.633 91.0605 373.875L124.556 400.98L125.37 401.64V375.606C136.183 375.976 147.323 376.148 158.663 376.148H161.494L169.088 400.73L170.065 400.583V376.081C174.448 376.044 178.8 375.966 183.09 375.847L183.089 375.846C186.07 375.784 189.008 375.704 191.935 375.606C197.698 375.423 203.387 375.189 208.982 374.895L213.847 382.766L214.145 383.249L214.586 382.892L225.684 373.91C230.938 373.539 236.069 373.126 241.116 372.68L258.53 400.855L259.456 402.353V370.835C263.106 370.419 266.687 369.974 270.207 369.52L303.463 382.976L304.151 383.254V363.869C309.795 362.689 315.045 361.45 319.893 360.138L325.679 364.82L325.983 364.442L326.297 364.829L326.788 364.432L326.787 364.431L338.62 354.855V519.845Z" fill="#C59B6D" stroke="#C59B6D"/>
</mask>
<g mask="url(#mask0_190_46281)">
<path d="M83.3909 20.6317L83.4512 27.7504C83.5116 35.1194 88.2404 41.0474 94.0045 40.9956L99.4581 40.9439C104.204 40.9007 108.372 44.9476 109.64 50.7893C113.256 67.4515 119.564 104.348 118.649 155.724C117.441 223.667 91.3209 279.728 87.8003 285.864C87.6104 286.2 87.4379 286.528 87.2739 286.882L11.5371 404.259C10.7691 405.484 7.66267 413.785 7.26574 415.269C6.54953 417.979 6.5409 420.947 7.26574 423.708C15.1785 453.909 64.1309 617.364 120.78 619.116C201.548 621.618 237.531 621.601 244.27 617.537C245.064 617.062 245.78 616.476 246.453 615.76C255.98 605.664 320.982 511.748 333.503 416.357C333.891 413.38 333.028 410.368 331.682 407.883C309.41 366.733 263.608 316.755 245.866 278.262C227.53 238.491 216.079 177.538 215.889 155.759C215.743 138.786 215.95 77.6421 216.804 51.4796C217.028 44.6543 221.257 39.175 226.598 38.7867C232.785 38.338 237.997 31.4867 238.169 23.5655L238.23 20.8302C238.394 13.2972 233.639 7.05859 227.746 7.05859L93.7888 7.1794C87.9987 7.1794 83.3391 13.2109 83.4081 20.6144L83.3909 20.6317Z" fill="#C59B6D" stroke="#C59B6D" stroke-width="9" stroke-miterlimit="10"/>
</g>
<path d="M191.415 473.351C191.936 484.396 194.199 493.929 193.125 504.526L158.936 504.547C158.06 493.971 159.509 484.396 160.897 473.174C152.083 479.526 144.73 485.585 135.103 490.8L117.435 460.679C126.853 455.089 136.24 451.272 146.232 447.152C136.178 442.897 126.864 439.653 117.644 433.614L134.863 403.775C144.469 408.583 152.156 414.674 160.907 421.599C156.015 417.699 159.238 420.953 159.238 420.953H192.823C192.739 426.793 193.633 415.897 194.29 421.279C202.853 415.178 207.435 408.625 216.749 403.535L234.428 433.604C225.155 439.497 216.029 442.865 205.766 447.204C215.925 451.24 225.228 455.141 234.428 460.742L217.093 490.884C208.082 486.096 200.551 480.256 191.425 473.362L191.415 473.351Z" fill="#603813"/>
<path d="M160.577 421.227C160.056 410.182 157.793 400.649 158.867 390.052L193.056 390.032C193.932 400.607 192.483 410.182 191.095 421.404C199.909 415.052 207.262 408.993 216.889 403.778L234.557 433.899C225.139 439.489 215.752 443.306 205.76 447.426C215.814 451.681 225.128 454.925 234.348 460.964L217.128 490.803C207.522 485.995 199.836 479.904 191.085 472.979C195.977 476.879 192.754 473.625 192.754 473.625H159.169C159.253 467.785 157.324 479.007 156.667 473.625C148.104 479.727 144.557 485.953 135.243 491.043L117.564 460.974C126.837 455.081 135.963 451.713 146.226 447.374C136.067 443.338 126.764 439.437 117.564 433.836L134.899 403.694C143.91 408.482 151.441 414.322 160.567 421.216L160.577 421.227Z" fill="#603813"/>
<rect x="94.2947" y="520.23" width="15.9762" height="0.101597" fill="#215523" stroke="#511E68" stroke-width="0.101597"/>
<rect x="94.5274" y="520.119" width="15.6811" height="0.136765" fill="#215523" stroke="#511E68" stroke-width="0.136765"/>
<line y1="-0.5" x2="0.357321" y2="-0.5" transform="matrix(0.898794 -0.438371 0.465074 0.885272 110.262 520.73)" stroke="#511E68"/>
<line y1="-0.5" x2="0.349388" y2="-0.5" transform="matrix(-0.572058 -0.820213 0.8416 -0.540102 94.6552 520.312)" stroke="#511E68"/>
</svg>
