<svg width="340" height="626" viewBox="0 0 340 626" fill="none" xmlns="http://www.w3.org/2000/svg">
<path d="M83.1053 20.3077L83.1657 27.4265C83.2261 34.7956 87.9547 40.7237 93.7189 40.6719L99.1723 40.6201C103.918 40.577 108.086 44.624 109.354 50.4658C112.97 67.1282 119.278 104.025 118.363 155.402C117.155 223.346 91.0353 279.408 87.5147 285.543C87.3248 285.88 87.1523 286.208 86.9883 286.562L11.2523 403.941C10.4843 405.166 7.37787 413.467 6.98094 414.951C6.26474 417.661 6.25611 420.629 6.98094 423.39C14.8937 453.592 63.8455 617.049 120.494 618.801C201.261 621.303 237.244 621.286 243.983 617.222C244.777 616.747 245.493 616.161 246.166 615.444C255.692 605.349 320.694 511.431 333.215 416.039C333.603 413.062 332.74 410.05 331.394 407.565C309.123 366.414 263.32 316.435 245.579 277.941C227.243 238.171 215.792 177.216 215.602 155.437C215.456 138.464 215.663 77.319 216.517 51.1561C216.741 44.3306 220.97 38.8512 226.311 38.4629C232.498 38.0142 237.71 31.1629 237.882 23.2415L237.943 20.5061C238.107 12.9731 233.352 6.73438 227.459 6.73438L93.5031 6.85518C87.7131 6.85518 83.0535 12.8868 83.1226 20.2904L83.1053 20.3077Z" fill="#DCD6CB" stroke="#DCD6CB" stroke-width="9" stroke-miterlimit="10"/>
<path d="M116.033 63.0547C124.058 90.6155 127.389 119.402 128.027 148.05C129.555 219.834 108.88 292.964 64.4839 349.984C55.6478 361.305 46.087 372.03 35.7582 381.945C45.3967 371.366 54.4829 360.312 62.784 348.724C71.0159 337.135 78.618 324.994 85.2623 312.422C125.301 237.169 133.593 145.866 116.033 63.0547Z" fill="#E2E3E2"/>
<path d="M303.384 378.468C225.129 308.799 193.495 204.587 208.242 102.11C210.365 87.8119 213.143 73.5569 217.552 59.7852C216.638 63.2799 215.878 66.8005 215.171 70.3383C210.27 95.0343 208.104 120.283 208.199 145.427C208.544 234.365 240.497 315.236 303.376 378.468H303.384Z" fill="#E2E3E2"/>
<path d="M89.3009 595.59C135.44 605.41 184.297 611.381 230.841 601.294C237.468 599.775 243.992 597.825 250.472 595.59C244.363 598.696 237.951 601.225 231.393 603.339C187.179 616.705 132.489 610.699 89.3009 595.59Z" fill="#E2E3E2"/>
<path d="M22.1763 403.5C20.3815 412.371 18.8973 421.163 21.184 430.008C21.4342 431.363 21.9261 432.571 22.1763 433.951C21.6327 433.511 21.1322 433.028 20.6317 432.528C13.1505 424.667 14.5656 410.783 22.1763 403.5Z" fill="#E2E3E2"/>
<path d="M315.724 431.666C317.061 426.748 318.157 421.683 317.872 416.566C317.708 411.371 316.725 406.461 315.724 401.215C323.878 408.946 324.827 424.289 315.724 431.666Z" fill="#E2E3E2"/>
<path d="M94.4694 346.058C94.4694 346.058 147.33 284.404 216.016 344.677C284.703 404.95 94.4694 346.058 94.4694 346.058Z" fill="#D88D90"/>
<path d="M37.8984 435.724C44.1975 465.58 59.6346 530.107 81.8109 565.408C86.7985 573.355 94.5731 583.891 103.383 585.625C140.41 592.917 202.909 589.663 232.282 587.541C243.077 586.764 252.853 575.391 258.471 565.511C270.586 544.224 290.657 500.906 301.21 433.696C302.547 425.179 301.003 416.421 296.766 409.069C279.569 379.213 255.615 349.529 235.233 330.563C229.875 325.575 223.196 322.383 216.094 321.856C207.25 321.2 197.654 323.289 188.206 325.782C172.449 329.95 156.313 332.254 140.082 332.539C120.52 332.884 101.813 339.761 86.4015 351.816C78.6441 357.882 71.7237 365.26 65.951 373.776L43.4295 406.981C37.8034 415.273 35.7929 425.731 37.8984 435.715V435.724Z" fill="#BE272C"/>
<g opacity="0.5">
<g opacity="0.5">
<path d="M152.507 214.324C152.507 214.324 152.542 214.324 152.533 214.35L150.739 219.691C150.739 219.691 150.704 219.735 150.678 219.743L145.423 220.701C145.423 220.701 145.389 220.692 145.397 220.666L147.278 216.076C147.278 216.076 147.313 216.033 147.339 216.024L152.507 214.333V214.324Z" fill="#92B6DA"/>
</g>
<g opacity="0.5">
<path d="M153.051 204.628C153.051 204.628 153.068 204.593 153.086 204.61L157.555 208.036C157.555 208.036 157.59 208.079 157.581 208.105L156.787 213.386C156.787 213.386 156.77 213.412 156.744 213.403L153.008 210.141C153.008 210.141 152.973 210.09 152.973 210.072L153.042 204.636L153.051 204.628Z" fill="#92B6DA"/>
</g>
<g opacity="0.5">
<path d="M151.239 192.872C151.239 192.872 151.273 192.864 151.273 192.89L151.869 198.49C151.869 198.49 151.86 198.542 151.834 198.559L147.459 201.622C147.459 201.622 147.425 201.622 147.425 201.605L147.218 196.652C147.218 196.652 147.226 196.592 147.244 196.583L151.23 192.89L151.239 192.872Z" fill="#92B6DA"/>
</g>
<g opacity="0.5">
<path d="M141.549 212.445C141.549 212.445 141.583 212.445 141.575 212.471L139.78 217.813C139.78 217.813 139.745 217.856 139.719 217.864L134.464 218.822C134.464 218.822 134.43 218.813 134.438 218.788L136.32 214.197C136.32 214.197 136.354 214.154 136.38 214.145L141.549 212.454V212.445Z" fill="#92B6DA"/>
</g>
<g opacity="0.5">
<path d="M142.101 202.745C142.101 202.745 142.118 202.71 142.135 202.727L146.605 206.153C146.605 206.153 146.64 206.196 146.631 206.222L145.837 211.503C145.837 211.503 145.82 211.529 145.794 211.52L142.058 208.259C142.058 208.259 142.023 208.207 142.023 208.19L142.092 202.753L142.101 202.745Z" fill="#92B6DA"/>
</g>
<g opacity="0.5">
<path d="M140.289 190.994C140.289 190.994 140.323 190.985 140.323 191.011L140.919 196.611C140.919 196.611 140.91 196.663 140.884 196.68L136.509 199.743C136.509 199.743 136.475 199.743 136.475 199.726L136.268 194.773C136.268 194.773 136.276 194.713 136.294 194.704L140.28 191.011L140.289 190.994Z" fill="#92B6DA"/>
</g>
<g opacity="0.5">
<path d="M126.465 182.133C126.465 182.133 126.5 182.133 126.491 182.159L124.696 187.5C124.696 187.5 124.662 187.543 124.636 187.552L119.381 188.51C119.381 188.51 119.346 188.501 119.355 188.475L121.236 183.884C121.236 183.884 121.271 183.841 121.297 183.833L126.465 182.141V182.133Z" fill="#92B6DA"/>
</g>
<g opacity="0.5">
<path d="M127.018 172.444C127.018 172.444 127.035 172.409 127.052 172.427L131.522 175.852C131.522 175.852 131.556 175.896 131.548 175.921L130.754 181.202C130.754 181.202 130.737 181.228 130.711 181.22L126.975 177.958C126.975 177.958 126.94 177.906 126.94 177.889L127.009 172.453L127.018 172.444Z" fill="#92B6DA"/>
</g>
<g opacity="0.5">
<path d="M125.205 160.689C125.205 160.689 125.24 160.68 125.24 160.706L125.835 166.306C125.835 166.306 125.827 166.358 125.801 166.375L121.426 169.439C121.426 169.439 121.391 169.439 121.391 169.421L121.184 164.468C121.184 164.468 121.193 164.408 121.21 164.399L125.197 160.706L125.205 160.689Z" fill="#92B6DA"/>
</g>
<g opacity="0.5">
<path d="M115.515 180.254C115.515 180.254 115.55 180.254 115.541 180.28L113.746 185.621C113.746 185.621 113.712 185.664 113.686 185.673L108.431 186.631C108.431 186.631 108.396 186.622 108.405 186.596L110.286 182.006C110.286 182.006 110.321 181.962 110.346 181.954L115.515 180.263V180.254Z" fill="#92B6DA"/>
</g>
<g opacity="0.5">
<path d="M116.067 170.565C116.067 170.565 116.084 170.531 116.102 170.548L120.572 173.973C120.572 173.973 120.606 174.017 120.597 174.043L119.804 179.323C119.804 179.323 119.786 179.349 119.76 179.341L116.024 176.079C116.024 176.079 115.99 176.027 115.99 176.01L116.059 170.574L116.067 170.565Z" fill="#92B6DA"/>
</g>
<g opacity="0.5">
<path d="M114.256 158.81C114.256 158.81 114.29 158.801 114.29 158.827L114.885 164.427C114.885 164.427 114.877 164.479 114.851 164.496L110.476 167.56C110.476 167.56 110.442 167.56 110.442 167.542L110.234 162.589C110.234 162.589 110.243 162.529 110.26 162.52L114.247 158.827L114.256 158.81Z" fill="#92B6DA"/>
</g>
<g opacity="0.5">
<path d="M149.22 185.496C149.22 185.496 149.254 185.496 149.246 185.522L147.451 190.863C147.451 190.863 147.416 190.906 147.39 190.915L142.135 191.873C142.135 191.873 142.101 191.864 142.109 191.838L143.991 187.248C143.991 187.248 144.025 187.205 144.051 187.196L149.22 185.505V185.496Z" fill="#92B6DA"/>
</g>
<g opacity="0.5">
<path d="M149.772 175.799C149.772 175.799 149.789 175.765 149.806 175.782L154.276 179.208C154.276 179.208 154.311 179.251 154.302 179.277L153.508 184.558C153.508 184.558 153.491 184.584 153.465 184.575L149.729 181.313C149.729 181.313 149.694 181.262 149.694 181.244L149.763 175.808L149.772 175.799Z" fill="#92B6DA"/>
</g>
<g opacity="0.5">
<path d="M147.96 164.044C147.96 164.044 147.994 164.036 147.994 164.062L148.59 169.662C148.59 169.662 148.581 169.714 148.555 169.731L144.18 172.794C144.18 172.794 144.146 172.794 144.146 172.777L143.939 167.824C143.939 167.824 143.947 167.763 143.965 167.755L147.951 164.062L147.96 164.044Z" fill="#92B6DA"/>
</g>
<g opacity="0.5">
<path d="M138.27 183.617C138.27 183.617 138.304 183.617 138.295 183.643L136.501 188.984C136.501 188.984 136.466 189.028 136.44 189.036L131.185 189.994C131.185 189.994 131.151 189.985 131.159 189.959L133.04 185.369C133.04 185.369 133.075 185.326 133.101 185.317L138.27 183.626V183.617Z" fill="#92B6DA"/>
</g>
<g opacity="0.5">
<path d="M138.813 173.924C138.813 173.924 138.83 173.89 138.848 173.907L143.317 177.333C143.317 177.333 143.352 177.376 143.343 177.402L142.549 182.683C142.549 182.683 142.532 182.709 142.506 182.7L138.77 179.438C138.77 179.438 138.735 179.387 138.735 179.369L138.804 173.933L138.813 173.924Z" fill="#92B6DA"/>
</g>
<g opacity="0.5">
<path d="M137.001 162.162C137.001 162.162 137.036 162.153 137.036 162.179L137.631 167.779C137.631 167.779 137.622 167.831 137.596 167.848L133.222 170.911C133.222 170.911 133.187 170.911 133.187 170.894L132.98 165.941C132.98 165.941 132.989 165.881 133.006 165.872L136.992 162.179L137.001 162.162Z" fill="#92B6DA"/>
</g>
<g opacity="0.5">
<path d="M129.123 212.859C129.123 212.859 129.157 212.859 129.149 212.885L127.354 218.227C127.354 218.227 127.319 218.27 127.294 218.278L122.039 219.236C122.039 219.236 122.004 219.228 122.013 219.202L123.894 214.611C123.894 214.611 123.928 214.568 123.954 214.559L129.123 212.868V212.859Z" fill="#92B6DA"/>
</g>
<g opacity="0.5">
<path d="M129.675 203.171C129.675 203.171 129.693 203.136 129.71 203.153L134.18 206.579C134.18 206.579 134.214 206.622 134.206 206.648L133.412 211.929C133.412 211.929 133.394 211.955 133.369 211.946L129.632 208.684C129.632 208.684 129.598 208.633 129.598 208.615L129.667 203.179L129.675 203.171Z" fill="#92B6DA"/>
</g>
<g opacity="0.5">
<path d="M127.863 191.415C127.863 191.415 127.898 191.407 127.898 191.433L128.493 197.033C128.493 197.033 128.484 197.085 128.459 197.102L124.084 200.165C124.084 200.165 124.049 200.165 124.049 200.148L123.842 195.195C123.842 195.195 123.851 195.135 123.868 195.126L127.855 191.433L127.863 191.415Z" fill="#92B6DA"/>
</g>
<g opacity="0.5">
<path d="M118.173 210.988C118.173 210.988 118.207 210.988 118.199 211.014L116.404 216.355C116.404 216.355 116.37 216.399 116.344 216.407L111.089 217.365C111.089 217.365 111.054 217.356 111.063 217.331L112.944 212.74C112.944 212.74 112.978 212.697 113.004 212.688L118.173 210.997V210.988Z" fill="#92B6DA"/>
</g>
<g opacity="0.5">
<path d="M118.716 201.292C118.716 201.292 118.734 201.257 118.751 201.274L123.221 204.7C123.221 204.7 123.255 204.743 123.247 204.769L122.453 210.05C122.453 210.05 122.435 210.076 122.41 210.067L118.673 206.806C118.673 206.806 118.639 206.754 118.639 206.736L118.708 201.3L118.716 201.292Z" fill="#92B6DA"/>
</g>
<g opacity="0.5">
<path d="M116.905 189.537C116.905 189.537 116.939 189.528 116.939 189.554L117.534 195.154C117.534 195.154 117.526 195.206 117.5 195.223L113.125 198.286C113.125 198.286 113.091 198.286 113.091 198.269L112.883 193.316C112.883 193.316 112.892 193.256 112.909 193.247L116.896 189.554L116.905 189.537Z" fill="#92B6DA"/>
</g>
<g opacity="0.5">
<path d="M170.266 189.301C170.266 189.301 170.3 189.301 170.291 189.327L168.497 194.668C168.497 194.668 168.462 194.711 168.436 194.72L163.181 195.678C163.181 195.678 163.147 195.669 163.155 195.643L165.036 191.052C165.036 191.052 165.071 191.009 165.097 191.001L170.266 189.309V189.301Z" fill="#92B6DA"/>
</g>
<g opacity="0.5">
<path d="M170.809 179.612C170.809 179.612 170.827 179.577 170.844 179.595L175.314 183.02C175.314 183.02 175.348 183.063 175.34 183.089L174.546 188.37C174.546 188.37 174.528 188.396 174.503 188.388L170.766 185.126C170.766 185.126 170.732 185.074 170.732 185.057L170.801 179.621L170.809 179.612Z" fill="#92B6DA"/>
</g>
<g opacity="0.5">
<path d="M168.997 167.853C168.997 167.853 169.032 167.844 169.032 167.87L169.627 173.47C169.627 173.47 169.618 173.522 169.592 173.539L165.218 176.603C165.218 176.603 165.183 176.603 165.183 176.585L164.976 171.632C164.976 171.632 164.985 171.572 165.002 171.563L168.988 167.87L168.997 167.853Z" fill="#92B6DA"/>
</g>
<g opacity="0.5">
<path d="M159.307 187.422C159.307 187.422 159.341 187.422 159.333 187.448L157.538 192.789C157.538 192.789 157.503 192.832 157.478 192.841L152.223 193.799C152.223 193.799 152.188 193.79 152.197 193.764L154.078 189.174C154.078 189.174 154.112 189.13 154.138 189.122L159.307 187.431V187.422Z" fill="#92B6DA"/>
</g>
<g opacity="0.5">
<path d="M159.859 177.733C159.859 177.733 159.876 177.699 159.894 177.716L164.363 181.141C164.363 181.141 164.398 181.185 164.389 181.21L163.595 186.491C163.595 186.491 163.578 186.517 163.552 186.509L159.816 183.247C159.816 183.247 159.781 183.195 159.781 183.178L159.851 177.742L159.859 177.733Z" fill="#92B6DA"/>
</g>
<g opacity="0.5">
<path d="M158.047 165.978C158.047 165.978 158.081 165.969 158.081 165.995L158.677 171.595C158.677 171.595 158.668 171.647 158.642 171.664L154.267 174.728C154.267 174.728 154.233 174.728 154.233 174.71L154.026 169.757C154.026 169.757 154.035 169.697 154.052 169.688L158.038 165.995L158.047 165.978Z" fill="#92B6DA"/>
</g>
<g opacity="0.5">
<path d="M173.363 198.138C173.363 198.138 173.398 198.129 173.398 198.155L173.993 203.756C173.993 203.756 173.985 203.807 173.959 203.825L169.584 206.888C169.584 206.888 169.549 206.888 169.549 206.871L169.342 201.918C169.342 201.918 169.351 201.857 169.368 201.849L173.355 198.155L173.363 198.138Z" fill="#92B6DA"/>
</g>
<g opacity="0.5">
<path d="M163.673 217.711C163.673 217.711 163.708 217.711 163.699 217.737L161.904 223.078C161.904 223.078 161.87 223.121 161.844 223.13L156.589 224.088C156.589 224.088 156.555 224.079 156.563 224.053L158.444 219.463C158.444 219.463 158.479 219.419 158.505 219.411L163.673 217.72V217.711Z" fill="#92B6DA"/>
</g>
<g opacity="0.5">
<path d="M164.226 208.01C164.226 208.01 164.243 207.976 164.26 207.993L168.73 211.419C168.73 211.419 168.764 211.462 168.756 211.488L167.962 216.769C167.962 216.769 167.945 216.795 167.919 216.786L164.182 213.524C164.182 213.524 164.148 213.472 164.148 213.455L164.217 208.019L164.226 208.01Z" fill="#92B6DA"/>
</g>
<g opacity="0.5">
<path d="M162.413 196.259C162.413 196.259 162.448 196.251 162.448 196.276L163.043 201.877C163.043 201.877 163.035 201.928 163.009 201.946L158.634 205.009C158.634 205.009 158.599 205.009 158.599 204.992L158.392 200.039C158.392 200.039 158.401 199.978 158.418 199.97L162.405 196.276L162.413 196.259Z" fill="#92B6DA"/>
</g>
<g opacity="0.5">
<path d="M168.583 157.469C168.583 157.469 168.617 157.469 168.609 157.495L166.814 162.836C166.814 162.836 166.779 162.879 166.753 162.888L161.498 163.846C161.498 163.846 161.464 163.837 161.473 163.811L163.354 159.22C163.354 159.22 163.388 159.177 163.414 159.169L168.583 157.477V157.469Z" fill="#92B6DA"/>
</g>
<g opacity="0.5">
<path d="M157.633 155.598C157.633 155.598 157.667 155.598 157.658 155.624L155.864 160.965C155.864 160.965 155.829 161.008 155.803 161.017L150.548 161.974C150.548 161.974 150.514 161.966 150.522 161.94L152.403 157.349C152.403 157.349 152.438 157.306 152.464 157.298L157.633 155.606V155.598Z" fill="#92B6DA"/>
</g>
<g opacity="0.5">
<path d="M158.185 145.901C158.185 145.901 158.202 145.866 158.22 145.884L162.689 149.309C162.689 149.309 162.724 149.353 162.715 149.378L161.922 154.659C161.922 154.659 161.904 154.685 161.878 154.677L158.142 151.415C158.142 151.415 158.108 151.363 158.108 151.346L158.177 145.91L158.185 145.901Z" fill="#92B6DA"/>
</g>
<g opacity="0.5">
<path d="M156.364 134.146C156.364 134.146 156.399 134.137 156.399 134.163L156.994 139.763C156.994 139.763 156.986 139.815 156.96 139.832L152.585 142.896C152.585 142.896 152.55 142.896 152.55 142.878L152.343 137.925C152.343 137.925 152.352 137.865 152.369 137.856L156.356 134.163L156.364 134.146Z" fill="#92B6DA"/>
</g>
<g opacity="0.5">
<path d="M146.173 153.914C146.173 153.914 146.208 153.914 146.199 153.94L144.405 159.281C144.405 159.281 144.37 159.324 144.344 159.333L139.089 160.291C139.089 160.291 139.055 160.282 139.063 160.256L140.944 155.666C140.944 155.666 140.979 155.623 141.005 155.614L146.173 153.923V153.914Z" fill="#92B6DA"/>
</g>
<g opacity="0.5">
<path d="M146.717 144.225C146.717 144.225 146.735 144.191 146.752 144.208L151.222 147.634C151.222 147.634 151.256 147.677 151.247 147.703L150.454 152.984C150.454 152.984 150.436 153.009 150.41 153.001L146.674 149.739C146.674 149.739 146.64 149.687 146.64 149.67L146.709 144.234L146.717 144.225Z" fill="#92B6DA"/>
</g>
<g opacity="0.5">
<path d="M144.905 132.47C144.905 132.47 144.94 132.462 144.94 132.487L145.535 138.088C145.535 138.088 145.526 138.139 145.5 138.157L141.126 141.22C141.126 141.22 141.091 141.22 141.091 141.203L140.884 136.25C140.884 136.25 140.893 136.189 140.91 136.181L144.896 132.487L144.905 132.47Z" fill="#92B6DA"/>
</g>
<g opacity="0.5">
<path d="M135.215 152.043C135.215 152.043 135.249 152.043 135.241 152.069L133.446 157.41C133.446 157.41 133.411 157.453 133.386 157.462L128.131 158.42C128.131 158.42 128.096 158.411 128.105 158.385L129.986 153.795C129.986 153.795 130.02 153.751 130.046 153.743L135.215 152.052V152.043Z" fill="#92B6DA"/>
</g>
<g opacity="0.5">
<path d="M135.767 142.342C135.767 142.342 135.785 142.308 135.802 142.325L140.272 145.751C140.272 145.751 140.306 145.794 140.298 145.82L139.504 151.101C139.504 151.101 139.486 151.127 139.461 151.118L135.724 147.856C135.724 147.856 135.69 147.804 135.69 147.787L135.759 142.351L135.767 142.342Z" fill="#92B6DA"/>
</g>
<g opacity="0.5">
<path d="M133.955 130.591C133.955 130.591 133.99 130.583 133.99 130.608L134.585 136.209C134.585 136.209 134.576 136.26 134.55 136.278L130.176 139.341C130.176 139.341 130.141 139.341 130.141 139.324L129.934 134.371C129.934 134.371 129.943 134.31 129.96 134.302L133.946 130.608L133.955 130.591Z" fill="#92B6DA"/>
</g>
<g opacity="0.5">
<path d="M123.764 150.543C123.764 150.543 123.799 150.543 123.79 150.569L121.995 155.91C121.995 155.91 121.961 155.953 121.935 155.962L116.68 156.92C116.68 156.92 116.645 156.911 116.654 156.885L118.535 152.295C118.535 152.295 118.57 152.251 118.596 152.243L123.764 150.552V150.543Z" fill="#92B6DA"/>
</g>
<g opacity="0.5">
<path d="M124.317 140.842C124.317 140.842 124.334 140.808 124.351 140.825L128.821 144.251C128.821 144.251 128.855 144.294 128.847 144.32L128.053 149.601C128.053 149.601 128.036 149.627 128.01 149.618L124.273 146.356C124.273 146.356 124.239 146.305 124.239 146.287L124.308 140.851L124.317 140.842Z" fill="#92B6DA"/>
</g>
<g opacity="0.5">
<path d="M122.496 129.091C122.496 129.091 122.53 129.083 122.53 129.108L123.126 134.709C123.126 134.709 123.117 134.76 123.091 134.778L118.716 137.841C118.716 137.841 118.682 137.841 118.682 137.824L118.475 132.871C118.475 132.871 118.483 132.81 118.501 132.802L122.487 129.108L122.496 129.091Z" fill="#92B6DA"/>
</g>
<g opacity="0.5">
<path d="M112.814 148.66C112.814 148.66 112.849 148.66 112.84 148.686L111.045 154.027C111.045 154.027 111.011 154.07 110.985 154.079L105.73 155.037C105.73 155.037 105.695 155.028 105.704 155.002L107.585 150.412C107.585 150.412 107.62 150.369 107.645 150.36L112.814 148.669V148.66Z" fill="#92B6DA"/>
</g>
<g opacity="0.5">
<path d="M113.358 138.96C113.358 138.96 113.375 138.925 113.392 138.942L117.862 142.368C117.862 142.368 117.897 142.411 117.888 142.437L117.094 147.718C117.094 147.718 117.077 147.744 117.051 147.735L113.315 144.473C113.315 144.473 113.28 144.422 113.28 144.404L113.349 138.968L113.358 138.96Z" fill="#92B6DA"/>
</g>
<g opacity="0.5">
<path d="M149.297 302.246C149.297 302.246 149.332 302.246 149.323 302.272L147.528 307.613C147.528 307.613 147.494 307.656 147.468 307.665L142.213 308.623C142.213 308.623 142.178 308.614 142.187 308.588L144.068 303.998C144.068 303.998 144.103 303.955 144.129 303.946L149.297 302.255V302.246Z" fill="#92B6DA"/>
</g>
<g opacity="0.5">
<path d="M149.85 292.557C149.85 292.557 149.867 292.523 149.884 292.54L154.354 295.966C154.354 295.966 154.389 296.009 154.38 296.035L153.586 301.316C153.586 301.316 153.569 301.341 153.543 301.333L149.807 298.071C149.807 298.071 149.772 298.019 149.772 298.002L149.841 292.566L149.85 292.557Z" fill="#92B6DA"/>
</g>
<g opacity="0.5">
<path d="M148.038 280.798C148.038 280.798 148.072 280.79 148.072 280.816L148.667 286.416C148.667 286.416 148.659 286.467 148.633 286.485L144.258 289.548C144.258 289.548 144.224 289.548 144.224 289.531L144.016 284.578C144.016 284.578 144.025 284.517 144.042 284.509L148.029 280.816L148.038 280.798Z" fill="#92B6DA"/>
</g>
<g opacity="0.5">
<path d="M138.347 300.367C138.347 300.367 138.382 300.367 138.373 300.393L136.579 305.734C136.579 305.734 136.544 305.778 136.518 305.786L131.263 306.744C131.263 306.744 131.229 306.735 131.237 306.709L133.118 302.119C133.118 302.119 133.153 302.076 133.179 302.067L138.347 300.376V300.367Z" fill="#92B6DA"/>
</g>
<g opacity="0.5">
<path d="M138.899 290.678C138.899 290.678 138.917 290.644 138.934 290.661L143.404 294.087C143.404 294.087 143.438 294.13 143.43 294.156L142.636 299.437C142.636 299.437 142.619 299.463 142.593 299.454L138.856 296.192C138.856 296.192 138.822 296.14 138.822 296.123L138.891 290.687L138.899 290.678Z" fill="#92B6DA"/>
</g>
<g opacity="0.5">
<path d="M137.079 278.923C137.079 278.923 137.113 278.915 137.113 278.941L137.709 284.541C137.709 284.541 137.7 284.592 137.674 284.61L133.299 287.673C133.299 287.673 133.265 287.673 133.265 287.656L133.058 282.703C133.058 282.703 133.066 282.642 133.084 282.634L137.07 278.941L137.079 278.923Z" fill="#92B6DA"/>
</g>
<g opacity="0.5">
<path d="M123.264 270.059C123.264 270.059 123.298 270.059 123.29 270.084L121.495 275.426C121.495 275.426 121.46 275.469 121.434 275.478L116.179 276.435C116.179 276.435 116.145 276.427 116.153 276.401L118.035 271.81C118.035 271.81 118.069 271.767 118.095 271.758L123.264 270.067V270.059Z" fill="#92B6DA"/>
</g>
<g opacity="0.5">
<path d="M123.816 260.362C123.816 260.362 123.833 260.327 123.85 260.345L128.32 263.77C128.32 263.77 128.355 263.814 128.346 263.839L127.552 269.12C127.552 269.12 127.535 269.146 127.509 269.138L123.773 265.876C123.773 265.876 123.738 265.824 123.738 265.807L123.807 260.371L123.816 260.362Z" fill="#92B6DA"/>
</g>
<g opacity="0.5">
<path d="M122.004 248.607C122.004 248.607 122.038 248.598 122.038 248.624L122.634 254.224C122.634 254.224 122.625 254.276 122.599 254.293L118.225 257.357C118.225 257.357 118.19 257.357 118.19 257.339L117.983 252.386C117.983 252.386 117.992 252.326 118.009 252.317L121.995 248.624L122.004 248.607Z" fill="#92B6DA"/>
</g>
<g opacity="0.5">
<path d="M112.314 268.18C112.314 268.18 112.348 268.18 112.339 268.206L110.545 273.547C110.545 273.547 110.51 273.59 110.484 273.599L105.229 274.556C105.229 274.556 105.195 274.548 105.203 274.522L107.084 269.931C107.084 269.931 107.119 269.888 107.145 269.88L112.314 268.188V268.18Z" fill="#92B6DA"/>
</g>
<g opacity="0.5">
<path d="M112.866 258.479C112.866 258.479 112.883 258.445 112.9 258.462L117.37 261.888C117.37 261.888 117.405 261.931 117.396 261.957L116.602 267.237C116.602 267.237 116.585 267.263 116.559 267.255L112.823 263.993C112.823 263.993 112.788 263.941 112.788 263.924L112.857 258.488L112.866 258.479Z" fill="#92B6DA"/>
</g>
<g opacity="0.5">
<path d="M111.045 246.728C111.045 246.728 111.08 246.719 111.08 246.745L111.675 252.345C111.675 252.345 111.666 252.397 111.641 252.414L107.266 255.478C107.266 255.478 107.231 255.478 107.231 255.46L107.024 250.507C107.024 250.507 107.033 250.447 107.05 250.438L111.036 246.745L111.045 246.728Z" fill="#92B6DA"/>
</g>
<g opacity="0.5">
<path d="M146.018 273.418C146.018 273.418 146.053 273.418 146.044 273.444L144.249 278.785C144.249 278.785 144.215 278.828 144.189 278.837L138.934 279.795C138.934 279.795 138.899 279.786 138.908 279.76L140.789 275.17C140.789 275.17 140.824 275.126 140.85 275.118L146.018 273.427V273.418Z" fill="#92B6DA"/>
</g>
<g opacity="0.5">
<path d="M144.75 251.974C144.75 251.974 144.784 251.965 144.784 251.991L145.38 257.591C145.38 257.591 145.371 257.643 145.345 257.66L140.97 260.724C140.97 260.724 140.936 260.724 140.936 260.707L140.729 255.753C140.729 255.753 140.737 255.693 140.755 255.684L144.741 251.991L144.75 251.974Z" fill="#92B6DA"/>
</g>
<g opacity="0.5">
<path d="M135.068 271.535C135.068 271.535 135.103 271.535 135.094 271.561L133.3 276.902C133.3 276.902 133.265 276.945 133.239 276.954L127.984 277.912C127.984 277.912 127.95 277.903 127.958 277.877L129.839 273.287C129.839 273.287 129.874 273.244 129.9 273.235L135.068 271.544V271.535Z" fill="#92B6DA"/>
</g>
<g opacity="0.5">
<path d="M135.612 261.846C135.612 261.846 135.629 261.812 135.646 261.829L140.116 265.255C140.116 265.255 140.151 265.298 140.142 265.324L139.348 270.605C139.348 270.605 139.331 270.631 139.305 270.622L135.569 267.36C135.569 267.36 135.534 267.308 135.534 267.291L135.603 261.855L135.612 261.846Z" fill="#92B6DA"/>
</g>
<g opacity="0.5">
<path d="M133.8 250.095C133.8 250.095 133.834 250.087 133.834 250.112L134.43 255.713C134.43 255.713 134.421 255.764 134.395 255.782L130.02 258.845C130.02 258.845 129.986 258.845 129.986 258.828L129.779 253.875C129.779 253.875 129.787 253.814 129.805 253.806L133.791 250.112L133.8 250.095Z" fill="#92B6DA"/>
</g>
<g opacity="0.5">
<path d="M126.474 291.088C126.474 291.088 126.491 291.054 126.508 291.071L130.978 294.497C130.978 294.497 131.013 294.54 131.004 294.566L130.21 299.847C130.21 299.847 130.193 299.873 130.167 299.864L126.431 296.602C126.431 296.602 126.396 296.551 126.396 296.533L126.465 291.097L126.474 291.088Z" fill="#92B6DA"/>
</g>
<g opacity="0.5">
<path d="M124.653 279.337C124.653 279.337 124.688 279.329 124.688 279.355L125.283 284.955C125.283 284.955 125.274 285.007 125.249 285.024L120.874 288.087C120.874 288.087 120.839 288.087 120.839 288.07L120.632 283.117C120.632 283.117 120.641 283.056 120.658 283.048L124.645 279.355L124.653 279.337Z" fill="#92B6DA"/>
</g>
<g opacity="0.5">
<path d="M115.515 289.217C115.515 289.217 115.532 289.183 115.55 289.2L120.019 292.626C120.019 292.626 120.054 292.669 120.045 292.695L119.251 297.976C119.251 297.976 119.234 298.002 119.208 297.993L115.472 294.731C115.472 294.731 115.437 294.679 115.437 294.662L115.506 289.226L115.515 289.217Z" fill="#92B6DA"/>
</g>
<g opacity="0.5">
<path d="M113.703 277.462C113.703 277.462 113.738 277.454 113.738 277.48L114.333 283.08C114.333 283.08 114.324 283.132 114.298 283.149L109.924 286.212C109.924 286.212 109.889 286.212 109.889 286.195L109.682 281.242C109.682 281.242 109.691 281.181 109.708 281.173L113.694 277.48L113.703 277.462Z" fill="#92B6DA"/>
</g>
<g opacity="0.5">
<path d="M171.422 307.508C171.422 307.508 171.456 307.508 171.448 307.534L169.653 312.875C169.653 312.875 169.618 312.918 169.593 312.927L164.338 313.885C164.338 313.885 164.303 313.876 164.312 313.85L166.193 309.259C166.193 309.259 166.227 309.216 166.253 309.208L171.422 307.516V307.508Z" fill="#92B6DA"/>
</g>
<g opacity="0.5">
<path d="M160.472 305.629C160.472 305.629 160.506 305.629 160.498 305.655L158.703 310.996C158.703 310.996 158.668 311.039 158.643 311.048L153.388 312.006C153.388 312.006 153.353 311.997 153.362 311.971L155.243 307.381C155.243 307.381 155.277 307.337 155.303 307.329L160.472 305.638V305.629Z" fill="#92B6DA"/>
</g>
<g opacity="0.5">
<path d="M161.024 295.94C161.024 295.94 161.041 295.906 161.058 295.923L165.528 299.348C165.528 299.348 165.563 299.392 165.554 299.418L164.76 304.698C164.76 304.698 164.743 304.724 164.717 304.716L160.981 301.454C160.981 301.454 160.946 301.402 160.946 301.385L161.015 295.949L161.024 295.94Z" fill="#92B6DA"/>
</g>
<g opacity="0.5">
<path d="M159.203 284.185C159.203 284.185 159.238 284.176 159.238 284.202L159.833 289.802C159.833 289.802 159.825 289.854 159.799 289.871L155.424 292.935C155.424 292.935 155.389 292.935 155.389 292.917L155.182 287.964C155.182 287.964 155.191 287.904 155.208 287.895L159.195 284.202L159.203 284.185Z" fill="#92B6DA"/>
</g>
<g opacity="0.5">
<path d="M164.122 223.947C164.122 223.947 164.156 223.938 164.156 223.964L164.752 229.564C164.752 229.564 164.743 229.616 164.717 229.633L160.342 232.696C160.342 232.696 160.308 232.696 160.308 232.679L160.101 227.726C160.101 227.726 160.109 227.666 160.127 227.657L164.113 223.964L164.122 223.947Z" fill="#92B6DA"/>
</g>
<g opacity="0.5">
<path d="M154.432 243.516C154.432 243.516 154.466 243.516 154.457 243.542L152.663 248.883C152.663 248.883 152.628 248.926 152.602 248.935L147.347 249.892C147.347 249.892 147.313 249.884 147.321 249.858L149.202 245.267C149.202 245.267 149.237 245.224 149.263 245.216L154.432 243.524V243.516Z" fill="#92B6DA"/>
</g>
<g opacity="0.5">
<path d="M154.975 233.827C154.975 233.827 154.993 233.792 155.01 233.81L159.48 237.235C159.48 237.235 159.514 237.278 159.505 237.304L158.712 242.585C158.712 242.585 158.694 242.611 158.668 242.602L154.932 239.341C154.932 239.341 154.898 239.289 154.898 239.272L154.967 233.835L154.975 233.827Z" fill="#92B6DA"/>
</g>
<g opacity="0.5">
<path d="M153.163 222.072C153.163 222.072 153.198 222.063 153.198 222.089L153.793 227.689C153.793 227.689 153.784 227.741 153.759 227.758L149.384 230.821C149.384 230.821 149.349 230.821 149.349 230.804L149.142 225.851C149.142 225.851 149.151 225.791 149.168 225.782L153.155 222.089L153.163 222.072Z" fill="#92B6DA"/>
</g>
<g opacity="0.5">
<path d="M142.964 241.844C142.964 241.844 142.998 241.844 142.99 241.87L141.195 247.211C141.195 247.211 141.16 247.254 141.134 247.263L135.879 248.221C135.879 248.221 135.845 248.212 135.853 248.186L137.735 243.595C137.735 243.595 137.769 243.552 137.795 243.544L142.964 241.852V241.844Z" fill="#92B6DA"/>
</g>
<g opacity="0.5">
<path d="M143.516 232.155C143.516 232.155 143.533 232.12 143.551 232.138L148.02 235.563C148.02 235.563 148.055 235.606 148.046 235.632L147.253 240.913C147.253 240.913 147.235 240.939 147.209 240.931L143.473 237.669C143.473 237.669 143.439 237.617 143.439 237.6L143.508 232.164L143.516 232.155Z" fill="#92B6DA"/>
</g>
<g opacity="0.5">
<path d="M141.704 220.396C141.704 220.396 141.739 220.387 141.739 220.413L142.334 226.013C142.334 226.013 142.325 226.065 142.299 226.082L137.925 229.146C137.925 229.146 137.89 229.146 137.89 229.128L137.683 224.175C137.683 224.175 137.692 224.115 137.709 224.106L141.695 220.413L141.704 220.396Z" fill="#92B6DA"/>
</g>
<g opacity="0.5">
<path d="M132.014 239.965C132.014 239.965 132.048 239.965 132.04 239.991L130.245 245.332C130.245 245.332 130.21 245.375 130.184 245.384L124.929 246.342C124.929 246.342 124.895 246.333 124.904 246.307L126.785 241.717C126.785 241.717 126.819 241.673 126.845 241.665L132.014 239.973V239.965Z" fill="#92B6DA"/>
</g>
<g opacity="0.5">
<path d="M132.566 230.276C132.566 230.276 132.583 230.241 132.601 230.259L137.07 233.684C137.07 233.684 137.105 233.728 137.096 233.753L136.302 239.034C136.302 239.034 136.285 239.06 136.259 239.052L132.523 235.79C132.523 235.79 132.488 235.738 132.488 235.721L132.557 230.285L132.566 230.276Z" fill="#92B6DA"/>
</g>
<g opacity="0.5">
<path d="M130.745 218.521C130.745 218.521 130.78 218.512 130.78 218.538L131.375 224.138C131.375 224.138 131.367 224.19 131.341 224.207L126.966 227.271C126.966 227.271 126.931 227.271 126.931 227.253L126.724 222.3C126.724 222.3 126.733 222.24 126.75 222.231L130.737 218.538L130.745 218.521Z" fill="#92B6DA"/>
</g>
<g opacity="0.5">
<path d="M120.563 238.461C120.563 238.461 120.597 238.461 120.589 238.487L118.794 243.828C118.794 243.828 118.76 243.871 118.734 243.88L113.479 244.838C113.479 244.838 113.444 244.829 113.453 244.803L115.334 240.213C115.334 240.213 115.368 240.169 115.394 240.161L120.563 238.47V238.461Z" fill="#92B6DA"/>
</g>
<g opacity="0.5">
<path d="M121.107 228.772C121.107 228.772 121.124 228.738 121.141 228.755L125.611 232.181C125.611 232.181 125.645 232.224 125.637 232.25L124.843 237.53C124.843 237.53 124.826 237.556 124.8 237.548L121.063 234.286C121.063 234.286 121.029 234.234 121.029 234.217L121.098 228.781L121.107 228.772Z" fill="#92B6DA"/>
</g>
<g opacity="0.5">
<path d="M119.294 217.009C119.294 217.009 119.329 217.001 119.329 217.026L119.924 222.627C119.924 222.627 119.916 222.678 119.89 222.696L115.515 225.759C115.515 225.759 115.48 225.759 115.48 225.742L115.273 220.789C115.273 220.789 115.282 220.728 115.299 220.72L119.286 217.026L119.294 217.009Z" fill="#92B6DA"/>
</g>
<g opacity="0.5">
<path d="M109.604 236.578C109.604 236.578 109.639 236.578 109.63 236.604L107.835 241.945C107.835 241.945 107.801 241.988 107.775 241.997L102.52 242.955C102.52 242.955 102.485 242.946 102.494 242.92L104.375 238.33C104.375 238.33 104.41 238.287 104.436 238.278L109.604 236.587V236.578Z" fill="#92B6DA"/>
</g>
<g opacity="0.5">
<path d="M110.156 226.889C110.156 226.889 110.174 226.855 110.191 226.872L114.661 230.298C114.661 230.298 114.695 230.341 114.687 230.367L113.893 235.648C113.893 235.648 113.875 235.674 113.85 235.665L110.113 232.403C110.113 232.403 110.079 232.351 110.079 232.334L110.148 226.898L110.156 226.889Z" fill="#92B6DA"/>
</g>
<g opacity="0.5">
<path d="M108.345 215.138C108.345 215.138 108.379 215.129 108.379 215.155L108.975 220.756C108.975 220.756 108.966 220.807 108.94 220.825L104.565 223.888C104.565 223.888 104.531 223.888 104.531 223.871L104.324 218.918C104.324 218.918 104.332 218.857 104.349 218.849L108.336 215.155L108.345 215.138Z" fill="#92B6DA"/>
</g>
</g>
<g opacity="0.5">
<g opacity="0.5">
<path d="M114.255 87.7275C114.255 87.7275 114.221 87.7447 114.221 87.7275L112.607 82.3258C112.607 82.3258 112.607 82.274 112.625 82.2567L116.361 78.4514C116.361 78.4514 116.395 78.4428 116.404 78.46L117.517 83.2922C117.517 83.2922 117.517 83.3526 117.5 83.3699L114.255 87.7361V87.7275Z" fill="#92B6DA"/>
</g>
<g opacity="0.5">
<path d="M119.398 95.9682C119.398 95.9682 119.398 96.0027 119.381 96.0027L113.755 95.787C113.755 95.787 113.703 95.7697 113.695 95.7438L111.296 90.972C111.296 90.972 111.296 90.9375 111.322 90.9375L116.257 91.438C116.257 91.438 116.309 91.4552 116.326 91.4811L119.407 95.9595L119.398 95.9682Z" fill="#92B6DA"/>
</g>
<g opacity="0.5">
<path d="M127.656 104.517C127.656 104.517 127.63 104.543 127.622 104.526L123.903 100.298C123.903 100.298 123.877 100.246 123.885 100.229L125.689 95.2068C125.689 95.2068 125.715 95.1809 125.732 95.2068L128.761 99.133C128.761 99.133 128.787 99.1848 128.778 99.2106L127.648 104.535L127.656 104.517Z" fill="#92B6DA"/>
</g>
<g opacity="0.5">
<path d="M124.282 82.9462C124.282 82.9462 124.248 82.9635 124.248 82.9462L122.634 77.5445C122.634 77.5445 122.634 77.4927 122.651 77.4755L126.388 73.6701C126.388 73.6701 126.422 73.6615 126.431 73.6788L127.544 78.511C127.544 78.511 127.544 78.5714 127.527 78.5886L124.282 82.9548V82.9462Z" fill="#92B6DA"/>
</g>
<g opacity="0.5">
<path d="M129.425 91.1752C129.425 91.1752 129.425 91.2097 129.408 91.2097L123.782 90.994C123.782 90.994 123.73 90.9767 123.721 90.9508L121.323 86.179C121.323 86.179 121.323 86.1445 121.348 86.1445L126.284 86.645C126.284 86.645 126.336 86.6623 126.353 86.6881L129.434 91.1666L129.425 91.1752Z" fill="#92B6DA"/>
</g>
<g opacity="0.5">
<path d="M137.692 99.7284C137.692 99.7284 137.666 99.7543 137.657 99.737L133.938 95.5088C133.938 95.5088 133.912 95.457 133.921 95.4398L135.724 90.4178C135.724 90.4178 135.75 90.3919 135.767 90.4178L138.796 94.3439C138.796 94.3439 138.822 94.3957 138.813 94.4216L137.683 99.7456L137.692 99.7284Z" fill="#92B6DA"/>
</g>
<g opacity="0.5">
<path d="M133.567 109.388C133.567 109.388 133.532 109.405 133.532 109.388L131.919 103.986C131.919 103.986 131.919 103.934 131.936 103.917L135.672 100.112C135.672 100.112 135.707 100.103 135.715 100.12L136.829 104.952C136.829 104.952 136.829 105.013 136.811 105.03L133.567 109.396V109.388Z" fill="#92B6DA"/>
</g>
<g opacity="0.5">
<path d="M138.71 117.617C138.71 117.617 138.71 117.651 138.693 117.651L133.067 117.435C133.067 117.435 133.015 117.418 133.006 117.392L130.607 112.62C130.607 112.62 130.607 112.586 130.633 112.586L135.569 113.086C135.569 113.086 135.621 113.104 135.638 113.13L138.719 117.608L138.71 117.617Z" fill="#92B6DA"/>
</g>
<g opacity="0.5">
<path d="M146.976 126.17C146.976 126.17 146.951 126.196 146.942 126.178L143.223 121.95C143.223 121.95 143.197 121.898 143.206 121.881L145.009 116.859C145.009 116.859 145.035 116.833 145.052 116.859L148.081 120.785C148.081 120.785 148.107 120.837 148.098 120.863L146.968 126.187L146.976 126.17Z" fill="#92B6DA"/>
</g>
<g opacity="0.5">
<path d="M143.594 104.595C143.594 104.595 143.559 104.612 143.559 104.595L141.946 99.1929C141.946 99.1929 141.946 99.1412 141.963 99.1239L145.699 95.3186C145.699 95.3186 145.734 95.3099 145.742 95.3272L146.856 100.159C146.856 100.159 146.856 100.22 146.838 100.237L143.594 104.603V104.595Z" fill="#92B6DA"/>
</g>
<g opacity="0.5">
<path d="M148.745 112.828C148.745 112.828 148.745 112.862 148.728 112.862L143.102 112.646C143.102 112.646 143.05 112.629 143.041 112.603L140.643 107.831C140.643 107.831 140.643 107.797 140.669 107.797L145.604 108.297C145.604 108.297 145.656 108.315 145.673 108.34L148.754 112.819L148.745 112.828Z" fill="#92B6DA"/>
</g>
<g opacity="0.5">
<path d="M157.003 121.377C157.003 121.377 156.978 121.403 156.969 121.385L153.25 117.157C153.25 117.157 153.224 117.105 153.233 117.088L155.036 112.066C155.036 112.066 155.062 112.04 155.079 112.066L158.108 115.992C158.108 115.992 158.134 116.044 158.125 116.07L156.995 121.394L157.003 121.377Z" fill="#92B6DA"/>
</g>
<g opacity="0.5">
<path d="M134.188 75.4306C134.188 75.4306 134.154 75.4478 134.154 75.4306L132.54 70.0289C132.54 70.0289 132.54 69.9771 132.557 69.9599L136.294 66.1545C136.294 66.1545 136.328 66.1459 136.337 66.1631L137.45 70.9953C137.45 70.9953 137.45 71.0557 137.433 71.073L134.188 75.4392V75.4306Z" fill="#92B6DA"/>
</g>
<g opacity="0.5">
<path d="M139.331 83.6635C139.331 83.6635 139.331 83.698 139.314 83.698L133.688 83.4823C133.688 83.4823 133.636 83.465 133.627 83.4391L131.229 78.6673C131.229 78.6673 131.229 78.6328 131.254 78.6328L136.19 79.1333C136.19 79.1333 136.242 79.1506 136.259 79.1764L139.34 83.6549L139.331 83.6635Z" fill="#92B6DA"/>
</g>
<g opacity="0.5">
<path d="M147.597 92.2205C147.597 92.2205 147.572 92.2464 147.563 92.2292L143.844 88.001C143.844 88.001 143.818 87.9492 143.827 87.932L145.63 82.9099C145.63 82.9099 145.656 82.8841 145.673 82.9099L148.702 86.8361C148.702 86.8361 148.728 86.8879 148.719 86.9138L147.589 92.2378L147.597 92.2205Z" fill="#92B6DA"/>
</g>
<g opacity="0.5">
<path d="M144.224 70.6493C144.224 70.6493 144.189 70.6666 144.189 70.6493L142.576 65.2476C142.576 65.2476 142.576 65.1959 142.593 65.1786L146.329 61.3733C146.329 61.3733 146.364 61.3646 146.372 61.3819L147.486 66.2141C147.486 66.2141 147.486 66.2745 147.468 66.2917L144.224 70.658V70.6493Z" fill="#92B6DA"/>
</g>
<g opacity="0.5">
<path d="M149.366 78.8822C149.366 78.8822 149.366 78.9167 149.349 78.9167L143.723 78.701C143.723 78.701 143.671 78.6838 143.663 78.6579L141.264 73.8861C141.264 73.8861 141.264 73.8516 141.29 73.8516L146.226 74.352C146.226 74.352 146.277 74.3693 146.295 74.3952L149.375 78.8736L149.366 78.8822Z" fill="#92B6DA"/>
</g>
<g opacity="0.5">
<path d="M157.624 87.4315C157.624 87.4315 157.599 87.4574 157.59 87.4401L153.871 83.2119C153.871 83.2119 153.845 83.1602 153.854 83.1429L155.657 78.1209C155.657 78.1209 155.683 78.095 155.7 78.1209L158.729 82.047C158.729 82.047 158.755 82.0988 158.746 82.1247L157.616 87.4487L157.624 87.4315Z" fill="#92B6DA"/>
</g>
<g opacity="0.5">
<path d="M114.186 118.407C114.186 118.407 114.152 118.424 114.152 118.407L112.538 113.005C112.538 113.005 112.538 112.954 112.556 112.936L116.292 109.131C116.292 109.131 116.326 109.122 116.335 109.14L117.448 113.972C117.448 113.972 117.448 114.032 117.431 114.05L114.186 118.416V118.407Z" fill="#92B6DA"/>
</g>
<g opacity="0.5">
<path d="M119.329 126.652C119.329 126.652 119.329 126.686 119.312 126.686L113.686 126.471C113.686 126.471 113.634 126.453 113.625 126.427L111.227 121.656C111.227 121.656 111.227 121.621 111.253 121.621L116.188 122.122C116.188 122.122 116.24 122.139 116.257 122.165L119.338 126.643L119.329 126.652Z" fill="#92B6DA"/>
</g>
<g opacity="0.5">
<path d="M127.596 135.201C127.596 135.201 127.57 135.227 127.561 135.21L123.842 130.981C123.842 130.981 123.816 130.93 123.825 130.912L125.628 125.89C125.628 125.89 125.654 125.865 125.671 125.89L128.7 129.817C128.7 129.817 128.726 129.868 128.717 129.894L127.587 135.218L127.596 135.201Z" fill="#92B6DA"/>
</g>
<g opacity="0.5">
<path d="M124.213 113.63C124.213 113.63 124.179 113.647 124.179 113.63L122.565 108.228C122.565 108.228 122.565 108.176 122.582 108.159L126.319 104.354C126.319 104.354 126.353 104.345 126.362 104.362L127.475 109.195C127.475 109.195 127.475 109.255 127.458 109.272L124.213 113.638V113.63Z" fill="#92B6DA"/>
</g>
<g opacity="0.5">
<path d="M129.356 121.859C129.356 121.859 129.356 121.893 129.339 121.893L123.713 121.678C123.713 121.678 123.661 121.66 123.652 121.634L121.253 116.863C121.253 116.863 121.253 116.828 121.279 116.828L126.215 117.329C126.215 117.329 126.267 117.346 126.284 117.372L129.365 121.85L129.356 121.859Z" fill="#92B6DA"/>
</g>
<g opacity="0.5">
<path d="M137.623 130.412C137.623 130.412 137.597 130.438 137.588 130.421L133.869 126.192C133.869 126.192 133.843 126.141 133.852 126.123L135.655 121.101C135.655 121.101 135.681 121.075 135.698 121.101L138.727 125.028C138.727 125.028 138.753 125.079 138.744 125.105L137.614 130.429L137.623 130.412Z" fill="#92B6DA"/>
</g>
<g opacity="0.5">
<path d="M106.55 112.982C106.55 112.982 106.524 113.008 106.515 112.991L102.796 108.763C102.796 108.763 102.77 108.711 102.779 108.694L104.582 103.672C104.582 103.672 104.608 103.646 104.626 103.672L107.654 107.598C107.654 107.598 107.68 107.65 107.672 107.675L106.541 113L106.55 112.982Z" fill="#92B6DA"/>
</g>
<g opacity="0.5">
<path d="M103.176 91.4111C103.176 91.4111 103.141 91.4283 103.141 91.4111L101.528 86.0094C101.528 86.0094 101.528 85.9576 101.545 85.9403L105.281 82.135C105.281 82.135 105.316 82.1263 105.324 82.1436L106.438 86.9758C106.438 86.9758 106.438 87.0362 106.42 87.0534L103.176 91.4197V91.4111Z" fill="#92B6DA"/>
</g>
<g opacity="0.5">
<path d="M108.318 99.64C108.318 99.64 108.318 99.6745 108.301 99.6745L102.675 99.4588C102.675 99.4588 102.623 99.4416 102.615 99.4157L100.216 94.6439C100.216 94.6439 100.216 94.6094 100.242 94.6094L105.178 95.1099C105.178 95.1099 105.229 95.1271 105.247 95.153L108.327 99.6314L108.318 99.64Z" fill="#92B6DA"/>
</g>
<g opacity="0.5">
<path d="M116.585 108.201C116.585 108.201 116.559 108.227 116.551 108.21L112.832 103.981C112.832 103.981 112.806 103.93 112.814 103.912L114.618 98.8904C114.618 98.8904 114.644 98.8645 114.661 98.8904L117.69 102.817C117.69 102.817 117.716 102.868 117.707 102.894L116.577 108.218L116.585 108.201Z" fill="#92B6DA"/>
</g>
<g opacity="0.5">
<path d="M79.5416 30.8612C79.5416 30.8612 79.5158 30.8871 79.5071 30.8698L75.7881 26.6416C75.7881 26.6416 75.7622 26.5899 75.7708 26.5726L77.5742 21.5506C77.5742 21.5506 77.6001 21.5247 77.6174 21.5506L80.6462 25.4767C80.6462 25.4767 80.672 25.5285 80.6634 25.5544L79.533 30.8784L79.5416 30.8612Z" fill="#92B6DA"/>
</g>
<g opacity="0.5">
<path d="M76.1677 9.27825C76.1677 9.27825 76.1331 9.2955 76.1331 9.27825L74.5195 3.87655C74.5195 3.87655 74.5195 3.82477 74.5368 3.80751L78.2731 0.00215631C78.2731 0.00215631 78.3076 -0.00647077 78.3163 0.0107871L79.4294 4.84298C79.4294 4.84298 79.4294 4.90339 79.4121 4.92065L76.1677 9.28688V9.27825Z" fill="#92B6DA"/>
</g>
<g opacity="0.5">
<path d="M81.3107 17.5229C81.3107 17.5229 81.3107 17.5574 81.2934 17.5574L75.6674 17.3416C75.6674 17.3416 75.6156 17.3244 75.607 17.2985L73.2081 12.5267C73.2081 12.5267 73.2081 12.4922 73.234 12.4922L78.1698 12.9927C78.1698 12.9927 78.2215 13.0099 78.2388 13.0358L81.3193 17.5142L81.3107 17.5229Z" fill="#92B6DA"/>
</g>
<g opacity="0.5">
<path d="M89.5772 26.0721C89.5772 26.0721 89.5513 26.098 89.5427 26.0807L85.8236 21.8526C85.8236 21.8526 85.7977 21.8008 85.8063 21.7835L87.6098 16.7615C87.6098 16.7615 87.6357 16.7356 87.6529 16.7615L90.6817 20.6877C90.6817 20.6877 90.7076 20.7394 90.6989 20.7653L89.5685 26.0894L89.5772 26.0721Z" fill="#92B6DA"/>
</g>
<g opacity="0.5">
<path d="M105.972 25.3368C105.972 25.3368 105.938 25.3541 105.938 25.3368L104.324 19.9351C104.324 19.9351 104.324 19.8834 104.341 19.8661L108.078 16.0608C108.078 16.0608 108.112 16.0521 108.121 16.0694L109.234 20.9016C109.234 20.9016 109.234 20.962 109.217 20.9792L105.972 25.3455V25.3368Z" fill="#92B6DA"/>
</g>
<g opacity="0.5">
<path d="M111.115 33.5697C111.115 33.5697 111.115 33.6042 111.098 33.6042L105.471 33.3885C105.471 33.3885 105.42 33.3713 105.411 33.3454L103.012 28.5736C103.012 28.5736 103.012 28.5391 103.038 28.5391L107.974 29.0395C107.974 29.0395 108.026 29.0568 108.043 29.0827L111.123 33.5611L111.115 33.5697Z" fill="#92B6DA"/>
</g>
<g opacity="0.5">
<path d="M119.381 42.1307C119.381 42.1307 119.355 42.1566 119.347 42.1393L115.628 37.9112C115.628 37.9112 115.602 37.8594 115.61 37.8421L117.414 32.8201C117.414 32.8201 117.44 32.7942 117.457 32.8201L120.486 36.7463C120.486 36.7463 120.512 36.798 120.503 36.8239L119.373 42.148L119.381 42.1307Z" fill="#92B6DA"/>
</g>
<g opacity="0.5">
<path d="M116.007 20.5478C116.007 20.5478 115.973 20.565 115.973 20.5478L114.359 15.1461C114.359 15.1461 114.359 15.0943 114.376 15.077L118.113 11.2717C118.113 11.2717 118.147 11.2631 118.156 11.2803L119.269 16.1125C119.269 16.1125 119.269 16.1729 119.252 16.1902L116.007 20.5564V20.5478Z" fill="#92B6DA"/>
</g>
<g opacity="0.5">
<path d="M121.15 28.7885C121.15 28.7885 121.15 28.823 121.133 28.823L115.507 28.6073C115.507 28.6073 115.455 28.59 115.446 28.5641L113.047 23.7923C113.047 23.7923 113.047 23.7578 113.073 23.7578L118.009 24.2583C118.009 24.2583 118.061 24.2755 118.078 24.3014L121.159 28.7798L121.15 28.7885Z" fill="#92B6DA"/>
</g>
<g opacity="0.5">
<path d="M129.408 37.3416C129.408 37.3416 129.382 37.3675 129.374 37.3503L125.655 33.1221C125.655 33.1221 125.629 33.0703 125.637 33.0531L127.441 28.031C127.441 28.031 127.467 28.0051 127.484 28.031L130.513 31.9572C130.513 31.9572 130.539 32.009 130.53 32.0349L129.4 37.3589L129.408 37.3416Z" fill="#92B6DA"/>
</g>
<g opacity="0.5">
<path d="M85.4523 35.7197C85.4523 35.7197 85.4178 35.7369 85.4178 35.7197L83.8042 30.3179C83.8042 30.3179 83.8042 30.2662 83.8215 30.2489L87.5578 26.4436C87.5578 26.4436 87.5923 26.4349 87.6009 26.4522L88.7141 31.2844C88.7141 31.2844 88.7141 31.3448 88.6968 31.362L85.4523 35.7283V35.7197Z" fill="#92B6DA"/>
</g>
<g opacity="0.5">
<path d="M98.8616 52.5135C98.8616 52.5135 98.8357 52.5394 98.8271 52.5221L95.108 48.294C95.108 48.294 95.0821 48.2422 95.0908 48.2249L96.8942 43.2029C96.8942 43.2029 96.9201 43.177 96.9373 43.2029L99.9661 47.1291C99.9661 47.1291 99.992 47.1808 99.9833 47.2067L98.853 52.5308L98.8616 52.5135Z" fill="#92B6DA"/>
</g>
<g opacity="0.5">
<path d="M95.4793 30.9384C95.4793 30.9384 95.4448 30.9557 95.4448 30.9384L93.8312 25.5367C93.8312 25.5367 93.8312 25.4849 93.8484 25.4677L97.5847 21.6623C97.5847 21.6623 97.6193 21.6537 97.6279 21.6709L98.741 26.5031C98.741 26.5031 98.741 26.5635 98.7238 26.5808L95.4793 30.947V30.9384Z" fill="#92B6DA"/>
</g>
<g opacity="0.5">
<path d="M100.631 39.1713C100.631 39.1713 100.631 39.2058 100.614 39.2058L94.9874 38.9901C94.9874 38.9901 94.9357 38.9728 94.927 38.9469L92.5282 34.1751C92.5282 34.1751 92.5282 34.1406 92.5541 34.1406L97.4898 34.6411C97.4898 34.6411 97.5416 34.6584 97.5589 34.6843L100.639 39.1627L100.631 39.1713Z" fill="#92B6DA"/>
</g>
<g opacity="0.5">
<path d="M108.888 47.7245C108.888 47.7245 108.863 47.7503 108.854 47.7331L105.135 43.5049C105.135 43.5049 105.109 43.4531 105.118 43.4359L106.921 38.4138C106.921 38.4138 106.947 38.388 106.964 38.4138L109.993 42.34C109.993 42.34 110.019 42.3918 110.01 42.4177L108.88 47.7417L108.888 47.7245Z" fill="#92B6DA"/>
</g>
<g opacity="0.5">
<path d="M91.2167 10.0033C91.2167 10.0033 91.2167 10.0378 91.1994 10.0378L85.5734 9.82211C85.5734 9.82211 85.5216 9.80485 85.513 9.77897L83.1141 5.00717C83.1141 5.00717 83.1141 4.97266 83.14 4.97266L88.0758 5.47314C88.0758 5.47314 88.1275 5.49039 88.1448 5.51628L91.2253 9.99469L91.2167 10.0033Z" fill="#92B6DA"/>
</g>
<g opacity="0.5">
<path d="M99.483 18.5565C99.483 18.5565 99.4571 18.5824 99.4485 18.5651L95.7294 14.3369C95.7294 14.3369 95.7035 14.2852 95.7121 14.2679L97.5156 9.24588C97.5156 9.24588 97.5415 9.21999 97.5587 9.24588L100.587 13.172C100.587 13.172 100.613 13.2238 100.605 13.2497L99.4744 18.5737L99.483 18.5565Z" fill="#92B6DA"/>
</g>
<g opacity="0.5">
<path d="M101.252 5.22598C101.252 5.22598 101.252 5.26049 101.235 5.26049L95.6086 5.04477C95.6086 5.04477 95.5568 5.02751 95.5482 5.00162L93.1494 0.229829C93.1494 0.229829 93.1494 0.195312 93.1752 0.195312L98.111 0.695792C98.111 0.695792 98.1628 0.713052 98.18 0.738939L101.261 5.21734L101.252 5.22598Z" fill="#92B6DA"/>
</g>
<g opacity="0.5">
<path d="M109.51 13.7752C109.51 13.7752 109.484 13.8011 109.475 13.7839L105.756 9.55569C105.756 9.55569 105.73 9.50392 105.739 9.48666L107.542 4.46463C107.542 4.46463 107.568 4.43874 107.586 4.46463L110.614 8.39079C110.614 8.39079 110.64 8.44256 110.632 8.46845L109.501 13.7925L109.51 13.7752Z" fill="#92B6DA"/>
</g>
<g opacity="0.5">
<path d="M99.2069 86.5682C99.2069 86.5682 99.181 86.5941 99.1723 86.5768L95.4533 82.3487C95.4533 82.3487 95.4274 82.2969 95.436 82.2796L97.2395 77.2576C97.2395 77.2576 97.2654 77.2317 97.2826 77.2576L100.311 81.1838C100.311 81.1838 100.337 81.2355 100.329 81.2614L99.1982 86.5855L99.2069 86.5682Z" fill="#92B6DA"/>
</g>
<g opacity="0.5">
<path d="M95.8329 64.997C95.8329 64.997 95.7984 65.0143 95.7984 64.997L94.1848 59.5953C94.1848 59.5953 94.1848 59.5435 94.202 59.5263L97.9383 55.7209C97.9383 55.7209 97.9729 55.7123 97.9815 55.7295L99.0946 60.5617C99.0946 60.5617 99.0946 60.6221 99.0774 60.6394L95.8329 65.0056V64.997Z" fill="#92B6DA"/>
</g>
<g opacity="0.5">
<path d="M100.976 73.2299C100.976 73.2299 100.976 73.2644 100.958 73.2644L95.3323 73.0487C95.3323 73.0487 95.2806 73.0314 95.2719 73.0055L92.8731 68.2337C92.8731 68.2337 92.8731 68.1992 92.899 68.1992L97.8347 68.6997C97.8347 68.6997 97.8865 68.7169 97.9038 68.7428L100.984 73.2212L100.976 73.2299Z" fill="#92B6DA"/>
</g>
<g opacity="0.5">
<path d="M109.242 81.7791C109.242 81.7791 109.216 81.805 109.208 81.7878L105.489 77.5596C105.489 77.5596 105.463 77.5078 105.471 77.4906L107.275 72.4685C107.275 72.4685 107.301 72.4426 107.318 72.4685L110.347 76.3947C110.347 76.3947 110.373 76.4465 110.364 76.4724L109.234 81.7964L109.242 81.7791Z" fill="#92B6DA"/>
</g>
<g opacity="0.5">
<path d="M106.162 59.7509C106.162 59.7509 106.127 59.7682 106.127 59.7509L104.514 54.3492C104.514 54.3492 104.514 54.2974 104.531 54.2802L108.267 50.4748C108.267 50.4748 108.302 50.4662 108.31 50.4834L109.424 55.3156C109.424 55.3156 109.424 55.376 109.406 55.3933L106.162 59.7595V59.7509Z" fill="#92B6DA"/>
</g>
<g opacity="0.5">
<path d="M111.305 67.9838C111.305 67.9838 111.305 68.0183 111.288 68.0183L105.662 67.8026C105.662 67.8026 105.61 67.7853 105.601 67.7594L103.202 62.9876C103.202 62.9876 103.202 62.9531 103.228 62.9531L108.164 63.4536C108.164 63.4536 108.216 63.4709 108.233 63.4968L111.313 67.9752L111.305 67.9838Z" fill="#92B6DA"/>
</g>
<g opacity="0.5">
<path d="M119.571 76.537C119.571 76.537 119.545 76.5628 119.537 76.5456L115.818 72.3174C115.818 72.3174 115.792 72.2656 115.8 72.2484L117.604 67.2263C117.604 67.2263 117.63 67.2005 117.647 67.2263L120.676 71.1525C120.676 71.1525 120.702 71.2043 120.693 71.2302L119.563 76.5542L119.571 76.537Z" fill="#92B6DA"/>
</g>
<g opacity="0.5">
<path d="M116.189 54.9618C116.189 54.9618 116.154 54.9791 116.154 54.9618L114.541 49.5601C114.541 49.5601 114.541 49.5084 114.558 49.4911L118.294 45.6858C118.294 45.6858 118.329 45.6771 118.337 45.6944L119.45 50.5266C119.45 50.5266 119.45 50.587 119.433 50.6042L116.189 54.9705V54.9618Z" fill="#92B6DA"/>
</g>
<g opacity="0.5">
<path d="M121.34 63.1947C121.34 63.1947 121.34 63.2292 121.323 63.2292L115.697 63.0135C115.697 63.0135 115.645 62.9963 115.636 62.9704L113.238 58.1986C113.238 58.1986 113.238 58.1641 113.263 58.1641L118.199 58.6645C118.199 58.6645 118.251 58.6818 118.268 58.7077L121.349 63.1861L121.34 63.1947Z" fill="#92B6DA"/>
</g>
<g opacity="0.5">
<path d="M129.598 71.7557C129.598 71.7557 129.572 71.7816 129.564 71.7643L125.844 67.5362C125.844 67.5362 125.819 67.4844 125.827 67.4671L127.631 62.4451C127.631 62.4451 127.657 62.4192 127.674 62.4451L130.703 66.3712C130.703 66.3712 130.728 66.423 130.72 66.4489L129.589 71.773L129.598 71.7557Z" fill="#92B6DA"/>
</g>
<g opacity="0.5">
<path d="M126.414 49.5868C126.414 49.5868 126.379 49.6041 126.379 49.5868L124.766 44.1851C124.766 44.1851 124.766 44.1334 124.783 44.1161L128.519 40.3107C128.519 40.3107 128.554 40.3021 128.562 40.3194L129.676 45.1516C129.676 45.1516 129.676 45.212 129.658 45.2292L126.414 49.5955V49.5868Z" fill="#92B6DA"/>
</g>
<g opacity="0.5">
<path d="M131.557 57.8158C131.557 57.8158 131.557 57.8503 131.539 57.8503L125.913 57.6346C125.913 57.6346 125.862 57.6173 125.853 57.5915L123.454 52.8197C123.454 52.8197 123.454 52.7852 123.48 52.7852L128.416 53.2856C128.416 53.2856 128.467 53.3029 128.485 53.3288L131.565 57.8072L131.557 57.8158Z" fill="#92B6DA"/>
</g>
<g opacity="0.5">
<path d="M139.823 66.369C139.823 66.369 139.797 66.3949 139.788 66.3776L136.069 62.1494C136.069 62.1494 136.044 62.0977 136.052 62.0804L137.856 57.0584C137.856 57.0584 137.881 57.0325 137.899 57.0584L140.928 60.9845C140.928 60.9845 140.953 61.0363 140.945 61.0622L139.814 66.3862L139.823 66.369Z" fill="#92B6DA"/>
</g>
<g opacity="0.5">
<path d="M136.44 44.7978C136.44 44.7978 136.406 44.815 136.406 44.7978L134.792 39.3961C134.792 39.3961 134.792 39.3443 134.81 39.327L138.546 35.5217C138.546 35.5217 138.58 35.5131 138.589 35.5303L139.702 40.3625C139.702 40.3625 139.702 40.4229 139.685 40.4402L136.44 44.8064V44.7978Z" fill="#92B6DA"/>
</g>
<g opacity="0.5">
<path d="M141.592 53.0268C141.592 53.0268 141.592 53.0613 141.575 53.0613L135.948 52.8455C135.948 52.8455 135.897 52.8283 135.888 52.8024L133.489 48.0306C133.489 48.0306 133.489 47.9961 133.515 47.9961L138.451 48.4966C138.451 48.4966 138.503 48.5138 138.52 48.5397L141.6 53.0181L141.592 53.0268Z" fill="#92B6DA"/>
</g>
<g opacity="0.5">
<path d="M149.85 61.5916C149.85 61.5916 149.824 61.6175 149.815 61.6003L146.096 57.3721C146.096 57.3721 146.071 57.3203 146.079 57.3031L147.883 52.281C147.883 52.281 147.908 52.2551 147.926 52.281L150.954 56.2072C150.954 56.2072 150.98 56.259 150.972 56.2849L149.841 61.6089L149.85 61.5916Z" fill="#92B6DA"/>
</g>
</g>
<mask id="mask0_190_45693" style="mask-type:alpha" maskUnits="userSpaceOnUse" x="0" y="353" width="340" height="168">
<path d="M338.616 519.929H220.305L197.11 498.417L196.357 497.719L196.272 498.742L194.503 519.929H136.438L128.716 512.765L127.965 512.067L127.877 513.088L127.292 519.929H110.762L106.511 511.679L106.248 511.167L105.778 511.499L93.8291 519.929H78.2988L63.4375 491.186L62.6406 489.643L62.4951 491.373L60.1006 519.929H45.2559L17.0996 506.552L16.4473 506.242L16.3867 506.962L15.3076 519.929H0.5V361.016C16.093 364.996 35.5391 368.358 57.7715 370.897V370.898C60.4783 371.23 63.2375 371.526 66.0479 371.806L79.8594 382.983L80.6748 383.643V373.153C84.0802 373.449 87.5507 373.715 91.0596 373.957L124.555 401.063L125.369 401.723V375.688C136.182 376.058 147.321 376.231 158.661 376.231H161.492L169.086 400.813L170.063 400.666V376.163C174.446 376.126 178.798 376.049 183.088 375.93L183.087 375.929C186.069 375.867 189.007 375.787 191.934 375.689L191.933 375.688C197.696 375.505 203.385 375.271 208.979 374.977L213.844 382.849L214.143 383.331L214.584 382.974L225.682 373.992C230.936 373.621 236.066 373.208 241.113 372.762L258.528 400.938L259.453 402.435V370.918C263.104 370.502 266.685 370.056 270.205 369.602L303.46 383.058L304.147 383.336V363.952C309.791 362.772 315.042 361.533 319.89 360.22L325.675 364.902L325.979 364.524L326.293 364.911L326.305 364.902L326.784 364.514L326.783 364.513L338.616 354.938V519.929Z" fill="#C59B6D" stroke="#C59B6D"/>
</mask>
<g mask="url(#mask0_190_45693)">
<path d="M83.3901 20.71L83.4505 27.8289C83.5109 35.198 88.2395 41.126 94.0037 41.0743L99.4571 41.0225C104.203 40.9794 108.371 45.0263 109.639 50.8681C113.255 67.5306 119.563 104.428 118.648 155.804C117.44 223.749 91.3201 279.811 87.7995 285.946C87.6096 286.282 87.4371 286.61 87.2731 286.964L11.537 404.343C10.7691 405.569 7.66266 413.87 7.26573 415.354C6.54953 418.063 6.5409 421.032 7.26573 423.793C15.1785 453.994 64.1303 617.452 120.779 619.203C201.546 621.706 237.529 621.689 244.268 617.624C245.062 617.15 245.778 616.563 246.451 615.847C255.977 605.751 320.979 511.834 333.499 416.441C333.888 413.464 333.025 410.453 331.679 407.967C309.407 366.816 263.605 316.837 245.864 278.344C227.528 238.573 216.077 177.618 215.887 155.839C215.74 138.866 215.948 77.7213 216.802 51.5584C217.026 44.7329 221.254 39.2536 226.596 38.8653C232.783 38.4166 237.994 31.5652 238.167 23.6439L238.227 20.9085C238.391 13.3754 233.637 7.13672 227.743 7.13672L93.7879 7.25752C87.9979 7.25752 83.3383 13.2891 83.4073 20.6928L83.3901 20.71Z" fill="#C59B6D" stroke="#C59B6D" stroke-width="9" stroke-miterlimit="10"/>
</g>
<path d="M178.842 387.235C183.651 399.062 182.964 413.812 182.332 427.829C182.195 430.779 179.245 433.684 181.398 437.449C190.532 422.671 206.848 406.053 224.557 400.464C217.53 418.485 203.248 432.951 187.719 442.827C191.301 444.668 194.022 442.717 197.119 442.332C212.831 440.39 228.57 441.352 244.309 448.305C225.748 456.715 205.85 456.541 185.667 452.19C195.039 458.841 205.437 466.271 212.198 475.377C216.962 481.799 221.946 487.864 224.337 496.32C205.813 489.294 191.897 475.661 181.26 459.381C179.492 462.918 182.057 465.904 182.241 469.01C183.12 484.484 183.816 501.533 176.13 515.871C171.403 506.783 170.376 497.346 169.524 487.846C168.572 477.31 170.276 468.195 172.465 457.485C161.829 473.38 146.914 490.026 127.95 495.972C135.801 476.706 149.901 462.918 166.913 452.263C155.251 454.306 145.137 456.092 134.125 454.709C125.302 453.601 116.333 452.941 108.271 448.195C126.631 439.968 144.56 440.518 164.797 443.395C148.893 432.034 134.995 419.419 127.904 400.235C146.135 406.886 161.407 422.067 172.044 438.722L169.579 421.545C167.958 410.221 170.999 392.622 175.26 381.747C177.825 381.234 178.521 384.945 178.851 387.235H178.842Z" fill="#603813"/>
<path d="M195.926 390.4C197.242 403.1 192.464 417.071 187.943 430.354C186.987 433.148 183.343 435.113 184.359 439.33C197.256 427.691 217.564 416.289 236.129 415.868C224.35 431.209 206.596 441.112 188.928 446.259C191.853 449.027 195.011 447.913 198.092 448.409C213.721 450.931 228.566 456.249 241.737 467.321C221.566 470.214 202.508 464.491 184.343 454.677C191.485 463.68 199.395 473.718 203.344 484.35C206.126 491.847 209.218 499.062 209.153 507.85C193.327 495.93 183.771 478.954 178.103 460.352C175.418 463.254 177.047 466.838 176.356 469.871C172.88 484.975 168.788 501.541 157.404 513.162C155.402 503.115 157.052 493.768 158.886 484.407C160.913 474.025 165.095 465.747 170.188 456.075C155.536 468.368 136.566 480.188 116.696 480.602C129.615 464.294 147.004 454.991 166.315 449.51C154.546 448.216 144.335 447.107 134.147 442.704C125.985 439.176 117.557 436.038 111.141 429.23C131.067 426.457 148.129 431.991 166.759 440.404C154.659 425.055 144.837 409.061 143.384 388.66C159.033 400.137 169.459 418.978 175.022 437.941L177.452 420.758C179.057 409.432 186.891 393.383 194.019 384.13C196.625 384.354 196.258 388.111 195.935 390.402L195.926 390.4Z" fill="#603813"/>
<rect x="94.2922" y="520.309" width="15.9762" height="0.101597" fill="#215523" stroke="#BE272C" stroke-width="0.101597"/>
<rect x="94.5249" y="520.197" width="15.6811" height="0.136765" fill="#215523" stroke="#BE272C" stroke-width="0.136765"/>
<line y1="-0.5" x2="0.357321" y2="-0.5" transform="matrix(0.898794 -0.438371 0.465074 0.885272 110.26 520.809)" stroke="#BE272C"/>
<line y1="-0.5" x2="0.349388" y2="-0.5" transform="matrix(-0.572058 -0.820213 0.8416 -0.540102 94.6526 520.391)" stroke="#BE272C"/>
</svg>
