<?xml version="1.0" encoding="UTF-8"?><svg id="a" xmlns="http://www.w3.org/2000/svg" xmlns:xlink="http://www.w3.org/1999/xlink" viewBox="0 0 321 634"><defs><mask id="b" x=".1655" y=".7553" width="320.8345" height="634.9947" maskUnits="userSpaceOnUse"><g id="c"><path d="M320.5,347.73h-111.868l-21.931-24.915-.792-.899-.082,1.195-1.688,24.619h-54.858l-7.295-8.288-.791-.898-.083,1.194-.558,7.992h-15.543l-4.034-9.58-.268-.633-.52.45-11.2959,9.763h-14.6123l-14.0625-33.318-.96.16-2.2646,33.158h-13.9864l-26.6191-15.49-.6953-.405-.0547.803-1.0274,15.092H.6655v-184.308c14.7427,4.607,33.1206,8.498,54.1397,11.437,2.5589.383,5.1515.726,7.7998,1.049l13.0605,12.943.8516.843v-12.215c3.1968.34,6.4542.646,9.7529.924l31.682,31.401.851.844v-30.234c10.224.427,20.747.627,31.467.627h2.642l7.192,28.52.984-.123v-28.476c4.142-.043,8.25-.132,12.302-.271l-.001-.001c2.816-.072,5.595-.164,8.362-.277,5.435-.211,10.8-.484,16.074-.823l4.603,9.12.31.614.488-.484,10.491-10.397c4.945-.427,9.777-.904,14.519-1.418l16.477,32.649.947-.226v-34.567c3.444-.48,6.823-.994,10.136-1.519l31.428,15.581.722.358v-22.492c5.32-1.363,10.268-2.793,14.843-4.308l5.448,5.395.327-.331.338.367.012-.01.413-.354-.03-.028,11.203-11.11v191.3Z" style="fill:#c59b6d; stroke:#c59b6d;"/></g></mask></defs><path d="M104.482,12.15c-8.9358,2.98-10.1652,15.16-1.989,19.86,9.155,5.26,18.26,11.37,18.26,18.75v62.93c0,3.68-2.609,6.83-6.217,7.53-20.8089,3.99-87.3546,21.15-99.3384,79.06-3.808,18.43-4.9874,38.1-4.6576,57.02.7796,45.31,10.4946,90.02,27.9856,131.83,16.6814,39.86,41.7784,106.88,45.6264,157.4.7796,10.22-3.9179,20.06-12.2337,26.05-6.7465,4.85-12.6334,10.07-12.6334,17.31,0,12.26,22.3384,39.36,104.1661,39.36,31.414,0,54.292-5.16,70.554-11.51,19.55-7.64,21.918-34.37,3.978-45.28-.25-.15-.5-.3-.76-.46-2.469-1.5-3.888-4.25-3.688-7.13,2.669-38.78,43.598-156.12,60.369-212.1,5.997-20.02,29.055-100.27,8.306-163.16-17.162-51.99-74.902-65.06-94.412-68.02-3.738-.57-6.496-3.79-6.496-7.57v-61.73c0-1.09.23-2.16.679-3.15,2.359-5.2,28.456-11.13,28.456-22.14,0-12.01-13.174-22.5-71.134-22.5-24.987,0-42.798,3.67-54.811,7.67l-.01-.02Z" style="fill:#dcd6cb;"/><path d="M104.482,12.15c-8.9358,2.98-10.1652,15.16-1.989,19.86,9.155,5.26,18.26,11.37,18.26,18.75v62.93c0,3.68-2.609,6.83-6.217,7.53-20.8089,3.99-87.3546,21.15-99.3384,79.06-3.808,18.43-4.9874,38.1-4.6576,57.02.7796,45.31,10.4946,90.02,27.9856,131.83,16.6814,39.86,41.7784,106.88,45.6264,157.4.7796,10.22-3.9179,20.06-12.2337,26.05-6.7465,4.85-12.6334,10.07-12.6334,17.31,0,12.26,22.3384,39.36,104.1661,39.36,31.414,0,54.292-5.16,70.554-11.51,19.55-7.64,21.918-34.37,3.978-45.28-.25-.15-.5-.3-.76-.46-2.469-1.5-3.888-4.25-3.688-7.13,2.669-38.78,43.598-156.12,60.369-212.1,5.997-20.02,29.055-100.27,8.306-163.16-17.162-51.99-74.902-65.06-94.412-68.02-3.738-.57-6.496-3.79-6.496-7.57v-61.73c0-1.09.23-2.16.679-3.15,2.359-5.2,28.456-11.13,28.456-22.14,0-12.01-13.174-22.5-71.134-22.5-24.987,0-42.798,3.67-54.811,7.67l-.01-.02Z" style="fill:none; stroke:#dcd6cb; stroke-miterlimit:10; stroke-width:9px;"/><g style="mask:url(#b);"><path d="M159.5063,1.2553c28.966,0,46.671,2.6238,57.119,6.7119,5.217,2.0418,8.59,4.4361,10.659,7.0186,2.061,2.5733,2.854,5.3666,2.854,8.2695,0,2.5409-1.504,4.8508-3.944,6.998-2.435,2.1428-5.725,4.055-9.128,5.8057-1.698.8738-3.415,1.7036-5.06,2.499-1.643.7941-3.216,1.5559-4.614,2.2901-1.396.7331-2.634,1.447-3.602,2.1494-.956.6929-1.711,1.4182-2.062,2.1914-.479,1.0555-.724,2.1958-.724,3.3564v61.73c0,4.026,2.938,7.457,6.92,8.064h.001c9.727,1.476,28.977,5.472,47.926,15.571,18.945,10.097,37.557,26.276,46.085,52.112,10.341,31.342,9.773,67.041,5.857,97.435-3.916,30.386-11.171,55.423-14.166,65.424-8.389,28-22.801,71.288-35.472,112.497-6.332,20.593-12.225,40.654-16.702,57.993-4.475,17.33-7.544,31.974-8.215,41.719-.206,2.97,1.206,5.812,3.685,7.438l.243.155.761.461c17.583,10.695,15.263,36.896-3.902,44.385-16.198,6.325-39.014,11.476-70.372,11.476-40.865,0-66.8189-6.768-82.5361-15.025-15.7439-8.272-21.1299-17.979-21.1299-23.835,0-3.472,1.4076-6.478,3.6728-9.234,2.2716-2.763,5.3852-5.249,8.752-7.67l.001-.001c8.4533-6.089,13.2325-16.095,12.4394-26.493-3.8548-50.609-28.9829-117.697-45.6631-157.554-17.4675-41.754-27.1688-86.403-27.9472-131.647-.3294-18.895.849-38.527,4.6474-56.91,5.9532-28.767,25.458-47.433,46.1211-59.418,20.6664-11.987,42.4436-17.262,52.8226-19.252h.001c3.842-.746,6.621-4.101,6.621-8.021v-62.9302c0-3.9039-2.406-7.4017-5.861-10.5401-3.464-3.1468-8.071-6.012-12.651-8.6435h.001c-7.6751-4.4122-6.6646-15.7347,1.489-18.8076l.007.0126.411-.1367c11.959-3.9818,29.717-7.6445,54.655-7.6445Z" style="fill:#c59b6d; stroke:#c59b6d;"/><path d="M104.811,14.15c-8.935,2.98-10.1644,15.16-1.989,19.86,9.156,5.26,18.261,11.37,18.261,18.75v62.93c0,3.68-2.609,6.83-6.217,7.53-20.8091,3.99-87.3548,21.15-99.3386,79.06-3.808,18.43-4.9874,38.1-4.6576,57.02.7796,45.31,10.4946,90.02,27.9856,131.83,16.6814,39.86,41.7784,106.88,45.6265,157.4.7796,10.22-3.918,20.06-12.2337,26.05-6.7465,4.85-12.6335,10.07-12.6335,17.31,0,12.26,22.3385,39.36,104.1663,39.36,31.414,0,54.292-5.16,70.554-11.51,19.55-7.64,21.918-34.37,3.978-45.28-.25-.15-.5-.3-.76-.46-2.469-1.5-3.888-4.25-3.688-7.13,2.668-38.78,43.597-156.12,60.369-212.1,5.997-20.02,29.055-100.27,8.305-163.16-17.161-51.99-74.901-65.06-94.411-68.02-3.738-.57-6.497-3.79-6.497-7.57v-61.73c0-1.09.23-2.16.68-3.15,2.359-5.2,28.455-11.13,28.455-22.14,0-12.01-13.173-22.5-71.133-22.5-24.987,0-42.798,3.67-54.812,7.67l-.01-.02Z" style="fill:none; stroke:#c59b6d; stroke-miterlimit:10; stroke-width:9px;"/></g><path d="M75.1469,561.691c39.4101,13.65,82.1171,21.14,123.4561,13.31,13.683-2.58,26.936-7.19,39.66-13.31-17.551,12.03-38.72,18.77-59.919,20.72-35.012,3.1-72.023-4.61-103.1971-20.72Z" style="fill:#e2e3e2;"/><path d="M256.533,152.199c22.009,8.43,34.063,35.72,38.3,57.45,4.608,23.27,3.788,47.47-.459,70.7.28-29.05.21-58.58-8.786-86.44-5.397-16.09-14.063-32.76-29.055-41.71Z" style="fill:#e7e2d5;"/><path d="M65.5815,151.401c-6.3567,3.56-11.4041,9.02-15.7518,14.77-5.927,8.14-10.1848,17.39-13.3132,26.94-8.9953,27.86-9.0653,57.39-8.7854,86.44-4.4877-24.68-5.2073-50.51.4997-75.08,4.7576-20.42,16.6114-45.14,37.3408-53.08l.0099.01Z" style="fill:#e7e2d5;"/><path d="M125.711,52.8906c10.974,16.58,10.024,42.38,1.219,59.7404.19-3.88.69-7.58.959-11.41,1.45-16.1604,1.17-32.3604-2.178-48.3304Z" style="fill:#e7e2d5;"/><path d="M196.734,53.3906c-3.348,15.97-3.628,32.18-2.179,48.3304.27,3.82.77,7.52.96,11.41-8.806-17.3504-9.755-43.1504,1.219-59.7404Z" style="fill:#e7e2d5;"/><path d="M32.7866,381.841s128.5934-10.6,247.6824-.58c-15.012,20.02-23.518,25.03-23.518,25.03l-224.1644-24.45Z" style="fill:#c2c4dc;"/><path d="M31.3594,382.001s63.7971-20.35,120.8376,0c57.041,20.35,128.344-1.16,128.344-1.16,0,0-54.042,127.35-54.042,172.12-55.542,21.52-129.0937,2.33-129.0937,2.33,0,0,3.7477-64.55-66.0459-173.28v-.01Z" style="fill:#8eb3d6;"/><g style="opacity:.5;"><g style="opacity:.5;"><path d="M63.5728,152.981s-.03-.03,0-.04l5.5871-3.37s.06-.01.0899,0l5.3473,3.1s.02.04,0,.05l-5.0974,2.64s-.0699.01-.0899,0l-5.827-2.38h-.01Z" style="fill:#92b6da;"/></g><g style="opacity:.5;"><path d="M55.8168,161.131s-.0399.02-.0399-.01l-1.3793-6.38s0-.06.03-.08l4.6576-4.07s.0399-.01.0499.02l.8596,5.68s0,.07-.03.09l-4.1379,4.75h-.01Z" style="fill:#92b6da;"/></g><g style="opacity:.5;"><path d="M48.6005,172.872s-.0399-.02-.02-.04l3.6782-5.39s.0499-.04.0799-.04l6.1568.58s.04.02.02.04l-3.5282,4.53s-.0499.04-.0799.04l-6.2968.27-.01.01Z" style="fill:#92b6da;"/></g><g style="opacity:.5;"><path d="M71.8288,162.86s-.03-.03,0-.04l5.5871-3.37s.06-.01.0899,0l5.3473,3.1s.02.04,0,.05l-5.0974,2.64s-.07.01-.09,0l-5.8269-2.38h-.01Z" style="fill:#92b6da;"/></g><g style="opacity:.5;"><path d="M64.0724,171.01s-.04.02-.04-.01l-1.3793-6.38s0-.06.03-.08l4.6576-4.07s.0399-.01.0499.02l.8596,5.68s0,.07-.03.09l-4.1379,4.75h-.0099Z" style="fill:#92b6da;"/></g><g style="opacity:.5;"><path d="M56.856,182.751s-.0399-.02-.02-.04l3.6781-5.39s.05-.04.08-.04l6.1568.58s.04.02.02.04l-3.5282,4.53s-.0499.04-.0799.04l-6.2968.27-.01.01Z" style="fill:#92b6da;"/></g><g style="opacity:.5;"><path d="M62.4035,200.95s-.03-.03,0-.04l5.5871-3.37s.06-.01.0899,0l5.3473,3.1s.02.04,0,.05l-5.0974,2.64s-.07.01-.0899,0l-5.827-2.38h-.01Z" style="fill:#92b6da;"/></g><g style="opacity:.5;"><path d="M54.6477,209.088s-.04.02-.04-.01l-1.3793-6.38s0-.06.03-.08l4.6576-4.07s.04-.01.05.02l.8595,5.68s0,.07-.03.09l-4.1378,4.75h-.01Z" style="fill:#92b6da;"/></g><g style="opacity:.5;"><path d="M47.4314,220.829s-.04-.02-.02-.04l3.6781-5.39s.0499-.04.0799-.04l6.1569.58s.0399.02.0199.04l-3.5281,4.53s-.05.04-.08.04l-6.2968.27-.0099.01Z" style="fill:#92b6da;"/></g><g style="opacity:.5;"><path d="M70.6596,210.829s-.03-.03,0-.04l5.5871-3.37s.06-.01.0899,0l5.3473,3.1s.02.04,0,.05l-5.0974,2.64s-.07.01-.0899,0l-5.827-2.38h-.01Z" style="fill:#92b6da;"/></g><g style="opacity:.5;"><path d="M62.9032,218.971s-.04.02-.04-.01l-1.3793-6.38s0-.06.03-.08l4.6576-4.07s.0399-.01.0499.02l.8596,5.68s0,.07-.03.09l-4.1379,4.75h-.0099Z" style="fill:#92b6da;"/></g><g style="opacity:.5;"><path d="M55.6868,230.708s-.0399-.02-.0199-.04l3.6781-5.39s.0499-.04.0799-.04l6.1568.58s.04.02.02.04l-3.5281,4.53s-.05.04-.08.04l-6.2968.27-.01.01Z" style="fill:#92b6da;"/></g><g style="opacity:.5;"><path d="M44.8426,180.899s-.03-.03,0-.04l5.5871-3.37s.0599-.01.0899,0l5.3473,3.1s.02.04,0,.05l-5.0974,2.64s-.07.01-.09,0l-5.827-2.38h-.0099Z" style="fill:#92b6da;"/></g><g style="opacity:.5;"><path d="M37.0866,189.049s-.0399.02-.0399-.01l-1.3793-6.38s0-.06.0299-.08l4.6576-4.07s.04-.01.05.02l.8596,5.68s0,.07-.03.09l-4.1379,4.75h-.01Z" style="fill:#92b6da;"/></g><g style="opacity:.5;"><path d="M29.8703,200.79s-.04-.02-.02-.04l3.6781-5.39s.05-.04.08-.04l6.1568.58s.04.02.02.04l-3.5282,4.53s-.05.04-.0799.04l-6.2968.27-.01.01Z" style="fill:#92b6da;"/></g><g style="opacity:.5;"><path d="M53.1083,190.778s-.03-.03,0-.04l5.5871-3.37s.06-.01.09,0l5.3472,3.1s.02.04,0,.05l-5.0974,2.64s-.0699.01-.0899,0l-5.827-2.38h-.01Z" style="fill:#92b6da;"/></g><g style="opacity:.5;"><path d="M45.3524,198.928s-.04.02-.04-.01l-1.3793-6.38s0-.06.03-.08l4.6576-4.07s.04-.01.05.02l.8595,5.68s0,.07-.03.09l-4.1378,4.75h-.01Z" style="fill:#92b6da;"/></g><g style="opacity:.5;"><path d="M38.1361,210.669s-.04-.02-.02-.04l3.6781-5.39s.05-.04.0799-.04l6.1569.58s.0399.02.02.04l-3.5282,4.53s-.05.04-.08.04l-6.2967.27-.01.01Z" style="fill:#92b6da;"/></g><g style="opacity:.5;"><path d="M83.1126,171.821s-.03-.03,0-.04l5.5871-3.37s.06-.01.0899,0l5.3473,3.1s.02.04,0,.05l-5.0974,2.64s-.07.01-.0899,0l-5.827-2.38h-.01Z" style="fill:#92b6da;"/></g><g style="opacity:.5;"><path d="M75.3568,179.96s-.04.02-.04-.01l-1.3793-6.38s0-.06.03-.08l4.6576-4.07s.04-.01.05.02l.8595,5.68s0,.07-.03.09l-4.1378,4.75h-.01Z" style="fill:#92b6da;"/></g><g style="opacity:.5;"><path d="M68.1403,191.712s-.0399-.02-.02-.04l3.6781-5.39s.05-.04.08-.04l6.1568.58s.04.02.02.04l-3.5282,4.53s-.0499.04-.0799.04l-6.2968.27-.01.01Z" style="fill:#92b6da;"/></g><g style="opacity:.5;"><path d="M91.3686,181.7s-.03-.03,0-.04l5.5871-3.37s.0599-.01.0899,0l5.3474,3.1s.02.04,0,.05l-5.0975,2.64s-.07.01-.09,0l-5.827-2.38h-.0099Z" style="fill:#92b6da;"/></g><g style="opacity:.5;"><path d="M83.6123,189.842s-.04.02-.04-.01l-1.3793-6.38s0-.06.03-.08l4.6576-4.07s.0399-.01.0499.02l.8596,5.68s0,.07-.03.09l-4.1379,4.75h-.0099Z" style="fill:#92b6da;"/></g><g style="opacity:.5;"><path d="M76.3958,201.579s-.04-.02-.02-.04l3.6781-5.39s.05-.04.08-.04l6.1568.58s.04.02.02.04l-3.5282,4.53s-.0499.04-.0799.04l-6.2968.27-.01.01Z" style="fill:#92b6da;"/></g><g style="opacity:.5;"><path d="M29.1306,161.75s-.0299-.03,0-.04l5.5872-3.37s.0599-.01.0899,0l5.3472,3.1s.02.04,0,.05l-5.0973,2.64s-.07.01-.09,0l-5.827-2.38h-.01Z" style="fill:#92b6da;"/></g><g style="opacity:.5;"><path d="M21.3748,169.901s-.0399.02-.0399-.01l-1.3793-6.38s0-.06.0299-.08l4.6576-4.07s.04-.01.05.02l.8596,5.68s0,.07-.03.09l-4.1379,4.75h-.01Z" style="fill:#92b6da;"/></g><g style="opacity:.5;"><path d="M14.1584,181.642s-.04-.02-.02-.04l3.6781-5.39s.05-.04.08-.04l6.1568.58s.04.02.02.04l-3.5282,4.53s-.05.04-.08.04l-6.2967.27-.01.01Z" style="fill:#92b6da;"/></g><g style="opacity:.5;"><path d="M37.3866,171.629s-.03-.03,0-.04l5.5871-3.37s.06-.01.09,0l5.3472,3.1s.02.04,0,.05l-5.0973,2.64s-.07.01-.09,0l-5.827-2.38h-.01Z" style="fill:#92b6da;"/></g><g style="opacity:.5;"><path d="M29.6303,179.78s-.0399.02-.0399-.01l-1.3793-6.38s0-.06.0299-.08l4.6576-4.07s.04-.01.05.02l.8596,5.68s0,.07-.03.09l-4.1379,4.75h-.01Z" style="fill:#92b6da;"/></g><g style="opacity:.5;"><path d="M22.4139,191.521s-.04-.02-.02-.04l3.6781-5.39s.05-.04.08-.04l6.1568.58s.04.02.02.04l-3.5282,4.53s-.05.04-.08.04l-6.2967.27-.01.01Z" style="fill:#92b6da;"/></g><g style="opacity:.5;"><path d="M33.0185,151.618s-.04-.02-.02-.04l3.6781-5.39s.05-.04.08-.04l6.1568.58s.04.02.02.04l-3.5282,4.53s-.05.04-.0799.04l-6.2968.27-.01.01Z" style="fill:#92b6da;"/></g><g style="opacity:.5;"><path d="M56.2466,141.61s-.03-.03,0-.04l5.5871-3.37s.06-.01.09,0l5.3472,3.1s.02.04,0,.05l-5.0974,2.64s-.0699.01-.0899,0l-5.827-2.38h-.01Z" style="fill:#92b6da;"/></g><g style="opacity:.5;"><path d="M48.5006,149.76s-.04.02-.04-.01l-1.3793-6.38s0-.06.03-.08l4.6576-4.07s.04-.01.05.02l.8595,5.68s0,.07-.03.09l-4.1378,4.75h-.01Z" style="fill:#92b6da;"/></g><g style="opacity:.5;"><path d="M41.2843,161.501s-.04-.02-.02-.04l3.6781-5.39s.0499-.04.0799-.04l6.1568.58s.04.02.02.04l-3.5281,4.53s-.05.04-.08.04l-6.2968.27-.0099.01Z" style="fill:#92b6da;"/></g><g style="opacity:.5;"><path d="M6.7321,191.11s-.03-.03,0-.04l5.5871-3.37s.06-.01.0899,0l5.3473,3.1s.02.04,0,.05l-5.0974,2.64s-.0699.01-.0899,0l-5.827-2.38h-.01Z" style="fill:#92b6da;"/></g><g style="opacity:.5;"><path d="M14.9978,200.989s-.03-.03,0-.04l5.5871-3.37s.06-.01.09,0l5.3472,3.1s.02.04,0,.05l-5.0973,2.64s-.07.01-.09,0l-5.827-2.38h-.01Z" style="fill:#92b6da;"/></g><g style="opacity:.5;"><path d="M7.2419,209.139s-.04.02-.04-.01l-1.3793-6.38s0-.06.03-.08l4.6576-4.07s.04-.01.05.02l.8595,5.68s0,.07-.0299.09l-4.1379,4.75h-.01Z" style="fill:#92b6da;"/></g><g style="opacity:.5;"><path d="M.0256,220.88s-.04-.02-.02-.04l3.6781-5.39s.05-.04.08-.04l6.1568.58s.04.02.02.04l-3.5282,4.53s-.05.04-.08.04l-6.2967.27-.01.01Z" style="fill:#92b6da;"/></g><g style="opacity:.5;"><path d="M23.8529,211.079s-.03-.03,0-.04l5.5871-3.37s.06-.01.09,0l5.3472,3.1s.02.04,0,.05l-5.0973,2.64s-.07.01-.09,0l-5.827-2.38h-.01Z" style="fill:#92b6da;"/></g><g style="opacity:.5;"><path d="M16.0971,219.217s-.0399.02-.0399-.01l-1.3793-6.38s0-.06.0299-.08l4.6576-4.07s.04-.01.05.02l.8596,5.68s0,.07-.03.09l-4.1379,4.75h-.01Z" style="fill:#92b6da;"/></g><g style="opacity:.5;"><path d="M8.8808,230.958s-.04-.02-.02-.04l3.6781-5.39s.05-.04.08-.04l6.1568.58s.04.02.02.04l-3.5282,4.53s-.05.04-.0799.04l-6.2968.27-.01.01Z" style="fill:#92b6da;"/></g><g style="opacity:.5;"><path d="M32.1089,220.957s-.03-.03,0-.04l5.5871-3.37s.06-.01.09,0l5.3472,3.1s.02.04,0,.05l-5.0973,2.64s-.07.01-.09,0l-5.827-2.38h-.01Z" style="fill:#92b6da;"/></g><g style="opacity:.5;"><path d="M24.3526,229.1s-.04.02-.04-.01l-1.3793-6.38s0-.06.03-.08l4.6576-4.07s.04-.01.05.02l.8596,5.68s0,.07-.03.09l-4.1379,4.75h-.01Z" style="fill:#92b6da;"/></g><g style="opacity:.5;"><path d="M17.1363,240.837s-.04-.02-.02-.04l3.6781-5.39s.05-.04.08-.04l6.1568.58s.04.02.02.04l-3.5282,4.53s-.05.04-.0799.04l-6.2968.27-.01.01Z" style="fill:#92b6da;"/></g><g style="opacity:.5;"><path d="M41.0944,230.879s-.03-.03,0-.04l5.5871-3.37s.06-.01.09,0l5.3472,3.1s.02.04,0,.05l-5.0974,2.64s-.0699.01-.0899,0l-5.827-2.38h-.01Z" style="fill:#92b6da;"/></g><g style="opacity:.5;"><path d="M33.3386,239.018s-.04.02-.04-.01l-1.3793-6.38s0-.06.03-.08l4.6576-4.07s.04-.01.05.02l.8595,5.68s0,.07-.03.09l-4.1378,4.75h-.01Z" style="fill:#92b6da;"/></g><g style="opacity:.5;"><path d="M26.1223,250.771s-.04-.02-.02-.04l3.6781-5.39s.05-.04.0799-.04l6.1569.58s.0399.02.02.04l-3.5282,4.53s-.05.04-.08.04l-6.2967.27-.01.01Z" style="fill:#92b6da;"/></g><g style="opacity:.5;"><path d="M49.3505,240.758s-.03-.03,0-.04l5.5871-3.37s.06-.01.09,0l5.3472,3.1s.02.04,0,.05l-5.0974,2.64s-.0699.01-.0899,0l-5.827-2.38h-.01Z" style="fill:#92b6da;"/></g><g style="opacity:.5;"><path d="M41.5941,248.901s-.04.02-.04-.01l-1.3793-6.38s0-.06.03-.08l4.6576-4.07s.04-.01.05.02l.8595,5.68s0,.07-.03.09l-4.1378,4.75h-.01Z" style="fill:#92b6da;"/></g><g style="opacity:.5;"><path d="M132.347,77.7387s-.03-.03,0-.04l5.587-3.37s.06-.01.09,0l5.347,3.1s.02.04,0,.05l-5.097,2.64s-.07.01-.09,0l-5.827-2.38h-.01Z" style="fill:#92b6da;"/></g><g style="opacity:.5;"><path d="M124.591,85.8893s-.04.0199-.04-.0101l-1.379-6.38s0-.0599.03-.0799l4.657-4.0701s.04-.0099.05.0201l.86,5.68s0,.07-.03.09l-4.138,4.75h-.01Z" style="fill:#92b6da;"/></g><g style="opacity:.5;"><path d="M117.375,97.6302s-.04-.0201-.02-.0401l3.678-5.3899s.05-.04.08-.04l6.157.58s.04.02.02.04l-3.529,4.53s-.05.04-.08.04l-6.296.27-.01.01Z" style="fill:#92b6da;"/></g><g style="opacity:.5;"><path d="M140.613,87.6176s-.03-.03,0-.04l5.587-3.37s.06-.01.09,0l5.347,3.0999s.02.0401,0,.0501l-5.097,2.6399s-.07.01-.09,0l-5.827-2.3799h-.01Z" style="fill:#92b6da;"/></g><g style="opacity:.5;"><path d="M132.857,95.7682s-.04.02-.04-.01l-1.379-6.38s0-.06.03-.08l4.657-4.07s.04-.01.05.02l.86,5.68s0,.07-.03.09l-4.138,4.75h-.01Z" style="fill:#92b6da;"/></g><g style="opacity:.5;"><path d="M125.64,107.509s-.04-.02-.02-.04l3.679-5.39s.05-.04.08-.04l6.156.58s.04.02.02.04l-3.528,4.53s-.05.04-.08.04l-6.297.27-.01.01Z" style="fill:#92b6da;"/></g><g style="opacity:.5;"><path d="M131.188,125.707s-.03-.03,0-.04l5.587-3.37s.06-.01.09,0l5.347,3.1s.02.04,0,.05l-5.097,2.64s-.07.01-.09,0l-5.827-2.38h-.01Z" style="fill:#92b6da;"/></g><g style="opacity:.5;"><path d="M123.432,133.858s-.04.02-.04-.01l-1.379-6.38s0-.06.03-.08l4.658-4.07s.039-.01.049.02l.86,5.68s0,.07-.03.09l-4.138,4.75h-.01Z" style="fill:#92b6da;"/></g><g style="opacity:.5;"><path d="M116.216,145.599s-.04-.02-.02-.04l3.678-5.39s.05-.04.08-.04l6.157.58s.04.02.02.04l-3.529,4.53s-.049.04-.079.04l-6.297.27-.01.01Z" style="fill:#92b6da;"/></g><g style="opacity:.5;"><path d="M139.444,135.586s-.03-.03,0-.04l5.587-3.37s.06-.01.09,0l5.347,3.1s.02.04,0,.05l-5.097,2.64s-.07.01-.09,0l-5.827-2.38h-.01Z" style="fill:#92b6da;"/></g><g style="opacity:.5;"><path d="M131.688,143.729s-.04.02-.04-.01l-1.38-6.38s0-.06.03-.08l4.658-4.07s.04-.01.05.02l.86,5.68s0,.07-.03.09l-4.138,4.75h-.01Z" style="fill:#92b6da;"/></g><g style="opacity:.5;"><path d="M124.472,155.478s-.04-.02-.02-.04l3.678-5.39s.05-.04.08-.04l6.157.58s.04.02.02.04l-3.529,4.53s-.05.04-.08.04l-6.296.27-.01.01Z" style="fill:#92b6da;"/></g><g style="opacity:.5;"><path d="M113.626,105.661s-.029-.03,0-.04l5.588-3.37s.06-.01.09,0l5.347,3.1s.02.04,0,.05l-5.098,2.64s-.07.01-.09,0l-5.827-2.38h-.01Z" style="fill:#92b6da;"/></g><g style="opacity:.5;"><path d="M98.6542,125.552s-.0399-.02-.0199-.04l3.6777-5.39s.05-.04.08-.04l6.157.58s.04.02.02.04l-3.528,4.53s-.05.04-.08.04l-6.2968.27-.01.01Z" style="fill:#92b6da;"/></g><g style="opacity:.5;"><path d="M121.882,115.539s-.03-.03,0-.04l5.588-3.37s.06-.01.09,0l5.347,3.1s.02.04,0,.05l-5.098,2.64s-.07.01-.09,0l-5.827-2.38h-.01Z" style="fill:#92b6da;"/></g><g style="opacity:.5;"><path d="M114.126,123.69s-.04.02-.04-.01l-1.379-6.38s0-.06.03-.08l4.657-4.07s.04-.01.05.02l.86,5.68s0,.07-.03.09l-4.138,4.75h-.01Z" style="fill:#92b6da;"/></g><g style="opacity:.5;"><path d="M106.91,135.431s-.04-.02-.02-.04l3.678-5.39s.05-.04.08-.04l6.157.58s.04.02.02.04l-3.529,4.53s-.05.04-.08.04l-6.296.27-.01.01Z" style="fill:#92b6da;"/></g><g style="opacity:.5;"><path d="M144.132,104.729s-.04.02-.04-.01l-1.38-6.3799s0-.06.03-.08l4.658-4.07s.04-.01.05.02l.859,5.68s0,.07-.03.09l-4.137,4.7499h-.01Z" style="fill:#92b6da;"/></g><g style="opacity:.5;"><path d="M136.915,116.47s-.04-.02-.02-.04l3.678-5.39s.05-.04.08-.04l6.157.58s.04.02.02.04l-3.528,4.53s-.05.04-.08.04l-6.297.27-.01.01Z" style="fill:#92b6da;"/></g><g style="opacity:.5;"><path d="M152.397,114.608s-.04.02-.04-.01l-1.379-6.38s0-.06.03-.08l4.658-4.07s.04-.01.05.02l.859,5.68s0,.07-.03.09l-4.138,4.75h-.01Z" style="fill:#92b6da;"/></g><g style="opacity:.5;"><path d="M145.181,126.349s-.04-.02-.02-.04l3.678-5.39s.05-.04.08-.04l6.157.58s.04.02.02.04l-3.528,4.53s-.05.04-.08.04l-6.297.27-.01.01Z" style="fill:#92b6da;"/></g><g style="opacity:.5;"><path d="M116.775,56.4887s-.03-.03,0-.04l5.587-3.37s.06-.01.09,0l5.348,3.1s.02.04,0,.05l-5.098,2.64s-.07.01-.09,0l-5.827-2.38h-.01Z" style="fill:#92b6da;"/></g><g style="opacity:.5;"><path d="M125.031,66.3676s-.03-.03,0-.04l5.587-3.37s.06-.01.09,0l5.347,3.1s.02.04,0,.05l-5.097,2.64s-.07.01-.09,0l-5.827-2.38h-.01Z" style="fill:#92b6da;"/></g><g style="opacity:.5;"><path d="M117.275,74.5182s-.04.02-.04-.01l-1.379-6.38s0-.06.03-.08l4.657-4.07s.04-.01.05.02l.86,5.68s0,.07-.03.09l-4.138,4.75h-.01Z" style="fill:#92b6da;"/></g><g style="opacity:.5;"><path d="M110.059,86.2591s-.04-.02-.02-.04l3.678-5.39s.05-.04.08-.04l6.156.58s.04.02.02.04l-3.528,4.53s-.05.04-.08.04l-6.296.27-.01.01Z" style="fill:#92b6da;"/></g><g style="opacity:.5;"><path d="M60.5441,135.759s-.0399-.02-.0199-.04l3.6781-5.39s.0499-.04.0799-.04l6.1568.58s.04.02.02.04l-3.5281,4.53s-.05.04-.08.04l-6.2968.27-.01.01Z" style="fill:#92b6da;"/></g><g style="opacity:.5;"><path d="M83.7724,125.75s-.03-.03,0-.04l5.5871-3.37s.06-.01.0899,0l5.3473,3.1s.02.04,0,.05l-5.0974,2.64s-.0699.01-.0899,0l-5.827-2.38h-.01Z" style="fill:#92b6da;"/></g><g style="opacity:.5;"><path d="M76.0161,133.901s-.04.02-.04-.01l-1.3793-6.38s0-.06.03-.08l4.6576-4.07s.04-.01.05.02l.8595,5.68s0,.07-.03.09l-4.1378,4.75h-.01Z" style="fill:#92b6da;"/></g><g style="opacity:.5;"><path d="M68.7996,145.642s-.0399-.02-.02-.04l3.6781-5.39s.05-.04.08-.04l6.1568.58s.04.02.02.04l-3.5282,4.53s-.0499.04-.0799.04l-6.2968.27-.01.01Z" style="fill:#92b6da;"/></g><g style="opacity:.5;"><path d="M92.6277,135.84s-.03-.03,0-.04l5.5871-3.37s.06-.01.09,0l5.3472,3.1s.02.04,0,.05l-5.0973,2.64s-.07.01-.09,0l-5.827-2.38h-.01Z" style="fill:#92b6da;"/></g><g style="opacity:.5;"><path d="M84.8815,143.979s-.0399.02-.0399-.01l-1.3793-6.38s0-.06.03-.08l4.6576-4.07s.0399-.01.0499.02l.8596,5.68s0,.07-.03.09l-4.1378,4.75h-.0101Z" style="fill:#92b6da;"/></g><g style="opacity:.5;"><path d="M77.6652,155.732s-.0399-.02-.02-.04l3.6781-5.39s.05-.04.08-.04l6.1568.58s.04.02.02.04l-3.5282,4.53s-.0499.04-.0799.04l-6.2968.27-.01.01Z" style="fill:#92b6da;"/></g><g style="opacity:.5;"><path d="M100.893,145.719s-.03-.03,0-.04l5.588-3.37s.06-.01.09,0l5.347,3.1s.02.04,0,.05l-5.098,2.64s-.07.01-.09,0l-5.827-2.38h-.01Z" style="fill:#92b6da;"/></g><g style="opacity:.5;"><path d="M93.1372,153.862s-.04.02-.04-.01l-1.3793-6.38s0-.06.03-.08l4.6576-4.07s.0399-.01.0499.02l.8596,5.68s0,.07-.03.09l-4.1378,4.75h-.01Z" style="fill:#92b6da;"/></g><g style="opacity:.5;"><path d="M85.9207,165.599s-.04-.02-.02-.04l3.6781-5.39s.05-.04.08-.04l6.1568.58s.04.02.02.04l-3.5282,4.53s-.0499.04-.0799.04l-6.2968.27-.01.01Z" style="fill:#92b6da;"/></g><g style="opacity:.5;"><path d="M109.869,155.637s-.03-.03,0-.04l5.587-3.37s.06-.01.09,0l5.347,3.1s.02.04,0,.05l-5.097,2.64s-.07.01-.09,0l-5.827-2.38h-.01Z" style="fill:#92b6da;"/></g><g style="opacity:.5;"><path d="M102.113,163.788s-.04.02-.04-.01l-1.379-6.38s0-.06.03-.08l4.657-4.07s.04-.01.05.02l.86,5.68s0,.07-.03.09l-4.138,4.75h-.01Z" style="fill:#92b6da;"/></g><g style="opacity:.5;"><path d="M94.8964,175.529s-.0399-.02-.02-.04l3.6782-5.39s.0499-.04.0799-.04l6.1565.58s.04.02.02.04l-3.528,4.53s-.05.04-.08.04l-6.2966.27-.01.01Z" style="fill:#92b6da;"/></g><g style="opacity:.5;"><path d="M118.134,165.516s-.03-.03,0-.04l5.588-3.37s.06-.01.09,0l5.347,3.1s.02.04,0,.05l-5.098,2.64s-.07.01-.09,0l-5.827-2.38h-.01Z" style="fill:#92b6da;"/></g><g style="opacity:.5;"><path d="M110.379,173.667s-.04.02-.04-.01l-1.38-6.38s0-.06.03-.08l4.658-4.07s.04-.01.05.02l.859,5.68s0,.07-.03.09l-4.137,4.75h-.01Z" style="fill:#92b6da;"/></g><g style="opacity:.5;"><path d="M103.162,185.408s-.04-.02-.02-.04l3.678-5.39s.05-.04.08-.04l6.157.58s.04.019.02.039l-3.528,4.53s-.05.041-.08.041l-6.297.27-.01.01Z" style="fill:#92b6da;"/></g></g><path d="M148.7308,302.8924c.6878-9.2901-8.4937-16.1585-17.2116-12.8755l-16.2563,6.1218c-7.7652,2.9291-15.2813-.7474-18.4821-8.2037-2.8255-6.582.0873-16.5038,8.1138-18.5151l15.0775-3.7856c10.4996-2.6362,14.7055-15.2865,7.8746-23.6847l-10.0827-12.396c-3.265-4.0152-2.2506-10.5066-.4137-13.8544,2.8687-5.2056,7.4919-8.3013,13.3367-8.0848,5.0925.1938,9.8528,3.6409,12.4479,7.8813l6.486,10.5904c5.7063,9.3172,19.1963,9.4475,25.0814.2422l6.3309-9.9025c4.9833-7.7984,14.3736-10.5923,21.5846-5.4858,7.1509,5.0617,8.3834,15.0562,2.2959,22.0801l-8.0063,9.2392c-7.1472,8.2478-3.2092,21.1308,7.328,23.9729l14.4644,3.9014c6.9841,1.8816,9.9782,9.4434,9.226,15.823-.0688.5836-.1886,1.1625-.3557,1.7259-1.6896,5.6971-6.1686,9.1669-11.9661,10.1955-2.6245.4657-5.328.0656-7.7915-.9523-2.7829-1.1499-7.174-2.9643-11.8831-4.91-10.125-4.1836-21.1289,3.7044-20.415,14.6364l.6947,10.639c.56,8.5142-3.0077,15.5686-11.2165,17.4327-4.7929,1.0841-9.4865-.1958-12.8823-3.1754-3.3545-2.9433-4.9525-7.4101-4.623-11.8606.2753-3.7182.7593-10.2567,1.2434-16.7952Z" style="fill:#603813;"/><rect x="89.1997" y="348.129" width="15.4172" height=".2031" style="fill:#dcd6cb;"/><rect x="89.406" y="348" width="15.168" height=".2734" style="fill:#dcd6cb;"/><line x1="104.276" y1="348.165" x2="104.594" y2="348.03" style="fill:none; stroke:#dcd6cb;"/><line x1="89.1784" y1="348.54" x2="88.9866" y2="348.253" style="fill:none; stroke:#dcd6cb;"/></svg>