<svg width="340" height="625" viewBox="0 0 340 625" fill="none" xmlns="http://www.w3.org/2000/svg">
<path d="M83.391 20.3036L83.4514 27.4224C83.5118 34.7915 88.2405 40.7195 94.0046 40.6677L99.4582 40.6159C104.204 40.5728 108.372 44.6197 109.64 50.4614C113.256 67.1237 119.564 104.021 118.649 155.397C117.441 223.34 91.321 279.402 87.8004 285.537C87.6106 285.873 87.438 286.201 87.274 286.555L11.5372 403.933C10.7692 405.158 7.66279 413.459 7.26586 414.943C6.54965 417.653 6.54102 420.621 7.26586 423.382C15.1787 453.583 64.131 617.039 120.78 618.791C201.548 621.293 237.531 621.276 244.27 617.212C245.064 616.737 245.78 616.151 246.453 615.435C255.98 605.339 320.982 511.422 333.503 416.031C333.891 413.054 333.028 410.042 331.682 407.557C309.411 366.406 263.608 316.428 245.867 277.935C227.53 238.165 216.079 177.21 215.889 155.431C215.743 138.458 215.95 77.3144 216.804 51.1517C217.028 44.3263 221.257 38.847 226.598 38.4587C232.785 38.01 237.997 31.1587 238.169 23.2374L238.23 20.5021C238.394 12.9691 233.639 6.73047 227.746 6.73047L93.7889 6.85127C87.9989 6.85127 83.3392 12.8828 83.4082 20.2864L83.391 20.3036Z" fill="#DCD6CB" stroke="#DCD6CB" stroke-width="9" stroke-miterlimit="10"/>
<path d="M116.31 63.043C124.335 90.6035 127.666 119.389 128.304 148.037C129.832 219.82 109.157 292.95 64.7604 349.969C55.9243 361.29 46.3633 372.016 36.0344 381.93C45.673 371.351 54.7593 360.298 63.0605 348.709C71.2925 337.121 78.8947 324.971 85.539 312.408C125.578 237.156 133.87 145.854 116.31 63.043Z" fill="#E2E3E2"/>
<path d="M303.663 378.454C225.407 308.784 193.773 204.574 208.52 102.098C210.643 87.7999 213.421 73.5451 217.831 59.7734C216.916 63.2681 216.157 66.7887 215.449 70.3265C210.548 95.0222 208.382 120.27 208.477 145.415C208.822 234.352 240.775 315.222 303.655 378.454H303.663Z" fill="#E2E3E2"/>
<path d="M89.5776 595.57C135.717 605.39 184.574 611.361 231.119 601.274C237.746 599.755 244.27 597.805 250.75 595.57C244.641 598.677 238.23 601.205 231.671 603.319C187.456 616.685 132.766 610.679 89.5776 595.57Z" fill="#E2E3E2"/>
<path d="M22.4612 403.484C20.6664 412.355 19.1822 421.148 21.4689 429.992C21.7191 431.347 22.2109 432.555 22.4612 433.936C21.9176 433.495 21.4171 433.012 20.9166 432.512C13.4439 424.651 14.8504 410.767 22.4612 403.484Z" fill="#E2E3E2"/>
<path d="M316.011 431.65C317.349 426.723 318.445 421.667 318.16 416.55C317.996 411.355 317.012 406.446 316.011 401.199C324.166 408.931 325.115 424.273 316.011 431.65Z" fill="#E2E3E2"/>
<path d="M94.7552 346.045C94.7552 346.045 147.617 284.392 216.303 344.665C284.99 404.937 94.7552 346.045 94.7552 346.045Z" fill="#F18CB8"/>
<path d="M38.183 435.707C44.4822 465.563 59.9195 530.089 82.0961 565.39C87.0836 573.337 94.8584 583.872 103.669 585.607C140.696 592.898 203.196 589.645 232.569 587.522C243.364 586.746 253.14 575.373 258.758 565.493C270.873 544.206 290.944 500.889 301.497 433.679C302.835 425.162 301.29 416.404 297.053 409.052C279.856 379.197 255.902 349.513 235.52 330.547C230.161 325.56 223.482 322.367 216.381 321.841C207.536 321.185 197.94 323.273 188.492 325.767C172.735 329.934 156.599 332.238 140.368 332.523C120.806 332.868 102.098 339.745 86.6867 351.8C78.9292 357.866 72.0088 365.244 66.2359 373.76L43.7142 406.964C38.0881 415.256 36.0776 425.715 38.183 435.698V435.707Z" fill="#D0518E"/>
<g opacity="0.5">
<g opacity="0.5">
<path d="M152.785 214.316C152.785 214.316 152.82 214.316 152.811 214.342L151.016 219.684C151.016 219.684 150.982 219.727 150.956 219.735L145.701 220.693C145.701 220.693 145.666 220.684 145.675 220.659L147.556 216.068C147.556 216.068 147.591 216.025 147.617 216.016L152.785 214.325V214.316Z" fill="#92B6DA"/>
</g>
<g opacity="0.5">
<path d="M153.338 204.616C153.338 204.616 153.355 204.581 153.372 204.599L157.842 208.024C157.842 208.024 157.876 208.067 157.868 208.093L157.074 213.374C157.074 213.374 157.057 213.4 157.031 213.391L153.294 210.13C153.294 210.13 153.26 210.078 153.26 210.061L153.329 204.624L153.338 204.616Z" fill="#92B6DA"/>
</g>
<g opacity="0.5">
<path d="M151.517 192.865C151.517 192.865 151.551 192.856 151.551 192.882L152.146 198.482C152.146 198.482 152.138 198.534 152.112 198.551L147.737 201.614C147.737 201.614 147.703 201.614 147.703 201.597L147.495 196.644C147.495 196.644 147.504 196.584 147.521 196.575L151.508 192.882L151.517 192.865Z" fill="#92B6DA"/>
</g>
<g opacity="0.5">
<path d="M141.835 212.434C141.835 212.434 141.87 212.434 141.861 212.459L140.066 217.801C140.066 217.801 140.032 217.844 140.006 217.853L134.751 218.81C134.751 218.81 134.716 218.802 134.725 218.776L136.606 214.185C136.606 214.185 136.64 214.142 136.666 214.133L141.835 212.442V212.434Z" fill="#92B6DA"/>
</g>
<g opacity="0.5">
<path d="M142.379 202.745C142.379 202.745 142.396 202.71 142.413 202.727L146.883 206.153C146.883 206.153 146.918 206.196 146.909 206.222L146.115 211.503C146.115 211.503 146.098 211.529 146.072 211.52L142.336 208.259C142.336 208.259 142.301 208.207 142.301 208.19L142.37 202.753L142.379 202.745Z" fill="#92B6DA"/>
</g>
<g opacity="0.5">
<path d="M140.566 190.994C140.566 190.994 140.601 190.985 140.601 191.011L141.196 196.611C141.196 196.611 141.188 196.663 141.162 196.68L136.787 199.743C136.787 199.743 136.752 199.743 136.752 199.726L136.545 194.773C136.545 194.773 136.554 194.713 136.571 194.704L140.558 191.011L140.566 190.994Z" fill="#92B6DA"/>
</g>
<g opacity="0.5">
<path d="M126.751 182.121C126.751 182.121 126.786 182.121 126.777 182.147L124.982 187.488C124.982 187.488 124.948 187.531 124.922 187.54L119.667 188.498C119.667 188.498 119.632 188.489 119.641 188.463L121.522 183.873C121.522 183.873 121.556 183.83 121.582 183.821L126.751 182.13V182.121Z" fill="#92B6DA"/>
</g>
<g opacity="0.5">
<path d="M127.303 172.432C127.303 172.432 127.321 172.398 127.338 172.415L131.808 175.841C131.808 175.841 131.842 175.884 131.834 175.91L131.04 181.191C131.04 181.191 131.023 181.216 130.997 181.208L127.26 177.946C127.26 177.946 127.226 177.894 127.226 177.877L127.295 172.441L127.303 172.432Z" fill="#92B6DA"/>
</g>
<g opacity="0.5">
<path d="M125.483 160.681C125.483 160.681 125.517 160.672 125.517 160.698L126.112 166.298C126.112 166.298 126.104 166.35 126.078 166.367L121.703 169.431C121.703 169.431 121.669 169.431 121.669 169.413L121.461 164.461C121.461 164.461 121.47 164.4 121.487 164.391L125.474 160.698L125.483 160.681Z" fill="#92B6DA"/>
</g>
<g opacity="0.5">
<path d="M115.801 180.254C115.801 180.254 115.835 180.254 115.827 180.28L114.032 185.621C114.032 185.621 113.997 185.664 113.972 185.673L108.717 186.631C108.717 186.631 108.682 186.622 108.691 186.596L110.572 182.006C110.572 182.006 110.606 181.962 110.632 181.954L115.801 180.263V180.254Z" fill="#92B6DA"/>
</g>
<g opacity="0.5">
<path d="M116.344 170.553C116.344 170.553 116.362 170.519 116.379 170.536L120.849 173.962C120.849 173.962 120.883 174.005 120.874 174.031L120.081 179.312C120.081 179.312 120.063 179.337 120.037 179.329L116.301 176.067C116.301 176.067 116.267 176.015 116.267 175.998L116.336 170.562L116.344 170.553Z" fill="#92B6DA"/>
</g>
<g opacity="0.5">
<path d="M114.532 158.798C114.532 158.798 114.567 158.79 114.567 158.816L115.162 164.416C115.162 164.416 115.154 164.467 115.128 164.485L110.753 167.548C110.753 167.548 110.718 167.548 110.718 167.531L110.511 162.578C110.511 162.578 110.52 162.517 110.537 162.509L114.524 158.816L114.532 158.798Z" fill="#92B6DA"/>
</g>
<g opacity="0.5">
<path d="M149.506 185.488C149.506 185.488 149.541 185.488 149.532 185.514L147.737 190.855C147.737 190.855 147.703 190.899 147.677 190.907L142.422 191.865C142.422 191.865 142.387 191.856 142.396 191.83L144.277 187.24C144.277 187.24 144.312 187.197 144.337 187.188L149.506 185.497V185.488Z" fill="#92B6DA"/>
</g>
<g opacity="0.5">
<path d="M150.05 175.788C150.05 175.788 150.067 175.753 150.084 175.77L154.554 179.196C154.554 179.196 154.589 179.239 154.58 179.265L153.786 184.546C153.786 184.546 153.769 184.572 153.743 184.563L150.007 181.302C150.007 181.302 149.972 181.25 149.972 181.233L150.041 175.796L150.05 175.788Z" fill="#92B6DA"/>
</g>
<g opacity="0.5">
<path d="M148.238 164.037C148.238 164.037 148.272 164.028 148.272 164.054L148.868 169.654C148.868 169.654 148.859 169.706 148.833 169.723L144.458 172.786C144.458 172.786 144.424 172.786 144.424 172.769L144.217 167.816C144.217 167.816 144.225 167.756 144.242 167.747L148.229 164.054L148.238 164.037Z" fill="#92B6DA"/>
</g>
<g opacity="0.5">
<path d="M138.547 183.605C138.547 183.605 138.582 183.605 138.573 183.631L136.779 188.973C136.779 188.973 136.744 189.016 136.718 189.024L131.463 189.982C131.463 189.982 131.429 189.974 131.437 189.948L133.318 185.357C133.318 185.357 133.353 185.314 133.379 185.305L138.547 183.614V183.605Z" fill="#92B6DA"/>
</g>
<g opacity="0.5">
<path d="M139.1 173.917C139.1 173.917 139.117 173.882 139.134 173.899L143.604 177.325C143.604 177.325 143.639 177.368 143.63 177.394L142.836 182.675C142.836 182.675 142.819 182.701 142.793 182.692L139.056 179.43C139.056 179.43 139.022 179.379 139.022 179.361L139.091 173.925L139.1 173.917Z" fill="#92B6DA"/>
</g>
<g opacity="0.5">
<path d="M137.288 162.162C137.288 162.162 137.322 162.153 137.322 162.179L137.918 167.779C137.918 167.779 137.909 167.831 137.883 167.848L133.508 170.911C133.508 170.911 133.474 170.911 133.474 170.894L133.266 165.941C133.266 165.941 133.275 165.881 133.292 165.872L137.279 162.179L137.288 162.162Z" fill="#92B6DA"/>
</g>
<g opacity="0.5">
<path d="M129.409 212.859C129.409 212.859 129.444 212.859 129.435 212.885L127.64 218.227C127.64 218.227 127.606 218.27 127.58 218.278L122.325 219.236C122.325 219.236 122.29 219.227 122.299 219.202L124.18 214.611C124.18 214.611 124.214 214.568 124.24 214.559L129.409 212.868V212.859Z" fill="#92B6DA"/>
</g>
<g opacity="0.5">
<path d="M129.953 203.159C129.953 203.159 129.97 203.124 129.987 203.142L134.457 206.567C134.457 206.567 134.492 206.61 134.483 206.636L133.689 211.917C133.689 211.917 133.672 211.943 133.646 211.934L129.91 208.673C129.91 208.673 129.875 208.621 129.875 208.604L129.944 203.167L129.953 203.159Z" fill="#92B6DA"/>
</g>
<g opacity="0.5">
<path d="M128.141 191.408C128.141 191.408 128.175 191.399 128.175 191.425L128.77 197.025C128.77 197.025 128.762 197.077 128.736 197.094L124.361 200.157C124.361 200.157 124.326 200.157 124.326 200.14L124.119 195.187C124.119 195.187 124.128 195.127 124.145 195.118L128.132 191.425L128.141 191.408Z" fill="#92B6DA"/>
</g>
<g opacity="0.5">
<path d="M118.45 210.98C118.45 210.98 118.485 210.98 118.476 211.006L116.681 216.348C116.681 216.348 116.647 216.391 116.621 216.399L111.366 217.357C111.366 217.357 111.331 217.349 111.34 217.323L113.221 212.732C113.221 212.732 113.256 212.689 113.282 212.68L118.45 210.989V210.98Z" fill="#92B6DA"/>
</g>
<g opacity="0.5">
<path d="M119.002 201.288C119.002 201.288 119.02 201.253 119.037 201.27L123.507 204.696C123.507 204.696 123.541 204.739 123.533 204.765L122.739 210.046C122.739 210.046 122.721 210.072 122.695 210.063L118.959 206.802C118.959 206.802 118.925 206.75 118.925 206.732L118.994 201.296L119.002 201.288Z" fill="#92B6DA"/>
</g>
<g opacity="0.5">
<path d="M117.19 189.525C117.19 189.525 117.225 189.516 117.225 189.542L117.82 195.142C117.82 195.142 117.812 195.194 117.786 195.211L113.411 198.274C113.411 198.274 113.376 198.274 113.376 198.257L113.169 193.304C113.169 193.304 113.178 193.244 113.195 193.235L117.182 189.542L117.19 189.525Z" fill="#92B6DA"/>
</g>
<g opacity="0.5">
<path d="M170.543 189.293C170.543 189.293 170.578 189.293 170.569 189.319L168.774 194.66C168.774 194.66 168.74 194.703 168.714 194.712L163.459 195.67C163.459 195.67 163.424 195.661 163.433 195.635L165.314 191.045C165.314 191.045 165.348 191.001 165.374 190.993L170.543 189.302V189.293Z" fill="#92B6DA"/>
</g>
<g opacity="0.5">
<path d="M171.096 179.604C171.096 179.604 171.113 179.57 171.13 179.587L175.6 183.013C175.6 183.013 175.635 183.056 175.626 183.082L174.832 188.362C174.832 188.362 174.815 188.388 174.789 188.38L171.053 185.118C171.053 185.118 171.018 185.066 171.018 185.049L171.087 179.613L171.096 179.604Z" fill="#92B6DA"/>
</g>
<g opacity="0.5">
<path d="M169.284 167.849C169.284 167.849 169.318 167.84 169.318 167.866L169.913 173.466C169.913 173.466 169.905 173.518 169.879 173.535L165.504 176.599C165.504 176.599 165.47 176.599 165.47 176.581L165.262 171.628C165.262 171.628 165.271 171.568 165.288 171.559L169.275 167.866L169.284 167.849Z" fill="#92B6DA"/>
</g>
<g opacity="0.5">
<path d="M159.593 187.41C159.593 187.41 159.628 187.41 159.619 187.436L157.824 192.777C157.824 192.777 157.79 192.82 157.764 192.829L152.509 193.787C152.509 193.787 152.474 193.778 152.483 193.752L154.364 189.162C154.364 189.162 154.399 189.119 154.424 189.11L159.593 187.419V187.41Z" fill="#92B6DA"/>
</g>
<g opacity="0.5">
<path d="M160.137 177.721C160.137 177.721 160.154 177.687 160.171 177.704L164.641 181.13C164.641 181.13 164.676 181.173 164.667 181.199L163.873 186.48C163.873 186.48 163.856 186.505 163.83 186.497L160.094 183.235C160.094 183.235 160.059 183.183 160.059 183.166L160.128 177.73L160.137 177.721Z" fill="#92B6DA"/>
</g>
<g opacity="0.5">
<path d="M158.325 165.97C158.325 165.97 158.359 165.961 158.359 165.987L158.955 171.588C158.955 171.588 158.946 171.639 158.92 171.657L154.545 174.72C154.545 174.72 154.511 174.72 154.511 174.703L154.304 169.75C154.304 169.75 154.312 169.689 154.33 169.681L158.316 165.987L158.325 165.97Z" fill="#92B6DA"/>
</g>
<g opacity="0.5">
<path d="M173.65 198.126C173.65 198.126 173.684 198.118 173.684 198.144L174.28 203.744C174.28 203.744 174.271 203.796 174.245 203.813L169.87 206.876C169.87 206.876 169.836 206.876 169.836 206.859L169.629 201.906C169.629 201.906 169.637 201.845 169.655 201.837L173.641 198.144L173.65 198.126Z" fill="#92B6DA"/>
</g>
<g opacity="0.5">
<path d="M163.96 217.699C163.96 217.699 163.994 217.699 163.986 217.725L162.191 223.066C162.191 223.066 162.156 223.109 162.13 223.118L156.875 224.076C156.875 224.076 156.841 224.067 156.849 224.041L158.73 219.451C158.73 219.451 158.765 219.408 158.791 219.399L163.96 217.708V217.699Z" fill="#92B6DA"/>
</g>
<g opacity="0.5">
<path d="M164.503 208.006C164.503 208.006 164.521 207.972 164.538 207.989L169.008 211.415C169.008 211.415 169.042 211.458 169.034 211.484L168.24 216.765C168.24 216.765 168.222 216.791 168.196 216.782L164.46 213.52C164.46 213.52 164.426 213.469 164.426 213.451L164.495 208.015L164.503 208.006Z" fill="#92B6DA"/>
</g>
<g opacity="0.5">
<path d="M162.691 196.247C162.691 196.247 162.726 196.239 162.726 196.265L163.321 201.865C163.321 201.865 163.313 201.917 163.287 201.934L158.912 204.997C158.912 204.997 158.877 204.997 158.877 204.98L158.67 200.027C158.67 200.027 158.679 199.966 158.696 199.958L162.683 196.265L162.691 196.247Z" fill="#92B6DA"/>
</g>
<g opacity="0.5">
<path d="M168.87 157.469C168.87 157.469 168.904 157.469 168.895 157.495L167.101 162.836C167.101 162.836 167.066 162.879 167.04 162.888L161.785 163.845C161.785 163.845 161.751 163.837 161.759 163.811L163.64 159.22C163.64 159.22 163.675 159.177 163.701 159.169L168.87 157.477V157.469Z" fill="#92B6DA"/>
</g>
<g opacity="0.5">
<path d="M157.911 155.59C157.911 155.59 157.945 155.59 157.936 155.616L156.142 160.957C156.142 160.957 156.107 161 156.081 161.009L150.826 161.967C150.826 161.967 150.792 161.958 150.8 161.932L152.681 157.341C152.681 157.341 152.716 157.298 152.742 157.29L157.911 155.598V155.59Z" fill="#92B6DA"/>
</g>
<g opacity="0.5">
<path d="M158.462 145.897C158.462 145.897 158.48 145.863 158.497 145.88L162.967 149.305C162.967 149.305 163.001 149.349 162.993 149.375L162.199 154.655C162.199 154.655 162.182 154.681 162.156 154.673L158.419 151.411C158.419 151.411 158.385 151.359 158.385 151.342L158.454 145.906L158.462 145.897Z" fill="#92B6DA"/>
</g>
<g opacity="0.5">
<path d="M156.651 134.138C156.651 134.138 156.685 134.129 156.685 134.155L157.281 139.755C157.281 139.755 157.272 139.807 157.246 139.825L152.871 142.888C152.871 142.888 152.837 142.888 152.837 142.87L152.63 137.918C152.63 137.918 152.638 137.857 152.655 137.849L156.642 134.155L156.651 134.138Z" fill="#92B6DA"/>
</g>
<g opacity="0.5">
<path d="M146.451 153.914C146.451 153.914 146.486 153.914 146.477 153.94L144.682 159.281C144.682 159.281 144.648 159.324 144.622 159.333L139.367 160.291C139.367 160.291 139.332 160.282 139.341 160.256L141.222 155.666C141.222 155.666 141.257 155.623 141.282 155.614L146.451 153.923V153.914Z" fill="#92B6DA"/>
</g>
<g opacity="0.5">
<path d="M147.004 144.214C147.004 144.214 147.021 144.179 147.038 144.196L151.508 147.622C151.508 147.622 151.542 147.665 151.534 147.691L150.74 152.972C150.74 152.972 150.723 152.998 150.697 152.989L146.96 149.727C146.96 149.727 146.926 149.676 146.926 149.658L146.995 144.222L147.004 144.214Z" fill="#92B6DA"/>
</g>
<g opacity="0.5">
<path d="M145.192 132.462C145.192 132.462 145.226 132.454 145.226 132.48L145.821 138.08C145.821 138.08 145.813 138.131 145.787 138.149L141.412 141.212C141.412 141.212 141.377 141.212 141.377 141.195L141.17 136.242C141.17 136.242 141.179 136.181 141.196 136.173L145.183 132.48L145.192 132.462Z" fill="#92B6DA"/>
</g>
<g opacity="0.5">
<path d="M135.501 152.031C135.501 152.031 135.535 152.031 135.527 152.057L133.732 157.398C133.732 157.398 133.698 157.442 133.672 157.45L128.417 158.408C128.417 158.408 128.382 158.399 128.391 158.373L130.272 153.783C130.272 153.783 130.306 153.74 130.332 153.731L135.501 152.04V152.031Z" fill="#92B6DA"/>
</g>
<g opacity="0.5">
<path d="M136.045 142.342C136.045 142.342 136.062 142.308 136.079 142.325L140.549 145.751C140.549 145.751 140.583 145.794 140.575 145.82L139.781 151.101C139.781 151.101 139.764 151.127 139.738 151.118L136.001 147.856C136.001 147.856 135.967 147.804 135.967 147.787L136.036 142.351L136.045 142.342Z" fill="#92B6DA"/>
</g>
<g opacity="0.5">
<path d="M134.233 130.579C134.233 130.579 134.267 130.571 134.267 130.597L134.862 136.197C134.862 136.197 134.854 136.249 134.828 136.266L130.453 139.329C130.453 139.329 130.419 139.329 130.419 139.312L130.211 134.359C130.211 134.359 130.22 134.299 130.237 134.29L134.224 130.597L134.233 130.579Z" fill="#92B6DA"/>
</g>
<g opacity="0.5">
<path d="M124.042 150.531C124.042 150.531 124.076 150.531 124.068 150.557L122.273 155.898C122.273 155.898 122.238 155.942 122.213 155.95L116.957 156.908C116.957 156.908 116.923 156.899 116.932 156.873L118.813 152.283C118.813 152.283 118.847 152.24 118.873 152.231L124.042 150.54V150.531Z" fill="#92B6DA"/>
</g>
<g opacity="0.5">
<path d="M124.594 140.835C124.594 140.835 124.612 140.8 124.629 140.817L129.099 144.243C129.099 144.243 129.133 144.286 129.125 144.312L128.331 149.593C128.331 149.593 128.313 149.619 128.287 149.61L124.551 146.348C124.551 146.348 124.517 146.297 124.517 146.279L124.586 140.843L124.594 140.835Z" fill="#92B6DA"/>
</g>
<g opacity="0.5">
<path d="M122.782 129.08C122.782 129.08 122.816 129.071 122.816 129.097L123.412 134.697C123.412 134.697 123.403 134.749 123.377 134.766L119.002 137.829C119.002 137.829 118.968 137.829 118.968 137.812L118.761 132.859C118.761 132.859 118.769 132.799 118.787 132.79L122.773 129.097L122.782 129.08Z" fill="#92B6DA"/>
</g>
<g opacity="0.5">
<path d="M113.091 148.648C113.091 148.648 113.126 148.648 113.117 148.674L111.322 154.016C111.322 154.016 111.288 154.059 111.262 154.067L106.007 155.025C106.007 155.025 105.972 155.017 105.981 154.991L107.862 150.4C107.862 150.4 107.897 150.357 107.923 150.348L113.091 148.657V148.648Z" fill="#92B6DA"/>
</g>
<g opacity="0.5">
<path d="M113.644 138.96C113.644 138.96 113.661 138.925 113.678 138.942L118.148 142.368C118.148 142.368 118.182 142.411 118.174 142.437L117.38 147.718C117.38 147.718 117.363 147.744 117.337 147.735L113.6 144.473C113.6 144.473 113.566 144.422 113.566 144.404L113.635 138.968L113.644 138.96Z" fill="#92B6DA"/>
</g>
<g opacity="0.5">
<path d="M149.584 302.234C149.584 302.234 149.618 302.234 149.61 302.26L147.815 307.602C147.815 307.602 147.78 307.645 147.754 307.653L142.499 308.611C142.499 308.611 142.465 308.602 142.473 308.577L144.355 303.986C144.355 303.986 144.389 303.943 144.415 303.934L149.584 302.243V302.234Z" fill="#92B6DA"/>
</g>
<g opacity="0.5">
<path d="M150.128 292.546C150.128 292.546 150.145 292.511 150.162 292.528L154.632 295.954C154.632 295.954 154.666 295.997 154.658 296.023L153.864 301.304C153.864 301.304 153.847 301.33 153.821 301.321L150.084 298.059C150.084 298.059 150.05 298.008 150.05 297.99L150.119 292.554L150.128 292.546Z" fill="#92B6DA"/>
</g>
<g opacity="0.5">
<path d="M148.315 280.794C148.315 280.794 148.35 280.786 148.35 280.812L148.945 286.412C148.945 286.412 148.937 286.463 148.911 286.481L144.536 289.544C144.536 289.544 144.501 289.544 144.501 289.527L144.294 284.574C144.294 284.574 144.303 284.513 144.32 284.505L148.307 280.812L148.315 280.794Z" fill="#92B6DA"/>
</g>
<g opacity="0.5">
<path d="M138.625 300.363C138.625 300.363 138.659 300.363 138.651 300.389L136.856 305.73C136.856 305.73 136.821 305.774 136.795 305.782L131.54 306.74C131.54 306.74 131.506 306.731 131.514 306.705L133.396 302.115C133.396 302.115 133.43 302.072 133.456 302.063L138.625 300.372V300.363Z" fill="#92B6DA"/>
</g>
<g opacity="0.5">
<path d="M139.177 290.667C139.177 290.667 139.194 290.632 139.212 290.649L143.681 294.075C143.681 294.075 143.716 294.118 143.707 294.144L142.913 299.425C142.913 299.425 142.896 299.451 142.87 299.442L139.134 296.18C139.134 296.18 139.099 296.129 139.099 296.111L139.169 290.675L139.177 290.667Z" fill="#92B6DA"/>
</g>
<g opacity="0.5">
<path d="M137.365 278.912C137.365 278.912 137.4 278.903 137.4 278.929L137.995 284.529C137.995 284.529 137.986 284.581 137.961 284.598L133.586 287.661C133.586 287.661 133.551 287.661 133.551 287.644L133.344 282.691C133.344 282.691 133.353 282.631 133.37 282.622L137.356 278.929L137.365 278.912Z" fill="#92B6DA"/>
</g>
<g opacity="0.5">
<path d="M123.55 270.051C123.55 270.051 123.585 270.051 123.576 270.077L121.781 275.418C121.781 275.418 121.747 275.461 121.721 275.47L116.466 276.428C116.466 276.428 116.431 276.419 116.44 276.393L118.321 271.802C118.321 271.802 118.355 271.759 118.381 271.751L123.55 270.059V270.051Z" fill="#92B6DA"/>
</g>
<g opacity="0.5">
<path d="M124.094 260.35C124.094 260.35 124.111 260.316 124.128 260.333L128.598 263.759C128.598 263.759 128.633 263.802 128.624 263.828L127.83 269.108C127.83 269.108 127.813 269.134 127.787 269.126L124.051 265.864C124.051 265.864 124.016 265.812 124.016 265.795L124.085 260.359L124.094 260.35Z" fill="#92B6DA"/>
</g>
<g opacity="0.5">
<path d="M122.282 248.599C122.282 248.599 122.316 248.59 122.316 248.616L122.912 254.216C122.912 254.216 122.903 254.268 122.877 254.285L118.502 257.349C118.502 257.349 118.468 257.349 118.468 257.331L118.26 252.378C118.26 252.378 118.269 252.318 118.286 252.309L122.273 248.616L122.282 248.599Z" fill="#92B6DA"/>
</g>
<g opacity="0.5">
<path d="M112.591 268.168C112.591 268.168 112.626 268.168 112.617 268.194L110.822 273.535C110.822 273.535 110.788 273.578 110.762 273.587L105.507 274.545C105.507 274.545 105.472 274.536 105.481 274.51L107.362 269.92C107.362 269.92 107.397 269.876 107.422 269.868L112.591 268.177V268.168Z" fill="#92B6DA"/>
</g>
<g opacity="0.5">
<path d="M113.143 258.479C113.143 258.479 113.16 258.445 113.178 258.462L117.648 261.888C117.648 261.888 117.682 261.931 117.673 261.957L116.88 267.237C116.88 267.237 116.862 267.263 116.836 267.255L113.1 263.993C113.1 263.993 113.066 263.941 113.066 263.924L113.135 258.488L113.143 258.479Z" fill="#92B6DA"/>
</g>
<g opacity="0.5">
<path d="M111.331 246.724C111.331 246.724 111.366 246.715 111.366 246.741L111.961 252.341C111.961 252.341 111.952 252.393 111.927 252.41L107.552 255.474C107.552 255.474 107.517 255.474 107.517 255.456L107.31 250.503C107.31 250.503 107.319 250.443 107.336 250.434L111.323 246.741L111.331 246.724Z" fill="#92B6DA"/>
</g>
<g opacity="0.5">
<path d="M146.305 273.406C146.305 273.406 146.339 273.406 146.331 273.432L144.536 278.773C144.536 278.773 144.501 278.817 144.476 278.825L139.221 279.783C139.221 279.783 139.186 279.774 139.195 279.748L141.076 275.158C141.076 275.158 141.11 275.115 141.136 275.106L146.305 273.415V273.406Z" fill="#92B6DA"/>
</g>
<g opacity="0.5">
<path d="M145.036 251.962C145.036 251.962 145.071 251.954 145.071 251.98L145.666 257.58C145.666 257.58 145.658 257.631 145.632 257.649L141.257 260.712C141.257 260.712 141.222 260.712 141.222 260.695L141.015 255.742C141.015 255.742 141.024 255.681 141.041 255.673L145.028 251.98L145.036 251.962Z" fill="#92B6DA"/>
</g>
<g opacity="0.5">
<path d="M135.346 271.535C135.346 271.535 135.38 271.535 135.372 271.561L133.577 276.902C133.577 276.902 133.542 276.945 133.517 276.954L128.261 277.912C128.261 277.912 128.227 277.903 128.236 277.877L130.117 273.287C130.117 273.287 130.151 273.244 130.177 273.235L135.346 271.544V271.535Z" fill="#92B6DA"/>
</g>
<g opacity="0.5">
<path d="M135.898 261.839C135.898 261.839 135.915 261.804 135.933 261.821L140.402 265.247C140.402 265.247 140.437 265.29 140.428 265.316L139.634 270.597C139.634 270.597 139.617 270.623 139.591 270.614L135.855 267.352C135.855 267.352 135.82 267.301 135.82 267.283L135.889 261.847L135.898 261.839Z" fill="#92B6DA"/>
</g>
<g opacity="0.5">
<path d="M134.086 250.083C134.086 250.083 134.121 250.075 134.121 250.101L134.716 255.701C134.716 255.701 134.707 255.753 134.681 255.77L130.307 258.833C130.307 258.833 130.272 258.833 130.272 258.816L130.065 253.863C130.065 253.863 130.074 253.802 130.091 253.794L134.077 250.101L134.086 250.083Z" fill="#92B6DA"/>
</g>
<g opacity="0.5">
<path d="M126.751 291.088C126.751 291.088 126.769 291.054 126.786 291.071L131.256 294.497C131.256 294.497 131.29 294.54 131.282 294.566L130.488 299.847C130.488 299.847 130.47 299.873 130.445 299.864L126.708 296.602C126.708 296.602 126.674 296.551 126.674 296.533L126.743 291.097L126.751 291.088Z" fill="#92B6DA"/>
</g>
<g opacity="0.5">
<path d="M124.94 279.333C124.94 279.333 124.974 279.325 124.974 279.351L125.569 284.951C125.569 284.951 125.561 285.003 125.535 285.02L121.16 288.083C121.16 288.083 121.126 288.083 121.126 288.066L120.918 283.113C120.918 283.113 120.927 283.052 120.944 283.044L124.931 279.351L124.94 279.333Z" fill="#92B6DA"/>
</g>
<g opacity="0.5">
<path d="M115.801 289.206C115.801 289.206 115.819 289.171 115.836 289.188L120.306 292.614C120.306 292.614 120.34 292.657 120.332 292.683L119.538 297.964C119.538 297.964 119.52 297.99 119.495 297.981L115.758 294.72C115.758 294.72 115.724 294.668 115.724 294.65L115.793 289.214L115.801 289.206Z" fill="#92B6DA"/>
</g>
<g opacity="0.5">
<path d="M113.99 277.451C113.99 277.451 114.024 277.442 114.024 277.468L114.619 283.068C114.619 283.068 114.611 283.12 114.585 283.137L110.21 286.2C110.21 286.2 110.175 286.2 110.175 286.183L109.968 281.23C109.968 281.23 109.977 281.17 109.994 281.161L113.981 277.468L113.99 277.451Z" fill="#92B6DA"/>
</g>
<g opacity="0.5">
<path d="M171.708 307.496C171.708 307.496 171.743 307.496 171.734 307.522L169.939 312.863C169.939 312.863 169.905 312.906 169.879 312.915L164.624 313.873C164.624 313.873 164.589 313.864 164.598 313.838L166.479 309.248C166.479 309.248 166.514 309.205 166.54 309.196L171.708 307.505V307.496Z" fill="#92B6DA"/>
</g>
<g opacity="0.5">
<path d="M160.75 305.617C160.75 305.617 160.784 305.617 160.776 305.643L158.981 310.984C158.981 310.984 158.946 311.027 158.92 311.036L153.665 311.994C153.665 311.994 153.631 311.985 153.639 311.959L155.521 307.369C155.521 307.369 155.555 307.326 155.581 307.317L160.75 305.626V305.617Z" fill="#92B6DA"/>
</g>
<g opacity="0.5">
<path d="M161.302 295.928C161.302 295.928 161.319 295.894 161.336 295.911L165.806 299.337C165.806 299.337 165.84 299.38 165.832 299.406L165.038 304.687C165.038 304.687 165.021 304.712 164.995 304.704L161.258 301.442C161.258 301.442 161.224 301.39 161.224 301.373L161.293 295.937L161.302 295.928Z" fill="#92B6DA"/>
</g>
<g opacity="0.5">
<path d="M159.49 284.173C159.49 284.173 159.524 284.165 159.524 284.191L160.12 289.791C160.12 289.791 160.111 289.842 160.085 289.86L155.71 292.923C155.71 292.923 155.676 292.923 155.676 292.906L155.469 287.953C155.469 287.953 155.477 287.892 155.494 287.884L159.481 284.191L159.49 284.173Z" fill="#92B6DA"/>
</g>
<g opacity="0.5">
<path d="M164.4 223.943C164.4 223.943 164.435 223.934 164.435 223.96L165.03 229.56C165.03 229.56 165.021 229.612 164.995 229.629L160.621 232.692C160.621 232.692 160.586 232.692 160.586 232.675L160.379 227.722C160.379 227.722 160.388 227.662 160.405 227.653L164.391 223.96L164.4 223.943Z" fill="#92B6DA"/>
</g>
<g opacity="0.5">
<path d="M154.709 243.504C154.709 243.504 154.744 243.504 154.735 243.53L152.94 248.871C152.94 248.871 152.906 248.914 152.88 248.923L147.625 249.881C147.625 249.881 147.59 249.872 147.599 249.846L149.48 245.256C149.48 245.256 149.515 245.212 149.541 245.204L154.709 243.513V243.504Z" fill="#92B6DA"/>
</g>
<g opacity="0.5">
<path d="M155.262 233.815C155.262 233.815 155.279 233.781 155.296 233.798L159.766 237.223C159.766 237.223 159.801 237.267 159.792 237.292L158.998 242.573C158.998 242.573 158.981 242.599 158.955 242.591L155.219 239.329C155.219 239.329 155.184 239.277 155.184 239.26L155.253 233.824L155.262 233.815Z" fill="#92B6DA"/>
</g>
<g opacity="0.5">
<path d="M153.45 222.064C153.45 222.064 153.484 222.055 153.484 222.081L154.079 227.681C154.079 227.681 154.071 227.733 154.045 227.75L149.67 230.814C149.67 230.814 149.636 230.814 149.636 230.796L149.428 225.843C149.428 225.843 149.437 225.783 149.454 225.774L153.441 222.081L153.45 222.064Z" fill="#92B6DA"/>
</g>
<g opacity="0.5">
<path d="M143.25 241.832C143.25 241.832 143.285 241.832 143.276 241.858L141.481 247.199C141.481 247.199 141.447 247.242 141.421 247.251L136.166 248.209C136.166 248.209 136.131 248.2 136.14 248.174L138.021 243.584C138.021 243.584 138.056 243.541 138.082 243.532L143.25 241.841V241.832Z" fill="#92B6DA"/>
</g>
<g opacity="0.5">
<path d="M143.803 232.143C143.803 232.143 143.82 232.109 143.837 232.126L148.307 235.552C148.307 235.552 148.341 235.595 148.333 235.621L147.539 240.901C147.539 240.901 147.522 240.927 147.496 240.919L143.759 237.657C143.759 237.657 143.725 237.605 143.725 237.588L143.794 232.152L143.803 232.143Z" fill="#92B6DA"/>
</g>
<g opacity="0.5">
<path d="M141.982 220.392C141.982 220.392 142.016 220.383 142.016 220.409L142.612 226.009C142.612 226.009 142.603 226.061 142.577 226.078L138.202 229.142C138.202 229.142 138.168 229.142 138.168 229.124L137.961 224.171C137.961 224.171 137.969 224.111 137.986 224.102L141.973 220.409L141.982 220.392Z" fill="#92B6DA"/>
</g>
<g opacity="0.5">
<path d="M132.291 239.953C132.291 239.953 132.326 239.953 132.317 239.979L130.523 245.32C130.523 245.32 130.488 245.363 130.462 245.372L125.207 246.33C125.207 246.33 125.173 246.321 125.181 246.295L127.062 241.705C127.062 241.705 127.097 241.662 127.123 241.653L132.291 239.962V239.953Z" fill="#92B6DA"/>
</g>
<g opacity="0.5">
<path d="M132.844 230.264C132.844 230.264 132.861 230.23 132.878 230.247L137.348 233.673C137.348 233.673 137.383 233.716 137.374 233.742L136.58 239.023C136.58 239.023 136.563 239.048 136.537 239.04L132.801 235.778C132.801 235.778 132.766 235.726 132.766 235.709L132.835 230.273L132.844 230.264Z" fill="#92B6DA"/>
</g>
<g opacity="0.5">
<path d="M131.031 218.509C131.031 218.509 131.066 218.501 131.066 218.526L131.661 224.127C131.661 224.127 131.653 224.178 131.627 224.196L127.252 227.259C127.252 227.259 127.217 227.259 127.217 227.242L127.01 222.289C127.01 222.289 127.019 222.228 127.036 222.22L131.023 218.526L131.031 218.509Z" fill="#92B6DA"/>
</g>
<g opacity="0.5">
<path d="M120.841 238.449C120.841 238.449 120.875 238.449 120.866 238.475L119.072 243.816C119.072 243.816 119.037 243.859 119.011 243.868L113.756 244.826C113.756 244.826 113.722 244.817 113.73 244.791L115.611 240.201C115.611 240.201 115.646 240.158 115.672 240.149L120.841 238.458V238.449Z" fill="#92B6DA"/>
</g>
<g opacity="0.5">
<path d="M121.393 228.76C121.393 228.76 121.41 228.726 121.428 228.743L125.897 232.169C125.897 232.169 125.932 232.212 125.923 232.238L125.129 237.519C125.129 237.519 125.112 237.545 125.086 237.536L121.35 234.274C121.35 234.274 121.315 234.222 121.315 234.205L121.384 228.769L121.393 228.76Z" fill="#92B6DA"/>
</g>
<g opacity="0.5">
<path d="M119.581 217.005C119.581 217.005 119.616 216.997 119.616 217.023L120.211 222.623C120.211 222.623 120.202 222.674 120.176 222.692L115.802 225.755C115.802 225.755 115.767 225.755 115.767 225.738L115.56 220.785C115.56 220.785 115.569 220.724 115.586 220.716L119.572 217.023L119.581 217.005Z" fill="#92B6DA"/>
</g>
<g opacity="0.5">
<path d="M109.89 236.578C109.89 236.578 109.925 236.578 109.916 236.604L108.121 241.945C108.121 241.945 108.087 241.988 108.061 241.997L102.806 242.955C102.806 242.955 102.771 242.946 102.78 242.92L104.661 238.33C104.661 238.33 104.696 238.287 104.722 238.278L109.89 236.587V236.578Z" fill="#92B6DA"/>
</g>
<g opacity="0.5">
<path d="M110.434 226.881C110.434 226.881 110.451 226.847 110.469 226.864L114.939 230.29C114.939 230.29 114.973 230.333 114.964 230.359L114.171 235.64C114.171 235.64 114.153 235.666 114.127 235.657L110.391 232.395C110.391 232.395 110.357 232.344 110.357 232.326L110.426 226.89L110.434 226.881Z" fill="#92B6DA"/>
</g>
<g opacity="0.5">
<path d="M108.622 215.126C108.622 215.126 108.656 215.118 108.656 215.144L109.252 220.744C109.252 220.744 109.243 220.796 109.217 220.813L104.842 223.876C104.842 223.876 104.808 223.876 104.808 223.859L104.601 218.906C104.601 218.906 104.609 218.845 104.627 218.837L108.613 215.144L108.622 215.126Z" fill="#92B6DA"/>
</g>
</g>
<g opacity="0.5">
<g opacity="0.5">
<path d="M114.533 87.7235C114.533 87.7235 114.498 87.7407 114.498 87.7235L112.885 82.3218C112.885 82.3218 112.885 82.27 112.902 82.2528L116.638 78.4475C116.638 78.4475 116.673 78.4388 116.681 78.4561L117.794 83.2882C117.794 83.2882 117.794 83.3487 117.777 83.3659L114.533 87.7321V87.7235Z" fill="#92B6DA"/>
</g>
<g opacity="0.5">
<path d="M119.675 95.9525C119.675 95.9525 119.675 95.987 119.658 95.987L114.032 95.7713C114.032 95.7713 113.98 95.754 113.971 95.7281L111.573 90.9564C111.573 90.9564 111.573 90.9219 111.599 90.9219L116.534 91.4223C116.534 91.4223 116.586 91.4396 116.603 91.4655L119.684 95.9439L119.675 95.9525Z" fill="#92B6DA"/>
</g>
<g opacity="0.5">
<path d="M127.942 104.506C127.942 104.506 127.916 104.532 127.908 104.514L124.188 100.286C124.188 100.286 124.163 100.234 124.171 100.217L125.975 95.1951C125.975 95.1951 126.001 95.1692 126.018 95.1951L129.047 99.1212C129.047 99.1212 129.072 99.173 129.064 99.1989L127.933 104.523L127.942 104.506Z" fill="#92B6DA"/>
</g>
<g opacity="0.5">
<path d="M124.568 82.9344C124.568 82.9344 124.534 82.9517 124.534 82.9344L122.92 77.5327C122.92 77.5327 122.92 77.481 122.937 77.4637L126.674 73.6584C126.674 73.6584 126.708 73.6498 126.717 73.667L127.83 78.4992C127.83 78.4992 127.83 78.5596 127.813 78.5768L124.568 82.943V82.9344Z" fill="#92B6DA"/>
</g>
<g opacity="0.5">
<path d="M129.711 91.1634C129.711 91.1634 129.711 91.1979 129.694 91.1979L124.068 90.9822C124.068 90.9822 124.016 90.965 124.008 90.9391L121.609 86.1673C121.609 86.1673 121.609 86.1328 121.635 86.1328L126.57 86.6333C126.57 86.6333 126.622 86.6505 126.639 86.6764L129.72 91.1548L129.711 91.1634Z" fill="#92B6DA"/>
</g>
<g opacity="0.5">
<path d="M137.969 99.7244C137.969 99.7244 137.943 99.7502 137.934 99.733L134.215 95.5049C134.215 95.5049 134.189 95.4531 134.198 95.4358L136.002 90.4138C136.002 90.4138 136.027 90.388 136.045 90.4138L139.073 94.34C139.073 94.34 139.099 94.3917 139.091 94.4176L137.96 99.7416L137.969 99.7244Z" fill="#92B6DA"/>
</g>
<g opacity="0.5">
<path d="M133.853 109.372C133.853 109.372 133.818 109.389 133.818 109.372L132.205 103.97C132.205 103.97 132.205 103.918 132.222 103.901L135.958 100.096C135.958 100.096 135.993 100.087 136.001 100.105L137.114 104.937C137.114 104.937 137.115 104.997 137.097 105.014L133.853 109.381V109.372Z" fill="#92B6DA"/>
</g>
<g opacity="0.5">
<path d="M138.996 117.605C138.996 117.605 138.996 117.639 138.979 117.639L133.352 117.424C133.352 117.424 133.301 117.406 133.292 117.38L130.893 112.609C130.893 112.609 130.893 112.574 130.919 112.574L135.855 113.075C135.855 113.075 135.907 113.092 135.924 113.118L139.004 117.596L138.996 117.605Z" fill="#92B6DA"/>
</g>
<g opacity="0.5">
<path d="M147.254 126.154C147.254 126.154 147.228 126.18 147.219 126.163L143.5 121.935C143.5 121.935 143.474 121.883 143.483 121.865L145.286 116.844C145.286 116.844 145.312 116.818 145.33 116.844L148.358 120.77C148.358 120.77 148.384 120.821 148.376 120.847L147.245 126.171L147.254 126.154Z" fill="#92B6DA"/>
</g>
<g opacity="0.5">
<path d="M143.88 104.583C143.88 104.583 143.845 104.6 143.845 104.583L142.232 99.1812C142.232 99.1812 142.232 99.1294 142.249 99.1122L145.985 95.3068C145.985 95.3068 146.02 95.2982 146.028 95.3155L147.141 100.148C147.141 100.148 147.141 100.208 147.124 100.225L143.88 104.591V104.583Z" fill="#92B6DA"/>
</g>
<g opacity="0.5">
<path d="M149.023 112.816C149.023 112.816 149.023 112.85 149.005 112.85L143.379 112.635C143.379 112.635 143.328 112.617 143.319 112.591L140.92 107.82C140.92 107.82 140.92 107.785 140.946 107.785L145.882 108.286C145.882 108.286 145.934 108.303 145.951 108.329L149.031 112.807L149.023 112.816Z" fill="#92B6DA"/>
</g>
<g opacity="0.5">
<path d="M157.289 121.377C157.289 121.377 157.263 121.403 157.255 121.385L153.536 117.157C153.536 117.157 153.51 117.105 153.518 117.088L155.322 112.066C155.322 112.066 155.348 112.04 155.365 112.066L158.394 115.992C158.394 115.992 158.42 116.044 158.411 116.07L157.281 121.394L157.289 121.377Z" fill="#92B6DA"/>
</g>
<g opacity="0.5">
<path d="M134.474 75.4266C134.474 75.4266 134.439 75.4438 134.439 75.4266L132.826 70.0249C132.826 70.0249 132.826 69.9732 132.843 69.9559L136.579 66.1506C136.579 66.1506 136.614 66.142 136.622 66.1592L137.736 70.9914C137.736 70.9914 137.736 71.0518 137.718 71.069L134.474 75.4352V75.4266Z" fill="#92B6DA"/>
</g>
<g opacity="0.5">
<path d="M139.617 83.6595C139.617 83.6595 139.617 83.694 139.599 83.694L133.973 83.4783C133.973 83.4783 133.922 83.461 133.913 83.4352L131.514 78.6634C131.514 78.6634 131.514 78.6289 131.54 78.6289L136.476 79.1294C136.476 79.1294 136.528 79.1466 136.545 79.1725L139.625 83.6509L139.617 83.6595Z" fill="#92B6DA"/>
</g>
<g opacity="0.5">
<path d="M147.875 92.2087C147.875 92.2087 147.849 92.2346 147.84 92.2174L144.121 87.9892C144.121 87.9892 144.095 87.9375 144.104 87.9202L145.907 82.8982C145.907 82.8982 145.933 82.8723 145.95 82.8982L148.979 86.8243C148.979 86.8243 149.005 86.8761 148.997 86.902L147.866 92.226L147.875 92.2087Z" fill="#92B6DA"/>
</g>
<g opacity="0.5">
<path d="M144.501 70.6375C144.501 70.6375 144.466 70.6548 144.466 70.6375L142.853 65.2359C142.853 65.2359 142.853 65.1841 142.87 65.1668L146.606 61.3615C146.606 61.3615 146.641 61.3529 146.65 61.3702L147.763 66.2023C147.763 66.2023 147.763 66.2627 147.745 66.28L144.501 70.6462V70.6375Z" fill="#92B6DA"/>
</g>
<g opacity="0.5">
<path d="M149.644 78.8666C149.644 78.8666 149.644 78.9011 149.626 78.9011L144 78.6853C144 78.6853 143.949 78.6681 143.94 78.6422L141.541 73.8705C141.541 73.8705 141.541 73.8359 141.567 73.8359L146.503 74.3364C146.503 74.3364 146.554 74.3537 146.572 74.3796L149.652 78.8579L149.644 78.8666Z" fill="#92B6DA"/>
</g>
<g opacity="0.5">
<path d="M157.911 87.4197C157.911 87.4197 157.885 87.4456 157.876 87.4283L154.157 83.2002C154.157 83.2002 154.131 83.1484 154.14 83.1312L155.943 78.1092C155.943 78.1092 155.969 78.0833 155.986 78.1092L159.015 82.0353C159.015 82.0353 159.041 82.0871 159.032 82.1129L157.902 87.4369L157.911 87.4197Z" fill="#92B6DA"/>
</g>
<g opacity="0.5">
<path d="M114.464 118.407C114.464 118.407 114.429 118.424 114.429 118.407L112.815 113.005C112.815 113.005 112.816 112.954 112.833 112.936L116.569 109.131C116.569 109.131 116.604 109.122 116.612 109.14L117.725 113.972C117.725 113.972 117.725 114.032 117.708 114.049L114.464 118.416V118.407Z" fill="#92B6DA"/>
</g>
<g opacity="0.5">
<path d="M119.606 126.636C119.606 126.636 119.606 126.671 119.589 126.671L113.963 126.455C113.963 126.455 113.911 126.438 113.903 126.412L111.504 121.64C111.504 121.64 111.504 121.605 111.53 121.605L116.465 122.106C116.465 122.106 116.517 122.123 116.534 122.149L119.615 126.627L119.606 126.636Z" fill="#92B6DA"/>
</g>
<g opacity="0.5">
<path d="M127.873 135.189C127.873 135.189 127.847 135.215 127.838 135.198L124.119 130.97C124.119 130.97 124.093 130.918 124.102 130.901L125.905 125.879C125.905 125.879 125.931 125.853 125.949 125.879L128.977 129.805C128.977 129.805 129.003 129.857 128.995 129.882L127.864 135.206L127.873 135.189Z" fill="#92B6DA"/>
</g>
<g opacity="0.5">
<path d="M124.499 113.618C124.499 113.618 124.464 113.635 124.464 113.618L122.851 108.216C122.851 108.216 122.851 108.165 122.868 108.147L126.604 104.342C126.604 104.342 126.639 104.333 126.648 104.351L127.761 109.183C127.761 109.183 127.761 109.243 127.743 109.26L124.499 113.627V113.618Z" fill="#92B6DA"/>
</g>
<g opacity="0.5">
<path d="M129.642 121.847C129.642 121.847 129.642 121.882 129.625 121.882L123.999 121.666C123.999 121.666 123.947 121.649 123.938 121.623L121.54 116.851C121.54 116.851 121.54 116.816 121.565 116.816L126.501 117.317C126.501 117.317 126.553 117.334 126.57 117.36L129.651 121.838L129.642 121.847Z" fill="#92B6DA"/>
</g>
<g opacity="0.5">
<path d="M137.9 130.4C137.9 130.4 137.874 130.426 137.865 130.409L134.146 126.181C134.146 126.181 134.121 126.129 134.129 126.112L135.933 121.09C135.933 121.09 135.958 121.064 135.976 121.09L139.005 125.016C139.005 125.016 139.03 125.068 139.022 125.093L137.891 130.417L137.9 130.4Z" fill="#92B6DA"/>
</g>
<g opacity="0.5">
<path d="M106.835 112.97C106.835 112.97 106.81 112.996 106.801 112.979L103.082 108.751C103.082 108.751 103.056 108.699 103.065 108.682L104.868 103.66C104.868 103.66 104.894 103.634 104.911 103.66L107.94 107.586C107.94 107.586 107.966 107.638 107.957 107.664L106.827 112.988L106.835 112.97Z" fill="#92B6DA"/>
</g>
<g opacity="0.5">
<path d="M103.453 91.3993C103.453 91.3993 103.418 91.4165 103.418 91.3993L101.805 85.9976C101.805 85.9976 101.805 85.9458 101.822 85.9286L105.558 82.1233C105.558 82.1233 105.593 82.1146 105.601 82.1319L106.715 86.964C106.715 86.964 106.715 87.0244 106.697 87.0417L103.453 91.4079V91.3993Z" fill="#92B6DA"/>
</g>
<g opacity="0.5">
<path d="M108.604 99.6361C108.604 99.6361 108.604 99.6706 108.587 99.6706L102.961 99.4549C102.961 99.4549 102.909 99.4376 102.901 99.4117L100.502 94.64C100.502 94.64 100.502 94.6055 100.528 94.6055L105.464 95.1059C105.464 95.1059 105.515 95.1232 105.533 95.1491L108.613 99.6274L108.604 99.6361Z" fill="#92B6DA"/>
</g>
<g opacity="0.5">
<path d="M116.862 108.189C116.862 108.189 116.836 108.215 116.828 108.198L113.109 103.97C113.109 103.97 113.083 103.918 113.091 103.901L114.895 98.8787C114.895 98.8787 114.921 98.8528 114.938 98.8787L117.967 102.805C117.967 102.805 117.993 102.857 117.984 102.882L116.854 108.206L116.862 108.189Z" fill="#92B6DA"/>
</g>
<g opacity="0.5">
<path d="M79.8265 30.8494C79.8265 30.8494 79.8006 30.8753 79.7919 30.858L76.0728 26.6299C76.0728 26.6299 76.047 26.5781 76.0556 26.5608L77.8591 21.5388C77.8591 21.5388 77.8849 21.513 77.9022 21.5388L80.931 25.465C80.931 25.465 80.9569 25.5167 80.9482 25.5426L79.8178 30.8666L79.8265 30.8494Z" fill="#92B6DA"/>
</g>
<g opacity="0.5">
<path d="M76.4442 9.27816C76.4442 9.27816 76.4096 9.29542 76.4096 9.27816L74.796 3.8765C74.796 3.8765 74.796 3.82472 74.8133 3.80747L78.5496 0.00215958C78.5496 0.00215958 78.5841 -0.006474 78.5928 0.0107837L79.7059 4.84294C79.7059 4.84294 79.7059 4.90334 79.6887 4.92059L76.4442 9.28678V9.27816Z" fill="#92B6DA"/>
</g>
<g opacity="0.5">
<path d="M81.5952 17.5072C81.5952 17.5072 81.5952 17.5417 81.5779 17.5417L75.9518 17.326C75.9518 17.326 75.9 17.3087 75.8914 17.2828L73.4926 12.5111C73.4926 12.5111 73.4926 12.4766 73.5184 12.4766L78.4542 12.977C78.4542 12.977 78.506 12.9943 78.5233 13.0202L81.6038 17.4986L81.5952 17.5072Z" fill="#92B6DA"/>
</g>
<g opacity="0.5">
<path d="M89.8532 26.0603C89.8532 26.0603 89.8273 26.0862 89.8187 26.0689L86.0996 21.8408C86.0996 21.8408 86.0737 21.789 86.0823 21.7718L87.8858 16.7498C87.8858 16.7498 87.9117 16.7239 87.9289 16.7498L90.9577 20.6759C90.9577 20.6759 90.9836 20.7277 90.975 20.7536L89.8446 26.0776L89.8532 26.0603Z" fill="#92B6DA"/>
</g>
<g opacity="0.5">
<path d="M106.257 25.325C106.257 25.325 106.223 25.3423 106.223 25.325L104.609 19.9234C104.609 19.9234 104.609 19.8716 104.626 19.8543L108.363 16.049C108.363 16.049 108.397 16.0404 108.406 16.0577L109.519 20.8898C109.519 20.8898 109.519 20.9502 109.502 20.9675L106.257 25.3337V25.325Z" fill="#92B6DA"/>
</g>
<g opacity="0.5">
<path d="M111.4 33.5658C111.4 33.5658 111.4 33.6003 111.383 33.6003L105.757 33.3846C105.757 33.3846 105.705 33.3673 105.696 33.3414L103.297 28.5697C103.297 28.5697 103.297 28.5352 103.323 28.5352L108.259 29.0356C108.259 29.0356 108.311 29.0529 108.328 29.0788L111.409 33.5571L111.4 33.5658Z" fill="#92B6DA"/>
</g>
<g opacity="0.5">
<path d="M119.658 42.1189C119.658 42.1189 119.632 42.1448 119.623 42.1275L115.904 37.8994C115.904 37.8994 115.878 37.8476 115.887 37.8304L117.69 32.8084C117.69 32.8084 117.716 32.7825 117.734 32.8084L120.762 36.7345C120.762 36.7345 120.788 36.7863 120.78 36.8122L119.649 42.1362L119.658 42.1189Z" fill="#92B6DA"/>
</g>
<g opacity="0.5">
<path d="M116.284 20.5477C116.284 20.5477 116.25 20.5649 116.25 20.5477L114.636 15.146C114.636 15.146 114.636 15.0943 114.654 15.077L118.39 11.2717C118.39 11.2717 118.424 11.2631 118.433 11.2803L119.546 16.1125C119.546 16.1125 119.546 16.1729 119.529 16.1901L116.284 20.5563V20.5477Z" fill="#92B6DA"/>
</g>
<g opacity="0.5">
<path d="M121.427 28.7767C121.427 28.7767 121.427 28.8112 121.41 28.8112L115.784 28.5955C115.784 28.5955 115.732 28.5782 115.723 28.5524L113.325 23.7806C113.325 23.7806 113.325 23.7461 113.35 23.7461L118.286 24.2466C118.286 24.2466 118.338 24.2638 118.355 24.2897L121.436 28.7681L121.427 28.7767Z" fill="#92B6DA"/>
</g>
<g opacity="0.5">
<path d="M129.694 37.3298C129.694 37.3298 129.668 37.3557 129.659 37.3385L125.94 33.1103C125.94 33.1103 125.914 33.0586 125.923 33.0413L127.727 28.0193C127.727 28.0193 127.752 27.9934 127.77 28.0193L130.798 31.9454C130.798 31.9454 130.824 31.9972 130.816 32.0231L129.685 37.3471L129.694 37.3298Z" fill="#92B6DA"/>
</g>
<g opacity="0.5">
<path d="M85.7288 35.7196C85.7288 35.7196 85.6942 35.7368 85.6942 35.7196L84.0806 30.3179C84.0806 30.3179 84.0806 30.2661 84.0979 30.2489L87.8343 26.4436C87.8343 26.4436 87.8688 26.4349 87.8774 26.4522L88.9905 31.2843C88.9905 31.2843 88.9905 31.3447 88.9733 31.362L85.7288 35.7282V35.7196Z" fill="#92B6DA"/>
</g>
<g opacity="0.5">
<path d="M99.1384 52.5017C99.1384 52.5017 99.1125 52.5276 99.1039 52.5103L95.3848 48.2822C95.3848 48.2822 95.3589 48.2304 95.3675 48.2132L97.171 43.1912C97.171 43.1912 97.1969 43.1653 97.2142 43.1912L100.243 47.1173C100.243 47.1173 100.269 47.1691 100.26 47.195L99.1298 52.519L99.1384 52.5017Z" fill="#92B6DA"/>
</g>
<g opacity="0.5">
<path d="M95.7643 30.9266C95.7643 30.9266 95.7298 30.9439 95.7298 30.9266L94.1161 25.5249C94.1161 25.5249 94.1161 25.4732 94.1334 25.4559L97.8698 21.6506C97.8698 21.6506 97.9043 21.642 97.9129 21.6592L99.0261 26.4914C99.0261 26.4914 99.026 26.5518 99.0088 26.569L95.7643 30.9352V30.9266Z" fill="#92B6DA"/>
</g>
<g opacity="0.5">
<path d="M100.907 39.1595C100.907 39.1595 100.907 39.194 100.89 39.194L95.2637 38.9783C95.2637 38.9783 95.2119 38.9611 95.2032 38.9352L92.8044 34.1634C92.8044 34.1634 92.8044 34.1289 92.8303 34.1289L97.7661 34.6294C97.7661 34.6294 97.8179 34.6466 97.8351 34.6725L100.916 39.1509L100.907 39.1595Z" fill="#92B6DA"/>
</g>
<g opacity="0.5">
<path d="M109.174 47.7087C109.174 47.7087 109.148 47.7346 109.139 47.7174L105.42 43.4892C105.42 43.4892 105.394 43.4375 105.403 43.4202L107.206 38.3982C107.206 38.3982 107.232 38.3723 107.25 38.3982L110.278 42.3243C110.278 42.3243 110.304 42.3761 110.296 42.402L109.165 47.726L109.174 47.7087Z" fill="#92B6DA"/>
</g>
<g opacity="0.5">
<path d="M91.5017 9.99154C91.5017 9.99154 91.5017 10.0261 91.4844 10.0261L85.8583 9.81034C85.8583 9.81034 85.8065 9.79308 85.7979 9.76719L83.399 4.99545C83.399 4.99545 83.399 4.96094 83.4249 4.96094L88.3607 5.4614C88.3607 5.4614 88.4125 5.47866 88.4298 5.50455L91.5103 9.98291L91.5017 9.99154Z" fill="#92B6DA"/>
</g>
<g opacity="0.5">
<path d="M99.7597 18.5564C99.7597 18.5564 99.7338 18.5823 99.7252 18.565L96.0061 14.3369C96.0061 14.3369 95.9802 14.2851 95.9888 14.2679L97.7923 9.24588C97.7923 9.24588 97.8182 9.21999 97.8354 9.24588L100.864 13.172C100.864 13.172 100.89 13.2238 100.881 13.2497L99.7511 18.5737L99.7597 18.5564Z" fill="#92B6DA"/>
</g>
<g opacity="0.5">
<path d="M101.529 5.21421C101.529 5.21421 101.529 5.24872 101.511 5.24872L95.8853 5.033C95.8853 5.033 95.8335 5.01575 95.8249 4.98986L93.426 0.218116C93.426 0.218116 93.426 0.183594 93.4519 0.183594L98.3877 0.684068C98.3877 0.684068 98.4395 0.701328 98.4568 0.727215L101.537 5.20558L101.529 5.21421Z" fill="#92B6DA"/>
</g>
<g opacity="0.5">
<path d="M109.795 13.7634C109.795 13.7634 109.769 13.7893 109.761 13.7721L106.042 9.54393C106.042 9.54393 106.016 9.49216 106.024 9.4749L107.828 4.45291C107.828 4.45291 107.854 4.42702 107.871 4.45291L110.9 8.37903C110.9 8.37903 110.926 8.4308 110.917 8.45669L109.787 13.7807L109.795 13.7634Z" fill="#92B6DA"/>
</g>
<g opacity="0.5">
<path d="M99.4922 86.5564C99.4922 86.5564 99.4664 86.5823 99.4577 86.565L95.7386 82.3369C95.7386 82.3369 95.7127 82.2851 95.7214 82.2679L97.5248 77.2459C97.5248 77.2459 97.5507 77.22 97.568 77.2459L100.597 81.172C100.597 81.172 100.623 81.2238 100.614 81.2497L99.4836 86.5737L99.4922 86.5564Z" fill="#92B6DA"/>
</g>
<g opacity="0.5">
<path d="M96.1184 64.9852C96.1184 64.9852 96.0838 65.0024 96.0838 64.9852L94.4702 59.5835C94.4702 59.5835 94.4702 59.5318 94.4875 59.5145L98.2238 55.7092C98.2238 55.7092 98.2583 55.7006 98.267 55.7178L99.3801 60.55C99.3801 60.55 99.3801 60.6104 99.3628 60.6276L96.1184 64.9938V64.9852Z" fill="#92B6DA"/>
</g>
<g opacity="0.5">
<path d="M101.261 73.2142C101.261 73.2142 101.261 73.2487 101.244 73.2487L95.618 73.033C95.618 73.033 95.5662 73.0157 95.5576 72.9899L93.1587 68.2181C93.1587 68.2181 93.1587 68.1836 93.1846 68.1836L98.1204 68.6841C98.1204 68.6841 98.1722 68.7013 98.1894 68.7272L101.27 73.2056L101.261 73.2142Z" fill="#92B6DA"/>
</g>
<g opacity="0.5">
<path d="M109.519 81.7673C109.519 81.7673 109.493 81.7932 109.485 81.776L105.765 77.5478C105.765 77.5478 105.74 77.4961 105.748 77.4788L107.552 72.4568C107.552 72.4568 107.578 72.4309 107.595 72.4568L110.624 76.3829C110.624 76.3829 110.65 76.4347 110.641 76.4606L109.51 81.7846L109.519 81.7673Z" fill="#92B6DA"/>
</g>
<g opacity="0.5">
<path d="M106.447 59.7391C106.447 59.7391 106.413 59.7564 106.413 59.7391L104.799 54.3374C104.799 54.3374 104.799 54.2857 104.816 54.2684L108.553 50.4631C108.553 50.4631 108.587 50.4545 108.596 50.4717L109.709 55.3039C109.709 55.3039 109.709 55.3643 109.692 55.3815L106.447 59.7477V59.7391Z" fill="#92B6DA"/>
</g>
<g opacity="0.5">
<path d="M111.59 67.9759C111.59 67.9759 111.59 68.0104 111.573 68.0104L105.947 67.7947C105.947 67.7947 105.895 67.7775 105.886 67.7516L103.487 62.9798C103.487 62.9798 103.487 62.9453 103.513 62.9453L108.449 63.4458C108.449 63.4458 108.501 63.463 108.518 63.4889L111.599 67.9673L111.59 67.9759Z" fill="#92B6DA"/>
</g>
<g opacity="0.5">
<path d="M119.848 76.533C119.848 76.533 119.822 76.5588 119.813 76.5416L116.094 72.3135C116.094 72.3135 116.068 72.2617 116.077 72.2444L117.881 67.2224C117.881 67.2224 117.906 67.1966 117.924 67.2224L120.952 71.1486C120.952 71.1486 120.978 71.2003 120.97 71.2262L119.839 76.5502L119.848 76.533Z" fill="#92B6DA"/>
</g>
<g opacity="0.5">
<path d="M116.474 54.9617C116.474 54.9617 116.44 54.979 116.44 54.9617L114.826 49.5601C114.826 49.5601 114.826 49.5083 114.843 49.4911L118.58 45.6857C118.58 45.6857 118.614 45.6771 118.623 45.6944L119.736 50.5265C119.736 50.5265 119.736 50.5869 119.719 50.6042L116.474 54.9704V54.9617Z" fill="#92B6DA"/>
</g>
<g opacity="0.5">
<path d="M121.617 63.1908C121.617 63.1908 121.617 63.2253 121.6 63.2253L115.973 63.0096C115.973 63.0096 115.922 62.9923 115.913 62.9664L113.514 58.1947C113.514 58.1947 113.514 58.1602 113.54 58.1602L118.476 58.6606C118.476 58.6606 118.528 58.6779 118.545 58.7038L121.625 63.1821L121.617 63.1908Z" fill="#92B6DA"/>
</g>
<g opacity="0.5">
<path d="M129.884 71.7439C129.884 71.7439 129.858 71.7698 129.849 71.7525L126.13 67.5244C126.13 67.5244 126.104 67.4726 126.113 67.4554L127.916 62.4334C127.916 62.4334 127.942 62.4075 127.959 62.4334L130.988 66.3595C130.988 66.3595 131.014 66.4113 131.005 66.4372L129.875 71.7612L129.884 71.7439Z" fill="#92B6DA"/>
</g>
<g opacity="0.5">
<path d="M126.691 49.575C126.691 49.575 126.656 49.5923 126.656 49.575L125.043 44.1734C125.043 44.1734 125.043 44.1216 125.06 44.1044L128.796 40.299C128.796 40.299 128.831 40.2904 128.839 40.3077L129.953 45.1398C129.953 45.1398 129.953 45.2002 129.935 45.2175L126.691 49.5837V49.575Z" fill="#92B6DA"/>
</g>
<g opacity="0.5">
<path d="M131.842 57.8041C131.842 57.8041 131.842 57.8386 131.825 57.8386L126.199 57.6229C126.199 57.6229 126.147 57.6056 126.139 57.5797L123.74 52.808C123.74 52.808 123.74 52.7734 123.766 52.7734L128.701 53.2739C128.701 53.2739 128.753 53.2912 128.77 53.3171L131.851 57.7954L131.842 57.8041Z" fill="#92B6DA"/>
</g>
<g opacity="0.5">
<path d="M140.1 66.3572C140.1 66.3572 140.074 66.3831 140.066 66.3658L136.346 62.1377C136.346 62.1377 136.321 62.0859 136.329 62.0686L138.133 57.0467C138.133 57.0467 138.159 57.0208 138.176 57.0467L141.205 60.9728C141.205 60.9728 141.231 61.0246 141.222 61.0504L140.091 66.3744L140.1 66.3572Z" fill="#92B6DA"/>
</g>
<g opacity="0.5">
<path d="M136.726 44.786C136.726 44.786 136.692 44.8032 136.692 44.786L135.078 39.3843C135.078 39.3843 135.078 39.3325 135.096 39.3153L138.832 35.51C138.832 35.51 138.866 35.5013 138.875 35.5186L139.988 40.3507C139.988 40.3507 139.988 40.4111 139.971 40.4284L136.726 44.7946V44.786Z" fill="#92B6DA"/>
</g>
<g opacity="0.5">
<path d="M141.869 53.0267C141.869 53.0267 141.869 53.0612 141.852 53.0612L136.226 52.8455C136.226 52.8455 136.174 52.8282 136.165 52.8023L133.767 48.0306C133.767 48.0306 133.767 47.9961 133.792 47.9961L138.728 48.4966C138.728 48.4966 138.78 48.5138 138.797 48.5397L141.878 53.0181L141.869 53.0267Z" fill="#92B6DA"/>
</g>
<g opacity="0.5">
<path d="M150.136 61.5759C150.136 61.5759 150.11 61.6018 150.102 61.5846L146.382 57.3564C146.382 57.3564 146.357 57.3047 146.365 57.2874L148.169 52.2654C148.169 52.2654 148.195 52.2395 148.212 52.2654L151.241 56.1915C151.241 56.1915 151.267 56.2433 151.258 56.2692L150.127 61.5932L150.136 61.5759Z" fill="#92B6DA"/>
</g>
</g>
<mask id="mask0_190_47092" style="mask-type:alpha" maskUnits="userSpaceOnUse" x="0" y="353" width="340" height="168">
<path d="M338.62 519.521H220.308L197.112 498.009L196.359 497.312L196.274 498.334L194.505 519.521H136.439L128.717 512.356L127.966 511.66L127.879 512.681L127.293 519.521H110.762L106.512 511.271L106.249 510.76L105.779 511.091L93.8301 519.521H78.2988L63.4385 490.777L62.6406 489.235L62.4961 490.966L60.1016 519.521H45.2568L17.0996 506.145L16.4473 505.834L16.3867 506.555L15.3076 519.521H0.5V360.609C16.0941 364.59 35.5419 367.953 57.7764 370.492V370.491C60.4824 370.823 63.2403 371.12 66.0498 371.399L79.8604 382.576L80.6748 383.235V372.747C84.0805 373.043 87.5514 373.309 91.0605 373.551L124.556 400.657L125.37 401.316V375.282C136.183 375.651 147.323 375.824 158.663 375.824H161.494L169.088 400.407L170.065 400.26V375.757C174.448 375.72 178.8 375.642 183.09 375.522L183.089 375.521C186.07 375.459 189.009 375.381 191.936 375.283L191.935 375.282C197.698 375.099 203.387 374.865 208.982 374.57L213.847 382.441L214.145 382.925L214.586 382.567L225.684 373.586C230.938 373.215 236.069 372.802 241.116 372.355L258.53 400.531L259.456 402.028V370.512C263.106 370.096 266.687 369.65 270.207 369.195L303.463 382.651L304.151 382.93V363.545C309.795 362.365 315.045 361.126 319.893 359.813L325.679 364.496L325.983 364.118L326.297 364.505L326.788 364.107L326.787 364.106L338.62 354.531V519.521Z" fill="#C59B6D" stroke="#C59B6D"/>
</mask>
<g mask="url(#mask0_190_47092)">
<path d="M83.391 20.3036L83.4514 27.4224C83.5118 34.7915 88.2405 40.7195 94.0046 40.6677L99.4582 40.6159C104.204 40.5728 108.372 44.6197 109.64 50.4614C113.256 67.1237 119.564 104.021 118.649 155.397C117.441 223.34 91.321 279.402 87.8004 285.537C87.6106 285.873 87.438 286.201 87.274 286.555L11.5372 403.933C10.7692 405.158 7.66279 413.459 7.26586 414.943C6.54965 417.653 6.54102 420.621 7.26586 423.382C15.1787 453.583 64.131 617.039 120.78 618.791C201.548 621.293 237.531 621.276 244.27 617.212C245.064 616.737 245.78 616.151 246.453 615.435C255.98 605.339 320.982 511.422 333.503 416.031C333.891 413.054 333.028 410.042 331.682 407.557C309.411 366.406 263.608 316.428 245.867 277.935C227.53 238.165 216.079 177.21 215.889 155.431C215.743 138.458 215.95 77.3144 216.804 51.1517C217.028 44.3263 221.257 38.847 226.598 38.4587C232.785 38.01 237.997 31.1587 238.169 23.2374L238.23 20.5021C238.394 12.9691 233.639 6.73047 227.746 6.73047L93.7889 6.85127C87.9989 6.85127 83.3392 12.8828 83.4082 20.2864L83.391 20.3036Z" fill="#C59B6D" stroke="#C59B6D" stroke-width="9" stroke-miterlimit="10"/>
</g>
<path d="M140.454 441.822C141.818 438.966 141.524 436.757 139.591 435.187C137.632 435.031 135.363 432.589 133.396 431.571C122.437 425.928 114.628 422.942 117.855 412.579L146.063 428.87C148.324 427.352 150.058 425.66 151.439 423.451L138.789 400.395C137.175 397.444 140.144 392.698 143.345 391.404L159.196 418.671L167.049 417.411V392.905C167.049 388.004 171.009 384.415 176.006 385.044L176.04 417.454L183.703 418.464L194.42 399.498C197.043 394.855 202.376 392.802 207.148 395.692L191.65 422.701C191.745 425.013 194.895 427.576 196.586 428.517C206.578 424.521 218.132 414.4 222.697 415.936C224.924 416.686 227.97 417.541 228.988 420.785L201.392 436.429C201.177 438.897 202.065 442.961 203.964 444.066L229.333 444.687C233.13 444.782 235.986 449.726 235.442 453.238L203.679 453.635C201.789 453.661 200.417 459.753 202.048 460.693L220.997 471.669C225.226 474.111 227.176 479.133 224.639 483.965L196.767 468.295C194.955 469.236 191.581 471.894 191.728 474.068L201.453 491.257C204.352 496.374 204.973 502.379 199.822 506.15L183.634 479.159C182.434 477.157 177.585 479.012 176.178 480.264L176.032 502.923C175.997 507.945 172.442 511.966 167.256 512.648L166.971 480.212C164.788 478.762 162.009 478.201 159.334 478.348L146.538 499.825C144.389 503.432 138.642 504.045 135.432 501.085L151.568 474.215C150.3 471.41 148.505 469.918 145.873 468.261L126.812 479.453C122.221 482.145 116.517 481.394 114.153 476.363L141.541 460.426L139.936 453.506L115.81 453.109C111.314 453.031 107.094 449.01 107.56 444.488L138.254 444.333C139.842 444.333 140.074 442.935 140.454 441.848V441.822Z" fill="#603813"/>
<rect x="94.2981" y="519.91" width="15.9762" height="0.101597" fill="#215523" stroke="#D0518E" stroke-width="0.101597"/>
<rect x="94.5308" y="519.799" width="15.6811" height="0.136765" fill="#215523" stroke="#D0518E" stroke-width="0.136765"/>
<line y1="-0.5" x2="0.357321" y2="-0.5" transform="matrix(0.898794 -0.438371 0.465074 0.885272 110.266 520.41)" stroke="#D0518E"/>
<line y1="-0.5" x2="0.349388" y2="-0.5" transform="matrix(-0.572058 -0.820213 0.8416 -0.540102 94.6585 519.992)" stroke="#D0518E"/>
</svg>
