<svg width="340" height="625" viewBox="0 0 340 625" fill="none" xmlns="http://www.w3.org/2000/svg">
<path d="M83.105 20.3076L83.1654 27.4264C83.2258 34.7955 87.9544 40.7235 93.7185 40.6718L99.172 40.62C103.918 40.5769 108.086 44.6238 109.354 50.4656C112.97 67.1279 119.277 104.025 118.363 155.401C117.155 223.345 91.0349 279.407 87.5143 285.542C87.3245 285.879 87.1519 286.207 86.988 286.56L11.2521 403.939C10.4841 405.164 7.37775 413.465 6.98082 414.95C6.26462 417.659 6.25599 420.627 6.98082 423.389C14.8935 453.59 63.8453 617.047 120.494 618.798C201.26 621.301 237.243 621.283 243.982 617.219C244.776 616.745 245.492 616.158 246.165 615.442C255.692 605.346 320.693 511.429 333.214 416.037C333.602 413.06 332.739 410.048 331.393 407.563C309.122 366.412 263.32 316.434 245.578 277.94C227.242 238.17 215.792 177.215 215.602 155.436C215.455 138.463 215.662 77.3186 216.516 51.1559C216.741 44.3304 220.969 38.8511 226.31 38.4628C232.497 38.0141 237.709 31.1627 237.882 23.2414L237.942 20.5061C238.106 12.9731 233.351 6.73438 227.458 6.73438L93.5028 6.85518C87.7128 6.85518 83.0532 12.8868 83.1222 20.2903L83.105 20.3076Z" fill="#DCD6CB" stroke="#DCD6CB" stroke-width="9" stroke-miterlimit="10"/>
<path d="M116.033 63.0547C124.058 90.6153 127.389 119.401 128.027 148.049C129.554 219.833 108.88 292.963 64.4839 349.982C55.6479 361.303 46.0871 372.029 35.7583 381.944C45.3968 371.365 54.483 360.311 62.784 348.722C71.016 337.134 78.618 324.993 85.2623 312.421C125.3 237.168 133.593 145.866 116.033 63.0547Z" fill="#E2E3E2"/>
<path d="M303.384 378.467C225.128 308.797 193.495 204.586 208.241 102.11C210.364 87.8118 213.143 73.5569 217.552 59.7852C216.637 63.2799 215.878 66.8004 215.17 70.3383C210.269 95.0341 208.103 120.282 208.198 145.427C208.543 234.365 240.496 315.235 303.375 378.467H303.384Z" fill="#E2E3E2"/>
<path d="M89.3008 595.586C135.44 605.406 184.296 611.377 230.841 601.29C237.468 599.771 243.991 597.821 250.471 595.586C244.362 598.692 237.951 601.221 231.393 603.335C187.178 616.701 132.488 610.695 89.3008 595.586Z" fill="#E2E3E2"/>
<path d="M22.1763 403.496C20.3815 412.367 18.8973 421.159 21.184 430.004C21.4342 431.359 21.9261 432.567 22.1763 433.947C21.6327 433.507 21.1322 433.024 20.6317 432.524C13.1505 424.663 14.5656 410.779 22.1763 403.496Z" fill="#E2E3E2"/>
<path d="M315.723 431.666C317.06 426.748 318.156 421.683 317.871 416.566C317.707 411.371 316.724 406.461 315.723 401.215C323.877 408.946 324.826 424.288 315.723 431.666Z" fill="#E2E3E2"/>
<path d="M94.4692 346.057C94.4692 346.057 147.33 284.404 216.016 344.677C284.702 404.95 94.4692 346.057 94.4692 346.057Z" fill="#609437"/>
<path d="M37.8984 435.723C44.1975 465.579 59.6346 530.106 81.8108 565.407C86.7983 573.354 94.573 583.89 103.383 585.624C140.41 592.915 202.909 589.662 232.282 587.54C243.076 586.763 252.853 575.39 258.47 565.51C270.585 544.223 290.656 500.906 301.209 433.695C302.547 425.179 301.002 416.42 296.765 409.068C279.568 379.212 255.614 349.529 235.233 330.563C229.874 325.575 223.195 322.383 216.094 321.856C207.249 321.2 197.654 323.289 188.205 325.782C172.449 329.95 156.313 332.254 140.082 332.539C120.52 332.884 101.813 339.761 86.4014 351.816C78.644 357.882 71.7236 365.26 65.9509 373.776L43.4295 406.98C37.8034 415.273 35.7929 425.731 37.8984 435.714V435.723Z" fill="#215523"/>
<g opacity="0.5">
<g opacity="0.5">
<path d="M152.507 214.324C152.507 214.324 152.541 214.324 152.533 214.35L150.738 219.691C150.738 219.691 150.703 219.735 150.677 219.743L145.422 220.701C145.422 220.701 145.388 220.692 145.397 220.666L147.278 216.076C147.278 216.076 147.312 216.033 147.338 216.024L152.507 214.333V214.324Z" fill="#92B6DA"/>
</g>
<g opacity="0.5">
<path d="M153.051 204.628C153.051 204.628 153.068 204.593 153.085 204.61L157.555 208.036C157.555 208.036 157.59 208.079 157.581 208.105L156.787 213.386C156.787 213.386 156.77 213.412 156.744 213.403L153.008 210.141C153.008 210.141 152.973 210.09 152.973 210.072L153.042 204.636L153.051 204.628Z" fill="#92B6DA"/>
</g>
<g opacity="0.5">
<path d="M151.238 192.872C151.238 192.872 151.273 192.864 151.273 192.89L151.868 198.49C151.868 198.49 151.86 198.542 151.834 198.559L147.459 201.622C147.459 201.622 147.425 201.622 147.425 201.605L147.217 196.652C147.217 196.652 147.226 196.592 147.243 196.583L151.23 192.89L151.238 192.872Z" fill="#92B6DA"/>
</g>
<g opacity="0.5">
<path d="M141.549 212.441C141.549 212.441 141.583 212.441 141.574 212.467L139.78 217.809C139.78 217.809 139.745 217.852 139.719 217.86L134.464 218.818C134.464 218.818 134.43 218.81 134.438 218.784L136.319 214.193C136.319 214.193 136.354 214.15 136.38 214.141L141.549 212.45V212.441Z" fill="#92B6DA"/>
</g>
<g opacity="0.5">
<path d="M142.101 202.745C142.101 202.745 142.118 202.71 142.135 202.727L146.605 206.153C146.605 206.153 146.64 206.196 146.631 206.222L145.837 211.503C145.837 211.503 145.82 211.529 145.794 211.52L142.058 208.259C142.058 208.259 142.023 208.207 142.023 208.19L142.092 202.753L142.101 202.745Z" fill="#92B6DA"/>
</g>
<g opacity="0.5">
<path d="M140.288 190.99C140.288 190.99 140.323 190.981 140.323 191.007L140.918 196.607C140.918 196.607 140.91 196.659 140.884 196.676L136.509 199.739C136.509 199.739 136.475 199.739 136.475 199.722L136.267 194.769C136.267 194.769 136.276 194.709 136.293 194.7L140.28 191.007L140.288 190.99Z" fill="#92B6DA"/>
</g>
<g opacity="0.5">
<path d="M126.465 182.133C126.465 182.133 126.499 182.133 126.491 182.159L124.696 187.5C124.696 187.5 124.661 187.543 124.636 187.552L119.381 188.51C119.381 188.51 119.346 188.501 119.355 188.475L121.236 183.884C121.236 183.884 121.27 183.841 121.296 183.833L126.465 182.141V182.133Z" fill="#92B6DA"/>
</g>
<g opacity="0.5">
<path d="M127.017 172.444C127.017 172.444 127.035 172.409 127.052 172.427L131.522 175.852C131.522 175.852 131.556 175.896 131.548 175.921L130.754 181.202C130.754 181.202 130.736 181.228 130.711 181.22L126.974 177.958C126.974 177.958 126.94 177.906 126.94 177.889L127.009 172.453L127.017 172.444Z" fill="#92B6DA"/>
</g>
<g opacity="0.5">
<path d="M125.205 160.689C125.205 160.689 125.24 160.68 125.24 160.706L125.835 166.306C125.835 166.306 125.826 166.358 125.801 166.375L121.426 169.439C121.426 169.439 121.391 169.439 121.391 169.421L121.184 164.468C121.184 164.468 121.193 164.408 121.21 164.399L125.197 160.706L125.205 160.689Z" fill="#92B6DA"/>
</g>
<g opacity="0.5">
<path d="M115.515 180.254C115.515 180.254 115.549 180.254 115.541 180.28L113.746 185.621C113.746 185.621 113.711 185.664 113.686 185.673L108.431 186.631C108.431 186.631 108.396 186.622 108.405 186.596L110.286 182.006C110.286 182.006 110.32 181.962 110.346 181.954L115.515 180.263V180.254Z" fill="#92B6DA"/>
</g>
<g opacity="0.5">
<path d="M116.067 170.565C116.067 170.565 116.084 170.531 116.102 170.548L120.571 173.973C120.571 173.973 120.606 174.017 120.597 174.043L119.803 179.323C119.803 179.323 119.786 179.349 119.76 179.341L116.024 176.079C116.024 176.079 115.99 176.027 115.99 176.01L116.059 170.574L116.067 170.565Z" fill="#92B6DA"/>
</g>
<g opacity="0.5">
<path d="M114.255 158.81C114.255 158.81 114.29 158.801 114.29 158.827L114.885 164.427C114.885 164.427 114.876 164.479 114.851 164.496L110.476 167.56C110.476 167.56 110.441 167.56 110.441 167.542L110.234 162.589C110.234 162.589 110.243 162.529 110.26 162.52L114.247 158.827L114.255 158.81Z" fill="#92B6DA"/>
</g>
<g opacity="0.5">
<path d="M149.219 185.496C149.219 185.496 149.254 185.496 149.245 185.522L147.45 190.863C147.45 190.863 147.416 190.906 147.39 190.915L142.135 191.873C142.135 191.873 142.1 191.864 142.109 191.838L143.99 187.248C143.99 187.248 144.025 187.205 144.051 187.196L149.219 185.505V185.496Z" fill="#92B6DA"/>
</g>
<g opacity="0.5">
<path d="M149.772 175.799C149.772 175.799 149.789 175.765 149.806 175.782L154.276 179.208C154.276 179.208 154.311 179.251 154.302 179.277L153.508 184.558C153.508 184.558 153.491 184.584 153.465 184.575L149.729 181.313C149.729 181.313 149.694 181.262 149.694 181.244L149.763 175.808L149.772 175.799Z" fill="#92B6DA"/>
</g>
<g opacity="0.5">
<path d="M147.96 164.044C147.96 164.044 147.994 164.036 147.994 164.062L148.589 169.662C148.589 169.662 148.581 169.714 148.555 169.731L144.18 172.794C144.18 172.794 144.146 172.794 144.146 172.777L143.938 167.824C143.938 167.824 143.947 167.763 143.964 167.755L147.951 164.062L147.96 164.044Z" fill="#92B6DA"/>
</g>
<g opacity="0.5">
<path d="M138.27 183.617C138.27 183.617 138.304 183.617 138.295 183.643L136.501 188.984C136.501 188.984 136.466 189.027 136.44 189.036L131.185 189.994C131.185 189.994 131.151 189.985 131.159 189.959L133.04 185.369C133.04 185.369 133.075 185.326 133.101 185.317L138.27 183.626V183.617Z" fill="#92B6DA"/>
</g>
<g opacity="0.5">
<path d="M138.813 173.924C138.813 173.924 138.831 173.89 138.848 173.907L143.318 177.333C143.318 177.333 143.352 177.376 143.343 177.402L142.55 182.683C142.55 182.683 142.532 182.709 142.506 182.7L138.77 179.438C138.77 179.438 138.736 179.387 138.736 179.369L138.805 173.933L138.813 173.924Z" fill="#92B6DA"/>
</g>
<g opacity="0.5">
<path d="M137.001 162.162C137.001 162.162 137.036 162.153 137.036 162.179L137.631 167.779C137.631 167.779 137.622 167.831 137.596 167.848L133.222 170.911C133.222 170.911 133.187 170.911 133.187 170.894L132.98 165.941C132.98 165.941 132.989 165.881 133.006 165.872L136.992 162.179L137.001 162.162Z" fill="#92B6DA"/>
</g>
<g opacity="0.5">
<path d="M129.123 212.855C129.123 212.855 129.157 212.855 129.149 212.881L127.354 218.223C127.354 218.223 127.32 218.266 127.294 218.274L122.039 219.232C122.039 219.232 122.004 219.224 122.013 219.198L123.894 214.607C123.894 214.607 123.928 214.564 123.954 214.555L129.123 212.864V212.855Z" fill="#92B6DA"/>
</g>
<g opacity="0.5">
<path d="M129.675 203.171C129.675 203.171 129.692 203.136 129.709 203.153L134.179 206.579C134.179 206.579 134.214 206.622 134.205 206.648L133.411 211.929C133.411 211.929 133.394 211.955 133.368 211.946L129.632 208.684C129.632 208.684 129.597 208.633 129.597 208.615L129.666 203.179L129.675 203.171Z" fill="#92B6DA"/>
</g>
<g opacity="0.5">
<path d="M127.863 191.415C127.863 191.415 127.897 191.407 127.897 191.433L128.493 197.033C128.493 197.033 128.484 197.085 128.458 197.102L124.083 200.165C124.083 200.165 124.049 200.165 124.049 200.148L123.842 195.195C123.842 195.195 123.85 195.135 123.868 195.126L127.854 191.433L127.863 191.415Z" fill="#92B6DA"/>
</g>
<g opacity="0.5">
<path d="M118.173 210.984C118.173 210.984 118.207 210.984 118.198 211.01L116.404 216.352C116.404 216.352 116.369 216.395 116.343 216.403L111.088 217.361C111.088 217.361 111.054 217.352 111.062 217.327L112.943 212.736C112.943 212.736 112.978 212.693 113.004 212.684L118.173 210.993V210.984Z" fill="#92B6DA"/>
</g>
<g opacity="0.5">
<path d="M118.716 201.288C118.716 201.288 118.733 201.253 118.751 201.27L123.22 204.696C123.22 204.696 123.255 204.739 123.246 204.765L122.453 210.046C122.453 210.046 122.435 210.072 122.409 210.063L118.673 206.802C118.673 206.802 118.639 206.75 118.639 206.733L118.708 201.296L118.716 201.288Z" fill="#92B6DA"/>
</g>
<g opacity="0.5">
<path d="M116.904 189.533C116.904 189.533 116.939 189.524 116.939 189.55L117.534 195.15C117.534 195.15 117.525 195.202 117.499 195.219L113.125 198.282C113.125 198.282 113.09 198.282 113.09 198.265L112.883 193.312C112.883 193.312 112.892 193.252 112.909 193.243L116.895 189.55L116.904 189.533Z" fill="#92B6DA"/>
</g>
<g opacity="0.5">
<path d="M170.265 189.297C170.265 189.297 170.3 189.297 170.291 189.323L168.496 194.664C168.496 194.664 168.462 194.707 168.436 194.716L163.181 195.674C163.181 195.674 163.146 195.665 163.155 195.639L165.036 191.049C165.036 191.049 165.07 191.005 165.096 190.997L170.265 189.305V189.297Z" fill="#92B6DA"/>
</g>
<g opacity="0.5">
<path d="M170.809 179.608C170.809 179.608 170.826 179.574 170.843 179.591L175.313 183.016C175.313 183.016 175.348 183.06 175.339 183.085L174.545 188.366C174.545 188.366 174.528 188.392 174.502 188.384L170.766 185.122C170.766 185.122 170.731 185.07 170.731 185.053L170.8 179.617L170.809 179.608Z" fill="#92B6DA"/>
</g>
<g opacity="0.5">
<path d="M168.996 167.849C168.996 167.849 169.031 167.84 169.031 167.866L169.626 173.466C169.626 173.466 169.618 173.518 169.592 173.535L165.217 176.599C165.217 176.599 165.182 176.599 165.182 176.581L164.975 171.628C164.975 171.628 164.984 171.568 165.001 171.559L168.988 167.866L168.996 167.849Z" fill="#92B6DA"/>
</g>
<g opacity="0.5">
<path d="M159.306 187.422C159.306 187.422 159.341 187.422 159.332 187.448L157.537 192.789C157.537 192.789 157.503 192.832 157.477 192.841L152.222 193.799C152.222 193.799 152.188 193.79 152.196 193.764L154.077 189.174C154.077 189.174 154.112 189.13 154.138 189.122L159.306 187.431V187.422Z" fill="#92B6DA"/>
</g>
<g opacity="0.5">
<path d="M159.859 177.729C159.859 177.729 159.876 177.695 159.893 177.712L164.363 181.138C164.363 181.138 164.397 181.181 164.389 181.207L163.595 186.487C163.595 186.487 163.578 186.513 163.552 186.505L159.815 183.243C159.815 183.243 159.781 183.191 159.781 183.174L159.85 177.738L159.859 177.729Z" fill="#92B6DA"/>
</g>
<g opacity="0.5">
<path d="M158.047 165.974C158.047 165.974 158.081 165.965 158.081 165.991L158.677 171.591C158.677 171.591 158.668 171.643 158.642 171.66L154.267 174.724C154.267 174.724 154.233 174.724 154.233 174.706L154.026 169.753C154.026 169.753 154.034 169.693 154.051 169.684L158.038 165.991L158.047 165.974Z" fill="#92B6DA"/>
</g>
<g opacity="0.5">
<path d="M173.362 198.138C173.362 198.138 173.397 198.129 173.397 198.155L173.992 203.756C173.992 203.756 173.984 203.807 173.958 203.825L169.583 206.888C169.583 206.888 169.548 206.888 169.548 206.871L169.341 201.918C169.341 201.918 169.35 201.857 169.367 201.849L173.354 198.155L173.362 198.138Z" fill="#92B6DA"/>
</g>
<g opacity="0.5">
<path d="M163.672 217.711C163.672 217.711 163.707 217.711 163.698 217.737L161.903 223.078C161.903 223.078 161.869 223.121 161.843 223.13L156.588 224.088C156.588 224.088 156.553 224.079 156.562 224.053L158.443 219.463C158.443 219.463 158.477 219.419 158.503 219.411L163.672 217.72V217.711Z" fill="#92B6DA"/>
</g>
<g opacity="0.5">
<path d="M164.225 208.01C164.225 208.01 164.242 207.976 164.259 207.993L168.729 211.419C168.729 211.419 168.763 211.462 168.755 211.488L167.961 216.769C167.961 216.769 167.944 216.795 167.918 216.786L164.182 213.524C164.182 213.524 164.147 213.472 164.147 213.455L164.216 208.019L164.225 208.01Z" fill="#92B6DA"/>
</g>
<g opacity="0.5">
<path d="M162.413 196.259C162.413 196.259 162.447 196.251 162.447 196.276L163.043 201.877C163.043 201.877 163.034 201.928 163.008 201.946L158.633 205.009C158.633 205.009 158.599 205.009 158.599 204.992L158.392 200.039C158.392 200.039 158.4 199.978 158.417 199.97L162.404 196.276L162.413 196.259Z" fill="#92B6DA"/>
</g>
<g opacity="0.5">
<path d="M168.583 157.469C168.583 157.469 168.617 157.469 168.609 157.495L166.814 162.836C166.814 162.836 166.779 162.879 166.753 162.888L161.498 163.846C161.498 163.846 161.464 163.837 161.472 163.811L163.354 159.22C163.354 159.22 163.388 159.177 163.414 159.169L168.583 157.477V157.469Z" fill="#92B6DA"/>
</g>
<g opacity="0.5">
<path d="M157.633 155.594C157.633 155.594 157.667 155.594 157.659 155.62L155.864 160.961C155.864 160.961 155.829 161.004 155.804 161.013L150.549 161.97C150.549 161.97 150.514 161.962 150.523 161.936L152.404 157.345C152.404 157.345 152.438 157.302 152.464 157.294L157.633 155.602V155.594Z" fill="#92B6DA"/>
</g>
<g opacity="0.5">
<path d="M158.185 145.901C158.185 145.901 158.202 145.866 158.219 145.884L162.689 149.309C162.689 149.309 162.723 149.353 162.715 149.378L161.921 154.659C161.921 154.659 161.904 154.685 161.878 154.677L158.141 151.415C158.141 151.415 158.107 151.363 158.107 151.346L158.176 145.91L158.185 145.901Z" fill="#92B6DA"/>
</g>
<g opacity="0.5">
<path d="M156.364 134.146C156.364 134.146 156.399 134.137 156.399 134.163L156.994 139.763C156.994 139.763 156.985 139.815 156.959 139.832L152.585 142.896C152.585 142.896 152.55 142.896 152.55 142.878L152.343 137.925C152.343 137.925 152.352 137.865 152.369 137.856L156.355 134.163L156.364 134.146Z" fill="#92B6DA"/>
</g>
<g opacity="0.5">
<path d="M146.173 153.914C146.173 153.914 146.208 153.914 146.199 153.94L144.405 159.281C144.405 159.281 144.37 159.324 144.344 159.333L139.089 160.291C139.089 160.291 139.055 160.282 139.063 160.256L140.944 155.666C140.944 155.666 140.979 155.623 141.005 155.614L146.173 153.923V153.914Z" fill="#92B6DA"/>
</g>
<g opacity="0.5">
<path d="M146.717 144.221C146.717 144.221 146.734 144.187 146.751 144.204L151.221 147.63C151.221 147.63 151.256 147.673 151.247 147.699L150.453 152.98C150.453 152.98 150.436 153.006 150.41 152.997L146.674 149.735C146.674 149.735 146.639 149.683 146.639 149.666L146.708 144.23L146.717 144.221Z" fill="#92B6DA"/>
</g>
<g opacity="0.5">
<path d="M144.905 132.466C144.905 132.466 144.94 132.458 144.94 132.483L145.535 138.084C145.535 138.084 145.526 138.135 145.5 138.153L141.126 141.216C141.126 141.216 141.091 141.216 141.091 141.199L140.884 136.246C140.884 136.246 140.893 136.185 140.91 136.177L144.896 132.483L144.905 132.466Z" fill="#92B6DA"/>
</g>
<g opacity="0.5">
<path d="M135.215 152.043C135.215 152.043 135.249 152.043 135.241 152.069L133.446 157.41C133.446 157.41 133.411 157.453 133.385 157.462L128.13 158.42C128.13 158.42 128.096 158.411 128.105 158.385L129.986 153.795C129.986 153.795 130.02 153.751 130.046 153.743L135.215 152.052V152.043Z" fill="#92B6DA"/>
</g>
<g opacity="0.5">
<path d="M135.767 142.342C135.767 142.342 135.784 142.308 135.801 142.325L140.271 145.751C140.271 145.751 140.306 145.794 140.297 145.82L139.503 151.101C139.503 151.101 139.486 151.127 139.46 151.118L135.724 147.856C135.724 147.856 135.689 147.804 135.689 147.787L135.758 142.351L135.767 142.342Z" fill="#92B6DA"/>
</g>
<g opacity="0.5">
<path d="M133.955 130.591C133.955 130.591 133.989 130.583 133.989 130.608L134.584 136.209C134.584 136.209 134.576 136.26 134.55 136.278L130.175 139.341C130.175 139.341 130.141 139.341 130.141 139.324L129.933 134.371C129.933 134.371 129.942 134.31 129.959 134.302L133.946 130.608L133.955 130.591Z" fill="#92B6DA"/>
</g>
<g opacity="0.5">
<path d="M123.764 150.543C123.764 150.543 123.798 150.543 123.79 150.569L121.995 155.91C121.995 155.91 121.96 155.953 121.935 155.962L116.68 156.92C116.68 156.92 116.645 156.911 116.654 156.885L118.535 152.295C118.535 152.295 118.569 152.251 118.595 152.243L123.764 150.552V150.543Z" fill="#92B6DA"/>
</g>
<g opacity="0.5">
<path d="M124.316 140.842C124.316 140.842 124.333 140.808 124.351 140.825L128.82 144.251C128.82 144.251 128.855 144.294 128.846 144.32L128.052 149.601C128.052 149.601 128.035 149.627 128.009 149.618L124.273 146.356C124.273 146.356 124.239 146.304 124.239 146.287L124.308 140.851L124.316 140.842Z" fill="#92B6DA"/>
</g>
<g opacity="0.5">
<path d="M122.495 129.091C122.495 129.091 122.53 129.083 122.53 129.108L123.125 134.709C123.125 134.709 123.116 134.76 123.091 134.778L118.716 137.841C118.716 137.841 118.681 137.841 118.681 137.824L118.474 132.871C118.474 132.871 118.483 132.81 118.5 132.802L122.487 129.108L122.495 129.091Z" fill="#92B6DA"/>
</g>
<g opacity="0.5">
<path d="M112.814 148.66C112.814 148.66 112.848 148.66 112.84 148.686L111.045 154.027C111.045 154.027 111.01 154.07 110.984 154.079L105.729 155.037C105.729 155.037 105.695 155.028 105.704 155.002L107.585 150.412C107.585 150.412 107.619 150.369 107.645 150.36L112.814 148.669V148.66Z" fill="#92B6DA"/>
</g>
<g opacity="0.5">
<path d="M113.357 138.964C113.357 138.964 113.375 138.929 113.392 138.946L117.862 142.372C117.862 142.372 117.896 142.415 117.887 142.441L117.094 147.722C117.094 147.722 117.076 147.748 117.05 147.739L113.314 144.477C113.314 144.477 113.28 144.426 113.28 144.408L113.349 138.972L113.357 138.964Z" fill="#92B6DA"/>
</g>
<g opacity="0.5">
<path d="M149.297 302.242C149.297 302.242 149.332 302.242 149.323 302.268L147.528 307.609C147.528 307.609 147.494 307.652 147.468 307.661L142.213 308.619C142.213 308.619 142.178 308.61 142.187 308.584L144.068 303.994C144.068 303.994 144.103 303.951 144.129 303.942L149.297 302.251V302.242Z" fill="#92B6DA"/>
</g>
<g opacity="0.5">
<path d="M149.85 292.553C149.85 292.553 149.867 292.519 149.884 292.536L154.354 295.962C154.354 295.962 154.389 296.005 154.38 296.031L153.586 301.312C153.586 301.312 153.569 301.338 153.543 301.329L149.807 298.067C149.807 298.067 149.772 298.015 149.772 297.998L149.841 292.562L149.85 292.553Z" fill="#92B6DA"/>
</g>
<g opacity="0.5">
<path d="M148.038 280.794C148.038 280.794 148.072 280.786 148.072 280.812L148.667 286.412C148.667 286.412 148.659 286.464 148.633 286.481L144.258 289.544C144.258 289.544 144.224 289.544 144.224 289.527L144.016 284.574C144.016 284.574 144.025 284.513 144.042 284.505L148.029 280.812L148.038 280.794Z" fill="#92B6DA"/>
</g>
<g opacity="0.5">
<path d="M138.347 300.367C138.347 300.367 138.382 300.367 138.373 300.393L136.578 305.734C136.578 305.734 136.544 305.777 136.518 305.786L131.263 306.744C131.263 306.744 131.228 306.735 131.237 306.709L133.118 302.119C133.118 302.119 133.153 302.076 133.179 302.067L138.347 300.376V300.367Z" fill="#92B6DA"/>
</g>
<g opacity="0.5">
<path d="M138.9 290.674C138.9 290.674 138.917 290.64 138.934 290.657L143.404 294.083C143.404 294.083 143.438 294.126 143.43 294.152L142.636 299.433C142.636 299.433 142.619 299.459 142.593 299.45L138.856 296.188C138.856 296.188 138.822 296.137 138.822 296.119L138.891 290.683L138.9 290.674Z" fill="#92B6DA"/>
</g>
<g opacity="0.5">
<path d="M137.079 278.919C137.079 278.919 137.113 278.911 137.113 278.937L137.709 284.537C137.709 284.537 137.7 284.589 137.674 284.606L133.299 287.669C133.299 287.669 133.265 287.669 133.265 287.652L133.058 282.699C133.058 282.699 133.066 282.638 133.084 282.63L137.07 278.937L137.079 278.919Z" fill="#92B6DA"/>
</g>
<g opacity="0.5">
<path d="M123.264 270.055C123.264 270.055 123.298 270.055 123.29 270.081L121.495 275.422C121.495 275.422 121.46 275.465 121.434 275.474L116.179 276.431C116.179 276.431 116.145 276.423 116.153 276.397L118.035 271.806C118.035 271.806 118.069 271.763 118.095 271.755L123.264 270.063V270.055Z" fill="#92B6DA"/>
</g>
<g opacity="0.5">
<path d="M123.816 260.362C123.816 260.362 123.833 260.327 123.851 260.345L128.32 263.77C128.32 263.77 128.355 263.814 128.346 263.839L127.553 269.12C127.553 269.12 127.535 269.146 127.509 269.138L123.773 265.876C123.773 265.876 123.739 265.824 123.739 265.807L123.808 260.371L123.816 260.362Z" fill="#92B6DA"/>
</g>
<g opacity="0.5">
<path d="M122.004 248.607C122.004 248.607 122.038 248.598 122.038 248.624L122.634 254.224C122.634 254.224 122.625 254.276 122.599 254.293L118.224 257.357C118.224 257.357 118.19 257.357 118.19 257.339L117.983 252.386C117.983 252.386 117.991 252.326 118.009 252.317L121.995 248.624L122.004 248.607Z" fill="#92B6DA"/>
</g>
<g opacity="0.5">
<path d="M112.314 268.176C112.314 268.176 112.348 268.176 112.34 268.202L110.545 273.543C110.545 273.543 110.51 273.586 110.484 273.595L105.229 274.553C105.229 274.553 105.195 274.544 105.204 274.518L107.085 269.927C107.085 269.927 107.119 269.884 107.145 269.876L112.314 268.184V268.176Z" fill="#92B6DA"/>
</g>
<g opacity="0.5">
<path d="M112.865 258.475C112.865 258.475 112.883 258.441 112.9 258.458L117.37 261.884C117.37 261.884 117.404 261.927 117.396 261.953L116.602 267.234C116.602 267.234 116.585 267.259 116.559 267.251L112.822 263.989C112.822 263.989 112.788 263.937 112.788 263.92L112.857 258.484L112.865 258.475Z" fill="#92B6DA"/>
</g>
<g opacity="0.5">
<path d="M111.045 246.724C111.045 246.724 111.08 246.715 111.08 246.741L111.675 252.341C111.675 252.341 111.666 252.393 111.64 252.41L107.266 255.474C107.266 255.474 107.231 255.474 107.231 255.456L107.024 250.503C107.024 250.503 107.033 250.443 107.05 250.434L111.036 246.741L111.045 246.724Z" fill="#92B6DA"/>
</g>
<g opacity="0.5">
<path d="M146.018 273.418C146.018 273.418 146.053 273.418 146.044 273.444L144.249 278.785C144.249 278.785 144.215 278.828 144.189 278.837L138.934 279.795C138.934 279.795 138.899 279.786 138.908 279.76L140.789 275.17C140.789 275.17 140.823 275.126 140.849 275.118L146.018 273.427V273.418Z" fill="#92B6DA"/>
</g>
<g opacity="0.5">
<path d="M144.75 251.974C144.75 251.974 144.784 251.965 144.784 251.991L145.38 257.591C145.38 257.591 145.371 257.643 145.345 257.66L140.97 260.724C140.97 260.724 140.936 260.724 140.936 260.706L140.729 255.753C140.729 255.753 140.737 255.693 140.754 255.684L144.741 251.991L144.75 251.974Z" fill="#92B6DA"/>
</g>
<g opacity="0.5">
<path d="M135.068 271.535C135.068 271.535 135.103 271.535 135.094 271.561L133.299 276.902C133.299 276.902 133.265 276.945 133.239 276.954L127.984 277.912C127.984 277.912 127.949 277.903 127.958 277.877L129.839 273.287C129.839 273.287 129.874 273.244 129.899 273.235L135.068 271.544V271.535Z" fill="#92B6DA"/>
</g>
<g opacity="0.5">
<path d="M135.612 261.846C135.612 261.846 135.629 261.812 135.646 261.829L140.116 265.255C140.116 265.255 140.151 265.298 140.142 265.324L139.348 270.605C139.348 270.605 139.331 270.631 139.305 270.622L135.569 267.36C135.569 267.36 135.534 267.308 135.534 267.291L135.603 261.855L135.612 261.846Z" fill="#92B6DA"/>
</g>
<g opacity="0.5">
<path d="M133.8 250.095C133.8 250.095 133.834 250.087 133.834 250.112L134.43 255.713C134.43 255.713 134.421 255.764 134.395 255.782L130.02 258.845C130.02 258.845 129.986 258.845 129.986 258.828L129.779 253.875C129.779 253.875 129.787 253.814 129.804 253.806L133.791 250.112L133.8 250.095Z" fill="#92B6DA"/>
</g>
<g opacity="0.5">
<path d="M126.474 291.085C126.474 291.085 126.491 291.05 126.508 291.067L130.978 294.493C130.978 294.493 131.013 294.536 131.004 294.562L130.21 299.843C130.21 299.843 130.193 299.869 130.167 299.86L126.431 296.598C126.431 296.598 126.396 296.547 126.396 296.529L126.465 291.093L126.474 291.085Z" fill="#92B6DA"/>
</g>
<g opacity="0.5">
<path d="M124.653 279.333C124.653 279.333 124.687 279.325 124.687 279.351L125.283 284.951C125.283 284.951 125.274 285.003 125.248 285.02L120.873 288.083C120.873 288.083 120.839 288.083 120.839 288.066L120.632 283.113C120.632 283.113 120.64 283.052 120.658 283.044L124.644 279.351L124.653 279.333Z" fill="#92B6DA"/>
</g>
<g opacity="0.5">
<path d="M115.515 289.217C115.515 289.217 115.532 289.183 115.55 289.2L120.019 292.626C120.019 292.626 120.054 292.669 120.045 292.695L119.251 297.976C119.251 297.976 119.234 298.002 119.208 297.993L115.472 294.731C115.472 294.731 115.437 294.679 115.437 294.662L115.506 289.226L115.515 289.217Z" fill="#92B6DA"/>
</g>
<g opacity="0.5">
<path d="M113.703 277.462C113.703 277.462 113.738 277.454 113.738 277.48L114.333 283.08C114.333 283.08 114.325 283.131 114.299 283.149L109.924 286.212C109.924 286.212 109.889 286.212 109.889 286.195L109.682 281.242C109.682 281.242 109.691 281.181 109.708 281.173L113.695 277.48L113.703 277.462Z" fill="#92B6DA"/>
</g>
<g opacity="0.5">
<path d="M171.422 307.508C171.422 307.508 171.456 307.508 171.447 307.534L169.653 312.875C169.653 312.875 169.618 312.918 169.592 312.927L164.337 313.885C164.337 313.885 164.303 313.876 164.311 313.85L166.192 309.259C166.192 309.259 166.227 309.216 166.253 309.208L171.422 307.516V307.508Z" fill="#92B6DA"/>
</g>
<g opacity="0.5">
<path d="M160.472 305.625C160.472 305.625 160.506 305.625 160.498 305.651L158.703 310.992C158.703 310.992 158.668 311.035 158.642 311.044L153.387 312.002C153.387 312.002 153.353 311.993 153.361 311.967L155.243 307.377C155.243 307.377 155.277 307.334 155.303 307.325L160.472 305.634V305.625Z" fill="#92B6DA"/>
</g>
<g opacity="0.5">
<path d="M161.024 295.94C161.024 295.94 161.041 295.906 161.058 295.923L165.528 299.348C165.528 299.348 165.563 299.392 165.554 299.417L164.76 304.698C164.76 304.698 164.743 304.724 164.717 304.716L160.981 301.454C160.981 301.454 160.946 301.402 160.946 301.385L161.015 295.949L161.024 295.94Z" fill="#92B6DA"/>
</g>
<g opacity="0.5">
<path d="M159.203 284.185C159.203 284.185 159.237 284.176 159.237 284.202L159.833 289.802C159.833 289.802 159.824 289.854 159.798 289.871L155.423 292.935C155.423 292.935 155.389 292.935 155.389 292.917L155.182 287.964C155.182 287.964 155.19 287.904 155.208 287.895L159.194 284.202L159.203 284.185Z" fill="#92B6DA"/>
</g>
<g opacity="0.5">
<path d="M164.122 223.943C164.122 223.943 164.156 223.934 164.156 223.96L164.751 229.56C164.751 229.56 164.743 229.612 164.717 229.629L160.342 232.692C160.342 232.692 160.308 232.692 160.308 232.675L160.1 227.722C160.1 227.722 160.109 227.662 160.126 227.653L164.113 223.96L164.122 223.943Z" fill="#92B6DA"/>
</g>
<g opacity="0.5">
<path d="M154.431 243.516C154.431 243.516 154.466 243.516 154.457 243.542L152.662 248.883C152.662 248.883 152.628 248.926 152.602 248.935L147.347 249.892C147.347 249.892 147.313 249.884 147.321 249.858L149.202 245.267C149.202 245.267 149.237 245.224 149.263 245.216L154.431 243.524V243.516Z" fill="#92B6DA"/>
</g>
<g opacity="0.5">
<path d="M154.975 233.823C154.975 233.823 154.992 233.788 155.01 233.806L159.479 237.231C159.479 237.231 159.514 237.274 159.505 237.3L158.711 242.581C158.711 242.581 158.694 242.607 158.668 242.598L154.932 239.337C154.932 239.337 154.897 239.285 154.897 239.268L154.966 233.832L154.975 233.823Z" fill="#92B6DA"/>
</g>
<g opacity="0.5">
<path d="M153.163 222.068C153.163 222.068 153.197 222.059 153.197 222.085L153.793 227.685C153.793 227.685 153.784 227.737 153.758 227.754L149.383 230.817C149.383 230.817 149.349 230.817 149.349 230.8L149.142 225.847C149.142 225.847 149.15 225.787 149.168 225.778L153.154 222.085L153.163 222.068Z" fill="#92B6DA"/>
</g>
<g opacity="0.5">
<path d="M142.964 241.844C142.964 241.844 142.998 241.844 142.989 241.87L141.195 247.211C141.195 247.211 141.16 247.254 141.134 247.263L135.879 248.221C135.879 248.221 135.845 248.212 135.853 248.186L137.734 243.595C137.734 243.595 137.769 243.552 137.795 243.544L142.964 241.852V241.844Z" fill="#92B6DA"/>
</g>
<g opacity="0.5">
<path d="M143.516 232.155C143.516 232.155 143.533 232.12 143.55 232.138L148.02 235.563C148.02 235.563 148.055 235.606 148.046 235.632L147.252 240.913C147.252 240.913 147.235 240.939 147.209 240.93L143.473 237.669C143.473 237.669 143.438 237.617 143.438 237.6L143.507 232.164L143.516 232.155Z" fill="#92B6DA"/>
</g>
<g opacity="0.5">
<path d="M141.704 220.396C141.704 220.396 141.738 220.387 141.738 220.413L142.333 226.013C142.333 226.013 142.325 226.065 142.299 226.082L137.924 229.146C137.924 229.146 137.89 229.146 137.89 229.128L137.682 224.175C137.682 224.175 137.691 224.115 137.708 224.106L141.695 220.413L141.704 220.396Z" fill="#92B6DA"/>
</g>
<g opacity="0.5">
<path d="M132.013 239.965C132.013 239.965 132.048 239.965 132.039 239.991L130.244 245.332C130.244 245.332 130.21 245.375 130.184 245.384L124.929 246.342C124.929 246.342 124.894 246.333 124.903 246.307L126.784 241.717C126.784 241.717 126.818 241.673 126.844 241.665L132.013 239.973V239.965Z" fill="#92B6DA"/>
</g>
<g opacity="0.5">
<path d="M132.565 230.276C132.565 230.276 132.583 230.241 132.6 230.259L137.07 233.684C137.07 233.684 137.104 233.728 137.095 233.753L136.302 239.034C136.302 239.034 136.284 239.06 136.258 239.052L132.522 235.79C132.522 235.79 132.488 235.738 132.488 235.721L132.557 230.285L132.565 230.276Z" fill="#92B6DA"/>
</g>
<g opacity="0.5">
<path d="M130.745 218.521C130.745 218.521 130.779 218.512 130.779 218.538L131.375 224.138C131.375 224.138 131.366 224.19 131.34 224.207L126.965 227.271C126.965 227.271 126.931 227.271 126.931 227.253L126.724 222.3C126.724 222.3 126.732 222.24 126.75 222.231L130.736 218.538L130.745 218.521Z" fill="#92B6DA"/>
</g>
<g opacity="0.5">
<path d="M120.563 238.461C120.563 238.461 120.597 238.461 120.589 238.487L118.794 243.828C118.794 243.828 118.759 243.871 118.733 243.88L113.478 244.838C113.478 244.838 113.444 244.829 113.453 244.803L115.334 240.213C115.334 240.213 115.368 240.169 115.394 240.161L120.563 238.47V238.461Z" fill="#92B6DA"/>
</g>
<g opacity="0.5">
<path d="M121.107 228.772C121.107 228.772 121.124 228.738 121.141 228.755L125.611 232.181C125.611 232.181 125.646 232.224 125.637 232.25L124.843 237.53C124.843 237.53 124.826 237.556 124.8 237.548L121.064 234.286C121.064 234.286 121.029 234.234 121.029 234.217L121.098 228.781L121.107 228.772Z" fill="#92B6DA"/>
</g>
<g opacity="0.5">
<path d="M119.295 217.009C119.295 217.009 119.329 217.001 119.329 217.026L119.924 222.627C119.924 222.627 119.916 222.678 119.89 222.696L115.515 225.759C115.515 225.759 115.481 225.759 115.481 225.742L115.273 220.789C115.273 220.789 115.282 220.728 115.299 220.72L119.286 217.026L119.295 217.009Z" fill="#92B6DA"/>
</g>
<g opacity="0.5">
<path d="M109.604 236.574C109.604 236.574 109.639 236.574 109.63 236.6L107.835 241.941C107.835 241.941 107.801 241.985 107.775 241.993L102.52 242.951C102.52 242.951 102.485 242.942 102.494 242.916L104.375 238.326C104.375 238.326 104.41 238.283 104.436 238.274L109.604 236.583V236.574Z" fill="#92B6DA"/>
</g>
<g opacity="0.5">
<path d="M110.157 226.889C110.157 226.889 110.174 226.855 110.191 226.872L114.661 230.298C114.661 230.298 114.695 230.341 114.687 230.367L113.893 235.648C113.893 235.648 113.876 235.673 113.85 235.665L110.113 232.403C110.113 232.403 110.079 232.351 110.079 232.334L110.148 226.898L110.157 226.889Z" fill="#92B6DA"/>
</g>
<g opacity="0.5">
<path d="M108.344 215.138C108.344 215.138 108.379 215.129 108.379 215.155L108.974 220.755C108.974 220.755 108.966 220.807 108.94 220.825L104.565 223.888C104.565 223.888 104.53 223.888 104.53 223.871L104.323 218.918C104.323 218.918 104.332 218.857 104.349 218.849L108.336 215.155L108.344 215.138Z" fill="#92B6DA"/>
</g>
</g>
<g opacity="0.5">
<g opacity="0.5">
<path d="M114.255 87.7274C114.255 87.7274 114.221 87.7447 114.221 87.7274L112.607 82.3257C112.607 82.3257 112.607 82.274 112.624 82.2567L116.361 78.4514C116.361 78.4514 116.395 78.4428 116.404 78.46L117.517 83.2922C117.517 83.2922 117.517 83.3526 117.5 83.3698L114.255 87.7361V87.7274Z" fill="#92B6DA"/>
</g>
<g opacity="0.5">
<path d="M119.398 95.9681C119.398 95.9681 119.398 96.0027 119.381 96.0027L113.755 95.7869C113.755 95.7869 113.703 95.7697 113.694 95.7438L111.295 90.972C111.295 90.972 111.295 90.9375 111.321 90.9375L116.257 91.438C116.257 91.438 116.309 91.4552 116.326 91.4811L119.407 95.9595L119.398 95.9681Z" fill="#92B6DA"/>
</g>
<g opacity="0.5">
<path d="M127.656 104.517C127.656 104.517 127.63 104.543 127.621 104.526L123.902 100.298C123.902 100.298 123.876 100.246 123.885 100.229L125.688 95.2068C125.688 95.2068 125.714 95.1809 125.732 95.2068L128.76 99.1329C128.76 99.1329 128.786 99.1847 128.778 99.2106L127.647 104.535L127.656 104.517Z" fill="#92B6DA"/>
</g>
<g opacity="0.5">
<path d="M124.282 82.9462C124.282 82.9462 124.247 82.9634 124.247 82.9462L122.634 77.5445C122.634 77.5445 122.634 77.4927 122.651 77.4755L126.387 73.6701C126.387 73.6701 126.422 73.6615 126.43 73.6788L127.544 78.5109C127.544 78.5109 127.544 78.5713 127.526 78.5886L124.282 82.9548V82.9462Z" fill="#92B6DA"/>
</g>
<g opacity="0.5">
<path d="M129.425 91.1752C129.425 91.1752 129.425 91.2097 129.408 91.2097L123.782 90.994C123.782 90.994 123.73 90.9767 123.721 90.9508L121.322 86.179C121.322 86.179 121.322 86.1445 121.348 86.1445L126.284 86.645C126.284 86.645 126.336 86.6623 126.353 86.6881L129.433 91.1665L129.425 91.1752Z" fill="#92B6DA"/>
</g>
<g opacity="0.5">
<path d="M137.691 99.7283C137.691 99.7283 137.665 99.7542 137.657 99.737L133.938 95.5088C133.938 95.5088 133.912 95.457 133.92 95.4398L135.724 90.4178C135.724 90.4178 135.75 90.3919 135.767 90.4178L138.796 94.3439C138.796 94.3439 138.822 94.3957 138.813 94.4216L137.683 99.7456L137.691 99.7283Z" fill="#92B6DA"/>
</g>
<g opacity="0.5">
<path d="M133.567 109.388C133.567 109.388 133.532 109.405 133.532 109.388L131.919 103.986C131.919 103.986 131.919 103.934 131.936 103.917L135.672 100.112C135.672 100.112 135.707 100.103 135.715 100.12L136.829 104.952C136.829 104.952 136.829 105.013 136.811 105.03L133.567 109.396V109.388Z" fill="#92B6DA"/>
</g>
<g opacity="0.5">
<path d="M138.709 117.617C138.709 117.617 138.709 117.651 138.692 117.651L133.066 117.435C133.066 117.435 133.014 117.418 133.006 117.392L130.607 112.62C130.607 112.62 130.607 112.586 130.633 112.586L135.568 113.086C135.568 113.086 135.62 113.104 135.637 113.13L138.718 117.608L138.709 117.617Z" fill="#92B6DA"/>
</g>
<g opacity="0.5">
<path d="M146.976 126.17C146.976 126.17 146.95 126.196 146.941 126.178L143.222 121.95C143.222 121.95 143.196 121.898 143.205 121.881L145.008 116.859C145.008 116.859 145.034 116.833 145.051 116.859L148.08 120.785C148.08 120.785 148.106 120.837 148.097 120.863L146.967 126.187L146.976 126.17Z" fill="#92B6DA"/>
</g>
<g opacity="0.5">
<path d="M143.593 104.595C143.593 104.595 143.559 104.612 143.559 104.595L141.945 99.1929C141.945 99.1929 141.945 99.1412 141.963 99.1239L145.699 95.3186C145.699 95.3186 145.733 95.3099 145.742 95.3272L146.855 100.159C146.855 100.159 146.855 100.22 146.838 100.237L143.593 104.603V104.595Z" fill="#92B6DA"/>
</g>
<g opacity="0.5">
<path d="M148.745 112.828C148.745 112.828 148.745 112.862 148.728 112.862L143.102 112.646C143.102 112.646 143.05 112.629 143.041 112.603L140.642 107.831C140.642 107.831 140.642 107.797 140.668 107.797L145.604 108.297C145.604 108.297 145.656 108.315 145.673 108.34L148.754 112.819L148.745 112.828Z" fill="#92B6DA"/>
</g>
<g opacity="0.5">
<path d="M157.003 121.377C157.003 121.377 156.977 121.403 156.968 121.385L153.249 117.157C153.249 117.157 153.223 117.105 153.232 117.088L155.035 112.066C155.035 112.066 155.061 112.04 155.078 112.066L158.107 115.992C158.107 115.992 158.133 116.044 158.124 116.07L156.994 121.394L157.003 121.377Z" fill="#92B6DA"/>
</g>
<g opacity="0.5">
<path d="M134.188 75.4305C134.188 75.4305 134.153 75.4478 134.153 75.4305L132.54 70.0289C132.54 70.0289 132.54 69.9771 132.557 69.9598L136.293 66.1545C136.293 66.1545 136.328 66.1459 136.337 66.1631L137.45 70.9953C137.45 70.9953 137.45 71.0557 137.432 71.073L134.188 75.4392V75.4305Z" fill="#92B6DA"/>
</g>
<g opacity="0.5">
<path d="M139.331 83.6635C139.331 83.6635 139.331 83.698 139.314 83.698L133.688 83.4822C133.688 83.4822 133.636 83.465 133.627 83.4391L131.229 78.6673C131.229 78.6673 131.229 78.6328 131.254 78.6328L136.19 79.1333C136.19 79.1333 136.242 79.1505 136.259 79.1764L139.34 83.6548L139.331 83.6635Z" fill="#92B6DA"/>
</g>
<g opacity="0.5">
<path d="M147.597 92.2205C147.597 92.2205 147.571 92.2464 147.563 92.2291L143.844 88.001C143.844 88.001 143.818 87.9492 143.826 87.9319L145.63 82.9099C145.63 82.9099 145.656 82.8841 145.673 82.9099L148.702 86.8361C148.702 86.8361 148.728 86.8879 148.719 86.9137L147.589 92.2378L147.597 92.2205Z" fill="#92B6DA"/>
</g>
<g opacity="0.5">
<path d="M144.223 70.6493C144.223 70.6493 144.189 70.6666 144.189 70.6493L142.575 65.2476C142.575 65.2476 142.575 65.1959 142.592 65.1786L146.329 61.3733C146.329 61.3733 146.363 61.3646 146.372 61.3819L147.485 66.2141C147.485 66.2141 147.485 66.2745 147.468 66.2917L144.223 70.6579V70.6493Z" fill="#92B6DA"/>
</g>
<g opacity="0.5">
<path d="M149.366 78.8822C149.366 78.8822 149.366 78.9167 149.349 78.9167L143.723 78.701C143.723 78.701 143.671 78.6837 143.663 78.6578L141.264 73.8861C141.264 73.8861 141.264 73.8516 141.29 73.8516L146.226 74.352C146.226 74.352 146.277 74.3693 146.295 74.3952L149.375 78.8736L149.366 78.8822Z" fill="#92B6DA"/>
</g>
<g opacity="0.5">
<path d="M157.624 87.4314C157.624 87.4314 157.598 87.4573 157.59 87.4401L153.871 83.2119C153.871 83.2119 153.845 83.1601 153.853 83.1429L155.657 78.1209C155.657 78.1209 155.683 78.095 155.7 78.1209L158.729 82.047C158.729 82.047 158.755 82.0988 158.746 82.1247L157.616 87.4487L157.624 87.4314Z" fill="#92B6DA"/>
</g>
<g opacity="0.5">
<path d="M114.186 118.403C114.186 118.403 114.152 118.42 114.152 118.403L112.538 113.002C112.538 113.002 112.538 112.95 112.556 112.932L116.292 109.127C116.292 109.127 116.326 109.119 116.335 109.136L117.448 113.968C117.448 113.968 117.448 114.028 117.431 114.046L114.186 118.412V118.403Z" fill="#92B6DA"/>
</g>
<g opacity="0.5">
<path d="M119.329 126.648C119.329 126.648 119.329 126.682 119.312 126.682L113.686 126.467C113.686 126.467 113.634 126.449 113.626 126.423L111.227 121.652C111.227 121.652 111.227 121.617 111.253 121.617L116.188 122.118C116.188 122.118 116.24 122.135 116.257 122.161L119.338 126.639L119.329 126.648Z" fill="#92B6DA"/>
</g>
<g opacity="0.5">
<path d="M127.596 135.201C127.596 135.201 127.57 135.227 127.561 135.21L123.842 130.981C123.842 130.981 123.816 130.93 123.825 130.912L125.628 125.89C125.628 125.89 125.654 125.865 125.672 125.89L128.7 129.817C128.7 129.817 128.726 129.868 128.718 129.894L127.587 135.218L127.596 135.201Z" fill="#92B6DA"/>
</g>
<g opacity="0.5">
<path d="M124.213 113.63C124.213 113.63 124.179 113.647 124.179 113.63L122.565 108.228C122.565 108.228 122.565 108.176 122.582 108.159L126.319 104.354C126.319 104.354 126.353 104.345 126.362 104.362L127.475 109.195C127.475 109.195 127.475 109.255 127.458 109.272L124.213 113.638V113.63Z" fill="#92B6DA"/>
</g>
<g opacity="0.5">
<path d="M129.356 121.859C129.356 121.859 129.356 121.893 129.339 121.893L123.713 121.678C123.713 121.678 123.661 121.66 123.652 121.634L121.253 116.863C121.253 116.863 121.253 116.828 121.279 116.828L126.215 117.329C126.215 117.329 126.267 117.346 126.284 117.372L129.365 121.85L129.356 121.859Z" fill="#92B6DA"/>
</g>
<g opacity="0.5">
<path d="M137.622 130.408C137.622 130.408 137.597 130.434 137.588 130.417L133.869 126.188C133.869 126.188 133.843 126.137 133.852 126.119L135.655 121.097C135.655 121.097 135.681 121.072 135.698 121.097L138.727 125.024C138.727 125.024 138.753 125.075 138.744 125.101L137.614 130.425L137.622 130.408Z" fill="#92B6DA"/>
</g>
<g opacity="0.5">
<path d="M106.55 112.982C106.55 112.982 106.524 113.008 106.515 112.991L102.796 108.763C102.796 108.763 102.77 108.711 102.779 108.694L104.582 103.672C104.582 103.672 104.608 103.646 104.625 103.672L107.654 107.598C107.654 107.598 107.68 107.65 107.671 107.675L106.541 112.999L106.55 112.982Z" fill="#92B6DA"/>
</g>
<g opacity="0.5">
<path d="M103.176 91.411C103.176 91.411 103.141 91.4283 103.141 91.411L101.528 86.0093C101.528 86.0093 101.528 85.9576 101.545 85.9403L105.281 82.135C105.281 82.135 105.316 82.1263 105.324 82.1436L106.438 86.9758C106.438 86.9758 106.438 87.0362 106.42 87.0534L103.176 91.4197V91.411Z" fill="#92B6DA"/>
</g>
<g opacity="0.5">
<path d="M108.319 99.64C108.319 99.64 108.319 99.6745 108.301 99.6745L102.675 99.4588C102.675 99.4588 102.624 99.4415 102.615 99.4157L100.216 94.6439C100.216 94.6439 100.216 94.6094 100.242 94.6094L105.178 95.1099C105.178 95.1099 105.23 95.1271 105.247 95.153L108.327 99.6314L108.319 99.64Z" fill="#92B6DA"/>
</g>
<g opacity="0.5">
<path d="M116.585 108.197C116.585 108.197 116.559 108.223 116.55 108.206L112.831 103.978C112.831 103.978 112.805 103.926 112.814 103.909L114.617 98.8865C114.617 98.8865 114.643 98.8606 114.66 98.8865L117.689 102.813C117.689 102.813 117.715 102.864 117.706 102.89L116.576 108.214L116.585 108.197Z" fill="#92B6DA"/>
</g>
<g opacity="0.5">
<path d="M79.5415 30.8611C79.5415 30.8611 79.5156 30.887 79.507 30.8698L75.7879 26.6416C75.7879 26.6416 75.7621 26.5898 75.7707 26.5726L77.5741 21.5506C77.5741 21.5506 77.6 21.5247 77.6173 21.5506L80.646 25.4767C80.646 25.4767 80.6719 25.5285 80.6633 25.5544L79.5329 30.8784L79.5415 30.8611Z" fill="#92B6DA"/>
</g>
<g opacity="0.5">
<path d="M76.1675 9.27821C76.1675 9.27821 76.133 9.29546 76.133 9.27821L74.5194 3.87653C74.5194 3.87653 74.5194 3.82475 74.5367 3.8075L78.273 0.0021563C78.273 0.0021563 78.3075 -0.00647074 78.3161 0.010787L79.4293 4.84296C79.4293 4.84296 79.4293 4.90337 79.412 4.92062L76.1675 9.28684V9.27821Z" fill="#92B6DA"/>
</g>
<g opacity="0.5">
<path d="M81.3104 17.5228C81.3104 17.5228 81.3104 17.5573 81.2932 17.5573L75.6671 17.3416C75.6671 17.3416 75.6153 17.3244 75.6067 17.2985L73.2079 12.5267C73.2079 12.5267 73.2079 12.4922 73.2338 12.4922L78.1695 12.9927C78.1695 12.9927 78.2213 13.0099 78.2385 13.0358L81.3191 17.5142L81.3104 17.5228Z" fill="#92B6DA"/>
</g>
<g opacity="0.5">
<path d="M89.5767 26.0721C89.5767 26.0721 89.5508 26.098 89.5422 26.0807L85.8231 21.8525C85.8231 21.8525 85.7972 21.8008 85.8058 21.7835L87.6093 16.7615C87.6093 16.7615 87.6352 16.7356 87.6524 16.7615L90.6812 20.6876C90.6812 20.6876 90.7071 20.7394 90.6984 20.7653L89.568 26.0893L89.5767 26.0721Z" fill="#92B6DA"/>
</g>
<g opacity="0.5">
<path d="M105.972 25.3368C105.972 25.3368 105.937 25.3541 105.937 25.3368L104.323 19.9351C104.323 19.9351 104.323 19.8833 104.341 19.8661L108.077 16.0608C108.077 16.0608 108.112 16.0521 108.12 16.0694L109.233 20.9016C109.233 20.9016 109.233 20.962 109.216 20.9792L105.972 25.3454V25.3368Z" fill="#92B6DA"/>
</g>
<g opacity="0.5">
<path d="M111.114 33.5697C111.114 33.5697 111.114 33.6042 111.097 33.6042L105.471 33.3885C105.471 33.3885 105.419 33.3712 105.411 33.3454L103.012 28.5736C103.012 28.5736 103.012 28.5391 103.038 28.5391L107.974 29.0395C107.974 29.0395 108.025 29.0568 108.043 29.0827L111.123 33.5611L111.114 33.5697Z" fill="#92B6DA"/>
</g>
<g opacity="0.5">
<path d="M119.381 42.1307C119.381 42.1307 119.355 42.1566 119.346 42.1393L115.627 37.9111C115.627 37.9111 115.601 37.8594 115.61 37.8421L117.413 32.8201C117.413 32.8201 117.439 32.7942 117.456 32.8201L120.485 36.7462C120.485 36.7462 120.511 36.798 120.502 36.8239L119.372 42.1479L119.381 42.1307Z" fill="#92B6DA"/>
</g>
<g opacity="0.5">
<path d="M116.007 20.5477C116.007 20.5477 115.972 20.565 115.972 20.5477L114.359 15.1461C114.359 15.1461 114.359 15.0943 114.376 15.077L118.112 11.2717C118.112 11.2717 118.147 11.2631 118.156 11.2803L119.269 16.1125C119.269 16.1125 119.269 16.1729 119.251 16.1902L116.007 20.5564V20.5477Z" fill="#92B6DA"/>
</g>
<g opacity="0.5">
<path d="M121.15 28.7885C121.15 28.7885 121.15 28.823 121.133 28.823L115.507 28.6072C115.507 28.6072 115.455 28.59 115.446 28.5641L113.047 23.7923C113.047 23.7923 113.047 23.7578 113.073 23.7578L118.009 24.2583C118.009 24.2583 118.061 24.2755 118.078 24.3014L121.159 28.7798L121.15 28.7885Z" fill="#92B6DA"/>
</g>
<g opacity="0.5">
<path d="M129.408 37.3416C129.408 37.3416 129.382 37.3675 129.373 37.3502L125.654 33.1221C125.654 33.1221 125.628 33.0703 125.637 33.053L127.44 28.031C127.44 28.031 127.466 28.0051 127.483 28.031L130.512 31.9572C130.512 31.9572 130.538 32.009 130.529 32.0348L129.399 37.3589L129.408 37.3416Z" fill="#92B6DA"/>
</g>
<g opacity="0.5">
<path d="M85.4521 35.7196C85.4521 35.7196 85.4176 35.7369 85.4176 35.7196L83.804 30.3179C83.804 30.3179 83.804 30.2662 83.8212 30.2489L87.5575 26.4436C87.5575 26.4436 87.592 26.4349 87.6007 26.4522L88.7138 31.2844C88.7138 31.2844 88.7138 31.3448 88.6965 31.362L85.4521 35.7282V35.7196Z" fill="#92B6DA"/>
</g>
<g opacity="0.5">
<path d="M98.8615 52.5135C98.8615 52.5135 98.8356 52.5394 98.8269 52.5221L95.1079 48.2939C95.1079 48.2939 95.082 48.2422 95.0906 48.2249L96.8941 43.2029C96.8941 43.2029 96.92 43.177 96.9372 43.2029L99.966 47.1291C99.966 47.1291 99.9918 47.1808 99.9832 47.2067L98.8528 52.5307L98.8615 52.5135Z" fill="#92B6DA"/>
</g>
<g opacity="0.5">
<path d="M95.4789 30.9384C95.4789 30.9384 95.4444 30.9556 95.4444 30.9384L93.8308 25.5367C93.8308 25.5367 93.8308 25.4849 93.8481 25.4676L97.5844 21.6623C97.5844 21.6623 97.6189 21.6537 97.6275 21.6709L98.7406 26.5031C98.7406 26.5031 98.7407 26.5635 98.7234 26.5808L95.4789 30.947V30.9384Z" fill="#92B6DA"/>
</g>
<g opacity="0.5">
<path d="M100.631 39.1713C100.631 39.1713 100.631 39.2058 100.613 39.2058L94.9873 38.9901C94.9873 38.9901 94.9355 38.9728 94.9269 38.9469L92.5281 34.1751C92.5281 34.1751 92.5281 34.1406 92.554 34.1406L97.4897 34.6411C97.4897 34.6411 97.5415 34.6584 97.5587 34.6842L100.639 39.1626L100.631 39.1713Z" fill="#92B6DA"/>
</g>
<g opacity="0.5">
<path d="M108.888 47.7244C108.888 47.7244 108.862 47.7503 108.854 47.733L105.135 43.5049C105.135 43.5049 105.109 43.4531 105.117 43.4359L106.921 38.4138C106.921 38.4138 106.947 38.388 106.964 38.4138L109.993 42.34C109.993 42.34 110.019 42.3918 110.01 42.4177L108.88 47.7417L108.888 47.7244Z" fill="#92B6DA"/>
</g>
<g opacity="0.5">
<path d="M91.2161 10.0033C91.2161 10.0033 91.2161 10.0378 91.1988 10.0378L85.5728 9.82209C85.5728 9.82209 85.521 9.80483 85.5124 9.77894L83.1135 5.00717C83.1135 5.00717 83.1135 4.97266 83.1394 4.97266L88.0751 5.47313C88.0751 5.47313 88.1269 5.49039 88.1442 5.51627L91.2247 9.99467L91.2161 10.0033Z" fill="#92B6DA"/>
</g>
<g opacity="0.5">
<path d="M99.4825 18.5564C99.4825 18.5564 99.4567 18.5823 99.448 18.5651L95.729 14.3369C95.729 14.3369 95.7031 14.2852 95.7117 14.2679L97.5152 9.24588C97.5152 9.24588 97.541 9.21999 97.5583 9.24588L100.587 13.172C100.587 13.172 100.613 13.2238 100.604 13.2497L99.4739 18.5737L99.4825 18.5564Z" fill="#92B6DA"/>
</g>
<g opacity="0.5">
<path d="M101.251 5.22595C101.251 5.22595 101.251 5.26047 101.234 5.26047L95.6082 5.04475C95.6082 5.04475 95.5564 5.02749 95.5478 5.0016L93.1489 0.229829C93.1489 0.229829 93.1489 0.195312 93.1748 0.195312L98.1105 0.695789C98.1105 0.695789 98.1623 0.71305 98.1796 0.738936L101.26 5.21732L101.251 5.22595Z" fill="#92B6DA"/>
</g>
<g opacity="0.5">
<path d="M109.51 13.7752C109.51 13.7752 109.484 13.8011 109.475 13.7838L105.756 9.55567C105.756 9.55567 105.73 9.5039 105.739 9.48664L107.542 4.46463C107.542 4.46463 107.568 4.43874 107.585 4.46463L110.614 8.39077C110.614 8.39077 110.64 8.44254 110.631 8.46843L109.501 13.7925L109.51 13.7752Z" fill="#92B6DA"/>
</g>
<g opacity="0.5">
<path d="M99.2069 86.5682C99.2069 86.5682 99.181 86.5941 99.1724 86.5768L95.4533 82.3486C95.4533 82.3486 95.4275 82.2969 95.4361 82.2796L97.2395 77.2576C97.2395 77.2576 97.2654 77.2317 97.2827 77.2576L100.311 81.1837C100.311 81.1837 100.337 81.2355 100.329 81.2614L99.1983 86.5854L99.2069 86.5682Z" fill="#92B6DA"/>
</g>
<g opacity="0.5">
<path d="M95.8324 64.997C95.8324 64.997 95.7979 65.0142 95.7979 64.997L94.1843 59.5953C94.1843 59.5953 94.1843 59.5435 94.2016 59.5262L97.9379 55.7209C97.9379 55.7209 97.9724 55.7123 97.981 55.7295L99.0942 60.5617C99.0942 60.5617 99.0942 60.6221 99.0769 60.6394L95.8324 65.0056V64.997Z" fill="#92B6DA"/>
</g>
<g opacity="0.5">
<path d="M100.976 73.2299C100.976 73.2299 100.976 73.2644 100.958 73.2644L95.3323 73.0486C95.3323 73.0486 95.2805 73.0314 95.2719 73.0055L92.873 68.2337C92.873 68.2337 92.873 68.1992 92.8989 68.1992L97.8347 68.6997C97.8347 68.6997 97.8864 68.7169 97.9037 68.7428L100.984 73.2212L100.976 73.2299Z" fill="#92B6DA"/>
</g>
<g opacity="0.5">
<path d="M109.242 81.7791C109.242 81.7791 109.216 81.805 109.208 81.7877L105.489 77.5596C105.489 77.5596 105.463 77.5078 105.471 77.4905L107.275 72.4685C107.275 72.4685 107.301 72.4426 107.318 72.4685L110.347 76.3947C110.347 76.3947 110.372 76.4465 110.364 76.4723L109.233 81.7964L109.242 81.7791Z" fill="#92B6DA"/>
</g>
<g opacity="0.5">
<path d="M106.162 59.7509C106.162 59.7509 106.127 59.7681 106.127 59.7509L104.513 54.3492C104.513 54.3492 104.513 54.2974 104.531 54.2801L108.267 50.4748C108.267 50.4748 108.302 50.4662 108.31 50.4834L109.423 55.3156C109.423 55.3156 109.423 55.376 109.406 55.3933L106.162 59.7595V59.7509Z" fill="#92B6DA"/>
</g>
<g opacity="0.5">
<path d="M111.304 67.9838C111.304 67.9838 111.304 68.0183 111.287 68.0183L105.661 67.8026C105.661 67.8026 105.609 67.7853 105.6 67.7594L103.202 62.9876C103.202 62.9876 103.202 62.9531 103.228 62.9531L108.163 63.4536C108.163 63.4536 108.215 63.4709 108.232 63.4967L111.313 67.9751L111.304 67.9838Z" fill="#92B6DA"/>
</g>
<g opacity="0.5">
<path d="M119.571 76.5369C119.571 76.5369 119.545 76.5628 119.536 76.5455L115.817 72.3174C115.817 72.3174 115.791 72.2656 115.8 72.2484L117.603 67.2263C117.603 67.2263 117.629 67.2005 117.646 67.2263L120.675 71.1525C120.675 71.1525 120.701 71.2043 120.692 71.2302L119.562 76.5542L119.571 76.5369Z" fill="#92B6DA"/>
</g>
<g opacity="0.5">
<path d="M116.188 54.9618C116.188 54.9618 116.154 54.9791 116.154 54.9618L114.54 49.5601C114.54 49.5601 114.54 49.5083 114.557 49.4911L118.294 45.6858C118.294 45.6858 118.328 45.6771 118.337 45.6944L119.45 50.5265C119.45 50.5265 119.45 50.587 119.433 50.6042L116.188 54.9704V54.9618Z" fill="#92B6DA"/>
</g>
<g opacity="0.5">
<path d="M121.34 63.1947C121.34 63.1947 121.34 63.2292 121.322 63.2292L115.696 63.0135C115.696 63.0135 115.645 62.9962 115.636 62.9704L113.237 58.1986C113.237 58.1986 113.237 58.1641 113.263 58.1641L118.199 58.6645C118.199 58.6645 118.25 58.6818 118.268 58.7077L121.348 63.1861L121.34 63.1947Z" fill="#92B6DA"/>
</g>
<g opacity="0.5">
<path d="M129.598 71.7557C129.598 71.7557 129.572 71.7815 129.563 71.7643L125.844 67.5361C125.844 67.5361 125.818 67.4844 125.827 67.4671L127.63 62.4451C127.63 62.4451 127.656 62.4192 127.674 62.4451L130.702 66.3712C130.702 66.3712 130.728 66.423 130.72 66.4489L129.589 71.7729L129.598 71.7557Z" fill="#92B6DA"/>
</g>
<g opacity="0.5">
<path d="M126.413 49.5868C126.413 49.5868 126.379 49.6041 126.379 49.5868L124.765 44.1851C124.765 44.1851 124.765 44.1333 124.783 44.1161L128.519 40.3107C128.519 40.3107 128.553 40.3021 128.562 40.3194L129.675 45.1516C129.675 45.1516 129.675 45.2119 129.658 45.2292L126.413 49.5954V49.5868Z" fill="#92B6DA"/>
</g>
<g opacity="0.5">
<path d="M131.556 57.8119C131.556 57.8119 131.556 57.8464 131.539 57.8464L125.913 57.6307C125.913 57.6307 125.861 57.6134 125.852 57.5875L123.453 52.8158C123.453 52.8158 123.453 52.7812 123.479 52.7812L128.415 53.2817C128.415 53.2817 128.467 53.299 128.484 53.3249L131.565 57.8033L131.556 57.8119Z" fill="#92B6DA"/>
</g>
<g opacity="0.5">
<path d="M139.823 66.3689C139.823 66.3689 139.797 66.3948 139.788 66.3776L136.069 62.1494C136.069 62.1494 136.043 62.0977 136.052 62.0804L137.855 57.0584C137.855 57.0584 137.881 57.0325 137.898 57.0584L140.927 60.9845C140.927 60.9845 140.953 61.0363 140.944 61.0622L139.814 66.3862L139.823 66.3689Z" fill="#92B6DA"/>
</g>
<g opacity="0.5">
<path d="M136.44 44.7977C136.44 44.7977 136.406 44.815 136.406 44.7977L134.792 39.3961C134.792 39.3961 134.792 39.3443 134.809 39.327L138.546 35.5217C138.546 35.5217 138.58 35.5131 138.589 35.5303L139.702 40.3625C139.702 40.3625 139.702 40.4229 139.685 40.4402L136.44 44.8064V44.7977Z" fill="#92B6DA"/>
</g>
<g opacity="0.5">
<path d="M141.591 53.0267C141.591 53.0267 141.591 53.0612 141.574 53.0612L135.948 52.8455C135.948 52.8455 135.896 52.8283 135.888 52.8024L133.489 48.0306C133.489 48.0306 133.489 47.9961 133.515 47.9961L138.451 48.4966C138.451 48.4966 138.502 48.5138 138.52 48.5397L141.6 53.0181L141.591 53.0267Z" fill="#92B6DA"/>
</g>
<g opacity="0.5">
<path d="M149.849 61.5916C149.849 61.5916 149.823 61.6175 149.815 61.6002L146.096 57.3721C146.096 57.3721 146.07 57.3203 146.079 57.303L147.882 52.281C147.882 52.281 147.908 52.2551 147.925 52.281L150.954 56.2072C150.954 56.2072 150.98 56.259 150.971 56.2848L149.841 61.6089L149.849 61.5916Z" fill="#92B6DA"/>
</g>
</g>
<mask id="mask0_190_45331" style="mask-type:alpha" maskUnits="userSpaceOnUse" x="0" y="353" width="340" height="168">
<path d="M338.615 519.928H220.305L197.11 498.416L196.357 497.718L196.271 498.741L194.502 519.928H136.438L128.715 512.764L127.964 512.067L127.877 513.088L127.291 519.928H110.761L106.511 511.678L106.247 511.167L105.778 511.498L93.8291 519.928H78.2979L63.4375 491.185L62.6396 489.643L62.4951 491.372L60.1006 519.928H45.2559L17.0996 506.552L16.4473 506.241L16.3867 506.962L15.3076 519.928H0.5V361.016C16.0939 364.997 35.5413 368.358 57.7754 370.897C60.4808 371.229 63.2381 371.526 66.0469 371.806L79.8594 382.982L80.6738 383.642V373.153C84.0795 373.449 87.5504 373.715 91.0596 373.957L124.554 401.063L125.369 401.723V375.688C136.182 376.058 147.321 376.23 158.661 376.23H161.491L169.086 400.813L170.063 400.666V376.163C174.445 376.126 178.794 376.048 183.083 375.929L183.084 375.93C186.066 375.868 189.005 375.787 191.933 375.689L191.932 375.688C197.695 375.505 203.385 375.271 208.979 374.977L213.844 382.848L214.142 383.331L214.583 382.974L225.681 373.992C230.935 373.621 236.066 373.208 241.113 372.762L258.527 400.938L259.452 402.435V370.918C263.103 370.502 266.684 370.056 270.204 369.602L303.46 383.058L304.147 383.336V363.952C309.791 362.772 315.041 361.532 319.889 360.22L325.674 364.902L325.979 364.524L326.292 364.911L326.304 364.902L326.783 364.514L326.782 364.513L338.615 354.938V519.928Z" fill="#C59B6D" stroke="#C59B6D"/>
</mask>
<g mask="url(#mask0_190_45331)">
<path d="M83.39 20.7061L83.4504 27.8249C83.5108 35.194 88.2394 41.122 94.0035 41.0702L99.457 41.0184C104.203 40.9753 108.371 45.0222 109.639 50.864C113.255 67.5264 119.562 104.423 118.648 155.8C117.44 223.744 91.32 279.806 87.7994 285.941C87.6095 286.277 87.437 286.605 87.273 286.959L11.5372 404.338C10.7692 405.563 7.66278 413.864 7.26585 415.348C6.54965 418.057 6.54103 421.026 7.26585 423.787C15.1786 453.988 64.1303 617.445 120.779 619.197C201.545 621.699 237.528 621.682 244.267 617.618C245.061 617.143 245.777 616.556 246.45 615.84C255.977 605.744 320.978 511.828 333.499 416.435C333.887 413.458 333.024 410.447 331.678 407.962C309.407 366.811 263.605 316.832 245.864 278.339C227.527 238.568 216.077 177.614 215.887 155.834C215.74 138.861 215.947 77.7171 216.801 51.5543C217.026 44.7289 221.254 39.2495 226.595 38.8612C232.782 38.4125 237.994 31.5612 238.167 23.6399L238.227 20.9045C238.391 13.3715 233.636 7.13281 227.743 7.13281L93.7878 7.25362C87.9978 7.25362 83.3382 13.2852 83.4073 20.6888L83.39 20.7061Z" fill="#C59B6D" stroke="#C59B6D" stroke-width="9" stroke-miterlimit="10"/>
</g>
<path d="M151.898 502.762C145.265 503.953 139.915 500.544 138.816 494.075C136.547 480.675 142.225 467.346 148.664 454.829C138.241 443.102 123.968 429.003 127.038 413.549C135.304 400.231 161.315 410.52 175.198 417.944C183.32 409.031 192.367 401.658 203.324 397.119C207.441 395.415 211.949 394.881 216.077 396.606C221.16 399.358 222.495 404.687 222.29 410.284C221.858 422.164 217.391 433.152 211.744 444.139C221.766 454.264 233.944 467.551 234.129 481.476C233.811 486.24 230.946 489.28 226.479 490.491C213.428 494.034 197.799 486.579 185.138 480.911C176.214 490.368 164.252 500.534 151.888 502.762H151.898Z" fill="#603813"/>
<rect x="94.235" y="520.258" width="16.0778" height="0.203194" fill="#215523"/>
<rect x="94.4502" y="520.129" width="15.8178" height="0.273531" fill="#215523"/>
<line y1="-0.5" x2="0.357321" y2="-0.5" transform="matrix(0.898794 -0.438371 0.465074 0.885272 110.253 520.809)" stroke="#215523"/>
<line y1="-0.5" x2="0.349388" y2="-0.5" transform="matrix(-0.572058 -0.820213 0.8416 -0.540102 94.6464 520.391)" stroke="#215523"/>
</svg>
