<svg width="340" height="625" viewBox="0 0 340 625" fill="none" xmlns="http://www.w3.org/2000/svg">
<path d="M83.5722 20.3036L83.6327 27.4223C83.6931 34.7913 88.4217 40.7193 94.1859 40.6675L99.6395 40.6157C104.385 40.5726 108.553 44.6195 109.822 50.4612C113.437 67.1234 119.745 104.02 118.83 155.396C117.622 223.339 91.5023 279.4 87.9817 285.535C87.7918 285.872 87.6193 286.2 87.4553 286.554L11.7185 403.931C10.9505 405.156 7.84407 413.457 7.44713 414.941C6.73093 417.651 6.7223 420.619 7.44713 423.38C15.3599 453.581 64.3123 617.036 120.962 618.788C201.729 621.29 237.712 621.273 244.451 617.209C245.245 616.734 245.962 616.148 246.635 615.431C256.161 605.336 321.163 511.42 333.684 416.029C334.072 413.052 333.209 410.04 331.863 407.555C309.592 366.404 263.789 316.426 246.048 277.933C227.711 238.163 216.26 177.21 216.071 155.43C215.924 138.458 216.131 77.314 216.985 51.1515C217.21 44.3261 221.438 38.8468 226.779 38.4585C232.966 38.0098 238.178 31.1586 238.351 23.2373L238.411 20.502C238.575 12.9691 233.821 6.73047 227.927 6.73047L93.9702 6.85127C88.1801 6.85127 83.5205 12.8828 83.5895 20.2863L83.5722 20.3036Z" fill="#DCD6CB" stroke="#DCD6CB" stroke-width="9" stroke-miterlimit="10"/>
<path d="M116.492 63.0508C124.517 90.6111 127.848 119.397 128.486 148.044C130.014 219.827 109.339 292.956 64.9423 349.975C56.1062 361.296 46.5452 372.022 36.2163 381.936C45.8549 371.358 54.9412 360.304 63.2424 348.716C71.4744 337.127 79.0766 324.978 85.7209 312.414C125.76 237.163 134.052 145.861 116.492 63.0508Z" fill="#E2E3E2"/>
<path d="M303.844 378.46C225.588 308.782 193.954 204.581 208.701 102.105C210.824 87.8076 213.602 73.5528 218.012 59.7812C217.097 63.2759 216.338 66.7965 215.63 70.3343C210.729 95.0299 208.563 120.278 208.658 145.422C209.003 234.359 240.956 315.228 303.836 378.46H303.844Z" fill="#E2E3E2"/>
<path d="M89.759 595.574C135.898 605.394 184.756 611.365 231.301 601.278C237.928 599.759 244.451 597.809 250.932 595.574C244.822 598.681 238.411 601.209 231.853 603.323C187.638 616.689 132.947 610.683 89.759 595.574Z" fill="#E2E3E2"/>
<path d="M22.6423 403.484C20.8475 412.355 19.3634 421.147 21.65 429.992C21.9002 431.347 22.3921 432.555 22.6423 433.935C22.0987 433.495 21.5982 433.012 21.0977 432.512C13.6252 424.651 15.0317 410.767 22.6423 403.484Z" fill="#E2E3E2"/>
<path d="M316.193 431.654C317.53 426.736 318.626 421.671 318.341 416.554C318.177 411.359 317.194 406.449 316.193 401.203C324.347 408.935 325.296 424.276 316.193 431.654Z" fill="#E2E3E2"/>
<path d="M94.9365 346.049C94.9365 346.049 147.798 284.397 216.485 344.669C285.172 404.941 94.9365 346.049 94.9365 346.049Z" fill="#F3C791"/>
<path d="M38.3647 435.702C44.6639 465.558 60.1011 530.084 82.2777 565.384C87.2653 573.331 95.04 583.867 103.85 585.602C140.877 592.893 203.377 589.64 232.75 587.517C243.545 586.741 253.322 575.368 258.939 565.488C271.054 544.201 291.126 500.884 301.679 433.674C303.016 425.158 301.472 416.4 297.235 409.048C280.037 379.192 256.083 349.509 235.701 330.543C230.343 325.556 223.664 322.363 216.562 321.837C207.718 321.181 198.122 323.269 188.673 325.763C172.917 329.931 156.781 332.234 140.549 332.519C120.987 332.864 102.28 339.741 86.8683 351.796C79.1109 357.862 72.1904 365.24 66.4176 373.756L43.8959 406.96C38.2697 415.252 36.2592 425.71 38.3647 435.694V435.702Z" fill="#FD9D07"/>
<g opacity="0.5">
<g opacity="0.5">
<path d="M152.966 214.309C152.966 214.309 153 214.309 152.992 214.334L151.197 219.676C151.197 219.676 151.162 219.719 151.137 219.727L145.882 220.685C145.882 220.685 145.847 220.677 145.856 220.651L147.737 216.06C147.737 216.06 147.771 216.017 147.797 216.008L152.966 214.317V214.309Z" fill="#92B6DA"/>
</g>
<g opacity="0.5">
<path d="M153.519 204.624C153.519 204.624 153.536 204.589 153.553 204.606L158.023 208.032C158.023 208.032 158.057 208.075 158.049 208.101L157.255 213.382C157.255 213.382 157.238 213.408 157.212 213.399L153.475 210.137C153.475 210.137 153.441 210.086 153.441 210.068L153.51 204.632L153.519 204.624Z" fill="#92B6DA"/>
</g>
<g opacity="0.5">
<path d="M151.698 192.869C151.698 192.869 151.732 192.86 151.732 192.886L152.328 198.486C152.328 198.486 152.319 198.538 152.293 198.555L147.918 201.618C147.918 201.618 147.884 201.618 147.884 201.601L147.677 196.648C147.677 196.648 147.686 196.588 147.703 196.579L151.689 192.886L151.698 192.869Z" fill="#92B6DA"/>
</g>
<g opacity="0.5">
<path d="M142.016 212.441C142.016 212.441 142.05 212.441 142.042 212.467L140.247 217.809C140.247 217.809 140.213 217.852 140.187 217.86L134.932 218.818C134.932 218.818 134.897 218.809 134.906 218.784L136.787 214.193C136.787 214.193 136.821 214.15 136.847 214.141L142.016 212.45V212.441Z" fill="#92B6DA"/>
</g>
<g opacity="0.5">
<path d="M142.56 202.741C142.56 202.741 142.577 202.706 142.594 202.724L147.064 206.149C147.064 206.149 147.098 206.192 147.09 206.218L146.296 211.499C146.296 211.499 146.279 211.525 146.253 211.516L142.517 208.255C142.517 208.255 142.482 208.203 142.482 208.186L142.551 202.749L142.56 202.741Z" fill="#92B6DA"/>
</g>
<g opacity="0.5">
<path d="M140.747 190.986C140.747 190.986 140.782 190.977 140.782 191.003L141.377 196.603C141.377 196.603 141.369 196.655 141.343 196.672L136.968 199.735C136.968 199.735 136.934 199.735 136.934 199.718L136.726 194.765C136.726 194.765 136.735 194.705 136.752 194.696L140.739 191.003L140.747 190.986Z" fill="#92B6DA"/>
</g>
<g opacity="0.5">
<path d="M126.932 182.129C126.932 182.129 126.967 182.129 126.958 182.155L125.164 187.496C125.164 187.496 125.129 187.539 125.103 187.548L119.848 188.506C119.848 188.506 119.814 188.497 119.822 188.471L121.703 183.881C121.703 183.881 121.738 183.837 121.764 183.829L126.932 182.138V182.129Z" fill="#92B6DA"/>
</g>
<g opacity="0.5">
<path d="M127.485 172.428C127.485 172.428 127.502 172.394 127.52 172.411L131.989 175.837C131.989 175.837 132.024 175.88 132.015 175.906L131.221 181.187C131.221 181.187 131.204 181.212 131.178 181.204L127.442 177.942C127.442 177.942 127.407 177.89 127.407 177.873L127.476 172.437L127.485 172.428Z" fill="#92B6DA"/>
</g>
<g opacity="0.5">
<path d="M125.664 160.677C125.664 160.677 125.699 160.669 125.699 160.694L126.294 166.294C126.294 166.294 126.285 166.346 126.259 166.364L121.885 169.427C121.885 169.427 121.85 169.427 121.85 169.409L121.643 164.457C121.643 164.457 121.652 164.396 121.669 164.388L125.655 160.694L125.664 160.677Z" fill="#92B6DA"/>
</g>
<g opacity="0.5">
<path d="M115.982 180.246C115.982 180.246 116.017 180.246 116.008 180.272L114.213 185.613C114.213 185.613 114.179 185.656 114.153 185.665L108.898 186.623C108.898 186.623 108.863 186.614 108.872 186.588L110.753 181.998C110.753 181.998 110.788 181.955 110.814 181.946L115.982 180.255V180.246Z" fill="#92B6DA"/>
</g>
<g opacity="0.5">
<path d="M116.526 170.557C116.526 170.557 116.543 170.523 116.561 170.54L121.03 173.966C121.03 173.966 121.065 174.009 121.056 174.035L120.262 179.315C120.262 179.315 120.245 179.341 120.219 179.333L116.483 176.071C116.483 176.071 116.448 176.019 116.448 176.002L116.517 170.566L116.526 170.557Z" fill="#92B6DA"/>
</g>
<g opacity="0.5">
<path d="M114.714 158.806C114.714 158.806 114.748 158.797 114.748 158.823L115.344 164.423C115.344 164.423 115.335 164.475 115.309 164.492L110.934 167.556C110.934 167.556 110.9 167.556 110.9 167.538L110.693 162.585C110.693 162.585 110.701 162.525 110.719 162.516L114.705 158.823L114.714 158.806Z" fill="#92B6DA"/>
</g>
<g opacity="0.5">
<path d="M149.687 185.48C149.687 185.48 149.722 185.48 149.713 185.506L147.918 190.848C147.918 190.848 147.884 190.891 147.858 190.899L142.603 191.857C142.603 191.857 142.568 191.849 142.577 191.823L144.458 187.232C144.458 187.232 144.493 187.189 144.518 187.18L149.687 185.489V185.48Z" fill="#92B6DA"/>
</g>
<g opacity="0.5">
<path d="M150.231 175.792C150.231 175.792 150.248 175.757 150.266 175.774L154.735 179.2C154.735 179.2 154.77 179.243 154.761 179.269L153.967 184.55C153.967 184.55 153.95 184.576 153.924 184.567L150.188 181.305C150.188 181.305 150.153 181.254 150.153 181.236L150.222 175.8L150.231 175.792Z" fill="#92B6DA"/>
</g>
<g opacity="0.5">
<path d="M148.419 164.04C148.419 164.04 148.453 164.032 148.453 164.058L149.049 169.658C149.049 169.658 149.04 169.71 149.014 169.727L144.639 172.79C144.639 172.79 144.605 172.79 144.605 172.773L144.398 167.82C144.398 167.82 144.406 167.759 144.423 167.751L148.41 164.058L148.419 164.04Z" fill="#92B6DA"/>
</g>
<g opacity="0.5">
<path d="M138.728 183.609C138.728 183.609 138.763 183.609 138.754 183.635L136.959 188.976C136.959 188.976 136.925 189.02 136.899 189.028L131.644 189.986C131.644 189.986 131.609 189.977 131.618 189.952L133.499 185.361C133.499 185.361 133.534 185.318 133.56 185.309L138.728 183.618V183.609Z" fill="#92B6DA"/>
</g>
<g opacity="0.5">
<path d="M139.281 173.913C139.281 173.913 139.298 173.878 139.315 173.895L143.785 177.321C143.785 177.321 143.819 177.364 143.811 177.39L143.017 182.671C143.017 182.671 143 182.697 142.974 182.688L139.237 179.426C139.237 179.426 139.203 179.375 139.203 179.357L139.272 173.921L139.281 173.913Z" fill="#92B6DA"/>
</g>
<g opacity="0.5">
<path d="M137.468 162.158C137.468 162.158 137.503 162.149 137.503 162.175L138.098 167.775C138.098 167.775 138.09 167.827 138.064 167.844L133.689 170.907C133.689 170.907 133.654 170.907 133.654 170.89L133.447 165.937C133.447 165.937 133.456 165.877 133.473 165.868L137.46 162.175L137.468 162.158Z" fill="#92B6DA"/>
</g>
<g opacity="0.5">
<path d="M129.59 212.855C129.59 212.855 129.625 212.855 129.616 212.881L127.821 218.223C127.821 218.223 127.787 218.266 127.761 218.274L122.506 219.232C122.506 219.232 122.471 219.224 122.48 219.198L124.361 214.607C124.361 214.607 124.395 214.564 124.421 214.555L129.59 212.864V212.855Z" fill="#92B6DA"/>
</g>
<g opacity="0.5">
<path d="M130.134 203.167C130.134 203.167 130.151 203.132 130.169 203.149L134.638 206.575C134.638 206.575 134.673 206.618 134.664 206.644L133.87 211.925C133.87 211.925 133.853 211.951 133.827 211.942L130.091 208.68C130.091 208.68 130.056 208.629 130.056 208.611L130.125 203.175L130.134 203.167Z" fill="#92B6DA"/>
</g>
<g opacity="0.5">
<path d="M128.322 191.412C128.322 191.412 128.356 191.403 128.356 191.429L128.951 197.029C128.951 197.029 128.943 197.081 128.917 197.098L124.542 200.161C124.542 200.161 124.508 200.161 124.508 200.144L124.301 195.191C124.301 195.191 124.309 195.131 124.326 195.122L128.313 191.429L128.322 191.412Z" fill="#92B6DA"/>
</g>
<g opacity="0.5">
<path d="M118.631 210.973C118.631 210.973 118.666 210.973 118.657 210.999L116.862 216.34C116.862 216.34 116.828 216.383 116.802 216.392L111.547 217.349C111.547 217.349 111.512 217.341 111.521 217.315L113.402 212.724C113.402 212.724 113.437 212.681 113.463 212.673L118.631 210.981V210.973Z" fill="#92B6DA"/>
</g>
<g opacity="0.5">
<path d="M119.183 201.284C119.183 201.284 119.201 201.249 119.218 201.267L123.688 204.692C123.688 204.692 123.722 204.735 123.714 204.761L122.92 210.042C122.92 210.042 122.902 210.068 122.877 210.059L119.14 206.798C119.14 206.798 119.106 206.746 119.106 206.729L119.175 201.292L119.183 201.284Z" fill="#92B6DA"/>
</g>
<g opacity="0.5">
<path d="M117.371 189.533C117.371 189.533 117.406 189.524 117.406 189.55L118.001 195.15C118.001 195.15 117.993 195.202 117.967 195.219L113.592 198.282C113.592 198.282 113.557 198.282 113.557 198.265L113.35 193.312C113.35 193.312 113.359 193.252 113.376 193.243L117.363 189.55L117.371 189.533Z" fill="#92B6DA"/>
</g>
<g opacity="0.5">
<path d="M170.724 189.297C170.724 189.297 170.759 189.297 170.75 189.323L168.955 194.664C168.955 194.664 168.921 194.707 168.895 194.716L163.64 195.674C163.64 195.674 163.606 195.665 163.614 195.639L165.495 191.049C165.495 191.049 165.53 191.005 165.556 190.997L170.724 189.306V189.297Z" fill="#92B6DA"/>
</g>
<g opacity="0.5">
<path d="M171.277 179.596C171.277 179.596 171.294 179.562 171.312 179.579L175.781 183.005C175.781 183.005 175.816 183.048 175.807 183.074L175.013 188.355C175.013 188.355 174.996 188.38 174.97 188.372L171.234 185.11C171.234 185.11 171.199 185.058 171.199 185.041L171.268 179.605L171.277 179.596Z" fill="#92B6DA"/>
</g>
<g opacity="0.5">
<path d="M169.465 167.845C169.465 167.845 169.499 167.836 169.499 167.862L170.095 173.462C170.095 173.462 170.086 173.514 170.06 173.532L165.685 176.595C165.685 176.595 165.651 176.595 165.651 176.577L165.444 171.625C165.444 171.625 165.452 171.564 165.469 171.556L169.456 167.862L169.465 167.845Z" fill="#92B6DA"/>
</g>
<g opacity="0.5">
<path d="M159.774 187.418C159.774 187.418 159.809 187.418 159.8 187.444L158.005 192.785C158.005 192.785 157.971 192.828 157.945 192.837L152.69 193.795C152.69 193.795 152.656 193.786 152.664 193.76L154.545 189.17C154.545 189.17 154.58 189.126 154.606 189.118L159.774 187.427V187.418Z" fill="#92B6DA"/>
</g>
<g opacity="0.5">
<path d="M160.327 177.725C160.327 177.725 160.344 177.691 160.361 177.708L164.831 181.134C164.831 181.134 164.865 181.177 164.857 181.203L164.063 186.483C164.063 186.483 164.046 186.509 164.02 186.501L160.284 183.239C160.284 183.239 160.249 183.187 160.249 183.17L160.318 177.734L160.327 177.725Z" fill="#92B6DA"/>
</g>
<g opacity="0.5">
<path d="M158.506 165.962C158.506 165.962 158.54 165.954 158.54 165.98L159.136 171.58C159.136 171.58 159.127 171.631 159.101 171.649L154.726 174.712C154.726 174.712 154.692 174.712 154.692 174.695L154.485 169.742C154.485 169.742 154.493 169.681 154.511 169.673L158.497 165.98L158.506 165.962Z" fill="#92B6DA"/>
</g>
<g opacity="0.5">
<path d="M173.831 198.134C173.831 198.134 173.866 198.126 173.866 198.151L174.461 203.752C174.461 203.752 174.452 203.803 174.426 203.821L170.052 206.884C170.052 206.884 170.017 206.884 170.017 206.867L169.81 201.914C169.81 201.914 169.819 201.853 169.836 201.845L173.822 198.151L173.831 198.134Z" fill="#92B6DA"/>
</g>
<g opacity="0.5">
<path d="M164.141 217.695C164.141 217.695 164.175 217.695 164.167 217.721L162.372 223.062C162.372 223.062 162.337 223.106 162.311 223.114L157.056 224.072C157.056 224.072 157.022 224.063 157.031 224.037L158.912 219.447C158.912 219.447 158.946 219.404 158.972 219.395L164.141 217.704V217.695Z" fill="#92B6DA"/>
</g>
<g opacity="0.5">
<path d="M164.684 208.006C164.684 208.006 164.701 207.972 164.719 207.989L169.188 211.415C169.188 211.415 169.223 211.458 169.214 211.484L168.42 216.765C168.42 216.765 168.403 216.791 168.377 216.782L164.641 213.52C164.641 213.52 164.606 213.469 164.606 213.451L164.675 208.015L164.684 208.006Z" fill="#92B6DA"/>
</g>
<g opacity="0.5">
<path d="M162.872 196.251C162.872 196.251 162.907 196.243 162.907 196.269L163.502 201.869C163.502 201.869 163.493 201.921 163.468 201.938L159.093 205.001C159.093 205.001 159.058 205.001 159.058 204.984L158.851 200.031C158.851 200.031 158.86 199.97 158.877 199.962L162.864 196.269L162.872 196.251Z" fill="#92B6DA"/>
</g>
<g opacity="0.5">
<path d="M169.051 157.465C169.051 157.465 169.085 157.465 169.076 157.491L167.282 162.832C167.282 162.832 167.247 162.875 167.221 162.884L161.966 163.842C161.966 163.842 161.932 163.833 161.94 163.807L163.822 159.216C163.822 159.216 163.856 159.173 163.882 159.165L169.051 157.473V157.465Z" fill="#92B6DA"/>
</g>
<g opacity="0.5">
<path d="M158.092 155.586C158.092 155.586 158.126 155.586 158.118 155.612L156.323 160.953C156.323 160.953 156.288 160.996 156.262 161.005L151.007 161.963C151.007 161.963 150.973 161.954 150.982 161.928L152.863 157.338C152.863 157.338 152.897 157.294 152.923 157.286L158.092 155.595V155.586Z" fill="#92B6DA"/>
</g>
<g opacity="0.5">
<path d="M158.644 145.897C158.644 145.897 158.661 145.863 158.679 145.88L163.148 149.305C163.148 149.305 163.183 149.349 163.174 149.374L162.38 154.655C162.38 154.655 162.363 154.681 162.337 154.673L158.601 151.411C158.601 151.411 158.566 151.359 158.566 151.342L158.635 145.906L158.644 145.897Z" fill="#92B6DA"/>
</g>
<g opacity="0.5">
<path d="M156.832 134.142C156.832 134.142 156.866 134.133 156.866 134.159L157.462 139.759C157.462 139.759 157.453 139.811 157.427 139.828L153.052 142.892C153.052 142.892 153.018 142.892 153.018 142.874L152.811 137.921C152.811 137.921 152.819 137.861 152.837 137.852L156.823 134.159L156.832 134.142Z" fill="#92B6DA"/>
</g>
<g opacity="0.5">
<path d="M146.632 153.91C146.632 153.91 146.667 153.91 146.658 153.936L144.863 159.277C144.863 159.277 144.829 159.32 144.803 159.329L139.548 160.287C139.548 160.287 139.513 160.278 139.522 160.252L141.403 155.662C141.403 155.662 141.438 155.619 141.463 155.61L146.632 153.919V153.91Z" fill="#92B6DA"/>
</g>
<g opacity="0.5">
<path d="M147.185 144.221C147.185 144.221 147.202 144.187 147.22 144.204L151.689 147.63C151.689 147.63 151.724 147.673 151.715 147.699L150.921 152.98C150.921 152.98 150.904 153.005 150.878 152.997L147.142 149.735C147.142 149.735 147.108 149.683 147.108 149.666L147.177 144.23L147.185 144.221Z" fill="#92B6DA"/>
</g>
<g opacity="0.5">
<path d="M145.373 132.466C145.373 132.466 145.407 132.458 145.407 132.483L146.002 138.084C146.002 138.084 145.994 138.135 145.968 138.153L141.593 141.216C141.593 141.216 141.559 141.216 141.559 141.199L141.352 136.246C141.352 136.246 141.36 136.185 141.377 136.177L145.364 132.483L145.373 132.466Z" fill="#92B6DA"/>
</g>
<g opacity="0.5">
<path d="M135.682 152.027C135.682 152.027 135.717 152.027 135.708 152.053L133.913 157.394C133.913 157.394 133.879 157.438 133.853 157.446L128.598 158.404C128.598 158.404 128.563 158.395 128.572 158.37L130.453 153.779C130.453 153.779 130.488 153.736 130.514 153.727L135.682 152.036V152.027Z" fill="#92B6DA"/>
</g>
<g opacity="0.5">
<path d="M136.226 142.339C136.226 142.339 136.243 142.304 136.26 142.321L140.73 145.747C140.73 145.747 140.764 145.79 140.756 145.816L139.962 151.097C139.962 151.097 139.945 151.123 139.919 151.114L136.183 147.852C136.183 147.852 136.148 147.801 136.148 147.783L136.217 142.347L136.226 142.339Z" fill="#92B6DA"/>
</g>
<g opacity="0.5">
<path d="M134.414 130.587C134.414 130.587 134.448 130.579 134.448 130.605L135.044 136.205C135.044 136.205 135.035 136.256 135.009 136.274L130.634 139.337C130.634 139.337 130.6 139.337 130.6 139.32L130.393 134.367C130.393 134.367 130.401 134.306 130.419 134.298L134.405 130.605L134.414 130.587Z" fill="#92B6DA"/>
</g>
<g opacity="0.5">
<path d="M124.222 150.527C124.222 150.527 124.257 150.527 124.248 150.553L122.454 155.894C122.454 155.894 122.419 155.938 122.393 155.946L117.138 156.904C117.138 156.904 117.104 156.895 117.112 156.87L118.993 152.279C118.993 152.279 119.028 152.236 119.054 152.227L124.222 150.536V150.527Z" fill="#92B6DA"/>
</g>
<g opacity="0.5">
<path d="M124.775 140.838C124.775 140.838 124.792 140.804 124.81 140.821L129.279 144.247C129.279 144.247 129.314 144.29 129.305 144.316L128.511 149.597C128.511 149.597 128.494 149.623 128.468 149.614L124.732 146.352C124.732 146.352 124.698 146.301 124.698 146.283L124.767 140.847L124.775 140.838Z" fill="#92B6DA"/>
</g>
<g opacity="0.5">
<path d="M122.963 129.087C122.963 129.087 122.998 129.079 122.998 129.105L123.593 134.705C123.593 134.705 123.584 134.756 123.558 134.774L119.184 137.837C119.184 137.837 119.149 137.837 119.149 137.82L118.942 132.867C118.942 132.867 118.951 132.806 118.968 132.798L122.954 129.105L122.963 129.087Z" fill="#92B6DA"/>
</g>
<g opacity="0.5">
<path d="M113.273 148.652C113.273 148.652 113.307 148.652 113.299 148.678L111.504 154.019C111.504 154.019 111.469 154.063 111.443 154.071L106.189 155.029C106.189 155.029 106.154 155.02 106.163 154.994L108.044 150.404C108.044 150.404 108.078 150.361 108.104 150.352L113.273 148.661V148.652Z" fill="#92B6DA"/>
</g>
<g opacity="0.5">
<path d="M113.825 138.956C113.825 138.956 113.842 138.921 113.859 138.938L118.329 142.364C118.329 142.364 118.364 142.407 118.355 142.433L117.561 147.714C117.561 147.714 117.544 147.74 117.518 147.731L113.782 144.469C113.782 144.469 113.747 144.418 113.747 144.4L113.816 138.964L113.825 138.956Z" fill="#92B6DA"/>
</g>
<g opacity="0.5">
<path d="M149.765 302.238C149.765 302.238 149.799 302.238 149.791 302.264L147.996 307.605C147.996 307.605 147.962 307.649 147.936 307.657L142.681 308.615C142.681 308.615 142.646 308.606 142.655 308.58L144.536 303.99C144.536 303.99 144.57 303.947 144.596 303.938L149.765 302.247V302.238Z" fill="#92B6DA"/>
</g>
<g opacity="0.5">
<path d="M150.309 292.542C150.309 292.542 150.326 292.507 150.343 292.524L154.813 295.95C154.813 295.95 154.847 295.993 154.839 296.019L154.045 301.3C154.045 301.3 154.028 301.326 154.002 301.317L150.266 298.055C150.266 298.055 150.231 298.004 150.231 297.986L150.3 292.55L150.309 292.542Z" fill="#92B6DA"/>
</g>
<g opacity="0.5">
<path d="M148.497 280.787C148.497 280.787 148.531 280.778 148.531 280.804L149.127 286.404C149.127 286.404 149.118 286.456 149.092 286.473L144.717 289.536C144.717 289.536 144.683 289.536 144.683 289.519L144.476 284.566C144.476 284.566 144.484 284.506 144.501 284.497L148.488 280.804L148.497 280.787Z" fill="#92B6DA"/>
</g>
<g opacity="0.5">
<path d="M138.806 300.359C138.806 300.359 138.84 300.359 138.832 300.385L137.037 305.726C137.037 305.726 137.002 305.77 136.977 305.778L131.722 306.736C131.722 306.736 131.687 306.727 131.696 306.702L133.577 302.111C133.577 302.111 133.611 302.068 133.637 302.059L138.806 300.368V300.359Z" fill="#92B6DA"/>
</g>
<g opacity="0.5">
<path d="M139.359 290.667C139.359 290.667 139.376 290.632 139.393 290.649L143.863 294.075C143.863 294.075 143.897 294.118 143.889 294.144L143.095 299.425C143.095 299.425 143.078 299.451 143.052 299.442L139.316 296.18C139.316 296.18 139.281 296.129 139.281 296.111L139.35 290.675L139.359 290.667Z" fill="#92B6DA"/>
</g>
<g opacity="0.5">
<path d="M137.546 278.908C137.546 278.908 137.581 278.899 137.581 278.925L138.176 284.525C138.176 284.525 138.167 284.577 138.142 284.594L133.767 287.657C133.767 287.657 133.732 287.657 133.732 287.64L133.525 282.687C133.525 282.687 133.534 282.627 133.551 282.618L137.538 278.925L137.546 278.908Z" fill="#92B6DA"/>
</g>
<g opacity="0.5">
<path d="M123.731 270.043C123.731 270.043 123.765 270.043 123.757 270.069L121.962 275.41C121.962 275.41 121.927 275.453 121.901 275.462L116.646 276.42C116.646 276.42 116.612 276.411 116.621 276.385L118.502 271.795C118.502 271.795 118.536 271.751 118.562 271.743L123.731 270.052V270.043Z" fill="#92B6DA"/>
</g>
<g opacity="0.5">
<path d="M124.275 260.354C124.275 260.354 124.292 260.32 124.309 260.337L128.779 263.762C128.779 263.762 128.814 263.806 128.805 263.832L128.011 269.112C128.011 269.112 127.994 269.138 127.968 269.13L124.232 265.868C124.232 265.868 124.197 265.816 124.197 265.799L124.266 260.363L124.275 260.354Z" fill="#92B6DA"/>
</g>
<g opacity="0.5">
<path d="M122.463 248.603C122.463 248.603 122.497 248.594 122.497 248.62L123.093 254.22C123.093 254.22 123.084 254.272 123.058 254.289L118.683 257.353C118.683 257.353 118.649 257.353 118.649 257.335L118.442 252.382C118.442 252.382 118.45 252.322 118.468 252.313L122.454 248.62L122.463 248.603Z" fill="#92B6DA"/>
</g>
<g opacity="0.5">
<path d="M112.772 268.172C112.772 268.172 112.807 268.172 112.798 268.198L111.003 273.539C111.003 273.539 110.969 273.582 110.943 273.591L105.688 274.549C105.688 274.549 105.653 274.54 105.662 274.514L107.543 269.924C107.543 269.924 107.578 269.88 107.604 269.872L112.772 268.181V268.172Z" fill="#92B6DA"/>
</g>
<g opacity="0.5">
<path d="M113.324 258.475C113.324 258.475 113.342 258.441 113.359 258.458L117.829 261.884C117.829 261.884 117.863 261.927 117.855 261.953L117.061 267.233C117.061 267.233 117.043 267.259 117.018 267.251L113.281 263.989C113.281 263.989 113.247 263.937 113.247 263.92L113.316 258.484L113.324 258.475Z" fill="#92B6DA"/>
</g>
<g opacity="0.5">
<path d="M111.512 246.72C111.512 246.72 111.547 246.711 111.547 246.737L112.142 252.337C112.142 252.337 112.134 252.389 112.108 252.407L107.733 255.47C107.733 255.47 107.699 255.47 107.699 255.452L107.491 250.5C107.491 250.5 107.5 250.439 107.517 250.431L111.504 246.737L111.512 246.72Z" fill="#92B6DA"/>
</g>
<g opacity="0.5">
<path d="M146.486 273.41C146.486 273.41 146.52 273.41 146.512 273.436L144.717 278.777C144.717 278.777 144.682 278.82 144.656 278.829L139.401 279.787C139.401 279.787 139.367 279.778 139.376 279.752L141.257 275.162C141.257 275.162 141.291 275.119 141.317 275.11L146.486 273.419V273.41Z" fill="#92B6DA"/>
</g>
<g opacity="0.5">
<path d="M145.217 251.962C145.217 251.962 145.252 251.954 145.252 251.98L145.847 257.58C145.847 257.58 145.839 257.631 145.813 257.649L141.438 260.712C141.438 260.712 141.403 260.712 141.403 260.695L141.196 255.742C141.196 255.742 141.205 255.681 141.222 255.673L145.209 251.98L145.217 251.962Z" fill="#92B6DA"/>
</g>
<g opacity="0.5">
<path d="M135.527 271.531C135.527 271.531 135.561 271.531 135.553 271.557L133.758 276.898C133.758 276.898 133.723 276.942 133.698 276.95L128.443 277.908C128.443 277.908 128.408 277.899 128.417 277.873L130.298 273.283C130.298 273.283 130.332 273.24 130.358 273.231L135.527 271.54V271.531Z" fill="#92B6DA"/>
</g>
<g opacity="0.5">
<path d="M136.079 261.842C136.079 261.842 136.096 261.808 136.114 261.825L140.583 265.251C140.583 265.251 140.618 265.294 140.609 265.32L139.815 270.601C139.815 270.601 139.798 270.627 139.772 270.618L136.036 267.356C136.036 267.356 136.001 267.304 136.001 267.287L136.07 261.851L136.079 261.842Z" fill="#92B6DA"/>
</g>
<g opacity="0.5">
<path d="M134.267 250.087C134.267 250.087 134.302 250.079 134.302 250.105L134.897 255.705C134.897 255.705 134.888 255.756 134.862 255.774L130.488 258.837C130.488 258.837 130.453 258.837 130.453 258.82L130.246 253.867C130.246 253.867 130.255 253.806 130.272 253.798L134.258 250.105L134.267 250.087Z" fill="#92B6DA"/>
</g>
<g opacity="0.5">
<path d="M126.933 291.081C126.933 291.081 126.95 291.046 126.967 291.063L131.437 294.489C131.437 294.489 131.471 294.532 131.463 294.558L130.669 299.839C130.669 299.839 130.652 299.865 130.626 299.856L126.889 296.595C126.889 296.595 126.855 296.543 126.855 296.525L126.924 291.089L126.933 291.081Z" fill="#92B6DA"/>
</g>
<g opacity="0.5">
<path d="M125.12 279.329C125.12 279.329 125.155 279.321 125.155 279.347L125.75 284.947C125.75 284.947 125.742 284.999 125.716 285.016L121.341 288.079C121.341 288.079 121.306 288.079 121.306 288.062L121.099 283.109C121.099 283.109 121.108 283.049 121.125 283.04L125.112 279.347L125.12 279.329Z" fill="#92B6DA"/>
</g>
<g opacity="0.5">
<path d="M115.982 289.202C115.982 289.202 115.999 289.167 116.017 289.185L120.486 292.61C120.486 292.61 120.521 292.653 120.512 292.679L119.718 297.96C119.718 297.96 119.701 297.986 119.675 297.977L115.939 294.716C115.939 294.716 115.904 294.664 115.904 294.647L115.973 289.21L115.982 289.202Z" fill="#92B6DA"/>
</g>
<g opacity="0.5">
<path d="M114.17 277.447C114.17 277.447 114.205 277.438 114.205 277.464L114.8 283.064C114.8 283.064 114.791 283.116 114.765 283.133L110.391 286.196C110.391 286.196 110.356 286.196 110.356 286.179L110.149 281.226C110.149 281.226 110.158 281.166 110.175 281.157L114.161 277.464L114.17 277.447Z" fill="#92B6DA"/>
</g>
<g opacity="0.5">
<path d="M171.889 307.504C171.889 307.504 171.924 307.504 171.915 307.53L170.12 312.871C170.12 312.871 170.086 312.914 170.06 312.923L164.805 313.881C164.805 313.881 164.77 313.872 164.779 313.846L166.66 309.256C166.66 309.256 166.695 309.212 166.72 309.204L171.889 307.513V307.504Z" fill="#92B6DA"/>
</g>
<g opacity="0.5">
<path d="M160.931 305.625C160.931 305.625 160.965 305.625 160.956 305.651L159.162 310.992C159.162 310.992 159.127 311.035 159.101 311.044L153.846 312.002C153.846 312.002 153.812 311.993 153.82 311.967L155.702 307.377C155.702 307.377 155.736 307.334 155.762 307.325L160.931 305.634V305.625Z" fill="#92B6DA"/>
</g>
<g opacity="0.5">
<path d="M161.483 295.932C161.483 295.932 161.5 295.898 161.517 295.915L165.987 299.341C165.987 299.341 166.021 299.384 166.013 299.41L165.219 304.69C165.219 304.69 165.202 304.716 165.176 304.708L161.44 301.446C161.44 301.446 161.405 301.394 161.405 301.377L161.474 295.941L161.483 295.932Z" fill="#92B6DA"/>
</g>
<g opacity="0.5">
<path d="M159.671 284.169C159.671 284.169 159.705 284.161 159.705 284.187L160.301 289.787C160.301 289.787 160.292 289.838 160.266 289.856L155.891 292.919C155.891 292.919 155.857 292.919 155.857 292.902L155.65 287.949C155.65 287.949 155.658 287.888 155.676 287.88L159.662 284.187L159.671 284.169Z" fill="#92B6DA"/>
</g>
<g opacity="0.5">
<path d="M164.581 223.943C164.581 223.943 164.615 223.934 164.615 223.96L165.211 229.56C165.211 229.56 165.202 229.612 165.176 229.629L160.801 232.692C160.801 232.692 160.767 232.692 160.767 232.675L160.56 227.722C160.56 227.722 160.568 227.662 160.586 227.653L164.572 223.96L164.581 223.943Z" fill="#92B6DA"/>
</g>
<g opacity="0.5">
<path d="M154.89 243.512C154.89 243.512 154.925 243.512 154.916 243.538L153.121 248.879C153.121 248.879 153.087 248.922 153.061 248.931L147.806 249.888C147.806 249.888 147.771 249.88 147.78 249.854L149.661 245.263C149.661 245.263 149.696 245.22 149.722 245.212L154.89 243.52V243.512Z" fill="#92B6DA"/>
</g>
<g opacity="0.5">
<path d="M155.443 233.815C155.443 233.815 155.46 233.781 155.477 233.798L159.947 237.223C159.947 237.223 159.981 237.267 159.973 237.292L159.179 242.573C159.179 242.573 159.162 242.599 159.136 242.591L155.399 239.329C155.399 239.329 155.365 239.277 155.365 239.26L155.434 233.824L155.443 233.815Z" fill="#92B6DA"/>
</g>
<g opacity="0.5">
<path d="M153.631 222.06C153.631 222.06 153.665 222.051 153.665 222.077L154.26 227.677C154.26 227.677 154.252 227.729 154.226 227.746L149.851 230.81C149.851 230.81 149.817 230.81 149.817 230.792L149.609 225.839C149.609 225.839 149.618 225.779 149.635 225.77L153.622 222.077L153.631 222.06Z" fill="#92B6DA"/>
</g>
<g opacity="0.5">
<path d="M143.431 241.84C143.431 241.84 143.465 241.84 143.457 241.866L141.662 247.207C141.662 247.207 141.627 247.25 141.601 247.259L136.346 248.217C136.346 248.217 136.312 248.208 136.321 248.182L138.202 243.591C138.202 243.591 138.236 243.548 138.262 243.54L143.431 241.848V241.84Z" fill="#92B6DA"/>
</g>
<g opacity="0.5">
<path d="M143.983 232.139C143.983 232.139 144.001 232.105 144.018 232.122L148.488 235.548C148.488 235.548 148.522 235.591 148.514 235.617L147.72 240.898C147.72 240.898 147.702 240.923 147.677 240.915L143.94 237.653C143.94 237.653 143.906 237.601 143.906 237.584L143.975 232.148L143.983 232.139Z" fill="#92B6DA"/>
</g>
<g opacity="0.5">
<path d="M142.163 220.384C142.163 220.384 142.197 220.376 142.197 220.401L142.792 226.002C142.792 226.002 142.784 226.053 142.758 226.071L138.383 229.134C138.383 229.134 138.349 229.134 138.349 229.117L138.141 224.164C138.141 224.164 138.15 224.103 138.167 224.095L142.154 220.401L142.163 220.384Z" fill="#92B6DA"/>
</g>
<g opacity="0.5">
<path d="M132.472 239.957C132.472 239.957 132.507 239.957 132.498 239.983L130.703 245.324C130.703 245.324 130.669 245.367 130.643 245.376L125.388 246.334C125.388 246.334 125.353 246.325 125.362 246.299L127.243 241.709C127.243 241.709 127.278 241.666 127.304 241.657L132.472 239.966V239.957Z" fill="#92B6DA"/>
</g>
<g opacity="0.5">
<path d="M133.024 230.264C133.024 230.264 133.042 230.23 133.059 230.247L137.529 233.673C137.529 233.673 137.563 233.716 137.554 233.742L136.761 239.022C136.761 239.022 136.743 239.048 136.717 239.04L132.981 235.778C132.981 235.778 132.947 235.726 132.947 235.709L133.016 230.273L133.024 230.264Z" fill="#92B6DA"/>
</g>
<g opacity="0.5">
<path d="M131.212 218.505C131.212 218.505 131.247 218.497 131.247 218.523L131.842 224.123C131.842 224.123 131.834 224.174 131.808 224.192L127.433 227.255C127.433 227.255 127.398 227.255 127.398 227.238L127.191 222.285C127.191 222.285 127.2 222.224 127.217 222.216L131.204 218.523L131.212 218.505Z" fill="#92B6DA"/>
</g>
<g opacity="0.5">
<path d="M121.021 238.453C121.021 238.453 121.056 238.453 121.047 238.479L119.252 243.82C119.252 243.82 119.218 243.863 119.192 243.872L113.937 244.83C113.937 244.83 113.903 244.821 113.911 244.795L115.792 240.205C115.792 240.205 115.827 240.162 115.853 240.153L121.021 238.462V238.453Z" fill="#92B6DA"/>
</g>
<g opacity="0.5">
<path d="M121.574 228.756C121.574 228.756 121.591 228.722 121.609 228.739L126.078 232.165C126.078 232.165 126.113 232.208 126.104 232.234L125.31 237.515C125.31 237.515 125.293 237.541 125.267 237.532L121.531 234.27C121.531 234.27 121.496 234.218 121.496 234.201L121.565 228.765L121.574 228.756Z" fill="#92B6DA"/>
</g>
<g opacity="0.5">
<path d="M119.761 217.005C119.761 217.005 119.796 216.997 119.796 217.023L120.391 222.623C120.391 222.623 120.383 222.674 120.357 222.692L115.982 225.755C115.982 225.755 115.947 225.755 115.947 225.738L115.74 220.785C115.74 220.785 115.749 220.724 115.766 220.716L119.753 217.023L119.761 217.005Z" fill="#92B6DA"/>
</g>
<g opacity="0.5">
<path d="M110.071 236.574C110.071 236.574 110.106 236.574 110.097 236.6L108.302 241.941C108.302 241.941 108.268 241.984 108.242 241.993L102.987 242.951C102.987 242.951 102.953 242.942 102.961 242.916L104.842 238.326C104.842 238.326 104.877 238.283 104.903 238.274L110.071 236.583V236.574Z" fill="#92B6DA"/>
</g>
<g opacity="0.5">
<path d="M110.615 226.885C110.615 226.885 110.632 226.851 110.65 226.868L115.119 230.294C115.119 230.294 115.154 230.337 115.145 230.363L114.351 235.644C114.351 235.644 114.334 235.669 114.308 235.661L110.572 232.399C110.572 232.399 110.537 232.347 110.537 232.33L110.606 226.894L110.615 226.885Z" fill="#92B6DA"/>
</g>
<g opacity="0.5">
<path d="M108.803 215.13C108.803 215.13 108.837 215.122 108.837 215.148L109.433 220.748C109.433 220.748 109.424 220.799 109.398 220.817L105.023 223.88C105.023 223.88 104.989 223.88 104.989 223.863L104.782 218.91C104.782 218.91 104.79 218.849 104.808 218.841L108.794 215.148L108.803 215.13Z" fill="#92B6DA"/>
</g>
</g>
<g opacity="0.5">
<g opacity="0.5">
<path d="M114.714 87.7234C114.714 87.7234 114.679 87.7407 114.679 87.7234L113.066 82.3218C113.066 82.3218 113.066 82.27 113.083 82.2528L116.819 78.4475C116.819 78.4475 116.854 78.4388 116.862 78.4561L117.976 83.2882C117.976 83.2882 117.976 83.3486 117.958 83.3659L114.714 87.7321V87.7234Z" fill="#92B6DA"/>
</g>
<g opacity="0.5">
<path d="M119.857 95.9564C119.857 95.9564 119.857 95.9909 119.839 95.9909L114.213 95.7752C114.213 95.7752 114.162 95.7579 114.153 95.732L111.754 90.9603C111.754 90.9603 111.754 90.9258 111.78 90.9258L116.716 91.4262C116.716 91.4262 116.768 91.4435 116.785 91.4694L119.865 95.9477L119.857 95.9564Z" fill="#92B6DA"/>
</g>
<g opacity="0.5">
<path d="M128.123 104.513C128.123 104.513 128.098 104.539 128.089 104.522L124.37 100.294C124.37 100.294 124.344 100.242 124.353 100.225L126.156 95.2029C126.156 95.2029 126.182 95.177 126.199 95.2029L129.228 99.129C129.228 99.129 129.254 99.1808 129.245 99.2067L128.115 104.531L128.123 104.513Z" fill="#92B6DA"/>
</g>
<g opacity="0.5">
<path d="M124.75 82.9422C124.75 82.9422 124.715 82.9594 124.715 82.9422L123.102 77.5405C123.102 77.5405 123.102 77.4888 123.119 77.4715L126.855 73.6662C126.855 73.6662 126.89 73.6576 126.898 73.6748L128.011 78.507C128.011 78.507 128.011 78.5674 127.994 78.5846L124.75 82.9508V82.9422Z" fill="#92B6DA"/>
</g>
<g opacity="0.5">
<path d="M129.892 91.1712C129.892 91.1712 129.892 91.2057 129.875 91.2057L124.249 90.99C124.249 90.99 124.197 90.9728 124.189 90.9469L121.79 86.1751C121.79 86.1751 121.79 86.1406 121.816 86.1406L126.752 86.6411C126.752 86.6411 126.803 86.6584 126.821 86.6842L129.901 91.1626L129.892 91.1712Z" fill="#92B6DA"/>
</g>
<g opacity="0.5">
<path d="M138.15 99.7243C138.15 99.7243 138.125 99.7502 138.116 99.7329L134.397 95.5048C134.397 95.5048 134.371 95.453 134.38 95.4358L136.183 90.4138C136.183 90.4138 136.209 90.388 136.226 90.4138L139.255 94.3399C139.255 94.3399 139.281 94.3917 139.272 94.4176L138.142 99.7416L138.15 99.7243Z" fill="#92B6DA"/>
</g>
<g opacity="0.5">
<path d="M134.034 109.372C134.034 109.372 134 109.389 134 109.372L132.386 103.97C132.386 103.97 132.386 103.918 132.403 103.901L136.14 100.096C136.14 100.096 136.174 100.087 136.183 100.105L137.296 104.937C137.296 104.937 137.296 104.997 137.279 105.014L134.034 109.38V109.372Z" fill="#92B6DA"/>
</g>
<g opacity="0.5">
<path d="M139.177 117.613C139.177 117.613 139.177 117.647 139.16 117.647L133.534 117.431C133.534 117.431 133.482 117.414 133.473 117.388L131.075 112.617C131.075 112.617 131.075 112.582 131.1 112.582L136.036 113.083C136.036 113.083 136.088 113.1 136.105 113.126L139.186 117.604L139.177 117.613Z" fill="#92B6DA"/>
</g>
<g opacity="0.5">
<path d="M147.435 126.166C147.435 126.166 147.409 126.192 147.401 126.174L143.682 121.946C143.682 121.946 143.656 121.894 143.664 121.877L145.468 116.855C145.468 116.855 145.494 116.829 145.511 116.855L148.54 120.781C148.54 120.781 148.566 120.833 148.557 120.859L147.427 126.183L147.435 126.166Z" fill="#92B6DA"/>
</g>
<g opacity="0.5">
<path d="M144.061 104.591C144.061 104.591 144.027 104.608 144.027 104.591L142.413 99.189C142.413 99.189 142.413 99.1372 142.431 99.12L146.167 95.3147C146.167 95.3147 146.201 95.306 146.21 95.3233L147.323 100.155C147.323 100.155 147.323 100.216 147.306 100.233L144.061 104.599V104.591Z" fill="#92B6DA"/>
</g>
<g opacity="0.5">
<path d="M149.204 112.824C149.204 112.824 149.204 112.858 149.187 112.858L143.561 112.642C143.561 112.642 143.509 112.625 143.501 112.599L141.102 107.827C141.102 107.827 141.102 107.793 141.128 107.793L146.063 108.293C146.063 108.293 146.115 108.311 146.132 108.337L149.213 112.815L149.204 112.824Z" fill="#92B6DA"/>
</g>
<g opacity="0.5">
<path d="M157.471 121.373C157.471 121.373 157.445 121.399 157.436 121.381L153.717 117.153C153.717 117.153 153.691 117.101 153.7 117.084L155.503 112.062C155.503 112.062 155.529 112.036 155.547 112.062L158.575 115.988C158.575 115.988 158.601 116.04 158.593 116.066L157.462 121.39L157.471 121.373Z" fill="#92B6DA"/>
</g>
<g opacity="0.5">
<path d="M134.656 75.4265C134.656 75.4265 134.621 75.4438 134.621 75.4265L133.007 70.0249C133.007 70.0249 133.007 69.9731 133.025 69.9559L136.761 66.1506C136.761 66.1506 136.795 66.142 136.804 66.1592L137.917 70.9914C137.917 70.9914 137.917 71.0517 137.9 71.069L134.656 75.4352V75.4265Z" fill="#92B6DA"/>
</g>
<g opacity="0.5">
<path d="M139.798 83.6556C139.798 83.6556 139.798 83.6901 139.781 83.6901L134.155 83.4744C134.155 83.4744 134.103 83.4571 134.095 83.4312L131.696 78.6595C131.696 78.6595 131.696 78.625 131.722 78.625L136.657 79.1255C136.657 79.1255 136.709 79.1427 136.727 79.1686L139.807 83.6469L139.798 83.6556Z" fill="#92B6DA"/>
</g>
<g opacity="0.5">
<path d="M148.056 92.2204C148.056 92.2204 148.03 92.2463 148.022 92.229L144.303 88.0009C144.303 88.0009 144.277 87.9492 144.285 87.9319L146.089 82.9099C146.089 82.9099 146.115 82.8841 146.132 82.9099L149.161 86.836C149.161 86.836 149.187 86.8878 149.178 86.9137L148.048 92.2377L148.056 92.2204Z" fill="#92B6DA"/>
</g>
<g opacity="0.5">
<path d="M144.683 70.6375C144.683 70.6375 144.648 70.6547 144.648 70.6375L143.034 65.2359C143.034 65.2359 143.034 65.1841 143.052 65.1668L146.788 61.3615C146.788 61.3615 146.822 61.3529 146.831 61.3702L147.944 66.2023C147.944 66.2023 147.944 66.2627 147.927 66.2799L144.683 70.6461V70.6375Z" fill="#92B6DA"/>
</g>
<g opacity="0.5">
<path d="M149.825 78.8782C149.825 78.8782 149.825 78.9128 149.808 78.9128L144.182 78.697C144.182 78.697 144.13 78.6798 144.121 78.6539L141.723 73.8822C141.723 73.8822 141.723 73.8477 141.749 73.8477L146.684 74.3481C146.684 74.3481 146.736 74.3654 146.753 74.3913L149.834 78.8696L149.825 78.8782Z" fill="#92B6DA"/>
</g>
<g opacity="0.5">
<path d="M158.092 87.4274C158.092 87.4274 158.066 87.4533 158.058 87.4361L154.338 83.208C154.338 83.208 154.313 83.1562 154.321 83.1389L156.125 78.117C156.125 78.117 156.151 78.0911 156.168 78.117L159.196 82.0431C159.196 82.0431 159.222 82.0948 159.214 82.1207L158.083 87.4447L158.092 87.4274Z" fill="#92B6DA"/>
</g>
<g opacity="0.5">
<path d="M114.645 118.403C114.645 118.403 114.61 118.42 114.61 118.403L112.997 113.001C112.997 113.001 112.997 112.95 113.014 112.932L116.75 109.127C116.75 109.127 116.785 109.119 116.793 109.136L117.906 113.968C117.906 113.968 117.906 114.028 117.889 114.046L114.645 118.412V118.403Z" fill="#92B6DA"/>
</g>
<g opacity="0.5">
<path d="M119.788 126.636C119.788 126.636 119.788 126.671 119.77 126.671L114.144 126.455C114.144 126.455 114.093 126.438 114.084 126.412L111.685 121.64C111.685 121.64 111.685 121.605 111.711 121.605L116.647 122.106C116.647 122.106 116.699 122.123 116.716 122.149L119.796 126.627L119.788 126.636Z" fill="#92B6DA"/>
</g>
<g opacity="0.5">
<path d="M128.054 135.197C128.054 135.197 128.028 135.223 128.02 135.206L124.301 130.977C124.301 130.977 124.275 130.926 124.283 130.908L126.087 125.887C126.087 125.887 126.113 125.861 126.13 125.887L129.159 129.813C129.159 129.813 129.185 129.864 129.176 129.89L128.046 135.214L128.054 135.197Z" fill="#92B6DA"/>
</g>
<g opacity="0.5">
<path d="M124.681 113.614C124.681 113.614 124.646 113.631 124.646 113.614L123.032 108.212C123.032 108.212 123.032 108.161 123.05 108.143L126.786 104.338C126.786 104.338 126.821 104.329 126.829 104.347L127.942 109.179C127.942 109.179 127.942 109.239 127.925 109.257L124.681 113.623V113.614Z" fill="#92B6DA"/>
</g>
<g opacity="0.5">
<path d="M129.823 121.855C129.823 121.855 129.823 121.889 129.806 121.889L124.18 121.674C124.18 121.674 124.128 121.656 124.12 121.63L121.721 116.859C121.721 116.859 121.721 116.824 121.747 116.824L126.683 117.325C126.683 117.325 126.734 117.342 126.752 117.368L129.832 121.846L129.823 121.855Z" fill="#92B6DA"/>
</g>
<g opacity="0.5">
<path d="M138.081 130.408C138.081 130.408 138.056 130.434 138.047 130.417L134.328 126.188C134.328 126.188 134.302 126.137 134.311 126.119L136.114 121.097C136.114 121.097 136.14 121.072 136.157 121.097L139.186 125.024C139.186 125.024 139.212 125.075 139.203 125.101L138.073 130.425L138.081 130.408Z" fill="#92B6DA"/>
</g>
<g opacity="0.5">
<path d="M107.017 112.978C107.017 112.978 106.991 113.004 106.982 112.987L103.263 108.759C103.263 108.759 103.237 108.707 103.246 108.69L105.049 103.668C105.049 103.668 105.075 103.642 105.092 103.668L108.121 107.594C108.121 107.594 108.147 107.646 108.138 107.672L107.008 112.995L107.017 112.978Z" fill="#92B6DA"/>
</g>
<g opacity="0.5">
<path d="M103.634 91.407C103.634 91.407 103.6 91.4243 103.6 91.407L101.986 86.0054C101.986 86.0054 101.986 85.9536 102.003 85.9364L105.74 82.1311C105.74 82.1311 105.774 82.1224 105.783 82.1397L106.896 86.9718C106.896 86.9718 106.896 87.0322 106.879 87.0495L103.634 91.4156V91.407Z" fill="#92B6DA"/>
</g>
<g opacity="0.5">
<path d="M108.786 99.636C108.786 99.636 108.786 99.6706 108.768 99.6706L103.142 99.4548C103.142 99.4548 103.091 99.4376 103.082 99.4117L100.683 94.64C100.683 94.64 100.683 94.6055 100.709 94.6055L105.645 95.1059C105.645 95.1059 105.696 95.1232 105.714 95.1491L108.794 99.6274L108.786 99.636Z" fill="#92B6DA"/>
</g>
<g opacity="0.5">
<path d="M117.044 108.189C117.044 108.189 117.018 108.215 117.009 108.198L113.29 103.97C113.29 103.97 113.264 103.918 113.273 103.901L115.076 98.8787C115.076 98.8787 115.102 98.8528 115.119 98.8787L118.148 102.805C118.148 102.805 118.174 102.857 118.165 102.882L117.035 108.206L117.044 108.189Z" fill="#92B6DA"/>
</g>
<g opacity="0.5">
<path d="M80.008 30.8493C80.008 30.8493 79.9821 30.8752 79.9735 30.8579L76.2545 26.6298C76.2545 26.6298 76.2286 26.5781 76.2372 26.5608L78.0406 21.5388C78.0406 21.5388 78.0665 21.513 78.0838 21.5388L81.1125 25.4649C81.1125 25.4649 81.1384 25.5167 81.1297 25.5426L79.9994 30.8666L80.008 30.8493Z" fill="#92B6DA"/>
</g>
<g opacity="0.5">
<path d="M76.6255 9.27811C76.6255 9.27811 76.591 9.29537 76.591 9.27811L74.9774 3.87649C74.9774 3.87649 74.9774 3.82472 74.9947 3.80746L78.7309 0.00215957C78.7309 0.00215957 78.7655 -0.00647396 78.7741 0.0107836L79.8872 4.84291C79.8872 4.84291 79.8872 4.90331 79.8699 4.92057L76.6255 9.28674V9.27811Z" fill="#92B6DA"/>
</g>
<g opacity="0.5">
<path d="M81.7769 17.5071C81.7769 17.5071 81.7769 17.5417 81.7596 17.5417L76.1336 17.3259C76.1336 17.3259 76.0819 17.3087 76.0732 17.2828L73.6744 12.5111C73.6744 12.5111 73.6744 12.4766 73.7003 12.4766L78.636 12.977C78.636 12.977 78.6878 12.9943 78.705 13.0202L81.7855 17.4985L81.7769 17.5071Z" fill="#92B6DA"/>
</g>
<g opacity="0.5">
<path d="M90.0344 26.072C90.0344 26.072 90.0085 26.0979 89.9999 26.0806L86.2809 21.8525C86.2809 21.8525 86.255 21.8007 86.2636 21.7835L88.067 16.7615C88.067 16.7615 88.0929 16.7356 88.1102 16.7615L91.1389 20.6876C91.1389 20.6876 91.1648 20.7394 91.1561 20.7653L90.0257 26.0892L90.0344 26.072Z" fill="#92B6DA"/>
</g>
<g opacity="0.5">
<path d="M106.439 25.3367C106.439 25.3367 106.404 25.354 106.404 25.3367L104.791 19.9351C104.791 19.9351 104.791 19.8833 104.808 19.8661L108.544 16.0608C108.544 16.0608 108.579 16.0521 108.587 16.0694L109.7 20.9015C109.7 20.9015 109.7 20.9619 109.683 20.9792L106.439 25.3453V25.3367Z" fill="#92B6DA"/>
</g>
<g opacity="0.5">
<path d="M111.581 33.5657C111.581 33.5657 111.581 33.6003 111.564 33.6003L105.938 33.3845C105.938 33.3845 105.886 33.3673 105.878 33.3414L103.479 28.5697C103.479 28.5697 103.479 28.5352 103.505 28.5352L108.44 29.0356C108.44 29.0356 108.492 29.0529 108.509 29.0788L111.59 33.5571L111.581 33.5657Z" fill="#92B6DA"/>
</g>
<g opacity="0.5">
<path d="M119.839 42.1188C119.839 42.1188 119.813 42.1447 119.804 42.1275L116.085 37.8994C116.085 37.8994 116.06 37.8476 116.068 37.8303L117.872 32.8084C117.872 32.8084 117.897 32.7825 117.915 32.8084L120.943 36.7345C120.943 36.7345 120.969 36.7863 120.961 36.8121L119.83 42.1361L119.839 42.1188Z" fill="#92B6DA"/>
</g>
<g opacity="0.5">
<path d="M116.465 20.5437C116.465 20.5437 116.43 20.561 116.43 20.5437L114.817 15.1421C114.817 15.1421 114.817 15.0903 114.834 15.0731L118.57 11.2678C118.57 11.2678 118.605 11.2592 118.614 11.2764L119.727 16.1085C119.727 16.1085 119.727 16.1689 119.709 16.1862L116.465 20.5524V20.5437Z" fill="#92B6DA"/>
</g>
<g opacity="0.5">
<path d="M121.608 28.7767C121.608 28.7767 121.608 28.8112 121.591 28.8112L115.965 28.5955C115.965 28.5955 115.913 28.5782 115.904 28.5523L113.506 23.7806C113.506 23.7806 113.506 23.7461 113.532 23.7461L118.467 24.2466C118.467 24.2466 118.519 24.2638 118.536 24.2897L121.617 28.768L121.608 28.7767Z" fill="#92B6DA"/>
</g>
<g opacity="0.5">
<path d="M129.875 37.3376C129.875 37.3376 129.849 37.3635 129.84 37.3462L126.121 33.1181C126.121 33.1181 126.095 33.0664 126.104 33.0491L127.907 28.0271C127.907 28.0271 127.933 28.0012 127.951 28.0271L130.979 31.9532C130.979 31.9532 131.005 32.005 130.997 32.0309L129.866 37.3549L129.875 37.3376Z" fill="#92B6DA"/>
</g>
<g opacity="0.5">
<path d="M85.9099 35.7156C85.9099 35.7156 85.8754 35.7329 85.8754 35.7156L84.2618 30.314C84.2618 30.314 84.2619 30.2622 84.2791 30.245L88.0154 26.4397C88.0154 26.4397 88.0499 26.431 88.0585 26.4483L89.1716 31.2804C89.1716 31.2804 89.1716 31.3408 89.1544 31.3581L85.9099 35.7242V35.7156Z" fill="#92B6DA"/>
</g>
<g opacity="0.5">
<path d="M99.3195 52.5095C99.3195 52.5095 99.2936 52.5354 99.285 52.5181L95.566 48.29C95.566 48.29 95.5401 48.2382 95.5488 48.221L97.3522 43.199C97.3522 43.199 97.378 43.1731 97.3953 43.199L100.424 47.1251C100.424 47.1251 100.45 47.1769 100.441 47.2028L99.3109 52.5267L99.3195 52.5095Z" fill="#92B6DA"/>
</g>
<g opacity="0.5">
<path d="M95.9455 30.9265C95.9455 30.9265 95.9109 30.9438 95.9109 30.9265L94.2974 25.5249C94.2974 25.5249 94.2974 25.4731 94.3146 25.4559L98.0509 21.6506C98.0509 21.6506 98.0854 21.642 98.094 21.6592L99.2071 26.4913C99.2071 26.4913 99.2072 26.5517 99.1899 26.569L95.9455 30.9352V30.9265Z" fill="#92B6DA"/>
</g>
<g opacity="0.5">
<path d="M101.089 39.1673C101.089 39.1673 101.089 39.2018 101.071 39.2018L95.4453 38.9861C95.4453 38.9861 95.3935 38.9688 95.3849 38.943L92.9861 34.1712C92.9861 34.1712 92.9861 34.1367 93.012 34.1367L97.9476 34.6372C97.9476 34.6372 97.9994 34.6545 98.0167 34.6803L101.097 39.1587L101.089 39.1673Z" fill="#92B6DA"/>
</g>
<g opacity="0.5">
<path d="M109.355 47.7204C109.355 47.7204 109.329 47.7463 109.321 47.729L105.602 43.5009C105.602 43.5009 105.576 43.4492 105.584 43.4319L107.388 38.4099C107.388 38.4099 107.414 38.3841 107.431 38.4099L110.46 42.336C110.46 42.336 110.486 42.3878 110.477 42.4137L109.347 47.7377L109.355 47.7204Z" fill="#92B6DA"/>
</g>
<g opacity="0.5">
<path d="M91.6826 10.0032C91.6826 10.0032 91.6827 10.0378 91.6654 10.0378L86.0394 9.82205C86.0394 9.82205 85.9877 9.80479 85.979 9.7789L83.5802 5.00718C83.5802 5.00718 83.5802 4.97266 83.6061 4.97266L88.5418 5.47313C88.5418 5.47313 88.5935 5.49039 88.6108 5.51627L91.6913 9.99462L91.6826 10.0032Z" fill="#92B6DA"/>
</g>
<g opacity="0.5">
<path d="M99.9409 18.5524C99.9409 18.5524 99.915 18.5783 99.9064 18.5611L96.1873 14.333C96.1873 14.333 96.1615 14.2812 96.1701 14.2639L97.9735 9.24197C97.9735 9.24197 97.9994 9.21609 98.0166 9.24197L101.045 13.1681C101.045 13.1681 101.071 13.2198 101.063 13.2457L99.9322 18.5697L99.9409 18.5524Z" fill="#92B6DA"/>
</g>
<g opacity="0.5">
<path d="M101.71 5.21026C101.71 5.21026 101.71 5.24478 101.693 5.24478L96.0666 5.02906C96.0666 5.02906 96.0149 5.0118 96.0062 4.98592L93.6074 0.214197C93.6074 0.214197 93.6074 0.179688 93.6333 0.179688L98.569 0.680146C98.569 0.680146 98.6207 0.697406 98.638 0.723292L101.718 5.20164L101.71 5.21026Z" fill="#92B6DA"/>
</g>
<g opacity="0.5">
<path d="M109.977 13.7712C109.977 13.7712 109.951 13.7971 109.942 13.7798L106.223 9.55171C106.223 9.55171 106.197 9.49995 106.206 9.48269L108.009 4.46072C108.009 4.46072 108.035 4.43484 108.052 4.46072L111.081 8.38683C111.081 8.38683 111.107 8.4386 111.098 8.46448L109.968 13.7884L109.977 13.7712Z" fill="#92B6DA"/>
</g>
<g opacity="0.5">
<path d="M99.6734 86.5641C99.6734 86.5641 99.6475 86.59 99.6389 86.5728L95.9199 82.3447C95.9199 82.3447 95.894 82.2929 95.9026 82.2756L97.7061 77.2537C97.7061 77.2537 97.7319 77.2278 97.7492 77.2537L100.778 81.1798C100.778 81.1798 100.804 81.2316 100.795 81.2574L99.6648 86.5814L99.6734 86.5641Z" fill="#92B6DA"/>
</g>
<g opacity="0.5">
<path d="M96.2995 64.9851C96.2995 64.9851 96.2649 65.0024 96.2649 64.9851L94.6514 59.5835C94.6514 59.5835 94.6514 59.5317 94.6686 59.5145L98.4049 55.7092C98.4049 55.7092 98.4394 55.7006 98.448 55.7178L99.5612 60.5499C99.5612 60.5499 99.5611 60.6103 99.5439 60.6276L96.2995 64.9938V64.9851Z" fill="#92B6DA"/>
</g>
<g opacity="0.5">
<path d="M101.442 73.2259C101.442 73.2259 101.442 73.2604 101.425 73.2604L95.799 73.0447C95.799 73.0447 95.7473 73.0274 95.7386 73.0015L93.3398 68.2298C93.3398 68.2298 93.3398 68.1953 93.3657 68.1953L98.3014 68.6958C98.3014 68.6958 98.3532 68.713 98.3704 68.7389L101.451 73.2173L101.442 73.2259Z" fill="#92B6DA"/>
</g>
<g opacity="0.5">
<path d="M109.7 81.7751C109.7 81.7751 109.674 81.801 109.665 81.7837L105.946 77.5556C105.946 77.5556 105.92 77.5039 105.929 77.4866L107.732 72.4646C107.732 72.4646 107.758 72.4387 107.776 72.4646L110.804 76.3907C110.804 76.3907 110.83 76.4425 110.822 76.4684L109.691 81.7924L109.7 81.7751Z" fill="#92B6DA"/>
</g>
<g opacity="0.5">
<path d="M106.628 59.7508C106.628 59.7508 106.594 59.768 106.594 59.7508L104.98 54.3491C104.98 54.3491 104.98 54.2974 104.997 54.2801L108.734 50.4748C108.734 50.4748 108.768 50.4662 108.777 50.4834L109.89 55.3156C109.89 55.3156 109.89 55.376 109.873 55.3932L106.628 59.7594V59.7508Z" fill="#92B6DA"/>
</g>
<g opacity="0.5">
<path d="M111.771 67.9798C111.771 67.9798 111.771 68.0143 111.754 68.0143L106.128 67.7986C106.128 67.7986 106.076 67.7813 106.068 67.7555L103.669 62.9837C103.669 62.9837 103.669 62.9492 103.695 62.9492L108.63 63.4497C108.63 63.4497 108.682 63.467 108.699 63.4928L111.78 67.9712L111.771 67.9798Z" fill="#92B6DA"/>
</g>
<g opacity="0.5">
<path d="M120.029 76.5329C120.029 76.5329 120.003 76.5588 119.994 76.5415L116.275 72.3134C116.275 72.3134 116.249 72.2617 116.258 72.2444L118.062 67.2224C118.062 67.2224 118.087 67.1966 118.105 67.2224L121.133 71.1485C121.133 71.1485 121.159 71.2003 121.151 71.2262L120.02 76.5502L120.029 76.5329Z" fill="#92B6DA"/>
</g>
<g opacity="0.5">
<path d="M116.655 54.9578C116.655 54.9578 116.62 54.9751 116.62 54.9578L115.007 49.5562C115.007 49.5562 115.007 49.5044 115.024 49.4871L118.76 45.6818C118.76 45.6818 118.795 45.6732 118.803 45.6905L119.917 50.5226C119.917 50.5226 119.917 50.583 119.899 50.6003L116.655 54.9664V54.9578Z" fill="#92B6DA"/>
</g>
<g opacity="0.5">
<path d="M121.798 63.1907C121.798 63.1907 121.798 63.2253 121.78 63.2253L116.154 63.0095C116.154 63.0095 116.103 62.9923 116.094 62.9664L113.695 58.1947C113.695 58.1947 113.695 58.1602 113.721 58.1602L118.657 58.6606C118.657 58.6606 118.709 58.6779 118.726 58.7038L121.806 63.1821L121.798 63.1907Z" fill="#92B6DA"/>
</g>
<g opacity="0.5">
<path d="M130.065 71.7438C130.065 71.7438 130.039 71.7697 130.03 71.7525L126.311 67.5244C126.311 67.5244 126.285 67.4726 126.294 67.4553L128.097 62.4334C128.097 62.4334 128.123 62.4075 128.141 62.4334L131.169 66.3595C131.169 66.3595 131.195 66.4113 131.187 66.4371L130.056 71.7611L130.065 71.7438Z" fill="#92B6DA"/>
</g>
<g opacity="0.5">
<path d="M126.872 49.575C126.872 49.575 126.837 49.5922 126.837 49.575L125.224 44.1734C125.224 44.1734 125.224 44.1216 125.241 44.1043L128.977 40.299C128.977 40.299 129.012 40.2904 129.021 40.3077L130.134 45.1398C130.134 45.1398 130.134 45.2002 130.116 45.2174L126.872 49.5836V49.575Z" fill="#92B6DA"/>
</g>
<g opacity="0.5">
<path d="M132.023 57.8157C132.023 57.8157 132.023 57.8503 132.006 57.8503L126.38 57.6345C126.38 57.6345 126.328 57.6173 126.32 57.5914L123.921 52.8197C123.921 52.8197 123.921 52.7852 123.947 52.7852L128.882 53.2856C128.882 53.2856 128.934 53.3029 128.951 53.3288L132.032 57.8071L132.023 57.8157Z" fill="#92B6DA"/>
</g>
<g opacity="0.5">
<path d="M140.281 66.3649C140.281 66.3649 140.255 66.3908 140.247 66.3736L136.528 62.1455C136.528 62.1455 136.502 62.0937 136.51 62.0764L138.314 57.0545C138.314 57.0545 138.34 57.0286 138.357 57.0545L141.386 60.9806C141.386 60.9806 141.411 61.0323 141.403 61.0582L140.272 66.3822L140.281 66.3649Z" fill="#92B6DA"/>
</g>
<g opacity="0.5">
<path d="M136.907 44.7937C136.907 44.7937 136.873 44.811 136.873 44.7937L135.259 39.3921C135.259 39.3921 135.259 39.3403 135.277 39.3231L139.013 35.5178C139.013 35.5178 139.047 35.5092 139.056 35.5264L140.169 40.3585C140.169 40.3585 140.169 40.4189 140.152 40.4362L136.907 44.8024V44.7937Z" fill="#92B6DA"/>
</g>
<g opacity="0.5">
<path d="M142.05 53.0228C142.05 53.0228 142.05 53.0573 142.033 53.0573L136.407 52.8416C136.407 52.8416 136.355 52.8243 136.347 52.7984L133.948 48.0267C133.948 48.0267 133.948 47.9922 133.974 47.9922L138.909 48.4927C138.909 48.4927 138.961 48.5099 138.978 48.5358L142.059 53.0142L142.05 53.0228Z" fill="#92B6DA"/>
</g>
<g opacity="0.5">
<path d="M150.317 61.5759C150.317 61.5759 150.291 61.6018 150.282 61.5845L146.563 57.3564C146.563 57.3564 146.538 57.3046 146.546 57.2874L148.35 52.2654C148.35 52.2654 148.376 52.2395 148.393 52.2654L151.421 56.1915C151.421 56.1915 151.447 56.2433 151.439 56.2692L150.308 61.5931L150.317 61.5759Z" fill="#92B6DA"/>
</g>
</g>
<mask id="mask0_262_14442" style="mask-type:alpha" maskUnits="userSpaceOnUse" x="0" y="350" width="340" height="167">
<path d="M338.62 516.056H220.309L197.112 494.544L196.359 493.846L196.274 494.868L194.505 516.056H136.44L128.717 508.891L127.966 508.194L127.879 509.215L127.293 516.056H110.763L106.512 507.805L106.249 507.294L105.779 507.625L93.8291 516.056H78.2988L63.4385 487.312L62.6406 485.77L62.4961 487.5L60.1016 516.056H45.2588L17.0996 502.679L16.4473 502.368L16.3867 503.089L15.3076 516.056H0.5V357.145C16.0941 361.125 35.5419 364.488 57.7764 367.027V367.026C60.4824 367.358 63.2403 367.655 66.0498 367.935L79.8604 379.111L80.6748 379.771V369.282C84.0805 369.578 87.5514 369.844 91.0605 370.086L124.556 397.191L125.37 397.851V371.817C136.183 372.187 147.323 372.359 158.663 372.359H161.494L169.088 396.941L170.065 396.794V372.292C174.448 372.255 178.8 372.177 183.09 372.058L183.089 372.057C186.07 371.995 189.008 371.915 191.935 371.817C197.698 371.634 203.387 371.4 208.982 371.105L213.847 378.977L214.145 379.46L214.586 379.103L225.684 370.121C230.938 369.75 236.069 369.337 241.116 368.891L258.53 397.066L259.456 398.563V367.046C263.106 366.63 266.687 366.185 270.207 365.73L303.463 379.187L304.151 379.465V360.08C309.795 358.9 315.045 357.661 319.893 356.349L325.679 361.031L325.983 360.653L326.297 361.04L326.788 360.643L326.787 360.642L338.62 351.066V516.056Z" fill="#C59B6D" stroke="#C59B6D"/>
</mask>
<g mask="url(#mask0_262_14442)">
<path d="M83.3909 16.8426L83.4512 23.9614C83.5116 31.3304 88.2404 37.2583 94.0045 37.2066L99.4581 37.1548C104.204 37.1117 108.372 41.1586 109.64 47.0003C113.256 63.6625 119.564 100.559 118.649 151.935C117.441 219.878 91.3209 275.939 87.8003 282.074C87.6104 282.411 87.4379 282.739 87.2739 283.093L11.5371 400.47C10.7691 401.695 7.66267 409.996 7.26574 411.48C6.54953 414.19 6.5409 417.158 7.26574 419.919C15.1785 450.12 64.1309 613.575 120.78 615.327C201.548 617.829 237.531 617.812 244.27 613.748C245.064 613.273 245.78 612.687 246.453 611.97C255.98 601.875 320.982 507.959 333.503 412.568C333.891 409.591 333.028 406.579 331.682 404.094C309.41 362.943 263.608 312.966 245.866 274.472C227.53 234.702 216.079 173.749 215.889 151.97C215.743 134.997 215.95 73.8531 216.804 47.6906C217.028 40.8652 221.257 35.3859 226.598 34.9976C232.785 34.5489 237.997 27.6976 238.169 19.7764L238.23 17.0411C238.394 9.50815 233.639 3.26953 227.746 3.26953L93.7888 3.39033C87.9987 3.39033 83.3391 9.42187 83.4081 16.8254L83.3909 16.8426Z" fill="#C59B6D" stroke="#C59B6D" stroke-width="9" stroke-miterlimit="10"/>
</g>
<path d="M144.617 485.91C139.021 486.071 135.042 482.753 134.93 477.521C134.705 466.684 141.002 456.837 147.825 447.72C140.695 437.245 130.691 424.447 135.105 412.617C143.526 403.083 163.642 414.254 174.141 421.741C181.906 415.664 190.242 410.91 199.801 408.617C203.393 407.756 207.163 407.865 210.344 409.71C214.184 412.478 214.629 416.838 213.776 421.229C211.967 430.55 206.952 438.693 200.967 446.696C207.964 455.86 216.345 467.771 214.794 478.777C213.949 482.498 211.223 484.56 207.404 484.99C196.247 486.252 184.316 478.536 174.605 472.578C166.115 478.989 155.042 485.604 144.609 485.909L144.617 485.91Z" fill="#603813"/>
<path d="M177.192 384.683C182.265 396.66 181.54 411.596 180.873 425.789C180.728 428.776 177.617 431.717 179.888 435.53C189.522 420.566 184.081 424.308 202.761 418.649C195.349 436.896 202.936 430.974 186.556 440.975C190.335 442.84 193.205 440.864 196.471 440.474C213.044 438.507 229.646 439.481 246.249 446.523C226.671 455.038 205.68 454.862 184.391 450.456C194.277 457.191 189.77 454.208 196.902 463.43C195.911 463.343 197.843 461.376 200.365 469.938C180.824 462.823 190.963 474.223 179.743 457.738C177.878 461.319 180.584 464.343 180.777 467.488C181.705 483.156 182.439 500.42 174.331 514.938C169.344 505.736 168.262 496.18 167.364 486.561C166.358 475.892 168.156 466.662 170.466 455.818C159.246 471.913 170.295 466.218 150.29 472.238C158.572 452.73 146.664 461.319 164.609 450.53C152.307 452.598 141.638 454.407 130.022 453.007C120.717 451.884 111.255 451.217 102.751 446.411C122.118 438.081 141.03 438.637 162.377 441.55C145.601 430.047 153.937 437.384 146.457 417.959C165.688 424.693 158.801 419.954 170.021 436.819L167.421 419.425C165.711 407.959 168.92 390.138 173.413 379.127C176.119 378.608 176.853 382.364 177.201 384.683L177.192 384.683Z" fill="#603813"/>
<rect x="94.3186" y="516.445" width="15.9762" height="0.101597" fill="#215523" stroke="#FD9D07" stroke-width="0.101597"/>
<rect x="94.5514" y="516.334" width="15.6811" height="0.136765" fill="#215523" stroke="#FD9D07" stroke-width="0.136765"/>
<line y1="-0.5" x2="0.357321" y2="-0.5" transform="matrix(0.898794 -0.438371 0.465074 0.885272 110.286 516.945)" stroke="#FD9D07"/>
<line y1="-0.5" x2="0.349388" y2="-0.5" transform="matrix(-0.572058 -0.820213 0.8416 -0.540102 94.6792 516.527)" stroke="#FD9D07"/>
</svg>
