<?xml version="1.0" encoding="UTF-8"?><svg id="a" xmlns="http://www.w3.org/2000/svg" viewBox="0 0 141.6677 307.0791"><path d="M46.11933,30.27144c-3.94647,1.3151-4.48752,6.69015-.88035,8.76197,4.04024,2.32057,8.0628,5.01649,8.0628,8.27481v27.76838c0,1.62365-1.15145,3.01554-2.7461,3.32101-9.18746,1.75992-38.57021,9.33455-43.8572,34.88832-1.6831,8.13501-2.20156,16.81477-2.05853,25.16378.34257,19.99618,4.63149,39.72633,12.35572,58.17357,7.36435,17.58777,18.44518,47.1633,20.14257,69.4573.34345,4.51097-1.72809,8.85252-5.40109,11.49371-2.97799,2.14141-5.57699,4.44283-5.57699,7.63766,0,5.41087,9.86175,17.36715,45.99239,17.36715,13.86874,0,23.96987-2.276,31.15235-5.08072,8.63227-3.37085,9.67621-15.16773,1.75636-19.97966-.11048-.06712-.22174-.13458-.33378-.20236-1.09203-.66064-1.71773-1.87412-1.62996-3.14741,1.17967-17.11524,19.24752-68.89472,26.65462-93.59625,2.64917-8.83457,12.829-44.24695,3.66543-71.99948-7.5752-22.94202-33.07205-28.70788-41.68348-30.01744-1.652-.25122-2.86892-1.67104-2.86892-3.34204v-27.23843c0-.4803.09995-.95223.29826-1.38968,1.04054-2.29527,12.56267-4.90987,12.56267-9.77005,0-5.30202-5.81749-9.92904-31.40625-9.92904-11.0306,0-18.89757,1.61776-24.20051,3.38489Z" style="fill:#ddd7cc;"/><path d="M46.11933,30.27144c-3.94647,1.3151-4.48752,6.69015-.88035,8.76197,4.04024,2.32057,8.0628,5.01649,8.0628,8.27481v27.76838c0,1.62365-1.15145,3.01554-2.7461,3.32101-9.18746,1.75992-38.57021,9.33455-43.8572,34.88832-1.6831,8.13501-2.20156,16.81477-2.05853,25.16378.34257,19.99618,4.63149,39.72633,12.35572,58.17357,7.36435,17.58777,18.44518,47.1633,20.14257,69.4573.34345,4.51097-1.72809,8.85252-5.40109,11.49371-2.97799,2.14141-5.57699,4.44283-5.57699,7.63766,0,5.41087,9.86175,17.36715,45.99239,17.36715,13.86874,0,23.96987-2.276,31.15235-5.08072,8.63227-3.37085,9.67621-15.16773,1.75636-19.97966-.11048-.06712-.22174-.13458-.33378-.20236-1.09203-.66064-1.71773-1.87412-1.62996-3.14741,1.17967-17.11524,19.24752-68.89472,26.65462-93.59625,2.64917-8.83457,12.829-44.24695,3.66543-71.99948-7.5752-22.94202-33.07205-28.70788-41.68348-30.01744-1.652-.25122-2.86892-1.67104-2.86892-3.34204v-27.23843c0-.4803.09995-.95223.29826-1.38968,1.04054-2.29527,12.56267-4.90987,12.56267-9.77005,0-5.30202-5.81749-9.92904-31.40625-9.92904-11.0306,0-18.89757,1.61776-24.20051,3.38489Z" style="fill:none; stroke:#ddd7cc; stroke-miterlimit:10; stroke-width:9px;"/><path d="M33.16797,272.77564c18.17375,2.3135,35.76824,5.24452,53.92871,3.25996,5.91675-.56318,11.75342-1.80341,18.09033-3.25996-18.11099,18.63619-52.89876,15.6435-72.01904,0h0Z" style="fill:#ceb53a;"/><path d="M56.43742,26.18773v-6.67632s-6.47995-.32727-6.47995-8.05085,10.31993-6.93813,10.31993-6.93813h25.48224c2.4861,0,4.93277,1.07949,6.34905,3.12273.7207,1.03974,1.24484,2.3795,1.24484,4.07722,0,5.43269-4.97451,7.72358-4.97451,7.72358l-.32727,6.93813-31.61432-.19636Z" style="fill:#ceb53a; stroke:#ceb53a; stroke-miterlimit:10; stroke-width:9px;"/><path d="M113.25586,92.07423c4.60694,1.09354,8.40634,4.6265,11.2029,8.33663,5.28272,7.08281,7.41427,16.01924,8.13176,24.69352.40113,7.92686-.40565,15.90056-2.62651,23.52221-.81405-7.44985-1.14612-15.61065-2.09334-23.06001-.20656-1.25716-.71487-4.3701-.87163-5.58537-.24671-1.22135-.91587-4.21952-1.17137-5.48536-2.25643-8.33121-5.48387-16.98036-12.5718-22.42162h0Z" style="fill:#e8e3d6;"/><path d="M28.94825,91.719c-7.08812,5.44109-10.31557,14.09039-12.57207,22.42158-.25879,1.27918-.92028,4.24452-1.17136,5.48523-.15536,1.20694-.66867,4.35041-.87158,5.58557-.94741,7.45409-1.27839,15.59746-2.09304,23.05985-2.53934-8.86958-3.39655-18.33412-2.18793-27.50523.93842-7.34002,3.25436-14.7074,7.69278-20.71048,2.79684-3.70991,6.59621-7.24324,11.20321-8.33651h0Z" style="fill:#e8e3d6;"/><path d="M55.49366,48.24806c5.21603,5.10451,5.89823,13.40393,3.89375,20.08844-.69667,2.2787-1.80732,4.44361-3.35516,6.27436-.43386-2.3457-.42632-4.55013-.53542-6.84278-.08772-6.43878-.13469-13.01094-.00317-19.52002h0Z" style="fill:#e8e3d6;"/><path d="M86.85181,48.47059c.13191,6.50605.08436,13.08354-.00313,19.52001-.10904,2.29304-.10164,4.4963-.53542,6.84278-1.54753-1.83041-2.65885-3.99573-3.35478-6.27428-2.00541-6.68441-1.32238-14.98387,3.89333-20.08851h0Z" style="fill:#e8e3d6;"/><path d="M13.83783,170.1852s56.77575-4.67608,109.35406-.25774c-6.62752,8.83669-10.38311,11.04586-10.38311,11.04586l-98.97095-10.78813" style="fill:#fea7b5;"/><path d="M13.83783,170.1852s28.16696-11.59816,53.35153,0c25.18457,11.59816,56.66529-.66275,56.66529-.66275,0,0-23.85907,72.57133-23.85907,98.08728-24.52182,12.26091-56.99666,1.3255-56.99666,1.3255,0,0,1.65688-36.78273-29.16108-98.75003Z" style="fill:#fe6c83;"/><path d="M70.99613,122.34498c.2471-.00811.42573-.00198.5359.0184-.01384-1.12631-.07418-2.27069-.18102-3.43314-.38495-2.71234-.30388-7.89597.68366-10.19988.35186-.82087,1.13479-1.23007,1.91415-1.18489.84091.04875,1.51663.74941,1.72669,1.65259.65533,4.3023-.54145,9.47483-1.76972,13.75598,3.25134-1.56789,6.19447-2.75025,9.46821-3.49639,1.4632-.45237,2.95706-.73723,4.50605-.44663.83924.15744,1.23814,1.04756,1.29168,1.79478.17541,2.44785-5.91499,3.34987-9.06773,3.82226-1.94309.29114-3.77327.4723-5.78075.40482,3.09109,3.11345,5.79428,6.45493,7.74451,10.36438.40796.81779.54893,1.7254.2377,2.55413-.22776.60646-.8905.83922-1.32094.97015-.69075.21012-1.28682-.11617-1.83558-.55895-3.01611-3.19454-4.908-7.87372-6.62496-12.12769-1.88277,3.64806-5.94476,9.98107-9.03895,11.37488-.79365.35751-1.58969-.2692-1.99423-.7524-1.55004-1.85143,2.48646-5.7929,4.6116-7.94548,1.50245-1.52185,3.07453-2.84261,4.82038-4.09135-3.86644-.6855-12.22525-2.8852-13.78663-5.25107-.44839-.67943-.19922-1.44968.20251-2.0617.34341-.52317,1.09869-.9076,1.88307-.73287l1.84975.41205c3.15981,1.1739,6.12372,2.63097,8.96344,4.41848l.96124.73954Z" style="fill:#fe6c83;"/><path d="M72.34593,120.82718c.20421.13935.34476.24978.42164.33127.65387-.91718,1.28088-1.8764,1.88104-2.87766,1.29085-2.41634,4.417-6.55201,6.57438-7.82831.76866-.45474,1.64216-.32271,2.24448.17394.64988.53586.78152,1.50033.41776,2.35329-2.01144,3.85919-6.03149,7.32712-9.55064,10.05705,3.54982.6544,6.62326,1.43795,9.70595,2.76878,1.44801.49887,2.82185,1.15103,3.90041,2.30018.58436.62261.38072,1.57652-.01727,2.21119-1.3038,2.07915-6.75176-.78899-9.57516-2.26931-1.74011-.91235-3.32416-1.84678-4.90449-3.08658.65635,4.33793.865,8.63085.13059,12.93757-.15363.9009-.57575,1.71663-1.31627,2.2017-.54191.35497-1.21422.1515-1.63892.00302-.68155-.23828-.96995-.85357-1.15139-1.53495-.54796-4.3591.68803-9.2526,1.81413-13.69964-3.67355,1.83253-10.69124,4.54525-14.01145,3.84315-.85163-.18009-1.12403-1.15591-1.16522-1.78475-.15779-2.40946,5.42721-3.2071,8.41335-3.68957,2.11118-.3411,4.1598-.47878,6.30615-.45575-2.71572-2.83623-8.163-9.54707-8.02619-12.37842.03929-.8131.69519-1.28762,1.38079-1.54435.58607-.21946,1.42261-.08376,1.95249.5204l1.24957,1.42476c1.85704,2.81316,3.38877,5.73918,4.62516,8.85856l.33911,1.16443Z" style="fill:#fe6c83;"/><g style="opacity:.5;"><g style="opacity:.5;"><path d="M28.08531,92.42846c-.02546-.01041-.027-.03052-.00344-.04469l2.42069-1.45622c.02356-.01418.06232-.0145.08612-.00072l2.31418,1.33974c.0238.01378.02329.0354-.00113.04805l-2.203,1.14103c-.02442.01265-.06523.01448-.09068.00408l-2.52274-1.03126Z" style="fill:#93b7db;"/></g><g style="opacity:.5;"><path d="M24.65367,95.99239c-.01806.02074-.03759.01572-.04342-.01116l-.598-2.76092c-.00582-.02688.00636-.06366.02708-.08175l2.01432-1.75865c.02072-.01809.04102-.01064.04512.01656l.36983,2.45324c.0041.02719-.00732.06641-.02538.08715l-1.78955,2.05554Z" style="fill:#93b7db;"/></g><g style="opacity:.5;"><path d="M21.47724,101.19319c-.02747.00117-.03728-.01645-.02179-.03918l1.59147-2.33399c.01549-.02272.05057-.0392.07795-.03662l2.6622.25101c.02738.00258.03595.02244.01904.04413l-1.52528,1.9567c-.01691.02169-.05322.0404-.08069.04157l-2.7229.11637Z" style="fill:#93b7db;"/></g><g style="opacity:.5;"><path d="M31.73158,96.78817c-.02546-.01041-.027-.03052-.00344-.04469l2.42069-1.45622c.02356-.01418.06232-.0145.08612-.00072l2.31418,1.33974c.0238.01378.02329.0354-.00113.04805l-2.203,1.14103c-.02442.01265-.06523.01448-.09068.00408l-2.52274-1.03126Z" style="fill:#93b7db;"/></g><g style="opacity:.5;"><path d="M28.29994,100.3521c-.01806.02074-.03759.01572-.04342-.01116l-.598-2.76092c-.00582-.02688.00636-.06366.02708-.08175l2.01432-1.75865c.02072-.01809.04102-.01064.04512.01656l.36983,2.45324c.0041.02719-.00732.06641-.02538.08715l-1.78955,2.05554Z" style="fill:#93b7db;"/></g><g style="opacity:.5;"><path d="M25.12351,105.55291c-.02747.00117-.03728-.01645-.02179-.03918l1.59147-2.33399c.01549-.02272.05057-.0392.07795-.03662l2.6622.25101c.02738.00258.03595.02244.01904.04413l-1.52528,1.9567c-.01691.02169-.05322.0404-.08069.04157l-2.7229.11637Z" style="fill:#93b7db;"/></g><g style="opacity:.5;"><path d="M27.56965,113.59414c-.02546-.01041-.027-.03052-.00344-.04469l2.42069-1.45622c.02356-.01418.06232-.0145.08612-.00072l2.31418,1.33974c.0238.01378.02329.0354-.00113.04805l-2.203,1.14103c-.02442.01265-.06523.01448-.09068.00408l-2.52274-1.03126Z" style="fill:#93b7db;"/></g><g style="opacity:.5;"><path d="M24.13801,117.15807c-.01806.02074-.03759.01572-.04342-.01116l-.598-2.76092c-.00582-.02688.00636-.06366.02708-.08175l2.01432-1.75865c.02072-.01809.04102-.01064.04512.01656l.36983,2.45324c.0041.02719-.00732.06641-.02538.08715l-1.78955,2.05554Z" style="fill:#93b7db;"/></g><g style="opacity:.5;"><path d="M20.96158,122.35887c-.02747.00117-.03728-.01645-.02179-.03918l1.59147-2.33399c.01549-.02272.05057-.0392.07795-.03662l2.6622.25101c.02738.00258.03595.02244.01904.04413l-1.52528,1.9567c-.01691.02169-.05322.0404-.08069.04157l-2.7229.11637Z" style="fill:#93b7db;"/></g><g style="opacity:.5;"><path d="M31.21592,117.95385c-.02546-.01041-.027-.03052-.00344-.04469l2.42069-1.45622c.02356-.01418.06232-.0145.08612-.00072l2.31418,1.33974c.0238.01378.02329.0354-.00113.04805l-2.203,1.14103c-.02442.01265-.06523.01448-.09068.00408l-2.52274-1.03126Z" style="fill:#93b7db;"/></g><g style="opacity:.5;"><path d="M27.78428,121.51778c-.01806.02074-.03759.01572-.04342-.01116l-.598-2.76092c-.00582-.02688.00636-.06366.02708-.08175l2.01432-1.75865c.02072-.01809.04102-.01064.04512.01656l.36983,2.45324c.0041.02719-.00732.06641-.02538.08715l-1.78955,2.05554Z" style="fill:#93b7db;"/></g><g style="opacity:.5;"><path d="M24.60785,126.71859c-.02747.00117-.03728-.01645-.02179-.03918l1.59147-2.33399c.01549-.02272.05057-.0392.07795-.03662l2.6622.25101c.02738.00258.03595.02244.01904.04413l-1.52528,1.9567c-.01691.02169-.05322.0404-.08069.04157l-2.7229.11637Z" style="fill:#93b7db;"/></g><g style="opacity:.5;"><path d="M19.81683,104.7494c-.02546-.01041-.027-.03052-.00344-.04469l2.42069-1.45622c.02356-.01418.06232-.0145.08612-.00072l2.31418,1.33974c.0238.01378.02329.0354-.00113.04805l-2.203,1.14103c-.02442.01265-.06523.01448-.09068.00408l-2.52274-1.03126Z" style="fill:#93b7db;"/></g><g style="opacity:.5;"><path d="M16.38519,108.31333c-.01806.02074-.03759.01572-.04342-.01116l-.598-2.76092c-.00582-.02688.00636-.06366.02708-.08175l2.01432-1.75865c.02072-.01809.04102-.01064.04512.01656l.36983,2.45324c.0041.02719-.00732.06641-.02538.08715l-1.78955,2.05554Z" style="fill:#93b7db;"/></g><g style="opacity:.5;"><path d="M13.20875,113.51414c-.02747.00117-.03728-.01645-.02179-.03918l1.59147-2.33399c.01549-.02272.05057-.0392.07795-.03662l2.6622.25101c.02738.00258.03595.02244.01904.04413l-1.52528,1.9567c-.01691.02169-.05322.0404-.08069.04157l-2.7229.11637Z" style="fill:#93b7db;"/></g><g style="opacity:.5;"><path d="M23.4631,109.10911c-.02546-.01041-.027-.03052-.00344-.04469l2.42069-1.45622c.02356-.01418.06232-.0145.08612-.00072l2.31418,1.33974c.0238.01378.02329.0354-.00113.04805l-2.203,1.14103c-.02442.01265-.06523.01448-.09068.00408l-2.52274-1.03126Z" style="fill:#93b7db;"/></g><g style="opacity:.5;"><path d="M20.03146,112.67304c-.01806.02074-.03759.01572-.04342-.01116l-.598-2.76092c-.00582-.02688.00636-.06366.02708-.08175l2.01432-1.75865c.02072-.01809.04102-.01064.04512.01656l.36983,2.45324c.0041.02719-.00732.06641-.02538.08715l-1.78955,2.05554Z" style="fill:#93b7db;"/></g><g style="opacity:.5;"><path d="M16.85502,117.87385c-.02747.00117-.03728-.01645-.02179-.03918l1.59147-2.33399c.01549-.02272.05057-.0392.07795-.03662l2.6622.25101c.02738.00258.03595.02244.01904.04413l-1.52528,1.9567c-.01691.02169-.05322.0404-.08069.04157l-2.7229.11637Z" style="fill:#93b7db;"/></g><g style="opacity:.5;"><path d="M36.71219,100.73972c-.02546-.01041-.027-.03052-.00344-.04469l2.42069-1.45622c.02356-.01418.06232-.0145.08612-.00072l2.31418,1.33974c.0238.01378.02329.0354-.00113.04805l-2.203,1.14103c-.02442.01265-.06523.01448-.09068.00408l-2.52274-1.03126Z" style="fill:#93b7db;"/></g><g style="opacity:.5;"><path d="M33.28055,104.30365c-.01806.02074-.03759.01572-.04342-.01116l-.598-2.76092c-.00582-.02688.00636-.06366.02708-.08175l2.01432-1.75865c.02072-.01809.04102-.01064.04512.01656l.36983,2.45324c.0041.02719-.00732.06641-.02538.08715l-1.78955,2.05554Z" style="fill:#93b7db;"/></g><g style="opacity:.5;"><path d="M30.10411,109.50445c-.02747.00117-.03728-.01645-.02179-.03918l1.59147-2.33399c.01549-.02272.05057-.0392.07795-.03662l2.6622.25101c.02738.00258.03595.02244.01904.04413l-1.52528,1.9567c-.01691.02169-.05322.0404-.08069.04157l-2.7229.11637Z" style="fill:#93b7db;"/></g><g style="opacity:.5;"><path d="M40.35846,105.09943c-.02546-.01041-.027-.03052-.00344-.04469l2.42069-1.45622c.02356-.01418.06232-.0145.08612-.00072l2.31418,1.33974c.0238.01378.02329.0354-.00113.04805l-2.203,1.14103c-.02442.01265-.06523.01448-.09068.00408l-2.52274-1.03126Z" style="fill:#93b7db;"/></g><g style="opacity:.5;"><path d="M36.92682,108.66336c-.01806.02074-.03759.01572-.04342-.01116l-.598-2.76092c-.00582-.02688.00636-.06366.02708-.08175l2.01432-1.75865c.02072-.01809.04102-.01064.04512.01656l.36983,2.45324c.0041.02719-.00732.06641-.02538.08715l-1.78955,2.05554Z" style="fill:#93b7db;"/></g><g style="opacity:.5;"><path d="M33.75038,113.86417c-.02747.00117-.03728-.01645-.02179-.03918l1.59147-2.33399c.01549-.02272.05057-.0392.07795-.03662l2.6622.25101c.02738.00258.03595.02244.01904.04413l-1.52528,1.9567c-.01691.02169-.05322.0404-.08069.04157l-2.7229.11637Z" style="fill:#93b7db;"/></g><g style="opacity:.5;"><path d="M12.87788,96.29672c-.02546-.01041-.027-.03052-.00344-.04469l2.42069-1.45622c.02356-.01418.06232-.0145.08612-.00072l2.31418,1.33974c.0238.01378.02329.0354-.00113.04805l-2.203,1.14103c-.02442.01265-.06523.01448-.09068.00408l-2.52274-1.03126Z" style="fill:#93b7db;"/></g><g style="opacity:.5;"><path d="M9.44624,99.86065c-.01806.02074-.03759.01572-.04342-.01116l-.598-2.76092c-.00582-.02688.00636-.06366.02708-.08175l2.01432-1.75865c.02072-.01809.04102-.01064.04512.01656l.36983,2.45324c.0041.02719-.00732.06641-.02538.08715l-1.78955,2.05554Z" style="fill:#93b7db;"/></g><g style="opacity:.5;"><path d="M6.2698,105.06145c-.02747.00117-.03728-.01645-.02179-.03918l1.59147-2.33399c.01549-.02272.05057-.0392.07795-.03662l2.6622.25101c.02738.00258.03595.02244.01904.04413l-1.52528,1.9567c-.01691.02169-.05322.0404-.08069.04157l-2.7229.11637Z" style="fill:#93b7db;"/></g><g style="opacity:.5;"><path d="M16.52415,100.65643c-.02546-.01041-.027-.03052-.00344-.04469l2.42069-1.45622c.02356-.01418.06232-.0145.08612-.00072l2.31418,1.33974c.0238.01378.02329.0354-.00113.04805l-2.203,1.14103c-.02442.01265-.06523.01448-.09068.00408l-2.52274-1.03126Z" style="fill:#93b7db;"/></g><g style="opacity:.5;"><path d="M13.0925,104.22036c-.01806.02074-.03759.01572-.04342-.01116l-.598-2.76092c-.00582-.02688.00636-.06366.02708-.08175l2.01432-1.75865c.02072-.01809.04102-.01064.04512.01656l.36983,2.45324c.0041.02719-.00732.06641-.02538.08715l-1.78955,2.05554Z" style="fill:#93b7db;"/></g><g style="opacity:.5;"><path d="M9.91607,109.42117c-.02747.00117-.03728-.01645-.02179-.03918l1.59147-2.33399c.01549-.02272.05057-.0392.07795-.03662l2.6622.25101c.02738.00258.03595.02244.01904.04413l-1.52528,1.9567c-.01691.02169-.05322.0404-.08069.04157l-2.7229.11637Z" style="fill:#93b7db;"/></g><g style="opacity:.5;"><path d="M14.59847,91.81498c-.02747.00117-.03728-.01645-.02179-.03918l1.59147-2.33399c.01549-.02272.05057-.0392.07795-.03662l2.6622.25101c.02738.00258.03595.02244.01904.04413l-1.52528,1.9567c-.01691.02169-.05322.0404-.08069.04157l-2.7229.11637Z" style="fill:#93b7db;"/></g><g style="opacity:.5;"><path d="M24.85281,87.40996c-.02546-.01041-.027-.03052-.00344-.04469l2.42069-1.45622c.02356-.01418.06232-.0145.08612-.00072l2.31418,1.33974c.0238.01378.02329.0354-.00113.04805l-2.203,1.14103c-.02442.01265-.06523.01448-.09068.00408l-2.52274-1.03126Z" style="fill:#93b7db;"/></g><g style="opacity:.5;"><path d="M21.42117,90.97389c-.01806.02074-.03759.01572-.04342-.01116l-.598-2.76092c-.00582-.02688.00636-.06366.02708-.08175l2.01432-1.75865c.02072-.01809.04102-.01064.04512.01656l.36983,2.45324c.0041.02719-.00732.06641-.02538.08715l-1.78955,2.05554Z" style="fill:#93b7db;"/></g><g style="opacity:.5;"><path d="M18.24474,96.17469c-.02747.00117-.03728-.01645-.02179-.03918l1.59147-2.33399c.01549-.02272.05057-.0392.07795-.03662l2.6622.25101c.02738.00258.03595.02244.01904.04413l-1.52528,1.9567c-.01691.02169-.05322.0404-.08069.04157l-2.7229.11637Z" style="fill:#93b7db;"/></g><g style="opacity:.5;"><path d="M2.99094,109.25535c-.02546-.01041-.027-.03052-.00344-.04469l2.42069-1.45622c.02356-.01418.06232-.0145.08612-.00072l2.31418,1.33974c.0238.01378.02329.0354-.00113.04805l-2.203,1.14103c-.02442.01265-.06523.01448-.09068.00408l-2.52274-1.03126Z" style="fill:#93b7db;"/></g><g style="opacity:.5;"><path d="M6.63721,113.61506c-.02546-.01041-.027-.03052-.00344-.04469l2.42069-1.45622c.02356-.01418.06232-.0145.08612-.00072l2.31418,1.33974c.0238.01378.02329.0354-.00113.04805l-2.203,1.14103c-.02442.01265-.06523.01448-.09068.00408l-2.52274-1.03126Z" style="fill:#93b7db;"/></g><g style="opacity:.5;"><path d="M3.20557,117.17899c-.01806.02074-.03759.01572-.04342-.01116l-.598-2.76092c-.00582-.02688.00636-.06366.02708-.08175l2.01432-1.75865c.02072-.01809.04102-.01064.04512.01656l.36983,2.45324c.0041.02719-.00732.06641-.02538.08715l-1.78955,2.05554Z" style="fill:#93b7db;"/></g><g style="opacity:.5;"><path d="M.02914,122.3798c-.02747.00117-.03728-.01645-.02179-.03918l1.59147-2.33399c.01549-.02272.05057-.0392.07795-.03662l2.6622.25101c.02738.00258.03595.02244.01904.04413l-1.52528,1.9567c-.01691.02169-.05322.0404-.08069.04157l-2.7229.11637Z" style="fill:#93b7db;"/></g><g style="opacity:.5;"><path d="M10.54898,118.0641c-.02546-.01041-.027-.03052-.00344-.04469l2.42069-1.45622c.02356-.01418.06232-.0145.08612-.00072l2.31418,1.33974c.0238.01378.02329.0354-.00113.04805l-2.203,1.14103c-.02442.01265-.06523.01448-.09068.00408l-2.52274-1.03126Z" style="fill:#93b7db;"/></g><g style="opacity:.5;"><path d="M7.11734,121.62803c-.01806.02074-.03759.01572-.04342-.01116l-.598-2.76092c-.00582-.02688.00636-.06366.02708-.08175l2.01432-1.75865c.02072-.01809.04102-.01064.04512.01656l.36983,2.45324c.0041.02719-.00732.06641-.02538.08715l-1.78955,2.05554Z" style="fill:#93b7db;"/></g><g style="opacity:.5;"><path d="M3.94091,126.82884c-.02747.00117-.03728-.01645-.02179-.03918l1.59147-2.33399c.01549-.02272.05057-.0392.07795-.03662l2.6622.25101c.02738.00258.03595.02244.01904.04413l-1.52528,1.9567c-.01691.02169-.05322.0404-.08069.04157l-2.7229.11637Z" style="fill:#93b7db;"/></g><g style="opacity:.5;"><path d="M14.19525,122.42382c-.02546-.01041-.027-.03052-.00344-.04469l2.42069-1.45622c.02356-.01418.06232-.0145.08612-.00072l2.31418,1.33974c.0238.01378.02329.0354-.00113.04805l-2.203,1.14103c-.02442.01265-.06523.01448-.09068.00408l-2.52274-1.03126Z" style="fill:#93b7db;"/></g><g style="opacity:.5;"><path d="M10.76361,125.98775c-.01806.02074-.03759.01572-.04342-.01116l-.598-2.76092c-.00582-.02688.00636-.06366.02708-.08175l2.01432-1.75865c.02072-.01809.04102-.01064.04512.01656l.36983,2.45324c.0041.02719-.00732.06641-.02538.08715l-1.78955,2.05554Z" style="fill:#93b7db;"/></g><g style="opacity:.5;"><path d="M7.58718,131.18855c-.02747.00117-.03728-.01645-.02179-.03918l1.59147-2.33399c.01549-.02272.05057-.0392.07795-.03662l2.6622.25101c.02738.00258.03595.02244.01904.04413l-1.52528,1.9567c-.01691.02169-.05322.0404-.08069.04157l-2.7229.11637Z" style="fill:#93b7db;"/></g><g style="opacity:.5;"><path d="M18.16037,126.80214c-.02546-.01041-.027-.03052-.00344-.04469l2.42069-1.45622c.02356-.01418.06232-.0145.08612-.00072l2.31418,1.33974c.0238.01378.02329.0354-.00113.04805l-2.203,1.14103c-.02442.01265-.06523.01448-.09068.00408l-2.52274-1.03126Z" style="fill:#93b7db;"/></g><g style="opacity:.5;"><path d="M14.72873,130.36607c-.01806.02074-.03759.01572-.04342-.01116l-.598-2.76092c-.00582-.02688.00636-.06366.02708-.08175l2.01432-1.75865c.02072-.01809.04102-.01064.04512.01656l.36983,2.45324c.0041.02719-.00732.06641-.02538.08715l-1.78955,2.05554Z" style="fill:#93b7db;"/></g><g style="opacity:.5;"><path d="M11.5523,135.56688c-.02747.00117-.03728-.01645-.02179-.03918l1.59147-2.33399c.01549-.02272.05057-.0392.07795-.03662l2.6622.25101c.02738.00258.03595.02244.01904.04413l-1.52528,1.9567c-.01691.02169-.05322.0404-.08069.04157l-2.7229.11637Z" style="fill:#93b7db;"/></g><g style="opacity:.5;"><path d="M21.80664,131.16186c-.02546-.01041-.027-.03052-.00344-.04469l2.42069-1.45622c.02356-.01418.06232-.0145.08612-.00072l2.31418,1.33974c.0238.01378.02329.0354-.00113.04805l-2.203,1.14103c-.02442.01265-.06523.01448-.09068.00408l-2.52274-1.03126Z" style="fill:#93b7db;"/></g><g style="opacity:.5;"><path d="M18.375,134.72578c-.01806.02074-.03759.01572-.04342-.01116l-.598-2.76092c-.00582-.02688.00636-.06366.02708-.08175l2.01432-1.75865c.02072-.01809.04102-.01064.04512.01656l.36983,2.45324c.0041.02719-.00732.06641-.02538.08715l-1.78955,2.05554Z" style="fill:#93b7db;"/></g><g style="opacity:.5;"><path d="M58.45196,59.2266c-.02546-.01041-.027-.03052-.00344-.04469l2.42069-1.45622c.02356-.01418.06232-.0145.08612-.00072l2.31418,1.33974c.0238.01378.02329.0354-.00113.04805l-2.203,1.14103c-.02442.01265-.06523.01448-.09068.00408l-2.52274-1.03126Z" style="fill:#93b7db;"/></g><g style="opacity:.5;"><path d="M55.02032,62.79053c-.01806.02074-.03759.01572-.04342-.01116l-.598-2.76092c-.00582-.02688.00636-.06366.02708-.08175l2.01432-1.75865c.02072-.01809.04102-.01064.04512.01656l.36983,2.45324c.0041.02719-.00732.06641-.02538.08715l-1.78955,2.05554Z" style="fill:#93b7db;"/></g><g style="opacity:.5;"><path d="M51.84388,67.99133c-.02747.00117-.03728-.01645-.02179-.03918l1.59147-2.33399c.01549-.02272.05057-.0392.07795-.03662l2.6622.25101c.02738.00258.03595.02244.01904.04413l-1.52528,1.9567c-.01691.02169-.05322.0404-.08069.04157l-2.7229.11637Z" style="fill:#93b7db;"/></g><g style="opacity:.5;"><path d="M62.09823,63.58631c-.02546-.01041-.027-.03052-.00344-.04469l2.42069-1.45622c.02356-.01418.06232-.0145.08612-.00072l2.31418,1.33974c.0238.01378.02329.0354-.00113.04805l-2.203,1.14103c-.02442.01265-.06523.01448-.09068.00408l-2.52274-1.03126Z" style="fill:#93b7db;"/></g><g style="opacity:.5;"><path d="M58.66659,67.15024c-.01806.02074-.03759.01572-.04342-.01116l-.598-2.76092c-.00582-.02688.00636-.06366.02708-.08175l2.01432-1.75865c.02072-.01809.04102-.01064.04512.01656l.36983,2.45324c.0041.02719-.00732.06641-.02538.08715l-1.78955,2.05554Z" style="fill:#93b7db;"/></g><g style="opacity:.5;"><path d="M55.49015,72.35105c-.02747.00117-.03728-.01645-.02179-.03918l1.59147-2.33399c.01549-.02272.05057-.0392.07795-.03662l2.6622.25101c.02738.00258.03595.02244.01904.04413l-1.52528,1.9567c-.01691.02169-.05322.0404-.08069.04157l-2.7229.11637Z" style="fill:#93b7db;"/></g><g style="opacity:.5;"><path d="M57.93629,80.39228c-.02546-.01041-.027-.03052-.00344-.04469l2.42069-1.45622c.02356-.01418.06232-.0145.08612-.00072l2.31418,1.33974c.0238.01378.02329.0354-.00113.04805l-2.203,1.14103c-.02442.01265-.06523.01448-.09068.00408l-2.52274-1.03126Z" style="fill:#93b7db;"/></g><g style="opacity:.5;"><path d="M54.50465,83.95621c-.01806.02074-.03759.01572-.04342-.01116l-.598-2.76092c-.00582-.02688.00636-.06366.02708-.08175l2.01432-1.75865c.02072-.01809.04102-.01064.04512.01656l.36983,2.45324c.0041.02719-.00732.06641-.02538.08715l-1.78955,2.05554Z" style="fill:#93b7db;"/></g><g style="opacity:.5;"><path d="M51.32822,89.15701c-.02747.00117-.03728-.01645-.02179-.03918l1.59147-2.33399c.01549-.02272.05057-.0392.07795-.03662l2.6622.25101c.02738.00258.03595.02244.01904.04413l-1.52528,1.9567c-.01691.02169-.05322.0404-.08069.04157l-2.7229.11637Z" style="fill:#93b7db;"/></g><g style="opacity:.5;"><path d="M61.58256,84.75199c-.02546-.01041-.027-.03052-.00344-.04469l2.42069-1.45622c.02356-.01418.06232-.0145.08612-.00072l2.31418,1.33974c.0238.01378.02329.0354-.00113.04805l-2.203,1.14103c-.02442.01265-.06523.01448-.09068.00408l-2.52274-1.03126Z" style="fill:#93b7db;"/></g><g style="opacity:.5;"><path d="M58.15092,88.31592c-.01806.02074-.03759.01572-.04342-.01116l-.598-2.76092c-.00582-.02688.00636-.06366.02708-.08175l2.01432-1.75865c.02072-.01809.04102-.01064.04512.01656l.36983,2.45324c.0041.02719-.00732.06641-.02538.08715l-1.78955,2.05554Z" style="fill:#93b7db;"/></g><g style="opacity:.5;"><path d="M54.97449,93.51673c-.02747.00117-.03728-.01645-.02179-.03918l1.59147-2.33399c.01549-.02272.05057-.0392.07795-.03662l2.6622.25101c.02738.00258.03595.02244.01904.04413l-1.52528,1.9567c-.01691.02169-.05322.0404-.08069.04157l-2.7229.11637Z" style="fill:#93b7db;"/></g><g style="opacity:.5;"><path d="M50.18347,71.54754c-.02546-.01041-.027-.03052-.00344-.04469l2.42069-1.45622c.02356-.01418.06232-.0145.08612-.00072l2.31418,1.33974c.0238.01378.02329.0354-.00113.04805l-2.203,1.14103c-.02442.01265-.06523.01448-.09068.00408l-2.52274-1.03126Z" style="fill:#93b7db;"/></g><g style="opacity:.5;"><path d="M43.5754,80.31228c-.02747.00117-.03728-.01645-.02179-.03918l1.59147-2.33399c.01549-.02272.05057-.0392.07795-.03662l2.6622.25101c.02738.00258.03595.02244.01904.04413l-1.52528,1.9567c-.01691.02169-.05322.0404-.08069.04157l-2.7229.11637Z" style="fill:#93b7db;"/></g><g style="opacity:.5;"><path d="M53.82974,75.90725c-.02546-.01041-.027-.03052-.00344-.04469l2.42069-1.45622c.02356-.01418.06232-.0145.08612-.00072l2.31418,1.33974c.0238.01378.02329.0354-.00113.04805l-2.203,1.14103c-.02442.01265-.06523.01448-.09068.00408l-2.52274-1.03126Z" style="fill:#93b7db;"/></g><g style="opacity:.5;"><path d="M50.3981,79.47118c-.01806.02074-.03759.01572-.04342-.01116l-.598-2.76092c-.00582-.02688.00636-.06366.02708-.08175l2.01432-1.75865c.02072-.01809.04102-.01064.04512.01656l.36983,2.45324c.0041.02719-.00732.06641-.02538.08715l-1.78955,2.05554Z" style="fill:#93b7db;"/></g><g style="opacity:.5;"><path d="M47.22167,84.67199c-.02747.00117-.03728-.01645-.02179-.03918l1.59147-2.33399c.01549-.02272.05057-.0392.07795-.03662l2.6622.25101c.02738.00258.03595.02244.01904.04413l-1.52528,1.9567c-.01691.02169-.05322.0404-.08069.04157l-2.7229.11637Z" style="fill:#93b7db;"/></g><g style="opacity:.5;"><path d="M63.64719,71.10179c-.01806.02074-.03759.01572-.04342-.01116l-.598-2.76092c-.00582-.02688.00636-.06366.02708-.08175l2.01432-1.75865c.02072-.01809.04102-.01064.04512.01656l.36983,2.45324c.0041.02719-.00732.06641-.02538.08715l-1.78955,2.05554Z" style="fill:#93b7db;"/></g><g style="opacity:.5;"><path d="M60.47076,76.30259c-.02747.00117-.03728-.01645-.02179-.03918l1.59147-2.33399c.01549-.02272.05057-.0392.07795-.03662l2.6622.25101c.02738.00258.03595.02244.01904.04413l-1.52528,1.9567c-.01691.02169-.05322.0404-.08069.04157l-2.7229.11637Z" style="fill:#93b7db;"/></g><g style="opacity:.5;"><path d="M67.29346,75.4615c-.01806.02074-.03759.01572-.04342-.01116l-.598-2.76092c-.00582-.02688.00636-.06366.02708-.08175l2.01432-1.75865c.02072-.01809.04102-.01064.04512.01656l.36983,2.45324c.0041.02719-.00732.06641-.02538.08715l-1.78955,2.05554Z" style="fill:#93b7db;"/></g><g style="opacity:.5;"><path d="M64.11703,80.66231c-.02747.00117-.03728-.01645-.02179-.03918l1.59147-2.33399c.01549-.02272.05057-.0392.07795-.03662l2.6622.25101c.02738.00258.03595.02244.01904.04413l-1.52528,1.9567c-.01691.02169-.05322.0404-.08069.04157l-2.7229.11637Z" style="fill:#93b7db;"/></g><g style="opacity:.5;"><path d="M51.57319,49.84838c-.02546-.01041-.027-.03052-.00344-.04469l2.42069-1.45622c.02356-.01418.06232-.0145.08612-.00072l2.31418,1.33974c.0238.01378.02329.0354-.00113.04805l-2.203,1.14103c-.02442.01265-.06523.01448-.09068.00408l-2.52274-1.03126Z" style="fill:#93b7db;"/></g><g style="opacity:.5;"><path d="M55.21945,54.2081c-.02546-.01041-.027-.03052-.00344-.04469l2.42069-1.45622c.02356-.01418.06232-.0145.08612-.00072l2.31418,1.33974c.0238.01378.02329.0354-.00113.04805l-2.203,1.14103c-.02442.01265-.06523.01448-.09068.00408l-2.52274-1.03126Z" style="fill:#93b7db;"/></g><g style="opacity:.5;"><path d="M51.78781,57.77203c-.01806.02074-.03759.01572-.04342-.01116l-.598-2.76092c-.00582-.02688.00636-.06366.02708-.08175l2.01432-1.75865c.02072-.01809.04102-.01064.04512.01656l.36983,2.45324c.0041.02719-.00732.06641-.02538.08715l-1.78955,2.05554Z" style="fill:#93b7db;"/></g><g style="opacity:.5;"><path d="M48.61138,62.97283c-.02747.00117-.03728-.01645-.02179-.03918l1.59147-2.33399c.01549-.02272.05057-.0392.07795-.03662l2.6622.25101c.02738.00258.03595.02244.01904.04413l-1.52528,1.9567c-.01691.02169-.05322.0404-.08069.04157l-2.7229.11637Z" style="fill:#93b7db;"/></g><g style="opacity:.5;"><path d="M26.74951,84.81822c-.02747.00117-.03728-.01645-.02179-.03918l1.59147-2.33399c.01549-.02272.05057-.0392.07795-.03662l2.6622.25101c.02738.00258.03595.02244.01904.04413l-1.52528,1.9567c-.01691.02169-.05322.0404-.08069.04157l-2.7229.11637Z" style="fill:#93b7db;"/></g><g style="opacity:.5;"><path d="M37.00385,80.4132c-.02546-.01041-.027-.03052-.00344-.04469l2.42069-1.45622c.02356-.01418.06232-.0145.08612-.00072l2.31418,1.33974c.0238.01378.02329.0354-.00113.04805l-2.203,1.14103c-.02442.01265-.06523.01448-.09068.00408l-2.52274-1.03126Z" style="fill:#93b7db;"/></g><g style="opacity:.5;"><path d="M33.57221,83.97713c-.01806.02074-.03759.01572-.04342-.01116l-.598-2.76092c-.00582-.02688.00636-.06366.02708-.08175l2.01432-1.75865c.02072-.01809.04102-.01064.04512.01656l.36983,2.45324c.0041.02719-.00732.06641-.02538.08715l-1.78955,2.05554Z" style="fill:#93b7db;"/></g><g style="opacity:.5;"><path d="M30.39578,89.17794c-.02747.00117-.03728-.01645-.02179-.03918l1.59147-2.33399c.01549-.02272.05057-.0392.07795-.03662l2.6622.25101c.02738.00258.03595.02244.01904.04413l-1.52528,1.9567c-.01691.02169-.05322.0404-.08069.04157l-2.7229.11637Z" style="fill:#93b7db;"/></g><g style="opacity:.5;"><path d="M40.91562,84.86224c-.02546-.01041-.027-.03052-.00344-.04469l2.42069-1.45622c.02356-.01418.06232-.0145.08612-.00072l2.31418,1.33974c.0238.01378.02329.0354-.00113.04805l-2.203,1.14103c-.02442.01265-.06523.01448-.09068.00408l-2.52274-1.03126Z" style="fill:#93b7db;"/></g><g style="opacity:.5;"><path d="M37.48398,88.42617c-.01806.02074-.03759.01572-.04342-.01116l-.598-2.76092c-.00582-.02688.00636-.06366.02708-.08175l2.01432-1.75865c.02072-.01809.04102-.01064.04512.01656l.36983,2.45324c.0041.02719-.00732.06641-.02538.08715l-1.78955,2.05554Z" style="fill:#93b7db;"/></g><g style="opacity:.5;"><path d="M34.30755,93.62698c-.02747.00117-.03728-.01645-.02179-.03918l1.59147-2.33399c.01549-.02272.05057-.0392.07795-.03662l2.6622.25101c.02738.00258.03595.02244.01904.04413l-1.52528,1.9567c-.01691.02169-.05322.0404-.08069.04157l-2.7229.11637Z" style="fill:#93b7db;"/></g><g style="opacity:.5;"><path d="M44.56189,89.22196c-.02546-.01041-.027-.03052-.00344-.04469l2.42069-1.45622c.02356-.01418.06232-.0145.08612-.00072l2.31418,1.33974c.0238.01378.02329.0354-.00113.04805l-2.203,1.14103c-.02442.01265-.06523.01448-.09068.00408l-2.52274-1.03126Z" style="fill:#93b7db;"/></g><g style="opacity:.5;"><path d="M41.13025,92.78589c-.01806.02074-.03759.01572-.04342-.01116l-.598-2.76092c-.00582-.02688.00636-.06366.02708-.08175l2.01432-1.75865c.02072-.01809.04102-.01064.04512.01656l.36983,2.45324c.0041.02719-.00732.06641-.02538.08715l-1.78955,2.05554Z" style="fill:#93b7db;"/></g><g style="opacity:.5;"><path d="M37.95382,97.98669c-.02747.00117-.03728-.01645-.02179-.03918l1.59147-2.33399c.01549-.02272.05057-.0392.07795-.03662l2.6622.25101c.02738.00258.03595.02244.01904.04413l-1.52528,1.9567c-.01691.02169-.05322.0404-.08069.04157l-2.7229.11637Z" style="fill:#93b7db;"/></g><g style="opacity:.5;"><path d="M48.52701,93.60028c-.02546-.01041-.027-.03052-.00344-.04469l2.42069-1.45622c.02356-.01418.06232-.0145.08612-.00072l2.31418,1.33974c.0238.01378.02329.0354-.00113.04805l-2.203,1.14103c-.02442.01265-.06523.01448-.09068.00408l-2.52274-1.03126Z" style="fill:#93b7db;"/></g><g style="opacity:.5;"><path d="M45.09537,97.16421c-.01806.02074-.03759.01572-.04342-.01116l-.598-2.76092c-.00582-.02688.00636-.06366.02708-.08175l2.01432-1.75865c.02072-.01809.04102-.01064.04512.01656l.36983,2.45324c.0041.02719-.00732.06641-.02538.08715l-1.78955,2.05554Z" style="fill:#93b7db;"/></g><g style="opacity:.5;"><path d="M41.91894,102.36502c-.02747.00117-.03728-.01645-.02179-.03918l1.59147-2.33399c.01549-.02272.05057-.0392.07795-.03662l2.6622.25101c.02738.00258.03595.02244.01904.04413l-1.52528,1.9567c-.01691.02169-.05322.0404-.08069.04157l-2.7229.11637Z" style="fill:#93b7db;"/></g><g style="opacity:.5;"><path d="M52.17328,97.96c-.02546-.01041-.027-.03052-.00344-.04469l2.42069-1.45622c.02356-.01418.06232-.0145.08612-.00072l2.31418,1.33974c.0238.01378.02329.0354-.00113.04805l-2.203,1.14103c-.02442.01265-.06523.01448-.09068.00408l-2.52274-1.03126Z" style="fill:#93b7db;"/></g><g style="opacity:.5;"><path d="M48.74164,101.52393c-.01806.02074-.03759.01572-.04342-.01116l-.598-2.76092c-.00582-.02688.00636-.06366.02708-.08175l2.01432-1.75865c.02072-.01809.04102-.01064.04512.01656l.36983,2.45324c.0041.02719-.00732.06641-.02538.08715l-1.78955,2.05554Z" style="fill:#93b7db;"/></g><g style="opacity:.5;"><path d="M45.56521,106.72473c-.02747.00117-.03728-.01645-.02179-.03918l1.59147-2.33399c.01549-.02272.05057-.0392.07795-.03662l2.6622.25101c.02738.00258.03595.02244.01904.04413l-1.52528,1.9567c-.01691.02169-.05322.0404-.08069.04157l-2.7229.11637Z" style="fill:#93b7db;"/></g></g></svg>