<?xml version="1.0" encoding="UTF-8"?><svg id="a" xmlns="http://www.w3.org/2000/svg" viewBox="0 0 141.6392 307.1363"><path d="M46.1463,30.3849c-1.9731.6575-3.1099,2.2499-3.2877,4.0169s.6748,3.4571,2.4785,4.4931c1.7888,1.0274,3.5497,2.2105,4.9839,3.4013,1.8053,1.4988,2.7479,3.2287,2.7479,5.0444,0,3.4676.2084,3.4676.2084,6.9352,0,3.4706.0865,3.4706.0865,6.9412,0,3.473.0104,3.473.0104,6.946s-.0226,3.473-.0226,6.946c0,1.6236-1.243,2.7978-2.8377,3.1033-1.6043.3073-3.8043.9324-6.4043,1.6591-1.919.5363-4.0805,1.127-6.3186,1.9531-1.9637.7248-3.9794,1.6782-6.0518,2.6637-1.9341.9197-3.834,2.0587-5.7549,3.2352-1.8482,1.1319-3.726,2.3029-5.4674,3.6984-1.6988,1.3613-3.3189,2.869-4.8289,4.5051-1.473,1.596-2.5984,3.4878-3.8109,5.3675-1.1674,1.8098-2.5277,3.57-3.3809,5.6629-.8038,1.9717-1.1959,4.1501-1.6593,6.3898-.4238,2.0482-1.0035,4.09-1.2876,6.1932-.2811,2.0808-.5327,4.1845-.6927,6.2921-.1598,2.1033.0906,4.2286.0359,6.3316-.0551,2.1196-.047,4.2222-.0112,6.3141.038,2.2178-.1213,4.4368.0131,6.6467.1346,2.2133.3545,4.4183.5844,6.6209.2301,2.2049.2848,4.4352.609,6.6265.3244,2.1924.9297,4.3408,1.3469,6.5168s.5928,4.4093,1.1014,6.5663,1.145,4.2898,1.7433,6.4241c.5979,2.1327,1.2634,4.2535,1.9496,6.3615.6855,2.1059,1.5307,4.162,2.3031,6.2404.7713,2.0757,1.6963,4.0916,2.5528,6.1371.7959,1.9009,1.4171,4.0309,2.2833,6.1875.786,1.9568,1.8835,3.8954,2.7014,6.0245.7669,1.9964,1.5735,4.0523,2.3474,6.1693.7416,2.0287,1.2262,4.1981,1.9559,6.3105.7104,2.0565,1.5208,4.1096,2.2032,6.2208.6735,2.084,1.1886,4.2319,1.8188,6.3457.6295,2.1113,1.3164,4.2065,1.8868,6.3241.5764,2.1398,1.3931,4.2119,1.8928,6.3343.5113,2.1716.979,4.3384,1.3928,6.4663.4285,2.2035.4795,4.436.7844,6.5644.3208,2.2401.4792,4.4336.641,6.5581.1718,2.257.1304,4.5763-.805,6.5567-.9341,1.9778-2.7577,3.4078-4.593,4.7275-1.4006,1.0071-2.3814,2.4158-3.3834,3.57-1.1285,1.2999-2.0076,2.5737-2.0076,4.266,0,1.5386.8052,3.5602,2.7773,5.7319,1.2216,1.3453,2.8362,2.788,5.049,4.1119,1.6518.9883,3.5881,1.9923,5.8795,2.8702,1.8526.7098,3.9551,1.2881,6.2699,1.8761,1.9588.4975,4.1163.7733,6.4321,1.1542,2.0211.3324,4.1457.8637,6.4558,1.088,2.0569.1997,4.2336.3748,6.5314.4754,2.0809.0911,4.2665-.1694,6.5539-.1694,2.2101,0,4.3336.3407,6.3558.2322,2.22-.1191,4.3244-.4289,6.3267-.661,2.2215-.2575,4.2598-.8683,6.225-1.2405,2.2161-.4197,4.3661-.4909,6.273-1.0219,2.2013-.613,4.0596-1.7012,5.8745-2.41,2.0846-.814,3.9823-1.752,5.1624-3.3318,1.2628-1.6903,1.8367-3.8132,2.0181-5.8658s-.1017-4.1987-1.05-6.0825c-.8864-1.7608-2.2384-3.4931-4.152-4.6557-.1105-.0671-.3325.0477-.4446-.0201-1.092-.6606-1.7534-1.8524-1.6656-3.1257.1232-1.7873.6797-3.9088,1.1399-6.3819.3608-1.9392.6318-4.0998,1.1655-6.3835.465-1.9902.7852-4.1505,1.36-6.3541.5256-2.0151,1.0907-4.1135,1.692-6.2712.566-2.0312,1.5545-4.0057,2.1745-6.1337.595-2.0424.7949-4.246,1.4281-6.3517.6165-2.0503,1.3907-4.0821,2.0328-6.1688.6337-2.0594,1.3911-4.0954,2.0396-6.1676.6474-2.0686,1.4322-4.0959,2.0845-6.155.6586-2.079,1.2778-4.1595,1.931-6.2059.6672-2.0901,1.0789-4.2372,1.7298-6.269.6745-2.1055,1.2965-4.1861,1.9415-6.2022.68-2.1255,1.6331-4.1005,2.2664-6.0956.6852-2.1585,1.4306-4.2036,2.0438-6.1705.6896-2.2118,1.1058-4.3592,1.6801-6.2743.4373-1.4584,1.1519-3.6233,1.8788-6.3762.501-1.8977.9809-4.0841,1.5225-6.4732.4581-2.021.8556-4.213,1.2904-6.5191.3937-2.0878.9007-4.2596,1.2379-6.5334.316-2.1314.3743-4.3631.6104-6.6193.2266-2.1654.5132-4.3686.6397-6.6153.1233-2.1899.1703-4.4104.1741-6.6466.0038-2.2057-.2738-4.4114-.4093-6.6326-.1349-2.2108-.189-4.4249-.4847-6.622-.2963-2.2015-.3723-4.4492-.8529-6.6079-.4833-2.1712-1.0864-4.3298-1.7793-6.4282-.7344-2.2242-1.8499-4.213-2.8895-6.1259-1.1072-2.0374-2.5168-3.7816-3.8959-5.493-1.4438-1.7917-2.7557-3.6528-4.4115-5.1186-1.7195-1.5222-3.739-2.5948-5.5905-3.8009-1.9362-1.2613-3.8733-2.3912-5.8436-3.3472-2.1148-1.026-4.1042-2.1519-6.1238-2.8752-2.2958-.8223-4.5558-1.2365-6.5365-1.7379-2.6665-.675-4.9311-1.1762-6.5915-1.4287-1.652-.2512-2.7695-1.6965-2.7695-3.3675,0-3.4014-.0511-3.4014-.0511-6.8028,0-3.4044.1169-3.4044.1169-6.8087,0-3.4067-.3213-3.4067-.3213-6.8134s.2205-3.4067.2205-6.8134c0-.4803.0243-.9591.2226-1.3965.3999-.8821,2.4215-1.6837,4.6687-2.7695,1.6116-.7787,3.235-1.8831,4.6935-2.8631,1.7996-1.2091,2.969-2.4778,2.969-4.1306,0-2.096-.6705-4.0737-3.351-5.7146-1.5561-.9526-3.7306-1.6723-6.6493-2.3415-1.9685-.4513-4.2591-.9242-6.9758-1.2102-2.1113-.2222-4.4626-.381-7.0814-.4877-2.1792-.0888-4.5408-.0447-7.1022-.0447-2.1647,0-4.1933.1732-6.1188.2867-2.1862.1289-4.2103.2766-6.1007.5212-2.2081.2858-4.3014.1815-6.1255.5772-2.2478.4876-4.1279,1.3837-5.8285,1.9504Z" style="fill:#ddd7cc;"/><path d="M46.1463,30.3849c-1.9731.6575-3.1099,2.2499-3.2877,4.0169s.6748,3.4571,2.4785,4.4931c1.7888,1.0274,3.5497,2.2105,4.9839,3.4013,1.8053,1.4988,2.7479,3.2287,2.7479,5.0444,0,3.4676.2084,3.4676.2084,6.9352,0,3.4706.0865,3.4706.0865,6.9412,0,3.473.0104,3.473.0104,6.946s-.0226,3.473-.0226,6.946c0,1.6236-1.243,2.7978-2.8377,3.1033-1.6043.3073-3.8043.9324-6.4043,1.6591-1.919.5363-4.0805,1.127-6.3186,1.9531-1.9637.7248-3.9794,1.6782-6.0518,2.6637-1.9341.9197-3.834,2.0587-5.7549,3.2352-1.8482,1.1319-3.726,2.3029-5.4674,3.6984-1.6988,1.3613-3.3189,2.869-4.8289,4.5051-1.473,1.596-2.5984,3.4878-3.8109,5.3675-1.1674,1.8098-2.5277,3.57-3.3809,5.6629-.8038,1.9717-1.1959,4.1501-1.6593,6.3898-.4238,2.0482-1.0035,4.09-1.2876,6.1932-.2811,2.0808-.5327,4.1845-.6927,6.2921-.1598,2.1033.0906,4.2286.0359,6.3316-.0551,2.1196-.047,4.2222-.0112,6.3141.038,2.2178-.1213,4.4368.0131,6.6467.1346,2.2133.3545,4.4183.5844,6.6209.2301,2.2049.2848,4.4352.609,6.6265.3244,2.1924.9297,4.3408,1.3469,6.5168s.5928,4.4093,1.1014,6.5663,1.145,4.2898,1.7433,6.4241c.5979,2.1327,1.2634,4.2535,1.9496,6.3615.6855,2.1059,1.5307,4.162,2.3031,6.2404.7713,2.0757,1.6963,4.0916,2.5528,6.1371.7959,1.9009,1.4171,4.0309,2.2833,6.1875.786,1.9568,1.8835,3.8954,2.7014,6.0245.7669,1.9964,1.5735,4.0523,2.3474,6.1693.7416,2.0287,1.2262,4.1981,1.9559,6.3105.7104,2.0565,1.5208,4.1096,2.2032,6.2208.6735,2.084,1.1886,4.2319,1.8188,6.3457.6295,2.1113,1.3164,4.2065,1.8868,6.3241.5764,2.1398,1.3931,4.2119,1.8928,6.3343.5113,2.1716.979,4.3384,1.3928,6.4663.4285,2.2035.4795,4.436.7844,6.5644.3208,2.2401.4792,4.4336.641,6.5581.1718,2.257.1304,4.5763-.805,6.5567-.9341,1.9778-2.7577,3.4078-4.593,4.7275-1.4006,1.0071-2.3814,2.4158-3.3834,3.57-1.1285,1.2999-2.0076,2.5737-2.0076,4.266,0,1.5386.8052,3.5602,2.7773,5.7319,1.2216,1.3453,2.8362,2.788,5.049,4.1119,1.6518.9883,3.5881,1.9923,5.8795,2.8702,1.8526.7098,3.9551,1.2881,6.2699,1.8761,1.9588.4975,4.1163.7733,6.4321,1.1542,2.0211.3324,4.1457.8637,6.4558,1.088,2.0569.1997,4.2336.3748,6.5314.4754,2.0809.0911,4.2665-.1694,6.5539-.1694,2.2101,0,4.3336.3407,6.3558.2322,2.22-.1191,4.3244-.4289,6.3267-.661,2.2215-.2575,4.2598-.8683,6.225-1.2405,2.2161-.4197,4.3661-.4909,6.273-1.0219,2.2013-.613,4.0596-1.7012,5.8745-2.41,2.0846-.814,3.9823-1.752,5.1624-3.3318,1.2628-1.6903,1.8367-3.8132,2.0181-5.8658s-.1017-4.1987-1.05-6.0825c-.8864-1.7608-2.2384-3.4931-4.152-4.6557-.1105-.0671-.3325.0477-.4446-.0201-1.092-.6606-1.7534-1.8524-1.6656-3.1257.1232-1.7873.6797-3.9088,1.1399-6.3819.3608-1.9392.6318-4.0998,1.1655-6.3835.465-1.9902.7852-4.1505,1.36-6.3541.5256-2.0151,1.0907-4.1135,1.692-6.2712.566-2.0312,1.5545-4.0057,2.1745-6.1337.595-2.0424.7949-4.246,1.4281-6.3517.6165-2.0503,1.3907-4.0821,2.0328-6.1688.6337-2.0594,1.3911-4.0954,2.0396-6.1676.6474-2.0686,1.4322-4.0959,2.0845-6.155.6586-2.079,1.2778-4.1595,1.931-6.2059.6672-2.0901,1.0789-4.2372,1.7298-6.269.6745-2.1055,1.2965-4.1861,1.9415-6.2022.68-2.1255,1.6331-4.1005,2.2664-6.0956.6852-2.1585,1.4306-4.2036,2.0438-6.1705.6896-2.2118,1.1058-4.3592,1.6801-6.2743.4373-1.4584,1.1519-3.6233,1.8788-6.3762.501-1.8977.9809-4.0841,1.5225-6.4732.4581-2.021.8556-4.213,1.2904-6.5191.3937-2.0878.9007-4.2596,1.2379-6.5334.316-2.1314.3743-4.3631.6104-6.6193.2266-2.1654.5132-4.3686.6397-6.6153.1233-2.1899.1703-4.4104.1741-6.6466.0038-2.2057-.2738-4.4114-.4093-6.6326-.1349-2.2108-.189-4.4249-.4847-6.622-.2963-2.2015-.3723-4.4492-.8529-6.6079-.4833-2.1712-1.0864-4.3298-1.7793-6.4282-.7344-2.2242-1.8499-4.213-2.8895-6.1259-1.1072-2.0374-2.5168-3.7816-3.8959-5.493-1.4438-1.7917-2.7557-3.6528-4.4115-5.1186-1.7195-1.5222-3.739-2.5948-5.5905-3.8009-1.9362-1.2613-3.8733-2.3912-5.8436-3.3472-2.1148-1.026-4.1042-2.1519-6.1238-2.8752-2.2958-.8223-4.5558-1.2365-6.5365-1.7379-2.6665-.675-4.9311-1.1762-6.5915-1.4287-1.652-.2512-2.7695-1.6965-2.7695-3.3675,0-3.4014-.0511-3.4014-.0511-6.8028,0-3.4044.1169-3.4044.1169-6.8087,0-3.4067-.3213-3.4067-.3213-6.8134s.2205-3.4067.2205-6.8134c0-.4803.0243-.9591.2226-1.3965.3999-.8821,2.4215-1.6837,4.6687-2.7695,1.6116-.7787,3.235-1.8831,4.6935-2.8631,1.7996-1.2091,2.969-2.4778,2.969-4.1306,0-2.096-.6705-4.0737-3.351-5.7146-1.5561-.9526-3.7306-1.6723-6.6493-2.3415-1.9685-.4513-4.2591-.9242-6.9758-1.2102-2.1113-.2222-4.4626-.381-7.0814-.4877-2.1792-.0888-4.5408-.0447-7.1022-.0447-2.1647,0-4.1933.1732-6.1188.2867-2.1862.1289-4.2103.2766-6.1007.5212-2.2081.2858-4.3014.1815-6.1255.5772-2.2478.4876-4.1279,1.3837-5.8285,1.9504Z" style="fill:none; stroke:#ddd7cc; stroke-miterlimit:10; stroke-width:9px;"/><path d="M33.1839,272.774c6.0431.9392,12.4267,1.652,18.4946,2.3382,8.7748,1.3256,17.7747,1.6243,26.6118,1.5064,9.0464-.2047,18.0121-1.5765,26.9126-3.7836-12.2389,13.0706-34.0597,15.1168-50.5986,10.6052-4.5787-1.3858-9.1866-2.9417-13.4019-5.2429-2.8269-1.4726-5.7367-3.1618-8.0186-5.4233h0Z" style="fill:#ceb53a;"/><path d="M56.4383,26.2193c-2.2891-2.4297,1.3546-3.6248.0203-6.6847-1.1449-2.6256-3.0031-.1373-4.9214-2.6391-.912-1.1893-1.5789-2.9139-1.5789-5.4025,0-2.9986,1.5427-4.7378,3.4459-5.7152,2.999-1.5401,3.3491-1.3027,6.8726-1.2014,3.1808.0914,3.1827-.0478,6.3648-.0478,3.1849,0,3.1849.0479,6.3698.0479,3.1871,0,3.1871-.0546,6.3741-.0546s3.1871.0436,6.3741.0436c2.4861,0,4.9618,1.0487,6.3781,3.092.7207,1.0397,1.2488,2.3996,1.2488,4.0974,0,5.4327-2.6055,3.5188-5.0177,7.7178-1.7299,3.0114,2.0962,4.4465-.3137,6.9473-2.1929,2.2757-3.1638-.0166-6.3241-.0363q-3.1586-.0196-6.3171-.0418c-3.1613-.0196-3.1611-.0507-6.3224-.0703-3.1635-.0196-3.2408-.7081-6.3356-.0518-3.3148.7029-4.1483,2.3022-6.3176-.0004Z" style="fill:#ceb53a;"/><path d="M56.4383,26.2193c-2.2891-2.4297,1.3546-3.6248.0203-6.6847-1.1449-2.6256-3.0031-.1373-4.9214-2.6391-.912-1.1893-1.5789-2.9139-1.5789-5.4025,0-2.9986,1.5427-4.7378,3.4459-5.7152,2.999-1.5401,3.3491-1.3027,6.8726-1.2014,3.1808.0914,3.1827-.0478,6.3648-.0478,3.1849,0,3.1849.0479,6.3698.0479,3.1871,0,3.1871-.0546,6.3741-.0546s3.1871.0436,6.3741.0436c2.4861,0,4.9618,1.0487,6.3781,3.092.7207,1.0397,1.2488,2.3996,1.2488,4.0974,0,5.4327-2.6055,3.5188-5.0177,7.7178-1.7299,3.0114,2.0962,4.4465-.3137,6.9473-2.1929,2.2757-3.1638-.0166-6.3241-.0363q-3.1586-.0196-6.3171-.0418c-3.1613-.0196-3.1611-.0507-6.3224-.0703-3.1635-.0196-3.2408-.7081-6.3356-.0518-3.3148.7029-4.1483,2.3022-6.3176-.0004Z" style="fill:none; stroke:#ceb53a; stroke-miterlimit:10; stroke-width:9px;"/><path d="M113.2723,92.0621c2.1661.1128,3.8106,1.2218,5.4277,2.5305,2.7668,1.9934,4.9738,4.6588,6.8829,7.4685,8.5197,13.3026,8.6308,31.8358,4.3689,46.5967-.5789-5.2683-.74-10.4204-1.302-15.5097-1.1767-12.4266-2.9734-25.1881-10.1641-35.6584-1.0736-1.3749-2.1914-3.1984-3.5637-4.3732-.5065-.3727-1.0964-.6913-1.6496-1.0543h0Z" style="fill:#93b7db;"/><path d="M28.9549,91.7696c-.5532.363-1.1431.6821-1.6465,1.0566-1.3765,1.1996-2.445,3.0265-3.6007,4.4015-8.8937,12.5065-9.4277,28.4687-10.8277,43.2572-.306,2.6031-.251,5.196-.5843,7.8133-.7585-2.5261-1.4937-5.0907-1.8682-7.6994-1.9284-13.0644-1.1654-27.4768,6.1108-38.9102,2.1537-3.4468,5.2501-6.2735,8.5813-8.5289,1.0272-.8793,2.5063-1.2442,3.8353-1.39h0Z" style="fill:#93b7db;"/><path d="M55.4867,48.284c2.056,1.3671,3.0516,3.885,3.7885,6.0709,1.5458,4.4752,1.5558,9.4971.1486,14.0119-.7202,2.261-1.7642,4.4109-3.3857,6.2783-.3823-2.4399-.4346-4.6726-.5044-6.8472-.0919-3.7584-.0766-8.9861-.1172-12.7654.0166-2.4566.3208-4.2038.0703-6.7485h0Z" style="fill:#93b7db;"/><path d="M86.8685,48.5113c-.2507,2.5416.0228,4.2844.047,6.7407-.0258,3.8012.0045,8.9767-.0856,12.7649-.0689,2.1819-.1333,4.4092-.5156,6.8487-1.6221-1.8674-2.6562-4.0266-3.3745-6.2798-1.4076-4.5138-1.4127-9.509.1167-14.0115.7308-2.189,1.7561-4.6983,3.812-6.063h0Z" style="fill:#93b7db;"/><path d="M13.8416,170.2644c3.2079-.2642,2.3046-.2117,6.419-.4789,1.8072-.1174,3.957-.356,6.4193-.4936,1.9562-.1093,4.108-.1869,6.4297-.2982,2.0185-.0967,4.1668-.2086,6.4315-.3,2.0524-.0829,4.2042-.0566,6.4371-.1302,2.0741-.0683,4.2214-.1247,6.4339-.1811,2.0893-.0533,4.2356-.1357,6.434-.1751,2.101-.0377,4.2484-.0758,6.4364-.0979,2.1101-.0214,4.2576-.0869,6.4375-.0913,2.1176-.0043,4.2655.0645,6.4388.0785,2.1233.0136,4.2694.1169,6.4363.1502,2.1274.0326,4.2754-.0329,6.436.0207,2.1329.0529,4.2811.0787,6.4377.1539,2.1376.0745,4.2788.3027,6.4314.401,2.1405.0978,4.2851.2109,6.4322.3341,2.1434.123,4.2888.23,6.4307.3801,2.1455.1504,4.3837.2335,6.5195.413-1.8296,2.4395-3.4541,4.4538-4.8274,5.976-3.6013,3.992-1.8497,4.8686-5.6472,5.0631-3.3134.1697-3.3078-.2455-6.606-.605s-3.2884-.4538-6.5871-.8134-3.3042-.3046-6.6024-.6641-3.2802-.5247-6.5785-.8842-3.2998-.349-6.5984-.7086c-3.2957-.3592-3.3164-.1688-6.6121-.528s-3.2951-.38-6.5924-.7394-3.2924-.418-6.5911-.7776-3.2865-.4723-6.5852-.8319-3.2987-.3608-6.5975-.7203c-3.2997-.3597-3.3033-.3264-6.6029-.6861-3.2979-.3595-3.3122-.2277-6.6101-.5872-3.3007-.3598-3.304-.3297-6.6047-.6895-3.303-.36-3.2863-.5136-6.5893-.8737s-3.3073-.3211-6.6103-.6811" style="fill:#93b7db;"/><path d="M13.9114,170.2536c1.4966-3.073,2.3814-.9336,6.4476-2.0523,1.8903-.52,4.1253-1.0713,6.645-1.5545,2.0798-.3988,4.3244-.89,6.7346-1.1537,2.1673-.2372,4.4564-.2658,6.8224-.3174,2.2135-.0483,4.499-.1105,6.8317.0649,2.2253.1674,4.4782.5379,6.7648.9615,2.2013.4078,4.4514.817,6.6676,1.509,2.1361.667,4.2106,1.6231,6.3231,2.596,1.9725.9084,4.0451,1.5161,6.0768,2.1491,2.0695.6448,4.1221,1.316,6.2149,1.7115,2.1328.403,4.2935.4995,6.4103.6819,2.1737.1874,4.3205.4089,6.4339.4052,2.1994-.0038,4.3518-.1781,6.4372-.3424,2.2229-.1751,4.368-.4066,6.4033-.7084,2.2625-.3355,4.3875-.7428,6.3399-1.1599,2.37-.5064,4.5108-.9335,6.2893-1.4317,3.8373-1.0748,6.1836-2.0302,6.1836-2.0302-1.0532,3.2035-.7994,2.3702-2.0795,6.4149-.5779,1.8262-1.4202,3.9416-2.1754,6.3825-.6127,1.9803-1.2654,4.145-1.9637,6.452-.6196,2.0469-1.2223,4.2226-1.8886,6.475-.6172,2.0864-1.2055,4.2637-1.8468,6.4861-.6104,2.1156-1.3287,4.2558-1.9473,6.4605-.5997,2.1372-1.0245,4.3569-1.6195,6.547-.5867,2.1596-1.3025,4.3015-1.873,6.4831-.5702,2.1803-1.1547,4.3586-1.6971,6.5318-.5498,2.2031-1.0354,4.4073-1.5446,6.573-.5239,2.228-.9925,4.4355-1.4604,6.5914-.4903,2.2588-1.026,4.4537-1.44,6.5962-.4445,2.3002-.719,4.5447-1.0576,6.6655-.3774,2.3645-.7248,4.5965-.9459,6.6762-.2644,2.487-.4367,4.725-.4367,6.7025-1.9473.9736-3.9352,1.7522-5.9625,2.4503-2.0551.7077-4.1288,1.2968-6.2242,1.7569-2.1267.4669-4.2542.8431-6.3788,1.0919-2.1748.2546-4.3316.4923-6.4573.5578-2.2072.068-4.3751-.0589-6.4775-.151-2.2373-.098-4.4128-.1339-6.4695-.361-2.2838-.2521-4.4179-.7095-6.3961-1.0506-2.3995-.4137-4.5694-.7363-6.3769-1.1609-3.8986-.9158-4.1989.7434-6.1339-1.8495-1.9377-2.5964.1154-2.1574-.1892-6.4146-.1282-1.7922-.471-3.934-.7801-6.4374-.2387-1.9325-.5519-4.0698-.9381-6.4127-.3265-1.9809-.7518-4.0966-1.2066-6.3631-.4017-2.0019-.8724-4.1074-1.3895-6.3269-.4683-2.0099-.9035-4.1269-1.4778-6.3114-.5285-2.0104-1.0968-4.0956-1.7237-6.251-.5834-2.0058-1.2701-4.0546-1.9457-6.1835-.6338-1.9972-1.2893-4.0532-2.01-6.1569-.6815-1.9891-1.401-4.0249-2.165-6.1075-.7266-1.9808-1.4313-4.0258-2.2366-6.0897-.7682-1.9688-1.5165-3.9987-2.36-6.0419-.8079-1.9569-1.6978-3.9288-2.5779-5.9529-.8455-1.9446-1.7159-3.9246-2.6308-5.9304-.8815-1.9327-1.8355-3.8752-2.784-5.8637-.9157-1.9199-1.7778-3.8354-2.7582-5.8066Z" style="fill:#5389c6;"/><path d="M70.9591,122.505c.2459-.0256.4537-.0287.565-.0162-.0937-1.1225-.2678-2.2598-.4568-3.4117-.2827-1.3138-.5248-3.2285-.5715-5.1182-.0485-1.9624.1024-3.9023.521-5.1087.2928-.8438,1.0559-1.3102,1.8365-1.3204.8422-.011,1.5676.6463,1.8412,1.5323.4841,2.1434.5202,4.5428.3114,6.9531-.2047,2.3631-.642,4.7331-1.0982,6.8904,1.5355-.8798,3.0089-1.6371,4.4853-2.3209,1.535-.7109,3.066-1.3457,4.7035-1.8434,1.4274-.555,2.8968-.9041,4.4625-.7241.8483.0975,1.3327.9225,1.4391,1.664.1942,1.3534-1.6011,2.3807-3.7535,3.1324-1.7112.5976-3.6601,1.0272-5.0381,1.3349-1.9176.4282-3.7355.7291-5.7428.8042,1.6484,1.44,3.2221,2.9316,4.6437,4.5438,1.4279,1.6194,2.7072,3.3604,3.8209,5.2453.4649.7868.6695,1.6832.4178,2.5319-.1842.6211-.8404.872-1.2605,1.0331-.6741.2586-1.2937.018-1.8724-.3848-1.6412-1.5081-3.0261-3.4218-4.2503-5.4757-1.1888-1.9946-2.2109-4.153-3.2033-6.1836-.7756,1.8069-2.0196,4.274-3.4197,6.5205-1.523,2.4436-3.2399,4.637-4.7965,5.4757-.7663.4129-1.5827-.1644-2.0205-.6177-1.6774-1.7368,2.0549-5.935,4.022-8.2329,1.3907-1.6246,2.8893-3.0593,4.5422-4.4287-1.8335-.1923-4.7056-.6441-7.3866-1.3054-3.0295-.7474-5.8712-1.7418-6.7865-2.9351-.4954-.6459-.2876-1.4527.0697-2.0917.3054-.5462,1.0365-.9604,1.8312-.8417.9372.1399.9468.0803,1.873.2801,1.6156.4729,3.1867,1.0129,4.7242,1.6389,1.5412.6274,3.0527,1.3222,4.5342,2.1139.5203.3146.473.3903,1.0127.6667Z" style="fill:#5c9de0;"/><g style="opacity:.5;"><g style="opacity:.5;"><path d="M28.0865,92.4577c-.0255-.0104-.0266-.0244-.003-.0386q1.2103-.7281,2.4184-1.4601c.0236-.0142.065-.0172.0888-.0034q1.1571.6699,2.3142,1.3397c.0238.0138.0215.0397-.0029.0524q-1.1015.5705-2.2039,1.1392c-.0244.0126-.0637.0133-.0891.0029q-1.2601-.5188-2.5224-1.0322Z" style="fill:#93b7db;"/></g><g style="opacity:.5;"><path d="M24.6538,96.025c-.0181.0207-.0383.0157-.0441-.0112q-.299-1.3805-.5968-2.7612c-.0058-.0269.0081-.0608.0288-.0789q1.0072-.8793,2.014-1.759c.0207-.0181.0432-.0137.0473.0135q.1849,1.2266.3669,2.4537c.0041.0272-.0093.066-.0274.0868q-.8946,1.0279-1.7887,2.0563Z" style="fill:#93b7db;"/></g><g style="opacity:.5;"><path d="M21.4771,101.2255c-.0275.0012-.037-.0161-.0215-.0388q.7957-1.167,1.5894-2.3354c.0155-.0227.0521-.0354.0795-.0328q1.3311.1255,2.6622.2514c.0274.0026.0383.0211.0214.0428q-.7626.9783-1.5265,1.9558c-.0169.0217-.0541.0392-.0816.0404q-1.3615.058-2.7229.1167Z" style="fill:#93b7db;"/></g><g style="opacity:.5;"><path d="M31.7301,96.8239c-.0255-.0104-.024-.0311-.0005-.0453q1.2103-.7281,2.418-1.4608c.0236-.0142.062-.0103.0858.0035q1.1571.6699,2.3147,1.3388c.0238.0138.0226.0308-.0019.0435-1.1015.5705-1.0992.5749-2.2007,1.1454-.0244.0126-.0674.0171-.0929.0067q-1.2627-.5124-2.5225-1.0318Z" style="fill:#93b7db;"/></g><g style="opacity:.5;"><path d="M28.2968,100.3819c-.0181.0207-.0355.0186-.0413-.0082q-.299-1.3805-.6008-2.7603c-.0058-.0269.0101-.0647.0308-.0827q1.0072-.8793,2.0143-1.7587c.0207-.0181.0392-.0102.0433.017q.1849,1.2266.3693,2.4533c.0041.0272-.0017.0688-.0197.0896q-.8978,1.0251-1.7958,2.05Z" style="fill:#93b7db;"/></g><g style="opacity:.5;"><path d="M25.1234,105.5849c-.0275.0012-.0341-.0138-.0187-.0366q.7957-1.167,1.5911-2.3343c.0155-.0227.0479-.0414.0753-.0388q1.3311.1255,2.6624.2486c.0274.0026.0323.0226.0154.0443q-.7626.9783-1.5218,1.9594c-.0169.0217-.0533.0419-.0807.0431q-1.3615.0577-2.723.1142Z" style="fill:#93b7db;"/></g><g style="opacity:.5;"><path d="M27.5693,113.6273c-.0255-.0104-.0248-.0281-.0013-.0423q1.2103-.7281,2.4182-1.4603c.0236-.0142.0626-.0131.0864.0006q1.1571.6699,2.3158,1.3369c.0238.0138.0237.0414-.0007.054-1.1015.5705-1.1043.5652-2.2058,1.1357-.0244.0126-.0626.0121-.088.0017q-1.2616-.5149-2.5247-1.0264Z" style="fill:#93b7db;"/></g><g style="opacity:.5;"><path d="M24.1409,117.1931c-.0181.0207-.0421.0135-.0479-.0134-.299-1.3805-.2947-1.3814-.5937-2.7619-.0058-.0269.0063-.06.027-.0781q1.0072-.8793,2.0119-1.7614c.0207-.0181.0442-.0115.0483.0157q.1849,1.2266.3678,2.4535c.0041.0272-.009.0664-.0271.0872q-.8919,1.0303-1.7863,2.0583Z" style="fill:#93b7db;"/></g><g style="opacity:.5;"><path d="M20.9614,122.3893c-.0275.0012-.0341-.0122-.0186-.035.7957-1.167.7905-1.1706,1.5862-2.3376.0155-.0227.0529-.0406.0803-.038q1.3311.1255,2.6623.2505c.0274.0026.0367.0267.0198.0484q-.7626.9783-1.5275,1.955c-.0169.0217-.052.0452-.0794.0464-1.3615.0561-1.3617.0521-2.7232.1103Z" style="fill:#93b7db;"/></g><g style="opacity:.5;"><path d="M31.2152,117.9879c-.0255-.0104-.0259-.0314-.0024-.0455q1.2103-.7281,2.4193-1.4585c.0236-.0142.0654-.0168.0892-.003,1.1571.6699,1.1543.6746,2.3114,1.3445.0238.0138.0243.0353-.0001.048q-1.1015.5705-2.2031,1.1409c-.0244.0126-.0639.0094-.0893-.001q-1.262-.5141-2.5251-1.0254Z" style="fill:#93b7db;"/></g><g style="opacity:.5;"><path d="M27.7822,121.5485c-.0181.0207-.0397.0184-.0455-.0085-.299-1.3805-.2935-1.3817-.5925-2.7621-.0058-.0269.0041-.0643.0248-.0824q1.0072-.8793,2.0164-1.7562c.0207-.0181.0396-.012.0437.0151q.1849,1.2266.3721,2.4529c.0041.0272-.0064.0693-.0245.0901q-.8968,1.026-1.7946,2.0512Z" style="fill:#93b7db;"/></g><g style="opacity:.5;"><path d="M24.6076,126.7478c-.0275.0012-.038-.0138-.0225-.0365q.7957-1.167,1.5891-2.3356c.0155-.0227.0538-.0367.0811-.0341q1.3311.1255,2.6622.2509c.0274.0026.0356.022.0187.0437q-.7626.9783-1.5261,1.956c-.0169.0217-.0518.0455-.0793.0467-1.3616.055-1.3618.0508-2.7232.1089Z" style="fill:#93b7db;"/></g><g style="opacity:.5;"><path d="M19.8157,104.7844c-.0255-.0104-.0266-.0341-.003-.0483q1.2103-.7281,2.4216-1.4547c.0236-.0142.0639-.0182.0877-.0045q1.1571.6699,2.3118,1.3439c.0238.0138.0223.0315-.0021.0442-1.1015.5705-1.0978.5776-2.1993,1.1481-.0244.0126-.069.0145-.0945.0041q-1.2624-.5131-2.5221-1.0328Z" style="fill:#93b7db;"/></g><g style="opacity:.5;"><path d="M16.3828,108.3438c-.0181.0207-.0337.0174-.0395-.0094q-.299-1.3805-.5977-2.761c-.0058-.0269.0026-.0655.0233-.0836q1.0072-.8793,2.0148-1.7581c.0207-.0181.0466-.0096.0507.0176q.1849,1.2266.3679,2.4535c.0041.0272-.0082.0679-.0262.0887q-.8971,1.0258-1.7933,2.0523Z" style="fill:#93b7db;"/></g><g style="opacity:.5;"><path d="M13.2088,113.5509c-.0275.0012-.0345-.0187-.019-.0414.7957-1.167.79-1.1709,1.5857-2.3379.0155-.0227.0533-.0369.0806-.0343q1.3311.1255,2.6625.2475c.0274.0026.0337.024.0168.0457q-.7626.9783-1.5256,1.9564c-.0169.0217-.0508.0442-.0783.0454q-1.3613.0624-2.7228.1186Z" style="fill:#93b7db;"/></g><g style="opacity:.5;"><path d="M23.463,109.1415c-.0255-.0104-.0258-.0285-.0023-.0427q1.2103-.7281,2.42-1.4573c.0236-.0142.0596-.0117.0834.0021,1.1571.6699,1.1598.6651,2.3169,1.335.0238.0138.0242.0392-.0002.0519q-1.1015.5705-2.2024,1.1423c-.0244.0126-.066.0072-.0915-.0032q-1.2614-.5157-2.524-1.0281Z" style="fill:#93b7db;"/></g><g style="opacity:.5;"><path d="M20.0336,112.7075c-.0181.0207-.0392.0136-.045-.0133q-.299-1.3805-.5987-2.7608c-.0058-.0269.0094-.0602.0301-.0783q1.0072-.8793,2.0142-1.7588c.0207-.0181.0406-.0142.0447.013.1849,1.2266.1809,1.2272.3658,2.4539.0041.0272-.0058.066-.0239.0868q-.8926,1.0297-1.7871,2.0576Z" style="fill:#93b7db;"/></g><g style="opacity:.5;"><path d="M16.8548,117.9021c-.0275.0012-.0378-.0127-.0223-.0355q.7957-1.167,1.5915-2.334c.0155-.0227.0516-.0424.0789-.0398,1.3311.1255,1.3307.1297,2.6618.2552.0274.0026.0381.0235.0212.0452q-.7626.9783-1.5256,1.9565c-.0169.0217-.0549.0415-.0824.0427q-1.3616.0541-2.7232.1097Z" style="fill:#93b7db;"/></g><g style="opacity:.5;"><path d="M36.7114,100.7738c-.0255-.0104-.0272-.0335-.0036-.0477q1.2103-.7281,2.4212-1.4553c.0236-.0142.0643-.017.0881-.0032q1.1571.6699,2.3116,1.3443c.0238.0138.0236.0328-.0008.0454q-1.1015.5705-2.2013,1.1442c-.0244.0126-.0676.0155-.093.005q-1.262-.514-2.5221-1.0327Z" style="fill:#93b7db;"/></g><g style="opacity:.5;"><path d="M33.2784,104.3344c-.0181.0207-.0393.0183-.0451-.0086-.299-1.3805-.2939-1.3816-.5929-2.762-.0058-.0269.0036-.065.0243-.0831q1.0072-.8793,2.0142-1.7588c.0207-.0181.0427-.0089.0468.0183q.1849,1.2266.3727,2.4528c.0041.0272-.0109.0665-.0289.0872q-.8968,1.026-1.7911,2.0542Z" style="fill:#93b7db;"/></g><g style="opacity:.5;"><path d="M30.1041,109.5388c-.0275.0012-.0384-.019-.0229-.0418q.7957-1.167,1.5958-2.331c.0155-.0227.0475-.0441.0749-.0415q1.3311.1255,2.662.2537c.0274.0026.0393.025.0224.0467q-.7626.9783-1.5289,1.9539c-.0169.0217-.0528.0432-.0803.0443q-1.3614.06-2.7229.1157Z" style="fill:#93b7db;"/></g><g style="opacity:.5;"><path d="M40.3584,105.1318c-.0255-.0104-.0246-.0265-.0011-.0407q1.2103-.7281,2.4179-1.4609c.0236-.0142.0617-.012.0855.0018q1.1571.6699,2.3162,1.3363c.0238.0138.022.0363-.0024.049q-1.1015.5705-2.2034,1.1402c-.0244.0126-.0631.0128-.0886.0024q-1.2614-.5157-2.524-1.0281Z" style="fill:#93b7db;"/></g><g style="opacity:.5;"><path d="M36.9247,108.694c-.0181.0207-.0391.0183-.0449-.0086-.299-1.3805-.2921-1.382-.5911-2.7624-.0058-.0269.0055-.06.0263-.0781q1.0072-.8793,2.0138-1.7593c.0207-.0181.0412-.0133.0453.0139q.1849,1.2266.3677,2.4536c.0041.0272-.0078.066-.0258.0868q-.8968,1.026-1.7912,2.0541Z" style="fill:#93b7db;"/></g><g style="opacity:.5;"><path d="M33.7503,113.8976c-.0275.0012-.04-.0193-.0246-.042.7957-1.167.8018-1.1629,1.5975-2.3299.0155-.0227.0474-.0431.0748-.0405q1.3311.1255,2.662.2534c.0274.0026.0365.022.0196.0437q-.7626.9783-1.5287,1.954c-.0169.0217-.0504.0391-.0779.0403-1.3614.0591-1.3613.0628-2.7227.1209Z" style="fill:#93b7db;"/></g><g style="opacity:.5;"><path d="M12.8761,96.3333c-.0255-.0104-.0253-.0346-.0017-.0488q1.2103-.7281,2.4207-1.4563c.0236-.0142.0607-.0116.0845.0021q1.1571.6699,2.3139,1.3402c.0238.0138.0269.0352.0025.0478-1.1015.5705-1.1037.5663-2.2052,1.1368-.0244.0126-.0664.0197-.0918.0093q-1.263-.5116-2.5227-1.0313Z" style="fill:#93b7db;"/></g><g style="opacity:.5;"><path d="M9.4427,99.8901c-.0181.0207-.0336.0186-.0394-.0083q-.299-1.3805-.6004-2.7604c-.0058-.0269.0097-.0623.0304-.0804q1.0072-.8793,2.0136-1.7594c.0207-.0181.0411-.0117.0452.0155.1849,1.2266.1798,1.2274.3647,2.454.0041.0272-.0037.0652-.0218.086q-.8982,1.0248-1.7924,2.0531Z" style="fill:#93b7db;"/></g><g style="opacity:.5;"><path d="M6.2698,105.0952c-.0275.0012-.0408-.0201-.0253-.0428q.7957-1.167,1.5932-2.3328c.0155-.0227.0525-.0394.0799-.0368q1.3311.1255,2.6621.2518c.0274.0026.0366.0236.0197.0453q-.7626.9783-1.5268,1.9555c-.0169.0217-.0525.0407-.0799.0419q-1.3614.0595-2.7228.118Z" style="fill:#93b7db;"/></g><g style="opacity:.5;"><path d="M16.5252,100.6861c-.0255-.0104-.0282-.0279-.0047-.0421q1.2103-.7281,2.4227-1.4528c.0236-.0142.0598-.0168.0836-.003q1.1571.6699,2.3161,1.3364c.0238.0138.0221.0381-.0023.0508q-1.1015.5705-2.2022,1.1425c-.0244.0126-.0648.0094-.0903-.001q-1.2603-.5184-2.5229-1.0308Z" style="fill:#93b7db;"/></g><g style="opacity:.5;"><path d="M13.0904,104.2511c-.0181.0207-.0329.0168-.0387-.01-.299-1.3805-.3038-1.3794-.6028-2.7599-.0058-.0269.0101-.0622.0309-.0803q1.0072-.8793,2.0107-1.7628c.0207-.0181.0475-.0091.0516.0181q.1849,1.2266.3699,2.4532c.0041.0272-.0095.0692-.0275.09q-.8967,1.0261-1.7939,2.0517Z" style="fill:#93b7db;"/></g><g style="opacity:.5;"><path d="M9.9158,109.4504c-.0275.0012-.0387-.0142-.0232-.0369q.7957-1.167,1.591-2.3343c.0155-.0227.0525-.0372.0799-.0346,1.3311.1255,1.3315.1208,2.6627.2463.0274.0026.0369.0276.02.0493q-.7626.9783-1.5272,1.9552c-.0169.0217-.0528.0366-.0802.0378-1.3616.055-1.3614.0592-2.7229.1174Z" style="fill:#93b7db;"/></g><g style="opacity:.5;"><path d="M14.5983,91.8452c-.0275.0012-.0349-.0126-.0194-.0354.7957-1.167.79-1.1709,1.5858-2.3379.0155-.0227.0539-.0359.0813-.0334q1.3311.1255,2.6622.2515c.0274.0026.0383.0227.0214.0444q-.7626.9783-1.5292,1.9537c-.0169.0217-.0515.0432-.0789.0444q-1.3615.056-2.7231.1126Z" style="fill:#93b7db;"/></g><g style="opacity:.5;"><path d="M24.8524,87.4433c-.0255-.0104-.0252-.029-.0017-.0432q1.2103-.7281,2.4189-1.4592c.0236-.0142.0631-.0145.0869-.0007q1.1571.6699,2.3149,1.3384c.0238.0138.0223.0376-.0021.0502q-1.1015.5705-2.2021,1.1427c-.0244.0126-.0658.0116-.0912.0012q-1.2617-.5148-2.5235-1.0294Z" style="fill:#93b7db;"/></g><g style="opacity:.5;"><path d="M21.4197,91.0051c-.0181.0207-.032.016-.0378-.0109q-.299-1.3805-.5978-2.761c-.0058-.0269.0022-.0624.0229-.0805q1.0072-.8793,2.0153-1.7575c.0207-.0181.0395-.012.0436.0152q.1849,1.2266.3666,2.4537c.0041.0272-.0068.0633-.0249.084q-.8961,1.0266-1.7879,2.057Z" style="fill:#93b7db;"/></g><g style="opacity:.5;"><path d="M18.2447,96.2078c-.0275.0012-.0391-.0184-.0236-.0411.7957-1.167.8007-1.1636,1.5964-2.3306.0155-.0227.0476-.0431.075-.0405q1.3311.1255,2.6622.2511c.0274.0026.0361.0244.0192.0461q-.7626.9783-1.5233,1.9583c-.0169.0217-.0557.0353-.0831.0365q-1.3614.0589-2.7227.1204Z" style="fill:#93b7db;"/></g><g style="opacity:.5;"><path d="M2.9913,109.2867c-.0255-.0104-.0289-.0317-.0053-.0459q1.2103-.7281,2.4207-1.4562c.0236-.0142.0631-.0111.0869.0027,1.1571.6699,1.1598.6652,2.3169,1.3351.0238.0138.0224.0412-.002.0539q-1.1015.5705-2.2026,1.1419c-.0244.0126-.0671.0121-.0926.0016q-1.2609-.5168-2.522-1.0331Z" style="fill:#93b7db;"/></g><g style="opacity:.5;"><path d="M6.6366,113.6487c-.0255-.0104-.026-.0308-.0024-.0449q1.2103-.7281,2.4181-1.4605c.0236-.0142.0633-.0094.0871.0044q1.1571.6699,2.3164,1.3359c.0238.0138.0206.0346-.0039.0472-1.1015.5705-1.098.5774-2.1995,1.1479-.0244.0126-.067.0099-.0924-.0005q-1.2618-.5145-2.5235-1.0294Z" style="fill:#93b7db;"/></g><g style="opacity:.5;"><path d="M3.2032,117.2095c-.0181.0207-.0335.0173-.0393-.0096-.299-1.3805-.3054-1.3791-.6044-2.7595-.0058-.0269.0104-.0652.0311-.0833q1.0072-.8793,2.0128-1.7604c.0207-.0181.0469-.0089.051.0183.1849,1.2266.1806,1.2273.3655,2.4539.0041.0272-.01.0635-.0281.0843q-.897,1.0259-1.7886,2.0564Z" style="fill:#93b7db;"/></g><g style="opacity:.5;"><path d="M.029,122.4101c-.0275.0012-.037-.0142-.0215-.0369q.7957-1.167,1.5935-2.3326c.0155-.0227.0482-.0385.0756-.036q1.3311.1255,2.6623.25c.0274.0026.0365.0216.0196.0433q-.7626.9783-1.5248,1.9571c-.0169.0217-.0541.0417-.0816.0429q-1.3615.056-2.7231.1121Z" style="fill:#93b7db;"/></g><g style="opacity:.5;"><path d="M10.5486,118.0974c-.0255-.0104-.0247-.028-.0011-.0422q1.2103-.7281,2.4185-1.4598c.0236-.0142.0647-.018.0885-.0043q1.1571.6699,2.3117,1.344c.0238.0138.0228.0336-.0016.0462-1.1015.5705-1.0991.5752-2.2006,1.1457-.0244.0126-.0668.011-.0923.0006q-1.2617-.5148-2.5232-1.0302Z" style="fill:#93b7db;"/></g><g style="opacity:.5;"><path d="M7.1156,121.659c-.0181.0207-.0358.0172-.0416-.0097q-.299-1.3805-.602-2.7601c-.0058-.0269.0081-.0669.0288-.085,1.0072-.8793,1.0123-.8735,2.0194-1.7528.0207-.0181.039-.0142.0431.0129.1849,1.2266.1811,1.2272.366,2.4538.0041.0272-.0036.0668-.0217.0875q-.8964,1.0263-1.7921,2.0533Z" style="fill:#93b7db;"/></g><g style="opacity:.5;"><path d="M3.941,126.8655c-.0275.0012-.0361-.0197-.0206-.0424q.7957-1.167,1.5881-2.3363c.0155-.0227.0526-.0387.08-.0361q1.3311.1255,2.662.2531c.0274.0026.0363.0214.0193.0431q-.7626.9783-1.5247,1.9571c-.0169.0217-.0538.0437-.0812.0449-1.3613.0623-1.3614.0585-2.7229.1167Z" style="fill:#93b7db;"/></g><g style="opacity:.5;"><path d="M14.1963,122.4534c-.0255-.0104-.03-.0307-.0065-.0448,1.2103-.7281,1.2135-.7229,2.4238-1.451.0236-.0142.0611-.0169.0849-.0031q1.1571.6699,2.3139,1.3402c.0238.0138.0242.0367-.0002.0494-1.1015.5705-1.1044.565-2.2059,1.1355-.0244.0126-.0636.0196-.0891.0092q-1.2602-.5185-2.5211-1.0353Z" style="fill:#93b7db;"/></g><g style="opacity:.5;"><path d="M10.7643,126.0208c-.0181.0207-.038.015-.0439-.0119q-.299-1.3805-.5939-2.7618c-.0058-.0269.0002-.0648.0209-.0829q1.0072-.8793,2.0149-1.758c.0207-.0181.0466-.0099.0507.0173q.1849,1.2266.369,2.4534c.0041.0272-.0111.0666-.0292.0874q-.8941,1.0284-1.7885,2.0565Z" style="fill:#93b7db;"/></g><g style="opacity:.5;"><path d="M7.5871,131.2219c-.0275.0012-.0407-.0197-.0252-.0424q.7957-1.167,1.592-2.3336c.0155-.0227.0537-.0401.0811-.0375,1.3311.1255,1.3307.13,2.6618.2555.0274.0026.0366.0211.0197.0428q-.7626.9783-1.5285,1.9542c-.0169.0217-.0506.0394-.0781.0406q-1.3614.059-2.7227.1204Z" style="fill:#93b7db;"/></g><g style="opacity:.5;"><path d="M18.1585,126.8389c-.0255-.0104-.0249-.0344-.0014-.0485q1.2103-.7281,2.4187-1.4594c.0236-.0142.0655-.0144.0893-.0006q1.1571.6699,2.3127,1.3423c.0238.0138.0255.0397.001.0524-1.1015.5705-1.1054.563-2.2069,1.1335-.0244.0126-.0645.0201-.09.0097q-1.2631-.5114-2.5235-1.0293Z" style="fill:#93b7db;"/></g><g style="opacity:.5;"><path d="M14.7291,130.3989c-.0181.0207-.0417.0161-.0475-.0107q-.299-1.3805-.5956-2.7614c-.0058-.0269.0091-.0622.0298-.0803q1.0072-.8793,2.0149-1.758c.0207-.0181.0375-.0128.0416.0144q.1849,1.2266.3682,2.4535c.0041.0272-.0056.0648-.0236.0856q-.8944,1.0281-1.7878,2.057Z" style="fill:#93b7db;"/></g><g style="opacity:.5;"><path d="M11.5521,135.5973c-.0275.0012-.0356-.0133-.0201-.036q.7957-1.167,1.5904-2.3347c.0155-.0227.0503-.0424.0776-.0398,1.3311.1255,1.3305.1316,2.6616.2572.0274.0026.0372.0198.0203.0415q-.7626.9783-1.5273,1.9551c-.0169.0217-.0521.0401-.0796.0413q-1.3615.0562-2.7229.1155Z" style="fill:#93b7db;"/></g><g style="opacity:.5;"><path d="M21.805,131.1981c-.0255-.0104-.0248-.0333-.0012-.0475q1.2103-.7281,2.42-1.4573c.0236-.0142.0605-.0113.0843.0025q1.1571.6699,2.3143,1.3396c.0238.0138.0239.0302-.0005.0429q-1.1015.5705-2.2029,1.1412c-.0244.0126-.0657.0201-.0911.0097q-1.2629-.5119-2.5228-1.0311Z" style="fill:#93b7db;"/></g><g style="opacity:.5;"><path d="M18.3758,134.759c-.0181.0207-.0347.0141-.0405-.0127q-.299-1.3805-.5976-2.761c-.0058-.0269.0006-.0646.0213-.0827q1.0072-.8793,2.0158-1.7569c.0207-.0181.0416-.0106.0456.0166q.1849,1.2266.3688,2.4534c.0041.0272-.0084.0648-.0265.0856q-.8939,1.0285-1.787,2.0578Z" style="fill:#93b7db;"/></g><g style="opacity:.5;"><path d="M58.4509,59.2613c-.0255-.0104-.0266-.0337-.0031-.0479q1.2103-.7281,2.4224-1.4533c.0236-.0142.0609-.0161.0847-.0023q1.1571.6699,2.3131,1.3417c.0238.0138.0248.0336.0004.0462-1.1015.5705-1.1037.5662-2.2052,1.1367-.0244.0126-.0619.0151-.0874.0047q-1.2623-.5134-2.525-1.0258Z" style="fill:#93b7db;"/></g><g style="opacity:.5;"><path d="M55.0209,62.8236c-.0181.0207-.0421.0159-.0479-.011-.299-1.3805-.2937-1.3816-.5927-2.7621-.0058-.0269.0064-.0615.0271-.0796q1.0072-.8793,2.0111-1.7624c.0207-.0181.0457-.0092.0498.018q.1849,1.2266.3681,2.4535c.0041.0272-.006.0689-.0241.0896q-.8941,1.0284-1.7914,2.0539Z" style="fill:#93b7db;"/></g><g style="opacity:.5;"><path d="M51.8439,68.0253c-.0275.0012-.0353-.0166-.0198-.0393q.7957-1.167,1.5874-2.3368c.0155-.0227.053-.041.0804-.0384q1.3311.1255,2.662.2532c.0274.0026.0353.0231.0184.0448q-.7626.9783-1.527,1.9554c-.0169.0217-.0509.0433-.0784.0445q-1.3614.0596-2.7229.1167Z" style="fill:#93b7db;"/></g><g style="opacity:.5;"><path d="M62.0981,63.6188c-.0255-.0104-.0278-.0319-.0042-.046q1.2103-.7281,2.4204-1.4567c.0236-.0142.0626-.0114.0864.0024q1.1571.6699,2.3141,1.3399c.0238.0138.0262.0378.0017.0504q-1.1015.5705-2.2033,1.1404c-.0244.0126-.0685.0152-.094.0048q-1.2614-.5156-2.5211-1.0352Z" style="fill:#93b7db;"/></g><g style="opacity:.5;"><path d="M58.6648,67.1812c-.0181.0207-.0319.0163-.0377-.0105q-.299-1.3805-.6011-2.7603c-.0058-.0269.0059-.063.0266-.0811q1.0072-.8793,2.0161-1.7566c.0207-.0181.0417-.0136.0458.0136q.1849,1.2266.3682,2.4535c.0041.0272-.0107.0648-.0287.0855q-.8965,1.0263-1.7892,2.0558Z" style="fill:#93b7db;"/></g><g style="opacity:.5;"><path d="M55.4902,72.3859c-.0275.0012-.0399-.0206-.0244-.0433q.7957-1.167,1.5922-2.3335c.0155-.0227.0524-.0384.0798-.0358q1.3311.1255,2.6621.2521c.0274.0026.0366.0222.0196.0439q-.7626.9783-1.5287,1.9541c-.0169.0217-.0504.0416-.0779.0428q-1.3613.0606-2.7228.1198Z" style="fill:#93b7db;"/></g><g style="opacity:.5;"><path d="M57.9365,80.424c-.0255-.0104-.0253-.0263-.0017-.0405q1.2103-.7281,2.4199-1.4575c.0236-.0142.0612-.0168.085-.003q1.1571.6699,2.3143,1.3395c.0238.0138.0224.0346-.002.0473q-1.1015.5705-2.2037,1.1397c-.0244.0126-.0651.0198-.0906.0094q-1.2611-.5164-2.5213-1.0349Z" style="fill:#93b7db;"/></g><g style="opacity:.5;"><path d="M54.5037,83.9879c-.0181.0207-.0378.0167-.0436-.0101q-.299-1.3805-.5973-2.7611c-.0058-.0269.0059-.0648.0266-.0828q1.0072-.8793,2.0153-1.7576c.0207-.0181.0409-.0107.045.0165q.1849,1.2266.3716,2.453c.0041.0272-.0115.0645-.0296.0852q-.8957,1.027-1.788,2.0569Z" style="fill:#93b7db;"/></g><g style="opacity:.5;"><path d="M51.3282,89.1916c-.0275.0012-.036-.0176-.0206-.0404q.7957-1.167,1.5886-2.3359c.0155-.0227.0523-.0404.0797-.0378,1.3311.1255,1.3305.1321,2.6616.2576.0274.0026.0343.0165.0174.0382q-.7626.9783-1.5214,1.9597c-.0169.0217-.0551.038-.0826.0392q-1.3614.0602-2.7228.1194Z" style="fill:#93b7db;"/></g><g style="opacity:.5;"><path d="M61.5839,84.7811c-.0255-.0104-.0285-.0274-.005-.0415q1.2103-.7281,2.4229-1.4525c.0236-.0142.0603-.0181.0841-.0044q1.1571.6699,2.3139,1.3401c.0238.0138.0232.0347-.0012.0474q-1.1015.5705-2.2011,1.1447c-.0244.0126-.0654.0078-.0909-.0026q-1.26-.519-2.5228-1.0312Z" style="fill:#93b7db;"/></g><g style="opacity:.5;"><path d="M58.1536,88.3508c-.0181.0207-.0412.0134-.047-.0134q-.299-1.3805-.5995-2.7606c-.0058-.0269.0068-.0662.0275-.0843q1.0072-.8793,2.017-1.7556c.0207-.0181.0438-.0122.0479.015q.1849,1.2266.3679,2.4535c.0041.0272-.0074.0681-.0255.0888q-.892,1.0302-1.7884,2.0566Z" style="fill:#93b7db;"/></g><g style="opacity:.5;"><path d="M54.9743,93.5459c-.0275.0012-.0368-.013-.0213-.0357q.7957-1.167,1.5901-2.3349c.0155-.0227.0513-.0351.0787-.0325q1.3311.1255,2.6623.2498c.0274.0026.0328.0177.0159.0394q-.7626.9783-1.5252,1.9567c-.0169.0217-.0498.047-.0772.0482-1.3616.055-1.3618.0509-2.7232.1091Z" style="fill:#93b7db;"/></g><g style="opacity:.5;"><path d="M50.1851,71.5757c-.0255-.0104-.0288-.0263-.0053-.0405q1.2103-.7281,2.4218-1.4543c.0236-.0142.0602-.0145.084-.0007q1.1571.6699,2.3157,1.3372c.0238.0138.0219.0343-.0025.0469q-1.1015.5705-2.2034,1.1403c-.0244.0126-.0634.0159-.0888.0055q-1.2596-.5198-2.5215-1.0344Z" style="fill:#93b7db;"/></g><g style="opacity:.5;"><path d="M43.5752,80.3414c-.0275.0012-.0369-.013-.0214-.0357q.7957-1.167,1.5938-2.3324c.0155-.0227.0477-.0384.0751-.0358,1.3311.1255,1.3317.1188,2.6628.2443.0274.0026.0357.0267.0188.0484q-.7626.9783-1.5283,1.9544c-.0169.0217-.0506.0386-.078.0398-1.3616.0549-1.3614.0588-2.7229.117Z" style="fill:#93b7db;"/></g><g style="opacity:.5;"><path d="M53.8314,75.9356c-.0255-.0104-.0279-.025-.0043-.0392q1.2103-.7281,2.4195-1.4583c.0236-.0142.0636-.0153.0874-.0015q1.1571.6699,2.3116,1.3442c.0238.0138.0244.0313,0,.0439q-1.1015.5705-2.2011,1.1447c-.0244.0126-.0663.0114-.0918.001q-1.2597-.5197-2.5213-1.0349Z" style="fill:#93b7db;"/></g><g style="opacity:.5;"><path d="M50.4004,79.5057c-.0181.0207-.0416.014-.0475-.0129q-.299-1.3805-.5966-2.7612c-.0058-.0269.0071-.0631.0278-.0812q1.0072-.8793,2.0138-1.7592c.0207-.0181.0443-.0112.0484.016q.1849,1.2266.3705,2.4531c.0041.0272-.013.0656-.031.0864q-.8924,1.0298-1.7856,2.059Z" style="fill:#93b7db;"/></g><g style="opacity:.5;"><path d="M47.2214,84.7008c-.0275.0012-.0393-.0143-.0238-.037q.7957-1.167,1.5928-2.3331c.0155-.0227.0511-.0357.0785-.0331q1.3311.1255,2.6623.2495c.0274.0026.0339.0192.017.0409q-.7626.9783-1.5225,1.9589c-.0169.0217-.0538.0407-.0813.0419q-1.3616.0546-2.7231.112Z" style="fill:#93b7db;"/></g><g style="opacity:.5;"><path d="M63.6465,71.1338c-.0181.0207-.0342.0156-.04-.0113q-.299-1.3805-.5976-2.761c-.0058-.0269.0004-.0661.0211-.0842q1.0072-.8793,2.0161-1.7566c.0207-.0181.0413-.0094.0454.0178q.1849,1.2266.3729,2.4528c.0041.0272-.0065.0696-.0246.0903q-.8953,1.0273-1.7933,2.0522Z" style="fill:#93b7db;"/></g><g style="opacity:.5;"><path d="M60.4708,76.3383c-.0275.0012-.0339-.0173-.0184-.04q.7957-1.167,1.5884-2.3361c.0155-.0227.0502-.0391.0776-.0366q1.3311.1255,2.6624.2493c.0274.0026.0369.0248.02.0464q-.7626.9783-1.5253,1.9567c-.0169.0217-.0542.042-.0817.0432q-1.3613.0614-2.7229.1171Z" style="fill:#93b7db;"/></g><g style="opacity:.5;"><path d="M67.295,75.4954c-.0181.0207-.0424.015-.0482-.0119-.299-1.3805-.2923-1.3819-.5913-2.7624-.0058-.0269.0025-.0632.0232-.0813q1.0072-.8793,2.013-1.7602c.0207-.0181.0466-.0094.0507.0178.1849,1.2266.1801,1.2273.365,2.454.0041.0272-.0049.0677-.0229.0884q-.8932,1.0292-1.7895,2.0555Z" style="fill:#93b7db;"/></g><g style="opacity:.5;"><path d="M64.1168,80.6909c-.0275.0012-.0361-.0119-.0206-.0346q.7957-1.167,1.5897-2.3352c.0155-.0227.0516-.0413.0789-.0388,1.3311.1255,1.3307.1299,2.6618.2554.0274.0026.0363.0209.0194.0426q-.7626.9783-1.5256,1.9565c-.0169.0217-.0533.0385-.0807.0396q-1.3616.0544-2.723.1145Z" style="fill:#93b7db;"/></g><g style="opacity:.5;"><path d="M51.572,49.8836c-.0255-.0104-.0246-.0313-.0011-.0454q1.2103-.7281,2.4184-1.46c.0236-.0142.0626-.0116.0864.0022q1.1571.6699,2.3168,1.3353c.0238.0138.0206.0371-.0038.0497q-1.1015.5705-2.2008,1.1452c-.0244.0126-.0662.0109-.0916.0005q-1.2625-.5129-2.5243-1.0275Z" style="fill:#93b7db;"/></g><g style="opacity:.5;"><path d="M55.2189,54.2416c-.0255-.0104-.0257-.0301-.0021-.0442q1.2103-.7281,2.4201-1.4573c.0236-.0142.0631-.0167.0869-.003q1.1571.6699,2.3124,1.3429c.0238.0138.0227.0313-.0017.044q-1.1015.5705-2.2025,1.142c-.0244.0126-.0639.0152-.0893.0048q-1.2618-.5146-2.5236-1.0292Z" style="fill:#93b7db;"/></g><g style="opacity:.5;"><path d="M51.7855,57.8025c-.0181.0207-.0357.0178-.0415-.0091q-.299-1.3805-.5997-2.7606c-.0058-.0269.0068-.066.0275-.084q1.0072-.8793,2.0174-1.7551c.0207-.0181.0408-.0125.0449.0147q.1849,1.2266.3667,2.4537c.0041.0272-.0034.0679-.0215.0886q-.897,1.0258-1.7938,2.0518Z" style="fill:#93b7db;"/></g><g style="opacity:.5;"><path d="M48.6112,63.003c-.0275.0012-.0364-.0136-.0209-.0363q.7957-1.167,1.5904-2.3347c.0155-.0227.0512-.0427.0786-.0401,1.3311.1255,1.3305.1314,2.6616.2569.0274.0026.0363.0204.0194.0421q-.7626.9783-1.5262,1.956c-.0169.0217-.0525.0405-.08.0416q-1.3615.0559-2.723.1145Z" style="fill:#93b7db;"/></g><g style="opacity:.5;"><path d="M26.7493,84.8485c-.0275.0012-.0355-.0131-.02-.0359q.7957-1.167,1.5872-2.3369c.0155-.0227.0531-.0359.0804-.0333q1.3311.1255,2.6625.2479c.0274.0026.0384.0261.0215.0478-.7626.9783-.7685.9738-1.5311,1.9521-.0169.0217-.0499.0445-.0774.0457q-1.3615.056-2.7231.1125Z" style="fill:#93b7db;"/></g><g style="opacity:.5;"><path d="M37.0032,80.447c-.0255-.0104-.0288-.0357-.0052-.0499,1.2103-.7281,1.2148-.7207,2.4252-1.4488.0236-.0142.059-.016.0828-.0023q1.1571.6699,2.314,1.3401c.0238.0138.0264.0364.0019.049q-1.1015.5705-2.2042,1.1388c-.0244.0126-.0663.0147-.0917.0043q-1.2619-.5143-2.5228-1.0312Z" style="fill:#93b7db;"/></g><g style="opacity:.5;"><path d="M33.5735,84.0108c-.0181.0207-.0377.0142-.0435-.0127q-.299-1.3805-.5957-2.7614c-.0058-.0269.0021-.0636.0228-.0817q1.0072-.8793,2.0129-1.7603c.0207-.0181.047-.0088.0511.0184.1849,1.2266.1798,1.2274.3647,2.454.0041.0272-.005.0672-.0231.0879q-.8934,1.029-1.7893,2.0558Z" style="fill:#93b7db;"/></g><g style="opacity:.5;"><path d="M30.3955,89.2065c-.0275.0012-.0346-.0109-.0192-.0336q.7957-1.167,1.5915-2.334c.0155-.0227.0481-.0409.0754-.0383q1.3311.1255,2.6623.2505c.0274.0026.0384.0249.0215.0466q-.7626.9783-1.5266,1.9557c-.0169.0217-.0543.0429-.0817.0441q-1.3616.0544-2.7232.1091Z" style="fill:#93b7db;"/></g><g style="opacity:.5;"><path d="M40.9143,84.8978c-.0255-.0104-.0275-.0366-.004-.0508,1.2103-.7281,1.2144-.7214,2.4247-1.4495.0236-.0142.0579-.0144.0817-.0006,1.1571.6699,1.1604.6641,2.3175,1.334.0238.0138.0214.036-.003.0486q-1.1015.5705-2.2037,1.1397c-.0244.0126-.0655.0212-.0909.0108q-1.2626-.5126-2.5224-1.0322Z" style="fill:#93b7db;"/></g><g style="opacity:.5;"><path d="M37.4837,88.4585c-.0181.0207-.0395.0163-.0453-.0106-.299-1.3805-.2947-1.3814-.5937-2.7619-.0058-.0269.0057-.0613.0264-.0794q1.0072-.8793,2.0155-1.7573c.0207-.0181.0358-.0135.0399.0137q.1849,1.2266.3721,2.4529c.0041.0272-.0055.0678-.0236.0885q-.8949,1.0276-1.7913,2.054Z" style="fill:#93b7db;"/></g><g style="opacity:.5;"><path d="M34.3076,93.6638c-.0275.0012-.0407-.023-.0252-.0457q.7957-1.167,1.5955-2.3312c.0155-.0227.05-.0431.0774-.0406,1.3311.1255,1.3304.133,2.6615.2585.0274.0026.0349.0171.018.0388q-.7626.9783-1.5251,1.9569c-.0169.0217-.052.0401-.0795.0412q-1.3613.0624-2.7227.122Z" style="fill:#93b7db;"/></g><g style="opacity:.5;"><path d="M44.5632,89.2511c-.0255-.0104-.0305-.0307-.0069-.0448q1.2103-.7281,2.4226-1.453c.0236-.0142.0639-.0166.0877-.0028q1.1571.6699,2.3118,1.3439c.0238.0138.0256.0361.0012.0488q-1.1015.5705-2.2038,1.1394c-.0244.0126-.0645.0108-.09.0004q-1.26-.5189-2.5225-1.0318Z" style="fill:#93b7db;"/></g><g style="opacity:.5;"><path d="M41.1327,92.8206c-.0181.0207-.0418.0139-.0476-.013-.299-1.3805-.2939-1.3816-.5929-2.762-.0058-.0269,0-.0663.0207-.0843q1.0072-.8793,2.0179-1.7545c.0207-.0181.0396-.0113.0437.0159.1849,1.2266.1892,1.226.3742,2.4526.0041.0272-.0139.0644-.032.0851q-.8923,1.03-1.784,2.0603Z" style="fill:#93b7db;"/></g><g style="opacity:.5;"><path d="M37.9538,98.0217c-.0275.0012-.0366-.0184-.0211-.0411q.7957-1.167,1.5921-2.3335c.0155-.0227.0487-.0363.0761-.0337q1.3311.1255,2.6623.2499c.0274.0026.0344.0182.0175.0399q-.7626.9783-1.5228,1.9586c-.0169.0217-.0538.041-.0813.0422q-1.3613.0607-2.7228.1178Z" style="fill:#93b7db;"/></g><g style="opacity:.5;"><path d="M48.5254,93.6365c-.0255-.0104-.0279-.0382-.0043-.0524,1.2103-.7281,1.2147-.7208,2.4251-1.449.0236-.0142.0614-.0195.0852-.0057q1.1571.6699,2.3154,1.3376c.0238.0138.0221.0412-.0023.0539q-1.1015.5705-2.203,1.141c-.0244.0126-.0668.0138-.0922.0034q-1.2629-.512-2.5237-1.0289Z" style="fill:#93b7db;"/></g><g style="opacity:.5;"><path d="M45.0932,97.1949c-.0181.0207-.04.0185-.0458-.0084-.299-1.3805-.2921-1.382-.5911-2.7624-.0058-.0269.0048-.0621.0256-.0802q1.0072-.8793,2.0155-1.7572c.0207-.0181.0349-.0125.039.0147q.1849,1.2266.3727,2.4528c.0041.0272-.0049.0674-.023.0881q-.8968,1.026-1.7929,2.0526Z" style="fill:#93b7db;"/></g><g style="opacity:.5;"><path d="M41.9189,102.3995c-.0275.0012-.0368-.0181-.0213-.0409q.7957-1.167,1.5923-2.3334c.0155-.0227.0495-.0432.0769-.0406q1.3311.1255,2.662.2529c.0274.0026.0353.0232.0184.0449q-.7626.9783-1.5234,1.9582c-.0169.0217-.0545.0415-.082.0426q-1.3614.0602-2.7229.1163Z" style="fill:#93b7db;"/></g><g style="opacity:.5;"><path d="M52.1735,97.9918c-.0255-.0104-.0286-.0321-.005-.0462q1.2103-.7281,2.4199-1.4576c.0236-.0142.0639-.0099.0877.0038q1.1571.6699,2.3156,1.3374c.0238.0138.0222.0362-.0022.0488q-1.1015.5705-2.2022,1.1426c-.0244.0126-.0642.0097-.0896-.0007q-1.2611-.5163-2.524-1.0281Z" style="fill:#93b7db;"/></g><g style="opacity:.5;"><path d="M48.7412,101.556c-.0181.0207-.0342.0154-.04-.0115q-.299-1.3805-.5986-2.7608c-.0058-.0269.0042-.0628.025-.0809q1.0072-.8793,2.0141-1.7589c.0207-.0181.0437-.0111.0478.0161.1849,1.2266.1785,1.2276.3634,2.4542.0041.0272-.0064.0635-.0244.0842q-.8952,1.0274-1.7872,2.0576Z" style="fill:#93b7db;"/></g><g style="opacity:.5;"><path d="M45.565,106.7546c-.0275.0012-.0387-.0149-.0232-.0377q.7957-1.167,1.5954-2.3313c.0155-.0227.0477-.0367.0751-.0341,1.3311.1255,1.3315.1212,2.6626.2467.0274.0026.0326.0199.0156.0415q-.7626.9783-1.5247,1.9572c-.0169.0217-.0504.0428-.0779.0439q-1.3616.0557-2.723.1136Z" style="fill:#93b7db;"/></g></g></svg>