<?xml version="1.0" encoding="UTF-8"?><svg id="a" xmlns="http://www.w3.org/2000/svg" viewBox="0 0 131.13384 272.67184"><path d="M33.14548,32.1134l.0232,2.79831c.02402,2.89759,1.78941,5.23052,3.9431,5.21074l2.03829-.01872c1.77184-.01628,3.32957,1.57315,3.80328,3.87301,1.34969,6.55271.70744,21.0658.366,41.26935-.4516,26.7216-10.21113,48.77149-11.52619,51.18264-.07157.13123-.13603.26171-.19826.40132l-25.29813,46.16463c-.28699.48058-1.44863,3.74518-1.5946,4.33005-.26622,1.06666-.27244,2.23169-.00141,3.32066,2.95599,11.87681,31.24754,76.16363,52.41505,76.85389,30.17683.98405,23.62242.97777,26.14129-.61981.29555-.18745.56503-.41737.81642-.69787,3.5584-3.97042,37.84744-40.90636,42.52518-78.42411.1458-1.16938-.17796-2.35573-.68074-3.33353-8.32213-16.18494-22.43404-35.84009-29.06454-50.97976-6.85006-15.64098-11.13052-39.61443-11.20154-48.17955-.05535-6.67535-2.97893-30.72398-2.65847-41.01358.08365-2.68602,1.66319-4.83853,3.65811-4.99113h0c2.31302-.17694,4.25825-2.87121,4.32273-5.98726l.02226-1.07557c.06132-2.96374-1.71401-5.41752-3.91806-5.41535l-50.0531.04916c-2.16309.00212-3.90401,2.37241-3.87988,5.2825Z" style="fill:#ddd7cc; stroke:#ddd7cc; stroke-miterlimit:10; stroke-width:9px;"/><path d="M49.30501,24.81076v-6.02004h0c-3.33922,0-6.0259-2.36661-5.95424-5.2449l.09918-3.98358c.09805-3.9381,3.84045-7.08104,8.40915-7.06215l21.95579.03324c4.16197.0063,7.54232,2.90017,7.57907,6.48833l.04975,4.85879c.02893,2.82523-2.5613,5.1546-5.83652,5.24873h0v5.7538l-26.30217-.07221Z" style="fill:#ceb53a; stroke:#ceb53a; stroke-miterlimit:10; stroke-width:5px;"/><path d="M45.44827,48.92435s-.09912-.24121-.09912-.24121c-.07422-.09814-.00073-.11841-.00757-.00269.02504.31511.20157,1.20837.2517,1.54082.8615,4.70553,1.56908,9.77644,2.04514,14.52316,3.35724,38.24316-2.76286,82.27643-32.1853,109.59789,26.46642-34.5844,30.07822-79.90657,29.75975-121.99385.00776-.90304-.03761-2.7648.02614-3.67067.02468-.04911-.03269-.08134.07473-.15482.09619.06421.05762.09766.08374.14331l.05078.25806h0Z" style="fill:#e3e4e3;"/><path d="M83.38235,47.63772c.02588-.10817.03503-.22406.08569-.32812-.01708-.0044.0442-.04615.07764-.0105.06639.23036.03291.47972.04567.71533-.00503.63593-.04202,2.49236-.05348,3.16044-1.02731,42.34966,3.83094,88.07308,31.91407,121.79757-34.99346-29.93482-40.08811-83.98269-32.06959-125.33471h0Z" style="fill:#e3e4e3;"/><path d="M35.4595,258.36355c20.17458,2.0855,40.20539,4.66474,60.22118-.00016-16.60276,11.37338-42.96592,8.87839-60.22118.00016h0Z" style="fill:#e3e4e3;"/><path d="M10.38064,182.81619c1.35553,4.42608.99527,7.51379-.00002,11.97705-5.5911-1.45843-5.32198-10.28581.00002-11.97705h0Z" style="fill:#e3e4e3;"/><path d="M120.06326,181.91824c3.89851,1.32133,5.18973,6.28951,3.15605,9.62254-.65556,1.11867-1.75248,2.01467-3.15605,2.35402-.35645-1.46338-.45801-2.43701-.64233-3.36816-.47149-3.08257-.29689-5.42185.64233-8.6084h0Z" style="fill:#e3e4e3;"/><path d="M93.37282,160.22607s-19.75239-24.24718-45.41608-.54285c-25.66369,23.70433,45.41608.54285,45.41608.54285Z" style="fill:#9dc4ec;"/><path d="M113.51007,193.48834c-2.35298,11.74041-14.12205,39.11957-22.40685,53.00431-1.86485,3.12536-4.76849,7.26879-8.06083,7.95135-13.83549,2.86834-20.18764,1.58982-31.16411.75466-4.0336-.3069-7.68683-4.77878-9.78615-8.6625-4.52543-8.37198-23.02461-27.40741-26.96831-53.84176-.49954-3.3484.07815-6.7934,1.66082-9.68513,6.42645-11.74196,16.37653-21.41548,23.99264-28.8771,2.00354-1.96289,4.49882-3.21879,7.15025-3.4243,3.30595-.25623,6.88933.56228,10.42048,1.5457,5.8875,1.63966,11.91737,2.54573,17.98205,2.65872h.00003c7.31022.1362,14.29871,1.84071,20.05669,6.58144,2.89742,2.38554,5.48326,5.28668,7.64173,8.63562l7.41616,12.05797c2.10104,3.25983,2.85245,7.37399,2.06541,11.30102Z" style="fill:#5c9ce0;"/><g style="opacity:.5;"><g style="opacity:.5;"><path d="M47.24516,68.39067c-.01891.01997-.03822.01413-.04291-.01296l-.48181-2.78355c-.00469-.0271.00903-.06334.03048-.08054l2.08622-1.67273c.02146-.0172.04143-.00891.04438.01843l.26673,2.46658c.00296.02734-.0101.06605-.02901.08601l-1.87409,1.97876Z" style="fill:#93b7db;"/></g><g style="opacity:.5;"><path d="M49.32617,72.87923c.0128.02434.00106.04074-.02611.03644l-2.79025-.44137c-.02716-.0043-.05705-.02897-.06642-.05482l-.91078-2.51412c-.00937-.02586.00492-.04209.03176-.03607l2.42086.54277c.02683.00602.05926.03085.07207.05519l1.26887,2.41199Z" style="fill:#93b7db;"/></g><g style="opacity:.5;"><path d="M53.0255,77.72207c-.00885.02604-.02883.0288-.0444.00614l-1.60013-2.32807c-.01558-.02266-.01825-.06132-.00594-.08591l1.19715-2.39106c.01231-.02459.03392-.02539.04803-.00178l1.27233,2.12987c.0141.02361.0184.06423.00956.09027l-.87661,2.58056Z" style="fill:#93b7db;"/></g><g style="opacity:.5;"><path d="M52.62872,66.56867c-.01891.01997-.03822.01413-.04291-.01296l-.48181-2.78355c-.00469-.0271.00903-.06334.03048-.08054l2.08622-1.67273c.02146-.0172.04143-.00891.04438.01843l.26673,2.46658c.00296.02734-.0101.06605-.02901.08601l-1.87409,1.97876Z" style="fill:#93b7db;"/></g><g style="opacity:.5;"><path d="M54.70972,71.05723c.0128.02434.00106.04074-.02611.03644l-2.79025-.44137c-.02716-.0043-.05705-.02897-.06642-.05482l-.91078-2.51412c-.00937-.02586.00492-.04209.03176-.03607l2.42086.54277c.02683.00602.05926.03085.07207.05519l1.26887,2.41199Z" style="fill:#93b7db;"/></g><g style="opacity:.5;"><path d="M58.40906,75.90006c-.00885.02604-.02883.0288-.0444.00614l-1.60013-2.32807c-.01558-.02266-.01825-.06132-.00594-.08591l1.19715-2.39106c.01231-.02459.03392-.02539.04803-.00178l1.27233,2.12987c.0141.02361.0184.06423.00956.09027l-.87661,2.58056Z" style="fill:#93b7db;"/></g><g style="opacity:.5;"><path d="M55.74011,80.55658c-.01891.01997-.03822.01413-.04291-.01296l-.48181-2.78355c-.00469-.0271.00903-.06334.03048-.08054l2.08622-1.67273c.02146-.0172.04143-.00891.04438.01843l.26673,2.46658c.00296.02734-.0101.06605-.02901.08601l-1.87409,1.97876Z" style="fill:#93b7db;"/></g><g style="opacity:.5;"><path d="M57.82111,85.04514c.0128.02434.00106.04074-.02611.03644l-2.79025-.44137c-.02716-.0043-.05705-.02897-.06642-.05482l-.91078-2.51412c-.00937-.02586.00492-.04209.03176-.03607l2.42086.54277c.02683.00602.05926.03085.07207.05519l1.26887,2.41199Z" style="fill:#93b7db;"/></g><g style="opacity:.5;"><path d="M61.52045,89.88798c-.00885.02604-.02883.0288-.0444.00614l-1.60013-2.32807c-.01558-.02266-.01825-.06132-.00594-.08591l1.19715-2.39106c.01231-.02459.03392-.02539.04803-.00178l1.27233,2.12987c.0141.02361.0184.06423.00956.09027l-.87661,2.58056Z" style="fill:#93b7db;"/></g><g style="opacity:.5;"><path d="M61.12366,78.73458c-.01891.01997-.03822.01413-.04291-.01296l-.48181-2.78355c-.00469-.0271.00903-.06334.03048-.08054l2.08622-1.67273c.02146-.0172.04143-.00891.04438.01843l.26673,2.46658c.00296.02734-.0101.06605-.02901.08601l-1.87409,1.97876Z" style="fill:#93b7db;"/></g><g style="opacity:.5;"><path d="M63.20467,83.22314c.0128.02434.00106.04074-.02611.03644l-2.79025-.44137c-.02716-.0043-.05705-.02897-.06642-.05482l-.91078-2.51412c-.00937-.02586.00492-.04209.03176-.03607l2.42086.54277c.02683.00602.05926.03085.07207.05519l1.26887,2.41199Z" style="fill:#93b7db;"/></g><g style="opacity:.5;"><path d="M66.904,88.06597c-.00885.02604-.02883.0288-.0444.00614l-1.60013-2.32807c-.01558-.02266-.01825-.06132-.00594-.08591l1.19715-2.39106c.01231-.02459.03392-.02539.04803-.00178l1.27233,2.12987c.0141.02361.0184.06423.00956.09027l-.87661,2.58056Z" style="fill:#93b7db;"/></g><g style="opacity:.5;"><path d="M58.1145,63.35504c-.01891.01997-.03822.01413-.04291-.01296l-.48181-2.78355c-.00469-.0271.00903-.06334.03048-.08054l2.08622-1.67273c.02146-.0172.04143-.00891.04438.01843l.26673,2.46658c.00296.02734-.0101.06605-.02901.08601l-1.87409,1.97876Z" style="fill:#93b7db;"/></g><g style="opacity:.5;"><path d="M60.1955,67.8436c.0128.02434.00106.04074-.02611.03644l-2.79025-.44137c-.02716-.0043-.05705-.02897-.06642-.05482l-.91078-2.51412c-.00937-.02586.00492-.04209.03176-.03607l2.42086.54277c.02683.00602.05926.03085.07207.05519l1.26887,2.41199Z" style="fill:#93b7db;"/></g><g style="opacity:.5;"><path d="M63.89483,72.68644c-.00885.02604-.02883.0288-.0444.00614l-1.60013-2.32807c-.01558-.02266-.01825-.06132-.00594-.08591l1.19715-2.39106c.01231-.02459.03392-.02539.04803-.00178l1.27233,2.12987c.0141.02361.0184.06423.00956.09027l-.87661,2.58056Z" style="fill:#93b7db;"/></g><g style="opacity:.5;"><path d="M63.49805,61.53304c-.01891.01997-.03822.01413-.04291-.01296l-.48181-2.78355c-.00469-.0271.00903-.06334.03048-.08054l2.08622-1.67273c.02146-.0172.04143-.00891.04438.01843l.26673,2.46658c.00296.02734-.0101.06605-.02901.08601l-1.87409,1.97876Z" style="fill:#93b7db;"/></g><g style="opacity:.5;"><path d="M65.57906,66.0216c.0128.02434.00106.04074-.02611.03644l-2.79025-.44137c-.02716-.0043-.05705-.02897-.06642-.05482l-.91078-2.51412c-.00937-.02586.00492-.04209.03176-.03607l2.42086.54277c.02683.00602.05926.03085.07207.05519l1.26887,2.41199Z" style="fill:#93b7db;"/></g><g style="opacity:.5;"><path d="M69.27839,70.86443c-.00885.02604-.02883.0288-.0444.00614l-1.60013-2.32807c-.01558-.02266-.01825-.06132-.00594-.08591l1.19715-2.39106c.01231-.02459.03392-.02539.04803-.00178l1.27233,2.12987c.0141.02361.0184.06423.00956.09027l-.87661,2.58056Z" style="fill:#93b7db;"/></g><g style="opacity:.5;"><path d="M45.34959,83.96746c-.01891.01997-.03822.01413-.04291-.01296l-.48181-2.78355c-.00469-.0271.00903-.06334.03048-.08054l2.08622-1.67273c.02146-.0172.04143-.00891.04438.01843l.26673,2.46658c.00296.02734-.0101.06605-.02901.08601l-1.87409,1.97876Z" style="fill:#93b7db;"/></g><g style="opacity:.5;"><path d="M47.4306,88.45602c.0128.02434.00106.04074-.02611.03644l-2.79025-.44137c-.02716-.0043-.05705-.02897-.06642-.05482l-.91078-2.51412c-.00937-.02586.00492-.04209.03176-.03607l2.42086.54277c.02683.00602.05926.03085.07207.05519l1.26887,2.41199Z" style="fill:#93b7db;"/></g><g style="opacity:.5;"><path d="M51.12993,93.29886c-.00885.02604-.02883.0288-.0444.00614l-1.60013-2.32807c-.01558-.02266-.01825-.06132-.00594-.08591l1.19715-2.39106c.01231-.02459.03392-.02539.04803-.00178l1.27233,2.12987c.0141.02361.0184.06423.00956.09027l-.87661,2.58056Z" style="fill:#93b7db;"/></g><g style="opacity:.5;"><path d="M50.73315,82.14546c-.01891.01997-.03822.01413-.04291-.01296l-.48181-2.78355c-.00469-.0271.00903-.06334.03048-.08054l2.08622-1.67273c.02146-.0172.04143-.00891.04438.01843l.26673,2.46658c.00296.02734-.0101.06605-.02901.08601l-1.87409,1.97876Z" style="fill:#93b7db;"/></g><g style="opacity:.5;"><path d="M52.81415,86.63402c.0128.02434.00106.04074-.02611.03644l-2.79025-.44137c-.02716-.0043-.05705-.02897-.06642-.05482l-.91078-2.51412c-.00937-.02586.00492-.04209.03176-.03607l2.42086.54277c.02683.00602.05926.03085.07207.05519l1.26887,2.41199Z" style="fill:#93b7db;"/></g><g style="opacity:.5;"><path d="M56.51349,91.47685c-.00885.02604-.02883.0288-.0444.00614l-1.60013-2.32807c-.01558-.02266-.01825-.06132-.00594-.08591l1.19715-2.39106c.01231-.02459.03392-.02539.04803-.00178l1.27233,2.12987c.0141.02361.0184.06423.00956.09027l-.87661,2.58056Z" style="fill:#93b7db;"/></g><g style="opacity:.5;"><path d="M41.79392,80.742c-.00885.02604-.02883.0288-.0444.00614l-1.60013-2.32807c-.01558-.02266-.01825-.06132-.00594-.08591l1.19715-2.39106c.01231-.02459.03392-.02539.04803-.00178l1.27233,2.12987c.0141.02361.0184.06423.00956.09027l-.87661,2.58056Z" style="fill:#93b7db;"/></g><g style="opacity:.5;"><path d="M41.39714,69.5886c-.01891.01997-.03822.01413-.04291-.01296l-.48181-2.78355c-.00469-.0271.00903-.06334.03048-.08054l2.08622-1.67273c.02146-.0172.04143-.00891.04438.01843l.26673,2.46658c.00296.02734-.0101.06605-.02901.08601l-1.87409,1.97876Z" style="fill:#93b7db;"/></g><g style="opacity:.5;"><path d="M43.47814,74.07716c.0128.02434.00106.04074-.02611.03644l-2.79025-.44137c-.02716-.0043-.05705-.02897-.06642-.05482l-.91078-2.51412c-.00937-.02586.00492-.04209.03176-.03607l2.42086.54277c.02683.00602.05926.03085.07207.05519l1.26887,2.41199Z" style="fill:#93b7db;"/></g><g style="opacity:.5;"><path d="M47.17748,78.91999c-.00885.02604-.02883.0288-.0444.00614l-1.60013-2.32807c-.01558-.02266-.01825-.06132-.00594-.08591l1.19715-2.39106c.01231-.02459.03392-.02539.04803-.00178l1.27233,2.12987c.0141.02361.0184.06423.00956.09027l-.87661,2.58056Z" style="fill:#93b7db;"/></g><g style="opacity:.5;"><path d="M33.05882,37.40051c-.00885.02604-.02883.0288-.0444.00614l-1.60013-2.32807c-.01558-.02266-.01825-.06132-.00594-.08591l1.19715-2.39106c.01231-.02459.03392-.02539.04803-.00178l1.27233,2.12987c.0141.02361.0184.06423.00956.09027l-.87661,2.58056Z" style="fill:#93b7db;"/></g><g style="opacity:.5;"><path d="M32.66204,26.24711c-.01891.01997-.03822.01413-.04291-.01296l-.48181-2.78355c-.00469-.0271.00903-.06334.03048-.08054l2.08622-1.67273c.02146-.0172.04143-.00891.04438.01843l.26673,2.46658c.00296.02734-.0101.06605-.02901.08601l-1.87409,1.97876Z" style="fill:#93b7db;"/></g><g style="opacity:.5;"><path d="M34.74304,30.73567c.0128.02434.00106.04074-.02611.03644l-2.79025-.44137c-.02716-.0043-.05705-.02897-.06642-.05482l-.91078-2.51412c-.00937-.02586.00492-.04209.03176-.03607l2.42086.54277c.02683.00602.05926.03085.07207.05519l1.26887,2.41199Z" style="fill:#93b7db;"/></g><g style="opacity:.5;"><path d="M38.44237,35.5785c-.00885.02604-.02883.0288-.0444.00614l-1.60013-2.32807c-.01558-.02266-.01825-.06132-.00594-.08591l1.19715-2.39106c.01231-.02459.03392-.02539.04803-.00178l1.27233,2.12987c.0141.02361.0184.06423.00956.09027l-.87661,2.58056Z" style="fill:#93b7db;"/></g><g style="opacity:.5;"><path d="M46.82388,36.20724c-.01891.01997-.03822.01413-.04291-.01296l-.48181-2.78355c-.00469-.0271.00903-.06334.03048-.08054l2.08622-1.67273c.02146-.0172.04143-.00891.04438.01843l.26673,2.46658c.00296.02734-.0101.06605-.02901.08601l-1.87409,1.97876Z" style="fill:#93b7db;"/></g><g style="opacity:.5;"><path d="M48.90489,40.6958c.0128.02434.00106.04074-.02611.03644l-2.79025-.44137c-.02716-.0043-.05705-.02897-.06642-.05482l-.91078-2.51412c-.00937-.02586.00492-.04209.03176-.03607l2.42086.54277c.02683.00602.05926.03085.07207.05519l1.26887,2.41199Z" style="fill:#93b7db;"/></g><g style="opacity:.5;"><path d="M52.60422,45.53864c-.00885.02604-.02883.0288-.0444.00614l-1.60013-2.32807c-.01558-.02266-.01825-.06132-.00594-.08591l1.19715-2.39106c.01231-.02459.03392-.02539.04803-.00178l1.27233,2.12987c.0141.02361.0184.06423.00956.09027l-.87661,2.58056Z" style="fill:#93b7db;"/></g><g style="opacity:.5;"><path d="M52.20744,34.38524c-.01891.01997-.03822.01413-.04291-.01296l-.48181-2.78355c-.00469-.0271.00903-.06334.03048-.08054l2.08622-1.67273c.02146-.0172.04143-.00891.04438.01843l.26673,2.46658c.00296.02734-.0101.06605-.02901.08601l-1.87409,1.97876Z" style="fill:#93b7db;"/></g><g style="opacity:.5;"><path d="M54.28844,38.8738c.0128.02434.00106.04074-.02611.03644l-2.79025-.44137c-.02716-.0043-.05705-.02897-.06642-.05482l-.91078-2.51412c-.00937-.02586.00492-.04209.03176-.03607l2.42086.54277c.02683.00602.05926.03085.07207.05519l1.26887,2.41199Z" style="fill:#93b7db;"/></g><g style="opacity:.5;"><path d="M57.98777,43.71663c-.00885.02604-.02883.0288-.0444.00614l-1.60013-2.32807c-.01558-.02266-.01825-.06132-.00594-.08591l1.19715-2.39106c.01231-.02459.03392-.02539.04803-.00178l1.27233,2.12987c.0141.02361.0184.06423.00956.09027l-.87661,2.58056Z" style="fill:#93b7db;"/></g><g style="opacity:.5;"><path d="M35.77342,40.23502c-.01891.01997-.03822.01413-.04291-.01296l-.48181-2.78355c-.00469-.0271.00903-.06334.03048-.08054l2.08622-1.67273c.02146-.0172.04143-.00891.04438.01843l.26673,2.46658c.00296.02734-.0101.06605-.02901.08601l-1.87409,1.97876Z" style="fill:#93b7db;"/></g><g style="opacity:.5;"><path d="M41.55376,49.56642c-.00885.02604-.02883.0288-.0444.00614l-1.60013-2.32807c-.01558-.02266-.01825-.06132-.00594-.08591l1.19715-2.39106c.01231-.02459.03392-.02539.04803-.00178l1.27233,2.12987c.0141.02361.0184.06423.00956.09027l-.87661,2.58056Z" style="fill:#93b7db;"/></g><g style="opacity:.5;"><path d="M41.15698,38.41302c-.01891.01997-.03822.01413-.04291-.01296l-.48181-2.78355c-.00469-.0271.00903-.06334.03048-.08054l2.08622-1.67273c.02146-.0172.04143-.00891.04438.01843l.26673,2.46658c.00296.02734-.0101.06605-.02901.08601l-1.87409,1.97876Z" style="fill:#93b7db;"/></g><g style="opacity:.5;"><path d="M43.23798,42.90158c.0128.02434.00106.04074-.02611.03644l-2.79025-.44137c-.02716-.0043-.05705-.02897-.06642-.05482l-.91078-2.51412c-.00937-.02586.00492-.04209.03176-.03607l2.42086.54277c.02683.00602.05926.03085.07207.05519l1.26887,2.41199Z" style="fill:#93b7db;"/></g><g style="opacity:.5;"><path d="M46.93732,47.74441c-.00885.02604-.02883.0288-.0444.00614l-1.60013-2.32807c-.01558-.02266-.01825-.06132-.00594-.08591l1.19715-2.39106c.01231-.02459.03392-.02539.04803-.00178l1.27233,2.12987c.0141.02361.0184.06423.00956.09027l-.87661,2.58056Z" style="fill:#93b7db;"/></g><g style="opacity:.5;"><path d="M40.22882,27.52204c.0128.02434.00106.04074-.02611.03644l-2.79025-.44137c-.02716-.0043-.05705-.02897-.06642-.05482l-.91078-2.51412c-.00937-.02586.00492-.04209.03176-.03607l2.42086.54277c.02683.00602.05926.03085.07207.05519l1.26887,2.41199Z" style="fill:#93b7db;"/></g><g style="opacity:.5;"><path d="M43.92815,32.36488c-.00885.02604-.02883.0288-.0444.00614l-1.60013-2.32807c-.01558-.02266-.01825-.06132-.00594-.08591l1.19715-2.39106c.01231-.02459.03392-.02539.04803-.00178l1.27233,2.12987c.0141.02361.0184.06423.00956.09027l-.87661,2.58056Z" style="fill:#93b7db;"/></g><g style="opacity:.5;"><path d="M45.61237,25.70004c.0128.02434.00106.04074-.02611.03644l-2.79025-.44137c-.02716-.0043-.05705-.02897-.06642-.05482l-.91078-2.51412c-.00937-.02586.00492-.04209.03176-.03607l2.42086.54277c.02683.00602.05926.03085.07207.05519l1.26887,2.41199Z" style="fill:#93b7db;"/></g><g style="opacity:.5;"><path d="M49.31171,30.54287c-.00885.02604-.02883.0288-.0444.00614l-1.60013-2.32807c-.01558-.02266-.01825-.06132-.00594-.08591l1.19715-2.39106c.01231-.02459.03392-.02539.04803-.00178l1.27233,2.12987c.0141.02361.0184.06423.00956.09027l-.87661,2.58056Z" style="fill:#93b7db;"/></g><g style="opacity:.5;"><path d="M39.66716,66.88273c-.00885.02604-.02883.0288-.0444.00614l-1.60013-2.32807c-.01558-.02266-.01825-.06132-.00594-.08591l1.19715-2.39106c.01231-.02459.03392-.02539.04803-.00178l1.27233,2.12987c.0141.02361.0184.06423.00956.09027l-.87661,2.58056Z" style="fill:#93b7db;"/></g><g style="opacity:.5;"><path d="M39.27038,55.72933c-.01891.01997-.03822.01413-.04291-.01296l-.48181-2.78355c-.00469-.0271.00903-.06334.03048-.08054l2.08622-1.67273c.02146-.0172.04143-.00891.04438.01843l.26673,2.46658c.00296.02734-.0101.06605-.02901.08601l-1.87409,1.97876Z" style="fill:#93b7db;"/></g><g style="opacity:.5;"><path d="M41.35138,60.21789c.0128.02434.00106.04074-.02611.03644l-2.79025-.44137c-.02716-.0043-.05705-.02897-.06642-.05482l-.91078-2.51412c-.00937-.02586.00492-.04209.03176-.03607l2.42086.54277c.02683.00602.05926.03085.07207.05519l1.26887,2.41199Z" style="fill:#93b7db;"/></g><g style="opacity:.5;"><path d="M45.05071,65.06073c-.00885.02604-.02883.0288-.0444.00614l-1.60013-2.32807c-.01558-.02266-.01825-.06132-.00594-.08591l1.19715-2.39106c.01231-.02459.03392-.02539.04803-.00178l1.27233,2.12987c.0141.02361.0184.06423.00956.09027l-.87661,2.58056Z" style="fill:#93b7db;"/></g><g style="opacity:.5;"><path d="M44.83326,53.69213c-.01891.01997-.03822.01413-.04291-.01296l-.48181-2.78355c-.00469-.0271.00903-.06334.03048-.08054l2.08622-1.67273c.02146-.0172.04143-.00891.04438.01843l.26673,2.46658c.00296.02734-.0101.06605-.02901.08601l-1.87409,1.97876Z" style="fill:#93b7db;"/></g><g style="opacity:.5;"><path d="M46.91427,58.18069c.0128.02434.00106.04074-.02611.03644l-2.79025-.44137c-.02716-.0043-.05705-.02897-.06642-.05482l-.91078-2.51412c-.00937-.02586.00492-.04209.03176-.03607l2.42086.54277c.02683.00602.05926.03085.07207.05519l1.26887,2.41199Z" style="fill:#93b7db;"/></g><g style="opacity:.5;"><path d="M50.6136,63.02352c-.00885.02604-.02883.0288-.0444.00614l-1.60013-2.32807c-.01558-.02266-.01825-.06132-.00594-.08591l1.19715-2.39106c.01231-.02459.03392-.02539.04803-.00178l1.27233,2.12987c.0141.02361.0184.06423.00956.09027l-.87661,2.58056Z" style="fill:#93b7db;"/></g><g style="opacity:.5;"><path d="M50.21682,51.87012c-.01891.01997-.03822.01413-.04291-.01296l-.48181-2.78355c-.00469-.0271.00903-.06334.03048-.08054l2.08622-1.67273c.02146-.0172.04143-.00891.04438.01843l.26673,2.46658c.00296.02734-.0101.06605-.02901.08601l-1.87409,1.97876Z" style="fill:#93b7db;"/></g><g style="opacity:.5;"><path d="M52.29782,56.35868c.0128.02434.00106.04074-.02611.03644l-2.79025-.44137c-.02716-.0043-.05705-.02897-.06642-.05482l-.91078-2.51412c-.00937-.02586.00492-.04209.03176-.03607l2.42086.54277c.02683.00602.05926.03085.07207.05519l1.26887,2.41199Z" style="fill:#93b7db;"/></g><g style="opacity:.5;"><path d="M55.99716,61.20152c-.00885.02604-.02883.0288-.0444.00614l-1.60013-2.32807c-.01558-.02266-.01825-.06132-.00594-.08591l1.19715-2.39106c.01231-.02459.03392-.02539.04803-.00178l1.27233,2.12987c.0141.02361.0184.06423.00956.09027l-.87661,2.58056Z" style="fill:#93b7db;"/></g><g style="opacity:.5;"><path d="M55.73308,49.7576c-.01891.01997-.03822.01413-.04291-.01296l-.48181-2.78355c-.00469-.0271.00903-.06334.03048-.08054l2.08622-1.67273c.02146-.0172.04143-.00891.04438.01843l.26673,2.46658c.00296.02734-.0101.06605-.02901.08601l-1.87409,1.97876Z" style="fill:#93b7db;"/></g><g style="opacity:.5;"><path d="M57.81408,54.24616c.0128.02434.00106.04074-.02611.03644l-2.79025-.44137c-.02716-.0043-.05705-.02897-.06642-.05482l-.91078-2.51412c-.00937-.02586.00492-.04209.03176-.03607l2.42086.54277c.02683.00602.05926.03085.07207.05519l1.26887,2.41199Z" style="fill:#93b7db;"/></g><g style="opacity:.5;"><path d="M61.51342,59.08899c-.00885.02604-.02883.0288-.0444.00614l-1.60013-2.32807c-.01558-.02266-.01825-.06132-.00594-.08591l1.19715-2.39106c.01231-.02459.03392-.02539.04803-.00178l1.27233,2.12987c.0141.02361.0184.06423.00956.09027l-.87661,2.58056Z" style="fill:#93b7db;"/></g><g style="opacity:.5;"><path d="M61.11664,47.93559c-.01891.01997-.03822.01413-.04291-.01296l-.48181-2.78355c-.00469-.0271.00903-.06334.03048-.08054l2.08622-1.67273c.02146-.0172.04143-.00891.04438.01843l.26673,2.46658c.00296.02734-.0101.06605-.02901.08601l-1.87409,1.97876Z" style="fill:#93b7db;"/></g><g style="opacity:.5;"><path d="M63.19764,52.42415c.0128.02434.00106.04074-.02611.03644l-2.79025-.44137c-.02716-.0043-.05705-.02897-.06642-.05482l-.91078-2.51412c-.00937-.02586.00492-.04209.03176-.03607l2.42086.54277c.02683.00602.05926.03085.07207.05519l1.26887,2.41199Z" style="fill:#93b7db;"/></g><g style="opacity:.5;"><path d="M66.89697,57.26699c-.00885.02604-.02883.0288-.0444.00614l-1.60013-2.32807c-.01558-.02266-.01825-.06132-.00594-.08591l1.19715-2.39106c.01231-.02459.03392-.02539.04803-.00178l1.27233,2.12987c.0141.02361.0184.06423.00956.09027l-.87661,2.58056Z" style="fill:#93b7db;"/></g></g><path d="M57.64533,117.26538c.32072-.67272.2526-1.19412-.20435-1.56418-.46209-.03632-.9959-.61308-1.46127-.85291-2.58341-1.33139-4.42511-2.03464-3.66366-4.47631l6.64915,3.83997c.53323-.35821.94128-.75634,1.26729-1.27714l-2.98234-5.43604c-.38121-.69485.31863-1.81376,1.07321-2.12029l3.73675,6.42804,1.85109-.29792.00105-5.77781c.00021-1.15565.93281-2.00262,2.11092-1.85254l.00889,7.6395,1.80598.23873,2.52627-4.47111c.61849-1.09464,1.87588-1.57841,3.00049-.89671l-3.65363,6.36696c.0215.54554.76476,1.14956,1.16442,1.37067,2.35644-.94115,5.07988-3.32727,6.1565-2.96527.52512.17657,1.24243.37812,1.48392,1.14264l-6.50543,3.68762c-.05017.58131.15821,1.54009.60631,1.80101l5.98087.14549c.89449.02176,1.56752,1.18773,1.43963,2.01543l-7.48776.09347c-.44524.00556-.76851,1.44275-.38484,1.66487l4.46797,2.58662c.99597.57659,1.45663,1.76019.85928,2.89796l-6.56986-3.69325c-.42719.22181-1.22266.84746-1.18777,1.36113l2.29327,4.05247c.68294,1.20684.83009,2.62265-.38477,3.51063l-3.8171-6.3635c-.28291-.47163-1.42616-.035-1.75833.25947l-.03369,5.34131c-.00747,1.18375-.84525,2.13238-2.06859,2.29252l-.06787-7.64578c-.51555-.3419-1.17031-.47365-1.79976-.43942l-3.01644,5.06355c-.50687.85086-1.86163.99454-2.6185.29689l3.80405-6.33549c-.29806-.66127-.72218-1.01367-1.34261-1.40298l-4.49298,2.63753c-1.08191.63512-2.42667.4567-2.98475-.72816l6.45704-3.75784-.37771-1.63076-5.6885-.09435c-1.06068-.01759-2.05465-.9656-1.94502-2.03165l7.23526-.03687c.37428-.00191.42846-.33013.51791-.58617Z" style="fill:#5c9ce0;"/></svg>