<?xml version="1.0" encoding="UTF-8"?><svg id="a" xmlns="http://www.w3.org/2000/svg" viewBox="0 0 176.3931 352.7128"><path d="M44.1351,41.0399c.0159,1.8194-.5234,1.8241-.5075,3.6434.0329,3.7678,2.723,6.9167,5.6707,6.8909,1.3949-.0122,1.3914-.4064,2.7863-.4186,2.4251-.0212,4.4316,2.3499,5.08,5.3405.4286,1.9771.9326,4.5051,1.4465,7.5599.3804,2.2615,1.045,4.7673,1.4116,7.5843.3079,2.366.4306,4.9442.6954,7.6827.2341,2.4207.6403,4.9699.8183,7.6685.162,2.4562.417,5.0255.5159,7.7022.0915,2.4789-.2482,5.0623-.2239,7.7228.0228,2.4949.1778,5.0681.1307,7.7164-.0413,2.324-.069,4.6283-.217,6.8921-.1521,2.3261-.3797,4.6207-.6289,6.8708-.2574,2.3244-.6442,4.5968-.9882,6.8264-.3578,2.3196-.8848,4.5602-1.3171,6.7618-.4552,2.3182-.5579,4.6548-1.0733,6.8243-.5506,2.3175-1.1226,4.5585-1.715,6.6848-.648,2.3259-1.4514,4.4986-2.1144,6.5677-.7545,2.3547-1.6104,4.5029-2.3339,6.4846-.8965,2.4551-1.6412,4.6551-2.3978,6.4638-1.3953,3.3355-2.6446,5.4241-3.0699,6.1649-.098.1706-.0817.4059-.1669.5874-1.9234,3.0052-1.9982,2.9574-3.9326,5.9555s-1.6922,3.1565-3.6275,6.1561-2.3504,2.7336-4.2866,5.7345-1.6521,3.1842-3.5883,6.1851-1.9463,2.9944-3.8825,5.9954-2.0888,2.9036-4.0255,5.9053c-1.9357,3.0001-1.7563,3.1158-3.692,6.1159-1.9374,3.0027-2.0094,2.9562-3.9468,5.9589-1.9387,3.0048-1.9203,3.0166-3.859,6.0214s-1.9078,3.0245-3.8432,6.0314c-.3928.6249-2.121,4.7836-2.3208,5.5442-.3644,1.387-.6221,2.971-.2512,4.387.4177,1.5946,1.2854,3.8574,2.1319,6.739.5875,1.9998,1.1602,4.3057,1.9389,6.7898.6574,2.0973,1.7221,4.2368,2.5075,6.6064.7087,2.1383,1.0883,4.503,1.8954,6.8112.7541,2.1566,1.4907,4.402,2.326,6.6656.7992,2.1658,1.9696,4.2458,2.8391,6.4736.8462,2.1681,1.4666,4.4618,2.3757,6.6559.8969,2.1648,1.8093,4.3453,2.7639,6.5043.9534,2.1563,2.0494,4.2533,3.0568,6.3727,1.0184,2.1424,2.1756,4.2029,3.2455,6.2759,1.095,2.1216,2.1905,4.2105,3.3357,6.2255,1.1883,2.0907,2.5202,4.0381,3.7583,5.9765,1.3057,2.0442,2.624,3.9892,3.9801,5.8204,1.4593,1.9705,2.6164,4.0825,4.1281,5.7524,1.6673,1.8419,3.7199,3.1134,5.4428,4.5182,1.9465,1.5871,3.7642,3.0786,5.7702,4.0058,2.2373,1.0342,4.5216,1.4709,6.8168,1.542,2.4241.0751,4.7561.5871,7.024.6532,2.434.0709,4.7948-.4264,7.0528-.3663,2.4462.0651,4.7822.4302,7.0266.4822,2.4642.0571,4.8143-.2032,7.0418-.1625,2.4901.0455,4.8303.2712,7.0333.2953,2.5309.0276,4.8748.3255,7.04.3235,2.6003-.0024,4.9413-.2698,7.0366-.317,2.7598-.0623,5.0699-.4439,7.003-.5888,3.6503-.2738,5.7958-.5676,6.7867-1.1647.4045-.2437.701-.5369,1.0451-.9016.7764-.8231,2.356-2.6357,4.3509-5.4669,1.1571-1.6423,2.6954-3.4495,4.1436-5.6768,1.1737-1.8051,2.1331-3.9766,3.4461-6.1263,1.1548-1.8908,2.469-3.8361,3.6978-5.9677,1.1236-1.9492,2.1689-4.0479,3.3289-6.1792,1.0864-1.9959,2.2343-4.0363,3.3321-6.1762,1.0447-2.0362,2.1097-4.1212,3.1472-6.2745.9989-2.073,1.8124-4.2744,2.7891-6.444.9484-2.1069,2.0831-4.1641,2.9964-6.3513.8932-2.139,1.6398-4.3599,2.4862-6.5656.8329-2.1707,1.6297-4.3678,2.4047-6.5934.7665-2.2012,1.9264-4.2873,2.6241-6.533.6931-2.2307.8592-4.6224,1.4726-6.888.6115-2.2588,1.5038-4.4474,2.0243-6.7319.5207-2.2852,1.0759-4.5683,1.4938-6.8703.4192-2.309.7362-4.6372,1.0403-6.9542.1996-1.5206-.5915-2.9328-1.2796-4.2042-1.1066-2.0447-1.9851-4.3231-3.2946-6.4435-1.2348-1.9993-2.4677-4.0866-3.8411-6.1367-1.319-1.9689-3.047-3.7134-4.4572-5.7148-1.3748-1.9511-2.7301-3.9498-4.1579-5.9185-1.4106-1.9449-2.7141-3.9856-4.1441-5.9349s-2.7947-3.9465-4.212-5.8876c-1.4341-1.9642-3.0317-3.7928-4.4198-5.7356-1.4238-1.9928-2.6616-4.0795-4.0015-6.0358-1.3947-2.0363-2.7055-4.0659-3.9696-6.0471-1.3417-2.1028-2.7685-4.0696-3.9161-6.0917-1.2472-2.1977-2.4597-4.3108-3.4181-6.3897-.9706-2.1055-1.9568-4.3217-2.8495-6.6251-.85-2.1933-1.4983-4.53-2.2733-6.8422-.7564-2.2567-1.5015-4.5524-2.1824-6.8667-.6792-2.3085-1.3491-4.6285-1.9492-6.9397-.6118-2.3561-.8001-4.7912-1.3256-7.0929-.549-2.4051-1.0247-4.7625-1.4747-7.0436-.4871-2.4686-1.2727-4.7782-1.638-7.0211-.4189-2.5723-.506-5.0024-.7561-7.1597-.3315-2.8589-.3625-5.2836-.3788-7.1564-.0152-1.7401-.4424-4.3855-.4418-7.6153.0004-2.2858.4353-4.8619.4447-7.6149.0082-2.4294-.5826-4.9986-.5668-7.6223.0152-2.5111.6438-5.0703.6665-7.617.023-2.5824-.2088-5.1493-.1776-7.624.0338-2.676-.2464-5.2521-.2023-7.6254.0536-2.8845.553-5.467.623-7.6038.1145-3.4927,2.1-6.3327,4.8303-6.5312,0,0,.0067.0919.0067.0919,3.1658-.2301,5.8238-3.79,5.912-7.8418.0152-.6993-.0933-.7017-.0781-1.401.0839-3.8538-2.237-6.9507-5.2536-6.9478-3.4251.0032-3.4254-.281-6.8505-.2778-3.4228.0032-3.4228.0374-6.8456.0406s-3.4242.0801-6.8485.0833-3.4243-.0633-6.8486-.0601-3.4241.3027-6.8484.3059-3.4256-.4075-6.8508-.4043c-3.4234.0032-3.4234-.0097-6.8468-.0065-3.4263.0032-3.4258.5807-6.8522.5839-3.4287.0032-3.4289-.2059-6.8576-.2027s-3.4286.0788-6.8573.082c-2.9606.0028-5.0771,2.9108-5.0441,6.6949Z" style="fill:#ddd7cc;"/><path d="M44.1351,41.0399c.0159,1.8194-.5234,1.8241-.5075,3.6434.0329,3.7678,2.723,6.9167,5.6707,6.8909,1.3949-.0122,1.3914-.4064,2.7863-.4186,2.4251-.0212,4.4316,2.3499,5.08,5.3405.4286,1.9771.9326,4.5051,1.4465,7.5599.3804,2.2615,1.045,4.7673,1.4116,7.5843.3079,2.366.4306,4.9442.6954,7.6827.2341,2.4207.6403,4.9699.8183,7.6685.162,2.4562.417,5.0255.5159,7.7022.0915,2.4789-.2482,5.0623-.2239,7.7228.0228,2.4949.1778,5.0681.1307,7.7164-.0413,2.324-.069,4.6283-.217,6.8921-.1521,2.3261-.3797,4.6207-.6289,6.8708-.2574,2.3244-.6442,4.5968-.9882,6.8264-.3578,2.3196-.8848,4.5602-1.3171,6.7618-.4552,2.3182-.5579,4.6548-1.0733,6.8243-.5506,2.3175-1.1226,4.5585-1.715,6.6848-.648,2.3259-1.4514,4.4986-2.1144,6.5677-.7545,2.3547-1.6104,4.5029-2.3339,6.4846-.8965,2.4551-1.6412,4.6551-2.3978,6.4638-1.3953,3.3355-2.6446,5.4241-3.0699,6.1649-.098.1706-.0817.4059-.1669.5874-1.9234,3.0052-1.9982,2.9574-3.9326,5.9555s-1.6922,3.1565-3.6275,6.1561-2.3504,2.7336-4.2866,5.7345-1.6521,3.1842-3.5883,6.1851-1.9463,2.9944-3.8825,5.9954-2.0888,2.9036-4.0255,5.9053c-1.9357,3.0001-1.7563,3.1158-3.692,6.1159-1.9374,3.0027-2.0094,2.9562-3.9468,5.9589-1.9387,3.0048-1.9203,3.0166-3.859,6.0214s-1.9078,3.0245-3.8432,6.0314c-.3928.6249-2.121,4.7836-2.3208,5.5442-.3644,1.387-.6221,2.971-.2512,4.387.4177,1.5946,1.2854,3.8574,2.1319,6.739.5875,1.9998,1.1602,4.3057,1.9389,6.7898.6574,2.0973,1.7221,4.2368,2.5075,6.6064.7087,2.1383,1.0883,4.503,1.8954,6.8112.7541,2.1566,1.4907,4.402,2.326,6.6656.7992,2.1658,1.9696,4.2458,2.8391,6.4736.8462,2.1681,1.4666,4.4618,2.3757,6.6559.8969,2.1648,1.8093,4.3453,2.7639,6.5043.9534,2.1563,2.0494,4.2533,3.0568,6.3727,1.0184,2.1424,2.1756,4.2029,3.2455,6.2759,1.095,2.1216,2.1905,4.2105,3.3357,6.2255,1.1883,2.0907,2.5202,4.0381,3.7583,5.9765,1.3057,2.0442,2.624,3.9892,3.9801,5.8204,1.4593,1.9705,2.6164,4.0825,4.1281,5.7524,1.6673,1.8419,3.7199,3.1134,5.4428,4.5182,1.9465,1.5871,3.7642,3.0786,5.7702,4.0058,2.2373,1.0342,4.5216,1.4709,6.8168,1.542,2.4241.0751,4.7561.5871,7.024.6532,2.434.0709,4.7948-.4264,7.0528-.3663,2.4462.0651,4.7822.4302,7.0266.4822,2.4642.0571,4.8143-.2032,7.0418-.1625,2.4901.0455,4.8303.2712,7.0333.2953,2.5309.0276,4.8748.3255,7.04.3235,2.6003-.0024,4.9413-.2698,7.0366-.317,2.7598-.0623,5.0699-.4439,7.003-.5888,3.6503-.2738,5.7958-.5676,6.7867-1.1647.4045-.2437.701-.5369,1.0451-.9016.7764-.8231,2.356-2.6357,4.3509-5.4669,1.1571-1.6423,2.6954-3.4495,4.1436-5.6768,1.1737-1.8051,2.1331-3.9766,3.4461-6.1263,1.1548-1.8908,2.469-3.8361,3.6978-5.9677,1.1236-1.9492,2.1689-4.0479,3.3289-6.1792,1.0864-1.9959,2.2343-4.0363,3.3321-6.1762,1.0447-2.0362,2.1097-4.1212,3.1472-6.2745.9989-2.073,1.8124-4.2744,2.7891-6.444.9484-2.1069,2.0831-4.1641,2.9964-6.3513.8932-2.139,1.6398-4.3599,2.4862-6.5656.8329-2.1707,1.6297-4.3678,2.4047-6.5934.7665-2.2012,1.9264-4.2873,2.6241-6.533.6931-2.2307.8592-4.6224,1.4726-6.888.6115-2.2588,1.5038-4.4474,2.0243-6.7319.5207-2.2852,1.0759-4.5683,1.4938-6.8703.4192-2.309.7362-4.6372,1.0403-6.9542.1996-1.5206-.5915-2.9328-1.2796-4.2042-1.1066-2.0447-1.9851-4.3231-3.2946-6.4435-1.2348-1.9993-2.4677-4.0866-3.8411-6.1367-1.319-1.9689-3.047-3.7134-4.4572-5.7148-1.3748-1.9511-2.7301-3.9498-4.1579-5.9185-1.4106-1.9449-2.7141-3.9856-4.1441-5.9349s-2.7947-3.9465-4.212-5.8876c-1.4341-1.9642-3.0317-3.7928-4.4198-5.7356-1.4238-1.9928-2.6616-4.0795-4.0015-6.0358-1.3947-2.0363-2.7055-4.0659-3.9696-6.0471-1.3417-2.1028-2.7685-4.0696-3.9161-6.0917-1.2472-2.1977-2.4597-4.3108-3.4181-6.3897-.9706-2.1055-1.9568-4.3217-2.8495-6.6251-.85-2.1933-1.4983-4.53-2.2733-6.8422-.7564-2.2567-1.5015-4.5524-2.1824-6.8667-.6792-2.3085-1.3491-4.6285-1.9492-6.9397-.6118-2.3561-.8001-4.7912-1.3256-7.0929-.549-2.4051-1.0247-4.7625-1.4747-7.0436-.4871-2.4686-1.2727-4.7782-1.638-7.0211-.4189-2.5723-.506-5.0024-.7561-7.1597-.3315-2.8589-.3625-5.2836-.3788-7.1564-.0152-1.7401-.4424-4.3855-.4418-7.6153.0004-2.2858.4353-4.8619.4447-7.6149.0082-2.4294-.5826-4.9986-.5668-7.6223.0152-2.5111.6438-5.0703.6665-7.617.023-2.5824-.2088-5.1493-.1776-7.624.0338-2.676-.2464-5.2521-.2023-7.6254.0536-2.8845.553-5.467.623-7.6038.1145-3.4927,2.1-6.3327,4.8303-6.5312,0,0,.0067.0919.0067.0919,3.1658-.2301,5.8238-3.79,5.912-7.8418.0152-.6993-.0933-.7017-.0781-1.401.0839-3.8538-2.237-6.9507-5.2536-6.9478-3.4251.0032-3.4254-.281-6.8505-.2778-3.4228.0032-3.4228.0374-6.8456.0406s-3.4242.0801-6.8485.0833-3.4243-.0633-6.8486-.0601-3.4241.3027-6.8484.3059-3.4256-.4075-6.8508-.4043c-3.4234.0032-3.4234-.0097-6.8468-.0065-3.4263.0032-3.4258.5807-6.8522.5839-3.4287.0032-3.4289-.2059-6.8576-.2027s-3.4286.0788-6.8573.082c-2.9606.0028-5.0771,2.9108-5.0441,6.6949Z" style="fill:none; stroke:#ddd7cc; stroke-miterlimit:10; stroke-width:9px;"/><path d="M66.0193,31.5157c-2.6471-2.8831-.0299-3.8833-.03-7.7973,0,0-.0035.0225-.0035.0225-2.138,0-4.0631-.719-5.5152-1.8189-1.6519-1.2514-2.7245-3.0328-2.6723-5.0247.0679-2.59.1213-2.5886.1891-5.1785.0713-2.7225,1.5098-5.1911,3.8213-6.8667,2.0362-1.476,4.7443-2.3593,7.6729-2.3478,3.7559.008,3.7559-.0087,7.5118-.0033s3.7546.0908,7.5093.0962c3.7573.0054,3.7574-.0721,7.5147-.0667s3.7573.0086,7.5146.014c2.6669.0038,5.1299.8232,6.968,2.1804,2.088,1.5417,3.3753,3.8092,3.4021,6.2906q.034,3.159.074,6.3179c.0211,1.9534-.9929,3.7003-2.6008,4.9491-1.4162,1.0998-3.2906,1.8331-5.3898,1.8904,0,0-.0359-.0145-.0359-.0145,0,3.7409,2.6234,4.7805.0266,7.4732-2.4981,2.5903-3.5896-.0511-7.1882-.0605-3.5967-.0094-3.5967.0134-7.1934.004q-3.5998-.0094-7.1996-.0111c-3.6023-.0094-3.6791-.7394-7.1998.0229-3.7621.8146-4.7395,2.5821-7.1758-.0714Z" style="fill:#ceb53a;"/><path d="M66.0193,31.5157c-2.6471-2.8831-.0299-3.8833-.03-7.7973,0,0-.0035.0225-.0035.0225-2.138,0-4.0631-.719-5.5152-1.8189-1.6519-1.2514-2.7245-3.0328-2.6723-5.0247.0679-2.59.1213-2.5886.1891-5.1785.0713-2.7225,1.5098-5.1911,3.8213-6.8667,2.0362-1.476,4.7443-2.3593,7.6729-2.3478,3.7559.008,3.7559-.0087,7.5118-.0033s3.7546.0908,7.5093.0962c3.7573.0054,3.7574-.0721,7.5147-.0667s3.7573.0086,7.5146.014c2.6669.0038,5.1299.8232,6.968,2.1804,2.088,1.5417,3.3753,3.8092,3.4021,6.2906q.034,3.159.074,6.3179c.0211,1.9534-.9929,3.7003-2.6008,4.9491-1.4162,1.0998-3.2906,1.8331-5.3898,1.8904,0,0-.0359-.0145-.0359-.0145,0,3.7409,2.6234,4.7805.0266,7.4732-2.4981,2.5903-3.5896-.0511-7.1882-.0605-3.5967-.0094-3.5967.0134-7.1934.004q-3.5998-.0094-7.1996-.0111c-3.6023-.0094-3.6791-.7394-7.1998.0229-3.7621.8146-4.7395,2.5821-7.1758-.0714Z" style="fill:none; stroke:#ceb53a; stroke-miterlimit:10; stroke-width:5px;"/><g style="opacity:.75;"><path d="M60.6168,62.9279c1.3765,3.3916,2.3843,6.9868,3.0449,10.6101,2.4545,10.7801,4.0268,21.7338,4.3226,32.8245.8515,39.1893-10.344,78.22-36.6111,107.9503-3.4424,4.0942-7.9309,7.8784-11.7402,11.6532,4.5187-5.7362,9.319-11.1672,13.3602-17.3284,12.0629-18.0511,21.1215-38.0686,25.7315-59.2985,1.9797-6.8457,2.8164-14.2557,3.7128-21.3086,1.8284-16.1916,2.4197-32.5768.4172-48.8022-.6699-5.4742-.8152-10.9442-2.2379-16.3003h0Z" style="fill:#a3a3d1;"/></g><g style="opacity:.75;"><path d="M112.6661,61.2409c-2.2953,8.8321-2.7216,18.2537-3.2775,27.3408-1.0958,11.7426-.5342,23.8232.9031,35.5203,1.5972,11.6606,3.6636,23.4297,7.2217,34.6616,2.1819,6.3261,4.8878,12.8714,7.5165,19.0068.5297,1.0691,2.5426,4.9989,3.0864,6.0831,7.429,14.7487,17.6629,27.8434,28.3686,40.3869-12.4977-10.9733-23.8176-23.8651-32.0562-38.3884-.5609-1.05-2.8986-5.2364-3.3804-6.1507-2.9421-6.2151-5.9046-12.8931-8.1762-19.4101-5.1938-15.997-7.5066-32.9169-8.0104-49.6987.0728-5.4489.1946-11.4021.8692-16.8127.5023-3.3258,1.1393-7.6669,1.5531-10.9929,1.1854-7.2814,2.4884-14.7186,5.3819-21.5459h0Z" style="fill:#a3a3d1;"/></g><g style="opacity:.75;"><path d="M47.046,335.2079c23.8428,3.3928,48.281,6.2988,72.166,2.2034,3.4248-.534,6.8247-1.2918,10.2432-2.1798-22.6286,13.6776-59.0142,10.6112-82.4092-.0237h0Z" style="fill:#a3a3d1;"/></g><g style="opacity:.75;"><path d="M12.7115,237.0053c.1909,1.6926-.1602,3.2456.0269,4.1543.3905,1.6684.2387,5.2235.1391,7.1592-.0536,1.2241-.059,2.5293-.1547,4.2517-1.6372-.554-2.8364-1.7644-3.6304-3.1895-1.17-2.1047-1.2686-4.4757-.8706-6.7937.243-2.5047,2.0575-4.7937,4.4897-5.582h0Z" style="fill:#a3a3d1;"/></g><g style="opacity:.75;"><path d="M162.8429,235.8292c2.4329.7883,4.2401,3.0894,4.4784,5.5932.3929,2.3156.3007,4.6792-.8617,6.7889-.789,1.4287-1.9873,2.6465-3.6255,3.2012-.0952-1.7231-.106-3.0266-.1636-4.2512-.1035-1.9516-.2609-5.4958.1373-7.1794.1913-.9085-.1544-2.4583.035-4.1526h0Z" style="fill:#a3a3d1;"/></g><path d="M49.6383,207.6418c-.9355-3.3606,1.8574-2.1297,5.1591-4.7307,1.5909-1.2533,3.5599-2.5617,5.8039-3.8568,1.8856-1.0882,3.9618-2.1684,6.2607-3.0485,2.0792-.796,4.3075-1.5047,6.6906-1.9615,2.1945-.4207,4.5162-.6435,6.9421-.6458,2.2244-.0021,4.5316.2541,6.9302.7047,2.1729.4082,4.4103,1.0062,6.7109,1.8615,2.0654.7679,4.1597,1.7557,6.3169,2.939,1.9319,1.0597,3.9078,2.2698,5.9054,3.7021,1.7956,1.2875,3.6558,2.6821,5.4988,4.2993,2.1835,1.9161,3.8482,3.6079,5.0635,5.0749,2.4269,2.9294,2.9987,5.001,2.2243,6.4009-.8124,1.4687-3.1181,2.2369-6.4631,2.415-2.0462.1089-4.4738-.0082-7.1616-.2609-2.212-.208-4.5902-.6011-7.0935-.9971-2.2756-.36-4.6581-.7064-7.0723-1.1813-2.3129-.4551-4.6583-.9943-7.0109-1.5202-2.3451-.5242-4.6799-1.1087-6.9797-1.6697-2.382-.5811-4.7376-1.0897-6.9786-1.6736-2.4426-.6364-4.752-1.3425-6.9101-1.9359-2.5841-.7105-4.9403-1.302-6.9246-1.8748-4.2419-1.2244-5.9507,1.4132-6.9121-2.0406Z" style="fill:#a3a3d1;"/><path d="M20.7594,253.4805c.4233,2.0067.9064,4.3245,1.4885,6.8698.4875,2.1317,1.0589,4.4194,1.6541,6.8333.5384,2.1832,1.2056,4.441,1.8295,6.7871.5875,2.2089,1.0099,4.5316,1.6712,6.8294.64,2.2239,1.4702,4.4304,2.1774,6.6879.6989,2.2309,1.3265,4.5002,2.0893,6.7165.768,2.2314,1.6237,4.424,2.4546,6.5928.8525,2.225,1.8171,4.3694,2.7339,6.4772.9618,2.2112,1.7963,4.4196,2.8267,6.4432,1.1103,2.1804,2.3717,4.173,3.5589,6.0633,1.2411,1.9762,2.7399,4.3273,4.5511,6.2599,1.9135,2.0418,4.1123,3.7322,6.4272,4.1881,2.2502.4432,4.6869.8458,7.2546,1.1468,2.3389.2741,4.7968.4616,7.3195.6336,2.3893.1629,4.8476.2634,7.3354.3478,2.426.0823,4.8854.1032,7.3444.123,2.4568.0198,4.9148-.076,7.3448-.1066,2.4887-.0314,4.9488-.0237,7.346-.0954,2.5277-.0756,4.988-.1443,7.3408-.2502,2.5895-.1165,5.0414-.4059,7.3233-.54,2.724-.1601,5.1924-.3132,7.3214-.4671,1.9438-.1405,3.7916-.9043,5.5362-2.1178,1.5949-1.1094,3.142-2.477,4.4583-4.0516,1.3332-1.5948,2.3882-3.3907,3.3249-5.0371,1.0181-1.7895,2.212-3.8447,3.4104-6.2472.9703-1.9452,1.9805-4.0946,3.0219-6.4468.9014-2.0359,1.7791-4.2408,2.7043-6.5847.8287-2.0995,1.8216-4.264,2.6486-6.6129.7563-2.148,1.3769-4.4455,2.1161-6.8037.685-2.1852,1.3884-4.4516,2.0462-6.8186.6162-2.2171,1.1948-4.5196,1.777-6.8972.5491-2.2423,1.1499-4.5407,1.6603-6.9268.4845-2.265.9418-4.5976,1.3842-6.9929.4217-2.2831.7481-4.6381,1.1253-7.0403.3404-2.1677.4079-4.3684.0296-6.4941-.3815-2.144-1.0846-4.255-2.1723-6.1431-1.2038-2.0897-2.5356-4.1427-3.8553-6.2153-1.3045-2.0487-2.6432-4.0945-4.0346-6.0995-1.3941-2.0089-2.9463-3.9006-4.4013-5.8389-1.479-1.9703-2.9389-3.9277-4.4535-5.7971-1.5637-1.93-3.1706-3.7686-4.7423-5.5606-1.6566-1.8887-3.1722-3.8179-4.803-5.5178-1.766-1.8409-3.5274-3.5457-5.2197-5.121-1.3589-1.2649-2.9519-2.2062-4.5855-2.9652-1.6629-.7726-3.4141-1.3426-5.2447-1.4774-2.3218-.171-4.759-.0097-7.2197.3954-2.3349.3844-4.712.9582-7.065,1.5808-2.6812.7094-5.3593,1.4159-8.0783,1.9113-2.7259.4966-5.4749.8378-8.2278,1.1135s-5.5172.4026-8.2869.4516c0,0,.0017.0992.0017.0992-2.4921.0441-4.9565.2569-7.3747.7047-2.4383.4515-4.835,1.0841-7.159,1.9242-2.3221.8394-4.6269,1.7827-6.7955,2.9882-2.1504,1.1954-4.093,2.7504-6.0541,4.2844-2.0047,1.5681-3.9169,3.2682-5.6831,5.1675-1.7277,1.8579-3.4555,3.7718-4.9163,5.9252-1.9189,2.8286-1.877,2.8571-3.7959,5.6857-1.9203,2.8306-1.9684,2.7979-3.8887,5.6285s-1.8549,2.8749-3.7752,5.7055c-1.4449,2.1299-2.5085,4.5302-2.9879,7.0493-.4747,2.4943-.3532,5.1118.1827,7.6523Z" style="fill:#7474ba;"/><path d="M89.0938,160.5249c-1.1458,1.1827-2.6985,1.2712-3.839.1439-2.3603-2.3331-3.1194-5.7984-3.6249-9.199-1.8092-.4065-3.8911-.7814-5.724-1.4704-1.9547-.7348-3.6467-1.8162-4.4691-3.6237-.1386-2.0405,1.6997-3.4552,4.0125-4.4187,2.0163-.8401,4.4143-1.3298,6.1897-1.5666.34-2.9244,1.0476-5.7015,2.5721-8.1633.5726-.9246,1.4138-1.6449,2.4777-1.8907,1.4002-.1791,2.4394.6591,3.1965,1.7977,1.6073,2.4171,2.2609,5.2537,2.7058,8.2368,1.6765.2828,3.57.6501,5.2966,1.2628,1.8072.6412,3.4525,1.5385,4.4867,2.9372.6173.9911.4856,2.0147-.2284,2.8931-2.0829,2.5623-6.2357,3.3265-9.5535,4.0076-.421,3.148-1.3648,6.8509-3.4987,9.0535Z" style="fill:#7474ba;"/><g style="opacity:.5;"><g style="opacity:.5;"><path d="M79.3321,140.269c.0261-.0086.0395.0066.0308.0326q-.4508,1.3386-.8995,2.6779c-.0088.0261-.0383.0544-.0654.0593-1.3155.2389-1.3164.2337-2.6319.4726-.0271.0049-.0382-.0091-.0277-.0346.4699-1.148.4654-1.1499.9352-2.2979.0104-.0255.0436-.0496.0697-.0581q1.2947-.4251,2.5888-.8518Z" style="fill:#93b7db;"/></g><g style="opacity:.5;"><path d="M79.6423,135.3322c.0003-.0275.0134-.0335.0352-.0168,1.1218.8583,1.1262.8526,2.248,1.7109.0218.0167.032.0551.0279.0823q-.198,1.3223-.398,2.6442c-.0041.0272-.0202.0354-.0409.0173q-.9352-.8149-1.8715-1.6287c-.0207-.0181-.0397-.0566-.0394-.0841.0191-1.3626.0226-1.3625.0388-2.7251Z" style="fill:#93b7db;"/></g><g style="opacity:.5;"><path d="M78.6947,129.3153c.0202-.0187.0376-.0148.0405.0125q.1494,1.4045.3011,2.8089c.0029.0273-.0152.0654-.0377.0812q-1.0956.7664-2.1933,1.5297c-.0225.0158-.0409.0068-.0421-.0207-.0524-1.2394-.0563-1.2392-.1088-2.4786-.0012-.0275.0156-.0677.0358-.0864q1.0025-.923,2.0044-1.8466Z" style="fill:#93b7db;"/></g><g style="opacity:.5;"><path d="M73.7319,139.3128c.0261-.0086.036.0012.0272.0273q-.4508,1.3386-.901,2.6774c-.0088.0261-.0355.0514-.0626.0563q-1.3155.2389-2.6314.4757c-.0271.0049-.0435-.0103-.0331-.0357.4699-1.148.4766-1.1453.9465-2.2933.0104-.0255.0373-.0537.0634-.0623q1.2962-.4206,2.591-.8454Z" style="fill:#93b7db;"/></g><g style="opacity:.5;"><path d="M74.0417,134.3715c.0003-.0275.0163-.0388.0381-.0221,1.1218.8583,1.1174.8641,2.2392,1.7223.0218.0167.0375.049.0335.0762q-.198,1.3223-.3964,2.6445c-.0041.0272-.0232.0356-.0439.0176q-.9352-.8149-1.8671-1.6338c-.0207-.0181-.0411-.0521-.0408-.0796q.0202-1.3625.0374-2.7251Z" style="fill:#93b7db;"/></g><g style="opacity:.5;"><path d="M73.0878,128.3489c.0202-.0187.038-.0087.0409.0187q.1494,1.4045.2981,2.8092c.0029.0273-.0113.0589-.0338.0747q-1.0956.7664-2.1893,1.5354c-.0225.0158-.0378.0066-.039-.0208q-.0524-1.2394-.1072-2.4786c-.0012-.0275.0139-.0643.034-.0829q.9974-.9285,1.9962-1.8555Z" style="fill:#93b7db;"/></g><g style="opacity:.5;"><path d="M66.0184,123.807c.0261-.0086.0432.0078.0344.0339-.4508,1.3386-.4562,1.3368-.907,2.6754-.0088.0261-.0351.0522-.0622.0571q-1.3155.2389-2.631.4779c-.0271.0049-.04-.0116-.0295-.037q.4699-1.148.9422-2.2951c.0104-.0255.0372-.0546.0633-.0631q1.2947-.4251,2.5897-.8491Z" style="fill:#93b7db;"/></g><g style="opacity:.5;"><path d="M66.3229,118.8702c.0003-.0275.0196-.034.0414-.0173q1.1218.8583,2.2455,1.7141c.0218.0167.0363.0528.0323.08-.198,1.3223-.202,1.3217-.4001,2.6439-.0041.0272-.0229.0382-.0437.0201-.9352-.8149-.9308-.82-1.8661-1.6349-.0207-.0181-.0436-.0532-.0433-.0807.0135-1.3626.0177-1.3626.0339-2.7252Z" style="fill:#93b7db;"/></g><g style="opacity:.5;"><path d="M65.3757,112.8476c.0202-.0187.0373-.0086.0402.0188q.1494,1.4045.3013,2.8088c.0029.0273-.0138.0591-.0364.0749-1.0956.7664-1.091.7728-2.1866,1.5392-.0225.0158-.0441.0031-.0452-.0244q-.0524-1.2394-.1033-2.4788c-.0012-.0275.0128-.0651.033-.0838q.9974-.9285,1.997-1.8547Z" style="fill:#93b7db;"/></g><g style="opacity:.5;"><path d="M60.4165,122.8457c.0261-.0086.0416.0077.0328.0337q-.4508,1.3386-.8988,2.6781c-.0088.0261-.0415.0502-.0685.0551q-1.3155.2389-2.6313.4763c-.0271.0049-.0428-.0113-.0324-.0368.4699-1.148.4753-1.1458.9451-2.2939.0104-.0255.0367-.0564.0628-.065q1.2945-.4256,2.5902-.8477Z" style="fill:#93b7db;"/></g><g style="opacity:.5;"><path d="M60.7229,117.9094c.0003-.0275.0187-.0352.0405-.0185q1.1218.8583,2.2419,1.7188c.0218.0167.0352.0487.0312.0759-.198,1.3223-.1923,1.3231-.3903,2.6454-.0041.0272-.029.0374-.0497.0193q-.9352-.8149-1.8695-1.631c-.0207-.0181-.0365-.0572-.0362-.0847q.0152-1.3626.0321-2.7252Z" style="fill:#93b7db;"/></g><g style="opacity:.5;"><path d="M59.7764,111.8894c.0202-.0187.0401-.0117.043.0157q.1494,1.4045.2957,2.8094c.0029.0273-.0102.0635-.0328.0793q-1.0956.7664-2.1917,1.5319c-.0225.0158-.0441.0059-.0453-.0215q-.0524-1.2394-.1029-2.4788c-.0012-.0275.0167-.0628.0369-.0814q.9997-.926,1.9971-1.8545Z" style="fill:#93b7db;"/></g><g style="opacity:.5;"><path d="M77.654,125.5268c.0261-.0086.0432.0071.0344.0331q-.4508,1.3386-.9052,2.676c-.0088.0261-.0375.0496-.0645.0545q-1.3155.2389-2.6311.477c-.0271.0049-.0404-.0091-.03-.0346q.4699-1.148.9381-2.2968c.0104-.0255.0427-.0512.0688-.0598q1.2949-.4243,2.5896-.8496Z" style="fill:#93b7db;"/></g><g style="opacity:.5;"><path d="M77.9596,120.5892c.0003-.0275.0211-.0379.0429-.0212q1.1218.8583,2.2424,1.7181c.0218.0167.0402.0532.0361.0804-.198,1.3223-.2037,1.3214-.4017,2.6437-.0041.0272-.0213.0336-.0421.0155q-.9352-.8149-1.8739-1.6259c-.0207-.0181-.0355-.058-.0352-.0855q.0149-1.3626.0315-2.7252Z" style="fill:#93b7db;"/></g><g style="opacity:.5;"><path d="M77.0159,114.5719c.0202-.0187.0338-.014.0367.0134q.1494,1.4045.2987,2.8091c.0029.0273-.0078.0659-.0303.0817-1.0956.7664-1.0996.7606-2.1952,1.527-.0225.0158-.0371.0082-.0383-.0193-.0524-1.2394-.0597-1.2391-.1121-2.4784-.0012-.0275.0208-.0627.041-.0814q1.0022-.9234,1.9994-1.8521Z" style="fill:#93b7db;"/></g><g style="opacity:.5;"><path d="M72.0527,124.5673c.0261-.0086.037.0039.0283.0299q-.4508,1.3386-.9015,2.6772c-.0088.0261-.0346.0552-.0616.0601q-1.3155.2389-2.631.4776c-.0271.0049-.0423-.0149-.0319-.0404q.4699-1.148.9422-2.2951c.0104-.0255.0398-.0513.066-.0599q1.2954-.4231,2.5896-.8495Z" style="fill:#93b7db;"/></g><g style="opacity:.5;"><path d="M72.3623,119.6284c.0003-.0275.0158-.0369.0377-.0202q1.1218.8583,2.2406,1.7205c.0218.0167.0378.0491.0337.0763q-.198,1.3223-.3988,2.6441c-.0041.0272-.0179.0324-.0387.0144q-.9352-.8149-1.8702-1.6302c-.0207-.0181-.0405-.0522-.0401-.0797q.0192-1.3626.0358-2.7252Z" style="fill:#93b7db;"/></g><g style="opacity:.5;"><path d="M71.4128,113.6096c.0202-.0187.0405-.0131.0434.0143.1494,1.4045.1454,1.405.2948,2.8095.0029.0273-.0137.0597-.0362.0755q-1.0956.7664-2.1898,1.5346c-.0225.0158-.0419.0071-.043-.0203q-.0524-1.2394-.1039-2.4788c-.0012-.0275.0112-.0682.0314-.0869q1.0008-.9248,2.0033-1.8478Z" style="fill:#93b7db;"/></g><g style="opacity:.5;"><path d="M67.3775,139.5264c.0261-.0086.0402.0034.0314.0294q-.4508,1.3386-.8994,2.678c-.0088.0261-.0404.0537-.0674.0586-1.3155.2389-1.3163.2344-2.6318.4733-.0271.0049-.0412-.011-.0307-.0364q.4699-1.148.9379-2.2969c.0104-.0255.0419-.0552.0681-.0637q1.2959-.4213,2.592-.8423Z" style="fill:#93b7db;"/></g><g style="opacity:.5;"><path d="M67.6834,134.5858c.0003-.0275.0182-.0358.04-.0191q1.1218.8583,2.2451,1.7146c.0218.0167.0366.0543.0325.0815q-.198,1.3223-.3966,2.6444c-.0041.0272-.0266.0363-.0474.0182q-.9352-.8149-1.8688-1.6318c-.0207-.0181-.0359-.0552-.0356-.0827q.0161-1.3626.0307-2.7252Z" style="fill:#93b7db;"/></g><g style="opacity:.5;"><path d="M66.7353,128.565c.0202-.0187.0388-.0107.0417.0166q.1494,1.4045.2975,2.8092c.0029.0273-.0111.0621-.0336.0779q-1.0956.7664-2.1919,1.5317c-.0225.0158-.0378.0073-.0389-.0201q-.0524-1.2394-.1055-2.4787c-.0012-.0275.0116-.0652.0318-.0839q.999-.9267,1.9988-1.8527Z" style="fill:#93b7db;"/></g><g style="opacity:.5;"><path d="M61.7755,138.5649c.0261-.0086.0381.0033.0294.0294q-.4508,1.3386-.9013,2.6773c-.0088.0261-.0371.05-.0642.0549q-1.3155.2389-2.6303.4815c-.0271.0049-.0406-.0136-.0302-.0391q.4699-1.148.9367-2.2973c.0104-.0255.0435-.0504.0697-.0589q1.2957-.422,2.5902-.8478Z" style="fill:#93b7db;"/></g><g style="opacity:.5;"><path d="M62.0819,133.625c.0003-.0275.0211-.0398.0429-.0231q1.1218.8583,2.2419,1.7188c.0218.0167.0319.0533.0278.0805-.198,1.3223-.1921,1.3232-.3901,2.6454-.0041.0272-.028.0357-.0487.0177q-.9352-.8149-1.8692-1.6313c-.0207-.0181-.0412-.0554-.0409-.0829.0163-1.3626.0201-1.3625.0363-2.7251Z" style="fill:#93b7db;"/></g><g style="opacity:.5;"><path d="M61.1324,127.603c.0202-.0187.0431-.0099.046.0175.1494,1.4045.1428,1.4052.2922,2.8098.0029.0273-.0072.0645-.0297.0803q-1.0956.7664-2.1924,1.531c-.0225.0158-.0432.0056-.0444-.0219q-.0524-1.2394-.1032-2.4788c-.0012-.0275.0118-.0671.032-.0858q.998-.9279,1.9995-1.852Z" style="fill:#93b7db;"/></g><g style="opacity:.5;"><path d="M88.4151,127.4736c.0261-.0086.0426.0073.0339.0333q-.4508,1.3386-.9004,2.6776c-.0088.0261-.0408.0529-.0679.0578q-1.3155.2389-2.6312.4768c-.0271.0049-.04-.0131-.0296-.0386q.4699-1.148.9358-2.2977c.0104-.0255.0432-.0522.0694-.0608q1.2948-.4247,2.5899-.8486Z" style="fill:#93b7db;"/></g><g style="opacity:.5;"><path d="M88.7213,122.5365c.0003-.0275.0211-.0384.0429-.0217q1.1218.8583,2.2405,1.7206c.0218.0167.041.0512.037.0784q-.198,1.3223-.395,2.6447c-.0041.0272-.0278.0332-.0486.0152q-.9352-.8149-1.8734-1.6265c-.0207-.0181-.0353-.0578-.0349-.0853q.0153-1.3626.0315-2.7252Z" style="fill:#93b7db;"/></g><g style="opacity:.5;"><path d="M87.7729,116.5145c.0202-.0187.0443-.01.0472.0173q.1494,1.4045.299,2.8091c.0029.0273-.0143.0665-.0368.0823q-1.0956.7664-2.1937,1.529c-.0225.0158-.0412.0064-.0424-.0211q-.0524-1.2394-.1029-2.4788c-.0012-.0275.0101-.0671.0303-.0857q.9979-.9279,1.9994-1.852Z" style="fill:#93b7db;"/></g><g style="opacity:.5;"><path d="M82.8128,126.5111c.0261-.0086.0394.0078.0306.0338q-.4508,1.3386-.8975,2.6786c-.0088.0261-.0401.0521-.0671.057-1.3155.2389-1.3164.2339-2.6319.4728-.0271.0049-.0398-.0083-.0294-.0337q.4699-1.148.9426-2.2949c.0104-.0255.0369-.0556.0631-.0642q1.2942-.4265,2.5897-.8494Z" style="fill:#93b7db;"/></g><g style="opacity:.5;"><path d="M83.1193,121.5757c.0003-.0275.0192-.0356.041-.0189q1.1218.8583,2.2422,1.7184c.0218.0167.0365.0499.0324.0771q-.198,1.3223-.3955,2.6446c-.0041.0272-.0205.0319-.0412.0138q-.9352-.8149-1.8728-1.6273c-.0207-.0181-.0398-.055-.0395-.0825q.015-1.3626.0333-2.7252Z" style="fill:#93b7db;"/></g><g style="opacity:.5;"><path d="M82.1727,115.5554c.0202-.0187.0362-.011.0391.0164.1494,1.4045.1567,1.4038.3061,2.8083.0029.0273-.0149.0665-.0374.0823q-1.0956.7664-2.1921,1.5314c-.0225.0158-.0432.0041-.0444-.0234q-.0524-1.2394-.1058-2.4787c-.0012-.0275.0135-.0671.0337-.0858q.9995-.9263,2.0009-1.8505Z" style="fill:#93b7db;"/></g><g style="opacity:.5;"><path d="M90.0072,132.0043c.0202-.0187.0427-.0127.0456.0147.1494,1.4045.1418,1.4054.2912,2.8099.0029.0273-.0093.0628-.0318.0786q-1.0956.7664-2.1906,1.5335c-.0225.0158-.0422.0049-.0433-.0226-.0524-1.2394-.0487-1.2395-.1011-2.4789-.0012-.0275.012-.0629.0322-.0816q1.0003-.9254,1.998-1.8535Z" style="fill:#93b7db;"/></g><g style="opacity:.5;"><path d="M85.0463,142.0031c.0261-.0086.0379.003.0291.0291q-.4508,1.3386-.9031,2.6767c-.0088.0261-.0342.0558-.0613.0607-1.3155.2389-1.3164.2341-2.6319.473-.0271.0049-.0391-.0098-.0287-.0353q.4699-1.148.9361-2.2976c.0104-.0255.0418-.055.0679-.0636q1.2958-.4218,2.5917-.843Z" style="fill:#93b7db;"/></g><g style="opacity:.5;"><path d="M85.3486,137.0629c.0003-.0275.025-.0398.0468-.0231q1.1218.8583,2.2426,1.7178c.0218.0167.0386.0555.0345.0827q-.198,1.3223-.3992,2.644c-.0041.0272-.0234.0327-.0442.0146q-.9352-.8149-1.8718-1.6284c-.0207-.0181-.0352-.0549-.0349-.0824q.0125-1.3626.0261-2.7253Z" style="fill:#93b7db;"/></g><g style="opacity:.5;"><path d="M84.4028,131.0407c.0202-.0187.039-.0092.0419.0182q.1494,1.4045.3002,2.809c.0029.0273-.0101.0659-.0326.0817-1.0956.7664-1.0991.7613-2.1947,1.5277-.0225.0158-.0409.0079-.042-.0196q-.0524-1.2394-.1073-2.4786c-.0012-.0275.014-.0686.0341-.0872q.9977-.9282,2.0004-1.851Z" style="fill:#93b7db;"/></g><g style="opacity:.5;"><path d="M87.5574,111.1978c.0261-.0086.0376.0045.0288.0306-.4508,1.3386-.4459,1.3403-.8966,2.6789-.0088.0261-.0406.0488-.0677.0537-1.3155.2389-1.3146.2436-2.6301.4825-.0271.0049-.0444-.0161-.034-.0415.4699-1.148.4742-1.1463.9441-2.2943.0104-.0255.0391-.0543.0652-.0628q1.2952-.4236,2.5904-.847Z" style="fill:#93b7db;"/></g><g style="opacity:.5;"><path d="M81.9546,110.2337c.0261-.0086.0399.0083.0311.0343q-.4508,1.3386-.9,2.6777c-.0088.0261-.0379.0527-.065.0576-1.3155.2389-1.3162.2349-2.6317.4738-.0271.0049-.0416-.0098-.0311-.0352q.4699-1.148.939-2.2964c.0104-.0255.0428-.0515.0689-.06q1.2941-.4269,2.5889-.8518Z" style="fill:#93b7db;"/></g><g style="opacity:.5;"><path d="M82.2623,105.2987c.0003-.0275.0187-.0363.0405-.0196q1.1218.8583,2.241,1.72c.0218.0167.0379.049.0338.0762q-.198,1.3223-.3988,2.6441c-.0041.0272-.0203.0351-.0411.017q-.9352-.8149-1.8688-1.6318c-.0207-.0181-.0435-.0533-.0431-.0808.016-1.3626.0202-1.3625.0365-2.7251Z" style="fill:#93b7db;"/></g><g style="opacity:.5;"><path d="M81.3173,99.2813c.0202-.0187.0343-.0139.0372.0134q.1494,1.4045.3011,2.8088c.0029.0273-.0125.0635-.035.0793q-1.0956.7664-2.1903,1.5339c-.0225.0158-.0469.0043-.048-.0232q-.0524-1.2394-.1033-2.4788c-.0012-.0275.0134-.0685.0336-.0872q1.0021-.9235,2.0048-1.8462Z" style="fill:#93b7db;"/></g><g style="opacity:.5;"><path d="M76.0928,109.3772c.0261-.0086.0399.0078.0311.0339q-.4508,1.3386-.8997,2.6779c-.0088.0261-.0383.0529-.0654.0579q-1.3155.2389-2.6307.4792c-.0271.0049-.0383-.0138-.0279-.0393q.4699-1.148.9385-2.2966c.0104-.0255.0387-.0537.0649-.0623q1.2943-.4264,2.5892-.8506Z" style="fill:#93b7db;"/></g><g style="opacity:.5;"><path d="M76.404,104.4418c.0003-.0275.0127-.0332.0345-.0165q1.1218.8583,2.2446,1.7153c.0218.0167.0369.0506.0328.0778q-.198,1.3223-.3948,2.6447c-.0041.0272-.0269.0373-.0477.0193q-.9352-.8149-1.868-1.6327c-.0207-.0181-.041-.0553-.0407-.0828.0196-1.3626.0231-1.3625.0394-2.7251Z" style="fill:#93b7db;"/></g><g style="opacity:.5;"><path d="M75.4546,98.4235c.0202-.0187.0331-.0128.036.0145.1494,1.4045.1565,1.4038.3058,2.8083.0029.0273-.0155.0633-.0381.0791q-1.0956.7664-2.1902,1.534c-.0225.0158-.0396.0043-.0407-.0231q-.0524-1.2394-.1081-2.4786c-.0012-.0275.0117-.0678.0319-.0864q1.0013-.9243,2.0034-1.8478Z" style="fill:#93b7db;"/></g><g style="opacity:.5;"><path d="M70.4914,108.4174c.0261-.0086.0395.0068.0307.0329q-.4508,1.3386-.9025,2.6769c-.0088.0261-.0362.0497-.0633.0546-1.3155.2389-1.3145.2445-2.63.4834-.0271.0049-.0426-.0156-.0322-.0411q.4699-1.148.9432-2.2947c.0104-.0255.0382-.0542.0643-.0628q1.2946-.4254,2.5897-.8493Z" style="fill:#93b7db;"/></g><g style="opacity:.5;"><path d="M70.8002,103.481c.0003-.0275.0184-.0381.0403-.0213q1.1218.8583,2.2449,1.7148c.0218.0167.0316.0558.0276.083-.198,1.3223-.1927,1.3231-.3907,2.6453-.0041.0272-.0263.0327-.047.0147q-.9352-.8149-1.8705-1.6298c-.0207-.0181-.0358-.0539-.0354-.0814q.0176-1.3626.0309-2.7252Z" style="fill:#93b7db;"/></g><g style="opacity:.5;"><path d="M69.8512,97.4609c.0202-.0187.038-.0113.0409.016q.1494,1.4045.2969,2.8093c.0029.0273-.0077.0657-.0302.0815q-1.0956.7664-2.1923,1.5311c-.0225.0158-.0459.0045-.0471-.023q-.0524-1.2394-.1057-2.4787c-.0012-.0275.0201-.0631.0402-.0817q.9996-.9261,1.9972-1.8545Z" style="fill:#93b7db;"/></g><g style="opacity:.5;"><path d="M64.6348,107.6492c.0261-.0086.0425.0076.0337.0336q-.4508,1.3386-.9047,2.6762c-.0088.0261-.0362.0546-.0632.0595q-1.3155.2389-2.6311.4773c-.0271.0049-.038-.0129-.0276-.0383q.4699-1.148.936-2.2976c.0104-.0255.0403-.0548.0665-.0634q1.2947-.4251,2.5903-.8473Z" style="fill:#93b7db;"/></g><g style="opacity:.5;"><path d="M64.9389,102.7125c.0003-.0275.0238-.0391.0457-.0224q1.1218.8583,2.2409,1.7201c.0218.0167.034.0515.03.0787-.198,1.3223-.1935,1.3229-.3915,2.6452-.0041.0272-.0269.0355-.0476.0174q-.9352-.8149-1.8696-1.6308c-.0207-.0181-.0349-.0554-.0345-.0829q.0131-1.3626.0267-2.7253Z" style="fill:#93b7db;"/></g><g style="opacity:.5;"><path d="M63.9952,96.6932c.0202-.0187.0403-.0125.0432.0148q.1494,1.4045.2982,2.8092c.0029.0273-.015.062-.0376.0777q-1.0956.7664-2.1929,1.5302c-.0225.0158-.0432.0097-.0444-.0178-.0524-1.2394-.0491-1.2395-.1015-2.4789-.0012-.0275.0119-.0683.0321-.0869q1.0004-.9253,2.0029-1.8483Z" style="fill:#93b7db;"/></g><g style="opacity:.5;"><path d="M59.033,106.6883c.0261-.0086.0387.0064.0299.0325q-.4508,1.3386-.9009,2.6774c-.0088.0261-.0362.0537-.0633.0586q-1.3155.2389-2.6315.4751c-.0271.0049-.0437-.0122-.0333-.0377q.4699-1.148.9419-2.2952c.0104-.0255.0408-.0545.0669-.0631q1.2946-.4253,2.5902-.8476Z" style="fill:#93b7db;"/></g><g style="opacity:.5;"><path d="M59.343,101.7518c.0003-.0275.0139-.0338.0357-.0171q1.1218.8583,2.2462,1.7132c.0218.0167.0324.0529.0284.0801-.198,1.3223-.1919,1.3232-.3899,2.6454-.0041.0272-.0294.0369-.0502.0189q-.9352-.8149-1.8677-1.6331c-.0207-.0181-.0362-.0548-.0358-.0823q.0188-1.3626.0333-2.7252Z" style="fill:#93b7db;"/></g><g style="opacity:.5;"><path d="M77.6946,185.235c.0261-.0086.0407.0057.0319.0318q-.4508,1.3386-.9038,2.6765c-.0088.0261-.036.0534-.063.0583q-1.3155.2389-2.6316.4742c-.0271.0049-.0379-.0087-.0275-.0342q.4699-1.148.9371-2.2972c.0104-.0255.0403-.0542.0664-.0628q1.2951-.4237,2.5906-.8466Z" style="fill:#93b7db;"/></g><g style="opacity:.5;"><path d="M78.0035,180.2968c.0003-.0275.0176-.0379.0394-.0212q1.1218.8583,2.241,1.72c.0218.0167.0344.0502.0303.0774q-.198,1.3223-.3961,2.6445c-.0041.0272-.0231.0377-.0438.0196q-.9352-.8149-1.8689-1.6316c-.0207-.0181-.0411-.0561-.0408-.0836.0183-1.3626.0226-1.3625.0388-2.7251Z" style="fill:#93b7db;"/></g><g style="opacity:.5;"><path d="M77.0509,174.2736c.0202-.0187.0437-.0086.0466.0187q.1494,1.4045.2983,2.8092c.0029.0273-.0148.0622-.0373.0779q-1.0956.7664-2.1923,1.5311c-.0225.0158-.0415.0085-.0427-.019q-.0524-1.2394-.1072-2.4786c-.0012-.0275.0196-.0634.0398-.0821q.9968-.9291,1.9947-1.8571Z" style="fill:#93b7db;"/></g><g style="opacity:.5;"><path d="M72.0939,184.2774c.0261-.0086.0407.0028.0319.0289q-.4508,1.3386-.9,2.6777c-.0088.0261-.0411.0503-.0681.0552q-1.3155.2389-2.631.4778c-.0271.0049-.0435-.013-.0331-.0385q.4699-1.148.9437-2.2945c.0104-.0255.04-.0512.0662-.0597q1.2962-.4206,2.5904-.847Z" style="fill:#93b7db;"/></g><g style="opacity:.5;"><path d="M72.4017,179.336c.0003-.0275.0139-.033.0358-.0163q1.1218.8583,2.2473,1.7118c.0218.0167.032.0535.0279.0807-.198,1.3223-.1908,1.3233-.3888,2.6456-.0041.0272-.0267.0323-.0474.0143q-.9352-.8149-1.8731-1.6268c-.0207-.0181-.0344-.0566-.0341-.0841q.0182-1.3626.0326-2.7252Z" style="fill:#93b7db;"/></g><g style="opacity:.5;"><path d="M71.455,173.3191c.0202-.0187.035-.0146.0379.0128q.1494,1.4045.2991,2.8091c.0029.0273-.0106.0649-.0331.0807q-1.0956.7664-2.1903,1.5339c-.0225.0158-.0466.0027-.0478-.0247q-.0524-1.2394-.104-2.4788c-.0012-.0275.0169-.064.0371-.0827q1.0025-.923,2.0011-1.8502Z" style="fill:#93b7db;"/></g><g style="opacity:.5;"><path d="M64.3808,168.7727c.0261-.0086.038.005.0292.0311q-.4508,1.3386-.9005,2.6776c-.0088.0261-.0372.0492-.0642.0541q-1.3155.2389-2.6307.4794c-.0271.0049-.0414-.0113-.031-.0367q.4699-1.148.9424-2.295c.0104-.0255.0376-.0569.0637-.0655q1.295-.424,2.5911-.845Z" style="fill:#93b7db;"/></g><g style="opacity:.5;"><path d="M64.6833,163.8347c.0003-.0275.0213-.0342.0432-.0175q1.1218.8583,2.2449,1.7148c.0218.0167.0373.0523.0332.0795q-.198,1.3223-.3928,2.645c-.0041.0272-.0254.0309-.0461.0128q-.9352-.8149-1.8718-1.6284c-.0207-.0181-.0412-.0536-.0409-.0811q.0119-1.3626.0303-2.7252Z" style="fill:#93b7db;"/></g><g style="opacity:.5;"><path d="M63.7383,157.8128c.0202-.0187.0379-.0093.0408.0181.1494,1.4045.1558,1.4039.3052,2.8084.0029.0273-.0176.0615-.0401.0773q-1.0956.7664-2.1892,1.5356c-.0225.0158-.0438.0049-.045-.0226q-.0524-1.2394-.1071-2.4786c-.0012-.0275.0176-.0654.0378-.084q.9979-.928,1.9976-1.854Z" style="fill:#93b7db;"/></g><g style="opacity:.5;"><path d="M58.7791,167.812c.0261-.0086.0401.0057.0314.0317q-.4508,1.3386-.8987,2.6782c-.0088.0261-.0409.0494-.068.0543q-1.3155.2389-2.6303.4816c-.0271.0049-.0431-.0154-.0327-.0408q.4699-1.148.9427-2.2949c.0104-.0255.0384-.0564.0645-.0649q1.2951-.4239,2.591-.8452Z" style="fill:#93b7db;"/></g><g style="opacity:.5;"><path d="M59.089,162.8741c.0003-.0275.013-.0331.0348-.0164q1.1218.8583,2.2453,1.7143c.0218.0167.0363.0514.0322.0786q-.198,1.3223-.3972,2.6444c-.0041.0272-.0224.0351-.0431.017q-.9352-.8149-1.8727-1.6273c-.0207-.0181-.0328-.0579-.0325-.0854q.0191-1.3626.0331-2.7252Z" style="fill:#93b7db;"/></g><g style="opacity:.5;"><path d="M58.136,156.8514c.0202-.0187.0413-.0089.0442.0184q.1494,1.4045.298,2.8092c.0029.0273-.0128.0616-.0353.0773q-1.0956.7664-2.1907,1.5334c-.0225.0158-.0442.0065-.0454-.0209q-.0524-1.2394-.1032-2.4788c-.0012-.0275.0146-.0659.0348-.0846q.9973-.9286,1.9976-1.854Z" style="fill:#93b7db;"/></g><g style="opacity:.5;"><path d="M76.0165,170.4929c.0261-.0086.0366.0035.0278.0295-.4508,1.3386-.4446,1.3407-.8954,2.6793-.0088.0261-.0409.0502-.068.0551q-1.3155.2389-2.631.4779c-.0271.0049-.0414-.012-.031-.0375q.4699-1.148.9406-2.2958c.0104-.0255.0402-.0536.0663-.0621q1.2954-.4228,2.5906-.8464Z" style="fill:#93b7db;"/></g><g style="opacity:.5;"><path d="M75.3768,159.5352c.0202-.0187.0419-.0134.0449.0139.1494,1.4045.1444,1.4051.2938,2.8096.0029.0273-.0105.0651-.033.0809q-1.0956.7664-2.1941,1.5285c-.0225.0158-.0441.008-.0452-.0195q-.0524-1.2394-.1051-2.4787c-.0012-.0275.0171-.0662.0373-.0849q1.001-.9247,2.0015-1.8498Z" style="fill:#93b7db;"/></g><g style="opacity:.5;"><path d="M70.4141,169.5299c.0261-.0086.0438.0078.035.0339q-.4508,1.3386-.9016,2.6772c-.0088.0261-.0415.048-.0685.0529q-1.3155.2389-2.6304.4808c-.0271.0049-.0406-.0124-.0301-.0378q.4699-1.148.939-2.2964c.0104-.0255.0411-.0522.0672-.0608q1.2947-.4249,2.5895-.8498Z" style="fill:#93b7db;"/></g><g style="opacity:.5;"><path d="M70.7236,164.593c.0003-.0275.0164-.0366.0382-.0199q1.1218.8583,2.2407,1.7203c.0218.0167.0374.0489.0334.0761q-.198,1.3223-.3924,2.6451c-.0041.0272-.0257.0337-.0465.0156q-.9352-.8149-1.8701-1.6303c-.0207-.0181-.0427-.0543-.0424-.0818.0185-1.3626.0229-1.3625.0391-2.7251Z" style="fill:#93b7db;"/></g><g style="opacity:.5;"><path d="M69.7711,158.5701c.0202-.0187.0439-.0089.0468.0184q.1494,1.4045.3001,2.809c.0029.0273-.018.061-.0405.0768q-1.0956.7664-2.1891,1.5356c-.0225.0158-.0406.0052-.0418-.0223q-.0524-1.2394-.1077-2.4786c-.0012-.0275.0145-.0661.0347-.0848q.9971-.9288,1.9975-1.8541Z" style="fill:#93b7db;"/></g><g style="opacity:.5;"><path d="M66.0428,179.5503c.0003-.0275.0237-.0396.0455-.0229q1.1218.8583,2.2425,1.718c.0218.0167.0393.0551.0353.0823q-.198,1.3223-.3966,2.6444c-.0041.0272-.0285.0345-.0493.0164q-.9352-.8149-1.8674-1.6334c-.0207-.0181-.0383-.0522-.038-.0797q.0136-1.3626.028-2.7252Z" style="fill:#93b7db;"/></g><g style="opacity:.5;"><path d="M65.0985,173.5309c.0202-.0187.0399-.0123.0428.015.1494,1.4045.1452,1.405.2946,2.8095.0029.0273-.009.0643-.0315.08q-1.0956.7664-2.1937,1.5291c-.0225.0158-.0392.0078-.0404-.0197q-.0524-1.2394-.1067-2.4787c-.0012-.0275.0148-.0651.035-.0838q1.0003-.9254,1.9998-1.8516Z" style="fill:#93b7db;"/></g><g style="opacity:.5;"><path d="M60.4457,178.5896c.0003-.0275.0171-.0369.0389-.0202q1.1218.8583,2.2437,1.7164c.0218.0167.0333.053.0292.0802q-.198,1.3223-.3926,2.645c-.0041.0272-.0269.0364-.0476.0183-.9352-.8149-.9308-.8201-1.866-1.635-.0207-.0181-.0374-.052-.0371-.0795q.018-1.3626.0314-2.7252Z" style="fill:#93b7db;"/></g><g style="opacity:.5;"><path d="M59.4964,172.5697c.0202-.0187.0409-.0119.0438.0154.1494,1.4045.1433,1.4052.2927,2.8097.0029.0273-.0081.0634-.0306.0791q-1.0956.7664-2.1908,1.5332c-.0225.0158-.041.0044-.0422-.0231-.0524-1.2394-.0559-1.2392-.1084-2.4786-.0012-.0275.014-.0673.0341-.086q.9998-.9259,2.0014-1.8499Z" style="fill:#93b7db;"/></g><g style="opacity:.5;"><path d="M89.0099,187.9282c.0261-.0086.0411.0043.0323.0303q-.4508,1.3386-.9012,2.6773c-.0088.0261-.0394.0528-.0665.0577q-1.3155.2389-2.6308.4786c-.0271.0049-.0382-.0136-.0278-.039q.4699-1.148.9398-2.2961c.0104-.0255.0371-.0552.0633-.0637q1.2957-.422,2.591-.8453Z" style="fill:#93b7db;"/></g><g style="opacity:.5;"><path d="M83.4071,186.964c.0261-.0086.0379.0062.0291.0323q-.4508,1.3386-.8999,2.6778c-.0088.0261-.0362.0551-.0632.06q-1.3155.2389-2.6315.4751c-.0271.0049-.0413-.0127-.0309-.0382q.4699-1.148.9401-2.2959c.0104-.0255.0404-.0537.0665-.0622q1.2946-.4253,2.5898-.8488Z" style="fill:#93b7db;"/></g><g style="opacity:.5;"><path d="M83.7179,182.0275c.0003-.0275.0175-.0395.0393-.0228q1.1218.8583,2.2412,1.7197c.0218.0167.0346.0524.0306.0796q-.198,1.3223-.396,2.6445c-.0041.0272-.0222.0345-.043.0164q-.9352-.8149-1.8717-1.6285c-.0207-.0181-.0348-.0562-.0344-.0837q.0196-1.3626.034-2.7252Z" style="fill:#93b7db;"/></g><g style="opacity:.5;"><path d="M82.7663,176.0069c.0202-.0187.039-.0109.0419.0165q.1494,1.4045.2995,2.809c.0029.0273-.0147.0605-.0372.0763q-1.0956.7664-2.1887,1.5361c-.0225.0158-.0464.005-.0476-.0225q-.0524-1.2394-.1035-2.4788c-.0012-.0275.0189-.0628.0391-.0815q.9991-.9266,1.9965-1.8552Z" style="fill:#93b7db;"/></g><g style="opacity:.5;"><path d="M85.2788,145.2042c.0202-.0187.04-.0119.0429.0155q.1494,1.4045.295,2.8095c.0029.0273-.0098.0633-.0323.0791q-1.0956.7664-2.1918,1.5318c-.0225.0158-.0396.006-.0408-.0215-.0524-1.2394-.057-1.2392-.1094-2.4786-.0012-.0275.0189-.0628.0391-.0815q.9999-.9258,1.9972-1.8544Z" style="fill:#93b7db;"/></g><g style="opacity:.5;"><path d="M80.3174,155.2008c.0261-.0086.0391.0057.0303.0318q-.4508,1.3386-.9,2.6778c-.0088.0261-.0378.0542-.0648.0591-1.3155.2389-1.3166.2327-2.6321.4716-.0271.0049-.0394-.0083-.029-.0337q.4699-1.148.9364-2.2975c.0104-.0255.0427-.053.0689-.0615q1.2949-.4243,2.5903-.8475Z" style="fill:#93b7db;"/></g><g style="opacity:.5;"><path d="M80.6239,150.2632c.0003-.0275.017-.0336.0388-.0169q1.1218.8583,2.2432,1.7171c.0218.0167.0362.049.0321.0762q-.198,1.3223-.3952,2.6446c-.0041.0272-.0229.0354-.0436.0173q-.9352-.8149-1.8718-1.6284c-.0207-.0181-.0348-.0572-.0345-.0847q.0157-1.3626.0309-2.7252Z" style="fill:#93b7db;"/></g><g style="opacity:.5;"><path d="M79.6757,144.2419c.0202-.0187.0405-.0103.0435.017q.1494,1.4045.2992,2.809c.0029.0273-.0126.0644-.0352.0802q-1.0956.7664-2.1916,1.532c-.0225.0158-.0397.005-.0408-.0224q-.0524-1.2394-.1071-2.4786c-.0012-.0275.0141-.0647.0343-.0834q.9985-.9273,1.9978-1.8538Z" style="fill:#93b7db;"/></g><g style="opacity:.5;"><path d="M74.4561,154.3455c.0261-.0086.0384.0041.0296.0301-.4508,1.3386-.4458,1.3403-.8966,2.6789-.0088.0261-.0416.0495-.0687.0544q-1.3155.2389-2.631.4775c-.0271.0049-.0412-.0112-.0308-.0367q.4699-1.148.9409-2.2956c.0104-.0255.0403-.0524.0664-.0609q1.2954-.4228,2.5902-.8478Z" style="fill:#93b7db;"/></g><g style="opacity:.5;"><path d="M74.7602,149.4063c.0003-.0275.0212-.0367.0431-.02q1.1218.8583,2.241,1.7199c.0218.0167.0354.0492.0313.0764q-.198,1.3223-.3935,2.6449c-.0041.0272-.0242.0353-.0449.0173q-.9352-.8149-1.8698-1.6306c-.0207-.0181-.0373-.0551-.037-.0826q.0138-1.3626.0297-2.7252Z" style="fill:#93b7db;"/></g><g style="opacity:.5;"><path d="M73.8165,143.3879c.0202-.0187.0399-.0134.0428.014q.1494,1.4045.2976,2.8092c.0029.0273-.0119.066-.0345.0818-1.0956.7664-1.0989.7616-2.1944,1.528-.0225.0158-.0367.0074-.0379-.02-.0524-1.2394-.0571-1.2392-.1095-2.4785-.0012-.0275.0153-.0648.0355-.0835q1.0011-.9245,2.0005-1.8509Z" style="fill:#93b7db;"/></g><g style="opacity:.5;"><path d="M68.8529,153.3801c.0261-.0086.0438.01.035.036q-.4508,1.3386-.9038,2.6765c-.0088.0261-.0381.0514-.0652.0563q-1.3155.2389-2.6316.4746c-.0271.0049-.0414-.0092-.031-.0347q.4699-1.148.9391-2.2963c.0104-.0255.0421-.0529.0683-.0614q1.294-.4273,2.5892-.8509Z" style="fill:#93b7db;"/></g><g style="opacity:.5;"><path d="M69.1628,148.4456c.0003-.0275.0161-.0356.0379-.0189q1.1218.8583,2.2416,1.7192c.0218.0167.0373.049.0332.0762q-.198,1.3223-.3955,2.6446c-.0041.0272-.0223.0338-.043.0158q-.9352-.8149-1.8684-1.6322c-.0207-.0181-.0423-.052-.042-.0795q.0181-1.3626.0363-2.7251Z" style="fill:#93b7db;"/></g><g style="opacity:.5;"><path d="M68.2106,142.4227c.0202-.0187.0394-.0084.0423.0189q.1494,1.4045.2991,2.8091c.0029.0273-.0103.0635-.0328.0792q-1.0956.7664-2.1901,1.5342c-.0225.0158-.0445.0037-.0457-.0238q-.0524-1.2394-.105-2.4787c-.0012-.0275.0131-.0677.0333-.0864q.9971-.9288,1.999-1.8525Z" style="fill:#93b7db;"/></g><g style="opacity:.5;"><path d="M62.997,152.6142c.0261-.0086.0417.007.0329.0331q-.4508,1.3386-.9015,2.6772c-.0088.0261-.0385.0546-.0656.0595-1.3155.2389-1.3163.2345-2.6318.4734-.0271.0049-.0393-.0106-.0289-.036q.4699-1.148.9381-2.2968c.0104-.0255.0413-.0515.0675-.06q1.2948-.4248,2.5893-.8504Z" style="fill:#93b7db;"/></g><g style="opacity:.5;"><path d="M63.3046,147.6771c.0003-.0275.0171-.0352.039-.0184q1.1218.8583,2.245,1.7148c.0218.0167.033.0528.0289.08-.198,1.3223-.1938,1.3229-.3918,2.6451-.0041.0272-.0273.0364-.048.0183q-.9352-.8149-1.8688-1.6318c-.0207-.0181-.035-.0553-.0347-.0828q.0167-1.3626.0304-2.7252Z" style="fill:#93b7db;"/></g><g style="opacity:.5;"><path d="M62.3556,141.656c.0202-.0187.0434-.0109.0463.0165.1494,1.4045.1436,1.4052.293,2.8097.0029.0273-.0132.0588-.0357.0746-1.0956.7664-1.0922.7711-2.1878,1.5375-.0225.0158-.041.0049-.0421-.0226-.0524-1.2394-.0572-1.2392-.1096-2.4785-.0012-.0275.0172-.0656.0373-.0842q.9988-.927,1.9986-1.8529Z" style="fill:#93b7db;"/></g><g style="opacity:.5;"><path d="M57.3957,151.6547c.0261-.0086.0429.0063.0341.0323q-.4508,1.3386-.9049,2.6761c-.0088.0261-.0369.0539-.064.0588q-1.3155.2389-2.6312.4768c-.0271.0049-.0413-.0132-.0309-.0387q.4699-1.148.942-2.2952c.0104-.0255.0385-.0541.0646-.0626q1.2952-.4236,2.5903-.8474Z" style="fill:#93b7db;"/></g><g style="opacity:.5;"><path d="M57.6994,146.7163c.0003-.0275.023-.0382.0448-.0215q1.1218.8583,2.2426,1.7179c.0218.0167.0332.0528.0292.08-.198,1.3223-.1923,1.3231-.3903,2.6454-.0041.0272-.028.0349-.0488.0169q-.9352-.8149-1.867-1.6339c-.0207-.0181-.0419-.052-.0416-.0795q.0132-1.3626.031-2.7252Z" style="fill:#93b7db;"/></g><g style="opacity:.5;"><path d="M56.7528,140.6941c.0202-.0187.0378-.009.0407.0183q.1494,1.4045.2989,2.8091c.0029.0273-.0084.0647-.0309.0804q-1.0956.7664-2.1932,1.5298c-.0225.0158-.0405.0068-.0416-.0207q-.0524-1.2394-.1078-2.4786c-.0012-.0275.019-.0623.0392-.081q.9977-.9282,1.9946-1.8572Z" style="fill:#93b7db;"/></g></g><g style="opacity:.5;"><g style="opacity:.5;"><path d="M59.815,75.4982c-.0164.0221-.0396.0187-.0475-.0077q-.4042-1.3534-.8075-2.7071c-.0079-.0263.0058-.0617.0251-.0813q.9366-.9541,1.8714-1.91c.0193-.0196.0389-.0147.0451.0121q.2787,1.2088.557,2.4176c.0062.0268-.0024.0661-.0188.0882q-.8123,1.0941-1.6247,2.1882Z" style="fill:#93b7db;"/></g><g style="opacity:.5;"><path d="M62.4098,79.7097c.0156.0226.0088.0369-.0187.0358q-1.4115-.0537-2.823-.106c-.0275-.001-.0585-.0228-.0708-.0474q-.6012-1.1942-1.2036-2.3878c-.0124-.0246-.0003-.0442.027-.0415q1.2341.126,2.4682.2513c.0274.0028.0622.0263.0778.0489q.7701,1.1242,1.543,2.2465Z" style="fill:#93b7db;"/></g><g style="opacity:.5;"><path d="M66.6645,84.0787c-.0057.0269-.0286.0302-.0468.0096q-.9324-1.061-1.8633-2.1233c-.0182-.0207-.0248-.0553-.0155-.0812.4526-1.2581.4475-1.2599.9001-2.518.0093-.0259.0337-.0294.0505-.0077q.7579.982,1.5124,1.9667c.0168.0218.0269.0595.0212.0864q-.2779,1.3341-.5588,2.6675Z" style="fill:#93b7db;"/></g><g style="opacity:.5;"><path d="M64.9464,73.0521c-.0164.0221-.036.0157-.0439-.0107q-.4042-1.3534-.8095-2.7065c-.0079-.0263-.0006-.0635.0186-.0831q.9366-.9541,1.8702-1.9112c.0193-.0196.041-.0102.0471.0166q.2787,1.2088.5593,2.4171c.0062.0268.001.0689-.0154.091q-.8105,1.0955-1.6265,2.1868Z" style="fill:#93b7db;"/></g><g style="opacity:.5;"><path d="M67.5392,77.2624c.0156.0226.0089.0388-.0186.0377q-1.4115-.0537-2.8229-.1084c-.0275-.001-.0621-.0205-.0745-.0451q-.6012-1.1942-1.2006-2.3893c-.0124-.0246.0005-.0465.0278-.0437q1.2341.126,2.4681.2521c.0274.0028.0649.0255.0805.0482q.77,1.1243,1.54,2.2486Z" style="fill:#93b7db;"/></g><g style="opacity:.5;"><path d="M71.791,81.6306c-.0057.0269-.0235.029-.0416.0084q-.9324-1.061-1.8663-2.1207c-.0182-.0207-.0266-.0571-.0173-.083q.4526-1.2581.9023-2.5172c.0093-.0259.0325-.0279.0493-.0062q.7579.982,1.5168,1.9633c.0168.0218.0216.061.0159.0879q-.2809,1.3334-.5592,2.6674Z" style="fill:#93b7db;"/></g><g style="opacity:.5;"><path d="M69.6917,86.5705c-.0164.0221-.0384.0191-.0462-.0072q-.4042-1.3534-.8109-2.7061c-.0079-.0263.0058-.0655.025-.0851q.9366-.9541,1.8729-1.9085c.0193-.0196.0433-.014.0494.0128.2787,1.2088.2719,1.2103.5506,2.4191.0062.0268-.0004.0642-.0168.0863q-.8131,1.0936-1.624,2.1887Z" style="fill:#93b7db;"/></g><g style="opacity:.5;"><path d="M72.2908,90.7802c.0156.0226.0053.0405-.0222.0395-1.4115-.0537-1.4116-.0495-2.8231-.1033-.0275-.001-.0585-.0267-.0709-.0512-.6012-1.1942-.6059-1.1919-1.2071-2.3861-.0124-.0246.0028-.0407.0302-.038,1.2341.126,1.2347.1199,2.4688.2459.0274.0028.062.0265.0776.0492q.7735,1.1219,1.5467,2.244Z" style="fill:#93b7db;"/></g><g style="opacity:.5;"><path d="M76.5348,95.1501c-.0057.0269-.0206.031-.0387.0104q-.9324-1.061-1.866-2.121c-.0182-.0207-.03-.0595-.0207-.0853q.4526-1.2581.9056-2.516c.0093-.0259.0366-.0299.0534-.0081.7579.982.7536.9853,1.5115,1.9673.0168.0218.0323.0611.0266.088-.285,1.3326-.2896,1.3316-.5718,2.6647Z" style="fill:#93b7db;"/></g><g style="opacity:.5;"><path d="M74.8212,84.123c-.0164.0221-.037.0188-.0449-.0076-.4042-1.3534-.3994-1.3548-.8036-2.7082-.0079-.0263-.0026-.0627.0167-.0823q.9366-.9541,1.875-1.9065c.0193-.0196.0363-.0152.0425.0116q.2787,1.2088.5594,2.4171c.0062.0268-.0043.0654-.0208.0874q-.8131,1.0935-1.6243,2.1884Z" style="fill:#93b7db;"/></g><g style="opacity:.5;"><path d="M77.4169,88.3351c.0156.0226.0086.0422-.0189.0411-1.4115-.0537-1.4112-.0592-2.8227-.113-.0275-.001-.0625-.0191-.0749-.0436q-.6012-1.1942-1.2012-2.3891c-.0124-.0246.0011-.0443.0285-.0415q1.2341.126,2.4681.2526c.0274.0028.0657.0221.0812.0447q.7702,1.1242,1.5399,2.2487Z" style="fill:#93b7db;"/></g><g style="opacity:.5;"><path d="M81.6691,92.7036c-.0057.0269-.0286.0329-.0468.0122q-.9324-1.061-1.8605-2.1257c-.0182-.0207-.0316-.0574-.0223-.0833q.4526-1.2581.905-2.5162c.0093-.0259.0346-.0282.0514-.0064q.7579.982,1.5122,1.9668c.0168.0218.0317.0595.026.0864q-.2803,1.3335-.5649,2.6662Z" style="fill:#93b7db;"/></g><g style="opacity:.5;"><path d="M70.0067,69.2065c-.0164.0221-.0334.0209-.0413-.0055q-.4042-1.3534-.806-2.7075c-.0079-.0263-.0024-.0648.0168-.0844.9366-.9541.9414-.9494,1.878-1.9036.0193-.0196.0336-.0162.0398.0106q.2787,1.2088.5593,2.4171c.0062.0268-.0029.065-.0193.0871q-.8161,1.0913-1.6273,2.1863Z" style="fill:#93b7db;"/></g><g style="opacity:.5;"><path d="M72.6114,73.4167c.0156.0226.0027.0438-.0248.0427q-1.4115-.0537-2.8229-.1078c-.0275-.001-.0581-.0239-.0705-.0485q-.6012-1.1942-1.2062-2.3865c-.0124-.0246.0015-.0414.0289-.0386q1.2341.126,2.4679.254c.0274.0028.0657.0177.0813.0404q.776,1.1201,1.5463,2.2443Z" style="fill:#93b7db;"/></g><g style="opacity:.5;"><path d="M76.8513,77.788c-.0057.0269-.0225.0344-.0406.0137q-.9324-1.061-1.8641-2.1226c-.0182-.0207-.0224-.0588-.0131-.0847q.4526-1.2581.9071-2.5154c.0093-.0259.0279-.0316.0447-.0098q.7579.982,1.5181,1.9623c.0168.0218.0233.0644.0176.0913q-.2865,1.3322-.5697,2.6652Z" style="fill:#93b7db;"/></g><g style="opacity:.5;"><path d="M75.1378,66.7601c-.0164.0221-.0312.0187-.0391-.0077-.4042-1.3534-.4106-1.3515-.8148-2.7049-.0079-.0263.0035-.0656.0228-.0852q.9366-.9541,1.8718-1.9096c.0193-.0196.0394-.011.0455.0158q.2787,1.2088.5559,2.4179c.0062.0268.0021.0658-.0143.0878q-.8147,1.0924-1.6278,2.1859Z" style="fill:#93b7db;"/></g><g style="opacity:.5;"><path d="M77.7369,70.9721c.0156.0226.0067.0436-.0208.0426-1.4115-.0537-1.4113-.0579-2.8227-.1116-.0275-.001-.06-.0218-.0724-.0464q-.6012-1.1942-1.2029-2.3882c-.0124-.0246.0003-.0431.0277-.0403q1.2341.126,2.4682.251c.0274.0028.0653.023.0809.0457q.772,1.1229,1.542,2.2472Z" style="fill:#93b7db;"/></g><g style="opacity:.5;"><path d="M81.9889,75.3422c-.0057.0269-.0324.0344-.0505.0137q-.9324-1.061-1.8615-2.1249c-.0182-.0207-.0268-.0594-.0175-.0853q.4526-1.2581.908-2.5151c.0093-.0259.0306-.0306.0474-.0089q.7579.982,1.5154,1.9644c.0168.0218.0263.0624.0206.0893q-.2787,1.3339-.562,2.6668Z" style="fill:#93b7db;"/></g><g style="opacity:.5;"><path d="M59.7766,91.1875c-.0164.0221-.0347.0205-.0426-.0058q-.4042-1.3534-.8066-2.7073c-.0079-.0263.0019-.0621.0212-.0818q.9366-.9541,1.8687-1.9127c.0193-.0196.0435-.011.0497.0158q.2787,1.2088.5585,2.4173c.0062.0268-.0027.0681-.0191.0901q-.8154,1.0918-1.6298,2.1844Z" style="fill:#93b7db;"/></g><g style="opacity:.5;"><path d="M62.3806,95.3972c.0156.0226.0026.0454-.0249.0444-1.4115-.0537-1.4112-.0602-2.8227-.1139-.0275-.001-.0573-.0199-.0696-.0444q-.6012-1.1942-1.2069-2.3862c-.0124-.0246.001-.0395.0284-.0368,1.2341.126,1.2348.1184,2.4689.2444.0274.0028.0591.0296.0747.0522q.7761,1.1201,1.552,2.2403Z" style="fill:#93b7db;"/></g><g style="opacity:.5;"><path d="M66.6211,99.7687c-.0057.0269-.0189.0306-.0371.01q-.9324-1.061-1.8663-2.1206c-.0182-.0207-.0281-.0584-.0188-.0843.4526-1.2581.4576-1.2563.9102-2.5143.0093-.0259.0239-.0278.0407-.006.7579.982.7638.9774,1.5218,1.9594.0168.0218.0188.0625.0131.0894-.2859,1.3324-.2814,1.3333-.5636,2.6665Z" style="fill:#93b7db;"/></g><g style="opacity:.5;"><path d="M64.9096,88.7426c-.0164.0221-.0349.0169-.0427-.0094q-.4042-1.3534-.8075-2.7071c-.0079-.0263-.0051-.0659.0142-.0855.9366-.9541.9423-.9485,1.8789-1.9026.0193-.0196.0344-.0158.0406.011q.2787,1.2088.5564,2.4178c.0062.0268.0025.0666-.0139.0886q-.812,1.0944-1.626,2.1872Z" style="fill:#93b7db;"/></g><g style="opacity:.5;"><path d="M67.5102,92.9497c.0156.0226.0025.0465-.025.0455q-1.4115-.0537-2.8228-.1097c-.0275-.001-.0592-.0242-.0716-.0487q-.6012-1.1942-1.2028-2.3882c-.0124-.0246-.0005-.0424.0269-.0397q1.2341.126,2.4681.2518c.0274.0028.062.0243.0776.0469q.7761,1.1201,1.5495,2.242Z" style="fill:#93b7db;"/></g><g style="opacity:.5;"><path d="M71.7578,97.3227c-.0057.0269-.0321.0344-.0503.0138q-.9324-1.061-1.862-2.1245c-.0182-.0207-.0207-.0578-.0114-.0837.4526-1.2581.4475-1.2599.9001-2.518.0093-.0259.0323-.0294.0491-.0076q.7579.982,1.5142,1.9653c.0168.0218.027.0608.0213.0877q-.2789,1.3338-.5611,2.667Z" style="fill:#93b7db;"/></g><g style="opacity:.5;"><path d="M55.8701,88.409c-.0057.0269-.0291.0307-.0472.0101q-.9324-1.061-1.8684-2.1188c-.0182-.0207-.0264-.0629-.0171-.0888.4526-1.2581.4573-1.2564.91-2.5144.0093-.0259.0338-.0323.0506-.0106q.7579.982,1.5139,1.9655c.0168.0218.0198.062.0141.0889-.278,1.334-.2736,1.335-.5558,2.6681Z" style="fill:#93b7db;"/></g><g style="opacity:.5;"><path d="M54.1469,77.3786c-.0164.0221-.0368.0213-.0447-.005q-.4042-1.3534-.8055-2.7077c-.0079-.0263.0026-.063.0218-.0826q.9366-.9541,1.8754-1.9061c.0193-.0196.0411-.018.0473.0088q.2787,1.2088.5541,2.4183c.0062.0268-.0014.0684-.0178.0905q-.8156,1.0917-1.6306,2.1837Z" style="fill:#93b7db;"/></g><g style="opacity:.5;"><path d="M56.7465,81.5916c.0156.0226.0074.0377-.0201.0367q-1.4115-.0537-2.823-.1053c-.0275-.001-.0588-.0232-.0711-.0477q-.6012-1.1942-1.2058-2.3867c-.0124-.0246.0017-.0411.0291-.0383q1.2341.126,2.4685.2487c.0274.0028.0647.0229.0803.0456q.7715,1.1233,1.5421,2.2471Z" style="fill:#93b7db;"/></g><g style="opacity:.5;"><path d="M60.997,85.961c-.0057.0269-.0269.0318-.045.0111q-.9324-1.061-1.8676-2.1195c-.0182-.0207-.021-.0606-.0117-.0865q.4526-1.2581.9025-2.5171c.0093-.0259.0323-.0293.0491-.0075q.7579.982,1.5187,1.9618c.0168.0218.0228.0642.0171.0911q-.2807,1.3335-.5631,2.6666Z" style="fill:#93b7db;"/></g><g style="opacity:.5;"><path d="M42.0501,46.4074c-.0057.0269-.0195.0307-.0377.0101q-.9324-1.061-1.8639-2.1227c-.0182-.0207-.025-.0546-.0157-.0805q.4526-1.2581.9045-2.5164c.0093-.0259.0256-.0286.0424-.0069q.7579.982,1.5188,1.9618c.0168.0218.0229.0617.0172.0886q-.2855,1.3324-.5655,2.6661Z" style="fill:#93b7db;"/></g><g style="opacity:.5;"><path d="M40.3399,35.3825c-.0164.0221-.0372.0158-.0451-.0105q-.4042-1.3534-.8115-2.7059c-.0079-.0263.0036-.0631.0229-.0828q.9366-.9541,1.874-1.9075c.0193-.0196.0384-.0158.0446.011q.2787,1.2088.5576,2.4175c.0062.0268-.0024.0672-.0189.0893q-.8103,1.0956-1.6237,2.1889Z" style="fill:#93b7db;"/></g><g style="opacity:.5;"><path d="M42.9361,39.5902c.0156.0226.0053.0434-.0222.0423q-1.4115-.0537-2.8228-.1089c-.0275-.001-.0634-.0216-.0757-.0462-.6012-1.1942-.5955-1.1971-1.1967-2.3913-.0124-.0246-.0024-.042.0249-.0392q1.2341.126,2.4678.2551c.0274.0028.0622.0216.0778.0442q.7734,1.1219,1.5469,2.2438Z" style="fill:#93b7db;"/></g><g style="opacity:.5;"><path d="M47.1839,43.9608c-.0057.0269-.0245.0304-.0426.0098q-.9324-1.061-1.8649-2.1219c-.0182-.0207-.0312-.0589-.0219-.0847q.4526-1.2581.9064-2.5157c.0093-.0259.032-.0268.0488-.005q.7579.982,1.5196,1.9612c.0168.0218.0237.063.018.0899q-.2814,1.3333-.5633,2.6665Z" style="fill:#93b7db;"/></g><g style="opacity:.5;"><path d="M55.5788,43.5903c-.0164.0221-.0359.0196-.0438-.0067q-.4042-1.3534-.8059-2.7075c-.0079-.0263.0029-.0603.0221-.08q.9366-.9541,1.8727-1.9087c.0193-.0196.0412-.0173.0474.0095q.2787,1.2088.5572,2.4176c.0062.0268-.0054.068-.0218.0901q-.8142,1.0927-1.6279,2.1858Z" style="fill:#93b7db;"/></g><g style="opacity:.5;"><path d="M58.1802,47.8001c.0156.0226.004.0447-.0235.0436-1.4115-.0537-1.4112-.0601-2.8227-.1138-.0275-.001-.0602-.0187-.0726-.0433q-.6012-1.1942-1.2047-2.3873c-.0124-.0246.0024-.0462.0298-.0434q1.2341.126,2.468.2535c.0274.0028.0604.0261.076.0487q.7747,1.1211,1.5497,2.2419Z" style="fill:#93b7db;"/></g><g style="opacity:.5;"><path d="M62.429,52.172c-.0057.0269-.0299.0328-.048.0121q-.9324-1.061-1.8632-2.1234c-.0182-.0207-.0236-.058-.0143-.0839.4526-1.2581.4473-1.26.8999-2.518.0093-.0259.031-.0256.0478-.0039.7579.982.7646.9768,1.5226,1.9588.0168.0218.0215.0642.0158.0911q-.2792,1.3338-.5606,2.6671Z" style="fill:#93b7db;"/></g><g style="opacity:.5;"><path d="M60.7085,41.1429c-.0164.0221-.0315.0182-.0393-.0082-.4042-1.3534-.4108-1.3514-.8151-2.7048-.0079-.0263.0064-.0627.0257-.0823q.9366-.9541,1.8715-1.9099c.0193-.0196.0377-.0138.0439.0129q.2787,1.2088.5556,2.4179c.0062.0268.0002.0652-.0162.0872q-.8141,1.0928-1.6261,2.1871Z" style="fill:#93b7db;"/></g><g style="opacity:.5;"><path d="M63.3103,45.3522c.0156.0226.0035.0445-.024.0434-1.4115-.0537-1.4112-.0595-2.8227-.1132-.0275-.001-.063-.0174-.0754-.0419q-.6012-1.1942-1.2032-2.388c-.0124-.0246.0036-.046.031-.0432q1.2341.126,2.4679.2543c.0274.0028.0627.0229.0783.0456q.7752,1.1207,1.5481,2.243Z" style="fill:#93b7db;"/></g><g style="opacity:.5;"><path d="M67.5537,49.7235c-.0057.0269-.0261.0347-.0443.014q-.9324-1.061-1.8619-2.1245c-.0182-.0207-.027-.0589-.0177-.0848q.4526-1.2581.9023-2.5172c.0093-.0259.0325-.0259.0493-.0041.7579.982.7623.9786,1.5203,1.9606.0168.0218.0244.0632.0187.0901q-.2839,1.3328-.5667,2.6658Z" style="fill:#93b7db;"/></g><g style="opacity:.5;"><path d="M45.0855,48.9011c-.0164.0221-.033.0171-.0409-.0093q-.4042-1.3534-.8109-2.7061c-.0079-.0263,0-.0637.0193-.0834q.9366-.9541,1.8754-1.9061c.0193-.0196.0383-.0158.0444.011q.2787,1.2088.5601,2.4169c.0062.0268-.0037.0686-.0201.0906q-.8127,1.0939-1.6273,2.1863Z" style="fill:#93b7db;"/></g><g style="opacity:.5;"><path d="M51.9289,57.4805c-.0057.0269-.0239.0331-.042.0125q-.9324-1.061-1.863-2.1235c-.0182-.0207-.0246-.0571-.0153-.083q.4526-1.2581.903-2.5169c.0093-.0259.0327-.0305.0495-.0087q.7579.982,1.5152,1.9645c.0168.0218.0281.0631.0225.09q-.2843,1.3327-.5699,2.6651Z" style="fill:#93b7db;"/></g><g style="opacity:.5;"><path d="M50.2137,46.4526c-.0164.0221-.0389.0202-.0468-.0061q-.4042-1.3534-.8061-2.7075c-.0079-.0263-.0001-.0669.0192-.0866q.9366-.9541,1.875-1.9065c.0193-.0196.0423-.0132.0485.0135.2787,1.2088.2745,1.2097.5532,2.4185.0062.0268-.0008.0652-.0172.0873q-.8139,1.0929-1.6258,2.1874Z" style="fill:#93b7db;"/></g><g style="opacity:.5;"><path d="M52.8136,50.663c.0156.0226.0054.0398-.0221.0388-1.4115-.0537-1.4116-.0495-2.8231-.1032-.0275-.001-.0611-.0247-.0735-.0493q-.6012-1.1942-1.2041-2.3876c-.0124-.0246.0026-.0426.03-.0398q1.2341.126,2.468.2531c.0274.0028.06.0231.0756.0458q.7735,1.1219,1.5492,2.2423Z" style="fill:#93b7db;"/></g><g style="opacity:.5;"><path d="M57.0635,55.0341c-.0057.0269-.0312.034-.0493.0133q-.9324-1.061-1.8606-2.1256c-.0182-.0207-.031-.0592-.0217-.0851.4526-1.2581.4575-1.2563.9101-2.5144.0093-.0259.0273-.0271.0441-.0054.7579.982.7641.9772,1.5221,1.9592.0168.0218.0255.0647.0198.0916q-.2793,1.3338-.5643,2.6663Z" style="fill:#93b7db;"/></g><g style="opacity:.5;"><path d="M47.9989,35.751c.0156.0226.0086.0381-.0189.037q-1.4115-.0537-2.8229-.1068c-.0275-.001-.0623-.0211-.0746-.0457q-.6012-1.1942-1.1993-2.39c-.0124-.0246-.0006-.046.0267-.0432,1.2341.126,1.2334.1325,2.4675.2584.0274.0028.0613.0221.0769.0448q.7703,1.1241,1.5446,2.2454Z" style="fill:#93b7db;"/></g><g style="opacity:.5;"><path d="M52.2473,40.1188c-.0057.0269-.0252.034-.0434.0133q-.9324-1.061-1.8653-2.1215c-.0182-.0207-.0231-.0607-.0138-.0866q.4526-1.2581.9018-2.5174c.0093-.0259.0312-.0258.048-.0041q.7579.982,1.5192,1.9614c.0168.0218.0286.0627.0229.0896q-.284,1.3328-.5695,2.6652Z" style="fill:#93b7db;"/></g><g style="opacity:.5;"><path d="M53.1286,33.3034c.0156.0226.0084.0386-.0191.0375q-1.4115-.0537-2.8229-.1076c-.0275-.001-.0611-.0213-.0735-.0459q-.6012-1.1942-1.2034-2.3879c-.0124-.0246.0019-.0433.0292-.0406q1.2341.126,2.4681.2519c.0274.0028.0658.0213.0814.0439q.7705,1.124,1.54,2.2486Z" style="fill:#93b7db;"/></g><g style="opacity:.5;"><path d="M57.3756,37.6711c-.0057.0269-.0194.0302-.0375.0095q-.9324-1.061-1.8658-2.1211c-.0182-.0207-.0244-.056-.0151-.0819.4526-1.2581.4455-1.2606.8981-2.5187.0093-.0259.0349-.0276.0517-.0059q.7579.982,1.5179,1.9624c.0168.0218.0279.064.0222.0909q-.2852,1.3325-.5715,2.6648Z" style="fill:#93b7db;"/></g><g style="opacity:.5;"><path d="M52.1081,74.8982c-.0057.0269-.0197.0302-.0379.0096q-.9324-1.061-1.8695-2.1179c-.0182-.0207-.0223-.06-.013-.0858q.4526-1.2581.9069-2.5155c.0093-.0259.0313-.033.0481-.0112q.7579.982,1.5159,1.964c.0168.0218.0238.0646.0181.0915q-.2849,1.3326-.5686,2.6654Z" style="fill:#93b7db;"/></g><g style="opacity:.5;"><path d="M50.394,63.8708c-.0164.0221-.0338.0183-.0416-.0081q-.4042-1.3534-.8097-2.7064c-.0079-.0263.0023-.0621.0216-.0817q.9366-.9541,1.8709-1.9106c.0193-.0196.0451-.0142.0513.0126.2787,1.2088.2707,1.2106.5494,2.4194.0062.0268.0021.0666-.0143.0886q-.8136,1.0932-1.6275,2.1861Z" style="fill:#93b7db;"/></g><g style="opacity:.5;"><path d="M52.9899,68.0834c.0156.0226.009.0353-.0184.0343-1.4115-.0537-1.4117-.0467-2.8232-.1005-.0275-.001-.0622-.0249-.0746-.0494q-.6012-1.1942-1.203-2.3881c-.0124-.0246.0024-.0411.0298-.0383q1.2341.126,2.4683.2499c.0274.0028.0594.0251.075.0477q.77,1.1243,1.5461,2.2444Z" style="fill:#93b7db;"/></g><g style="opacity:.5;"><path d="M57.2426,72.4518c-.0057.0269-.0272.0313-.0453.0107q-.9324-1.061-1.8666-2.1204c-.0182-.0207-.026-.0609-.0167-.0867.4526-1.2581.4577-1.2562.9103-2.5143.0093-.0259.0293-.0314.0461-.0097.7579.982.7532.9856,1.5112,1.9676.0168.0218.033.0599.0273.0868q-.2801,1.3336-.5662,2.6659Z" style="fill:#93b7db;"/></g><g style="opacity:.5;"><path d="M55.676,61.1883c-.0164.0221-.0314.0177-.0393-.0087q-.4042-1.3534-.8106-2.7062c-.0079-.0263-.0028-.0654.0164-.085q.9366-.9541,1.8771-1.9044c.0193-.0196.0419-.0164.0481.0104.2787,1.2088.2739,1.2099.5525,2.4187.0062.0268-.0006.0669-.017.0889q-.8137,1.0931-1.6273,2.1863Z" style="fill:#93b7db;"/></g><g style="opacity:.5;"><path d="M58.2727,65.4005c.0156.0226.0083.0363-.0192.0353-1.4115-.0537-1.4117-.0477-2.8231-.1014-.0275-.001-.0628-.0242-.0752-.0487q-.6012-1.1942-1.201-2.3892c-.0124-.0246.0012-.0428.0286-.04q1.2341.126,2.4684.2495c.0274.0028.0641.0245.0797.0471q.7706,1.1239,1.5417,2.2474Z" style="fill:#93b7db;"/></g><g style="opacity:.5;"><path d="M62.527,69.7699c-.0057.0269-.0276.0291-.0457.0085q-.9324-1.061-1.8637-2.123c-.0182-.0207-.0295-.056-.0202-.0819q.4526-1.2581.9059-2.5159c.0093-.0259.0295-.0283.0463-.0065q.7579.982,1.5138,1.9656c.0168.0218.031.0594.0253.0863q-.2778,1.3341-.5617,2.6669Z" style="fill:#93b7db;"/></g><g style="opacity:.5;"><path d="M60.8033,58.7392c-.0164.0221-.0355.0212-.0433-.0052-.4042-1.3534-.3994-1.3548-.8036-2.7082-.0079-.0263-.0014-.063.0179-.0826q.9366-.9541,1.8734-1.9081c.0193-.0196.0368-.0134.043.0134.2787,1.2088.2853,1.2073.5639,2.416.0062.0268-.0075.0664-.0239.0884q-.8158,1.0915-1.6273,2.1862Z" style="fill:#93b7db;"/></g><g style="opacity:.5;"><path d="M63.4024,62.9529c.0156.0226.0081.0386-.0194.0375-1.4115-.0537-1.4116-.0494-2.8231-.1031-.0275-.001-.0569-.0276-.0693-.0521-.6012-1.1942-.6065-1.1915-1.2077-2.3857-.0124-.0246.0021-.0432.0295-.0404q1.2341.126,2.4679.2544c.0274.0028.0615.0217.0771.0443q.7708,1.1238,1.5449,2.2452Z" style="fill:#93b7db;"/></g><g style="opacity:.5;"><path d="M67.6507,67.3211c-.0057.0269-.0219.0306-.0401.0099q-.9324-1.061-1.8682-2.119c-.0182-.0207-.0221-.0593-.0128-.0852q.4526-1.2581.9071-2.5155c.0093-.0259.0248-.029.0416-.0072q.7579.982,1.5192,1.9614c.0168.0218.0217.0619.016.0888q-.2836,1.3329-.5628,2.6666Z" style="fill:#93b7db;"/></g><g style="opacity:.5;"><path d="M66.0298,55.9873c-.0164.0221-.0324.0206-.0403-.0057-.4042-1.3534-.4092-1.3519-.8134-2.7053-.0079-.0263.0058-.065.0251-.0847q.9366-.9541,1.87-1.9114c.0193-.0196.042-.0106.0482.0162.2787,1.2088.2825,1.2079.5611,2.4167.0062.0268-.008.0651-.0244.0872q-.8162,1.0913-1.6263,2.187Z" style="fill:#93b7db;"/></g><g style="opacity:.5;"><path d="M68.6318,60.1994c.0156.0226.0055.0403-.022.0392q-1.4115-.0537-2.823-.1045c-.0275-.001-.059-.0251-.0714-.0497q-.6012-1.1942-1.2017-2.3888c-.0124-.0246-.0016-.0438.0258-.041q1.2341.126,2.4679.2539c.0274.0028.0602.0255.0758.0481q.7733,1.122,1.5485,2.2427Z" style="fill:#93b7db;"/></g><g style="opacity:.5;"><path d="M72.8777,64.5695c-.0057.0269-.0254.0335-.0436.0128q-.9324-1.061-1.8651-2.1217c-.0182-.0207-.0224-.0596-.0131-.0855q.4526-1.2581.906-2.5158c.0093-.0259.0303-.0314.0471-.0097q.7579.982,1.5128,1.9664c.0168.0218.0307.0614.025.0883q-.2834,1.3329-.5691,2.6653Z" style="fill:#93b7db;"/></g><g style="opacity:.5;"><path d="M71.1623,53.542c-.0164.0221-.0398.0198-.0476-.0066q-.4042-1.3534-.8072-2.7072c-.0079-.0263.0039-.0646.0232-.0843q.9366-.9541,1.8715-1.9099c.0193-.0196.0398-.0118.046.015q.2787,1.2088.5569,2.4176c.0062.0268-.0013.0652-.0178.0873q-.8133,1.0934-1.625,2.1879Z" style="fill:#93b7db;"/></g><g style="opacity:.5;"><path d="M73.758,57.7543c.0156.0226.0088.0381-.0186.0371-1.4115-.0537-1.4116-.0499-2.823-.1036-.0275-.001-.0578-.0267-.0702-.0513q-.6012-1.1942-1.2049-2.3872c-.0124-.0246-.0001-.0391.0273-.0363q1.2341.126,2.4683.2503c.0274.0028.0594.024.075.0466q.77,1.1243,1.5462,2.2444Z" style="fill:#93b7db;"/></g><g style="opacity:.5;"><path d="M78.0102,62.1227c-.0057.0269-.0251.03-.0433.0093q-.9324-1.061-1.8674-2.1197c-.0182-.0207-.0247-.0594-.0154-.0852q.4526-1.2581.909-2.5148c.0093-.0259.029-.0321.0458-.0104q.7579.982,1.5146,1.965c.0168.0218.0243.062.0186.0889q-.2805,1.3335-.5618,2.6668Z" style="fill:#93b7db;"/></g></g></svg>