<?xml version="1.0" encoding="UTF-8"?><svg id="a" xmlns="http://www.w3.org/2000/svg" viewBox="0 0 131.1338 272.6718"><path d="M33.1455,32.1134l.0232,2.7983c.024,2.8976,1.7894,5.2305,3.9431,5.2107l2.0383-.0187c1.7718-.0163,3.3296,1.5731,3.8033,3.873,1.3497,6.5527.7074,21.0658.366,41.2693-.4516,26.7216-10.2111,48.7715-11.5262,51.1826-.0716.1312-.136.2617-.1983.4013l-25.2981,46.1646c-.287.4806-1.4486,3.7452-1.5946,4.33-.2662,1.0667-.2724,2.2317-.0014,3.3207,2.956,11.8768,31.2475,76.1636,52.4151,76.8539,30.1768.984,23.6224.9778,26.1413-.6198.2955-.1874.565-.4174.8164-.6979,3.5584-3.9704,37.8474-40.9064,42.5252-78.4241.1458-1.1694-.178-2.3557-.6807-3.3335-8.3221-16.1849-22.434-35.8401-29.0645-50.9798-6.8501-15.641-11.1305-39.6144-11.2015-48.1795-.0553-6.6753-2.9789-30.724-2.6585-41.0136.0837-2.686,1.6632-4.8385,3.6581-4.9911h0c2.313-.1769,4.2583-2.8712,4.3227-5.9873l.0223-1.0756c.0613-2.9637-1.714-5.4175-3.9181-5.4154l-50.0531.0492c-2.1631.0021-3.904,2.3724-3.8799,5.2825Z" style="fill:#ddd7cc; stroke:#ddd7cc; stroke-miterlimit:10; stroke-width:9px;"/><path d="M49.305,24.8108v-6.02h0c-3.3392,0-6.0259-2.3666-5.9542-5.2449l.0992-3.9836c.098-3.9381,3.8405-7.081,8.4092-7.0622l21.9558.0332c4.162.0063,7.5423,2.9002,7.5791,6.4883l.0498,4.8588c.0289,2.8252-2.5613,5.1546-5.8365,5.2487h0v5.7538l-26.3022-.0722Z" style="fill:#ceb53a; stroke:#ceb53a; stroke-miterlimit:10; stroke-width:5px;"/><g style="opacity:.75;"><path d="M45.3679,49.1434l-.0889-.2449c-.0093-.0337-.0522-.0925-.0386-.0918.0197.3339.1561,1.2613.2095,1.6387,1.5637,10.3416,2.264,20.8607,2.1118,31.3205-.596,33.0711-8.8571,69.1969-34.034,92.3397,26.6942-32.6537,31.6137-76.6112,31.6601-117.3763-.0123-1.2897-.0362-4.9912-.0373-6.2617,0,0,.0039-1.0469.0039-1.0469.0039-.175.0049-.3491.0215-.5266.02-.0457-.0244-.0862.0635-.1438.0786.0554.0522.0923.0752.1365,0,0,.0532.2566.0532.2566h0Z" style="fill:#75b23b;"/></g><g style="opacity:.75;"><path d="M81.8665,48.3082c.024-.1071.0322-.2231.0791-.3262-.0117-.0059.0352-.04.063-.0129.0668.2265.0391.4729.0542.7056.0243,1.8519.0385,5.4568.0513,7.3548.4132,30.3413,4.3326,61.4516,17.9701,88.8977,4.9508,9.8757,11.2506,19.0952,18.8956,27.3157-8.793-7.0022-16.0518-15.9819-21.6465-25.8416-15.9224-28.4892-19.6064-62.5717-15.8435-94.6069.0804-.5324.3469-2.5729.4231-3.1272.0259-.2784.1377-.9847-.0464-.3589h0Z" style="fill:#75b23b;"/></g><g style="opacity:.75;"><path d="M35.4592,258.3636c20.175,2.0858,40.2057,4.6644,60.2217-.0002-16.6023,11.3733-42.967,8.8787-60.2217.0002h0Z" style="fill:#75b23b;"/></g><g style="opacity:.75;"><path d="M8.3806,182.8165c1.3555,4.4261.9955,7.5136,0,11.9768-5.591-1.458-5.3219-10.2865,0-11.9768h0Z" style="fill:#75b23b;"/></g><g style="opacity:.75;"><path d="M123.0632,181.918c3.8984,1.3218,5.1898,6.2893,3.1563,9.6228-.6558,1.1184-1.7525,2.0149-3.1563,2.354-.3564-1.4636-.458-2.4373-.6426-3.3684-.4714-3.0823-.2963-5.4221.6426-8.6084h0Z" style="fill:#75b23b;"/></g><path d="M93.3728,160.2261s-19.7524-24.2472-45.4161-.5428c-25.6637,23.7043,45.4161.5428,45.4161.5428Z" style="fill:#75b23b;"/><path d="M113.5101,193.4883c-2.353,11.7404-14.122,39.1196-22.4068,53.0043-1.8649,3.1254-4.7685,7.2688-8.0608,7.9513-13.8355,2.8683-20.1876,1.5898-31.1641.7547-4.0336-.3069-7.6868-4.7788-9.7862-8.6625-4.5254-8.372-23.0246-27.4074-26.9683-53.8418-.4995-3.3484.0782-6.7934,1.6608-9.6851,6.4265-11.742,16.3765-21.4155,23.9926-28.8771,2.0035-1.9629,4.4988-3.2188,7.1503-3.4243,3.306-.2562,6.8893.5623,10.4205,1.5457,5.8875,1.6397,11.9174,2.5457,17.982,2.6587h0c7.3102.1362,14.2987,1.8407,20.0567,6.5814,2.8974,2.3855,5.4833,5.2867,7.6417,8.6356l7.4162,12.058c2.101,3.2598,2.8525,7.374,2.0654,11.301Z" style="fill:#41820b;"/><path d="M67.5839,131.9022c-.0182,1.8229-1.386,3.1464-3.0177,3.1845-1.4573.034-3.0662-1.256-3.1268-2.9485-.0466-1.3012.3828-2.5533.0624-3.7686l-1.4788,2.7416c-.8541,1.5835-2.5987,2.4778-4.1274,1.7182-1.6239-.8069-2.3379-2.6961-1.3792-4.3356l1.7133-2.93c-1.0111.366-1.7059.8841-2.4684,1.4241-1.5852,1.1226-3.4853.9148-4.5495-.6135-1.0191-1.4636-.4875-3.5724,1.1328-4.4516l3.0814-1.672c-1.4876-.0888-2.7425.2373-4.1587.0448-1.5187-.2065-2.5609-1.5607-2.5924-2.9639-.0309-1.3721,1.0249-2.9764,2.5373-2.9883l4.1344-.0327-3.1981-1.7732c-1.4882-.8252-1.7955-2.529-1.138-3.9893.6099-1.3546,2.4746-2.1472,3.8891-1.3696l3.3179,1.8242-1.9781-3.4284c-.9055-1.5693.3643-3.4315,1.9168-3.9046,1.7306-.5275,3.2958.3776,3.9701,2.0844l1.3688,2.3601c.3315-1.2007-.0918-2.2613-.0818-3.3117.0189-1.9883,1.4228-3.3212,3.1624-3.2575,1.8065.0662,2.9954,1.4841,3.0107,3.4273l.023,2.9171,1.9614-3.2942c.7897-1.3262,2.8797-1.3675,4.0209-.5847,1.2553.861,1.8152,2.5721,1.001,3.9505l-1.874,3.1728,3.6206-2.038c1.6283-.5255,3.1728.269,3.8159,1.673.6393,1.3958-.0249,3.1631-1.4886,3.8883-.9329.4622-1.8253.7776-2.7375,1.5684l4.2125.1763c1.4505.0607,2.1897,1.6583,2.2128,2.9536.0227,1.2759-.9028,2.5096-2.3211,2.8722-1.4125.3611-2.7935-.16-4.337.0225l2.7151,1.5363c1.5718.8894,2.3892,2.3261,1.7748,3.9411-.5976,1.5707-2.5227,2.6465-4.0905,1.7315l-3.3813-1.9735,1.6809,2.7475c.9452,1.5451.6622,3.4125-.8426,4.3834-1.3814.8912-3.363.6273-4.2516-.9844l-1.6839-3.0538-.0331,3.324Z" style="fill:#41820b;"/><g style="opacity:.5;"><g style="opacity:.5;"><path d="M47.2452,68.3907c-.0189.02-.0382.0141-.0429-.013l-.4818-2.7836c-.0047-.0271.009-.0633.0305-.0805l2.0862-1.6727c.0215-.0172.0414-.0089.0444.0184l.2667,2.4666c.003.0273-.0101.066-.029.086l-1.8741,1.9788Z" style="fill:#93b7db;"/></g><g style="opacity:.5;"><path d="M49.3262,72.8792c.0128.0243.0011.0407-.0261.0364l-2.7903-.4414c-.0272-.0043-.057-.029-.0664-.0548l-.9108-2.5141c-.0094-.0259.0049-.0421.0318-.0361l2.4209.5428c.0268.006.0593.0309.0721.0552l1.2689,2.412Z" style="fill:#93b7db;"/></g><g style="opacity:.5;"><path d="M53.0255,77.7221c-.0088.026-.0288.0288-.0444.0061l-1.6001-2.3281c-.0156-.0227-.0182-.0613-.0059-.0859l1.1972-2.3911c.0123-.0246.0339-.0254.048-.0018l1.2723,2.1299c.0141.0236.0184.0642.0096.0903l-.8766,2.5806Z" style="fill:#93b7db;"/></g><g style="opacity:.5;"><path d="M52.6287,66.5687c-.0189.02-.0382.0141-.0429-.013l-.4818-2.7836c-.0047-.0271.009-.0633.0305-.0805l2.0862-1.6727c.0215-.0172.0414-.0089.0444.0184l.2667,2.4666c.003.0273-.0101.066-.029.086l-1.8741,1.9788Z" style="fill:#93b7db;"/></g><g style="opacity:.5;"><path d="M54.7097,71.0572c.0128.0243.0011.0407-.0261.0364l-2.7903-.4414c-.0272-.0043-.057-.029-.0664-.0548l-.9108-2.5141c-.0094-.0259.0049-.0421.0318-.0361l2.4209.5428c.0268.006.0593.0309.0721.0552l1.2689,2.412Z" style="fill:#93b7db;"/></g><g style="opacity:.5;"><path d="M58.4091,75.9001c-.0088.026-.0288.0288-.0444.0061l-1.6001-2.3281c-.0156-.0227-.0182-.0613-.0059-.0859l1.1972-2.3911c.0123-.0246.0339-.0254.048-.0018l1.2723,2.1299c.0141.0236.0184.0642.0096.0903l-.8766,2.5806Z" style="fill:#93b7db;"/></g><g style="opacity:.5;"><path d="M55.7401,80.5566c-.0189.02-.0382.0141-.0429-.013l-.4818-2.7836c-.0047-.0271.009-.0633.0305-.0805l2.0862-1.6727c.0215-.0172.0414-.0089.0444.0184l.2667,2.4666c.003.0273-.0101.066-.029.086l-1.8741,1.9788Z" style="fill:#93b7db;"/></g><g style="opacity:.5;"><path d="M57.8211,85.0451c.0128.0243.0011.0407-.0261.0364l-2.7903-.4414c-.0272-.0043-.057-.029-.0664-.0548l-.9108-2.5141c-.0094-.0259.0049-.0421.0318-.0361l2.4209.5428c.0268.006.0593.0309.0721.0552l1.2689,2.412Z" style="fill:#93b7db;"/></g><g style="opacity:.5;"><path d="M61.5204,89.888c-.0088.026-.0288.0288-.0444.0061l-1.6001-2.3281c-.0156-.0227-.0182-.0613-.0059-.0859l1.1972-2.3911c.0123-.0246.0339-.0254.048-.0018l1.2723,2.1299c.0141.0236.0184.0642.0096.0903l-.8766,2.5806Z" style="fill:#93b7db;"/></g><g style="opacity:.5;"><path d="M61.1237,78.7346c-.0189.02-.0382.0141-.0429-.013l-.4818-2.7836c-.0047-.0271.009-.0633.0305-.0805l2.0862-1.6727c.0215-.0172.0414-.0089.0444.0184l.2667,2.4666c.003.0273-.0101.066-.029.086l-1.8741,1.9788Z" style="fill:#93b7db;"/></g><g style="opacity:.5;"><path d="M63.2047,83.2231c.0128.0243.0011.0407-.0261.0364l-2.7903-.4414c-.0272-.0043-.057-.029-.0664-.0548l-.9108-2.5141c-.0094-.0259.0049-.0421.0318-.0361l2.4209.5428c.0268.006.0593.0309.0721.0552l1.2689,2.412Z" style="fill:#93b7db;"/></g><g style="opacity:.5;"><path d="M66.904,88.066c-.0088.026-.0288.0288-.0444.0061l-1.6001-2.3281c-.0156-.0227-.0182-.0613-.0059-.0859l1.1972-2.3911c.0123-.0246.0339-.0254.048-.0018l1.2723,2.1299c.0141.0236.0184.0642.0096.0903l-.8766,2.5806Z" style="fill:#93b7db;"/></g><g style="opacity:.5;"><path d="M58.1145,63.355c-.0189.02-.0382.0141-.0429-.013l-.4818-2.7836c-.0047-.0271.009-.0633.0305-.0805l2.0862-1.6727c.0215-.0172.0414-.0089.0444.0184l.2667,2.4666c.003.0273-.0101.066-.029.086l-1.8741,1.9788Z" style="fill:#93b7db;"/></g><g style="opacity:.5;"><path d="M60.1955,67.8436c.0128.0243.0011.0407-.0261.0364l-2.7903-.4414c-.0272-.0043-.057-.029-.0664-.0548l-.9108-2.5141c-.0094-.0259.0049-.0421.0318-.0361l2.4209.5428c.0268.006.0593.0309.0721.0552l1.2689,2.412Z" style="fill:#93b7db;"/></g><g style="opacity:.5;"><path d="M63.8948,72.6864c-.0088.026-.0288.0288-.0444.0061l-1.6001-2.3281c-.0156-.0227-.0182-.0613-.0059-.0859l1.1972-2.3911c.0123-.0246.0339-.0254.048-.0018l1.2723,2.1299c.0141.0236.0184.0642.0096.0903l-.8766,2.5806Z" style="fill:#93b7db;"/></g><g style="opacity:.5;"><path d="M63.4981,61.533c-.0189.02-.0382.0141-.0429-.013l-.4818-2.7836c-.0047-.0271.009-.0633.0305-.0805l2.0862-1.6727c.0215-.0172.0414-.0089.0444.0184l.2667,2.4666c.003.0273-.0101.066-.029.086l-1.8741,1.9788Z" style="fill:#93b7db;"/></g><g style="opacity:.5;"><path d="M65.5791,66.0216c.0128.0243.0011.0407-.0261.0364l-2.7903-.4414c-.0272-.0043-.057-.029-.0664-.0548l-.9108-2.5141c-.0094-.0259.0049-.0421.0318-.0361l2.4209.5428c.0268.006.0593.0309.0721.0552l1.2689,2.412Z" style="fill:#93b7db;"/></g><g style="opacity:.5;"><path d="M69.2784,70.8644c-.0088.026-.0288.0288-.0444.0061l-1.6001-2.3281c-.0156-.0227-.0182-.0613-.0059-.0859l1.1972-2.3911c.0123-.0246.0339-.0254.048-.0018l1.2723,2.1299c.0141.0236.0184.0642.0096.0903l-.8766,2.5806Z" style="fill:#93b7db;"/></g><g style="opacity:.5;"><path d="M45.3496,83.9675c-.0189.02-.0382.0141-.0429-.013l-.4818-2.7836c-.0047-.0271.009-.0633.0305-.0805l2.0862-1.6727c.0215-.0172.0414-.0089.0444.0184l.2667,2.4666c.003.0273-.0101.066-.029.086l-1.8741,1.9788Z" style="fill:#93b7db;"/></g><g style="opacity:.5;"><path d="M47.4306,88.456c.0128.0243.0011.0407-.0261.0364l-2.7903-.4414c-.0272-.0043-.057-.029-.0664-.0548l-.9108-2.5141c-.0094-.0259.0049-.0421.0318-.0361l2.4209.5428c.0268.006.0593.0309.0721.0552l1.2689,2.412Z" style="fill:#93b7db;"/></g><g style="opacity:.5;"><path d="M51.1299,93.2989c-.0088.026-.0288.0288-.0444.0061l-1.6001-2.3281c-.0156-.0227-.0182-.0613-.0059-.0859l1.1972-2.3911c.0123-.0246.0339-.0254.048-.0018l1.2723,2.1299c.0141.0236.0184.0642.0096.0903l-.8766,2.5806Z" style="fill:#93b7db;"/></g><g style="opacity:.5;"><path d="M50.7332,82.1455c-.0189.02-.0382.0141-.0429-.013l-.4818-2.7836c-.0047-.0271.009-.0633.0305-.0805l2.0862-1.6727c.0215-.0172.0414-.0089.0444.0184l.2667,2.4666c.003.0273-.0101.066-.029.086l-1.8741,1.9788Z" style="fill:#93b7db;"/></g><g style="opacity:.5;"><path d="M52.8142,86.634c.0128.0243.0011.0407-.0261.0364l-2.7903-.4414c-.0272-.0043-.057-.029-.0664-.0548l-.9108-2.5141c-.0094-.0259.0049-.0421.0318-.0361l2.4209.5428c.0268.006.0593.0309.0721.0552l1.2689,2.412Z" style="fill:#93b7db;"/></g><g style="opacity:.5;"><path d="M56.5135,91.4769c-.0088.026-.0288.0288-.0444.0061l-1.6001-2.3281c-.0156-.0227-.0182-.0613-.0059-.0859l1.1972-2.3911c.0123-.0246.0339-.0254.048-.0018l1.2723,2.1299c.0141.0236.0184.0642.0096.0903l-.8766,2.5806Z" style="fill:#93b7db;"/></g><g style="opacity:.5;"><path d="M41.7939,80.742c-.0088.026-.0288.0288-.0444.0061l-1.6001-2.3281c-.0156-.0227-.0182-.0613-.0059-.0859l1.1972-2.3911c.0123-.0246.0339-.0254.048-.0018l1.2723,2.1299c.0141.0236.0184.0642.0096.0903l-.8766,2.5806Z" style="fill:#93b7db;"/></g><g style="opacity:.5;"><path d="M41.3971,69.5886c-.0189.02-.0382.0141-.0429-.013l-.4818-2.7836c-.0047-.0271.009-.0633.0305-.0805l2.0862-1.6727c.0215-.0172.0414-.0089.0444.0184l.2667,2.4666c.003.0273-.0101.066-.029.086l-1.8741,1.9788Z" style="fill:#93b7db;"/></g><g style="opacity:.5;"><path d="M43.4781,74.0772c.0128.0243.0011.0407-.0261.0364l-2.7903-.4414c-.0272-.0043-.057-.029-.0664-.0548l-.9108-2.5141c-.0094-.0259.0049-.0421.0318-.0361l2.4209.5428c.0268.006.0593.0309.0721.0552l1.2689,2.412Z" style="fill:#93b7db;"/></g><g style="opacity:.5;"><path d="M47.1775,78.92c-.0088.026-.0288.0288-.0444.0061l-1.6001-2.3281c-.0156-.0227-.0182-.0613-.0059-.0859l1.1972-2.3911c.0123-.0246.0339-.0254.048-.0018l1.2723,2.1299c.0141.0236.0184.0642.0096.0903l-.8766,2.5806Z" style="fill:#93b7db;"/></g><g style="opacity:.5;"><path d="M33.0588,37.4005c-.0088.026-.0288.0288-.0444.0061l-1.6001-2.3281c-.0156-.0227-.0182-.0613-.0059-.0859l1.1972-2.3911c.0123-.0246.0339-.0254.048-.0018l1.2723,2.1299c.0141.0236.0184.0642.0096.0903l-.8766,2.5806Z" style="fill:#93b7db;"/></g><g style="opacity:.5;"><path d="M32.662,26.2471c-.0189.02-.0382.0141-.0429-.013l-.4818-2.7836c-.0047-.0271.009-.0633.0305-.0805l2.0862-1.6727c.0215-.0172.0414-.0089.0444.0184l.2667,2.4666c.003.0273-.0101.066-.029.086l-1.8741,1.9788Z" style="fill:#93b7db;"/></g><g style="opacity:.5;"><path d="M34.743,30.7357c.0128.0243.0011.0407-.0261.0364l-2.7903-.4414c-.0272-.0043-.057-.029-.0664-.0548l-.9108-2.5141c-.0094-.0259.0049-.0421.0318-.0361l2.4209.5428c.0268.006.0593.0309.0721.0552l1.2689,2.412Z" style="fill:#93b7db;"/></g><g style="opacity:.5;"><path d="M38.4424,35.5785c-.0088.026-.0288.0288-.0444.0061l-1.6001-2.3281c-.0156-.0227-.0182-.0613-.0059-.0859l1.1972-2.3911c.0123-.0246.0339-.0254.048-.0018l1.2723,2.1299c.0141.0236.0184.0642.0096.0903l-.8766,2.5806Z" style="fill:#93b7db;"/></g><g style="opacity:.5;"><path d="M46.8239,36.2072c-.0189.02-.0382.0141-.0429-.013l-.4818-2.7836c-.0047-.0271.009-.0633.0305-.0805l2.0862-1.6727c.0215-.0172.0414-.0089.0444.0184l.2667,2.4666c.003.0273-.0101.066-.029.086l-1.8741,1.9788Z" style="fill:#93b7db;"/></g><g style="opacity:.5;"><path d="M48.9049,40.6958c.0128.0243.0011.0407-.0261.0364l-2.7903-.4414c-.0272-.0043-.057-.029-.0664-.0548l-.9108-2.5141c-.0094-.0259.0049-.0421.0318-.0361l2.4209.5428c.0268.006.0593.0309.0721.0552l1.2689,2.412Z" style="fill:#93b7db;"/></g><g style="opacity:.5;"><path d="M52.6042,45.5386c-.0088.026-.0288.0288-.0444.0061l-1.6001-2.3281c-.0156-.0227-.0182-.0613-.0059-.0859l1.1972-2.3911c.0123-.0246.0339-.0254.048-.0018l1.2723,2.1299c.0141.0236.0184.0642.0096.0903l-.8766,2.5806Z" style="fill:#93b7db;"/></g><g style="opacity:.5;"><path d="M52.2074,34.3852c-.0189.02-.0382.0141-.0429-.013l-.4818-2.7836c-.0047-.0271.009-.0633.0305-.0805l2.0862-1.6727c.0215-.0172.0414-.0089.0444.0184l.2667,2.4666c.003.0273-.0101.066-.029.086l-1.8741,1.9788Z" style="fill:#93b7db;"/></g><g style="opacity:.5;"><path d="M54.2884,38.8738c.0128.0243.0011.0407-.0261.0364l-2.7903-.4414c-.0272-.0043-.057-.029-.0664-.0548l-.9108-2.5141c-.0094-.0259.0049-.0421.0318-.0361l2.4209.5428c.0268.006.0593.0309.0721.0552l1.2689,2.412Z" style="fill:#93b7db;"/></g><g style="opacity:.5;"><path d="M57.9878,43.7166c-.0088.026-.0288.0288-.0444.0061l-1.6001-2.3281c-.0156-.0227-.0182-.0613-.0059-.0859l1.1972-2.3911c.0123-.0246.0339-.0254.048-.0018l1.2723,2.1299c.0141.0236.0184.0642.0096.0903l-.8766,2.5806Z" style="fill:#93b7db;"/></g><g style="opacity:.5;"><path d="M35.7734,40.235c-.0189.02-.0382.0141-.0429-.013l-.4818-2.7836c-.0047-.0271.009-.0633.0305-.0805l2.0862-1.6727c.0215-.0172.0414-.0089.0444.0184l.2667,2.4666c.003.0273-.0101.066-.029.086l-1.8741,1.9788Z" style="fill:#93b7db;"/></g><g style="opacity:.5;"><path d="M41.5538,49.5664c-.0088.026-.0288.0288-.0444.0061l-1.6001-2.3281c-.0156-.0227-.0182-.0613-.0059-.0859l1.1972-2.3911c.0123-.0246.0339-.0254.048-.0018l1.2723,2.1299c.0141.0236.0184.0642.0096.0903l-.8766,2.5806Z" style="fill:#93b7db;"/></g><g style="opacity:.5;"><path d="M41.157,38.413c-.0189.02-.0382.0141-.0429-.013l-.4818-2.7836c-.0047-.0271.009-.0633.0305-.0805l2.0862-1.6727c.0215-.0172.0414-.0089.0444.0184l.2667,2.4666c.003.0273-.0101.066-.029.086l-1.8741,1.9788Z" style="fill:#93b7db;"/></g><g style="opacity:.5;"><path d="M43.238,42.9016c.0128.0243.0011.0407-.0261.0364l-2.7903-.4414c-.0272-.0043-.057-.029-.0664-.0548l-.9108-2.5141c-.0094-.0259.0049-.0421.0318-.0361l2.4209.5428c.0268.006.0593.0309.0721.0552l1.2689,2.412Z" style="fill:#93b7db;"/></g><g style="opacity:.5;"><path d="M46.9373,47.7444c-.0088.026-.0288.0288-.0444.0061l-1.6001-2.3281c-.0156-.0227-.0182-.0613-.0059-.0859l1.1972-2.3911c.0123-.0246.0339-.0254.048-.0018l1.2723,2.1299c.0141.0236.0184.0642.0096.0903l-.8766,2.5806Z" style="fill:#93b7db;"/></g><g style="opacity:.5;"><path d="M40.2288,27.522c.0128.0243.0011.0407-.0261.0364l-2.7903-.4414c-.0272-.0043-.057-.029-.0664-.0548l-.9108-2.5141c-.0094-.0259.0049-.0421.0318-.0361l2.4209.5428c.0268.006.0593.0309.0721.0552l1.2689,2.412Z" style="fill:#93b7db;"/></g><g style="opacity:.5;"><path d="M43.9282,32.3649c-.0088.026-.0288.0288-.0444.0061l-1.6001-2.3281c-.0156-.0227-.0182-.0613-.0059-.0859l1.1972-2.3911c.0123-.0246.0339-.0254.048-.0018l1.2723,2.1299c.0141.0236.0184.0642.0096.0903l-.8766,2.5806Z" style="fill:#93b7db;"/></g><g style="opacity:.5;"><path d="M45.6124,25.7c.0128.0243.0011.0407-.0261.0364l-2.7903-.4414c-.0272-.0043-.057-.029-.0664-.0548l-.9108-2.5141c-.0094-.0259.0049-.0421.0318-.0361l2.4209.5428c.0268.006.0593.0309.0721.0552l1.2689,2.412Z" style="fill:#93b7db;"/></g><g style="opacity:.5;"><path d="M49.3117,30.5429c-.0088.026-.0288.0288-.0444.0061l-1.6001-2.3281c-.0156-.0227-.0182-.0613-.0059-.0859l1.1972-2.3911c.0123-.0246.0339-.0254.048-.0018l1.2723,2.1299c.0141.0236.0184.0642.0096.0903l-.8766,2.5806Z" style="fill:#93b7db;"/></g><g style="opacity:.5;"><path d="M39.6672,66.8827c-.0088.026-.0288.0288-.0444.0061l-1.6001-2.3281c-.0156-.0227-.0182-.0613-.0059-.0859l1.1972-2.3911c.0123-.0246.0339-.0254.048-.0018l1.2723,2.1299c.0141.0236.0184.0642.0096.0903l-.8766,2.5806Z" style="fill:#93b7db;"/></g><g style="opacity:.5;"><path d="M39.2704,55.7293c-.0189.02-.0382.0141-.0429-.013l-.4818-2.7836c-.0047-.0271.009-.0633.0305-.0805l2.0862-1.6727c.0215-.0172.0414-.0089.0444.0184l.2667,2.4666c.003.0273-.0101.066-.029.086l-1.8741,1.9788Z" style="fill:#93b7db;"/></g><g style="opacity:.5;"><path d="M41.3514,60.2179c.0128.0243.0011.0407-.0261.0364l-2.7903-.4414c-.0272-.0043-.057-.029-.0664-.0548l-.9108-2.5141c-.0094-.0259.0049-.0421.0318-.0361l2.4209.5428c.0268.006.0593.0309.0721.0552l1.2689,2.412Z" style="fill:#93b7db;"/></g><g style="opacity:.5;"><path d="M45.0507,65.0607c-.0088.026-.0288.0288-.0444.0061l-1.6001-2.3281c-.0156-.0227-.0182-.0613-.0059-.0859l1.1972-2.3911c.0123-.0246.0339-.0254.048-.0018l1.2723,2.1299c.0141.0236.0184.0642.0096.0903l-.8766,2.5806Z" style="fill:#93b7db;"/></g><g style="opacity:.5;"><path d="M44.8333,53.6921c-.0189.02-.0382.0141-.0429-.013l-.4818-2.7836c-.0047-.0271.009-.0633.0305-.0805l2.0862-1.6727c.0215-.0172.0414-.0089.0444.0184l.2667,2.4666c.003.0273-.0101.066-.029.086l-1.8741,1.9788Z" style="fill:#93b7db;"/></g><g style="opacity:.5;"><path d="M46.9143,58.1807c.0128.0243.0011.0407-.0261.0364l-2.7903-.4414c-.0272-.0043-.057-.029-.0664-.0548l-.9108-2.5141c-.0094-.0259.0049-.0421.0318-.0361l2.4209.5428c.0268.006.0593.0309.0721.0552l1.2689,2.412Z" style="fill:#93b7db;"/></g><g style="opacity:.5;"><path d="M50.6136,63.0235c-.0088.026-.0288.0288-.0444.0061l-1.6001-2.3281c-.0156-.0227-.0182-.0613-.0059-.0859l1.1972-2.3911c.0123-.0246.0339-.0254.048-.0018l1.2723,2.1299c.0141.0236.0184.0642.0096.0903l-.8766,2.5806Z" style="fill:#93b7db;"/></g><g style="opacity:.5;"><path d="M50.2168,51.8701c-.0189.02-.0382.0141-.0429-.013l-.4818-2.7836c-.0047-.0271.009-.0633.0305-.0805l2.0862-1.6727c.0215-.0172.0414-.0089.0444.0184l.2667,2.4666c.003.0273-.0101.066-.029.086l-1.8741,1.9788Z" style="fill:#93b7db;"/></g><g style="opacity:.5;"><path d="M52.2978,56.3587c.0128.0243.0011.0407-.0261.0364l-2.7903-.4414c-.0272-.0043-.057-.029-.0664-.0548l-.9108-2.5141c-.0094-.0259.0049-.0421.0318-.0361l2.4209.5428c.0268.006.0593.0309.0721.0552l1.2689,2.412Z" style="fill:#93b7db;"/></g><g style="opacity:.5;"><path d="M55.9972,61.2015c-.0088.026-.0288.0288-.0444.0061l-1.6001-2.3281c-.0156-.0227-.0182-.0613-.0059-.0859l1.1972-2.3911c.0123-.0246.0339-.0254.048-.0018l1.2723,2.1299c.0141.0236.0184.0642.0096.0903l-.8766,2.5806Z" style="fill:#93b7db;"/></g><g style="opacity:.5;"><path d="M55.7331,49.7576c-.0189.02-.0382.0141-.0429-.013l-.4818-2.7836c-.0047-.0271.009-.0633.0305-.0805l2.0862-1.6727c.0215-.0172.0414-.0089.0444.0184l.2667,2.4666c.003.0273-.0101.066-.029.086l-1.8741,1.9788Z" style="fill:#93b7db;"/></g><g style="opacity:.5;"><path d="M57.8141,54.2462c.0128.0243.0011.0407-.0261.0364l-2.7903-.4414c-.0272-.0043-.057-.029-.0664-.0548l-.9108-2.5141c-.0094-.0259.0049-.0421.0318-.0361l2.4209.5428c.0268.006.0593.0309.0721.0552l1.2689,2.412Z" style="fill:#93b7db;"/></g><g style="opacity:.5;"><path d="M61.5134,59.089c-.0088.026-.0288.0288-.0444.0061l-1.6001-2.3281c-.0156-.0227-.0182-.0613-.0059-.0859l1.1972-2.3911c.0123-.0246.0339-.0254.048-.0018l1.2723,2.1299c.0141.0236.0184.0642.0096.0903l-.8766,2.5806Z" style="fill:#93b7db;"/></g><g style="opacity:.5;"><path d="M61.1166,47.9356c-.0189.02-.0382.0141-.0429-.013l-.4818-2.7836c-.0047-.0271.009-.0633.0305-.0805l2.0862-1.6727c.0215-.0172.0414-.0089.0444.0184l.2667,2.4666c.003.0273-.0101.066-.029.086l-1.8741,1.9788Z" style="fill:#93b7db;"/></g><g style="opacity:.5;"><path d="M63.1976,52.4242c.0128.0243.0011.0407-.0261.0364l-2.7903-.4414c-.0272-.0043-.057-.029-.0664-.0548l-.9108-2.5141c-.0094-.0259.0049-.0421.0318-.0361l2.4209.5428c.0268.006.0593.0309.0721.0552l1.2689,2.412Z" style="fill:#93b7db;"/></g><g style="opacity:.5;"><path d="M66.897,57.267c-.0088.026-.0288.0288-.0444.0061l-1.6001-2.3281c-.0156-.0227-.0182-.0613-.0059-.0859l1.1972-2.3911c.0123-.0246.0339-.0254.048-.0018l1.2723,2.1299c.0141.0236.0184.0642.0096.0903l-.8766,2.5806Z" style="fill:#93b7db;"/></g></g></svg>