<?xml version="1.0" encoding="UTF-8"?><svg id="a" xmlns="http://www.w3.org/2000/svg" viewBox="0 0 176.1613 376.51684"><path d="M43.7063,43.68859l.03176,3.8921c.03288,4.0302,2.44912,7.27501,5.39682,7.2475l2.78976-.02604c2.42506-.02264,4.55709,2.18806,5.20545,5.38689,1.84729,9.11401,5.07428,29.29994,4.60695,57.40058-.6181,37.16646-13.9757,67.83514-15.77558,71.18876-.09796.18252-.18618.36401-.27136.55818L6.95921,253.54587c-.39279.66843-1.9827,5.20908-2.18249,6.02257-.36437,1.48359-.37288,3.10401-.00193,4.61863,4.04578,16.51918,29.08094,105.93423,58.05234,106.8943,41.30221,1.36869,59.70484,1.35996,63.15235-.86208.40451-.26072.77334-.58052,1.11741-.97065,4.87029-5.52237,38.11405-56.89571,44.51634-109.07829.19955-1.62646-.24357-3.27653-.93171-4.63653-11.39028-22.51126-34.81088-49.84915-43.88588-70.90657-9.37549-21.75468-15.23404-55.0988-15.33124-67.01182-.07575-9.28459.02883-42.73327.46744-57.04484.1145-3.73593,2.27636-6.72979,5.00675-6.94205h0c3.16577-.24611,5.82815-3.9935,5.9164-8.32754l.03046-1.49598c.08393-4.1222-2.34592-7.5351-5.36254-7.53209l-68.50633.06837c-2.96056.00295-5.34331,3.29972-5.31029,7.34731Z" style="fill:#ddd7cc; stroke:#ddd7cc; stroke-miterlimit:10; stroke-width:9px;"/><path d="M65.82341,33.53152v-8.37314h0c-4.5703,0-8.24749-3.29166-8.14941-7.29501l.13575-5.54067c.1342-5.47741,5.25632-9.84885,11.50938-9.82258l30.0503.04623c5.69638.00876,10.32298,4.03378,10.37326,9.02447l.0681,6.75798c.0396,3.92955-3.50559,7.16942-7.98829,7.30033h0v8.00283l-35.99907-.10044Z" style="fill:#ceb53a; stroke:#ceb53a; stroke-miterlimit:10; stroke-width:5px;"/><path d="M60.54467,67.07049c9.67287,32.0609,9.52394,69.21483,1.02532,101.52829-7.28094,27.42547-21.56223,53.20328-42.07942,72.91254,4.70766-6.20011,9.44106-12.3173,13.45033-18.9213,29.27962-45.62626,36.08856-102.69526,27.60376-155.51953h0Z" style="fill:#e3e4e3;"/><path d="M112.46435,65.28094c-5.46289,30.50176-5.07186,62.22945,1.87721,92.44141,6.9072,30.36755,21.68452,58.23377,42.01583,81.88317-5.75632-5.30456-11.2866-10.93786-16.17918-17.12048-4.69255-5.69975-8.85572-11.94566-12.66962-18.22562-16.3307-27.78811-23.62031-60.42344-22.6245-92.52123.54728-15.71742,2.66677-31.49411,7.58026-46.45725h0Z" style="fill:#e3e4e3;"/><path d="M46.87328,358.37469c23.91516,3.70181,48.25337,6.96794,72.23633,2.48203,3.40601-.64365,6.76099-1.5416,10.18701-2.48203-23.04231,14.60066-58.5041,10.99507-82.42334,0h0Z" style="fill:#e3e4e3;"/><path d="M12.54858,253.29803c.57656,4.23626.2775,8.07649.17996,12.17431-.09696,1.33204-.01346,2.67091-.17996,4.4839-1.60327-.70117-2.88379-1.96875-3.62305-3.48584-2.273-4.45752-.91351-10.67624,3.62305-13.17236h0Z" style="fill:#e3e4e3;"/><path d="M162.66845,252.04852c4.53643,2.49559,5.89627,8.71522,3.62289,13.17232-.7391,1.51713-2.01962,2.78471-3.62289,3.48588-.1665-1.81299-.08301-3.15186-.17993-4.48389-.0969-4.1046-.39668-7.93071.17993-12.17432h0Z" style="fill:#e3e4e3;"/><path d="M49.51789,221.87756s27.03456-33.72485,62.15976-.75503c35.1252,32.96981-62.15976.75503-62.15976.75503Z" style="fill:#fec56a;"/><path d="M20.5879,270.92303c3.22046,16.32946,11.11643,51.62876,22.45561,70.94072,2.55237,4.34699,6.5265,10.10999,11.03264,11.05934,18.93626,3.9895,50.89772,2.21125,65.92092,1.04963,5.52068-.42687,10.52076-6.64669,13.39404-12.04847,6.19383-11.64439,16.45776-35.33858,21.8554-72.10551.68371-4.65721-.10697-9.44878-2.27312-13.47083-8.79572-16.33162-21.04544-32.56806-31.46941-42.94624-2.74219-2.73014-6.15742-4.47694-9.78636-4.76278-4.52477-.35639-9.42924.78206-14.26223,2.14988-8.05806,2.28057-16.31099,3.5408-24.61155,3.69796h-.00003c-10.0053.18943-19.57026,3.95107-27.45105,10.54485-3.96562,3.318-7.50479,7.35313-10.45903,12.01109l-11.51897,18.16203c-2.87563,4.53403-3.90407,10.25631-2.82687,15.71832Z" style="fill:#fe9e07;"/><path d="M98.70097,165.39397c.02608,1.76117-1.00714,2.9961-2.61077,3.00603-3.31876.02056-6.30916-2.00515-9.0712-4.1948-3.23744,2.19237-7.1995,5.27962-10.80305,3.83584-2.8842-2.69253.62163-8.96551,2.95759-12.23299-1.82747-2.469-3.24956-5.11427-3.91228-8.1293-.24891-1.13243-.19831-2.31928.38015-3.30987.86349-1.19453,2.20158-1.31465,3.542-1.02616,2.84567.61247,5.32086,2.22633,7.74476,4.14603,2.83544-2.15741,6.51896-4.73649,9.88286-4.19736,1.13725.28272,1.75604,1.14884,1.87226,2.35324.33902,3.51339-2.07426,7.23127-3.93865,10.25578,1.92831,2.69943,3.90776,6.21358,3.95633,9.49356Z" style="fill:#fe9e07;"/><g style="opacity:.5;"><g style="opacity:.5;"><path d="M79.17035,149.82663c.02595-.00909.04043.00494.03218.03117l-.9034,2.86966c-.00826.02623-.0371.05198-.0641.05723l-2.63121.51108c-.027.00524-.04104-.01148-.03121-.03716l.94189-2.46159c.00983-.02568.0391-.05413.06506-.06322l2.59079-.90716Z" style="fill:#93b7db;"/></g><g style="opacity:.5;"><path d="M79.47698,144.54141c.00031-.0275.01797-.03575.03925-.01833l2.24564,1.83774c.02128.01742.03557.05395.03176.08118l-.39695,2.83544c-.00381.02723-.02339.03418-.04351.01543l-1.87274-1.74544c-.02012-.01875-.03633-.05659-.03602-.08409l.03256-2.92194Z" style="fill:#93b7db;"/></g><g style="opacity:.5;"><path d="M78.53053,138.10453c.01954-.01935.03775-.0128.04047.01456l.29946,3.01158c.00272.02737-.01307.06323-.03509.07971l-2.193,1.64088c-.02202.01648-.04092.00747-.04201-.02001l-.10516-2.65831c-.00109-.02748.01401-.0658.03354-.08515l2.00179-1.98327Z" style="fill:#93b7db;"/></g><g style="opacity:.5;"><path d="M73.56863,148.79894c.02595-.00909.04043.00494.03218.03117l-.9034,2.86966c-.00826.02623-.0371.05198-.0641.05723l-2.63121.51108c-.027.00524-.04104-.01148-.03121-.03716l.94189-2.46159c.00983-.02568.0391-.05413.06506-.06322l2.59079-.90716Z" style="fill:#93b7db;"/></g><g style="opacity:.5;"><path d="M73.87526,143.51373c.00031-.0275.01797-.03575.03925-.01833l2.24564,1.83774c.02128.01742.03557.05395.03176.08118l-.39695,2.83544c-.00381.02723-.02339.03418-.04351.01543l-1.87274-1.74544c-.02012-.01875-.03633-.05659-.03602-.08409l.03256-2.92194Z" style="fill:#93b7db;"/></g><g style="opacity:.5;"><path d="M72.92881,137.07684c.01954-.01935.03775-.0128.04047.01456l.29946,3.01158c.00272.02737-.01307.06323-.03509.07971l-2.193,1.64088c-.02202.01648-.04092.00747-.04201-.02001l-.10516-2.65831c-.00109-.02748.01401-.0658.03354-.08515l2.00179-1.98327Z" style="fill:#93b7db;"/></g><g style="opacity:.5;"><path d="M65.85664,132.21824c.02595-.00909.04043.00494.03218.03117l-.9034,2.86966c-.00826.02623-.0371.05198-.0641.05723l-2.63121.51108c-.027.00524-.04104-.01148-.03121-.03716l.94189-2.46159c.00983-.02568.0391-.05413.06506-.06322l2.59079-.90716Z" style="fill:#93b7db;"/></g><g style="opacity:.5;"><path d="M66.16327,126.93302c.00031-.0275.01797-.03575.03925-.01833l2.24564,1.83774c.02128.01742.03557.05395.03176.08118l-.39695,2.83544c-.00381.02723-.02339.03418-.04351.01543l-1.87274-1.74544c-.02012-.01875-.03633-.05659-.03602-.08409l.03256-2.92194Z" style="fill:#93b7db;"/></g><g style="opacity:.5;"><path d="M65.21682,120.49614c.01954-.01935.03775-.0128.04047.01456l.29946,3.01158c.00272.02737-.01307.06323-.03509.07971l-2.193,1.64088c-.02202.01648-.04092.00747-.04201-.02001l-.10516-2.65831c-.00109-.02748.01401-.0658.03354-.08515l2.00179-1.98327Z" style="fill:#93b7db;"/></g><g style="opacity:.5;"><path d="M60.25492,131.19055c.02595-.00909.04043.00494.03218.03117l-.9034,2.86966c-.00826.02623-.0371.05198-.0641.05723l-2.63121.51108c-.027.00524-.04104-.01148-.03121-.03716l.94189-2.46159c.00983-.02568.0391-.05413.06506-.06322l2.59079-.90716Z" style="fill:#93b7db;"/></g><g style="opacity:.5;"><path d="M60.56155,125.90534c.00031-.0275.01797-.03575.03925-.01833l2.24564,1.83774c.02128.01742.03557.05395.03176.08118l-.39695,2.83544c-.00381.02723-.02339.03418-.04351.01543l-1.87274-1.74544c-.02012-.01875-.03633-.05659-.03602-.08409l.03256-2.92194Z" style="fill:#93b7db;"/></g><g style="opacity:.5;"><path d="M59.6151,119.46845c.01954-.01935.03775-.0128.04047.01456l.29946,3.01158c.00272.02737-.01307.06323-.03509.07971l-2.193,1.64088c-.02202.01648-.04092.00747-.04201-.02001l-.10516-2.65831c-.00109-.02748.01401-.0658.03354-.08515l2.00179-1.98327Z" style="fill:#93b7db;"/></g><g style="opacity:.5;"><path d="M77.49196,134.05691c.02595-.00909.04043.00494.03218.03117l-.9034,2.86966c-.00826.02623-.0371.05198-.0641.05723l-2.63121.51108c-.027.00524-.04104-.01148-.03121-.03716l.94189-2.46159c.00983-.02568.0391-.05413.06506-.06322l2.59079-.90716Z" style="fill:#93b7db;"/></g><g style="opacity:.5;"><path d="M77.79859,128.7717c.00031-.0275.01797-.03575.03925-.01833l2.24564,1.83774c.02128.01742.03557.05395.03176.08118l-.39695,2.83544c-.00381.02723-.02339.03418-.04351.01543l-1.87274-1.74544c-.02012-.01875-.03633-.05659-.03602-.08409l.03256-2.92194Z" style="fill:#93b7db;"/></g><g style="opacity:.5;"><path d="M76.85215,122.33482c.01954-.01935.03775-.0128.04047.01456l.29946,3.01158c.00272.02737-.01307.06323-.03509.07971l-2.193,1.64088c-.02202.01648-.04092.00747-.04201-.02001l-.10516-2.65831c-.00109-.02748.01401-.0658.03354-.08515l2.00179-1.98327Z" style="fill:#93b7db;"/></g><g style="opacity:.5;"><path d="M71.89024,133.02923c.02595-.00909.04043.00494.03218.03117l-.9034,2.86966c-.00826.02623-.0371.05198-.0641.05723l-2.63121.51108c-.027.00524-.04104-.01148-.03121-.03716l.94189-2.46159c.00983-.02568.0391-.05413.06506-.06322l2.59079-.90716Z" style="fill:#93b7db;"/></g><g style="opacity:.5;"><path d="M72.19687,127.74401c.00031-.0275.01797-.03575.03925-.01833l2.24564,1.83774c.02128.01742.03557.05395.03176.08118l-.39695,2.83544c-.00381.02723-.02339.03418-.04351.01543l-1.87274-1.74544c-.02012-.01875-.03633-.05659-.03602-.08409l.03256-2.92194Z" style="fill:#93b7db;"/></g><g style="opacity:.5;"><path d="M71.25043,121.30713c.01954-.01935.03775-.0128.04047.01456l.29946,3.01158c.00272.02737-.01307.06323-.03509.07971l-2.193,1.64088c-.02202.01648-.04092.00747-.04201-.02001l-.10516-2.65831c-.00109-.02748.01401-.0658.03354-.08515l2.00179-1.98327Z" style="fill:#93b7db;"/></g><g style="opacity:.5;"><path d="M67.21448,149.0282c.02595-.00909.04043.00494.03218.03117l-.9034,2.86966c-.00826.02623-.0371.05198-.0641.05723l-2.63121.51108c-.027.00524-.04104-.01148-.03121-.03716l.94189-2.46159c.00983-.02568.0391-.05413.06506-.06322l2.59079-.90716Z" style="fill:#93b7db;"/></g><g style="opacity:.5;"><path d="M67.52111,143.74299c.00031-.0275.01797-.03575.03925-.01833l2.24564,1.83774c.02128.01742.03557.05395.03176.08118l-.39695,2.83544c-.00381.02723-.02339.03418-.04351.01543l-1.87274-1.74544c-.02012-.01875-.03633-.05659-.03602-.08409l.03256-2.92194Z" style="fill:#93b7db;"/></g><g style="opacity:.5;"><path d="M66.57467,137.30611c.01954-.01935.03775-.0128.04047.01456l.29946,3.01158c.00272.02737-.01307.06323-.03509.07971l-2.193,1.64088c-.02202.01648-.04092.00747-.04201-.02001l-.10516-2.65831c-.00109-.02748.01401-.0658.03354-.08515l2.00179-1.98327Z" style="fill:#93b7db;"/></g><g style="opacity:.5;"><path d="M61.61276,148.00052c.02595-.00909.04043.00494.03218.03117l-.9034,2.86966c-.00826.02623-.0371.05198-.0641.05723l-2.63121.51108c-.027.00524-.04104-.01148-.03121-.03716l.94189-2.46159c.00983-.02568.0391-.05413.06506-.06322l2.59079-.90716Z" style="fill:#93b7db;"/></g><g style="opacity:.5;"><path d="M61.91939,142.7153c.00031-.0275.01797-.03575.03925-.01833l2.24564,1.83774c.02128.01742.03557.05395.03176.08118l-.39695,2.83544c-.00381.02723-.02339.03418-.04351.01543l-1.87274-1.74544c-.02012-.01875-.03633-.05659-.03602-.08409l.03256-2.92194Z" style="fill:#93b7db;"/></g><g style="opacity:.5;"><path d="M60.97295,136.27842c.01954-.01935.03775-.0128.04047.01456l.29946,3.01158c.00272.02737-.01307.06323-.03509.07971l-2.193,1.64088c-.02202.01648-.04092.00747-.04201-.02001l-.10516-2.65831c-.00109-.02748.01401-.0658.03354-.08515l2.00179-1.98327Z" style="fill:#93b7db;"/></g><g style="opacity:.5;"><path d="M88.25323,136.1398c.02595-.00909.04043.00494.03218.03117l-.9034,2.86966c-.00826.02623-.0371.05198-.0641.05723l-2.63121.51108c-.027.00524-.04104-.01148-.03121-.03716l.94189-2.46159c.00983-.02568.0391-.05413.06506-.06322l2.59079-.90716Z" style="fill:#93b7db;"/></g><g style="opacity:.5;"><path d="M88.55986,130.85459c.00031-.0275.01797-.03575.03925-.01833l2.24564,1.83774c.02128.01742.03557.05395.03176.08118l-.39695,2.83544c-.00381.02723-.02339.03418-.04351.01543l-1.87274-1.74544c-.02012-.01875-.03633-.05659-.03602-.08409l.03256-2.92194Z" style="fill:#93b7db;"/></g><g style="opacity:.5;"><path d="M87.61342,124.4177c.01954-.01935.03775-.0128.04047.01456l.29946,3.01158c.00272.02737-.01307.06323-.03509.07971l-2.193,1.64088c-.02202.01648-.04092.00747-.04201-.02001l-.10516-2.65831c-.00109-.02748.01401-.0658.03354-.08515l2.00179-1.98327Z" style="fill:#93b7db;"/></g><g style="opacity:.5;"><path d="M82.65151,135.11211c.02595-.00909.04043.00494.03218.03117l-.9034,2.86966c-.00826.02623-.0371.05198-.0641.05723l-2.63121.51108c-.027.00524-.04104-.01148-.03121-.03716l.94189-2.46159c.00983-.02568.0391-.05413.06506-.06322l2.59079-.90716Z" style="fill:#93b7db;"/></g><g style="opacity:.5;"><path d="M82.95814,129.8269c.00031-.0275.01797-.03575.03925-.01833l2.24564,1.83774c.02128.01742.03557.05395.03176.08118l-.39695,2.83544c-.00381.02723-.02339.03418-.04351.01543l-1.87274-1.74544c-.02012-.01875-.03633-.05659-.03602-.08409l.03256-2.92194Z" style="fill:#93b7db;"/></g><g style="opacity:.5;"><path d="M82.0117,123.39002c.01954-.01935.03775-.0128.04047.01456l.29946,3.01158c.00272.02737-.01307.06323-.03509.07971l-2.193,1.64088c-.02202.01648-.04092.00747-.04201-.02001l-.10516-2.65831c-.00109-.02748.01401-.0658.03354-.08515l2.00179-1.98327Z" style="fill:#93b7db;"/></g><g style="opacity:.5;"><path d="M89.84531,140.98346c.01954-.01935.03775-.0128.04047.01456l.29946,3.01158c.00272.02737-.01307.06323-.03509.07971l-2.193,1.64088c-.02202.01648-.04092.00747-.04201-.02001l-.10516-2.65831c-.00109-.02748.01401-.0658.03354-.08515l2.00179-1.98327Z" style="fill:#93b7db;"/></g><g style="opacity:.5;"><path d="M84.88341,151.67787c.02595-.00909.04043.00494.03218.03117l-.9034,2.86966c-.00826.02623-.0371.05198-.0641.05723l-2.63121.51108c-.027.00524-.04104-.01148-.03121-.03716l.94189-2.46159c.00983-.02568.0391-.05413.06506-.06322l2.59079-.90716Z" style="fill:#93b7db;"/></g><g style="opacity:.5;"><path d="M85.19004,146.39266c.00031-.0275.01797-.03575.03925-.01833l2.24564,1.83774c.02128.01742.03557.05395.03176.08118l-.39695,2.83544c-.00381.02723-.02339.03418-.04351.01543l-1.87274-1.74544c-.02012-.01875-.03633-.05659-.03602-.08409l.03256-2.92194Z" style="fill:#93b7db;"/></g><g style="opacity:.5;"><path d="M84.24359,139.95577c.01954-.01935.03775-.0128.04047.01456l.29946,3.01158c.00272.02737-.01307.06323-.03509.07971l-2.193,1.64088c-.02202.01648-.04092.00747-.04201-.02001l-.10516-2.65831c-.00109-.02748.01401-.0658.03354-.08515l2.00179-1.98327Z" style="fill:#93b7db;"/></g><g style="opacity:.5;"><path d="M87.39513,118.72926c.02595-.00909.04043.00494.03218.03117l-.9034,2.86966c-.00826.02623-.0371.05198-.0641.05723l-2.63121.51108c-.027.00524-.04104-.01148-.03121-.03716l.94189-2.46159c.00983-.02568.0391-.05413.06506-.06322l2.59079-.90716Z" style="fill:#93b7db;"/></g><g style="opacity:.5;"><path d="M81.79341,117.70158c.02595-.00909.04043.00494.03218.03117l-.9034,2.86966c-.00826.02623-.0371.05198-.0641.05723l-2.63121.51108c-.027.00524-.04104-.01148-.03121-.03716l.94189-2.46159c.00983-.02568.0391-.05413.06506-.06322l2.59079-.90716Z" style="fill:#93b7db;"/></g><g style="opacity:.5;"><path d="M82.10004,112.41636c.00031-.0275.01797-.03575.03925-.01833l2.24564,1.83774c.02128.01742.03557.05395.03176.08118l-.39695,2.83544c-.00381.02723-.02339.03418-.04351.01543l-1.87274-1.74544c-.02012-.01875-.03633-.05659-.03602-.08409l.03256-2.92194Z" style="fill:#93b7db;"/></g><g style="opacity:.5;"><path d="M81.15359,105.97948c.01954-.01935.03775-.0128.04047.01456l.29946,3.01158c.00272.02737-.01307.06323-.03509.07971l-2.193,1.64088c-.02202.01648-.04092.00747-.04201-.02001l-.10516-2.65831c-.00109-.02748.01401-.0658.03354-.08515l2.00179-1.98327Z" style="fill:#93b7db;"/></g><g style="opacity:.5;"><path d="M75.93153,116.78499c.02595-.00909.04043.00494.03218.03117l-.9034,2.86966c-.00826.02623-.0371.05198-.0641.05723l-2.63121.51108c-.027.00524-.04104-.01148-.03121-.03716l.94189-2.46159c.00983-.02568.0391-.05413.06506-.06322l2.59079-.90716Z" style="fill:#93b7db;"/></g><g style="opacity:.5;"><path d="M76.23816,111.49977c.00031-.0275.01797-.03575.03925-.01833l2.24564,1.83774c.02128.01742.03557.05395.03176.08118l-.39695,2.83544c-.00381.02723-.02339.03418-.04351.01543l-1.87274-1.74544c-.02012-.01875-.03633-.05659-.03602-.08409l.03256-2.92194Z" style="fill:#93b7db;"/></g><g style="opacity:.5;"><path d="M75.29171,105.06289c.01954-.01935.03775-.0128.04047.01456l.29946,3.01158c.00272.02737-.01307.06323-.03509.07971l-2.193,1.64088c-.02202.01648-.04092.00747-.04201-.02001l-.10516-2.65831c-.00109-.02748.01401-.0658.03354-.08515l2.00179-1.98327Z" style="fill:#93b7db;"/></g><g style="opacity:.5;"><path d="M70.32981,115.7573c.02595-.00909.04043.00494.03218.03117l-.9034,2.86966c-.00826.02623-.0371.05198-.0641.05723l-2.63121.51108c-.027.00524-.04104-.01148-.03121-.03716l.94189-2.46159c.00983-.02568.0391-.05413.06506-.06322l2.59079-.90716Z" style="fill:#93b7db;"/></g><g style="opacity:.5;"><path d="M70.63644,110.47209c.00031-.0275.01797-.03575.03925-.01833l2.24564,1.83774c.02128.01742.03557.05395.03176.08118l-.39695,2.83544c-.00381.02723-.02339.03418-.04351.01543l-1.87274-1.74544c-.02012-.01875-.03633-.05659-.03602-.08409l.03256-2.92194Z" style="fill:#93b7db;"/></g><g style="opacity:.5;"><path d="M69.68999,104.0352c.01954-.01935.03775-.0128.04047.01456l.29946,3.01158c.00272.02737-.01307.06323-.03509.07971l-2.193,1.64088c-.02202.01648-.04092.00747-.04201-.02001l-.10516-2.65831c-.00109-.02748.01401-.0658.03354-.08515l2.00179-1.98327Z" style="fill:#93b7db;"/></g><g style="opacity:.5;"><path d="M64.47307,114.93531c.02595-.00909.04043.00494.03218.03117l-.9034,2.86966c-.00826.02623-.0371.05198-.0641.05723l-2.63121.51108c-.027.00524-.04104-.01148-.03121-.03716l.94189-2.46159c.00983-.02568.0391-.05413.06506-.06322l2.59079-.90716Z" style="fill:#93b7db;"/></g><g style="opacity:.5;"><path d="M64.7797,109.65009c.00031-.0275.01797-.03575.03925-.01833l2.24564,1.83774c.02128.01742.03557.05395.03176.08118l-.39695,2.83544c-.00381.02723-.02339.03418-.04351.01543l-1.87274-1.74544c-.02012-.01875-.03633-.05659-.03602-.08409l.03256-2.92194Z" style="fill:#93b7db;"/></g><g style="opacity:.5;"><path d="M63.83326,103.21321c.01954-.01935.03775-.0128.04047.01456l.29946,3.01158c.00272.02737-.01307.06323-.03509.07971l-2.193,1.64088c-.02202.01648-.04092.00747-.04201-.02001l-.10516-2.65831c-.00109-.02748.01401-.0658.03354-.08515l2.00179-1.98327Z" style="fill:#93b7db;"/></g><g style="opacity:.5;"><path d="M58.87135,113.90762c.02595-.00909.04043.00494.03218.03117l-.9034,2.86966c-.00826.02623-.0371.05198-.0641.05723l-2.63121.51108c-.027.00524-.04104-.01148-.03121-.03716l.94189-2.46159c.00983-.02568.0391-.05413.06506-.06322l2.59079-.90716Z" style="fill:#93b7db;"/></g><g style="opacity:.5;"><path d="M59.17798,108.6224c.00031-.0275.01797-.03575.03925-.01833l2.24564,1.83774c.02128.01742.03557.05395.03176.08118l-.39695,2.83544c-.00381.02723-.02339.03418-.04351.01543l-1.87274-1.74544c-.02012-.01875-.03633-.05659-.03602-.08409l.03256-2.92194Z" style="fill:#93b7db;"/></g><g style="opacity:.5;"><path d="M77.53239,197.92252c.02595-.00909.04043.00494.03218.03117l-.9034,2.86966c-.00826.02623-.0371.05198-.0641.05723l-2.63121.51108c-.027.00524-.04104-.01148-.03121-.03716l.94189-2.46159c.00983-.02568.0391-.05413.06506-.06322l2.59079-.90716Z" style="fill:#93b7db;"/></g><g style="opacity:.5;"><path d="M77.83902,192.63731c.00031-.0275.01797-.03575.03925-.01833l2.24564,1.83774c.02128.01742.03557.05395.03176.08118l-.39695,2.83544c-.00381.02723-.02339.03418-.04351.01543l-1.87274-1.74544c-.02012-.01875-.03633-.05659-.03602-.08409l.03256-2.92194Z" style="fill:#93b7db;"/></g><g style="opacity:.5;"><path d="M76.89257,186.20042c.01954-.01935.03775-.0128.04047.01456l.29946,3.01158c.00272.02737-.01307.06323-.03509.07971l-2.193,1.64088c-.02202.01648-.04092.00747-.04201-.02001l-.10516-2.65831c-.00109-.02748.01401-.0658.03354-.08515l2.00179-1.98327Z" style="fill:#93b7db;"/></g><g style="opacity:.5;"><path d="M71.93067,196.89483c.02595-.00909.04043.00494.03218.03117l-.9034,2.86966c-.00826.02623-.0371.05198-.0641.05723l-2.63121.51108c-.027.00524-.04104-.01148-.03121-.03716l.94189-2.46159c.00983-.02568.0391-.05413.06506-.06322l2.59079-.90716Z" style="fill:#93b7db;"/></g><g style="opacity:.5;"><path d="M72.2373,191.60962c.00031-.0275.01797-.03575.03925-.01833l2.24564,1.83774c.02128.01742.03557.05395.03176.08118l-.39695,2.83544c-.00381.02723-.02339.03418-.04351.01543l-1.87274-1.74544c-.02012-.01875-.03633-.05659-.03602-.08409l.03256-2.92194Z" style="fill:#93b7db;"/></g><g style="opacity:.5;"><path d="M71.29085,185.17274c.01954-.01935.03775-.0128.04047.01456l.29946,3.01158c.00272.02737-.01307.06323-.03509.07971l-2.193,1.64088c-.02202.01648-.04092.00747-.04201-.02001l-.10516-2.65831c-.00109-.02748.01401-.0658.03354-.08515l2.00179-1.98327Z" style="fill:#93b7db;"/></g><g style="opacity:.5;"><path d="M64.21867,180.31413c.02595-.00909.04043.00494.03218.03117l-.9034,2.86966c-.00826.02623-.0371.05198-.0641.05723l-2.63121.51108c-.027.00524-.04104-.01148-.03121-.03716l.94189-2.46159c.00983-.02568.0391-.05413.06506-.06322l2.59079-.90716Z" style="fill:#93b7db;"/></g><g style="opacity:.5;"><path d="M64.52531,175.02892c.00031-.0275.01797-.03575.03925-.01833l2.24564,1.83774c.02128.01742.03557.05395.03176.08118l-.39695,2.83544c-.00381.02723-.02339.03418-.04351.01543l-1.87274-1.74544c-.02012-.01875-.03633-.05659-.03602-.08409l.03256-2.92194Z" style="fill:#93b7db;"/></g><g style="opacity:.5;"><path d="M63.57886,168.59203c.01954-.01935.03775-.0128.04047.01456l.29946,3.01158c.00272.02737-.01307.06323-.03509.07971l-2.193,1.64088c-.02202.01648-.04092.00747-.04201-.02001l-.10516-2.65831c-.00109-.02748.01401-.0658.03354-.08515l2.00179-1.98327Z" style="fill:#93b7db;"/></g><g style="opacity:.5;"><path d="M58.61695,179.28644c.02595-.00909.04043.00494.03218.03117l-.9034,2.86966c-.00826.02623-.0371.05198-.0641.05723l-2.63121.51108c-.027.00524-.04104-.01148-.03121-.03716l.94189-2.46159c.00983-.02568.0391-.05413.06506-.06322l2.59079-.90716Z" style="fill:#93b7db;"/></g><g style="opacity:.5;"><path d="M58.92358,174.00123c.00031-.0275.01797-.03575.03925-.01833l2.24564,1.83774c.02128.01742.03557.05395.03176.08118l-.39695,2.83544c-.00381.02723-.02339.03418-.04351.01543l-1.87274-1.74544c-.02012-.01875-.03633-.05659-.03602-.08409l.03256-2.92194Z" style="fill:#93b7db;"/></g><g style="opacity:.5;"><path d="M57.97714,167.56435c.01954-.01935.03775-.0128.04047.01456l.29946,3.01158c.00272.02737-.01307.06323-.03509.07971l-2.193,1.64088c-.02202.01648-.04092.00747-.04201-.02001l-.10516-2.65831c-.00109-.02748.01401-.0658.03354-.08515l2.00179-1.98327Z" style="fill:#93b7db;"/></g><g style="opacity:.5;"><path d="M75.854,182.15281c.02595-.00909.04043.00494.03218.03117l-.9034,2.86966c-.00826.02623-.0371.05198-.0641.05723l-2.63121.51108c-.027.00524-.04104-.01148-.03121-.03716l.94189-2.46159c.00983-.02568.0391-.05413.06506-.06322l2.59079-.90716Z" style="fill:#93b7db;"/></g><g style="opacity:.5;"><path d="M75.21418,170.43071c.01954-.01935.03775-.0128.04047.01456l.29946,3.01158c.00272.02737-.01307.06323-.03509.07971l-2.193,1.64088c-.02202.01648-.04092.00747-.04201-.02001l-.10516-2.65831c-.00109-.02748.01401-.0658.03354-.08515l2.00179-1.98327Z" style="fill:#93b7db;"/></g><g style="opacity:.5;"><path d="M70.25228,181.12512c.02595-.00909.04043.00494.03218.03117l-.9034,2.86966c-.00826.02623-.0371.05198-.0641.05723l-2.63121.51108c-.027.00524-.04104-.01148-.03121-.03716l.94189-2.46159c.00983-.02568.0391-.05413.06506-.06322l2.59079-.90716Z" style="fill:#93b7db;"/></g><g style="opacity:.5;"><path d="M70.55891,175.83991c.00031-.0275.01797-.03575.03925-.01833l2.24564,1.83774c.02128.01742.03557.05395.03176.08118l-.39695,2.83544c-.00381.02723-.02339.03418-.04351.01543l-1.87274-1.74544c-.02012-.01875-.03633-.05659-.03602-.08409l.03256-2.92194Z" style="fill:#93b7db;"/></g><g style="opacity:.5;"><path d="M69.61246,169.40302c.01954-.01935.03775-.0128.04047.01456l.29946,3.01158c.00272.02737-.01307.06323-.03509.07971l-2.193,1.64088c-.02202.01648-.04092.00747-.04201-.02001l-.10516-2.65831c-.00109-.02748.01401-.0658.03354-.08515l2.00179-1.98327Z" style="fill:#93b7db;"/></g><g style="opacity:.5;"><path d="M65.88315,191.83889c.00031-.0275.01797-.03575.03925-.01833l2.24564,1.83774c.02128.01742.03557.05395.03176.08118l-.39695,2.83544c-.00381.02723-.02339.03418-.04351.01543l-1.87274-1.74544c-.02012-.01875-.03633-.05659-.03602-.08409l.03256-2.92194Z" style="fill:#93b7db;"/></g><g style="opacity:.5;"><path d="M64.9367,185.402c.01954-.01935.03775-.0128.04047.01456l.29946,3.01158c.00272.02737-.01307.06323-.03509.07971l-2.193,1.64088c-.02202.01648-.04092.00747-.04201-.02001l-.10516-2.65831c-.00109-.02748.01401-.0658.03354-.08515l2.00179-1.98327Z" style="fill:#93b7db;"/></g><g style="opacity:.5;"><path d="M60.28143,190.8112c.00031-.0275.01797-.03575.03925-.01833l2.24564,1.83774c.02128.01742.03557.05395.03176.08118l-.39695,2.83544c-.00381.02723-.02339.03418-.04351.01543l-1.87274-1.74544c-.02012-.01875-.03633-.05659-.03602-.08409l.03256-2.92194Z" style="fill:#93b7db;"/></g><g style="opacity:.5;"><path d="M59.33498,184.37431c.01954-.01935.03775-.0128.04047.01456l.29946,3.01158c.00272.02737-.01307.06323-.03509.07971l-2.193,1.64088c-.02202.01648-.04092.00747-.04201-.02001l-.10516-2.65831c-.00109-.02748.01401-.0658.03354-.08515l2.00179-1.98327Z" style="fill:#93b7db;"/></g><g style="opacity:.5;"><path d="M88.84717,200.80146c.02595-.00909.04043.00494.03218.03117l-.9034,2.86966c-.00826.02623-.0371.05198-.0641.05723l-2.63121.51108c-.027.00524-.04104-.01148-.03121-.03716l.94189-2.46159c.00983-.02568.0391-.05413.06506-.06322l2.59079-.90716Z" style="fill:#93b7db;"/></g><g style="opacity:.5;"><path d="M83.24545,199.77377c.02595-.00909.04043.00494.03218.03117l-.9034,2.86966c-.00826.02623-.0371.05198-.0641.05723l-2.63121.51108c-.027.00524-.04104-.01148-.03121-.03716l.94189-2.46159c.00983-.02568.0391-.05413.06506-.06322l2.59079-.90716Z" style="fill:#93b7db;"/></g><g style="opacity:.5;"><path d="M83.55208,194.48856c.00031-.0275.01797-.03575.03925-.01833l2.24564,1.83774c.02128.01742.03557.05395.03176.08118l-.39695,2.83544c-.00381.02723-.02339.03418-.04351.01543l-1.87274-1.74544c-.02012-.01875-.03633-.05659-.03602-.08409l.03256-2.92194Z" style="fill:#93b7db;"/></g><g style="opacity:.5;"><path d="M82.60563,188.05167c.01954-.01935.03775-.0128.04047.01456l.29946,3.01158c.00272.02737-.01307.06323-.03509.07971l-2.193,1.64088c-.02202.01648-.04092.00747-.04201-.02001l-.10516-2.65831c-.00109-.02748.01401-.0658.03354-.08515l2.00179-1.98327Z" style="fill:#93b7db;"/></g><g style="opacity:.5;"><path d="M85.11735,155.10306c.01954-.01935.03775-.0128.04047.01456l.29946,3.01158c.00272.02737-.01307.06323-.03509.07971l-2.193,1.64088c-.02202.01648-.04092.00747-.04201-.02001l-.10516-2.65831c-.00109-.02748.01401-.0658.03354-.08515l2.00179-1.98327Z" style="fill:#93b7db;"/></g><g style="opacity:.5;"><path d="M80.15545,165.79747c.02595-.00909.04043.00494.03218.03117l-.9034,2.86966c-.00826.02623-.0371.05198-.0641.05723l-2.63121.51108c-.027.00524-.04104-.01148-.03121-.03716l.94189-2.46159c.00983-.02568.0391-.05413.06506-.06322l2.59079-.90716Z" style="fill:#93b7db;"/></g><g style="opacity:.5;"><path d="M80.46208,160.51226c.00031-.0275.01797-.03575.03925-.01833l2.24564,1.83774c.02128.01742.03557.05395.03176.08118l-.39695,2.83544c-.00381.02723-.02339.03418-.04351.01543l-1.87274-1.74544c-.02012-.01875-.03633-.05659-.03602-.08409l.03256-2.92194Z" style="fill:#93b7db;"/></g><g style="opacity:.5;"><path d="M79.51563,154.07537c.01954-.01935.03775-.0128.04047.01456l.29946,3.01158c.00272.02737-.01307.06323-.03509.07971l-2.193,1.64088c-.02202.01648-.04092.00747-.04201-.02001l-.10516-2.65831c-.00109-.02748.01401-.0658.03354-.08515l2.00179-1.98327Z" style="fill:#93b7db;"/></g><g style="opacity:.5;"><path d="M74.29357,164.88088c.02595-.00909.04043.00494.03218.03117l-.9034,2.86966c-.00826.02623-.0371.05198-.0641.05723l-2.63121.51108c-.027.00524-.04104-.01148-.03121-.03716l.94189-2.46159c.00983-.02568.0391-.05413.06506-.06322l2.59079-.90716Z" style="fill:#93b7db;"/></g><g style="opacity:.5;"><path d="M74.6002,159.59567c.00031-.0275.01797-.03575.03925-.01833l2.24564,1.83774c.02128.01742.03557.05395.03176.08118l-.39695,2.83544c-.00381.02723-.02339.03418-.04351.01543l-1.87274-1.74544c-.02012-.01875-.03633-.05659-.03602-.08409l.03256-2.92194Z" style="fill:#93b7db;"/></g><g style="opacity:.5;"><path d="M73.65375,153.15879c.01954-.01935.03775-.0128.04047.01456l.29946,3.01158c.00272.02737-.01307.06323-.03509.07971l-2.193,1.64088c-.02202.01648-.04092.00747-.04201-.02001l-.10516-2.65831c-.00109-.02748.01401-.0658.03354-.08515l2.00179-1.98327Z" style="fill:#93b7db;"/></g><g style="opacity:.5;"><path d="M68.69184,163.8532c.02595-.00909.04043.00494.03218.03117l-.9034,2.86966c-.00826.02623-.0371.05198-.0641.05723l-2.63121.51108c-.027.00524-.04104-.01148-.03121-.03716l.94189-2.46159c.00983-.02568.0391-.05413.06506-.06322l2.59079-.90716Z" style="fill:#93b7db;"/></g><g style="opacity:.5;"><path d="M68.99848,158.56798c.00031-.0275.01797-.03575.03925-.01833l2.24564,1.83774c.02128.01742.03557.05395.03176.08118l-.39695,2.83544c-.00381.02723-.02339.03418-.04351.01543l-1.87274-1.74544c-.02012-.01875-.03633-.05659-.03602-.08409l.03256-2.92194Z" style="fill:#93b7db;"/></g><g style="opacity:.5;"><path d="M68.05203,152.1311c.01954-.01935.03775-.0128.04047.01456l.29946,3.01158c.00272.02737-.01307.06323-.03509.07971l-2.193,1.64088c-.02202.01648-.04092.00747-.04201-.02001l-.10516-2.65831c-.00109-.02748.01401-.0658.03354-.08515l2.00179-1.98327Z" style="fill:#93b7db;"/></g><g style="opacity:.5;"><path d="M62.83511,163.0312c.02595-.00909.04043.00494.03218.03117l-.9034,2.86966c-.00826.02623-.0371.05198-.0641.05723l-2.63121.51108c-.027.00524-.04104-.01148-.03121-.03716l.94189-2.46159c.00983-.02568.0391-.05413.06506-.06322l2.59079-.90716Z" style="fill:#93b7db;"/></g><g style="opacity:.5;"><path d="M63.14174,157.74599c.00031-.0275.01797-.03575.03925-.01833l2.24564,1.83774c.02128.01742.03557.05395.03176.08118l-.39695,2.83544c-.00381.02723-.02339.03418-.04351.01543l-1.87274-1.74544c-.02012-.01875-.03633-.05659-.03602-.08409l.03256-2.92194Z" style="fill:#93b7db;"/></g><g style="opacity:.5;"><path d="M62.1953,151.3091c.01954-.01935.03775-.0128.04047.01456l.29946,3.01158c.00272.02737-.01307.06323-.03509.07971l-2.193,1.64088c-.02202.01648-.04092.00747-.04201-.02001l-.10516-2.65831c-.00109-.02748.01401-.0658.03354-.08515l2.00179-1.98327Z" style="fill:#93b7db;"/></g><g style="opacity:.5;"><path d="M57.23339,162.00351c.02595-.00909.04043.00494.03218.03117l-.9034,2.86966c-.00826.02623-.0371.05198-.0641.05723l-2.63121.51108c-.027.00524-.04104-.01148-.03121-.03716l.94189-2.46159c.00983-.02568.0391-.05413.06506-.06322l2.59079-.90716Z" style="fill:#93b7db;"/></g><g style="opacity:.5;"><path d="M57.54002,156.7183c.00031-.0275.01797-.03575.03925-.01833l2.24564,1.83774c.02128.01742.03557.05395.03176.08118l-.39695,2.83544c-.00381.02723-.02339.03418-.04351.01543l-1.87274-1.74544c-.02012-.01875-.03633-.05659-.03602-.08409l.03256-2.92194Z" style="fill:#93b7db;"/></g><g style="opacity:.5;"><path d="M56.59357,150.28141c.01954-.01935.03775-.0128.04047.01456l.29946,3.01158c.00272.02737-.01307.06323-.03509.07971l-2.193,1.64088c-.02202.01648-.04092.00747-.04201-.02001l-.10516-2.65831c-.00109-.02748.01401-.0658.03354-.08515l2.00179-1.98327Z" style="fill:#93b7db;"/></g></g><g style="opacity:.5;"><g style="opacity:.5;"><path d="M59.65041,80.54528c-.0157.02258-.03459.01938-.04199-.0071l-.81018-2.90146c-.0074-.02649.00177-.06474.02036-.085l1.87561-2.04384c.01859-.02026.03855-.01484.04434.01204l.5587,2.59239c.00579.02688-.00231.06735-.01801.08993l-1.62884,2.34304Z" style="fill:#93b7db;"/></g><g style="opacity:.5;"><path d="M62.25152,85.04877c.01489.02312.00459.04112-.02289.04001l-2.82291-.1149c-.02748-.00112-.05954-.02239-.07125-.04727l-1.20483-2.55979c-.01171-.02488.00107-.0428.02841-.03981l2.46821.26945c.02734.00298.06189.02434.07677.04747l1.54849,2.40485Z" style="fill:#93b7db;"/></g><g style="opacity:.5;"><path d="M66.49702,89.72442c-.00534.02698-.02399.03166-.04145.01042l-1.8674-2.27277c-.01746-.02125-.02457-.05996-.0158-.08602l.90718-2.69723c.00877-.02607.02911-.02915.0452-.00685l1.51848,2.10434c.01609.0223.02489.06262.01955.08959l-.56575,2.85852Z" style="fill:#93b7db;"/></g><g style="opacity:.5;"><path d="M64.77996,77.92737c-.0157.02258-.03459.01938-.04199-.0071l-.81018-2.90146c-.0074-.02649.00177-.06474.02036-.085l1.87561-2.04384c.01859-.02026.03855-.01484.04434.01204l.5587,2.59239c.00579.02688-.00231.06735-.01801.08993l-1.62884,2.34304Z" style="fill:#93b7db;"/></g><g style="opacity:.5;"><path d="M67.38107,82.43086c.01489.02312.00459.04112-.02289.04001l-2.82291-.1149c-.02748-.00112-.05954-.02239-.07125-.04727l-1.20483-2.55979c-.01171-.02488.00107-.0428.02841-.03981l2.46821.26945c.02734.00298.06189.02434.07677.04747l1.54849,2.40485Z" style="fill:#93b7db;"/></g><g style="opacity:.5;"><path d="M71.62657,87.10651c-.00534.02698-.02399.03166-.04145.01042l-1.8674-2.27277c-.01746-.02125-.02457-.05996-.0158-.08602l.90718-2.69723c.00877-.02607.02911-.02915.0452-.00685l1.51848,2.10434c.01609.0223.02489.06262.01955.08959l-.56575,2.85852Z" style="fill:#93b7db;"/></g><g style="opacity:.5;"><path d="M69.52792,92.38925c-.0157.02258-.03459.01938-.04199-.0071l-.81018-2.90146c-.0074-.02649.00177-.06474.02036-.085l1.87561-2.04384c.01859-.02026.03855-.01484.04434.01204l.5587,2.59239c.00579.02688-.00231.06735-.01801.08993l-1.62884,2.34304Z" style="fill:#93b7db;"/></g><g style="opacity:.5;"><path d="M72.12903,96.89275c.01489.02312.00459.04112-.02289.04001l-2.82291-.1149c-.02748-.00112-.05954-.02239-.07125-.04727l-1.20483-2.55979c-.01171-.02488.00107-.0428.02841-.03981l2.46821.26945c.02734.00298.06189.02434.07677.04747l1.54849,2.40485Z" style="fill:#93b7db;"/></g><g style="opacity:.5;"><path d="M76.37453,101.56839c-.00534.02698-.02399.03166-.04145.01042l-1.8674-2.27277c-.01746-.02125-.02457-.05996-.0158-.08602l.90718-2.69723c.00877-.02607.02911-.02915.0452-.00685l1.51848,2.10434c.01609.0223.02489.06262.01955.08959l-.56575,2.85852Z" style="fill:#93b7db;"/></g><g style="opacity:.5;"><path d="M74.65747,89.77134c-.0157.02258-.03459.01938-.04199-.0071l-.81018-2.90146c-.0074-.02649.00177-.06474.02036-.085l1.87561-2.04384c.01859-.02026.03855-.01484.04434.01204l.5587,2.59239c.00579.02688-.00231.06735-.01801.08993l-1.62884,2.34304Z" style="fill:#93b7db;"/></g><g style="opacity:.5;"><path d="M77.25858,94.27483c.01489.02312.00459.04112-.02289.04001l-2.82291-.1149c-.02748-.00112-.05954-.02239-.07125-.04727l-1.20483-2.55979c-.01171-.02488.00107-.0428.02841-.03981l2.46821.26945c.02734.00298.06189.02434.07677.04747l1.54849,2.40485Z" style="fill:#93b7db;"/></g><g style="opacity:.5;"><path d="M81.50408,98.95048c-.00534.02698-.02399.03166-.04145.01042l-1.8674-2.27277c-.01746-.02125-.02457-.05996-.0158-.08602l.90718-2.69723c.00877-.02607.02911-.02915.0452-.00685l1.51848,2.10434c.01609.0223.02489.06262.01955.08959l-.56575,2.85852Z" style="fill:#93b7db;"/></g><g style="opacity:.5;"><path d="M69.84601,73.81846c-.0157.02258-.03459.01938-.04199-.0071l-.81018-2.90146c-.0074-.02649.00177-.06474.02036-.085l1.87561-2.04384c.01859-.02026.03855-.01484.04434.01204l.5587,2.59239c.00579.02688-.00231.06735-.01801.08993l-1.62884,2.34304Z" style="fill:#93b7db;"/></g><g style="opacity:.5;"><path d="M72.44712,78.32196c.01489.02312.00459.04112-.02289.04001l-2.82291-.1149c-.02748-.00112-.05954-.02239-.07125-.04727l-1.20483-2.55979c-.01171-.02488.00107-.0428.02841-.03981l2.46821.26945c.02734.00298.06189.02434.07677.04747l1.54849,2.40485Z" style="fill:#93b7db;"/></g><g style="opacity:.5;"><path d="M76.69262,82.9976c-.00534.02698-.02399.03166-.04145.01042l-1.8674-2.27277c-.01746-.02125-.02457-.05996-.0158-.08602l.90718-2.69723c.00877-.02607.02911-.02915.0452-.00685l1.51848,2.10434c.01609.0223.02489.06262.01955.08959l-.56575,2.85852Z" style="fill:#93b7db;"/></g><g style="opacity:.5;"><path d="M74.97555,71.20055c-.0157.02258-.03459.01938-.04199-.0071l-.81018-2.90146c-.0074-.02649.00177-.06474.02036-.085l1.87561-2.04384c.01859-.02026.03855-.01484.04434.01204l.5587,2.59239c.00579.02688-.00231.06735-.01801.08993l-1.62884,2.34304Z" style="fill:#93b7db;"/></g><g style="opacity:.5;"><path d="M77.57666,75.70405c.01489.02312.00459.04112-.02289.04001l-2.82291-.1149c-.02748-.00112-.05954-.02239-.07125-.04727l-1.20483-2.55979c-.01171-.02488.00107-.0428.02841-.03981l2.46821.26945c.02734.00298.06189.02434.07677.04747l1.54849,2.40485Z" style="fill:#93b7db;"/></g><g style="opacity:.5;"><path d="M81.82217,80.37969c-.00534.02698-.02399.03166-.04145.01042l-1.8674-2.27277c-.01746-.02125-.02457-.05996-.0158-.08602l.90718-2.69723c.00877-.02607.02911-.02915.0452-.00685l1.51848,2.10434c.01609.0223.02489.06262.01955.08959l-.56575,2.85852Z" style="fill:#93b7db;"/></g><g style="opacity:.5;"><path d="M59.61512,97.32971c-.0157.02258-.03459.01938-.04199-.0071l-.81018-2.90146c-.0074-.02649.00177-.06474.02036-.085l1.87561-2.04384c.01859-.02026.03855-.01484.04434.01204l.5587,2.59239c.00579.02688-.00231.06735-.01801.08993l-1.62884,2.34304Z" style="fill:#93b7db;"/></g><g style="opacity:.5;"><path d="M62.21623,101.8332c.01489.02312.00459.04112-.02289.04001l-2.82291-.1149c-.02748-.00112-.05954-.02239-.07125-.04727l-1.20483-2.55979c-.01171-.02488.00107-.0428.02841-.03981l2.46821.26945c.02734.00298.06189.02434.07677.04747l1.54849,2.40485Z" style="fill:#93b7db;"/></g><g style="opacity:.5;"><path d="M66.46174,106.50884c-.00534.02698-.02399.03166-.04145.01042l-1.8674-2.27277c-.01746-.02125-.02457-.05996-.0158-.08602l.90718-2.69723c.00877-.02607.02911-.02915.0452-.00685l1.51848,2.10434c.01609.0223.02489.06262.01955.08959l-.56575,2.85852Z" style="fill:#93b7db;"/></g><g style="opacity:.5;"><path d="M64.74467,94.71179c-.0157.02258-.03459.01938-.04199-.0071l-.81018-2.90146c-.0074-.02649.00177-.06474.02036-.085l1.87561-2.04384c.01859-.02026.03855-.01484.04434.01204l.5587,2.59239c.00579.02688-.00231.06735-.01801.08993l-1.62884,2.34304Z" style="fill:#93b7db;"/></g><g style="opacity:.5;"><path d="M67.34578,99.21529c.01489.02312.00459.04112-.02289.04001l-2.82291-.1149c-.02748-.00112-.05954-.02239-.07125-.04727l-1.20483-2.55979c-.01171-.02488.00107-.0428.02841-.03981l2.46821.26945c.02734.00298.06189.02434.07677.04747l1.54849,2.40485Z" style="fill:#93b7db;"/></g><g style="opacity:.5;"><path d="M71.59128,103.89093c-.00534.02698-.02399.03166-.04145.01042l-1.8674-2.27277c-.01746-.02125-.02457-.05996-.0158-.08602l.90718-2.69723c.00877-.02607.02911-.02915.0452-.00685l1.51848,2.10434c.01609.0223.02489.06262.01955.08959l-.56575,2.85852Z" style="fill:#93b7db;"/></g><g style="opacity:.5;"><path d="M55.70274,94.35632c-.00534.02698-.02399.03166-.04145.01042l-1.8674-2.27277c-.01746-.02125-.02457-.05996-.0158-.08602l.90718-2.69723c.00877-.02607.02911-.02915.0452-.00685l1.51848,2.10434c.01609.0223.02489.06262.01955.08959l-.56575,2.85852Z" style="fill:#93b7db;"/></g><g style="opacity:.5;"><path d="M53.98567,82.55927c-.0157.02258-.03459.01938-.04199-.0071l-.81018-2.90146c-.0074-.02649.00177-.06474.02036-.085l1.87561-2.04384c.01859-.02026.03855-.01484.04434.01204l.5587,2.59239c.00579.02688-.00231.06735-.01801.08993l-1.62884,2.34304Z" style="fill:#93b7db;"/></g><g style="opacity:.5;"><path d="M56.58678,87.06276c.01489.02312.00459.04112-.02289.04001l-2.82291-.1149c-.02748-.00112-.05954-.02239-.07125-.04727l-1.20483-2.55979c-.01171-.02488.00107-.0428.02841-.03981l2.46821.26945c.02734.00298.06189.02434.07677.04747l1.54849,2.40485Z" style="fill:#93b7db;"/></g><g style="opacity:.5;"><path d="M60.83229,91.73841c-.00534.02698-.02399.03166-.04145.01042l-1.8674-2.27277c-.01746-.02125-.02457-.05996-.0158-.08602l.90718-2.69723c.00877-.02607.02911-.02915.0452-.00685l1.51848,2.10434c.01609.0223.02489.06262.01955.08959l-.56575,2.85852Z" style="fill:#93b7db;"/></g><g style="opacity:.5;"><path d="M41.89034,49.4314c-.00534.02698-.02399.03166-.04145.01042l-1.8674-2.27277c-.01746-.02125-.02457-.05996-.0158-.08602l.90718-2.69723c.00877-.02607.02911-.02915.0452-.00685l1.51848,2.10434c.01609.0223.02489.06262.01955.08959l-.56575,2.85852Z" style="fill:#93b7db;"/></g><g style="opacity:.5;"><path d="M40.17327,37.63435c-.0157.02258-.03459.01938-.04199-.0071l-.81018-2.90146c-.0074-.02649.00177-.06474.02036-.085l1.87561-2.04384c.01859-.02026.03855-.01484.04434.01204l.5587,2.59239c.00579.02688-.00231.06735-.01801.08993l-1.62884,2.34304Z" style="fill:#93b7db;"/></g><g style="opacity:.5;"><path d="M42.77439,42.13784c.01489.02312.00459.04112-.02289.04001l-2.82291-.1149c-.02748-.00112-.05954-.02239-.07125-.04727l-1.20483-2.55979c-.01171-.02488.00107-.0428.02841-.03981l2.46821.26945c.02734.00298.06189.02434.07677.04747l1.54849,2.40485Z" style="fill:#93b7db;"/></g><g style="opacity:.5;"><path d="M47.01989,46.81349c-.00534.02698-.02399.03166-.04145.01042l-1.8674-2.27277c-.01746-.02125-.02457-.05996-.0158-.08602l.90718-2.69723c.00877-.02607.02911-.02915.0452-.00685l1.51848,2.10434c.01609.0223.02489.06262.01955.08959l-.56575,2.85852Z" style="fill:#93b7db;"/></g><g style="opacity:.5;"><path d="M55.41617,46.41687c-.0157.02258-.03459.01938-.04199-.0071l-.81018-2.90146c-.0074-.02649.00177-.06474.02036-.085l1.87561-2.04384c.01859-.02026.03855-.01484.04434.01204l.5587,2.59239c.00579.02688-.00231.06735-.01801.08993l-1.62884,2.34304Z" style="fill:#93b7db;"/></g><g style="opacity:.5;"><path d="M58.01729,50.92037c.01489.02312.00459.04112-.02289.04001l-2.82291-.1149c-.02748-.00112-.05954-.02239-.07125-.04727l-1.20483-2.55979c-.01171-.02488.00107-.0428.02841-.03981l2.46821.26945c.02734.00298.06189.02434.07677.04747l1.54849,2.40485Z" style="fill:#93b7db;"/></g><g style="opacity:.5;"><path d="M62.26279,55.59601c-.00534.02698-.02399.03166-.04145.01042l-1.8674-2.27277c-.01746-.02125-.02457-.05996-.0158-.08602l.90718-2.69723c.00877-.02607.02911-.02915.0452-.00685l1.51848,2.10434c.01609.0223.02489.06262.01955.08959l-.56575,2.85852Z" style="fill:#93b7db;"/></g><g style="opacity:.5;"><path d="M60.54572,43.79896c-.0157.02258-.03459.01938-.04199-.0071l-.81018-2.90146c-.0074-.02649.00177-.06474.02036-.085l1.87561-2.04384c.01859-.02026.03855-.01484.04434.01204l.5587,2.59239c.00579.02688-.00231.06735-.01801.08993l-1.62884,2.34304Z" style="fill:#93b7db;"/></g><g style="opacity:.5;"><path d="M63.14683,48.30246c.01489.02312.00459.04112-.02289.04001l-2.82291-.1149c-.02748-.00112-.05954-.02239-.07125-.04727l-1.20483-2.55979c-.01171-.02488.00107-.0428.02841-.03981l2.46821.26945c.02734.00298.06189.02434.07677.04747l1.54849,2.40485Z" style="fill:#93b7db;"/></g><g style="opacity:.5;"><path d="M67.39234,52.9781c-.00534.02698-.02399.03166-.04145.01042l-1.8674-2.27277c-.01746-.02125-.02457-.05996-.0158-.08602l.90718-2.69723c.00877-.02607.02911-.02915.0452-.00685l1.51848,2.10434c.01609.0223.02489.06262.01955.08959l-.56575,2.85852Z" style="fill:#93b7db;"/></g><g style="opacity:.5;"><path d="M44.92123,52.09623c-.0157.02258-.03459.01938-.04199-.0071l-.81018-2.90146c-.0074-.02649.00177-.06474.02036-.085l1.87561-2.04384c.01859-.02026.03855-.01484.04434.01204l.5587,2.59239c.00579.02688-.00231.06735-.01801.08993l-1.62884,2.34304Z" style="fill:#93b7db;"/></g><g style="opacity:.5;"><path d="M51.76785,61.27537c-.00534.02698-.02399.03166-.04145.01042l-1.8674-2.27277c-.01746-.02125-.02457-.05996-.0158-.08602l.90718-2.69723c.00877-.02607.02911-.02915.0452-.00685l1.51848,2.10434c.01609.0223.02489.06262.01955.08959l-.56575,2.85852Z" style="fill:#93b7db;"/></g><g style="opacity:.5;"><path d="M50.05078,49.47832c-.0157.02258-.03459.01938-.04199-.0071l-.81018-2.90146c-.0074-.02649.00177-.06474.02036-.085l1.87561-2.04384c.01859-.02026.03855-.01484.04434.01204l.5587,2.59239c.00579.02688-.00231.06735-.01801.08993l-1.62884,2.34304Z" style="fill:#93b7db;"/></g><g style="opacity:.5;"><path d="M52.65189,53.98181c.01489.02312.00459.04112-.02289.04001l-2.82291-.1149c-.02748-.00112-.05954-.02239-.07125-.04727l-1.20483-2.55979c-.01171-.02488.00107-.0428.02841-.03981l2.46821.26945c.02734.00298.06189.02434.07677.04747l1.54849,2.40485Z" style="fill:#93b7db;"/></g><g style="opacity:.5;"><path d="M56.8974,58.65746c-.00534.02698-.02399.03166-.04145.01042l-1.8674-2.27277c-.01746-.02125-.02457-.05996-.0158-.08602l.90718-2.69723c.00877-.02607.02911-.02915.0452-.00685l1.51848,2.10434c.01609.0223.02489.06262.01955.08959l-.56575,2.85852Z" style="fill:#93b7db;"/></g><g style="opacity:.5;"><path d="M47.84043,38.02894c.01489.02312.00459.04112-.02289.04001l-2.82291-.1149c-.02748-.00112-.05954-.02239-.07125-.04727l-1.20483-2.55979c-.01171-.02488.00107-.0428.02841-.03981l2.46821.26945c.02734.00298.06189.02434.07677.04747l1.54849,2.40485Z" style="fill:#93b7db;"/></g><g style="opacity:.5;"><path d="M52.08594,42.70458c-.00534.02698-.02399.03166-.04145.01042l-1.8674-2.27277c-.01746-.02125-.02457-.05996-.0158-.08602l.90718-2.69723c.00877-.02607.02911-.02915.0452-.00685l1.51848,2.10434c.01609.0223.02489.06262.01955.08959l-.56575,2.85852Z" style="fill:#93b7db;"/></g><g style="opacity:.5;"><path d="M52.96998,35.41103c.01489.02312.00459.04112-.02289.04001l-2.82291-.1149c-.02748-.00112-.05954-.02239-.07125-.04727l-1.20483-2.55979c-.01171-.02488.00107-.0428.02841-.03981l2.46821.26945c.02734.00298.06189.02434.07677.04747l1.54849,2.40485Z" style="fill:#93b7db;"/></g><g style="opacity:.5;"><path d="M57.21548,40.08667c-.00534.02698-.02399.03166-.04145.01042l-1.8674-2.27277c-.01746-.02125-.02457-.05996-.0158-.08602l.90718-2.69723c.00877-.02607.02911-.02915.0452-.00685l1.51848,2.10434c.01609.0223.02489.06262.01955.08959l-.56575,2.85852Z" style="fill:#93b7db;"/></g><g style="opacity:.5;"><path d="M51.94771,79.9062c-.00534.02698-.02399.03166-.04145.01042l-1.8674-2.27277c-.01746-.02125-.02457-.05996-.0158-.08602l.90718-2.69723c.00877-.02607.02911-.02915.0452-.00685l1.51848,2.10434c.01609.0223.02489.06262.01955.08959l-.56575,2.85852Z" style="fill:#93b7db;"/></g><g style="opacity:.5;"><path d="M50.23065,68.10915c-.0157.02258-.03459.01938-.04199-.0071l-.81018-2.90146c-.0074-.02649.00177-.06474.02036-.085l1.87561-2.04384c.01859-.02026.03855-.01484.04434.01204l.5587,2.59239c.00579.02688-.00231.06735-.01801.08993l-1.62884,2.34304Z" style="fill:#93b7db;"/></g><g style="opacity:.5;"><path d="M52.83176,72.61264c.01489.02312.00459.04112-.02289.04001l-2.82291-.1149c-.02748-.00112-.05954-.02239-.07125-.04727l-1.20483-2.55979c-.01171-.02488.00107-.0428.02841-.03981l2.46821.26945c.02734.00298.06189.02434.07677.04747l1.54849,2.40485Z" style="fill:#93b7db;"/></g><g style="opacity:.5;"><path d="M57.07726,77.28828c-.00534.02698-.02399.03166-.04145.01042l-1.8674-2.27277c-.01746-.02125-.02457-.05996-.0158-.08602l.90718-2.69723c.00877-.02607.02911-.02915.0452-.00685l1.51848,2.10434c.01609.0223.02489.06262.01955.08959l-.56575,2.85852Z" style="fill:#93b7db;"/></g><g style="opacity:.5;"><path d="M55.51275,65.23993c-.0157.02258-.03459.01938-.04199-.0071l-.81018-2.90146c-.0074-.02649.00177-.06474.02036-.085l1.87561-2.04384c.01859-.02026.03855-.01484.04434.01204l.5587,2.59239c.00579.02688-.00231.06735-.01801.08993l-1.62884,2.34304Z" style="fill:#93b7db;"/></g><g style="opacity:.5;"><path d="M58.11386,69.74342c.01489.02312.00459.04112-.02289.04001l-2.82291-.1149c-.02748-.00112-.05954-.02239-.07125-.04727l-1.20483-2.55979c-.01171-.02488.00107-.0428.02841-.03981l2.46821.26945c.02734.00298.06189.02434.07677.04747l1.54849,2.40485Z" style="fill:#93b7db;"/></g><g style="opacity:.5;"><path d="M62.35936,74.41907c-.00534.02698-.02399.03166-.04145.01042l-1.8674-2.27277c-.01746-.02125-.02457-.05996-.0158-.08602l.90718-2.69723c.00877-.02607.02911-.02915.0452-.00685l1.51848,2.10434c.01609.0223.02489.06262.01955.08959l-.56575,2.85852Z" style="fill:#93b7db;"/></g><g style="opacity:.5;"><path d="M60.6423,62.62202c-.0157.02258-.03459.01938-.04199-.0071l-.81018-2.90146c-.0074-.02649.00177-.06474.02036-.085l1.87561-2.04384c.01859-.02026.03855-.01484.04434.01204l.5587,2.59239c.00579.02688-.00231.06735-.01801.08993l-1.62884,2.34304Z" style="fill:#93b7db;"/></g><g style="opacity:.5;"><path d="M63.24341,67.12551c.01489.02312.00459.04112-.02289.04001l-2.82291-.1149c-.02748-.00112-.05954-.02239-.07125-.04727l-1.20483-2.55979c-.01171-.02488.00107-.0428.02841-.03981l2.46821.26945c.02734.00298.06189.02434.07677.04747l1.54849,2.40485Z" style="fill:#93b7db;"/></g><g style="opacity:.5;"><path d="M67.48891,71.80116c-.00534.02698-.02399.03166-.04145.01042l-1.8674-2.27277c-.01746-.02125-.02457-.05996-.0158-.08602l.90718-2.69723c.00877-.02607.02911-.02915.0452-.00685l1.51848,2.10434c.01609.0223.02489.06262.01955.08959l-.56575,2.85852Z" style="fill:#93b7db;"/></g><g style="opacity:.5;"><path d="M65.86917,59.67872c-.0157.02258-.03459.01938-.04199-.0071l-.81018-2.90146c-.0074-.02649.00177-.06474.02036-.085l1.87561-2.04384c.01859-.02026.03855-.01484.04434.01204l.5587,2.59239c.00579.02688-.00231.06735-.01801.08993l-1.62884,2.34304Z" style="fill:#93b7db;"/></g><g style="opacity:.5;"><path d="M68.47028,64.18221c.01489.02312.00459.04112-.02289.04001l-2.82291-.1149c-.02748-.00112-.05954-.02239-.07125-.04727l-1.20483-2.55979c-.01171-.02488.00107-.0428.02841-.03981l2.46821.26945c.02734.00298.06189.02434.07677.04747l1.54849,2.40485Z" style="fill:#93b7db;"/></g><g style="opacity:.5;"><path d="M72.71578,68.85786c-.00534.02698-.02399.03166-.04145.01042l-1.8674-2.27277c-.01746-.02125-.02457-.05996-.0158-.08602l.90718-2.69723c.00877-.02607.02911-.02915.0452-.00685l1.51848,2.10434c.01609.0223.02489.06262.01955.08959l-.56575,2.85852Z" style="fill:#93b7db;"/></g><g style="opacity:.5;"><path d="M70.99872,57.06081c-.0157.02258-.03459.01938-.04199-.0071l-.81018-2.90146c-.0074-.02649.00177-.06474.02036-.085l1.87561-2.04384c.01859-.02026.03855-.01484.04434.01204l.5587,2.59239c.00579.02688-.00231.06735-.01801.08993l-1.62884,2.34304Z" style="fill:#93b7db;"/></g><g style="opacity:.5;"><path d="M73.59983,61.5643c.01489.02312.00459.04112-.02289.04001l-2.82291-.1149c-.02748-.00112-.05954-.02239-.07125-.04727l-1.20483-2.55979c-.01171-.02488.00107-.0428.02841-.03981l2.46821.26945c.02734.00298.06189.02434.07677.04747l1.54849,2.40485Z" style="fill:#93b7db;"/></g><g style="opacity:.5;"><path d="M77.84533,66.23995c-.00534.02698-.02399.03166-.04145.01042l-1.8674-2.27277c-.01746-.02125-.02457-.05996-.0158-.08602l.90718-2.69723c.00877-.02607.02911-.02915.0452-.00685l1.51848,2.10434c.01609.0223.02489.06262.01955.08959l-.56575,2.85852Z" style="fill:#93b7db;"/></g></g></svg>