<?xml version="1.0" encoding="UTF-8"?><svg id="a" xmlns="http://www.w3.org/2000/svg" viewBox="0 0 141.82819 307.0791"><path d="M46.27982,30.27144c-3.94647,1.3151-4.48752,6.69015-.88035,8.76197,4.04024,2.32057,8.0628,5.01649,8.0628,8.27481v27.76838c0,1.62365-1.15145,3.01554-2.7461,3.32101-9.18746,1.75992-38.57021,9.33455-43.8572,34.88832-1.6831,8.13501-2.20156,16.81477-2.05853,25.16378.34257,19.99618,4.63149,39.72633,12.35572,58.17357,7.36435,17.58777,18.44518,47.1633,20.14257,69.4573.34345,4.51097-1.72809,8.85252-5.40109,11.49371-2.97799,2.14141-5.57699,4.44283-5.57699,7.63766,0,5.41087,9.86175,17.36715,45.99239,17.36715,13.86874,0,23.96987-2.276,31.15235-5.08072,8.63227-3.37085,9.67621-15.16773,1.75636-19.97966-.11048-.06712-.22174-.13458-.33378-.20236-1.09203-.66064-1.71773-1.87412-1.62996-3.14741,1.17967-17.11524,19.24752-68.89472,26.65462-93.59625,2.64917-8.83457,12.829-44.24695,3.66543-71.99948-7.5752-22.94202-33.07205-28.70788-41.68348-30.01744-1.652-.25122-2.86892-1.67104-2.86892-3.34204v-27.23843c0-.4803.09995-.95223.29826-1.38968,1.04054-2.29527,12.56267-4.90987,12.56267-9.77005,0-5.30202-5.81749-9.92904-31.40625-9.92904-11.0306,0-18.89757,1.61776-24.20051,3.38489Z" style="fill:#ddd7cc;"/><path d="M46.27982,30.27144c-3.94647,1.3151-4.48752,6.69015-.88035,8.76197,4.04024,2.32057,8.0628,5.01649,8.0628,8.27481v27.76838c0,1.62365-1.15145,3.01554-2.7461,3.32101-9.18746,1.75992-38.57021,9.33455-43.8572,34.88832-1.6831,8.13501-2.20156,16.81477-2.05853,25.16378.34257,19.99618,4.63149,39.72633,12.35572,58.17357,7.36435,17.58777,18.44518,47.1633,20.14257,69.4573.34345,4.51097-1.72809,8.85252-5.40109,11.49371-2.97799,2.14141-5.57699,4.44283-5.57699,7.63766,0,5.41087,9.86175,17.36715,45.99239,17.36715,13.86874,0,23.96987-2.276,31.15235-5.08072,8.63227-3.37085,9.67621-15.16773,1.75636-19.97966-.11048-.06712-.22174-.13458-.33378-.20236-1.09203-.66064-1.71773-1.87412-1.62996-3.14741,1.17967-17.11524,19.24752-68.89472,26.65462-93.59625,2.64917-8.83457,12.829-44.24695,3.66543-71.99948-7.5752-22.94202-33.07205-28.70788-41.68348-30.01744-1.652-.25122-2.86892-1.67104-2.86892-3.34204v-27.23843c0-.4803.09995-.95223.29826-1.38968,1.04054-2.29527,12.56267-4.90987,12.56267-9.77005,0-5.30202-5.81749-9.92904-31.40625-9.92904-11.0306,0-18.89757,1.61776-24.20051,3.38489Z" style="fill:none; stroke:#ddd7cc; stroke-miterlimit:10; stroke-width:9px;"/><path d="M33.32842,272.77564c18.17375,2.31349,35.76823,5.24453,53.92871,3.25996,5.9165-.56318,11.75342-1.80341,18.09033-3.25996-18.1111,18.63617-52.89853,15.64353-72.01904,0h0Z" style="fill:#ceb53a;"/><path d="M56.59791,26.18773v-6.67632s-6.47995-.32727-6.47995-8.05085,10.31993-6.93813,10.31993-6.93813h25.48224c2.4861,0,4.93277,1.07949,6.34905,3.12273.7207,1.03974,1.24484,2.3795,1.24484,4.07722,0,5.43269-4.97451,7.72358-4.97451,7.72358l-.32727,6.93813-31.61432-.19636Z" style="fill:#ceb53a; stroke:#ceb53a; stroke-miterlimit:10; stroke-width:9px;"/><path d="M113.41631,92.07423c4.60704,1.09351,8.40635,4.62671,11.20315,8.33663,5.28241,7.08296,7.4139,16.01934,8.13176,24.69352.40053,7.92691-.40529,15.90059-2.627,23.52221-.81318-7.44992-1.14602-15.61068-2.09334-23.06001-.20647-1.25717-.71456-4.37011-.87139-5.58537-.24651-1.22134-.91598-4.21952-1.17137-5.48536-2.25624-8.33112-5.48393-16.98055-12.5718-22.42162h0Z" style="fill:#e8e3d6;"/><path d="M29.10869,91.719c-7.0881,5.44102-10.31568,14.09046-12.57183,22.42158-.25868,1.27914-.921,4.24449-1.17136,5.48523-.15524,1.20697-.66898,4.35043-.87206,5.58557-.94664,7.45415-1.27835,15.59743-2.09255,23.05985-2.53967-8.86957-3.3966-18.3341-2.18817-27.50523.93832-7.34015,3.25458-14.70724,7.69278-20.71048,2.79699-3.70972,6.59591-7.24323,11.20321-8.33651h0Z" style="fill:#e8e3d6;"/><path d="M55.6541,48.24806c5.21624,5.1045,5.89818,13.40391,3.89375,20.08844-.69666,2.27887-1.80721,4.44361-3.35516,6.27436-.43368-2.34571-.42638-4.55015-.53518-6.84278-.08803-6.43877-.1347-13.01094-.00341-19.52002h0Z" style="fill:#e8e3d6;"/><path d="M87.01201,48.47059c.13232,6.50604.08418,13.08353-.00289,19.52001-.10893,2.29303-.10152,4.4963-.53518,6.84278-1.54808-1.83002-2.65888-3.9958-3.35502-6.27428-2.00498-6.68444-1.32212-14.98356,3.89309-20.08851h0Z" style="fill:#e8e3d6;"/><path d="M13.99832,170.1852s56.77575-4.67608,109.35406-.25774c-6.62752,8.83669-10.38311,11.04586-10.38311,11.04586l-98.97095-10.78813" style="fill:#ffa999;"/><path d="M13.99832,170.1852s28.16696-11.59816,53.35153,0c25.18457,11.59816,56.66529-.66275,56.66529-.66275,0,0-23.85907,72.57133-23.85907,98.08728-24.52182,12.26091-56.99666,1.3255-56.99666,1.3255,0,0,1.65688-36.78273-29.16108-98.75003Z" style="fill:#fe2800;"/><path d="M79.01235,134.34283c.04704,2.79107-2.69931,4.15989-5.23153,3.94355-2.66242-.22746-4.52301-2.54604-4.2136-5.27757.2139-1.88825.26952-3.72574.21205-5.63194-3.62677-.33962-7.58222,1.35421-9.72539-1.19344-1.60239-1.9048-1.59919-4.95643.11623-6.71699,2.35808-2.42013,5.95271-.78273,9.6316-1.10578.02353-1.93838-.00999-3.75777-.23743-5.66953-.34344-2.88675,1.81622-5.21498,4.73155-5.25547,2.19434-.03048,4.38736,1.32398,4.68504,3.59836l-.01435,3.77281-.13717,3.57002c1.8052.02663,3.54459-.05053,5.40267-.261,2.40476-.27239,4.83068.81831,5.39053,3.35984.18517.84061.19224,2.14202-.0298,2.97154-.67465,2.52043-3.1785,3.44881-5.60481,3.16072-1.77274-.21049-3.42352-.32713-5.16353-.24112l.12252,3.09488.06542,3.88112Z" style="fill:#fe9e07;"/><path d="M73.07237,138.91754c-3.7668,2.34048-8.12585,2.39827-11.64363-.18198-3.18404-2.33546-4.78334-6.69899-3.42352-10.74848-4.40738-3.4618-5.34442-9.6475-1.80522-13.95197,1.95216-2.37426,4.49088-3.60632,7.6109-3.75546,1.29688-3.77699,4.69674-6.21142,8.4371-6.56397,3.91183-.3687,7.65249,1.83428,9.46496,5.31787.29115.55958.41233,1.3742,1.16756,1.41416,4.06127.2149,7.50685,3.0339,8.70862,6.60876,1.38269,4.11304-.08594,8.26929-3.48736,10.97796,1.04917,4.08843-.14073,8.2632-3.38664,10.6841-3.30158,2.46242-7.87483,2.83261-11.64278.199Z" style="fill:#fe2800;"/><g style="opacity:.5;"><g style="opacity:.5;"><path d="M27.61375,92.31742c-.02561-.01001-.02748-.03009-.00414-.04463l2.39762-1.4939c.02334-.01454.06208-.01547.08609-.00207l2.33485,1.30338c.02401.0134.02384.03503-.00037.04806l-2.18489,1.17535c-.02422.01303-.06499.0155-.09061.00549l-2.53856-.99168Z" style="fill:#93b7db;"/></g><g style="opacity:.5;"><path d="M24.23827,95.93458c-.01773.02102-.03734.01631-.04358-.01048l-.64111-2.75123c-.00624-.02678.00537-.06376.0258-.08216l1.98657-1.78994c.02043-.01841.04085-.01128.04537.01585l.40815,2.44716c.00452.02713-.00628.06652-.02401.08754l-1.75718,2.08327Z" style="fill:#93b7db;"/></g><g style="opacity:.5;"><path d="M21.14356,101.18443c-.02745.0016-.03753-.01587-.0224-.03883l1.55477-2.3586c.01514-.02296.04995-.03998.07737-.03783l2.6658.20935c.02742.00215.03629.02187.01973.04382l-1.49449,1.98032c-.01657.02195-.05258.04122-.08003.04283l-2.72075.15895Z" style="fill:#93b7db;"/></g><g style="opacity:.5;"><path d="M31.32776,96.61957c-.02561-.01001-.02748-.03009-.00414-.04463l2.39762-1.4939c.02334-.01454.06208-.01547.08609-.00207l2.33485,1.30338c.02401.0134.02384.03503-.00037.04806l-2.18489,1.17535c-.02422.01303-.06499.0155-.09061.00549l-2.53856-.99168Z" style="fill:#93b7db;"/></g><g style="opacity:.5;"><path d="M27.95228,100.23673c-.01773.02102-.03734.01631-.04358-.01048l-.64111-2.75123c-.00624-.02678.00537-.06376.0258-.08216l1.98657-1.78994c.02043-.01841.04085-.01128.04537.01585l.40815,2.44716c.00452.02713-.00628.06652-.02401.08754l-1.75718,2.08327Z" style="fill:#93b7db;"/></g><g style="opacity:.5;"><path d="M24.85757,105.48658c-.02745.0016-.03753-.01587-.0224-.03883l1.55477-2.3586c.01514-.02296.04995-.03998.07737-.03783l2.6658.20935c.02742.00215.03629.02187.01973.04382l-1.49449,1.98032c-.01657.02195-.05258.04122-.08003.04283l-2.72075.15895Z" style="fill:#93b7db;"/></g><g style="opacity:.5;"><path d="M27.42918,113.48857c-.02561-.01001-.02748-.03009-.00414-.04463l2.39762-1.4939c.02334-.01454.06208-.01547.08609-.00207l2.33485,1.30338c.02401.0134.02384.03503-.00037.04806l-2.18489,1.17535c-.02422.01303-.06499.0155-.09061.00549l-2.53856-.99168Z" style="fill:#93b7db;"/></g><g style="opacity:.5;"><path d="M24.05369,117.10574c-.01773.02102-.03734.01631-.04358-.01048l-.64111-2.75123c-.00624-.02678.00537-.06376.0258-.08216l1.98657-1.78994c.02043-.01841.04085-.01128.04537.01585l.40815,2.44716c.00452.02713-.00628.06652-.02401.08754l-1.75718,2.08327Z" style="fill:#93b7db;"/></g><g style="opacity:.5;"><path d="M20.95899,122.35559c-.02745.0016-.03753-.01587-.0224-.03883l1.55477-2.3586c.01514-.02296.04995-.03998.07737-.03783l2.6658.20935c.02742.00215.03629.02187.01973.04382l-1.49449,1.98032c-.01657.02195-.05258.04122-.08003.04283l-2.72075.15895Z" style="fill:#93b7db;"/></g><g style="opacity:.5;"><path d="M31.14318,117.79073c-.02561-.01001-.02748-.03009-.00414-.04463l2.39762-1.4939c.02334-.01454.06208-.01547.08609-.00207l2.33485,1.30338c.02401.0134.02384.03503-.00037.04806l-2.18489,1.17535c-.02422.01303-.06499.0155-.09061.00549l-2.53856-.99168Z" style="fill:#93b7db;"/></g><g style="opacity:.5;"><path d="M27.7677,121.40789c-.01773.02102-.03734.01631-.04358-.01048l-.64111-2.75123c-.00624-.02678.00537-.06376.0258-.08216l1.98657-1.78994c.02043-.01841.04085-.01128.04537.01585l.40815,2.44716c.00452.02713-.00628.06652-.02401.08754l-1.75718,2.08327Z" style="fill:#93b7db;"/></g><g style="opacity:.5;"><path d="M24.673,126.65774c-.02745.0016-.03753-.01587-.0224-.03883l1.55477-2.3586c.01514-.02296.04995-.03998.07737-.03783l2.6658.20935c.02742.00215.03629.02187.01973.04382l-1.49449,1.98032c-.01657.02195-.05258.04122-.08003.04283l-2.72075.15895Z" style="fill:#93b7db;"/></g><g style="opacity:.5;"><path d="M19.53897,104.76617c-.02561-.01001-.02748-.03009-.00414-.04463l2.39762-1.4939c.02334-.01454.06208-.01547.08609-.00207l2.33485,1.30338c.02401.0134.02384.03503-.00037.04806l-2.18489,1.17535c-.02422.01303-.06499.0155-.09061.00549l-2.53856-.99168Z" style="fill:#93b7db;"/></g><g style="opacity:.5;"><path d="M16.16349,108.38333c-.01773.02102-.03734.01631-.04358-.01048l-.64111-2.75123c-.00624-.02678.00537-.06376.0258-.08216l1.98657-1.78994c.02043-.01841.04085-.01128.04537.01585l.40815,2.44716c.00452.02713-.00628.06652-.02401.08754l-1.75718,2.08327Z" style="fill:#93b7db;"/></g><g style="opacity:.5;"><path d="M13.06879,113.63318c-.02745.0016-.03753-.01587-.0224-.03883l1.55477-2.3586c.01514-.02296.04995-.03998.07737-.03783l2.6658.20935c.02742.00215.03629.02187.01973.04382l-1.49449,1.98032c-.01657.02195-.05258.04122-.08003.04283l-2.72075.15895Z" style="fill:#93b7db;"/></g><g style="opacity:.5;"><path d="M23.25298,109.06833c-.02561-.01001-.02748-.03009-.00414-.04463l2.39762-1.4939c.02334-.01454.06208-.01547.08609-.00207l2.33485,1.30338c.02401.0134.02384.03503-.00037.04806l-2.18489,1.17535c-.02422.01303-.06499.0155-.09061.00549l-2.53856-.99168Z" style="fill:#93b7db;"/></g><g style="opacity:.5;"><path d="M19.8775,112.68549c-.01773.02102-.03734.01631-.04358-.01048l-.64111-2.75123c-.00624-.02678.00537-.06376.0258-.08216l1.98657-1.78994c.02043-.01841.04085-.01128.04537.01585l.40815,2.44716c.00452.02713-.00628.06652-.02401.08754l-1.75718,2.08327Z" style="fill:#93b7db;"/></g><g style="opacity:.5;"><path d="M16.78279,117.93534c-.02745.0016-.03753-.01587-.0224-.03883l1.55477-2.3586c.01514-.02296.04995-.03998.07737-.03783l2.6658.20935c.02742.00215.03629.02187.01973.04382l-1.49449,1.98032c-.01657.02195-.05258.04122-.08003.04283l-2.72075.15895Z" style="fill:#93b7db;"/></g><g style="opacity:.5;"><path d="M36.36955,100.49274c-.02561-.01001-.02748-.03009-.00414-.04463l2.39762-1.4939c.02334-.01454.06208-.01547.08609-.00207l2.33485,1.30338c.02401.0134.02384.03503-.00037.04806l-2.18489,1.17535c-.02422.01303-.06499.0155-.09061.00549l-2.53856-.99168Z" style="fill:#93b7db;"/></g><g style="opacity:.5;"><path d="M32.99407,104.1099c-.01773.02102-.03734.01631-.04358-.01048l-.64111-2.75123c-.00624-.02678.00537-.06376.0258-.08216l1.98657-1.78994c.02043-.01841.04085-.01128.04537.01585l.40815,2.44716c.00452.02713-.00628.06652-.02401.08754l-1.75718,2.08327Z" style="fill:#93b7db;"/></g><g style="opacity:.5;"><path d="M29.89937,109.35975c-.02745.0016-.03753-.01587-.0224-.03883l1.55477-2.3586c.01514-.02296.04995-.03998.07737-.03783l2.6658.20935c.02742.00215.03629.02187.01973.04382l-1.49449,1.98032c-.01657.02195-.05258.04122-.08003.04283l-2.72075.15895Z" style="fill:#93b7db;"/></g><g style="opacity:.5;"><path d="M40.08356,104.79489c-.02561-.01001-.02748-.03009-.00414-.04463l2.39762-1.4939c.02334-.01454.06208-.01547.08609-.00207l2.33485,1.30338c.02401.0134.02384.03503-.00037.04806l-2.18489,1.17535c-.02422.01303-.06499.0155-.09061.00549l-2.53856-.99168Z" style="fill:#93b7db;"/></g><g style="opacity:.5;"><path d="M36.70808,108.41206c-.01773.02102-.03734.01631-.04358-.01048l-.64111-2.75123c-.00624-.02678.00537-.06376.0258-.08216l1.98657-1.78994c.02043-.01841.04085-.01128.04537.01585l.40815,2.44716c.00452.02713-.00628.06652-.02401.08754l-1.75718,2.08327Z" style="fill:#93b7db;"/></g><g style="opacity:.5;"><path d="M33.61338,113.6619c-.02745.0016-.03753-.01587-.0224-.03883l1.55477-2.3586c.01514-.02296.04995-.03998.07737-.03783l2.6658.20935c.02742.00215.03629.02187.01973.04382l-1.49449,1.98032c-.01657.02195-.05258.04122-.08003.04283l-2.72075.15895Z" style="fill:#93b7db;"/></g><g style="opacity:.5;"><path d="M12.46867,96.42305c-.02561-.01001-.02748-.03009-.00414-.04463l2.39762-1.4939c.02334-.01454.06208-.01547.08609-.00207l2.33485,1.30338c.02401.0134.02384.03503-.00037.04806l-2.18489,1.17535c-.02422.01303-.06499.0155-.09061.00549l-2.53856-.99168Z" style="fill:#93b7db;"/></g><g style="opacity:.5;"><path d="M9.09319,100.04021c-.01773.02102-.03734.01631-.04358-.01048l-.64111-2.75123c-.00624-.02678.00537-.06376.0258-.08216l1.98657-1.78994c.02043-.01841.04085-.01128.04537.01585l.40815,2.44716c.00452.02713-.00628.06652-.02401.08754l-1.75718,2.08327Z" style="fill:#93b7db;"/></g><g style="opacity:.5;"><path d="M5.99849,105.29006c-.02745.0016-.03753-.01587-.0224-.03883l1.55477-2.3586c.01514-.02296.04995-.03998.07737-.03783l2.6658.20935c.02742.00215.03629.02187.01973.04382l-1.49449,1.98032c-.01657.02195-.05258.04122-.08003.04283l-2.72075.15895Z" style="fill:#93b7db;"/></g><g style="opacity:.5;"><path d="M16.18268,100.7252c-.02561-.01001-.02748-.03009-.00414-.04463l2.39762-1.4939c.02334-.01454.06208-.01547.08609-.00207l2.33485,1.30338c.02401.0134.02384.03503-.00037.04806l-2.18489,1.17535c-.02422.01303-.06499.0155-.09061.00549l-2.53856-.99168Z" style="fill:#93b7db;"/></g><g style="opacity:.5;"><path d="M12.8072,104.34236c-.01773.02102-.03734.01631-.04358-.01048l-.64111-2.75123c-.00624-.02678.00537-.06376.0258-.08216l1.98657-1.78994c.02043-.01841.04085-.01128.04537.01585l.40815,2.44716c.00452.02713-.00628.06652-.02401.08754l-1.75718,2.08327Z" style="fill:#93b7db;"/></g><g style="opacity:.5;"><path d="M9.71249,109.59221c-.02745.0016-.03753-.01587-.0224-.03883l1.55477-2.3586c.01514-.02296.04995-.03998.07737-.03783l2.6658.20935c.02742.00215.03629.02187.01973.04382l-1.49449,1.98032c-.01657.02195-.05258.04122-.08003.04283l-2.72075.15895Z" style="fill:#93b7db;"/></g><g style="opacity:.5;"><path d="M14.11896,91.91495c-.02745.0016-.03753-.01587-.0224-.03883l1.55477-2.3586c.01514-.02296.04995-.03998.07737-.03783l2.6658.20935c.02742.00215.03629.02187.01973.04382l-1.49449,1.98032c-.01657.02195-.05258.04122-.08003.04283l-2.72075.15895Z" style="fill:#93b7db;"/></g><g style="opacity:.5;"><path d="M24.30315,87.35009c-.02561-.01001-.02748-.03009-.00414-.04463l2.39762-1.4939c.02334-.01454.06208-.01547.08609-.00207l2.33485,1.30338c.02401.0134.02384.03503-.00037.04806l-2.18489,1.17535c-.02422.01303-.06499.0155-.09061.00549l-2.53856-.99168Z" style="fill:#93b7db;"/></g><g style="opacity:.5;"><path d="M20.92767,90.96725c-.01773.02102-.03734.01631-.04358-.01048l-.64111-2.75123c-.00624-.02678.00537-.06376.0258-.08216l1.98657-1.78994c.02043-.01841.04085-.01128.04537.01585l.40815,2.44716c.00452.02713-.00628.06652-.02401.08754l-1.75718,2.08327Z" style="fill:#93b7db;"/></g><g style="opacity:.5;"><path d="M17.83297,96.2171c-.02745.0016-.03753-.01587-.0224-.03883l1.55477-2.3586c.01514-.02296.04995-.03998.07737-.03783l2.6658.20935c.02742.00215.03629.02187.01973.04382l-1.49449,1.98032c-.01657.02195-.05258.04122-.08003.04283l-2.72075.15895Z" style="fill:#93b7db;"/></g><g style="opacity:.5;"><path d="M2.78562,109.53472c-.02561-.01001-.02748-.03009-.00414-.04463l2.39762-1.4939c.02334-.01454.06208-.01547.08609-.00207l2.33485,1.30338c.02401.0134.02384.03503-.00037.04806l-2.18489,1.17535c-.02422.01303-.06499.0155-.09061.00549l-2.53856-.99168Z" style="fill:#93b7db;"/></g><g style="opacity:.5;"><path d="M6.49962,113.83688c-.02561-.01001-.02748-.03009-.00414-.04463l2.39762-1.4939c.02334-.01454.06208-.01547.08609-.00207l2.33485,1.30338c.02401.0134.02384.03503-.00037.04806l-2.18489,1.17535c-.02422.01303-.06499.0155-.09061.00549l-2.53856-.99168Z" style="fill:#93b7db;"/></g><g style="opacity:.5;"><path d="M3.12414,117.45404c-.01773.02102-.03734.01631-.04358-.01048l-.64111-2.75123c-.00624-.02678.00537-.06376.0258-.08216l1.98657-1.78994c.02043-.01841.04085-.01128.04537.01585l.40815,2.44716c.00452.02713-.00628.06652-.02401.08754l-1.75718,2.08327Z" style="fill:#93b7db;"/></g><g style="opacity:.5;"><path d="M.02944,122.70389c-.02745.0016-.03753-.01587-.0224-.03883l1.55477-2.3586c.01514-.02296.04995-.03998.07737-.03783l2.6658.20935c.02742.00215.03629.02187.01973.04382l-1.49449,1.98032c-.01657.02195-.05258.04122-.08003.04283l-2.72075.15895Z" style="fill:#93b7db;"/></g><g style="opacity:.5;"><path d="M10.4805,118.22419c-.02561-.01001-.02748-.03009-.00414-.04463l2.39762-1.4939c.02334-.01454.06208-.01547.08609-.00207l2.33485,1.30338c.02401.0134.02384.03503-.00037.04806l-2.18489,1.17535c-.02422.01303-.06499.0155-.09061.00549l-2.53856-.99168Z" style="fill:#93b7db;"/></g><g style="opacity:.5;"><path d="M7.10502,121.84136c-.01773.02102-.03734.01631-.04358-.01048l-.64111-2.75123c-.00624-.02678.00537-.06376.0258-.08216l1.98657-1.78994c.02043-.01841.04085-.01128.04537.01585l.40815,2.44716c.00452.02713-.00628.06652-.02401.08754l-1.75718,2.08327Z" style="fill:#93b7db;"/></g><g style="opacity:.5;"><path d="M4.01031,127.09121c-.02745.0016-.03753-.01587-.0224-.03883l1.55477-2.3586c.01514-.02296.04995-.03998.07737-.03783l2.6658.20935c.02742.00215.03629.02187.01973.04382l-1.49449,1.98032c-.01657.02195-.05258.04122-.08003.04283l-2.72075.15895Z" style="fill:#93b7db;"/></g><g style="opacity:.5;"><path d="M14.19451,122.52635c-.02561-.01001-.02748-.03009-.00414-.04463l2.39762-1.4939c.02334-.01454.06208-.01547.08609-.00207l2.33485,1.30338c.02401.0134.02384.03503-.00037.04806l-2.18489,1.17535c-.02422.01303-.06499.0155-.09061.00549l-2.53856-.99168Z" style="fill:#93b7db;"/></g><g style="opacity:.5;"><path d="M10.81902,126.14351c-.01773.02102-.03734.01631-.04358-.01048l-.64111-2.75123c-.00624-.02678.00537-.06376.0258-.08216l1.98657-1.78994c.02043-.01841.04085-.01128.04537.01585l.40815,2.44716c.00452.02713-.00628.06652-.02401.08754l-1.75718,2.08327Z" style="fill:#93b7db;"/></g><g style="opacity:.5;"><path d="M7.72432,131.39336c-.02745.0016-.03753-.01587-.0224-.03883l1.55477-2.3586c.01514-.02296.04995-.03998.07737-.03783l2.6658.20935c.02742.00215.03629.02187.01973.04382l-1.49449,1.98032c-.01657.02195-.05258.04122-.08003.04283l-2.72075.15895Z" style="fill:#93b7db;"/></g><g style="opacity:.5;"><path d="M18.22762,126.84212c-.02561-.01001-.02748-.03009-.00414-.04463l2.39762-1.4939c.02334-.01454.06208-.01547.08609-.00207l2.33485,1.30338c.02401.0134.02384.03503-.00037.04806l-2.18489,1.17535c-.02422.01303-.06499.0155-.09061.00549l-2.53856-.99168Z" style="fill:#93b7db;"/></g><g style="opacity:.5;"><path d="M14.85213,130.45929c-.01773.02102-.03734.01631-.04358-.01048l-.64111-2.75123c-.00624-.02678.00537-.06376.0258-.08216l1.98657-1.78994c.02043-.01841.04085-.01128.04537.01585l.40815,2.44716c.00452.02713-.00628.06652-.02401.08754l-1.75718,2.08327Z" style="fill:#93b7db;"/></g><g style="opacity:.5;"><path d="M11.75743,135.70914c-.02745.0016-.03753-.01587-.0224-.03883l1.55477-2.3586c.01514-.02296.04995-.03998.07737-.03783l2.6658.20935c.02742.00215.03629.02187.01973.04382l-1.49449,1.98032c-.01657.02195-.05258.04122-.08003.04283l-2.72075.15895Z" style="fill:#93b7db;"/></g><g style="opacity:.5;"><path d="M21.94162,131.14428c-.02561-.01001-.02748-.03009-.00414-.04463l2.39762-1.4939c.02334-.01454.06208-.01547.08609-.00207l2.33485,1.30338c.02401.0134.02384.03503-.00037.04806l-2.18489,1.17535c-.02422.01303-.06499.0155-.09061.00549l-2.53856-.99168Z" style="fill:#93b7db;"/></g><g style="opacity:.5;"><path d="M18.56614,134.76144c-.01773.02102-.03734.01631-.04358-.01048l-.64111-2.75123c-.00624-.02678.00537-.06376.0258-.08216l1.98657-1.78994c.02043-.01841.04085-.01128.04537.01585l.40815,2.44716c.00452.02713-.00628.06652-.02401.08754l-1.75718,2.08327Z" style="fill:#93b7db;"/></g><g style="opacity:.5;"><path d="M57.45741,58.64469c-.02561-.01001-.02748-.03009-.00414-.04463l2.39762-1.4939c.02334-.01454.06208-.01547.08609-.00207l2.33485,1.30338c.02401.0134.02384.03503-.00037.04806l-2.18489,1.17535c-.02422.01303-.06499.0155-.09061.00549l-2.53856-.99168Z" style="fill:#93b7db;"/></g><g style="opacity:.5;"><path d="M54.08193,62.26185c-.01773.02102-.03734.01631-.04358-.01048l-.64111-2.75123c-.00624-.02678.00537-.06376.0258-.08216l1.98657-1.78994c.02043-.01841.04085-.01128.04537.01585l.40815,2.44716c.00452.02713-.00628.06652-.02401.08754l-1.75718,2.08327Z" style="fill:#93b7db;"/></g><g style="opacity:.5;"><path d="M50.98722,67.5117c-.02745.0016-.03753-.01587-.0224-.03883l1.55477-2.3586c.01514-.02296.04995-.03998.07737-.03783l2.6658.20935c.02742.00215.03629.02187.01973.04382l-1.49449,1.98032c-.01657.02195-.05258.04122-.08003.04283l-2.72075.15895Z" style="fill:#93b7db;"/></g><g style="opacity:.5;"><path d="M61.17142,62.94684c-.02561-.01001-.02748-.03009-.00414-.04463l2.39762-1.4939c.02334-.01454.06208-.01547.08609-.00207l2.33485,1.30338c.02401.0134.02384.03503-.00037.04806l-2.18489,1.17535c-.02422.01303-.06499.0155-.09061.00549l-2.53856-.99168Z" style="fill:#93b7db;"/></g><g style="opacity:.5;"><path d="M57.79593,66.56401c-.01773.02102-.03734.01631-.04358-.01048l-.64111-2.75123c-.00624-.02678.00537-.06376.0258-.08216l1.98657-1.78994c.02043-.01841.04085-.01128.04537.01585l.40815,2.44716c.00452.02713-.00628.06652-.02401.08754l-1.75718,2.08327Z" style="fill:#93b7db;"/></g><g style="opacity:.5;"><path d="M54.70123,71.81386c-.02745.0016-.03753-.01587-.0224-.03883l1.55477-2.3586c.01514-.02296.04995-.03998.07737-.03783l2.6658.20935c.02742.00215.03629.02187.01973.04382l-1.49449,1.98032c-.01657.02195-.05258.04122-.08003.04283l-2.72075.15895Z" style="fill:#93b7db;"/></g><g style="opacity:.5;"><path d="M57.27283,79.81585c-.02561-.01001-.02748-.03009-.00414-.04463l2.39762-1.4939c.02334-.01454.06208-.01547.08609-.00207l2.33485,1.30338c.02401.0134.02384.03503-.00037.04806l-2.18489,1.17535c-.02422.01303-.06499.0155-.09061.00549l-2.53856-.99168Z" style="fill:#93b7db;"/></g><g style="opacity:.5;"><path d="M53.89735,83.43301c-.01773.02102-.03734.01631-.04358-.01048l-.64111-2.75123c-.00624-.02678.00537-.06376.0258-.08216l1.98657-1.78994c.02043-.01841.04085-.01128.04537.01585l.40815,2.44716c.00452.02713-.00628.06652-.02401.08754l-1.75718,2.08327Z" style="fill:#93b7db;"/></g><g style="opacity:.5;"><path d="M50.80265,88.68286c-.02745.0016-.03753-.01587-.0224-.03883l1.55477-2.3586c.01514-.02296.04995-.03998.07737-.03783l2.6658.20935c.02742.00215.03629.02187.01973.04382l-1.49449,1.98032c-.01657.02195-.05258.04122-.08003.04283l-2.72075.15895Z" style="fill:#93b7db;"/></g><g style="opacity:.5;"><path d="M60.98684,84.118c-.02561-.01001-.02748-.03009-.00414-.04463l2.39762-1.4939c.02334-.01454.06208-.01547.08609-.00207l2.33485,1.30338c.02401.0134.02384.03503-.00037.04806l-2.18489,1.17535c-.02422.01303-.06499.0155-.09061.00549l-2.53856-.99168Z" style="fill:#93b7db;"/></g><g style="opacity:.5;"><path d="M57.61136,87.73516c-.01773.02102-.03734.01631-.04358-.01048l-.64111-2.75123c-.00624-.02678.00537-.06376.0258-.08216l1.98657-1.78994c.02043-.01841.04085-.01128.04537.01585l.40815,2.44716c.00452.02713-.00628.06652-.02401.08754l-1.75718,2.08327Z" style="fill:#93b7db;"/></g><g style="opacity:.5;"><path d="M54.51666,92.98501c-.02745.0016-.03753-.01587-.0224-.03883l1.55477-2.3586c.01514-.02296.04995-.03998.07737-.03783l2.6658.20935c.02742.00215.03629.02187.01973.04382l-1.49449,1.98032c-.01657.02195-.05258.04122-.08003.04283l-2.72075.15895Z" style="fill:#93b7db;"/></g><g style="opacity:.5;"><path d="M49.38263,71.09344c-.02561-.01001-.02748-.03009-.00414-.04463l2.39762-1.4939c.02334-.01454.06208-.01547.08609-.00207l2.33485,1.30338c.02401.0134.02384.03503-.00037.04806l-2.18489,1.17535c-.02422.01303-.06499.0155-.09061.00549l-2.53856-.99168Z" style="fill:#93b7db;"/></g><g style="opacity:.5;"><path d="M42.91244,79.96046c-.02745.0016-.03753-.01587-.0224-.03883l1.55477-2.3586c.01514-.02296.04995-.03998.07737-.03783l2.6658.20935c.02742.00215.03629.02187.01973.04382l-1.49449,1.98032c-.01657.02195-.05258.04122-.08003.04283l-2.72075.15895Z" style="fill:#93b7db;"/></g><g style="opacity:.5;"><path d="M53.09664,75.3956c-.02561-.01001-.02748-.03009-.00414-.04463l2.39762-1.4939c.02334-.01454.06208-.01547.08609-.00207l2.33485,1.30338c.02401.0134.02384.03503-.00037.04806l-2.18489,1.17535c-.02422.01303-.06499.0155-.09061.00549l-2.53856-.99168Z" style="fill:#93b7db;"/></g><g style="opacity:.5;"><path d="M49.72116,79.01276c-.01773.02102-.03734.01631-.04358-.01048l-.64111-2.75123c-.00624-.02678.00537-.06376.0258-.08216l1.98657-1.78994c.02043-.01841.04085-.01128.04537.01585l.40815,2.44716c.00452.02713-.00628.06652-.02401.08754l-1.75718,2.08327Z" style="fill:#93b7db;"/></g><g style="opacity:.5;"><path d="M46.62645,84.26261c-.02745.0016-.03753-.01587-.0224-.03883l1.55477-2.3586c.01514-.02296.04995-.03998.07737-.03783l2.6658.20935c.02742.00215.03629.02187.01973.04382l-1.49449,1.98032c-.01657.02195-.05258.04122-.08003.04283l-2.72075.15895Z" style="fill:#93b7db;"/></g><g style="opacity:.5;"><path d="M62.83773,70.43717c-.01773.02102-.03734.01631-.04358-.01048l-.64111-2.75123c-.00624-.02678.00537-.06376.0258-.08216l1.98657-1.78994c.02043-.01841.04085-.01128.04537.01585l.40815,2.44716c.00452.02713-.00628.06652-.02401.08754l-1.75718,2.08327Z" style="fill:#93b7db;"/></g><g style="opacity:.5;"><path d="M59.74303,75.68702c-.02745.0016-.03753-.01587-.0224-.03883l1.55477-2.3586c.01514-.02296.04995-.03998.07737-.03783l2.6658.20935c.02742.00215.03629.02187.01973.04382l-1.49449,1.98032c-.01657.02195-.05258.04122-.08003.04283l-2.72075.15895Z" style="fill:#93b7db;"/></g><g style="opacity:.5;"><path d="M66.55174,74.73933c-.01773.02102-.03734.01631-.04358-.01048l-.64111-2.75123c-.00624-.02678.00537-.06376.0258-.08216l1.98657-1.78994c.02043-.01841.04085-.01128.04537.01585l.40815,2.44716c.00452.02713-.00628.06652-.02401.08754l-1.75718,2.08327Z" style="fill:#93b7db;"/></g><g style="opacity:.5;"><path d="M63.45703,79.98918c-.02745.0016-.03753-.01587-.0224-.03883l1.55477-2.3586c.01514-.02296.04995-.03998.07737-.03783l2.6658.20935c.02742.00215.03629.02187.01973.04382l-1.49449,1.98032c-.01657.02195-.05258.04122-.08003.04283l-2.72075.15895Z" style="fill:#93b7db;"/></g><g style="opacity:.5;"><path d="M50.4328,49.37521c-.02561-.01001-.02748-.03009-.00414-.04463l2.39762-1.4939c.02334-.01454.06208-.01547.08609-.00207l2.33485,1.30338c.02401.0134.02384.03503-.00037.04806l-2.18489,1.17535c-.02422.01303-.06499.0155-.09061.00549l-2.53856-.99168Z" style="fill:#93b7db;"/></g><g style="opacity:.5;"><path d="M54.14681,53.67736c-.02561-.01001-.02748-.03009-.00414-.04463l2.39762-1.4939c.02334-.01454.06208-.01547.08609-.00207l2.33485,1.30338c.02401.0134.02384.03503-.00037.04806l-2.18489,1.17535c-.02422.01303-.06499.0155-.09061.00549l-2.53856-.99168Z" style="fill:#93b7db;"/></g><g style="opacity:.5;"><path d="M50.77133,57.29452c-.01773.02102-.03734.01631-.04358-.01048l-.64111-2.75123c-.00624-.02678.00537-.06376.0258-.08216l1.98657-1.78994c.02043-.01841.04085-.01128.04537.01585l.40815,2.44716c.00452.02713-.00628.06652-.02401.08754l-1.75718,2.08327Z" style="fill:#93b7db;"/></g><g style="opacity:.5;"><path d="M47.67663,62.54437c-.02745.0016-.03753-.01587-.0224-.03883l1.55477-2.3586c.01514-.02296.04995-.03998.07737-.03783l2.6658.20935c.02742.00215.03629.02187.01973.04382l-1.49449,1.98032c-.01657.02195-.05258.04122-.08003.04283l-2.72075.15895Z" style="fill:#93b7db;"/></g><g style="opacity:.5;"><path d="M26.15909,84.72901c-.02745.0016-.03753-.01587-.0224-.03883l1.55477-2.3586c.01514-.02296.04995-.03998.07737-.03783l2.6658.20935c.02742.00215.03629.02187.01973.04382l-1.49449,1.98032c-.01657.02195-.05258.04122-.08003.04283l-2.72075.15895Z" style="fill:#93b7db;"/></g><g style="opacity:.5;"><path d="M36.34328,80.16415c-.02561-.01001-.02748-.03009-.00414-.04463l2.39762-1.4939c.02334-.01454.06208-.01547.08609-.00207l2.33485,1.30338c.02401.0134.02384.03503-.00037.04806l-2.18489,1.17535c-.02422.01303-.06499.0155-.09061.00549l-2.53856-.99168Z" style="fill:#93b7db;"/></g><g style="opacity:.5;"><path d="M32.9678,83.78131c-.01773.02102-.03734.01631-.04358-.01048l-.64111-2.75123c-.00624-.02678.00537-.06376.0258-.08216l1.98657-1.78994c.02043-.01841.04085-.01128.04537.01585l.40815,2.44716c.00452.02713-.00628.06652-.02401.08754l-1.75718,2.08327Z" style="fill:#93b7db;"/></g><g style="opacity:.5;"><path d="M29.8731,89.03116c-.02745.0016-.03753-.01587-.0224-.03883l1.55477-2.3586c.01514-.02296.04995-.03998.07737-.03783l2.6658.20935c.02742.00215.03629.02187.01973.04382l-1.49449,1.98032c-.01657.02195-.05258.04122-.08003.04283l-2.72075.15895Z" style="fill:#93b7db;"/></g><g style="opacity:.5;"><path d="M40.32416,84.55147c-.02561-.01001-.02748-.03009-.00414-.04463l2.39762-1.4939c.02334-.01454.06208-.01547.08609-.00207l2.33485,1.30338c.02401.0134.02384.03503-.00037.04806l-2.18489,1.17535c-.02422.01303-.06499.0155-.09061.00549l-2.53856-.99168Z" style="fill:#93b7db;"/></g><g style="opacity:.5;"><path d="M36.94867,88.16863c-.01773.02102-.03734.01631-.04358-.01048l-.64111-2.75123c-.00624-.02678.00537-.06376.0258-.08216l1.98657-1.78994c.02043-.01841.04085-.01128.04537.01585l.40815,2.44716c.00452.02713-.00628.06652-.02401.08754l-1.75718,2.08327Z" style="fill:#93b7db;"/></g><g style="opacity:.5;"><path d="M33.85397,93.41848c-.02745.0016-.03753-.01587-.0224-.03883l1.55477-2.3586c.01514-.02296.04995-.03998.07737-.03783l2.6658.20935c.02742.00215.03629.02187.01973.04382l-1.49449,1.98032c-.01657.02195-.05258.04122-.08003.04283l-2.72075.15895Z" style="fill:#93b7db;"/></g><g style="opacity:.5;"><path d="M44.03816,88.85362c-.02561-.01001-.02748-.03009-.00414-.04463l2.39762-1.4939c.02334-.01454.06208-.01547.08609-.00207l2.33485,1.30338c.02401.0134.02384.03503-.00037.04806l-2.18489,1.17535c-.02422.01303-.06499.0155-.09061.00549l-2.53856-.99168Z" style="fill:#93b7db;"/></g><g style="opacity:.5;"><path d="M40.66268,92.47078c-.01773.02102-.03734.01631-.04358-.01048l-.64111-2.75123c-.00624-.02678.00537-.06376.0258-.08216l1.98657-1.78994c.02043-.01841.04085-.01128.04537.01585l.40815,2.44716c.00452.02713-.00628.06652-.02401.08754l-1.75718,2.08327Z" style="fill:#93b7db;"/></g><g style="opacity:.5;"><path d="M37.56798,97.72063c-.02745.0016-.03753-.01587-.0224-.03883l1.55477-2.3586c.01514-.02296.04995-.03998.07737-.03783l2.6658.20935c.02742.00215.03629.02187.01973.04382l-1.49449,1.98032c-.01657.02195-.05258.04122-.08003.04283l-2.72075.15895Z" style="fill:#93b7db;"/></g><g style="opacity:.5;"><path d="M48.07127,93.1694c-.02561-.01001-.02748-.03009-.00414-.04463l2.39762-1.4939c.02334-.01454.06208-.01547.08609-.00207l2.33485,1.30338c.02401.0134.02384.03503-.00037.04806l-2.18489,1.17535c-.02422.01303-.06499.0155-.09061.00549l-2.53856-.99168Z" style="fill:#93b7db;"/></g><g style="opacity:.5;"><path d="M44.69579,96.78656c-.01773.02102-.03734.01631-.04358-.01048l-.64111-2.75123c-.00624-.02678.00537-.06376.0258-.08216l1.98657-1.78994c.02043-.01841.04085-.01128.04537.01585l.40815,2.44716c.00452.02713-.00628.06652-.02401.08754l-1.75718,2.08327Z" style="fill:#93b7db;"/></g><g style="opacity:.5;"><path d="M41.60109,102.03641c-.02745.0016-.03753-.01587-.0224-.03883l1.55477-2.3586c.01514-.02296.04995-.03998.07737-.03783l2.6658.20935c.02742.00215.03629.02187.01973.04382l-1.49449,1.98032c-.01657.02195-.05258.04122-.08003.04283l-2.72075.15895Z" style="fill:#93b7db;"/></g><g style="opacity:.5;"><path d="M51.78528,97.47155c-.02561-.01001-.02748-.03009-.00414-.04463l2.39762-1.4939c.02334-.01454.06208-.01547.08609-.00207l2.33485,1.30338c.02401.0134.02384.03503-.00037.04806l-2.18489,1.17535c-.02422.01303-.06499.0155-.09061.00549l-2.53856-.99168Z" style="fill:#93b7db;"/></g><g style="opacity:.5;"><path d="M48.4098,101.08871c-.01773.02102-.03734.01631-.04358-.01048l-.64111-2.75123c-.00624-.02678.00537-.06376.0258-.08216l1.98657-1.78994c.02043-.01841.04085-.01128.04537.01585l.40815,2.44716c.00452.02713-.00628.06652-.02401.08754l-1.75718,2.08327Z" style="fill:#93b7db;"/></g><g style="opacity:.5;"><path d="M45.3151,106.33856c-.02745.0016-.03753-.01587-.0224-.03883l1.55477-2.3586c.01514-.02296.04995-.03998.07737-.03783l2.6658.20935c.02742.00215.03629.02187.01973.04382l-1.49449,1.98032c-.01657.02195-.05258.04122-.08003.04283l-2.72075.15895Z" style="fill:#93b7db;"/></g></g></svg>