<?xml version="1.0" encoding="UTF-8"?><svg id="a" xmlns="http://www.w3.org/2000/svg" viewBox="0 0 141.8282 307.0791"><path d="M46.2798,30.2714c-3.9465,1.3151-4.4875,6.6901-.8804,8.762,4.0402,2.3206,8.0628,5.0165,8.0628,8.2748v27.7684c0,1.6236-1.1514,3.0155-2.7461,3.321-9.1875,1.7599-38.5702,9.3345-43.8572,34.8883-1.6831,8.135-2.2016,16.8148-2.0585,25.1638.3426,19.9962,4.6315,39.7263,12.3557,58.1736,7.3644,17.5878,18.4452,47.1633,20.1426,69.4573.3435,4.511-1.7281,8.8525-5.4011,11.4937-2.978,2.1414-5.577,4.4428-5.577,7.6377,0,5.4109,9.8617,17.3671,45.9924,17.3671,13.8687,0,23.9699-2.276,31.1524-5.0807,8.6323-3.3709,9.6762-15.1677,1.7564-19.9797-.1105-.0671-.2217-.1346-.3338-.2024-1.092-.6606-1.7177-1.8741-1.63-3.1474,1.1797-17.1152,19.2475-68.8947,26.6546-93.5962,2.6492-8.8346,12.829-44.247,3.6654-71.9995-7.5752-22.942-33.0721-28.7079-41.6835-30.0174-1.652-.2512-2.8689-1.671-2.8689-3.342v-27.2384c0-.4803.0999-.9522.2983-1.3897,1.0405-2.2953,12.5627-4.9099,12.5627-9.7701,0-5.302-5.8175-9.929-31.4063-9.929-11.0306,0-18.8976,1.6178-24.2005,3.3849Z" style="fill:#ddd7cc;"/><path d="M46.2798,30.2714c-3.9465,1.3151-4.4875,6.6901-.8804,8.762,4.0402,2.3206,8.0628,5.0165,8.0628,8.2748v27.7684c0,1.6236-1.1514,3.0155-2.7461,3.321-9.1875,1.7599-38.5702,9.3345-43.8572,34.8883-1.6831,8.135-2.2016,16.8148-2.0585,25.1638.3426,19.9962,4.6315,39.7263,12.3557,58.1736,7.3644,17.5878,18.4452,47.1633,20.1426,69.4573.3435,4.511-1.7281,8.8525-5.4011,11.4937-2.978,2.1414-5.577,4.4428-5.577,7.6377,0,5.4109,9.8617,17.3671,45.9924,17.3671,13.8687,0,23.9699-2.276,31.1524-5.0807,8.6323-3.3709,9.6762-15.1677,1.7564-19.9797-.1105-.0671-.2217-.1346-.3338-.2024-1.092-.6606-1.7177-1.8741-1.63-3.1474,1.1797-17.1152,19.2475-68.8947,26.6546-93.5962,2.6492-8.8346,12.829-44.247,3.6654-71.9995-7.5752-22.942-33.0721-28.7079-41.6835-30.0174-1.652-.2512-2.8689-1.671-2.8689-3.342v-27.2384c0-.4803.0999-.9522.2983-1.3897,1.0405-2.2953,12.5627-4.9099,12.5627-9.7701,0-5.302-5.8175-9.929-31.4063-9.929-11.0306,0-18.8976,1.6178-24.2005,3.3849Z" style="fill:none; stroke:#ddd7cc; stroke-miterlimit:10; stroke-width:9px;"/><path d="M33.3287,272.7757c18.1731,2.3131,35.7681,5.2446,53.9282,3.2597,5.917-.5629,11.7539-1.8032,18.0908-3.2597-18.1108,18.6358-52.8993,15.6436-72.019,0h0Z" style="fill:#ceb53a;"/><path d="M56.5979,26.1877v-6.6763s-6.48-.3273-6.48-8.0509,10.3199-6.9381,10.3199-6.9381h25.4822c2.4861,0,4.9328,1.0795,6.349,3.1227.7207,1.0397,1.2448,2.3795,1.2448,4.0772,0,5.4327-4.9745,7.7236-4.9745,7.7236l-.3273,6.9381-31.6143-.1964Z" style="fill:#ceb53a; stroke:#ceb53a; stroke-miterlimit:10; stroke-width:9px;"/><path d="M113.4161,92.0743c4.6071,1.0935,8.4067,4.6262,11.2031,8.3366,5.2832,7.0826,7.4137,16.0193,8.1318,24.6934.4014,7.9267-.4057,15.9008-2.6265,23.5222-.8141-7.4498-1.1459-15.6107-2.0933-23.06-.2065-1.2572-.7146-4.3702-.8714-5.5855-.2476-1.221-.916-4.2194-1.1714-5.4851-2.2572-8.3312-5.4836-16.9805-12.5723-22.4216h0Z" style="fill:#f4c892;"/><path d="M29.1085,91.7191c-7.0877,5.4414-10.3155,14.0902-12.5718,22.4216-.2589,1.2791-.9206,4.2445-1.1714,5.4851-.1554,1.2069-.6687,4.3504-.8716,5.5856-.9474,7.4542-1.2784,15.5974-2.093,23.06-2.5392-8.8697-3.3964-18.3342-2.1882-27.5054.9389-7.3401,3.2544-14.7075,7.6933-20.7105,2.7964-3.7101,6.5964-7.243,11.2027-8.3364h0Z" style="fill:#f4c892;"/><path d="M55.6544,48.2481c5.2157,5.1043,5.8984,13.4041,3.8933,20.0883-.6961,2.2788-1.8075,4.4437-3.3547,6.2745-.4343-2.3458-.4265-4.5504-.5357-6.8428-.0872-6.4387-.135-13.011-.0029-19.52h0Z" style="fill:#f4c892;"/><path d="M87.0123,48.4705c.1318,6.5063.0844,13.0833-.0034,19.52-.1086,2.293-.1013,4.4963-.5352,6.8428-1.5478-1.8304-2.6582-3.996-3.355-6.2742-2.0049-6.6846-1.3223-14.9838,3.8936-20.0886h0Z" style="fill:#f4c892;"/><path d="M13.9983,170.1852s56.7757-4.6761,109.3541-.2577c-6.6275,8.8367-10.3831,11.0459-10.3831,11.0459l-98.971-10.7881" style="fill:#f4c892;"/><path d="M13.9983,170.1852s28.167-11.5982,53.3515,0c25.1846,11.5982,56.6653-.6628,56.6653-.6628,0,0-23.8591,72.5713-23.8591,98.0873-24.5218,12.2609-56.9967,1.3255-56.9967,1.3255,0,0,1.6569-36.7827-29.1611-98.75Z" style="fill:#fe9e07;"/><path d="M79.0124,134.3428c.047,2.7911-2.6993,4.1599-5.2315,3.9436-2.6624-.2275-4.523-2.546-4.2136-5.2776.2139-1.8883.2695-3.7257.2121-5.6319-3.6268-.3396-7.5822,1.3542-9.7254-1.1934-1.6024-1.9048-1.5992-4.9564.1162-6.717,2.3581-2.4201,5.9527-.7827,9.6316-1.1058.0235-1.9384-.01-3.7578-.2374-5.6695-.3434-2.8867,1.8162-5.215,4.7315-5.2555,2.1943-.0305,4.3874,1.324,4.685,3.5984l-.0143,3.7728-.1372,3.57c1.8052.0266,3.5446-.0505,5.4027-.261,2.4048-.2724,4.8307.8183,5.3905,3.3598.1852.8406.1922,2.142-.0298,2.9715-.6746,2.5204-3.1785,3.4488-5.6048,3.1607-1.7727-.2105-3.4235-.3271-5.1635-.2411l.1225,3.0949.0654,3.8811Z" style="fill:#fe9e07;"/><g style="opacity:.5;"><g style="opacity:.5;"><path d="M27.6137,92.3174c-.0256-.01-.0275-.0301-.0041-.0446l2.3976-1.4939c.0233-.0145.0621-.0155.0861-.0021l2.3349,1.3034c.024.0134.0238.035-.0004.0481l-2.1849,1.1753c-.0242.013-.065.0155-.0906.0055l-2.5386-.9917Z" style="fill:#93b7db;"/></g><g style="opacity:.5;"><path d="M24.2383,95.9346c-.0177.021-.0373.0163-.0436-.0105l-.6411-2.7512c-.0062-.0268.0054-.0638.0258-.0822l1.9866-1.7899c.0204-.0184.0408-.0113.0454.0158l.4081,2.4472c.0045.0271-.0063.0665-.024.0875l-1.7572,2.0833Z" style="fill:#93b7db;"/></g><g style="opacity:.5;"><path d="M21.1436,101.1844c-.0275.0016-.0375-.0159-.0224-.0388l1.5548-2.3586c.0151-.023.0499-.04.0774-.0378l2.6658.2093c.0274.0022.0363.0219.0197.0438l-1.4945,1.9803c-.0166.022-.0526.0412-.08.0428l-2.7207.1589Z" style="fill:#93b7db;"/></g><g style="opacity:.5;"><path d="M31.3278,96.6196c-.0256-.01-.0275-.0301-.0041-.0446l2.3976-1.4939c.0233-.0145.0621-.0155.0861-.0021l2.3349,1.3034c.024.0134.0238.035-.0004.0481l-2.1849,1.1753c-.0242.013-.065.0155-.0906.0055l-2.5386-.9917Z" style="fill:#93b7db;"/></g><g style="opacity:.5;"><path d="M27.9523,100.2367c-.0177.021-.0373.0163-.0436-.0105l-.6411-2.7512c-.0062-.0268.0054-.0638.0258-.0822l1.9866-1.7899c.0204-.0184.0408-.0113.0454.0158l.4081,2.4472c.0045.0271-.0063.0665-.024.0875l-1.7572,2.0833Z" style="fill:#93b7db;"/></g><g style="opacity:.5;"><path d="M24.8576,105.4866c-.0275.0016-.0375-.0159-.0224-.0388l1.5548-2.3586c.0151-.023.0499-.04.0774-.0378l2.6658.2093c.0274.0022.0363.0219.0197.0438l-1.4945,1.9803c-.0166.022-.0526.0412-.08.0428l-2.7207.1589Z" style="fill:#93b7db;"/></g><g style="opacity:.5;"><path d="M27.4292,113.4886c-.0256-.01-.0275-.0301-.0041-.0446l2.3976-1.4939c.0233-.0145.0621-.0155.0861-.0021l2.3349,1.3034c.024.0134.0238.035-.0004.0481l-2.1849,1.1753c-.0242.013-.065.0155-.0906.0055l-2.5386-.9917Z" style="fill:#93b7db;"/></g><g style="opacity:.5;"><path d="M24.0537,117.1057c-.0177.021-.0373.0163-.0436-.0105l-.6411-2.7512c-.0062-.0268.0054-.0638.0258-.0822l1.9866-1.7899c.0204-.0184.0408-.0113.0454.0158l.4081,2.4472c.0045.0271-.0063.0665-.024.0875l-1.7572,2.0833Z" style="fill:#93b7db;"/></g><g style="opacity:.5;"><path d="M20.959,122.3556c-.0275.0016-.0375-.0159-.0224-.0388l1.5548-2.3586c.0151-.023.0499-.04.0774-.0378l2.6658.2093c.0274.0022.0363.0219.0197.0438l-1.4945,1.9803c-.0166.022-.0526.0412-.08.0428l-2.7207.1589Z" style="fill:#93b7db;"/></g><g style="opacity:.5;"><path d="M31.1432,117.7907c-.0256-.01-.0275-.0301-.0041-.0446l2.3976-1.4939c.0233-.0145.0621-.0155.0861-.0021l2.3349,1.3034c.024.0134.0238.035-.0004.0481l-2.1849,1.1753c-.0242.013-.065.0155-.0906.0055l-2.5386-.9917Z" style="fill:#93b7db;"/></g><g style="opacity:.5;"><path d="M27.7677,121.4079c-.0177.021-.0373.0163-.0436-.0105l-.6411-2.7512c-.0062-.0268.0054-.0638.0258-.0822l1.9866-1.7899c.0204-.0184.0408-.0113.0454.0158l.4081,2.4472c.0045.0271-.0063.0665-.024.0875l-1.7572,2.0833Z" style="fill:#93b7db;"/></g><g style="opacity:.5;"><path d="M24.673,126.6577c-.0275.0016-.0375-.0159-.0224-.0388l1.5548-2.3586c.0151-.023.0499-.04.0774-.0378l2.6658.2093c.0274.0022.0363.0219.0197.0438l-1.4945,1.9803c-.0166.022-.0526.0412-.08.0428l-2.7207.1589Z" style="fill:#93b7db;"/></g><g style="opacity:.5;"><path d="M19.539,104.7662c-.0256-.01-.0275-.0301-.0041-.0446l2.3976-1.4939c.0233-.0145.0621-.0155.0861-.0021l2.3349,1.3034c.024.0134.0238.035-.0004.0481l-2.1849,1.1753c-.0242.013-.065.0155-.0906.0055l-2.5386-.9917Z" style="fill:#93b7db;"/></g><g style="opacity:.5;"><path d="M16.1635,108.3833c-.0177.021-.0373.0163-.0436-.0105l-.6411-2.7512c-.0062-.0268.0054-.0638.0258-.0822l1.9866-1.7899c.0204-.0184.0408-.0113.0454.0158l.4081,2.4472c.0045.0271-.0063.0665-.024.0875l-1.7572,2.0833Z" style="fill:#93b7db;"/></g><g style="opacity:.5;"><path d="M13.0688,113.6332c-.0275.0016-.0375-.0159-.0224-.0388l1.5548-2.3586c.0151-.023.0499-.04.0774-.0378l2.6658.2093c.0274.0022.0363.0219.0197.0438l-1.4945,1.9803c-.0166.022-.0526.0412-.08.0428l-2.7207.1589Z" style="fill:#93b7db;"/></g><g style="opacity:.5;"><path d="M23.253,109.0683c-.0256-.01-.0275-.0301-.0041-.0446l2.3976-1.4939c.0233-.0145.0621-.0155.0861-.0021l2.3349,1.3034c.024.0134.0238.035-.0004.0481l-2.1849,1.1753c-.0242.013-.065.0155-.0906.0055l-2.5386-.9917Z" style="fill:#93b7db;"/></g><g style="opacity:.5;"><path d="M19.8775,112.6855c-.0177.021-.0373.0163-.0436-.0105l-.6411-2.7512c-.0062-.0268.0054-.0638.0258-.0822l1.9866-1.7899c.0204-.0184.0408-.0113.0454.0158l.4081,2.4472c.0045.0271-.0063.0665-.024.0875l-1.7572,2.0833Z" style="fill:#93b7db;"/></g><g style="opacity:.5;"><path d="M16.7828,117.9353c-.0275.0016-.0375-.0159-.0224-.0388l1.5548-2.3586c.0151-.023.0499-.04.0774-.0378l2.6658.2093c.0274.0022.0363.0219.0197.0438l-1.4945,1.9803c-.0166.022-.0526.0412-.08.0428l-2.7207.1589Z" style="fill:#93b7db;"/></g><g style="opacity:.5;"><path d="M36.3696,100.4927c-.0256-.01-.0275-.0301-.0041-.0446l2.3976-1.4939c.0233-.0145.0621-.0155.0861-.0021l2.3349,1.3034c.024.0134.0238.035-.0004.0481l-2.1849,1.1753c-.0242.013-.065.0155-.0906.0055l-2.5386-.9917Z" style="fill:#93b7db;"/></g><g style="opacity:.5;"><path d="M32.9941,104.1099c-.0177.021-.0373.0163-.0436-.0105l-.6411-2.7512c-.0062-.0268.0054-.0638.0258-.0822l1.9866-1.7899c.0204-.0184.0408-.0113.0454.0158l.4081,2.4472c.0045.0271-.0063.0665-.024.0875l-1.7572,2.0833Z" style="fill:#93b7db;"/></g><g style="opacity:.5;"><path d="M29.8994,109.3598c-.0275.0016-.0375-.0159-.0224-.0388l1.5548-2.3586c.0151-.023.0499-.04.0774-.0378l2.6658.2093c.0274.0022.0363.0219.0197.0438l-1.4945,1.9803c-.0166.022-.0526.0412-.08.0428l-2.7207.1589Z" style="fill:#93b7db;"/></g><g style="opacity:.5;"><path d="M40.0836,104.7949c-.0256-.01-.0275-.0301-.0041-.0446l2.3976-1.4939c.0233-.0145.0621-.0155.0861-.0021l2.3349,1.3034c.024.0134.0238.035-.0004.0481l-2.1849,1.1753c-.0242.013-.065.0155-.0906.0055l-2.5386-.9917Z" style="fill:#93b7db;"/></g><g style="opacity:.5;"><path d="M36.7081,108.4121c-.0177.021-.0373.0163-.0436-.0105l-.6411-2.7512c-.0062-.0268.0054-.0638.0258-.0822l1.9866-1.7899c.0204-.0184.0408-.0113.0454.0158l.4081,2.4472c.0045.0271-.0063.0665-.024.0875l-1.7572,2.0833Z" style="fill:#93b7db;"/></g><g style="opacity:.5;"><path d="M33.6134,113.6619c-.0275.0016-.0375-.0159-.0224-.0388l1.5548-2.3586c.0151-.023.0499-.04.0774-.0378l2.6658.2093c.0274.0022.0363.0219.0197.0438l-1.4945,1.9803c-.0166.022-.0526.0412-.08.0428l-2.7207.1589Z" style="fill:#93b7db;"/></g><g style="opacity:.5;"><path d="M12.4687,96.423c-.0256-.01-.0275-.0301-.0041-.0446l2.3976-1.4939c.0233-.0145.0621-.0155.0861-.0021l2.3349,1.3034c.024.0134.0238.035-.0004.0481l-2.1849,1.1753c-.0242.013-.065.0155-.0906.0055l-2.5386-.9917Z" style="fill:#93b7db;"/></g><g style="opacity:.5;"><path d="M9.0932,100.0402c-.0177.021-.0373.0163-.0436-.0105l-.6411-2.7512c-.0062-.0268.0054-.0638.0258-.0822l1.9866-1.7899c.0204-.0184.0408-.0113.0454.0158l.4081,2.4472c.0045.0271-.0063.0665-.024.0875l-1.7572,2.0833Z" style="fill:#93b7db;"/></g><g style="opacity:.5;"><path d="M5.9985,105.2901c-.0275.0016-.0375-.0159-.0224-.0388l1.5548-2.3586c.0151-.023.0499-.04.0774-.0378l2.6658.2093c.0274.0022.0363.0219.0197.0438l-1.4945,1.9803c-.0166.022-.0526.0412-.08.0428l-2.7207.1589Z" style="fill:#93b7db;"/></g><g style="opacity:.5;"><path d="M16.1827,100.7252c-.0256-.01-.0275-.0301-.0041-.0446l2.3976-1.4939c.0233-.0145.0621-.0155.0861-.0021l2.3349,1.3034c.024.0134.0238.035-.0004.0481l-2.1849,1.1753c-.0242.013-.065.0155-.0906.0055l-2.5386-.9917Z" style="fill:#93b7db;"/></g><g style="opacity:.5;"><path d="M12.8072,104.3424c-.0177.021-.0373.0163-.0436-.0105l-.6411-2.7512c-.0062-.0268.0054-.0638.0258-.0822l1.9866-1.7899c.0204-.0184.0408-.0113.0454.0158l.4081,2.4472c.0045.0271-.0063.0665-.024.0875l-1.7572,2.0833Z" style="fill:#93b7db;"/></g><g style="opacity:.5;"><path d="M9.7125,109.5922c-.0275.0016-.0375-.0159-.0224-.0388l1.5548-2.3586c.0151-.023.0499-.04.0774-.0378l2.6658.2093c.0274.0022.0363.0219.0197.0438l-1.4945,1.9803c-.0166.022-.0526.0412-.08.0428l-2.7207.1589Z" style="fill:#93b7db;"/></g><g style="opacity:.5;"><path d="M14.119,91.9149c-.0275.0016-.0375-.0159-.0224-.0388l1.5548-2.3586c.0151-.023.0499-.04.0774-.0378l2.6658.2093c.0274.0022.0363.0219.0197.0438l-1.4945,1.9803c-.0166.022-.0526.0412-.08.0428l-2.7207.1589Z" style="fill:#93b7db;"/></g><g style="opacity:.5;"><path d="M24.3032,87.3501c-.0256-.01-.0275-.0301-.0041-.0446l2.3976-1.4939c.0233-.0145.0621-.0155.0861-.0021l2.3349,1.3034c.024.0134.0238.035-.0004.0481l-2.1849,1.1753c-.0242.013-.065.0155-.0906.0055l-2.5386-.9917Z" style="fill:#93b7db;"/></g><g style="opacity:.5;"><path d="M20.9277,90.9673c-.0177.021-.0373.0163-.0436-.0105l-.6411-2.7512c-.0062-.0268.0054-.0638.0258-.0822l1.9866-1.7899c.0204-.0184.0408-.0113.0454.0158l.4081,2.4472c.0045.0271-.0063.0665-.024.0875l-1.7572,2.0833Z" style="fill:#93b7db;"/></g><g style="opacity:.5;"><path d="M17.833,96.2171c-.0275.0016-.0375-.0159-.0224-.0388l1.5548-2.3586c.0151-.023.0499-.04.0774-.0378l2.6658.2093c.0274.0022.0363.0219.0197.0438l-1.4945,1.9803c-.0166.022-.0526.0412-.08.0428l-2.7207.1589Z" style="fill:#93b7db;"/></g><g style="opacity:.5;"><path d="M2.7856,109.5347c-.0256-.01-.0275-.0301-.0041-.0446l2.3976-1.4939c.0233-.0145.0621-.0155.0861-.0021l2.3349,1.3034c.024.0134.0238.035-.0004.0481l-2.1849,1.1753c-.0242.013-.065.0155-.0906.0055l-2.5386-.9917Z" style="fill:#93b7db;"/></g><g style="opacity:.5;"><path d="M6.4996,113.8369c-.0256-.01-.0275-.0301-.0041-.0446l2.3976-1.4939c.0233-.0145.0621-.0155.0861-.0021l2.3349,1.3034c.024.0134.0238.035-.0004.0481l-2.1849,1.1753c-.0242.013-.065.0155-.0906.0055l-2.5386-.9917Z" style="fill:#93b7db;"/></g><g style="opacity:.5;"><path d="M3.1241,117.454c-.0177.021-.0373.0163-.0436-.0105l-.6411-2.7512c-.0062-.0268.0054-.0638.0258-.0822l1.9866-1.7899c.0204-.0184.0408-.0113.0454.0158l.4081,2.4472c.0045.0271-.0063.0665-.024.0875l-1.7572,2.0833Z" style="fill:#93b7db;"/></g><g style="opacity:.5;"><path d="M.0294,122.7039c-.0275.0016-.0375-.0159-.0224-.0388l1.5548-2.3586c.0151-.023.0499-.04.0774-.0378l2.6658.2093c.0274.0022.0363.0219.0197.0438l-1.4945,1.9803c-.0166.022-.0526.0412-.08.0428l-2.7207.1589Z" style="fill:#93b7db;"/></g><g style="opacity:.5;"><path d="M10.4805,118.2242c-.0256-.01-.0275-.0301-.0041-.0446l2.3976-1.4939c.0233-.0145.0621-.0155.0861-.0021l2.3349,1.3034c.024.0134.0238.035-.0004.0481l-2.1849,1.1753c-.0242.013-.065.0155-.0906.0055l-2.5386-.9917Z" style="fill:#93b7db;"/></g><g style="opacity:.5;"><path d="M7.105,121.8414c-.0177.021-.0373.0163-.0436-.0105l-.6411-2.7512c-.0062-.0268.0054-.0638.0258-.0822l1.9866-1.7899c.0204-.0184.0408-.0113.0454.0158l.4081,2.4472c.0045.0271-.0063.0665-.024.0875l-1.7572,2.0833Z" style="fill:#93b7db;"/></g><g style="opacity:.5;"><path d="M4.0103,127.0912c-.0275.0016-.0375-.0159-.0224-.0388l1.5548-2.3586c.0151-.023.0499-.04.0774-.0378l2.6658.2093c.0274.0022.0363.0219.0197.0438l-1.4945,1.9803c-.0166.022-.0526.0412-.08.0428l-2.7207.1589Z" style="fill:#93b7db;"/></g><g style="opacity:.5;"><path d="M14.1945,122.5263c-.0256-.01-.0275-.0301-.0041-.0446l2.3976-1.4939c.0233-.0145.0621-.0155.0861-.0021l2.3349,1.3034c.024.0134.0238.035-.0004.0481l-2.1849,1.1753c-.0242.013-.065.0155-.0906.0055l-2.5386-.9917Z" style="fill:#93b7db;"/></g><g style="opacity:.5;"><path d="M10.819,126.1435c-.0177.021-.0373.0163-.0436-.0105l-.6411-2.7512c-.0062-.0268.0054-.0638.0258-.0822l1.9866-1.7899c.0204-.0184.0408-.0113.0454.0158l.4081,2.4472c.0045.0271-.0063.0665-.024.0875l-1.7572,2.0833Z" style="fill:#93b7db;"/></g><g style="opacity:.5;"><path d="M7.7243,131.3934c-.0275.0016-.0375-.0159-.0224-.0388l1.5548-2.3586c.0151-.023.0499-.04.0774-.0378l2.6658.2093c.0274.0022.0363.0219.0197.0438l-1.4945,1.9803c-.0166.022-.0526.0412-.08.0428l-2.7207.1589Z" style="fill:#93b7db;"/></g><g style="opacity:.5;"><path d="M18.2276,126.8421c-.0256-.01-.0275-.0301-.0041-.0446l2.3976-1.4939c.0233-.0145.0621-.0155.0861-.0021l2.3349,1.3034c.024.0134.0238.035-.0004.0481l-2.1849,1.1753c-.0242.013-.065.0155-.0906.0055l-2.5386-.9917Z" style="fill:#93b7db;"/></g><g style="opacity:.5;"><path d="M14.8521,130.4593c-.0177.021-.0373.0163-.0436-.0105l-.6411-2.7512c-.0062-.0268.0054-.0638.0258-.0822l1.9866-1.7899c.0204-.0184.0408-.0113.0454.0158l.4081,2.4472c.0045.0271-.0063.0665-.024.0875l-1.7572,2.0833Z" style="fill:#93b7db;"/></g><g style="opacity:.5;"><path d="M11.7574,135.7091c-.0275.0016-.0375-.0159-.0224-.0388l1.5548-2.3586c.0151-.023.0499-.04.0774-.0378l2.6658.2093c.0274.0022.0363.0219.0197.0438l-1.4945,1.9803c-.0166.022-.0526.0412-.08.0428l-2.7207.1589Z" style="fill:#93b7db;"/></g><g style="opacity:.5;"><path d="M21.9416,131.1443c-.0256-.01-.0275-.0301-.0041-.0446l2.3976-1.4939c.0233-.0145.0621-.0155.0861-.0021l2.3349,1.3034c.024.0134.0238.035-.0004.0481l-2.1849,1.1753c-.0242.013-.065.0155-.0906.0055l-2.5386-.9917Z" style="fill:#93b7db;"/></g><g style="opacity:.5;"><path d="M18.5661,134.7614c-.0177.021-.0373.0163-.0436-.0105l-.6411-2.7512c-.0062-.0268.0054-.0638.0258-.0822l1.9866-1.7899c.0204-.0184.0408-.0113.0454.0158l.4081,2.4472c.0045.0271-.0063.0665-.024.0875l-1.7572,2.0833Z" style="fill:#93b7db;"/></g><g style="opacity:.5;"><path d="M57.4574,58.6447c-.0256-.01-.0275-.0301-.0041-.0446l2.3976-1.4939c.0233-.0145.0621-.0155.0861-.0021l2.3349,1.3034c.024.0134.0238.035-.0004.0481l-2.1849,1.1753c-.0242.013-.065.0155-.0906.0055l-2.5386-.9917Z" style="fill:#93b7db;"/></g><g style="opacity:.5;"><path d="M54.0819,62.2619c-.0177.021-.0373.0163-.0436-.0105l-.6411-2.7512c-.0062-.0268.0054-.0638.0258-.0822l1.9866-1.7899c.0204-.0184.0408-.0113.0454.0158l.4081,2.4472c.0045.0271-.0063.0665-.024.0875l-1.7572,2.0833Z" style="fill:#93b7db;"/></g><g style="opacity:.5;"><path d="M50.9872,67.5117c-.0275.0016-.0375-.0159-.0224-.0388l1.5548-2.3586c.0151-.023.0499-.04.0774-.0378l2.6658.2093c.0274.0022.0363.0219.0197.0438l-1.4945,1.9803c-.0166.022-.0526.0412-.08.0428l-2.7207.1589Z" style="fill:#93b7db;"/></g><g style="opacity:.5;"><path d="M61.1714,62.9468c-.0256-.01-.0275-.0301-.0041-.0446l2.3976-1.4939c.0233-.0145.0621-.0155.0861-.0021l2.3349,1.3034c.024.0134.0238.035-.0004.0481l-2.1849,1.1753c-.0242.013-.065.0155-.0906.0055l-2.5386-.9917Z" style="fill:#93b7db;"/></g><g style="opacity:.5;"><path d="M57.7959,66.564c-.0177.021-.0373.0163-.0436-.0105l-.6411-2.7512c-.0062-.0268.0054-.0638.0258-.0822l1.9866-1.7899c.0204-.0184.0408-.0113.0454.0158l.4081,2.4472c.0045.0271-.0063.0665-.024.0875l-1.7572,2.0833Z" style="fill:#93b7db;"/></g><g style="opacity:.5;"><path d="M54.7012,71.8139c-.0275.0016-.0375-.0159-.0224-.0388l1.5548-2.3586c.0151-.023.0499-.04.0774-.0378l2.6658.2093c.0274.0022.0363.0219.0197.0438l-1.4945,1.9803c-.0166.022-.0526.0412-.08.0428l-2.7207.1589Z" style="fill:#93b7db;"/></g><g style="opacity:.5;"><path d="M57.2728,79.8158c-.0256-.01-.0275-.0301-.0041-.0446l2.3976-1.4939c.0233-.0145.0621-.0155.0861-.0021l2.3349,1.3034c.024.0134.0238.035-.0004.0481l-2.1849,1.1753c-.0242.013-.065.0155-.0906.0055l-2.5386-.9917Z" style="fill:#93b7db;"/></g><g style="opacity:.5;"><path d="M53.8974,83.433c-.0177.021-.0373.0163-.0436-.0105l-.6411-2.7512c-.0062-.0268.0054-.0638.0258-.0822l1.9866-1.7899c.0204-.0184.0408-.0113.0454.0158l.4081,2.4472c.0045.0271-.0063.0665-.024.0875l-1.7572,2.0833Z" style="fill:#93b7db;"/></g><g style="opacity:.5;"><path d="M50.8026,88.6829c-.0275.0016-.0375-.0159-.0224-.0388l1.5548-2.3586c.0151-.023.0499-.04.0774-.0378l2.6658.2093c.0274.0022.0363.0219.0197.0438l-1.4945,1.9803c-.0166.022-.0526.0412-.08.0428l-2.7207.1589Z" style="fill:#93b7db;"/></g><g style="opacity:.5;"><path d="M60.9868,84.118c-.0256-.01-.0275-.0301-.0041-.0446l2.3976-1.4939c.0233-.0145.0621-.0155.0861-.0021l2.3349,1.3034c.024.0134.0238.035-.0004.0481l-2.1849,1.1753c-.0242.013-.065.0155-.0906.0055l-2.5386-.9917Z" style="fill:#93b7db;"/></g><g style="opacity:.5;"><path d="M57.6114,87.7352c-.0177.021-.0373.0163-.0436-.0105l-.6411-2.7512c-.0062-.0268.0054-.0638.0258-.0822l1.9866-1.7899c.0204-.0184.0408-.0113.0454.0158l.4081,2.4472c.0045.0271-.0063.0665-.024.0875l-1.7572,2.0833Z" style="fill:#93b7db;"/></g><g style="opacity:.5;"><path d="M54.5167,92.985c-.0275.0016-.0375-.0159-.0224-.0388l1.5548-2.3586c.0151-.023.0499-.04.0774-.0378l2.6658.2093c.0274.0022.0363.0219.0197.0438l-1.4945,1.9803c-.0166.022-.0526.0412-.08.0428l-2.7207.1589Z" style="fill:#93b7db;"/></g><g style="opacity:.5;"><path d="M49.3826,71.0934c-.0256-.01-.0275-.0301-.0041-.0446l2.3976-1.4939c.0233-.0145.0621-.0155.0861-.0021l2.3349,1.3034c.024.0134.0238.035-.0004.0481l-2.1849,1.1753c-.0242.013-.065.0155-.0906.0055l-2.5386-.9917Z" style="fill:#93b7db;"/></g><g style="opacity:.5;"><path d="M42.9124,79.9605c-.0275.0016-.0375-.0159-.0224-.0388l1.5548-2.3586c.0151-.023.0499-.04.0774-.0378l2.6658.2093c.0274.0022.0363.0219.0197.0438l-1.4945,1.9803c-.0166.022-.0526.0412-.08.0428l-2.7207.1589Z" style="fill:#93b7db;"/></g><g style="opacity:.5;"><path d="M53.0966,75.3956c-.0256-.01-.0275-.0301-.0041-.0446l2.3976-1.4939c.0233-.0145.0621-.0155.0861-.0021l2.3349,1.3034c.024.0134.0238.035-.0004.0481l-2.1849,1.1753c-.0242.013-.065.0155-.0906.0055l-2.5386-.9917Z" style="fill:#93b7db;"/></g><g style="opacity:.5;"><path d="M49.7212,79.0128c-.0177.021-.0373.0163-.0436-.0105l-.6411-2.7512c-.0062-.0268.0054-.0638.0258-.0822l1.9866-1.7899c.0204-.0184.0408-.0113.0454.0158l.4081,2.4472c.0045.0271-.0063.0665-.024.0875l-1.7572,2.0833Z" style="fill:#93b7db;"/></g><g style="opacity:.5;"><path d="M46.6265,84.2626c-.0275.0016-.0375-.0159-.0224-.0388l1.5548-2.3586c.0151-.023.0499-.04.0774-.0378l2.6658.2093c.0274.0022.0363.0219.0197.0438l-1.4945,1.9803c-.0166.022-.0526.0412-.08.0428l-2.7207.1589Z" style="fill:#93b7db;"/></g><g style="opacity:.5;"><path d="M62.8377,70.4372c-.0177.021-.0373.0163-.0436-.0105l-.6411-2.7512c-.0062-.0268.0054-.0638.0258-.0822l1.9866-1.7899c.0204-.0184.0408-.0113.0454.0158l.4081,2.4472c.0045.0271-.0063.0665-.024.0875l-1.7572,2.0833Z" style="fill:#93b7db;"/></g><g style="opacity:.5;"><path d="M59.743,75.687c-.0275.0016-.0375-.0159-.0224-.0388l1.5548-2.3586c.0151-.023.0499-.04.0774-.0378l2.6658.2093c.0274.0022.0363.0219.0197.0438l-1.4945,1.9803c-.0166.022-.0526.0412-.08.0428l-2.7207.1589Z" style="fill:#93b7db;"/></g><g style="opacity:.5;"><path d="M66.5517,74.7393c-.0177.021-.0373.0163-.0436-.0105l-.6411-2.7512c-.0062-.0268.0054-.0638.0258-.0822l1.9866-1.7899c.0204-.0184.0408-.0113.0454.0158l.4081,2.4472c.0045.0271-.0063.0665-.024.0875l-1.7572,2.0833Z" style="fill:#93b7db;"/></g><g style="opacity:.5;"><path d="M63.457,79.9892c-.0275.0016-.0375-.0159-.0224-.0388l1.5548-2.3586c.0151-.023.0499-.04.0774-.0378l2.6658.2093c.0274.0022.0363.0219.0197.0438l-1.4945,1.9803c-.0166.022-.0526.0412-.08.0428l-2.7207.1589Z" style="fill:#93b7db;"/></g><g style="opacity:.5;"><path d="M50.4328,49.3752c-.0256-.01-.0275-.0301-.0041-.0446l2.3976-1.4939c.0233-.0145.0621-.0155.0861-.0021l2.3349,1.3034c.024.0134.0238.035-.0004.0481l-2.1849,1.1753c-.0242.013-.065.0155-.0906.0055l-2.5386-.9917Z" style="fill:#93b7db;"/></g><g style="opacity:.5;"><path d="M54.1468,53.6774c-.0256-.01-.0275-.0301-.0041-.0446l2.3976-1.4939c.0233-.0145.0621-.0155.0861-.0021l2.3349,1.3034c.024.0134.0238.035-.0004.0481l-2.1849,1.1753c-.0242.013-.065.0155-.0906.0055l-2.5386-.9917Z" style="fill:#93b7db;"/></g><g style="opacity:.5;"><path d="M50.7713,57.2945c-.0177.021-.0373.0163-.0436-.0105l-.6411-2.7512c-.0062-.0268.0054-.0638.0258-.0822l1.9866-1.7899c.0204-.0184.0408-.0113.0454.0158l.4081,2.4472c.0045.0271-.0063.0665-.024.0875l-1.7572,2.0833Z" style="fill:#93b7db;"/></g><g style="opacity:.5;"><path d="M47.6766,62.5444c-.0275.0016-.0375-.0159-.0224-.0388l1.5548-2.3586c.0151-.023.0499-.04.0774-.0378l2.6658.2093c.0274.0022.0363.0219.0197.0438l-1.4945,1.9803c-.0166.022-.0526.0412-.08.0428l-2.7207.1589Z" style="fill:#93b7db;"/></g><g style="opacity:.5;"><path d="M26.1591,84.729c-.0275.0016-.0375-.0159-.0224-.0388l1.5548-2.3586c.0151-.023.0499-.04.0774-.0378l2.6658.2093c.0274.0022.0363.0219.0197.0438l-1.4945,1.9803c-.0166.022-.0526.0412-.08.0428l-2.7207.1589Z" style="fill:#93b7db;"/></g><g style="opacity:.5;"><path d="M36.3433,80.1641c-.0256-.01-.0275-.0301-.0041-.0446l2.3976-1.4939c.0233-.0145.0621-.0155.0861-.0021l2.3349,1.3034c.024.0134.0238.035-.0004.0481l-2.1849,1.1753c-.0242.013-.065.0155-.0906.0055l-2.5386-.9917Z" style="fill:#93b7db;"/></g><g style="opacity:.5;"><path d="M32.9678,83.7813c-.0177.021-.0373.0163-.0436-.0105l-.6411-2.7512c-.0062-.0268.0054-.0638.0258-.0822l1.9866-1.7899c.0204-.0184.0408-.0113.0454.0158l.4081,2.4472c.0045.0271-.0063.0665-.024.0875l-1.7572,2.0833Z" style="fill:#93b7db;"/></g><g style="opacity:.5;"><path d="M29.8731,89.0312c-.0275.0016-.0375-.0159-.0224-.0388l1.5548-2.3586c.0151-.023.0499-.04.0774-.0378l2.6658.2093c.0274.0022.0363.0219.0197.0438l-1.4945,1.9803c-.0166.022-.0526.0412-.08.0428l-2.7207.1589Z" style="fill:#93b7db;"/></g><g style="opacity:.5;"><path d="M40.3242,84.5515c-.0256-.01-.0275-.0301-.0041-.0446l2.3976-1.4939c.0233-.0145.0621-.0155.0861-.0021l2.3349,1.3034c.024.0134.0238.035-.0004.0481l-2.1849,1.1753c-.0242.013-.065.0155-.0906.0055l-2.5386-.9917Z" style="fill:#93b7db;"/></g><g style="opacity:.5;"><path d="M36.9487,88.1686c-.0177.021-.0373.0163-.0436-.0105l-.6411-2.7512c-.0062-.0268.0054-.0638.0258-.0822l1.9866-1.7899c.0204-.0184.0408-.0113.0454.0158l.4081,2.4472c.0045.0271-.0063.0665-.024.0875l-1.7572,2.0833Z" style="fill:#93b7db;"/></g><g style="opacity:.5;"><path d="M33.854,93.4185c-.0275.0016-.0375-.0159-.0224-.0388l1.5548-2.3586c.0151-.023.0499-.04.0774-.0378l2.6658.2093c.0274.0022.0363.0219.0197.0438l-1.4945,1.9803c-.0166.022-.0526.0412-.08.0428l-2.7207.1589Z" style="fill:#93b7db;"/></g><g style="opacity:.5;"><path d="M44.0382,88.8536c-.0256-.01-.0275-.0301-.0041-.0446l2.3976-1.4939c.0233-.0145.0621-.0155.0861-.0021l2.3349,1.3034c.024.0134.0238.035-.0004.0481l-2.1849,1.1753c-.0242.013-.065.0155-.0906.0055l-2.5386-.9917Z" style="fill:#93b7db;"/></g><g style="opacity:.5;"><path d="M40.6627,92.4708c-.0177.021-.0373.0163-.0436-.0105l-.6411-2.7512c-.0062-.0268.0054-.0638.0258-.0822l1.9866-1.7899c.0204-.0184.0408-.0113.0454.0158l.4081,2.4472c.0045.0271-.0063.0665-.024.0875l-1.7572,2.0833Z" style="fill:#93b7db;"/></g><g style="opacity:.5;"><path d="M37.568,97.7206c-.0275.0016-.0375-.0159-.0224-.0388l1.5548-2.3586c.0151-.023.0499-.04.0774-.0378l2.6658.2093c.0274.0022.0363.0219.0197.0438l-1.4945,1.9803c-.0166.022-.0526.0412-.08.0428l-2.7207.1589Z" style="fill:#93b7db;"/></g><g style="opacity:.5;"><path d="M48.0713,93.1694c-.0256-.01-.0275-.0301-.0041-.0446l2.3976-1.4939c.0233-.0145.0621-.0155.0861-.0021l2.3349,1.3034c.024.0134.0238.035-.0004.0481l-2.1849,1.1753c-.0242.013-.065.0155-.0906.0055l-2.5386-.9917Z" style="fill:#93b7db;"/></g><g style="opacity:.5;"><path d="M44.6958,96.7866c-.0177.021-.0373.0163-.0436-.0105l-.6411-2.7512c-.0062-.0268.0054-.0638.0258-.0822l1.9866-1.7899c.0204-.0184.0408-.0113.0454.0158l.4081,2.4472c.0045.0271-.0063.0665-.024.0875l-1.7572,2.0833Z" style="fill:#93b7db;"/></g><g style="opacity:.5;"><path d="M41.6011,102.0364c-.0275.0016-.0375-.0159-.0224-.0388l1.5548-2.3586c.0151-.023.0499-.04.0774-.0378l2.6658.2093c.0274.0022.0363.0219.0197.0438l-1.4945,1.9803c-.0166.022-.0526.0412-.08.0428l-2.7207.1589Z" style="fill:#93b7db;"/></g><g style="opacity:.5;"><path d="M51.7853,97.4715c-.0256-.01-.0275-.0301-.0041-.0446l2.3976-1.4939c.0233-.0145.0621-.0155.0861-.0021l2.3349,1.3034c.024.0134.0238.035-.0004.0481l-2.1849,1.1753c-.0242.013-.065.0155-.0906.0055l-2.5386-.9917Z" style="fill:#93b7db;"/></g><g style="opacity:.5;"><path d="M48.4098,101.0887c-.0177.021-.0373.0163-.0436-.0105l-.6411-2.7512c-.0062-.0268.0054-.0638.0258-.0822l1.9866-1.7899c.0204-.0184.0408-.0113.0454.0158l.4081,2.4472c.0045.0271-.0063.0665-.024.0875l-1.7572,2.0833Z" style="fill:#93b7db;"/></g><g style="opacity:.5;"><path d="M45.3151,106.3386c-.0275.0016-.0375-.0159-.0224-.0388l1.5548-2.3586c.0151-.023.0499-.04.0774-.0378l2.6658.2093c.0274.0022.0363.0219.0197.0438l-1.4945,1.9803c-.0166.022-.0526.0412-.08.0428l-2.7207.1589Z" style="fill:#93b7db;"/></g></g></svg>