<?xml version="1.0" encoding="UTF-8"?>
<svg id="Layer_1" data-name="Layer 1" xmlns="http://www.w3.org/2000/svg" viewBox="0 0 432 1044">
  <defs>
    <style>
      .cls-1 {
        fill: #cdb43a;
        stroke: #cdb43a;
      }

      .cls-1, .cls-2 {
        stroke-miterlimit: 10;
        stroke-width: 9px;
      }

      .cls-3 {
        fill: #e7e2d5;
      }

      .cls-4 {
        fill: #603813;
      }

      .cls-5 {
        fill: #92b6da;
      }

      .cls-6 {
        fill: #f3c791;
      }

      .cls-7 {
        fill: #e2e3e2;
      }

      .cls-8 {
        fill: #fd9d07;
      }

      .cls-9 {
        fill: #dcd6cb;
      }

      .cls-10 {
        opacity: .5;
      }

      .cls-2 {
        fill: none;
        stroke: #dcd6cb;
      }

      .cls-11 {
        fill: #c59b6d;
      }
    </style>
  </defs>
  <g>
    <path class="cls-9" d="M147.24,284.4c-8.94,2.98-10.17,15.16-1.99,19.86,9.16,5.26,18.27,11.37,18.27,18.75v62.93c0,3.68-2.61,6.83-6.22,7.53-20.82,3.99-87.4,21.15-99.39,79.06-3.81,18.43-4.99,38.1-4.66,57.02.78,45.31,10.5,90.02,28,131.83,16.69,39.86,41.8,106.88,45.65,157.4.78,10.22-3.92,20.06-12.24,26.05-6.75,4.85-12.64,10.07-12.64,17.31,0,12.26,22.35,39.36,104.22,39.36,31.43,0,54.32-5.16,70.59-11.51,19.56-7.64,21.93-34.37,3.98-45.28-.25-.15-.5-.3-.76-.46-2.47-1.5-3.89-4.25-3.69-7.13,2.67-38.78,43.62-156.12,60.4-212.1,6-20.02,29.07-100.27,8.31-163.16-17.17-51.99-74.94-65.06-94.46-68.02-3.74-.57-6.5-3.79-6.5-7.57v-61.73c0-1.09.23-2.16.68-3.15,2.36-5.2,28.47-11.13,28.47-22.14,0-12.01-13.18-22.5-71.17-22.5-25,0-42.82,3.67-54.84,7.67Z"/>
    <path class="cls-2" d="M147.24,284.4c-8.94,2.98-10.17,15.16-1.99,19.86,9.16,5.26,18.27,11.37,18.27,18.75v62.93c0,3.68-2.61,6.83-6.22,7.53-20.82,3.99-87.4,21.15-99.39,79.06-3.81,18.43-4.99,38.1-4.66,57.02.78,45.31,10.5,90.02,28,131.83,16.69,39.86,41.8,106.88,45.65,157.4.78,10.22-3.92,20.06-12.24,26.05-6.75,4.85-12.64,10.07-12.64,17.31,0,12.26,22.35,39.36,104.22,39.36,31.43,0,54.32-5.16,70.59-11.51,19.56-7.64,21.93-34.37,3.98-45.28-.25-.15-.5-.3-.76-.46-2.47-1.5-3.89-4.25-3.69-7.13,2.67-38.78,43.62-156.12,60.4-212.1,6-20.02,29.07-100.27,8.31-163.16-17.17-51.99-74.94-65.06-94.46-68.02-3.74-.57-6.5-3.79-6.5-7.57v-61.73c0-1.09.23-2.16.68-3.15,2.36-5.2,28.47-11.13,28.47-22.14,0-12.01-13.18-22.5-71.17-22.5-25,0-42.82,3.67-54.84,7.67Z"/>
  </g>
  <path class="cls-7" d="M117.89,833.94c39.43,13.65,82.16,21.14,123.52,13.31,13.69-2.58,26.95-7.19,39.68-13.31-17.56,12.03-38.74,18.76-59.95,20.71-35.03,3.1-72.06-4.61-103.25-20.71h0Z"/>
  <path class="cls-1" d="M170.62,275.15v-15.13s-14.68-.74-14.68-18.24,23.39-15.72,23.39-15.72h57.75c5.63,0,11.18,2.45,14.39,7.08,1.63,2.36,2.82,5.39,2.82,9.24,0,12.31-11.27,17.5-11.27,17.5l-.74,15.72-71.64-.44Z"/>
  <path class="cls-3" d="M299.38,424.45c22.02,8.43,34.08,35.72,38.32,57.45,4.61,23.27,3.79,47.47-.46,70.7.28-29.05.21-58.58-8.79-86.44-5.4-16.09-14.07-32.76-29.07-41.71h0Z"/>
  <path class="cls-3" d="M108.33,423.65c-6.36,3.56-11.41,9.02-15.76,14.77-5.93,8.14-10.19,17.39-13.32,26.94-9,27.86-9.07,57.39-8.79,86.44-4.49-24.68-5.21-50.51.5-75.08,4.76-20.42,16.62-45.14,37.36-53.08h0Z"/>
  <path class="cls-3" d="M168.48,325.14c10.98,16.58,10.03,42.38,1.22,59.74.19-3.88.69-7.58.96-11.41,1.45-16.16,1.17-32.36-2.18-48.34h0Z"/>
  <path class="cls-3" d="M239.54,325.64c-3.35,15.97-3.63,32.18-2.18,48.34.27,3.82.77,7.52.96,11.41-8.81-17.36-9.76-43.15,1.22-59.74h0Z"/>
  <path class="cls-6" d="M76.32,650.09s128.66-10.6,247.81-.58c-15.02,20.02-23.53,25.03-23.53,25.03l-224.28-24.45"/>
  <path class="cls-8" d="M74.09,654.25s63.83-20.35,120.9,0c57.07,20.35,128.41-1.16,128.41-1.16,0,0-54.07,127.35-54.07,172.12-55.57,21.52-129.16,2.33-129.16,2.33,0,0,3.75-64.55-66.08-173.28Z"/>
  <g class="cls-10">
    <g>
      <g>
        <g class="cls-10">
          <path class="cls-5" d="M104.88,424.98s-.03-.03,0-.04l5.54-3.45s.06-.02.09,0l5.4,3.02s.02.04,0,.05l-5.06,2.72s-.06.02-.09,0l-5.87-2.29Z"/>
        </g>
        <g class="cls-10">
          <path class="cls-5" d="M97.25,433.25s-.04.02-.04-.01l-1.48-6.36s0-.06.03-.08l4.6-4.14s.04-.01.05.02l.95,5.67s0,.07-.02.09l-4.06,4.82Z"/>
        </g>
        <g class="cls-10">
          <path class="cls-5" d="M90.22,445.1s-.04-.02-.02-.04l3.59-5.45s.05-.04.08-.04l6.17.48s.04.02.02.04l-3.46,4.59s-.05.04-.08.04l-6.29.37Z"/>
        </g>
        <g class="cls-10">
          <path class="cls-5" d="M113.3,434.73s-.03-.03,0-.04l5.54-3.45s.06-.02.09,0l5.4,3.02s.02.04,0,.05l-5.06,2.72s-.06.02-.09,0l-5.87-2.29Z"/>
        </g>
        <g class="cls-10">
          <path class="cls-5" d="M105.67,443s-.04.02-.04-.01l-1.48-6.36s0-.06.03-.08l4.6-4.14s.04-.01.05.02l.95,5.67s0,.07-.02.09l-4.06,4.82Z"/>
        </g>
        <g class="cls-10">
          <path class="cls-5" d="M98.63,454.85s-.04-.02-.02-.04l3.59-5.45s.05-.04.08-.04l6.17.48s.04.02.02.04l-3.46,4.59s-.05.04-.08.04l-6.29.37Z"/>
        </g>
      </g>
      <g>
        <g class="cls-10">
          <path class="cls-5" d="M104.46,472.96s-.03-.03,0-.04l5.54-3.45s.06-.02.09,0l5.4,3.02s.02.04,0,.05l-5.06,2.72s-.06.02-.09,0l-5.87-2.29Z"/>
        </g>
        <g class="cls-10">
          <path class="cls-5" d="M96.83,481.22s-.04.02-.04-.01l-1.48-6.36s0-.06.03-.08l4.6-4.14s.04-.01.05.02l.95,5.67s0,.07-.02.09l-4.06,4.82Z"/>
        </g>
        <g class="cls-10">
          <path class="cls-5" d="M89.8,493.08s-.04-.02-.02-.04l3.59-5.45s.05-.04.08-.04l6.17.48s.04.02.02.04l-3.46,4.59s-.05.04-.08.04l-6.29.37Z"/>
        </g>
        <g class="cls-10">
          <path class="cls-5" d="M112.88,482.7s-.03-.03,0-.04l5.54-3.45s.06-.02.09,0l5.4,3.02s.02.04,0,.05l-5.06,2.72s-.06.02-.09,0l-5.87-2.29Z"/>
        </g>
        <g class="cls-10">
          <path class="cls-5" d="M105.25,490.97s-.04.02-.04-.01l-1.48-6.36s0-.06.03-.08l4.6-4.14s.04-.01.05.02l.95,5.67s0,.07-.02.09l-4.06,4.82Z"/>
        </g>
        <g class="cls-10">
          <path class="cls-5" d="M98.21,502.82s-.04-.02-.02-.04l3.59-5.45s.05-.04.08-.04l6.17.48s.04.02.02.04l-3.46,4.59s-.05.04-.08.04l-6.29.37Z"/>
        </g>
      </g>
      <g>
        <g class="cls-10">
          <path class="cls-5" d="M86.58,453.19s-.03-.03,0-.04l5.54-3.45s.06-.02.09,0l5.4,3.02s.02.04,0,.05l-5.06,2.72s-.06.02-.09,0l-5.87-2.29Z"/>
        </g>
        <g class="cls-10">
          <path class="cls-5" d="M78.95,461.46s-.04.02-.04-.01l-1.48-6.36s0-.06.03-.08l4.6-4.14s.04-.01.05.02l.95,5.67s0,.07-.02.09l-4.06,4.82Z"/>
        </g>
        <g class="cls-10">
          <path class="cls-5" d="M71.92,473.31s-.04-.02-.02-.04l3.59-5.45s.05-.04.08-.04l6.17.48s.04.02.02.04l-3.46,4.59s-.05.04-.08.04l-6.29.37Z"/>
        </g>
        <g class="cls-10">
          <path class="cls-5" d="M95,462.94s-.03-.03,0-.04l5.54-3.45s.06-.02.09,0l5.4,3.02s.02.04,0,.05l-5.06,2.72s-.06.02-.09,0l-5.87-2.29Z"/>
        </g>
        <g class="cls-10">
          <path class="cls-5" d="M87.37,471.21s-.04.02-.04-.01l-1.48-6.36s0-.06.03-.08l4.6-4.14s.04-.01.05.02l.95,5.67s0,.07-.02.09l-4.06,4.82Z"/>
        </g>
        <g class="cls-10">
          <path class="cls-5" d="M80.33,483.06s-.04-.02-.02-.04l3.59-5.45s.05-.04.08-.04l6.17.48s.04.02.02.04l-3.46,4.59s-.05.04-.08.04l-6.29.37Z"/>
        </g>
      </g>
      <g>
        <g class="cls-10">
          <path class="cls-5" d="M124.72,443.51s-.03-.03,0-.04l5.54-3.45s.06-.02.09,0l5.4,3.02s.02.04,0,.05l-5.06,2.72s-.06.02-.09,0l-5.87-2.29Z"/>
        </g>
        <g class="cls-10">
          <path class="cls-5" d="M117.09,451.77s-.04.02-.04-.01l-1.48-6.36s0-.06.03-.08l4.6-4.14s.04-.01.05.02l.95,5.67s0,.07-.02.09l-4.06,4.82Z"/>
        </g>
        <g class="cls-10">
          <path class="cls-5" d="M110.06,463.63s-.04-.02-.02-.04l3.59-5.45s.05-.04.08-.04l6.17.48s.04.02.02.04l-3.46,4.59s-.05.04-.08.04l-6.29.37Z"/>
        </g>
        <g class="cls-10">
          <path class="cls-5" d="M133.14,453.25s-.03-.03,0-.04l5.54-3.45s.06-.02.09,0l5.4,3.02s.02.04,0,.05l-5.06,2.72s-.06.02-.09,0l-5.87-2.29Z"/>
        </g>
        <g class="cls-10">
          <path class="cls-5" d="M125.51,461.52s-.04.02-.04-.01l-1.48-6.36s0-.06.03-.08l4.6-4.14s.04-.01.05.02l.95,5.67s0,.07-.02.09l-4.06,4.82Z"/>
        </g>
        <g class="cls-10">
          <path class="cls-5" d="M118.47,473.37s-.04-.02-.02-.04l3.59-5.45s.05-.04.08-.04l6.17.48s.04.02.02.04l-3.46,4.59s-.05.04-.08.04l-6.29.37Z"/>
        </g>
      </g>
      <g>
        <g class="cls-10">
          <path class="cls-5" d="M70.56,434.28s-.03-.03,0-.04l5.54-3.45s.06-.02.09,0l5.4,3.02s.02.04,0,.05l-5.06,2.72s-.06.02-.09,0l-5.87-2.29Z"/>
        </g>
        <g class="cls-10">
          <path class="cls-5" d="M62.93,442.55s-.04.02-.04-.01l-1.48-6.36s0-.06.03-.08l4.6-4.14s.04-.01.05.02l.95,5.67s0,.07-.02.09l-4.06,4.82Z"/>
        </g>
        <g class="cls-10">
          <path class="cls-5" d="M55.9,454.4s-.04-.02-.02-.04l3.59-5.45s.05-.04.08-.04l6.17.48s.04.02.02.04l-3.46,4.59s-.05.04-.08.04l-6.29.37Z"/>
        </g>
        <g class="cls-10">
          <path class="cls-5" d="M78.98,444.03s-.03-.03,0-.04l5.54-3.45s.06-.02.09,0l5.4,3.02s.02.04,0,.05l-5.06,2.72s-.06.02-.09,0l-5.87-2.29Z"/>
        </g>
        <g class="cls-10">
          <path class="cls-5" d="M71.35,452.3s-.04.02-.04-.01l-1.48-6.36s0-.06.03-.08l4.6-4.14s.04-.01.05.02l.95,5.67s0,.07-.02.09l-4.06,4.82Z"/>
        </g>
        <g class="cls-10">
          <path class="cls-5" d="M64.31,464.15s-.04-.02-.02-.04l3.59-5.45s.05-.04.08-.04l6.17.48s.04.02.02.04l-3.46,4.59s-.05.04-.08.04l-6.29.37Z"/>
        </g>
      </g>
      <g>
        <g class="cls-10">
          <path class="cls-5" d="M74.3,424.09s-.04-.02-.02-.04l3.59-5.45s.05-.04.08-.04l6.17.48s.04.02.02.04l-3.46,4.59s-.05.04-.08.04l-6.29.37Z"/>
        </g>
        <g class="cls-10">
          <path class="cls-5" d="M97.38,413.72s-.03-.03,0-.04l5.54-3.45s.06-.02.09,0l5.4,3.02s.02.04,0,.05l-5.06,2.72s-.06.02-.09,0l-5.87-2.29Z"/>
        </g>
        <g class="cls-10">
          <path class="cls-5" d="M89.75,421.99s-.04.02-.04-.01l-1.48-6.36s0-.06.03-.08l4.6-4.14s.04-.01.05.02l.95,5.67s0,.07-.02.09l-4.06,4.82Z"/>
        </g>
        <g class="cls-10">
          <path class="cls-5" d="M82.71,433.84s-.04-.02-.02-.04l3.59-5.45s.05-.04.08-.04l6.17.48s.04.02.02.04l-3.46,4.59s-.05.04-.08.04l-6.29.37Z"/>
        </g>
      </g>
      <g>
        <g class="cls-10">
          <path class="cls-5" d="M48.62,464s-.03-.03,0-.04l5.54-3.45s.06-.02.09,0l5.4,3.02s.02.04,0,.05l-5.06,2.72s-.06.02-.09,0l-5.87-2.29Z"/>
        </g>
        <g class="cls-10">
          <path class="cls-5" d="M57.04,473.74s-.03-.03,0-.04l5.54-3.45s.06-.02.09,0l5.4,3.02s.02.04,0,.05l-5.06,2.72s-.06.02-.09,0l-5.87-2.29Z"/>
        </g>
        <g class="cls-10">
          <path class="cls-5" d="M49.4,482.01s-.04.02-.04-.01l-1.48-6.36s0-.06.03-.08l4.6-4.14s.04-.01.05.02l.95,5.67s0,.07-.02.09l-4.06,4.82Z"/>
        </g>
        <g class="cls-10">
          <path class="cls-5" d="M42.37,493.86s-.04-.02-.02-.04l3.59-5.45s.05-.04.08-.04l6.17.48s.04.02.02.04l-3.46,4.59s-.05.04-.08.04l-6.29.37Z"/>
        </g>
      </g>
      <g>
        <g class="cls-10">
          <path class="cls-5" d="M66.06,483.69s-.03-.03,0-.04l5.54-3.45s.06-.02.09,0l5.4,3.02s.02.04,0,.05l-5.06,2.72s-.06.02-.09,0l-5.87-2.29Z"/>
        </g>
        <g class="cls-10">
          <path class="cls-5" d="M58.43,491.96s-.04.02-.04-.01l-1.48-6.36s0-.06.03-.08l4.6-4.14s.04-.01.05.02l.95,5.67s0,.07-.02.09l-4.06,4.82Z"/>
        </g>
        <g class="cls-10">
          <path class="cls-5" d="M51.39,503.81s-.04-.02-.02-.04l3.59-5.45s.05-.04.08-.04l6.17.48s.04.02.02.04l-3.46,4.59s-.05.04-.08.04l-6.29.37Z"/>
        </g>
        <g class="cls-10">
          <path class="cls-5" d="M74.47,493.44s-.03-.03,0-.04l5.54-3.45s.06-.02.09,0l5.4,3.02s.02.04,0,.05l-5.06,2.72s-.06.02-.09,0l-5.87-2.29Z"/>
        </g>
        <g class="cls-10">
          <path class="cls-5" d="M66.84,501.7s-.04.02-.04-.01l-1.48-6.36s0-.06.03-.08l4.6-4.14s.04-.01.05.02l.95,5.67s0,.07-.02.09l-4.06,4.82Z"/>
        </g>
        <g class="cls-10">
          <path class="cls-5" d="M59.81,513.56s-.04-.02-.02-.04l3.59-5.45s.05-.04.08-.04l6.17.48s.04.02.02.04l-3.46,4.59s-.05.04-.08.04l-6.29.37Z"/>
        </g>
      </g>
      <g>
        <g class="cls-10">
          <path class="cls-5" d="M83.61,503.22s-.03-.03,0-.04l5.54-3.45s.06-.02.09,0l5.4,3.02s.02.04,0,.05l-5.06,2.72s-.06.02-.09,0l-5.87-2.29Z"/>
        </g>
        <g class="cls-10">
          <path class="cls-5" d="M75.98,511.48s-.04.02-.04-.01l-1.48-6.36s0-.06.03-.08l4.6-4.14s.04-.01.05.02l.95,5.67s0,.07-.02.09l-4.06,4.82Z"/>
        </g>
        <g class="cls-10">
          <path class="cls-5" d="M68.95,523.34s-.04-.02-.02-.04l3.59-5.45s.05-.04.08-.04l6.17.48s.04.02.02.04l-3.46,4.59s-.05.04-.08.04l-6.29.37Z"/>
        </g>
        <g class="cls-10">
          <path class="cls-5" d="M92.03,512.97s-.03-.03,0-.04l5.54-3.45s.06-.02.09,0l5.4,3.02s.02.04,0,.05l-5.06,2.72s-.06.02-.09,0l-5.87-2.29Z"/>
        </g>
        <g class="cls-10">
          <path class="cls-5" d="M84.4,521.23s-.04.02-.04-.01l-1.48-6.36s0-.06.03-.08l4.6-4.14s.04-.01.05.02l.95,5.67s0,.07-.02.09l-4.06,4.82Z"/>
        </g>
      </g>
    </g>
    <g>
      <g>
        <g class="cls-10">
          <path class="cls-5" d="M172.51,348.67s-.03-.03,0-.04l5.54-3.45s.06-.02.09,0l5.4,3.02s.02.04,0,.05l-5.06,2.72s-.06.02-.09,0l-5.87-2.29Z"/>
        </g>
        <g class="cls-10">
          <path class="cls-5" d="M164.88,356.94s-.04.02-.04-.01l-1.48-6.36s0-.06.03-.08l4.6-4.14s.04-.01.05.02l.95,5.67s0,.07-.02.09l-4.06,4.82Z"/>
        </g>
        <g class="cls-10">
          <path class="cls-5" d="M157.84,368.79s-.04-.02-.02-.04l3.59-5.45s.05-.04.08-.04l6.17.48s.04.02.02.04l-3.46,4.59s-.05.04-.08.04l-6.29.37Z"/>
        </g>
        <g class="cls-10">
          <path class="cls-5" d="M180.93,358.42s-.03-.03,0-.04l5.54-3.45s.06-.02.09,0l5.4,3.02s.02.04,0,.05l-5.06,2.72s-.06.02-.09,0l-5.87-2.29Z"/>
        </g>
        <g class="cls-10">
          <path class="cls-5" d="M173.3,366.69s-.04.02-.04-.01l-1.48-6.36s0-.06.03-.08l4.6-4.14s.04-.01.05.02l.95,5.67s0,.07-.02.09l-4.06,4.82Z"/>
        </g>
        <g class="cls-10">
          <path class="cls-5" d="M166.26,378.54s-.04-.02-.02-.04l3.59-5.45s.05-.04.08-.04l6.17.48s.04.02.02.04l-3.46,4.59s-.05.04-.08.04l-6.29.37Z"/>
        </g>
      </g>
      <g>
        <g class="cls-10">
          <path class="cls-5" d="M172.09,396.65s-.03-.03,0-.04l5.54-3.45s.06-.02.09,0l5.4,3.02s.02.04,0,.05l-5.06,2.72s-.06.02-.09,0l-5.87-2.29Z"/>
        </g>
        <g class="cls-10">
          <path class="cls-5" d="M164.46,404.92s-.04.02-.04-.01l-1.48-6.36s0-.06.03-.08l4.6-4.14s.04-.01.05.02l.95,5.67s0,.07-.02.09l-4.06,4.82Z"/>
        </g>
        <g class="cls-10">
          <path class="cls-5" d="M157.43,416.77s-.04-.02-.02-.04l3.59-5.45s.05-.04.08-.04l6.17.48s.04.02.02.04l-3.46,4.59s-.05.04-.08.04l-6.29.37Z"/>
        </g>
        <g class="cls-10">
          <path class="cls-5" d="M180.51,406.4s-.03-.03,0-.04l5.54-3.45s.06-.02.09,0l5.4,3.02s.02.04,0,.05l-5.06,2.72s-.06.02-.09,0l-5.87-2.29Z"/>
        </g>
        <g class="cls-10">
          <path class="cls-5" d="M172.88,414.67s-.04.02-.04-.01l-1.48-6.36s0-.06.03-.08l4.6-4.14s.04-.01.05.02l.95,5.67s0,.07-.02.09l-4.06,4.82Z"/>
        </g>
        <g class="cls-10">
          <path class="cls-5" d="M165.84,426.52s-.04-.02-.02-.04l3.59-5.45s.05-.04.08-.04l6.17.48s.04.02.02.04l-3.46,4.59s-.05.04-.08.04l-6.29.37Z"/>
        </g>
      </g>
      <g>
        <g class="cls-10">
          <path class="cls-5" d="M154.21,376.88s-.03-.03,0-.04l5.54-3.45s.06-.02.09,0l5.4,3.02s.02.04,0,.05l-5.06,2.72s-.06.02-.09,0l-5.87-2.29Z"/>
        </g>
        <g class="cls-10">
          <path class="cls-5" d="M139.55,397s-.04-.02-.02-.04l3.59-5.45s.05-.04.08-.04l6.17.48s.04.02.02.04l-3.46,4.59s-.05.04-.08.04l-6.29.37Z"/>
        </g>
        <g class="cls-10">
          <path class="cls-5" d="M162.63,386.63s-.03-.03,0-.04l5.54-3.45s.06-.02.09,0l5.4,3.02s.02.04,0,.05l-5.06,2.72s-.06.02-.09,0l-5.87-2.29Z"/>
        </g>
        <g class="cls-10">
          <path class="cls-5" d="M155,394.9s-.04.02-.04-.01l-1.48-6.36s0-.06.03-.08l4.6-4.14s.04-.01.05.02l.95,5.67s0,.07-.02.09l-4.06,4.82Z"/>
        </g>
        <g class="cls-10">
          <path class="cls-5" d="M147.96,406.75s-.04-.02-.02-.04l3.59-5.45s.05-.04.08-.04l6.17.48s.04.02.02.04l-3.46,4.59s-.05.04-.08.04l-6.29.37Z"/>
        </g>
      </g>
      <g>
        <g class="cls-10">
          <path class="cls-5" d="M184.72,375.47s-.04.02-.04-.01l-1.48-6.36s0-.06.03-.08l4.6-4.14s.04-.01.05.02l.95,5.67s0,.07-.02.09l-4.06,4.82Z"/>
        </g>
        <g class="cls-10">
          <path class="cls-5" d="M177.69,387.32s-.04-.02-.02-.04l3.59-5.45s.05-.04.08-.04l6.17.48s.04.02.02.04l-3.46,4.59s-.05.04-.08.04l-6.29.37Z"/>
        </g>
        <g class="cls-10">
          <path class="cls-5" d="M193.14,385.22s-.04.02-.04-.01l-1.48-6.36s0-.06.03-.08l4.6-4.14s.04-.01.05.02l.95,5.67s0,.07-.02.09l-4.06,4.82Z"/>
        </g>
        <g class="cls-10">
          <path class="cls-5" d="M186.1,397.07s-.04-.02-.02-.04l3.59-5.45s.05-.04.08-.04l6.17.48s.04.02.02.04l-3.46,4.59s-.05.04-.08.04l-6.29.37Z"/>
        </g>
      </g>
      <g>
        <g class="cls-10">
          <path class="cls-5" d="M156.59,327.67s-.03-.03,0-.04l5.54-3.45s.06-.02.09,0l5.4,3.02s.02.04,0,.05l-5.06,2.72s-.06.02-.09,0l-5.87-2.29Z"/>
        </g>
        <g class="cls-10">
          <path class="cls-5" d="M165.01,337.42s-.03-.03,0-.04l5.54-3.45s.06-.02.09,0l5.4,3.02s.02.04,0,.05l-5.06,2.72s-.06.02-.09,0l-5.87-2.29Z"/>
        </g>
        <g class="cls-10">
          <path class="cls-5" d="M157.38,345.69s-.04.02-.04-.01l-1.48-6.36s0-.06.03-.08l4.6-4.14s.04-.01.05.02l.95,5.67s0,.07-.02.09l-4.06,4.82Z"/>
        </g>
        <g class="cls-10">
          <path class="cls-5" d="M150.34,357.54s-.04-.02-.02-.04l3.59-5.45s.05-.04.08-.04l6.17.48s.04.02.02.04l-3.46,4.59s-.05.04-.08.04l-6.29.37Z"/>
        </g>
      </g>
      <g>
        <g class="cls-10">
          <path class="cls-5" d="M101.58,407.81s-.04-.02-.02-.04l3.59-5.45s.05-.04.08-.04l6.17.48s.04.02.02.04l-3.46,4.59s-.05.04-.08.04l-6.29.37Z"/>
        </g>
        <g class="cls-10">
          <path class="cls-5" d="M124.66,397.44s-.03-.03,0-.04l5.54-3.45s.06-.02.09,0l5.4,3.02s.02.04,0,.05l-5.06,2.72s-.06.02-.09,0l-5.87-2.29Z"/>
        </g>
        <g class="cls-10">
          <path class="cls-5" d="M117.03,405.71s-.04.02-.04-.01l-1.48-6.36s0-.06.03-.08l4.6-4.14s.04-.01.05.02l.95,5.67s0,.07-.02.09l-4.06,4.82Z"/>
        </g>
        <g class="cls-10">
          <path class="cls-5" d="M110,417.56s-.04-.02-.02-.04l3.59-5.45s.05-.04.08-.04l6.17.48s.04.02.02.04l-3.46,4.59s-.05.04-.08.04l-6.29.37Z"/>
        </g>
      </g>
      <g>
        <g class="cls-10">
          <path class="cls-5" d="M133.69,407.38s-.03-.03,0-.04l5.54-3.45s.06-.02.09,0l5.4,3.02s.02.04,0,.05l-5.06,2.72s-.06.02-.09,0l-5.87-2.29Z"/>
        </g>
        <g class="cls-10">
          <path class="cls-5" d="M126.05,415.65s-.04.02-.04-.01l-1.48-6.36s0-.06.03-.08l4.6-4.14s.04-.01.05.02l.95,5.67s0,.07-.02.09l-4.06,4.82Z"/>
        </g>
        <g class="cls-10">
          <path class="cls-5" d="M119.02,427.5s-.04-.02-.02-.04l3.59-5.45s.05-.04.08-.04l6.17.48s.04.02.02.04l-3.46,4.59s-.05.04-.08.04l-6.29.37Z"/>
        </g>
        <g class="cls-10">
          <path class="cls-5" d="M142.1,417.13s-.03-.03,0-.04l5.54-3.45s.06-.02.09,0l5.4,3.02s.02.04,0,.05l-5.06,2.72s-.06.02-.09,0l-5.87-2.29Z"/>
        </g>
        <g class="cls-10">
          <path class="cls-5" d="M134.47,425.4s-.04.02-.04-.01l-1.48-6.36s0-.06.03-.08l4.6-4.14s.04-.01.05.02l.95,5.67s0,.07-.02.09l-4.06,4.82Z"/>
        </g>
        <g class="cls-10">
          <path class="cls-5" d="M127.44,437.25s-.04-.02-.02-.04l3.59-5.45s.05-.04.08-.04l6.17.48s.04.02.02.04l-3.46,4.59s-.05.04-.08.04l-6.29.37Z"/>
        </g>
      </g>
      <g>
        <g class="cls-10">
          <path class="cls-5" d="M151.24,426.91s-.03-.03,0-.04l5.54-3.45s.06-.02.09,0l5.4,3.02s.02.04,0,.05l-5.06,2.72s-.06.02-.09,0l-5.87-2.29Z"/>
        </g>
        <g class="cls-10">
          <path class="cls-5" d="M143.61,435.18s-.04.02-.04-.01l-1.48-6.36s0-.06.03-.08l4.6-4.14s.04-.01.05.02l.95,5.67s0,.07-.02.09l-4.06,4.82Z"/>
        </g>
        <g class="cls-10">
          <path class="cls-5" d="M136.57,447.03s-.04-.02-.02-.04l3.59-5.45s.05-.04.08-.04l6.17.48s.04.02.02.04l-3.46,4.59s-.05.04-.08.04l-6.29.37Z"/>
        </g>
        <g class="cls-10">
          <path class="cls-5" d="M159.66,436.66s-.03-.03,0-.04l5.54-3.45s.06-.02.09,0l5.4,3.02s.02.04,0,.05l-5.06,2.72s-.06.02-.09,0l-5.87-2.29Z"/>
        </g>
        <g class="cls-10">
          <path class="cls-5" d="M152.03,444.93s-.04.02-.04-.01l-1.48-6.36s0-.06.03-.08l4.6-4.14s.04-.01.05.02l.95,5.67s0,.07-.02.09l-4.06,4.82Z"/>
        </g>
        <g class="cls-10">
          <path class="cls-5" d="M144.99,456.78s-.04-.02-.02-.04l3.59-5.45s.05-.04.08-.04l6.17.48s.04.02.02.04l-3.46,4.59s-.05.04-.08.04l-6.29.37Z"/>
        </g>
      </g>
    </g>
  </g>
  <path class="cls-11" d="M324.81,440.92l-4.71-5.46c-3.95,1.54-8.24,2.99-12.87,4.37v21.48l-26.25-15.23c-2.91.54-5.88,1.07-8.91,1.56v34.06l-13.83-32.07c-4.08.52-8.24,1-12.5,1.43l-8.83,10.24-3.95-9.16c-4.47.34-9.02.61-13.63.82-2.3.11-4.61.2-6.95.27-3.5.14-7.05.23-10.63.27v28.19l-6.06-28.12h-2.52c-9.06,0-17.95-.2-26.58-.63v28.76l-26.45-30.68c-2.95-.29-5.86-.61-8.71-.97v11.26l-10.96-12.71c-2.25-.32-4.45-.66-6.62-1.04-17.72-2.9-33.17-6.75-45.49-11.31v180.5h12.4l.88-15.14,22.23,15.14h12.13l1.91-32.72,11.8,32.72h39.14l.49-8.23,6.19,8.23h46.19l1.43-24.41,18.36,24.41h93.62v-187.81l-10.33,11.99ZM142.4,616.65l9.41-9.52,3.4,9.45c-4.34-.02-8.61,0-12.81.07Z"/>
  <path class="cls-4" d="M205.24,583.57c-1.85,8.82-3.91,20.83-7.77,20.85-4.36.02-6.65-12.32-8-20.62l-10.9,15.26c-.66.93-1.65,1.72-2.52,1.98-4.92,1.47-3.66-12.18-1.7-22.58-7.76,5.53-17.08,14.2-19.97,10.27-.68-.92-1.03-2-.47-3.2l8.18-17.65c-7.69,3.08-17.84,6.54-21.75,4.61-3.72-1.84,6.12-11.97,14.01-17.99-8.49-1.55-20.87.75-22-4.4-.25-1.12.91-2.65,2.12-3.25l16.86-8.35c-7.88-2.68-19-6.73-19.11-10.54-.12-4.38,12.06-4.54,21.98-4.71-5.51-5.45-15.2-13.1-14.67-16.45.65-4.18,13.14-.72,22.63,2.74-4.04-7.29-9.89-18.25-8.19-20.54,2.93-3.96,12.68,4.46,19.94,9.89-.86-9.05-2.67-20.61.45-21.87,3.37-1.36,10.38,9.11,14.98,16.66,1.9-7.65,3.3-19.7,7.29-20.63,4.24-.99,6.58,11.41,8.61,20.71,4.62-6.52,10.07-17.89,14.37-16.69,1.25.35,2.62,2.34,2.46,4.14l-1.51,17.38,15.17-10.19c1.08-.72,2.91-.46,3.75.05,3.82,2.31-3.5,13.39-6.79,21.09,7.66-2.37,13.58-5.55,21.17-4.2,4.69.84-5.66,11.91-13.73,17.83l15,.83c2.39.13,6.96,1.53,7.06,3.99-3.63,6.72-13.03,6.79-18.33,11.53,7.46,2.77,14.18,4.55,19.08,10.07-3.74,6.6-13.41,2.75-21.75,5.58l12.49,12.66c.89.9,1.14,2.57.9,3.5-1.11,4.24-12.72-.26-21.64-2.79l7.42,16.74c.63,1.43.28,3.41-.86,4.41-.76.66-2.83.23-4-.57l-15.35-10.46,1.96,13.58c.49,3.38-.13,7.09-2.78,9.41-6.7-4.74-10.24-11.3-14.1-18.05Z"/>
</svg>