<?xml version="1.0" encoding="UTF-8"?><svg id="a" xmlns="http://www.w3.org/2000/svg" viewBox="0 0 1005 1000"><path d="M254.263,446.7589c8.5768-17.963,1.5889-29.4675-14.5309-44.6227-5.007-4.7074-10.3027-8.2648-16.1901-11.8092-10.3899-6.2552-30.163-21.043-44.0872-28.251-51.7188-26.638-94.9428-46.109-117.5198-73.8792-23.7733-29.2416,12.2963-69.6533,44.9257-50.8039,52.1412,30.121,126.8188,73.2609,160.0869,92.4792,10.9177,6.3069,49.4877,29.9258,59.025,21.6779,5.3519-4.6284,10.2675-9.5238,14.8009-14.7932,8.0525-9.3597-15.521-47.6224-21.4592-58.4483l-95.3198-173.7764c-1.9995-3.6568-3.1473-7.6472-3.5648-11.8249-3.6901-36.9288,47.5856-51.4485,66.2326-19.3633l95.5629,164.4319c6.2096,10.6846,26.6138,49.4859,38.8133,47.5281l19.471-3.1249c14.4843-2.3246,16.8783-47.8699,16.8783-62.5434V42.6572c0-2.0243.0818-4.0216.2423-5.9888,3.7763-46.2826,73.7495-41.9493,73.7982,4.4871l.1868,178.1305c.0157,14.9795,2.86,60.6758,17.7072,62.6332l17.3599,2.2886c12.0788,1.5924,32.1726-37.3567,38.1662-47.9664l78.5908-139.1198c1.0831-1.9178,2.2222-3.7821,3.4139-5.5904,26.406-40.0713,87.4264-.9626,63.5466,40.6644l-82.903,144.5152c-5.8822,10.2537-21.8311,39.6291-14.7228,49.0738,4.6036,6.1168,10.4999,11.8635,16.367,16.6917,8.8228,7.2605,37.5083-7.6172,47.8781-12.4137,78.5934-36.3528,164.6214-109.0388,199.954-97.1471l.5538.1862c29.5102,9.9199,33.3682,50.097,6.2851,65.454l-167.0268,94.71c-10.8503,6.1525-33.2033,18.3842-31.3104,30.7154,1.2914,8.4128,3.5916,16.9909,6.8713,24.2918,4.6685,10.3924,31.521,17.0653,42.9079,17.3437,45.7298,1.1181,196.5243,4.8101,196.5243,4.8101,3.1359.0785,6.194.5575,9.1542,1.3853,38.8249,10.8566,29.1103,69.4066-11.2001,69.9106l-218.0838-5.6377c-15.6091.2148-26.9401,50.5404-13.4701,58.3058l164.7545,98.9335c1.9404,1.1207,3.8226,2.3072,5.6437,3.5556,38.0473,26.0824.126,84.3506-40.0804,61.7399l-149.8063-84.246c-10.5769-5.9481-31.9832-13.2238-41.466-5.6516-5.5134,4.4025-10.9573,9.5056-15.2916,14.8586-7.5736,9.3537-.0332,30.7905,5.8925,41.2666l73.6985,130.2926c1.3301,2.3484,2.6022,4.7195,3.8112,7.1087,21.4052,42.3002-41.2919,75.8773-65.6705,35.219l-85.3041-142.2689c-6.7193-11.2129-29.2358-19.163-45.409-12.5658-11.0489,4.507-16.2029,26.7842-16.2797,38.7195l-1.0947,170.16c-.0029.4149-.0087,9.0899-.0174,9.5031-.9982,47.4628-72.7514,46.0975-73.1683-1.374l-1.4865-177.5202c-.0973-11.0755-4.0194-40.4859-14.4391-44.2341-7.9299-2.8526-16.3138-4.6877-24.8218-5.5908-11.4322-1.2135-26.9513,21.2016-32.8354,31.0806-25.4277,42.6913-96.8163,162.5429-96.8163,162.5429-.8874,1.4899-1.8491,2.9179-2.8787,4.2835-27.2452,36.1348-82.9039-3.768-59.6094-42.5687l87.6488-145.9931c13.6014-22.6553,21.2776-44.0238,14.0476-53.6992-5.6128-7.5112-12.1374-13.7377-19.7668-19.5984-9.5354-7.3249-30.9273.3477-41.295,6.4369l-141.0592,82.8465c-2.1064,1.2355-4.2413,2.3831-6.3981,3.4419-42.3031,20.7646-74.6643-42.638-33.9357-66.3441l142.9223-83.1881c11.3278-6.5933,33.5529-28.0639,30.5917-40.8344l-3.0017-12.9452c-3.0982-13.3617-31.4118-14.6358-45.1227-14.8615l-175.9189-2.8956c-.3713-.0064-.7424-.0161-1.1132-.0291-46.1263-1.6083-44.1598-71.3042,1.9939-71.5373l184.4796-.9318c13.1149,0,31.5486-11.5489,34.6869-20.5286v-.2148Z" style="fill:#603813;"/></svg>