<svg width="400" height="382" viewBox="0 0 400 382" fill="none" xmlns="http://www.w3.org/2000/svg">
<path d="M177.061 185.225C180.097 184.909 182.663 184.871 184.038 185.025C182.881 171.141 180.731 157.074 178.397 142.827C174.906 126.577 171.916 102.894 171.339 79.5213C170.74 55.249 172.604 31.2549 177.773 16.3333C181.389 5.89656 190.812 0.127843 200.452 0.00168261C210.852 -0.134373 219.81 7.99561 223.189 18.9543C229.167 45.4654 229.613 75.1428 227.034 104.955C224.506 134.184 219.106 163.497 213.473 190.18C232.434 179.298 250.629 169.932 268.861 161.474C287.816 152.681 306.723 144.829 326.944 138.673C344.571 131.809 362.716 127.491 382.051 129.717C392.526 130.923 398.508 141.127 399.822 150.299C402.22 167.039 380.05 179.745 353.471 189.042C332.339 196.434 308.272 201.748 291.256 205.553C267.575 210.85 245.126 214.571 220.339 215.5C240.694 233.311 260.128 251.761 277.683 271.701C295.316 291.731 311.114 313.265 324.867 336.579C330.608 346.311 333.134 357.398 330.026 367.895C327.752 375.577 319.648 378.681 314.46 380.673C306.136 383.872 298.485 380.896 291.338 375.914C271.071 357.261 253.969 333.591 238.852 308.187C224.172 283.516 211.55 256.819 199.295 231.703C189.717 254.052 174.355 284.567 157.065 312.354C138.258 342.578 117.056 369.707 97.834 380.081C88.3711 385.188 78.2894 378.048 72.8831 372.441C52.1691 350.959 98.2588 299.032 122.55 270.61C139.724 250.516 158.23 232.771 178.641 215.833C156 213.455 120.532 207.866 87.4251 199.687C50.0142 190.443 14.9224 178.143 3.61949 163.384C-2.49814 155.395 0.0679327 145.416 4.48019 137.512C8.25153 130.756 17.2798 125.633 27.0934 127.101C38.6668 128.832 38.7854 128.094 50.2229 130.566C70.1737 136.415 89.5751 143.094 108.561 150.837C127.594 158.597 146.259 167.191 164.554 176.983C170.979 180.874 170.396 181.807 177.061 185.225Z" fill="#5C9DE0"/>
</svg>
