<svg width="442" height="439" viewBox="0 0 442 439" fill="none" xmlns="http://www.w3.org/2000/svg">
<path d="M259.023 399.661C258.797 422.175 241.853 438.521 221.64 438.992C203.588 439.412 183.657 423.479 182.906 402.576C182.329 386.505 187.648 371.041 183.679 356.031L165.36 389.892C154.78 409.449 133.168 420.494 114.231 411.113C94.115 401.147 85.2702 377.814 97.1463 357.565L118.37 321.377C105.845 325.897 97.238 332.296 87.7923 338.966C68.1554 352.831 44.6175 350.264 31.4345 331.389C18.8102 313.312 25.3955 287.267 45.4673 276.408L83.6387 255.758C65.2108 254.661 49.6655 258.688 32.122 256.311C13.3089 253.761 0.398398 237.035 0.00818574 219.705C-0.374594 202.758 12.7043 182.944 31.4395 182.797L82.6552 182.393L43.0381 160.493C24.6027 150.301 20.796 129.258 28.9409 111.222C36.4962 94.4917 59.5955 84.7024 77.1179 94.3063L118.219 116.837L93.7149 74.4933C82.4978 55.1113 98.2277 32.1118 117.46 26.2687C138.898 19.7536 158.287 30.9323 166.64 52.0126L183.596 81.1615C187.703 66.332 182.459 53.2327 182.583 40.2595C182.817 15.7026 200.208 -0.759719 221.758 0.0270225C244.136 0.844641 258.864 18.3567 259.054 42.3567L259.338 78.3851L283.636 37.6992C293.418 21.3197 319.308 20.8096 333.445 30.4778C348.996 41.1117 355.931 62.2451 345.845 79.2693L322.631 118.456L367.482 93.285C387.653 86.7947 406.785 96.6073 414.752 113.948C422.671 131.187 414.444 153.014 396.312 161.971C384.755 167.68 373.7 171.575 362.4 181.342L414.583 183.519C432.552 184.269 441.709 204.001 441.995 219.999C442.276 235.757 430.811 250.994 413.242 255.472C395.744 259.932 378.637 253.496 359.516 255.75L393.15 274.725C412.621 285.709 422.747 303.454 415.136 323.4C407.733 342.799 383.886 356.086 364.464 344.785L322.578 320.411L343.4 354.345C355.109 373.428 351.603 396.492 332.962 408.483C315.85 419.49 291.302 416.231 280.295 396.325L259.435 358.608L259.023 399.661Z" fill="#41820B"/>
</svg>
