<svg width="382" height="381" viewBox="0 0 382 381" fill="none" xmlns="http://www.w3.org/2000/svg">
<path d="M249.097 332.059C249.678 366.503 215.719 383.395 184.408 380.726C151.487 377.919 128.48 349.307 132.306 315.597C134.95 292.294 135.638 269.619 134.928 246.095C90.0819 241.904 41.1723 262.807 14.6711 231.368C-5.14298 207.861 -5.10342 170.202 16.108 148.475C45.2665 118.609 89.7147 138.816 135.205 134.829C135.496 110.907 135.082 88.4546 132.27 64.8629C128.023 29.2389 154.727 0.506023 190.776 0.00622425C217.909 -0.370168 245.027 16.3454 248.707 44.4131L248.53 90.9721L246.834 135.029C269.156 135.357 290.664 134.405 313.64 131.808C343.376 128.446 373.372 141.906 380.295 173.27C382.585 183.644 382.671 199.704 379.926 209.94C371.584 241.044 340.623 252.501 310.621 248.946C288.701 246.348 268.289 244.909 246.773 245.97L248.288 284.164L249.097 332.059Z" fill="#FE9E07"/>
</svg>
