<svg width="1014" height="1000" viewBox="0 0 1014 1000" fill="none" xmlns="http://www.w3.org/2000/svg">
<path d="M525.973 41.259C561.82 129.41 556.699 239.344 551.988 343.814C550.964 365.801 528.977 387.446 545.023 415.51C613.1 305.372 734.709 181.509 866.697 139.858C814.325 274.167 707.875 381.984 592.137 455.591C618.835 469.316 639.115 454.772 662.194 451.904C779.297 437.428 896.605 444.598 1013.91 496.424C875.574 559.106 727.267 557.809 576.842 525.375C646.694 574.947 724.194 630.324 774.586 698.196C810.092 746.061 847.237 791.263 865.059 854.287C726.993 801.915 623.274 700.312 543.999 578.976C530.821 605.333 549.939 627.592 551.305 650.74C557.86 766.067 563.049 893.139 505.761 1000C470.528 932.265 462.88 861.935 456.53 791.127C449.429 712.603 462.129 644.663 478.449 564.842C399.174 683.31 288.011 807.378 146.669 851.692C205.186 708.096 310.271 605.333 437.07 525.921C350.148 541.148 274.765 554.463 192.69 544.152C126.935 535.89 60.0877 530.974 0 495.604C136.836 434.288 270.463 438.384 421.297 459.825C302.76 375.156 199.177 281.132 146.327 138.151C282.208 187.723 396.033 300.865 475.308 425.001L456.94 296.973C444.854 212.577 467.524 81.4086 499.275 0.358419C518.393 -3.46535 523.583 24.1887 526.041 41.259H525.973Z" fill="#603813"/>
</svg>
