<svg width="133" height="130" viewBox="0 0 133 130" fill="none" xmlns="http://www.w3.org/2000/svg">
<path d="M33.6828 58.0219C34.8166 55.6676 33.8928 54.1598 31.7618 52.1735C31.0998 51.5565 30.3998 51.0902 29.6214 50.6257C28.2479 49.8058 25.6338 47.8677 23.793 46.923C16.9558 43.4316 11.2415 40.8797 8.25679 37.24C5.11394 33.4074 9.88238 28.1108 14.196 30.5813C21.0892 34.5292 30.9616 40.1833 35.3597 42.7021C36.803 43.5288 41.902 46.6244 43.1629 45.5434C43.8704 44.9367 44.5202 44.2951 45.1196 43.6045C46.1841 42.3778 43.0677 37.3628 42.2826 35.9439L29.6813 13.1679C29.4169 12.6886 29.2652 12.1656 29.21 11.6181C28.7221 6.77799 35.5008 4.87496 37.966 9.08022L50.5995 30.6315C51.4204 32.0319 54.1179 37.1174 55.7307 36.8608L58.3048 36.4512C60.2196 36.1466 60.5361 30.1772 60.5361 28.254V5.05826C60.5361 4.79294 60.5469 4.53116 60.5681 4.27333C61.0674 -1.79271 70.3179 -1.22476 70.3244 4.86144L70.3491 28.2082C70.3511 30.1714 70.7272 36.1606 72.69 36.4172L74.985 36.7171C76.5818 36.9259 79.2382 31.821 80.0306 30.4304L90.4204 12.1966C90.5636 11.9453 90.7142 11.7009 90.8717 11.4639C94.3626 6.21198 102.43 11.3378 99.2726 16.7936L88.3128 35.7345C87.5351 37.0784 85.4267 40.9285 86.3664 42.1664C86.975 42.9681 87.7545 43.7213 88.5301 44.3541C89.6965 45.3057 93.4888 43.3558 94.8597 42.7271C105.25 37.9625 116.623 28.4359 121.294 29.9945L121.367 30.0189C125.268 31.3191 125.778 36.5849 122.198 38.5977L100.117 51.0108C98.6824 51.8172 95.7273 53.4204 95.9775 55.0366C96.1482 56.1392 96.4523 57.2635 96.8859 58.2204C97.5031 59.5825 101.053 60.457 102.558 60.4935C108.604 60.6401 128.539 61.124 128.539 61.124C128.954 61.1343 129.358 61.197 129.749 61.3055C134.882 62.7285 133.598 70.4023 128.269 70.4684L99.4377 69.7295C97.3742 69.7576 95.8762 76.3536 97.657 77.3713L119.438 90.3381C119.694 90.485 119.943 90.6405 120.184 90.8041C125.214 94.2226 120.2 101.86 114.885 98.8961L95.0806 87.8543C93.6823 87.0747 90.8523 86.1212 89.5987 87.1136C88.8698 87.6906 88.1501 88.3595 87.5771 89.061C86.5759 90.287 87.5728 93.0966 88.3561 94.4697L98.0992 111.546C98.275 111.854 98.4432 112.165 98.603 112.478C101.433 118.022 93.1442 122.423 89.9213 117.094L78.644 98.4477C77.7557 96.9781 74.779 95.9361 72.6409 96.8007C71.1802 97.3914 70.4988 100.311 70.4887 101.876L70.344 124.178C70.3436 124.232 70.3428 125.369 70.3416 125.423C70.2097 131.644 60.7238 131.465 60.6687 125.243L60.4722 101.976C60.4593 100.525 59.9408 96.67 58.5633 96.1787C57.515 95.8049 56.4066 95.5643 55.2819 95.446C53.7705 95.2869 51.7189 98.2248 50.941 99.5196C47.5794 105.115 38.1418 120.823 38.1418 120.823C38.0244 121.019 37.8973 121.206 37.7612 121.385C34.1593 126.121 26.8012 120.891 29.8808 115.805L41.468 96.6708C43.2661 93.7015 44.281 90.9008 43.3251 89.6327C42.5831 88.6483 41.7206 87.8322 40.7119 87.064C39.4514 86.104 36.6233 87.1096 35.2527 87.9077L16.6045 98.766C16.326 98.9279 16.0438 99.0783 15.7587 99.2171C10.1661 101.939 5.88796 93.6288 11.2723 90.5217L30.1668 79.6186C31.6644 78.7545 34.6026 75.9404 34.2111 74.2667L33.8143 72.57C33.4047 70.8187 29.6616 70.6518 27.849 70.6222L4.5923 70.2427C4.54321 70.2418 4.49415 70.2406 4.44513 70.2389C-1.65282 70.0281 -1.39285 60.8933 4.70873 60.8628L29.0971 60.7407C30.831 60.7407 33.2679 59.227 33.6828 58.0501L33.6828 58.0219Z" fill="#603813"/>
<path d="M110.833 65.4809C110.833 89.9451 90.9846 109.777 66.5 109.777C42.0154 109.777 22.1667 89.9451 22.1667 65.4809C22.1667 41.0167 42.0154 21.1846 66.5 21.1846C90.9846 21.1846 110.833 41.0167 110.833 65.4809Z" fill="#603813"/>
</svg>
