<svg width="133" height="130" viewBox="0 0 133 130" fill="none" xmlns="http://www.w3.org/2000/svg">
<path d="M84.0089 94.5865C84.6011 107.125 87.1712 117.947 85.9513 129.976L47.127 130C46.1321 117.994 47.7784 107.125 49.3536 94.3853C39.3455 101.596 30.9955 108.475 20.0636 114.395L0 80.2009C10.6951 73.8547 21.3546 69.5213 32.7011 64.8444C21.2835 60.0137 10.7069 56.3315 0.236884 49.4761L19.7912 15.6019C30.6994 21.0601 39.4284 27.9747 49.3655 35.8364C43.8107 31.4083 47.4704 35.1024 47.4704 35.1024H85.6078C85.5131 41.7328 86.5284 29.3633 87.2746 35.4727C96.9984 28.5463 102.201 21.1075 112.778 15.3295L132.853 49.4643C122.324 56.1539 111.961 59.9782 100.306 64.9036C111.842 69.4857 122.407 73.9139 132.853 80.272L113.169 114.49C102.935 109.055 94.3842 102.425 84.0207 94.5984L84.0089 94.5865Z" fill="#603813"/>
<path d="M48.9911 35.4135C48.3989 22.8749 45.8288 12.0531 47.0487 0.023667L85.8731 0C86.8679 12.0058 85.2216 22.8749 83.6464 35.6147C93.6545 28.4042 102.004 21.5251 112.936 15.6051L133 49.7991C122.305 56.1453 111.645 60.4787 100.299 65.1555C111.716 69.9863 122.293 73.6685 132.763 80.5239L113.209 114.398C102.301 108.94 93.5716 102.025 83.6346 94.1636C89.1894 98.5917 85.5296 94.8976 85.5296 94.8976H47.3922C47.4869 88.2672 45.2966 101.007 44.5504 94.8976C34.8265 101.824 30.7988 108.893 20.2222 114.67L0.146794 80.5357C10.676 73.8461 21.0395 70.0218 32.6939 65.0963C21.1579 60.5143 10.5931 56.0861 0.146794 49.728L19.8314 15.5104C30.0645 20.945 38.6158 27.5754 48.9793 35.4016L48.9911 35.4135Z" fill="#603813"/>
</svg>
