<?xml version="1.0" encoding="UTF-8"?><svg id="a" xmlns="http://www.w3.org/2000/svg" viewBox="0 0 1005 1000"><path d="M403.141,739.8786c5.2311-70.6609-64.6033-122.9022-130.9116-97.9316l-123.6455,46.5627c-59.0623,22.2787-116.2296-5.6848-140.5753-62.3973-21.4905-50.0628.6641-125.5282,61.714-140.826l114.68-28.7935c79.8602-20.051,111.8505-116.2695,59.8941-180.1463l-76.6893-94.2842c-24.8338-30.5397-17.1177-79.9133-3.1467-105.3767,21.8194-39.5943,56.9835-63.14,101.439-61.4931,38.7339,1.4739,74.9408,27.6927,94.6792,59.9452l49.3329,80.5509c43.402,70.8669,146.0073,71.8575,190.7695,1.8419l48.1527-75.3189c37.9032-59.3151,109.3263-80.5652,164.173-41.7254,54.3896,38.4997,63.7643,114.5181,17.4629,167.942l-60.8961,70.2735c-54.3617,62.7329-24.4089,160.721,55.7366,182.3381l110.0169,29.674c53.1215,14.3116,75.8946,71.8268,70.173,120.3498-.5234,4.4388-1.4346,8.8418-2.7054,13.127-12.8509,43.3323-46.9187,69.7236-91.0142,77.5475-19.9619,3.5419-40.5252.4989-59.2623-7.2432-21.1667-8.7461-54.5656-22.5464-90.3828-37.3459-77.0111-31.8207-160.7066,28.1755-155.2773,111.3247l5.2838,80.9207c4.2591,64.7589-22.8768,118.415-85.3128,132.5933-36.455,8.246-72.1544-1.489-97.9832-24.1522-25.5142-22.3872-37.6687-56.3614-35.1626-90.2123,2.0937-28.2808,5.7754-78.0127,9.4571-127.7451Z" style="fill:#603813;"/></svg>