<svg width="1039" height="1000" viewBox="0 0 1039 1000" fill="none" xmlns="http://www.w3.org/2000/svg">
<path d="M616.438 589.224L629.14 881.941C631.93 946.915 586.19 993.976 522.758 999.629C466.813 1004.62 400.003 958.662 404.555 893.981L426.213 590.619L138.93 700.746C101.046 715.282 55.1601 691.862 34.6765 669.984C2.88665 635.918 -8.8602 593.85 7.07145 550.9C20.9474 513.384 58.2436 486.366 96.274 477.336L371.517 412.067L195.902 197.1C149.942 140.862 152.071 64.0673 207.796 22.8066C263.006 -18.0871 340.535 -2.88963 377.978 59.5889L522.317 300.472L688.241 47.4015C720.765 -2.22887 788.97 -4.13773 834.93 20.3838C888.084 53.1281 901.006 112.964 878.099 174.414L674.292 412.067L935.806 479.245C1000.63 495.91 1044.54 539.667 1038.3 605.45C1032.06 671.232 974.717 717.852 906.071 708.528L616.438 589.298V589.224Z" fill="#603813"/>
</svg>
