<?xml version="1.0" encoding="UTF-8"?><svg id="a" xmlns="http://www.w3.org/2000/svg" viewBox="0 0 1005 1000"><path d="M573.1102,968.3636c-36.1736,38.4007-85.7122,41.8875-122.77,6.3168-76.7151-73.7169-103.1101-184.019-120.9346-292.7596-120.2103-25.1966-275.6913-47.3731-328.3937-158.8891-10.0647-122.2929,201.4977-178.78,323.4209-196.7738,9.5564-93.913,32.1074-182.4493,79.879-262.0593,17.9568-29.9032,43.8251-54.269,77.8296-62.6543,44.7977-6.3752,78.0277,20.925,102.8194,57.087,52.642,76.7418,75.746,166.6753,91.4227,262.1011,110.2226,16.988,248.7416,43.8192,314.7941,130.5496,20.1993,31.4486,16.3436,63.9218-6.112,92.355-65.5848,83.1026-198.6352,109.0377-304.6888,132.383-12.0662,101.0721-39.9385,220.7606-107.3296,292.3901l.0629-.0466Z" style="fill:#603813;"/><path d="M73.6782,37.1774c120.6614,50.8978,222.6483,162.8564,319.7195,269.0959,20.396,22.3854,20.0709,64.8416,62.9925,76.5348-40.9324-173.4083-51.5465-109.1991,36.3562-278.1635,79.7291,181.6522,89.4826,87.0752,48.4863,271.3223,39.3385-12.624,44.9173-46.5113,64.5803-71.7593C705.6766,176.1756,826.7973,69.0054,991.375,5.2921c-73.6146,195.596-219.1926,338.6493-397.1214,453.4577,116.2049-19.7266,245.4992-41.2577,360.5819-24.247-7.4362,6.1895-189.8865,9.9744-111.2157,53.961-185.3119,83.3886-33.9607,95.3341-229.1678,54.408,12.8217,38.4651,53.0847,41.5191,76.9367,62.7186,118.602,105.8378,247.3035,224.44,295.5297,384.1658-100.1889-31.6239-176.0668-92.6208-251.1416-155.3392-83.3251-69.5024-137.0727-147.9626-198.8604-241.5143,38.1334,192.4144,73.311,75.6609-21.1079,256.3184-82.7829-196.667-103.1433-53.2757-57.0273-253.9275-69.77,99.3919-130.1677,185.7008-220.0597,255.5347-72.0209,55.941-141.8508,116.2073-234.7364,140.2598,73.4865-192.8155,207.4989-318.8582,375.1308-444.7669-197.7318,32.9565-87.8725,28.1942-278.4253-59.5046,180.4535-83.988,99.164-70.5867,297.0935-26.9382l-142.4538-106.6985C161.4534,282.8168,55.877,133.12,7.8992,23.3611c14.8874-22.3216,46.8428-.4655,65.8427,13.7525l-.0637.0637Z" style="fill:#603813;"/></svg>