<svg width="1014" height="1000" viewBox="0 0 1014 1000" fill="none" xmlns="http://www.w3.org/2000/svg">
<path d="M525.973 41.259C561.82 129.41 556.699 239.344 551.988 343.814C550.964 365.801 528.977 387.446 545.023 415.51C613.1 305.372 734.709 181.509 866.697 139.858C814.326 274.167 707.875 381.984 592.137 455.591C618.835 469.316 639.115 454.772 662.194 451.904C779.297 437.428 896.605 444.598 1013.91 496.424C875.574 559.106 727.267 557.809 576.842 525.375C646.694 574.947 724.194 630.324 774.586 698.196C810.092 746.061 847.237 791.263 865.059 854.287C726.993 801.915 623.274 700.312 543.999 578.976C530.821 605.333 549.939 627.592 551.305 650.74C557.86 766.067 563.049 893.139 505.761 1000C470.528 932.265 462.88 861.935 456.53 791.127C449.429 712.603 462.129 644.663 478.449 564.842C399.174 683.31 288.011 807.378 146.669 851.693C205.186 708.096 310.271 605.333 437.07 525.921C350.148 541.148 274.765 554.463 192.69 544.152C126.935 535.89 60.0877 530.974 0 495.604C136.836 434.288 270.463 438.384 421.297 459.825C302.76 375.156 199.177 281.132 146.327 138.151C282.208 187.723 396.033 300.865 475.308 425.001L456.94 296.973C444.854 212.577 467.524 81.4086 499.275 0.358419C518.393 -3.46535 523.583 24.1887 526.041 41.259H525.973Z" fill="#603813"/>
<path d="M649.727 67.5843C659.535 162.239 623.921 266.37 590.226 365.37C583.104 386.196 555.948 400.841 563.52 432.269C659.642 345.52 811 260.541 949.369 257.4C861.577 371.744 729.255 445.549 597.568 483.912C619.372 504.545 642.906 496.242 665.868 499.933C782.355 518.731 892.995 558.371 991.166 640.89C840.827 662.452 698.781 619.795 563.396 546.649C616.628 613.754 675.582 688.568 705.018 767.811C725.747 823.687 748.793 877.463 748.308 942.956C630.358 854.116 559.134 727.593 516.892 588.947C496.879 610.576 509.022 637.289 503.869 659.897C477.961 772.468 447.463 895.935 362.615 982.549C347.696 907.669 359.991 838.001 373.665 768.237C388.772 690.853 419.938 629.162 457.896 557.072C348.695 648.693 207.311 736.787 59.2163 739.872C155.502 618.327 285.101 548.993 429.031 508.146C341.314 498.496 265.211 490.232 189.28 457.415C128.448 431.121 65.6316 407.735 17.81 356.994C166.325 336.324 293.493 377.57 432.341 440.274C342.16 325.874 268.951 206.667 258.127 54.6155C374.761 140.157 452.467 280.583 493.927 421.917L512.038 293.852C523.998 209.438 582.392 89.8165 635.511 20.8557C654.937 22.5225 652.199 50.5256 649.793 67.6034L649.727 67.5843Z" fill="#603813"/>
</svg>
