<svg width="130" height="130" viewBox="0 0 130 130" fill="none" xmlns="http://www.w3.org/2000/svg">
<path d="M53.2375 122.129C46.1107 133.236 31.7429 131.413 22.3676 123.923C12.5064 116.051 11.2678 102.043 19.6331 92.1096C25.4165 85.2393 30.4471 78.1591 35.211 70.5159C21.8531 59.6666 1.88298 55.9547 0.139405 40.3153C-1.16589 28.6167 6.8374 16.6223 18.1849 14.1986C33.7818 10.8589 43.6145 26.7274 58.9065 35.1053C64.0705 27.5385 68.7105 20.296 72.817 12.1853C79.0291 -0.0667578 93.6065 -3.5687 105.164 3.92183C113.862 9.55165 118.931 20.6395 114.139 30.3629L104.201 45.1626L94.3115 58.846C101.333 63.6838 108.365 67.9396 116.216 71.9854C126.372 77.224 133.051 87.8729 128.592 99.3425C127.116 103.131 123.743 108.274 120.694 110.955C111.442 119.104 99.1802 116.184 90.4052 108.694C83.993 103.217 77.819 98.4265 70.759 94.2089L63.1368 106.709L53.2279 122.148L53.2375 122.129Z" fill="#603813"/>
</svg>
