<svg width="130" height="130" viewBox="0 0 130 130" fill="none" xmlns="http://www.w3.org/2000/svg">
<path d="M30.5717 129.716C22.5509 131.157 16.0821 127.032 14.7536 119.206C12.0096 102.993 18.8757 86.8671 26.6606 71.7228C14.0583 57.5351 -3.20013 40.4775 0.512293 21.7801C10.5073 5.66669 41.9573 18.1151 58.7439 27.0973C68.5651 16.3137 79.5037 7.39357 92.7516 1.90235C97.7305 -0.159956 103.181 -0.805982 108.172 1.28118C114.318 4.61069 115.933 11.0585 115.684 17.8294C115.163 32.2034 109.762 45.4966 102.933 58.7898C115.051 71.0395 129.777 87.1156 130 103.962C129.615 109.726 126.151 113.404 120.75 114.87C104.969 119.156 86.0718 110.136 70.7627 103.279C59.9731 114.721 45.5083 127.02 30.5593 129.716H30.5717Z" fill="#603813"/>
</svg>
