<?xml version="1.0" encoding="UTF-8"?><svg id="a" xmlns="http://www.w3.org/2000/svg" viewBox="0 0 1005 1000"><path d="M295.3834,770.1628c-38.7879,1.1142-66.3677-21.9236-67.1411-58.2566-1.5594-75.2548,42.0827-143.6385,89.3703-206.9536-49.4189-72.7409-118.7538-161.6154-88.1634-243.7669,58.3726-66.2129,197.7917,11.3647,270.5658,63.3562,53.8169-42.2,111.5961-75.2097,177.8504-91.137,24.8931-5.9763,51.0211-5.2246,73.0691,7.5916,26.6163,19.2211,29.7005,49.5018,23.7866,79.9944-12.5349,64.7252-47.2945,121.2731-88.774,176.853,48.4936,63.6381,106.5851,146.3557,95.83,222.7866-5.8511,25.8373-24.7466,40.1534-51.2151,43.1437-77.3359,8.7634-160.0281-44.8218-227.3316-86.1973-58.8459,44.5259-135.5959,90.4576-207.9039,92.5779l.0569.0082Z" style="fill:#603813;"/><path d="M521.1553,67.1903c35.1644,83.1715,30.1381,186.8918,25.5169,285.4563-1.0027,20.7403-22.5667,41.1654-6.826,67.6425,66.7745-103.9118,29.0598-77.9291,158.5337-117.2276-51.3743,126.717,1.2134,85.5948-112.3205,155.0424,26.1917,12.9511,46.0846-.7727,68.722-3.4803,114.8708-13.656,229.9409-6.8928,345.011,42.006-135.6957,59.1363-281.1803,57.9123-428.7346,27.3117,68.5163,46.7725,37.2776,26.0599,86.7109,90.0985-6.8681-.6044,6.5223-14.2651,24.0049,45.1989-135.4385-49.4122-65.1711,29.7537-142.9364-84.7232-12.9256,24.8637,5.8297,45.8637,7.1666,67.7045,6.4338,108.8079,11.5244,228.7001-44.677,329.5147-34.5602-63.9025-42.061-130.2591-48.2892-197.0609-6.9673-74.0904,5.489-138.1844,21.4997-213.4926-77.7654,111.769-1.1844,72.2212-139.8368,114.0295,57.4033-135.4766-25.1358-75.8315,99.2476-150.7501-85.2661,14.3606-159.2136,26.9223-239.7235,17.1982-64.4992-7.7955-130.0743-12.4319-189.0169-45.802,134.2296-57.8504,265.3104-53.9867,413.2696-33.7595-116.2785-79.8827-58.5035-28.9319-110.347-163.8276,133.2918,46.7662,85.5629,13.8542,163.3282,130.9706l-18.0225-120.7884c-11.8521-79.6232,10.3868-203.379,41.5276-279.8493,18.7552-3.6041,23.8458,22.4836,26.2561,38.5876h-.0642Z" style="fill:#603813;"/></svg>