<svg width="136" height="130" viewBox="0 0 136 130" fill="none" xmlns="http://www.w3.org/2000/svg">
<path d="M55.3024 53.4008L53.6397 15.3477C53.2745 6.901 59.2622 0.783103 67.5661 0.0481917C74.8898 -0.600821 83.6358 5.37391 83.0399 13.7824L80.2047 53.2195L117.813 38.9031C122.772 37.0133 128.779 40.0579 131.461 42.9021C135.622 47.3307 137.16 52.7996 135.074 58.383C133.258 63.2601 128.375 66.7724 123.397 67.9464L87.3649 76.4312L110.355 104.377C116.371 111.688 116.092 121.671 108.798 127.035C101.57 132.351 91.4208 130.376 86.5192 122.253L67.6238 90.9386L45.9028 123.838C41.6451 130.29 32.7164 130.538 26.6999 127.35C19.7414 123.093 18.0499 115.315 21.0486 107.326L47.7289 76.4312L13.4943 67.6982C5.00768 65.5317 -0.739741 59.8433 0.0771994 51.2916C0.89414 42.7399 8.40039 36.6792 17.3867 37.8913L55.3024 53.3913V53.4008Z" fill="#603813"/>
</svg>
