<?xml version="1.0" encoding="UTF-8"?><svg id="a" xmlns="http://www.w3.org/2000/svg" viewBox="0 0 1005 1000"><path d="M733.7301,615.6424c54.3361,76.546,114.1928,134.304,155.0773,214.9577l-244.2372,156.8181c-54.724-71.5676-88.2452-146.6359-129.7496-233.1948-33.8823,85.7842-58.6661,162.7796-103.5687,244.1637l-264.2921-134.2992c41.6905-83.1063,91.2843-153.3998,143.813-228.6309-91.3496,15.663-172.7778,35.1602-266.3423,34.252l-13.6781-292.1507c90.682-9.6579,173.5291-1.3533,267.8016,8.0359-52.8323-5.4544-14.8878,3.0314-14.8878,3.0314l240.0169-153.9003c26.161,42.1208-17.38-39.8447,11.9778-4.3927,33.2387-82.8402,35.9556-150.6682,79.1941-229.7247l264.1324,133.8772c-39.2658,84.6073-89.0516,150.4958-142.5135,228.5342,91.0963-17.7094,175.4566-32.4608,266.871-34.5911l14.2376,294.8474c-86.3381,7.0745-166.9201-.1512-263.7307-7.6006l-.1219-.0326Z" style="fill:#603813;"/><path d="M274.491,384.4478c-54.336-76.5461-114.1929-134.3043-155.0772-214.9578L363.6556,12.6791c54.7193,71.5604,88.2406,146.6287,129.7449,233.1876,33.8822-85.7842,58.666-162.7795,103.5687-244.1637l264.292,134.299c-41.6904,83.1066-91.2841,153.4-143.813,228.6312,91.3496-15.663,172.778-35.1603,266.3424-34.2521l13.6711,292.1552c-90.6821,9.6579-173.522,1.3487-267.7946-8.0404,52.8323,5.4544,14.8878-3.0314,14.8878-3.0314l-240.0169,153.9003c-26.161-42.1208,11.4771,46.9172-17.8807,11.4652-33.2341,82.8474-30.0528,143.5957-73.2913,222.6523l-264.1324-133.8772c39.2658-84.6073,89.0517-150.4959,142.5136-228.5342-91.0963,17.7094-175.4567,32.4608-266.8711,34.5911l-14.2376-294.8474c86.3381-7.0745,166.92.1513,263.7307,7.6006l.1218.0327Z" style="fill:#603813;"/></svg>