<svg width="1005" height="1000" viewBox="0 0 1005 1000" fill="none" xmlns="http://www.w3.org/2000/svg">
<path d="M566.45 969.887C529.681 1007.87 480.051 1010.54 443.454 974.376C367.757 899.542 342.813 788.716 326.672 679.616C206.697 652.686 51.3328 628.259 0.235325 515.88C-8.05075 393.315 204.452 339.8 326.758 323.487C337.634 229.665 361.543 141.28 410.396 62.3032C428.781 32.6114 455.106 8.6163 489.2 0.761792C534.083 -5.0212 567.055 22.858 591.309 59.3686C642.838 136.878 664.761 227.334 679.089 322.969C789.139 341.527 927.413 370.442 992.32 458.136C1012.09 489.899 1007.77 522.353 984.897 550.491C918.091 632.661 784.478 656.829 678.054 678.666C664.589 779.653 634.897 899.11 566.45 969.801V969.887Z" fill="#603813"/>
</svg>
