<svg width="1001" height="1000" viewBox="0 0 1001 1000" fill="none" xmlns="http://www.w3.org/2000/svg">
<path d="M652.495 871.539C653.999 961.954 565.088 1006.28 483.042 999.283C396.811 991.896 336.535 916.845 346.537 828.326C353.467 767.134 355.298 707.642 353.402 645.928C235.922 634.945 107.785 689.795 38.4216 607.291C-13.4867 545.576 -13.3559 446.728 42.2134 389.72C118.572 311.335 235.006 364.355 354.186 353.895C354.971 291.134 353.859 232.165 346.472 170.254C335.358 76.7671 405.31 1.32362 499.712 0.0161016C570.776 -0.964534 641.839 42.9025 651.449 116.581L650.992 238.768L646.546 354.418C704.992 355.267 761.346 352.783 821.557 345.984C899.419 337.158 978.001 372.461 996.175 454.835C1002.19 482.031 1002.39 524.198 995.195 551.068C973.359 632.722 892.228 662.795 813.646 653.446C756.246 646.647 702.769 642.855 646.415 645.666L650.403 745.887L652.495 871.605V871.539Z" fill="#603813"/>
</svg>
