<svg width="130" height="130" viewBox="0 0 130 130" fill="none" xmlns="http://www.w3.org/2000/svg">
<path d="M33.4479 57.8848C34.8327 54.9766 34.5347 52.7274 32.5714 51.1284C30.5817 50.9702 28.2765 48.4838 26.2781 47.447C15.1467 41.701 7.21437 38.6611 10.4925 28.1091L39.1451 44.697C41.4415 43.1507 43.2033 41.4286 44.6056 39.1794L31.7562 15.7033C30.1172 12.6985 33.1323 7.86625 36.3841 6.54835L52.4853 34.312L60.4614 33.0293V8.07711C60.4614 3.08668 64.4846 -0.568284 69.5595 0.0730919L69.5945 33.0732L77.3778 34.1011L88.2639 14.7896C90.9284 10.0627 96.3451 7.97168 101.192 10.915L85.4503 38.4151C85.5467 40.7697 88.7459 43.3791 90.4639 44.3368C100.614 40.2689 112.35 29.963 116.987 31.5269C119.248 32.2912 122.342 33.161 123.376 36.4646L95.3459 52.3935C95.1268 54.9063 96.0296 59.0445 97.9579 60.1691L123.727 60.8017C127.583 60.8984 130.485 65.9327 129.932 69.5086L97.6687 69.9128C95.7491 69.9391 94.3555 76.142 96.0121 77.0997L115.26 88.2754C119.555 90.7619 121.536 95.8753 118.959 100.795L90.6479 84.8401C88.8073 85.7978 85.3802 88.5039 85.5292 90.7179L95.4073 108.22C98.3523 113.43 98.9834 119.545 93.7507 123.384L77.3077 95.9016C76.0893 93.8633 71.1634 95.7523 69.7348 97.0263L69.5858 120.098C69.5507 125.212 65.9395 129.306 60.6718 130L60.3826 96.9735C58.165 95.4975 55.3427 94.9264 52.6256 95.0758L39.6272 116.944C37.4447 120.617 31.6072 121.24 28.3467 118.227L44.7371 90.8673C43.4487 88.0119 41.6256 86.4919 38.9523 84.805L19.5905 96.2004C14.9275 98.9416 9.13389 98.1772 6.7323 93.055L34.5523 76.8273L32.922 69.781L8.41517 69.3768C3.84863 69.2977 -0.437435 65.2035 0.0358728 60.5996L31.2128 60.4415C32.8256 60.4415 33.0622 59.0182 33.4479 57.9111V57.8848Z" fill="#603813"/>
</svg>
