<svg width="129" height="130" viewBox="0 0 129 130" fill="none" xmlns="http://www.w3.org/2000/svg">
<path d="M72.0596 109.376C70.2339 118.1 68.2011 129.98 64.3919 130C60.0893 130.02 57.8294 117.814 56.4972 109.604L45.7407 124.698C45.0894 125.618 44.1124 126.399 43.2539 126.657C38.3986 128.111 39.6421 114.609 41.5762 104.322C33.9184 109.792 24.7211 118.368 21.8691 114.48C21.1981 113.57 20.8527 112.502 21.4053 111.315L29.4776 93.8564C21.8889 96.903 11.8725 100.325 8.01397 98.4164C4.34294 96.5963 14.0534 86.5762 21.8395 80.6215C13.4613 79.0884 1.24428 81.3634 0.129154 76.2693C-0.117555 75.1614 1.02718 73.648 2.22125 73.0545L18.8593 64.7951C11.083 62.1442 0.10942 58.1381 0.000868165 54.3695C-0.117552 50.037 11.9021 49.8787 21.6915 49.7106C16.2541 44.3197 6.69161 36.7527 7.21463 33.439C7.85608 29.3044 20.1816 32.7268 29.5467 36.1493C25.5599 28.9384 19.7869 18.0973 21.4645 15.8321C24.356 11.9151 33.9776 20.2437 41.142 25.6148C40.2934 16.663 38.5072 5.22842 41.5861 3.98209C44.9117 2.63684 51.8295 12.9933 56.3689 20.4613C58.2439 12.8943 59.6255 0.975066 63.5629 0.0551553C67.7471 -0.924105 70.0563 11.3414 72.0596 20.5405C76.6188 14.0912 81.997 2.84456 86.2404 4.03154C87.474 4.37775 88.8259 6.34616 88.668 8.12663L87.1779 25.3181L102.148 15.2386C103.214 14.5264 105.02 14.7836 105.849 15.2881C109.619 17.573 102.395 28.5328 99.1482 36.1493C106.707 33.805 112.549 30.6595 120.04 31.9949C124.668 32.8257 114.454 43.7756 106.49 49.6314L121.293 50.4524C123.651 50.581 128.161 51.9658 128.26 54.3991C124.678 61.0462 115.401 61.1155 110.171 65.8041C117.533 68.544 124.165 70.3047 129 75.7648C125.309 82.2932 115.767 78.485 107.536 81.2843L119.862 93.8069C120.74 94.6972 120.987 96.3491 120.75 97.269C119.655 101.463 108.198 97.0118 99.3949 94.5092L106.717 111.068C107.339 112.482 106.994 114.441 105.869 115.43C105.119 116.083 103.076 115.657 101.921 114.866L86.7733 104.519L88.7075 117.952C89.1911 121.295 88.5792 124.965 85.9641 127.26C79.3523 122.571 75.8589 116.083 72.0497 109.406L72.0596 109.376Z" fill="#603813"/>
</svg>
