<?xml version="1.0" encoding="UTF-8"?><svg id="a" xmlns="http://www.w3.org/2000/svg" viewBox="0 0 467.8717 306.0669"><line x1="2.4937" y1="80.6465" x2="226.2534" y2="182.893" style="fill:none; stroke:#2f3061; stroke-miterlimit:10; stroke-width:12px;"/><path d="M427.0117,297.1989c-3.5399,0-3.5399-.1296-7.0799-.1296s-3.5393.3284-7.0786.3284-3.5408-.1151-7.0816-.1151-3.5419.0988-7.0838.0988c-3.5401,0-3.5401-.1423-7.0802-.1423s-3.5409.114-7.0819.114-3.5423-.1691-7.0847-.1691-3.5407.1382-7.0814.1382-3.5424.1888-7.0849.1888-3.5415-.0491-7.0829-.0491-3.5422.099-7.0843.099-3.5419-.353-7.0839-.353-3.5429.3409-7.0859.3409-3.5421-.458-7.0841-.458-3.5431.3837-7.0861.3837-3.5436-.27-7.0872-.27-3.5431.2975-7.0862.2975-3.5431-.1233-7.0863-.1233-3.5436-.1975-7.0871-.1975-3.5441.1877-7.0882.1877c-3.5417,0-3.5417.1978-7.0835.1978s-3.5433-.2388-7.0865-.2388-3.5433-.2649-7.0865-.2649-3.5433.3632-7.0867.3632-3.5442-.0728-7.0885-.0728c-3.5423,0-3.5423-.1892-7.0846-.1892-3.5454,0-3.5454-.069-7.0908-.069-3.5478,0-3.5478.3462-7.0957.3462s-3.5478.0198-7.0957.0198c-2.4558,0-4.8688-.2975-7.1664-.8198-2.3726-.5393-4.5114-1.6693-6.6519-2.702-2.1757-1.0497-4.261-2.1879-6.1298-3.6802-1.8779-1.4995-3.6058-3.1578-5.1053-5.0358-1.4921-1.8687-2.5915-3.9847-3.6411-6.1603-1.0326-2.1404-1.7877-4.3643-2.3269-6.7367-.5223-2.2977-1.0582-4.6256-1.0582-7.0814,0-3.6183.0791-3.6183.0791-7.2365s-.0695-3.6192-.0695-7.2384c0-3.6164-.1097-3.6164-.1097-7.2329s-.025-3.6158-.025-7.2316.3427-3.6173.3427-7.2346-.2157-3.6185-.2157-7.2369c0-3.6166.1353-3.6166.1353-7.2332s-.0906-3.6175-.0906-7.2349-.2144-3.6189-.2144-7.2378.1731-3.6172.1731-7.2345.0248-3.619.0248-7.238-.3232-3.618-.3232-7.236.2401-3.6187.2401-7.2375.2587-3.6185.2587-7.237-.4655-3.6195-.4655-7.239.1298-3.6186.1298-7.2372-.0692-3.6196-.0692-7.2393.306-3.6202.306-7.2404-.1296-3.6197-.1296-7.2393.0009-3.6197.0009-7.2394-.1634-3.6201-.1634-7.2403.036-3.6207.036-7.2414c0-3.6183.3264-3.6183.3264-7.2366s-.3586-3.6199-.3586-7.2397.0825-3.6198.0825-7.2397-.024-3.6199-.024-7.2398-.0718-3.6208-.0718-7.2417.435-3.6221.435-7.2442-.003-3.621-.003-7.2419c0-3.6234-.4678-3.6234-.4678-7.2469s.1798-3.6234.1798-7.2469c0-2.4558.2377-4.8629.7599-7.1606.5393-2.3726,1.2464-4.7088,2.2791-6.8493,1.0497-2.1757,2.3103-4.2887,3.8027-6.1575,1.4995-1.8779,3.2706-3.5892,5.1486-5.0887,1.8687-1.4921,4.0708-2.5458,6.2464-3.5954,2.1404-1.0326,4.3297-2.1162,6.7021-2.6554,2.2977-.5223,4.7359-.7809,7.1917-.7809,3.5399,0,3.5399.2419,7.0799.2419s3.5393.0454,7.0786.0454,3.5408.1327,7.0816.1327,3.5419-.1042,7.0838-.1042c3.5401,0,3.5401-.0492,7.0802-.0492s3.5409-.225,7.0819-.225,3.5423.1482,7.0847.1482,3.5407-.1017,7.0814-.1017,3.5424.0601,7.0849.0601,3.5415-.1555,7.0829-.1555,3.5422.0373,7.0843.0373c3.5419,0,3.5419.1059,7.0839.1059s3.5429.1224,7.0859.1224,3.5421-.3222,7.0841-.3222,3.5431.4349,7.0861.4349,3.5436-.128,7.0872-.128,3.5431-.2798,7.0862-.2798,3.5431.085,7.0863.085,3.5436.0506,7.0871.0506,3.5441.3688,7.0882.3688q3.5417,0,7.0835,0c3.5433,0,3.5433-.4618,7.0865-.4618s3.5433-.0525,7.0865-.0525,3.5433.3875,7.0867.3875,3.5442-.0369,7.0885-.0369c3.5423,0,3.5423.0473,7.0846.0473,3.5454,0,3.5454-.2731,7.0908-.2731,3.5478,0,3.5478-.1022,7.0957-.1022s3.5478-.0073,7.0957-.0073c2.4558,0,4.852.4744,7.1497.9967,2.3726.5393,4.7235,1.1907,6.864,2.2234,2.1757,1.0497,3.9546,2.7319,5.8234,4.2242,1.8779,1.4995,3.7697,2.9766,5.2692,4.8545,1.4921,1.8687,2.5622,4.0156,3.6118,6.1911,1.0326,2.1404,1.8792,4.3495,2.4185,6.7219.5223,2.2977,1.0141,4.6517,1.0141,7.1075,0,3.6183-.2944,3.6183-.2944,7.2365s.3052,3.6192.3052,7.2384c0,3.6164-.1509,3.6164-.1509,7.2329s.2178,3.6158.2178,7.2316-.1942,3.6173-.1942,7.2346-.1881,3.6185-.1881,7.2369c0,3.6166.4077,3.6166.4077,7.2332s.0455,3.6175.0455,7.2349.0087,3.6189.0087,7.2378-.4132,3.6172-.4132,7.2345.3483,3.619.3483,7.238-.3108,3.618-.3108,7.236.3535,3.6187.3535,7.2375.0745,3.6185.0745,7.237-.1668,3.6195-.1668,7.239.0552,3.6186.0552,7.2372.0794,3.6196.0794,7.2393-.364,3.6202-.364,7.2404.1592,3.6197.1592,7.2393.2082,3.6197.2082,7.2394-.2875,3.6201-.2875,7.2403-.1076,3.6207-.1076,7.2414c0,3.6183-.1108,3.6183-.1108,7.2366s.1241,3.6199.1241,7.2397-.0459,3.6198-.0459,7.2397.2411,3.6199.2411,7.2398-.1279,3.6208-.1279,7.2417.227,3.6221.227,7.2442-.1009,3.621-.1009,7.2419c0,3.6234-.0568,3.6234-.0568,7.2469s.0512,3.6234.0512,7.2469c0,2.4558-.3267,4.8442-.849,7.1419-.5393,2.3726-1.3475,4.6391-2.3802,6.7796-1.0497,2.1757-2.1735,4.34-3.6658,6.2089-1.4995,1.8779-3.3464,3.4733-5.2243,4.9727-1.8687,1.4921-3.9724,2.6497-6.1479,3.6993-2.1404,1.0326-4.3551,1.9492-6.7275,2.4884-2.2977.5223-4.6868.6628-7.1426.6628Z" style="fill:#161635;"/><path d="M427.0117,297.1989c-3.5399,0-3.5399-.1296-7.0799-.1296s-3.5393.3284-7.0786.3284-3.5408-.1151-7.0816-.1151-3.5419.0988-7.0838.0988c-3.5401,0-3.5401-.1423-7.0802-.1423s-3.5409.114-7.0819.114-3.5423-.1691-7.0847-.1691-3.5407.1382-7.0814.1382-3.5424.1888-7.0849.1888-3.5415-.0491-7.0829-.0491-3.5422.099-7.0843.099-3.5419-.353-7.0839-.353-3.5429.3409-7.0859.3409-3.5421-.458-7.0841-.458-3.5431.3837-7.0861.3837-3.5436-.27-7.0872-.27-3.5431.2975-7.0862.2975-3.5431-.1233-7.0863-.1233-3.5436-.1975-7.0871-.1975-3.5441.1877-7.0882.1877c-3.5417,0-3.5417.1978-7.0835.1978s-3.5433-.2388-7.0865-.2388-3.5433-.2649-7.0865-.2649-3.5433.3632-7.0867.3632-3.5442-.0728-7.0885-.0728c-3.5423,0-3.5423-.1892-7.0846-.1892-3.5454,0-3.5454-.069-7.0908-.069-3.5478,0-3.5478.3462-7.0957.3462s-3.5478.0198-7.0957.0198c-2.4558,0-4.8688-.2975-7.1664-.8198-2.3726-.5393-4.5114-1.6693-6.6519-2.702-2.1757-1.0497-4.261-2.1879-6.1298-3.6802-1.8779-1.4995-3.6058-3.1578-5.1053-5.0358-1.4921-1.8687-2.5915-3.9847-3.6411-6.1603-1.0326-2.1404-1.7877-4.3643-2.3269-6.7367-.5223-2.2977-1.0582-4.6256-1.0582-7.0814,0-3.6183.0791-3.6183.0791-7.2365s-.0695-3.6192-.0695-7.2384c0-3.6164-.1097-3.6164-.1097-7.2329s-.025-3.6158-.025-7.2316.3427-3.6173.3427-7.2346-.2157-3.6185-.2157-7.2369c0-3.6166.1353-3.6166.1353-7.2332s-.0906-3.6175-.0906-7.2349-.2144-3.6189-.2144-7.2378.1731-3.6172.1731-7.2345.0248-3.619.0248-7.238-.3232-3.618-.3232-7.236.2401-3.6187.2401-7.2375.2587-3.6185.2587-7.237-.4655-3.6195-.4655-7.239.1298-3.6186.1298-7.2372-.0692-3.6196-.0692-7.2393.306-3.6202.306-7.2404-.1296-3.6197-.1296-7.2393.0009-3.6197.0009-7.2394-.1634-3.6201-.1634-7.2403.036-3.6207.036-7.2414c0-3.6183.3264-3.6183.3264-7.2366s-.3586-3.6199-.3586-7.2397.0825-3.6198.0825-7.2397-.024-3.6199-.024-7.2398-.0718-3.6208-.0718-7.2417.435-3.6221.435-7.2442-.003-3.621-.003-7.2419c0-3.6234-.4678-3.6234-.4678-7.2469s.1798-3.6234.1798-7.2469c0-2.4558.2377-4.8629.7599-7.1606.5393-2.3726,1.2464-4.7088,2.2791-6.8493,1.0497-2.1757,2.3103-4.2887,3.8027-6.1575,1.4995-1.8779,3.2706-3.5892,5.1486-5.0887,1.8687-1.4921,4.0708-2.5458,6.2464-3.5954,2.1404-1.0326,4.3297-2.1162,6.7021-2.6554,2.2977-.5223,4.7359-.7809,7.1917-.7809,3.5399,0,3.5399.2419,7.0799.2419s3.5393.0454,7.0786.0454,3.5408.1327,7.0816.1327,3.5419-.1042,7.0838-.1042c3.5401,0,3.5401-.0492,7.0802-.0492s3.5409-.225,7.0819-.225,3.5423.1482,7.0847.1482,3.5407-.1017,7.0814-.1017,3.5424.0601,7.0849.0601,3.5415-.1555,7.0829-.1555,3.5422.0373,7.0843.0373c3.5419,0,3.5419.1059,7.0839.1059s3.5429.1224,7.0859.1224,3.5421-.3222,7.0841-.3222,3.5431.4349,7.0861.4349,3.5436-.128,7.0872-.128,3.5431-.2798,7.0862-.2798,3.5431.085,7.0863.085,3.5436.0506,7.0871.0506,3.5441.3688,7.0882.3688q3.5417,0,7.0835,0c3.5433,0,3.5433-.4618,7.0865-.4618s3.5433-.0525,7.0865-.0525,3.5433.3875,7.0867.3875,3.5442-.0369,7.0885-.0369c3.5423,0,3.5423.0473,7.0846.0473,3.5454,0,3.5454-.2731,7.0908-.2731,3.5478,0,3.5478-.1022,7.0957-.1022s3.5478-.0073,7.0957-.0073c2.4558,0,4.852.4744,7.1497.9967,2.3726.5393,4.7235,1.1907,6.864,2.2234,2.1757,1.0497,3.9546,2.7319,5.8234,4.2242,1.8779,1.4995,3.7697,2.9766,5.2692,4.8545,1.4921,1.8687,2.5622,4.0156,3.6118,6.1911,1.0326,2.1404,1.8792,4.3495,2.4185,6.7219.5223,2.2977,1.0141,4.6517,1.0141,7.1075,0,3.6183-.2944,3.6183-.2944,7.2365s.3052,3.6192.3052,7.2384c0,3.6164-.1509,3.6164-.1509,7.2329s.2178,3.6158.2178,7.2316-.1942,3.6173-.1942,7.2346-.1881,3.6185-.1881,7.2369c0,3.6166.4077,3.6166.4077,7.2332s.0455,3.6175.0455,7.2349.0087,3.6189.0087,7.2378-.4132,3.6172-.4132,7.2345.3483,3.619.3483,7.238-.3108,3.618-.3108,7.236.3535,3.6187.3535,7.2375.0745,3.6185.0745,7.237-.1668,3.6195-.1668,7.239.0552,3.6186.0552,7.2372.0794,3.6196.0794,7.2393-.364,3.6202-.364,7.2404.1592,3.6197.1592,7.2393.2082,3.6197.2082,7.2394-.2875,3.6201-.2875,7.2403-.1076,3.6207-.1076,7.2414c0,3.6183-.1108,3.6183-.1108,7.2366s.1241,3.6199.1241,7.2397-.0459,3.6198-.0459,7.2397.2411,3.6199.2411,7.2398-.1279,3.6208-.1279,7.2417.227,3.6221.227,7.2442-.1009,3.621-.1009,7.2419c0,3.6234-.0568,3.6234-.0568,7.2469s.0512,3.6234.0512,7.2469c0,2.4558-.3267,4.8442-.849,7.1419-.5393,2.3726-1.3475,4.6391-2.3802,6.7796-1.0497,2.1757-2.1735,4.34-3.6658,6.2089-1.4995,1.8779-3.3464,3.4733-5.2243,4.9727-1.8687,1.4921-3.9724,2.6497-6.1479,3.6993-2.1404,1.0326-4.3551,1.9492-6.7275,2.4884-2.2977.5223-4.6868.6628-7.1426.6628Z" style="fill:none; stroke:#2f3061; stroke-miterlimit:10; stroke-width:17px;"/><path d="M367.9923,65.5448c-.8626.9758-1.0365.8221-1.8991,1.7979-1.7865,2.0209-1.9556,4.7874-.4523,6.1139.7113.6277.8014.5257,1.5127,1.1534,1.2367,1.0913,1.1639,3.2212.0606,5.1081-.9648,1.6501-2.5103,3.6972-4.5814,6.1478-1.4568,1.7238-3.072,3.7265-5.0031,5.8428-1.5956,1.7487-3.3351,3.639-5.2169,5.6538-1.652,1.7688-3.5246,3.5304-5.3724,5.5032-1.6779,1.7912-3.4007,3.6957-5.2219,5.6542-1.6225,1.7448-3.3549,3.3199-5.0234,4.8997-1.7406,1.6482-3.3126,3.4092-5.061,4.8792-1.8499,1.5553-3.8564,2.8015-5.6653,4.1588-1.9593,1.4702-3.7521,2.9991-5.601,4.239-2.0834,1.3972-4.0715,2.6617-5.927,3.7692-2.2806,1.3613-4.3193,2.5796-6.0994,3.5084-3.3269,1.7358-5.6808,2.6364-6.3954,2.8887-.1312.0463-.2556.1005-.3856.1585-3.2995,1.1631-3.3571.9991-6.6584,2.1569s-3.2393,1.3347-6.5408,2.4925-3.3511,1.0189-6.6533,2.1769c-3.3005,1.1574-3.2601,1.2727-6.5605,2.4301-3.3033,1.1584-3.3779.9458-6.6813,2.1042-3.3056,1.1592-3.2245,1.3906-6.5301,2.5498s-3.3164,1.1286-6.625,2.2793c-.4977.1541-3.3407,1.6688-3.8057,1.9829-.848.5728-1.511,1.4097-2.001,2.3323-.7343,1.3823-1.6931,3.7599-2.8675,6.8465-.7778,2.0443-1.6726,4.3834-2.5495,6.9853-.743,2.2044-1.5114,4.5782-2.2758,7.0824-.6983,2.2876-1.4625,4.6604-2.1423,7.1246-.6473,2.3465-1.4626,4.7117-2.0624,7.1562-.5879,2.396-.8549,4.892-1.3687,7.3245-.516,2.4431-1.0064,4.8823-1.419,7.3045-.4246,2.4925-.9327,4.9364-1.2171,7.3446-.3011,2.5502-.3336,5.0473-.4415,7.4302-.1188,2.6223-.2572,5.1159-.0949,7.4405.1887,2.7031.4729,5.2079,1.1138,7.3625.7948,2.672,2.0651,4.8548,3.689,6.4132,2.2859,2.1936,4.4045,3.9341,6.1058,5.5697,2.5347,2.4368,4.2918,4.4863,5.7827,5.9066,6.3857,6.0829,4.6464,4.0447,6.6158,4.3766.3212.0541.6438-.119.9924-.1568.9422-.102,3.3991-.3816,6.9579-.8588,1.9946-.2674,4.341-.5228,6.9461-.9597,2.1352-.3581,4.4818-.6066,6.9343-1.1013,2.1854-.4408,4.489-.9156,6.8636-1.4801,2.2045-.524,4.4567-1.1956,6.775-1.8383,2.2074-.6119,4.4771-1.2159,6.7459-1.9457,2.1973-.7067,4.443-1.4034,6.6601-2.2299,2.1762-.8112,4.326-1.765,6.4859-2.7002,2.1416-.9273,4.2847-1.8909,6.376-2.9485s4.1052-2.266,6.1112-3.4617c2.0178-1.2028,4.0603-2.3721,5.9579-3.7236,1.9163-1.3648,3.6164-2.9959,5.3744-4.521.8286-.7188,1.3522-1.68,1.6126-2.6697.5587-2.1234,1.0245-4.3588,1.5302-6.6539.479-2.1737,1.1054-4.3753,1.5529-6.6507.4343-2.2082.8038-4.4628,1.223-6.7194.4154-2.2361,1.0155-4.4497,1.43-6.6878.4181-2.2573.7619-4.5173,1.1932-6.7303.4434-2.275.608-4.5747,1.0807-6.7529.4979-2.2946,1.0452-4.5216,1.5932-6.6512.5952-2.3129,1.2294-4.521,1.9059-6.5666.7679-2.3217,1.7193-4.7486,2.7672-7.2041.9892-2.3181,2.337-4.5498,3.4897-6.877,1.1471-2.3158,2.1484-4.7163,3.3748-6.9355,1.285-2.3252,2.7671-4.4658,4.0467-6.5665,1.4451-2.3723,2.9047-4.5231,4.2142-6.4444,1.791-2.6278,3.3362-4.7722,4.5714-6.1695,1.0718-1.2124,2.537-3.5278,4.5384-6.1657,1.4034-1.8497,3.2296-3.7435,4.8664-5.9196,1.5055-2.0016,3.0583-4.0836,4.6116-6.1106,1.6132-2.1053,3.1843-4.1778,4.6912-6.0462,1.8534-2.298,3.5788-4.2874,5.0002-5.773,1.7294-1.8074,3.9681-2.318,5.444-1.1823,0,0,.1406-.1828.1406-.1828,1.7113,1.3168,4.7951.8527,6.7788-1.2643.3424-.3654.2424-.459.5847-.8244,1.8867-2.0135,2.0377-4.6951.5105-6.0651-2.8886-2.5914-2.7223-2.7767-5.6109-5.3681s-3.0506-2.4123-5.9399-5.0044c-2.8877-2.5907-2.8429-2.6407-5.7306-5.2313-2.8903-2.5929-2.7094-2.7945-5.5997-5.3874-2.8922-2.5947-3.1118-2.3499-6.0041-4.9446s-2.8984-2.5878-5.7907-5.1825c-1.4988-1.3446-3.9437-.8222-5.7379,1.2074Z" style="fill:#2f3061;"/><path d="M367.9923,65.5448c-.8626.9758-1.0365.8221-1.8991,1.7979-1.7865,2.0209-1.9556,4.7874-.4523,6.1139.7113.6277.8014.5257,1.5127,1.1534,1.2367,1.0913,1.1639,3.2212.0606,5.1081-.9648,1.6501-2.5103,3.6972-4.5814,6.1478-1.4568,1.7238-3.072,3.7265-5.0031,5.8428-1.5956,1.7487-3.3351,3.639-5.2169,5.6538-1.652,1.7688-3.5246,3.5304-5.3724,5.5032-1.6779,1.7912-3.4007,3.6957-5.2219,5.6542-1.6225,1.7448-3.3549,3.3199-5.0234,4.8997-1.7406,1.6482-3.3126,3.4092-5.061,4.8792-1.8499,1.5553-3.8564,2.8015-5.6653,4.1588-1.9593,1.4702-3.7521,2.9991-5.601,4.239-2.0834,1.3972-4.0715,2.6617-5.927,3.7692-2.2806,1.3613-4.3193,2.5796-6.0994,3.5084-3.3269,1.7358-5.6808,2.6364-6.3954,2.8887-.1312.0463-.2556.1005-.3856.1585-3.2995,1.1631-3.3571.9991-6.6584,2.1569s-3.2393,1.3347-6.5408,2.4925-3.3511,1.0189-6.6533,2.1769c-3.3005,1.1574-3.2601,1.2727-6.5605,2.4301-3.3033,1.1584-3.3779.9458-6.6813,2.1042-3.3056,1.1592-3.2245,1.3906-6.5301,2.5498s-3.3164,1.1286-6.625,2.2793c-.4977.1541-3.3407,1.6688-3.8057,1.9829-.848.5728-1.511,1.4097-2.001,2.3323-.7343,1.3823-1.6931,3.7599-2.8675,6.8465-.7778,2.0443-1.6726,4.3834-2.5495,6.9853-.743,2.2044-1.5114,4.5782-2.2758,7.0824-.6983,2.2876-1.4625,4.6604-2.1423,7.1246-.6473,2.3465-1.4626,4.7117-2.0624,7.1562-.5879,2.396-.8549,4.892-1.3687,7.3245-.516,2.4431-1.0064,4.8823-1.419,7.3045-.4246,2.4925-.9327,4.9364-1.2171,7.3446-.3011,2.5502-.3336,5.0473-.4415,7.4302-.1188,2.6223-.2572,5.1159-.0949,7.4405.1887,2.7031.4729,5.2079,1.1138,7.3625.7948,2.672,2.0651,4.8548,3.689,6.4132,2.2859,2.1936,4.4045,3.9341,6.1058,5.5697,2.5347,2.4368,4.2918,4.4863,5.7827,5.9066,6.3857,6.0829,4.6464,4.0447,6.6158,4.3766.3212.0541.6438-.119.9924-.1568.9422-.102,3.3991-.3816,6.9579-.8588,1.9946-.2674,4.341-.5228,6.9461-.9597,2.1352-.3581,4.4818-.6066,6.9343-1.1013,2.1854-.4408,4.489-.9156,6.8636-1.4801,2.2045-.524,4.4567-1.1956,6.775-1.8383,2.2074-.6119,4.4771-1.2159,6.7459-1.9457,2.1973-.7067,4.443-1.4034,6.6601-2.2299,2.1762-.8112,4.326-1.765,6.4859-2.7002,2.1416-.9273,4.2847-1.8909,6.376-2.9485s4.1052-2.266,6.1112-3.4617c2.0178-1.2028,4.0603-2.3721,5.9579-3.7236,1.9163-1.3648,3.6164-2.9959,5.3744-4.521.8286-.7188,1.3522-1.68,1.6126-2.6697.5587-2.1234,1.0245-4.3588,1.5302-6.6539.479-2.1737,1.1054-4.3753,1.5529-6.6507.4343-2.2082.8038-4.4628,1.223-6.7194.4154-2.2361,1.0155-4.4497,1.43-6.6878.4181-2.2573.7619-4.5173,1.1932-6.7303.4434-2.275.608-4.5747,1.0807-6.7529.4979-2.2946,1.0452-4.5216,1.5932-6.6512.5952-2.3129,1.2294-4.521,1.9059-6.5666.7679-2.3217,1.7193-4.7486,2.7672-7.2041.9892-2.3181,2.337-4.5498,3.4897-6.877,1.1471-2.3158,2.1484-4.7163,3.3748-6.9355,1.285-2.3252,2.7671-4.4658,4.0467-6.5665,1.4451-2.3723,2.9047-4.5231,4.2142-6.4444,1.791-2.6278,3.3362-4.7722,4.5714-6.1695,1.0718-1.2124,2.537-3.5278,4.5384-6.1657,1.4034-1.8497,3.2296-3.7435,4.8664-5.9196,1.5055-2.0016,3.0583-4.0836,4.6116-6.1106,1.6132-2.1053,3.1843-4.1778,4.6912-6.0462,1.8534-2.298,3.5788-4.2874,5.0002-5.773,1.7294-1.8074,3.9681-2.318,5.444-1.1823,0,0,.1406-.1828.1406-.1828,1.7113,1.3168,4.7951.8527,6.7788-1.2643.3424-.3654.2424-.459.5847-.8244,1.8867-2.0135,2.0377-4.6951.5105-6.0651-2.8886-2.5914-2.7223-2.7767-5.6109-5.3681s-3.0506-2.4123-5.9399-5.0044c-2.8877-2.5907-2.8429-2.6407-5.7306-5.2313-2.8903-2.5929-2.7094-2.7945-5.5997-5.3874-2.8922-2.5947-3.1118-2.3499-6.0041-4.9446s-2.8984-2.5878-5.7907-5.1825c-1.4988-1.3446-3.9437-.8222-5.7379,1.2074Z" style="fill:none; stroke:#2f3061; stroke-miterlimit:10; stroke-width:5px;"/><path d="M383.5896,70.4494c-.6528-2.7247,1.893-2.0886,3.766-4.1724,0,0-.0059.0067-.0059.0067-2.3116-2.0779-2.677-5.3797-.8363-7.3276q1.2738-1.348,2.5486-2.695c1.3189-1.3957,3.1769-2.0324,5.1165-1.8989,1.7641.1214,3.595.8517,5.0959,2.2121q2.5272,2.2814,5.0475,4.5705c2.5303,2.2814,2.5101,2.3039,5.0404,4.5854s2.5355,2.2757,5.0658,4.5572c2.8773,2.5943,3.4155,6.6771,1.2081,9.184q-1.4945,1.6973-2.9881,3.3954c-1.738,1.9738-4.9622,1.9769-7.2881.004,0,0-.0244-.008-.0244-.008-1.7902,1.9916-.917,4.4128-3.5636,4.0043-4.0309-.6222-3.0065-2.7607-6.0323-5.4956-3.0279-2.7368-2.6091-3.2966-6.0722-5.4565-3.6191-2.2572-5.127-1.4964-6.0779-5.4655Z" style="fill:#2f3061;"/><path d="M383.5896,70.4494c-.6528-2.7247,1.893-2.0886,3.766-4.1724,0,0-.0059.0067-.0059.0067-2.3116-2.0779-2.677-5.3797-.8363-7.3276q1.2738-1.348,2.5486-2.695c1.3189-1.3957,3.1769-2.0324,5.1165-1.8989,1.7641.1214,3.595.8517,5.0959,2.2121q2.5272,2.2814,5.0475,4.5705c2.5303,2.2814,2.5101,2.3039,5.0404,4.5854s2.5355,2.2757,5.0658,4.5572c2.8773,2.5943,3.4155,6.6771,1.2081,9.184q-1.4945,1.6973-2.9881,3.3954c-1.738,1.9738-4.9622,1.9769-7.2881.004,0,0-.0244-.008-.0244-.008-1.7902,1.9916-.917,4.4128-3.5636,4.0043-4.0309-.6222-3.0065-2.7607-6.0323-5.4956-3.0279-2.7368-2.6091-3.2966-6.0722-5.4565-3.6191-2.2572-5.127-1.4964-6.0779-5.4655Z" style="fill:none; stroke:#2f3061; stroke-miterlimit:10; stroke-width:5px;"/><path d="M365.9847,84.7629c.6142-1.2252-.8639.9361-4.1071,5.1535-1.2514,1.6273-2.8673,3.4809-4.6358,5.6417-1.4142,1.7278-2.9849,3.6008-4.7114,5.581-1.5141,1.7366-3.1051,3.5885-4.8476,5.4623-1.5957,1.7159-3.2917,3.4697-5.0702,5.2581-1.6699,1.6792-3.376,3.4242-5.1998,5.1323-1.7407,1.6302-3.5425,3.275-5.4172,4.9015-1.811,1.5712-3.6624,3.1611-5.5928,4.7018-1.8817,1.5019-3.8289,2.9734-5.819,4.4215-1.953,1.4211-4.0267,2.7077-6.0792,4.0536-2.0245,1.3276-4.0345,2.7105-6.1513,3.9425-2.0959,1.2199-4.2508,2.3621-6.4326,3.4666-2.166,1.0965-4.3527,2.1797-6.5991,3.1413-2.2329.9558-4.5468,1.73-6.8547,2.5317-2.2936.7968-4.6053,1.5622-6.9688,2.1863-2.3452.6193-4.7216,1.1573-7.1315,1.5867-2.3837.4247-4.7952.7853-7.2382,1.0048" style="fill:#2f3061;"/><path d="M365.9847,84.7631c-11.4295,18.131-28.1591,38.0416-47.425,50.5708-7.0859,4.821-14.6381,8.8923-22.6075,12.0531-4.5745,1.5903-9.4915,2.9847-14.2146,4.089-.9664.1616-2.0327.3058-2.9218.4518-3.854.7148-7.7991.8824-11.6875,1.0023,4.5337-1.0208,10.6348-2.525,14.9156-4.0483,12.0837-4.1609,23.3344-10.2267,33.7205-17.6193,6.2789-4.1403,12.3892-9.2059,18.0214-14.179,11.0249-9.7422,21.248-20.6995,31.1827-31.5664,0,0,.6649-.7164.6649-.7164.1152-.1167.2278-.2339.3546-.3442.0526-.0132.0206-.0869.1623-.0483.0123.0928-.0249.0991-.0391.145l-.1265.21h0Z" style="fill:#2f3061;"/><path d="M393.0461,107.534c1.0952-.6766-1.0037.9143-4.894,4.5432-1.5127,1.4111-3.2827,3.1383-5.2699,5.1242-1.5903,1.5892-3.3462,3.3175-5.1502,5.2503-1.5829,1.6959-3.2272,3.525-4.9169,5.4696-1.5472,1.7808-3.1113,3.6761-4.7045,5.6536-1.4954,1.856-3.0925,3.7278-4.5929,5.7474-1.4312,1.9266-2.741,4.0089-4.1462,6.076-1.3562,1.995-2.7316,4.0274-4.0362,6.1459-1.27,2.0622-2.5981,4.1321-3.7942,6.3045-1.1715,2.1277-2.2143,4.3546-3.2914,6.5816-1.0597,2.1911-2.1438,4.3971-3.0899,6.6782-.9335,2.251-1.6876,4.5903-2.489,6.9231-.7923,2.3063-1.5049,4.6505-2.1474,7.031-.6354,2.3544-1.148,4.7484-1.6169,7.1701-.4632,2.3925-1.0098,4.7891-1.2912,7.242-.2774,2.4179-.4501,4.87-.5324,7.3416-.0808,2.4279.042,4.8802.1672,7.3551" style="fill:#2f3061;"/><path d="M393.0461,107.5341l.1991-.146c.0173-.0122.0355-.022.0583-.0332,0,0,.0585-.0308.0633.0493-.0047.0245-.0826.117-.0984.1392,0,0-.3283.3691-.3283.3691-6.878,7.3218-13.6192,14.8383-19.8431,22.708-7.2358,8.9973-13.6584,18.6878-19.4892,28.6495-1.6068,3.1874-3.6207,7.0654-5.1254,10.3036-2.5106,5.111-4.2934,10.7265-6.1737,16.101-1.1129,4.3302-2.4541,8.6923-3.3626,13.0703-.8557,5.0705-1.5463,10.2327-1.6957,15.4263-1.7762-9.7932-.6054-19.8031,1.4317-29.4707,1.9862-8.4054,4.8397-16.5735,8.801-24.2573,2.1416-4.5923,5.2229-9.4721,8.0419-13.6788,7.1587-11.0469,16.0382-20.9569,25.8224-29.7422,3.6944-3.233,7.4384-6.4392,11.4566-9.2631,0,0,.3929-.2896.3929-.2896l.0898-.0757.0137-.0127c.0092.0522.0361.0308.0209.0352,0,0-.0526.0171-.0526.0171l-.2225.1006h0Z" style="fill:#2f3061;"/><path d="M228.6916,223.5095c1.7796,3.0984,1.3643,2.3936,3.8882,5.9921,1.1806,1.6833,2.6218,3.6253,4.2841,5.7175,1.3838,1.7417,2.9006,3.6067,4.5897,5.4786,1.5373,1.7037,3.1936,3.4381,4.9632,5.1395,1.6847,1.6198,3.5097,3.1711,5.3876,4.6961,1.8348,1.4899,3.7547,2.9137,5.758,4.2276,1.9896,1.305,4.0372,2.5408,6.1776,3.5892s4.3731,1.8961,6.6491,2.6053" style="fill:#2f3061;"/><path d="M228.6916,223.5097c11.1678,12.038,21.9514,24.4521,35.5894,33.7388,1.9225,1.3247,4.0011,2.4682,6.108,3.707-18.0881-1.6489-35.9556-20.9727-41.6974-37.4458h0Z" style="fill:#2f3061;"/><path d="M258.3399,155.6029c-2.7787.9066-2.6824.8807-4.8563,3.159-1.1988,1.2564-2.2494,2.9362-2.6009,5.1336" style="fill:#2f3061;"/><path d="M258.34,155.6029c-.5883,1.2793-1.4713,2.1284-1.609,2.7241-.1813.5576-.7386,1.4346-1.4155,2.1362-1.4197,1.4328-2.4942,2.0801-4.4326,3.4322-3.2308-4.2943,2.7633-11.22,7.4572-8.2925h0Z" style="fill:#2f3061;"/><path d="M334.8321,223.2365c-.6064,2.8592-.5872,2.764-2.6218,5.1675-1.122,1.3255-2.6856,2.5417-4.8333,3.1246" style="fill:#2f3061;"/><path d="M334.8321,223.2367c3.4147,4.3628-2.8376,11.0549-7.455,8.292,1.4548-2.5886,2.5332-5.0781,4.9175-6.399.5778-.2021,1.3278-1.1728,2.5375-1.893h0Z" style="fill:#2f3061;"/><path d="M329.8519,191.6123c2.9459-1.7461.1382-2.875-.6802-6.8015-.4123-1.9782-1.0926-4.2124-2.1317-6.4925-.8918-1.9568-2.0176-3.97-3.5632-5.8305-1.3756-1.6559-3.0827-3.175-5.1091-4.5344-1.76-1.1808-3.7666-2.2556-6.1057-3.0665-1.9888-.6895-4.2135-1.1715-6.6759-1.5028-2.0947-.2818-4.3668-.473-6.8379-.4395-3.436.0465-5.7833.4682-7.261,1.0685-2.88,1.1701-2.4005,3.2182.0474,5.7526,1.3768,1.4255,3.377,2.9811,5.7495,4.5965,1.8892,1.2864,4.0047,2.6204,6.2424,3.9282,2.0863,1.2193,4.2836,2.402,6.4623,3.5662,2.2284,1.1908,4.421,2.3935,6.531,3.4513,2.4121,1.2092,4.6844,2.29,6.6371,3.2187,3.9955,1.9003,3.5249,4.9647,6.6951,3.0857Z" style="fill:#2f3061;"/><path d="M329.8519,191.6123c2.9459-1.7461.1382-2.875-.6802-6.8015-.4123-1.9782-1.0926-4.2124-2.1317-6.4925-.8918-1.9568-2.0176-3.97-3.5632-5.8305-1.3756-1.6559-3.0827-3.175-5.1091-4.5344-1.76-1.1808-3.7666-2.2556-6.1057-3.0665-1.9888-.6895-4.2135-1.1715-6.6759-1.5028-2.0947-.2818-4.3668-.473-6.8379-.4395-3.436.0465-5.7833.4682-7.261,1.0685-2.88,1.1701-2.4005,3.2182.0474,5.7526,1.3768,1.4255,3.377,2.9811,5.7495,4.5965,1.8892,1.2864,4.0047,2.6204,6.2424,3.9282,2.0863,1.2193,4.2836,2.402,6.4623,3.5662,2.2284,1.1908,4.421,2.3935,6.531,3.4513,2.4121,1.2092,4.6844,2.29,6.6371,3.2187,3.9955,1.9003,3.5249,4.9647,6.6951,3.0857Z" style="fill:none; stroke:#2f3061; stroke-miterlimit:10; stroke-width:5px;"/><path d="M323.0508,227.1112c-1.6537,1.2333-3.8058,2.7211-6.4013,4.2178-2.0374,1.1748-4.3328,2.3704-6.7619,3.6228-2.187,1.1276-4.5011,2.2668-6.8777,3.3999-2.2822,1.0881-4.6439,2.1201-6.9915,3.1643-2.3636,1.0512-4.7362,2.0558-7.0569,3.0135-2.4582,1.0144-4.8066,2.1024-7.0902,2.9551-2.6038.9722-5.0901,1.7111-7.286,2.3918-1.5605.4838-3.4122,1.1144-5.2388,1.3229-1.961.2239-3.84-.0399-5.2399-.856-2.3491-1.3694-4.391-2.6169-6.176-3.8721-2.193-1.5421-4.0565-2.9996-5.732-4.4989-1.8501-1.6555-3.4727-3.353-5.1644-5.1394-1.5612-1.6486-3.2197-3.3373-5.0519-5.2548-1.3531-1.4161-1.9198-3.5889-2.0299-5.8712-.1016-2.1055.2091-4.3449.6714-6.2618.4184-1.7351.7833-4.1127,1.1-6.9894.2317-2.1047.3452-4.4864.6568-7.0505.2678-2.2037.5938-4.5555.9986-7.0105.3689-2.2377.8476-4.5586,1.3875-6.9404.5077-2.2394,1.1545-4.5158,1.8602-6.8298.6743-2.2114,1.3995-4.4633,2.2951-6.697.8632-2.1528,1.89-4.2824,2.9948-6.4152,1.0673-2.0603,2.2124-4.1276,3.5378-6.1325,1.7378-2.6288,4.287-4.6881,7.1821-5.7051,2.2122-.7771,4.4945-1.3264,6.7606-1.8704,2.2907-.5499,4.592-.985,6.8811-1.3453,2.3486-.3697,4.6722-.7109,6.9584-.9331,2.3945-.2327,4.7359-.4304,6.9926-.5604,2.4511-.1412,4.799-.2726,7.0005-.3672,2.6084-.1121,5.0969.6661,7.0603,2.1737,2.4481,1.8798,4.5206,4.5964,6.3531,7.4746,1.5247,2.3947,3.0363,4.7953,4.8328,6.9677,1.8035,2.1809,3.7701,4.2306,5.8381,6.1604,0,0,.0071-.0076.0071-.0076,1.6498,1.5396,3.1735,3.1604,4.5035,4.9111,1.3545,1.7828,2.6037,3.6335,3.5088,5.6696.8867,1.9947,1.3978,4.156,1.7405,6.4268.5213,3.4544.5988,7.064.009,10.7255-.5677,3.245-.5363,3.2509-1.1287,6.4915s-.7237,3.2168-1.3012,6.46c-.2894,1.797-.9549,3.5104-1.9234,5.0736-.9523,1.5372-2.1977,2.8808-3.6794,3.9859Z" style="fill:#2f3061;"/><path d="M323.0508,227.1112c-1.6537,1.2333-3.8058,2.7211-6.4013,4.2178-2.0374,1.1748-4.3328,2.3704-6.7619,3.6228-2.187,1.1276-4.5011,2.2668-6.8777,3.3999-2.2822,1.0881-4.6439,2.1201-6.9915,3.1643-2.3636,1.0512-4.7362,2.0558-7.0569,3.0135-2.4582,1.0144-4.8066,2.1024-7.0902,2.9551-2.6038.9722-5.0901,1.7111-7.286,2.3918-1.5605.4838-3.4122,1.1144-5.2388,1.3229-1.961.2239-3.84-.0399-5.2399-.856-2.3491-1.3694-4.391-2.6169-6.176-3.8721-2.193-1.5421-4.0565-2.9996-5.732-4.4989-1.8501-1.6555-3.4727-3.353-5.1644-5.1394-1.5612-1.6486-3.2197-3.3373-5.0519-5.2548-1.3531-1.4161-1.9198-3.5889-2.0299-5.8712-.1016-2.1055.2091-4.3449.6714-6.2618.4184-1.7351.7833-4.1127,1.1-6.9894.2317-2.1047.3452-4.4864.6568-7.0505.2678-2.2037.5938-4.5555.9986-7.0105.3689-2.2377.8476-4.5586,1.3875-6.9404.5077-2.2394,1.1545-4.5158,1.8602-6.8298.6743-2.2114,1.3995-4.4633,2.2951-6.697.8632-2.1528,1.89-4.2824,2.9948-6.4152,1.0673-2.0603,2.2124-4.1276,3.5378-6.1325,1.7378-2.6288,4.287-4.6881,7.1821-5.7051,2.2122-.7771,4.4945-1.3264,6.7606-1.8704,2.2907-.5499,4.592-.985,6.8811-1.3453,2.3486-.3697,4.6722-.7109,6.9584-.9331,2.3945-.2327,4.7359-.4304,6.9926-.5604,2.4511-.1412,4.799-.2726,7.0005-.3672,2.6084-.1121,5.0969.6661,7.0603,2.1737,2.4481,1.8798,4.5206,4.5964,6.3531,7.4746,1.5247,2.3947,3.0363,4.7953,4.8328,6.9677,1.8035,2.1809,3.7701,4.2306,5.8381,6.1604,0,0,.0071-.0076.0071-.0076,1.6498,1.5396,3.1735,3.1604,4.5035,4.9111,1.3545,1.7828,2.6037,3.6335,3.5088,5.6696.8867,1.9947,1.3978,4.156,1.7405,6.4268.5213,3.4544.5988,7.064.009,10.7255-.5677,3.245-.5363,3.2509-1.1287,6.4915s-.7237,3.2168-1.3012,6.46c-.2894,1.797-.9549,3.5104-1.9234,5.0736-.9523,1.5372-2.1977,2.8808-3.6794,3.9859Z" style="fill:none; stroke:#2f3061; stroke-miterlimit:10; stroke-width:5px;"/><path d="M373.1795,163.3951c0,2.4051-.2006,4.7641-.5304,7.078-.338,2.3715-.7392,4.7129-1.3993,6.9643-.6715,2.2905-1.6056,4.4756-2.5847,6.6161-.99,2.1643-2.1224,4.2427-3.4003,6.227-1.2856,1.9963-2.6827,3.9109-4.2324,5.6978-1.5526,1.7903-3.216,3.484-5.0063,5.0366-1.7869,1.5496-3.7299,2.9081-5.7262,4.1936-1.9843,1.2778-4.04,2.4504-6.2043,3.4404-2.1404.979-4.3729,1.7609-6.6632,2.4324-2.2514.66-4.5605,1.1457-6.9319,1.4837-2.3139.3298-4.6657.5263-7.0707.5263s-4.7762-.0622-7.0901-.392c-2.3715-.338-4.6686-.9338-6.92-1.5939-2.2905-.6715-4.5322-1.4423-6.6727-2.4215-2.1643-.99-4.2593-2.1121-6.2436-3.3899-1.9963-1.2856-3.8432-2.7772-5.6301-4.327-1.7903-1.5526-3.494-3.1997-5.0466-4.99-1.5496-1.7869-2.9086-3.7258-4.1941-5.7221-1.2778-1.9843-2.4342-4.0445-3.4241-6.2087-.979-2.1404-1.8501-4.3414-2.5216-6.6318-.66-2.2514-1.1035-4.5751-1.4415-6.9465-.3298-2.3139-.5775-4.6678-.5775-7.0728s.1283-4.7761.4581-7.0901c.338-2.3715.9116-4.6751,1.5717-6.9265.6715-2.2905,1.3942-4.5578,2.3733-6.6984.99-2.1643,2.2474-4.1853,3.5253-6.1695,1.2856-1.9963,2.6251-3.9605,4.1748-5.7474,1.5526-1.7903,3.3307-3.3677,5.121-4.9203,1.7869-1.5496,3.6331-3.035,5.6294-4.3205,1.9843-1.2778,4.0913-2.3625,6.2556-3.3524,2.1404-.979,4.3323-1.8831,6.6227-2.5545,2.2514-.66,4.584-1.0796,6.9554-1.4176,2.3139-.3298,4.6696-.578,7.0746-.578s4.7657.2147,7.0797.5445c2.3715.338,4.7216.7153,6.973,1.3753,2.2905.6715,4.4958,1.5741,6.6363,2.5533,2.1643.99,4.258,2.118,6.2423,3.3958,1.9963,1.2856,3.9058,2.707,5.6927,4.2567,1.7903,1.5526,3.4029,3.2979,4.9555,5.0883,1.5496,1.7869,3.0586,3.624,4.3441,5.6203,1.2778,1.9843,2.448,4.0617,3.438,6.2259.979,2.1404,1.797,4.38,2.4685,6.6703.66,2.2514,1.0191,4.6002,1.3571,6.9717.3298,2.3139.5625,4.6681.5625,7.0731Z" style="fill:#c9b39b;"/><path d="M319.9665,163.2403c1.5108,3.4951-.6431,3.7689-1.2885,7.5215s-3.3941,4.3075-1.334,7.5098c1.6552,2.573,3.0742.0061,6.1337.0061s4.4401,2.5421,6.1144-.0185c2.0687-3.1639-.6066-3.7275-1.228-7.4562s-2.7737-3.9948-1.2425-7.4509c1.9021-4.2933,4.5777-.1004,4.5777-7.1753,0-2.5701-1.0763-4.236-2.4259-5.3423-2.3656-1.939-2.5597-2.1163-5.6043-2.1345-3.0906-.0185-3.3206.1328-5.7411,2.0558-1.3895,1.1039-2.4883,2.8059-2.4883,5.421,0,7.1706,2.6834,2.7985,4.527,7.0636Z" style="fill:#683523;"/><path d="M302.4315,119.9798c-.3124-3.6829-.2717-3.236.4426-7.3691.3817-2.2086,1.0987-4.6581,2.2373-7.0284,1.0255-2.1347,2.3933-4.2224,4.3296-5.9414,1.7011-1.5103,3.8345-2.7097,6.4426-3.5236,2.0947-.6536,4.5028-1.0747,7.2935-1.0747,2.781,0,5.1884.3797,7.2684,1.028,2.6016.8109,4.6784,2.0803,6.3603,3.5888,1.918,1.7202,3.315,3.7644,4.3107,5.902,1.1043,2.3711,1.7007,4.8429,2.0485,7.0504.6486,4.1162.3656,7.324.3656,7.324" style="fill:none; stroke:#c9b39b; stroke-miterlimit:10; stroke-width:13px;"/></svg>