<?xml version="1.0" encoding="UTF-8"?><svg id="a" xmlns="http://www.w3.org/2000/svg" viewBox="0 0 330.5374 445.4069"><path d="M287.6732,387.4842c-3.5338,0-3.5338.5697-7.0675.5697-3.5321,0-3.5321-.5675-7.0643-.5675-3.5339,0-3.5339.612-7.0677.612-3.5329,0-3.5329-.2878-7.0658-.2878-3.5336,0-3.5336.2433-7.0672.2433-3.5334,0-3.5334-.1028-7.0668-.1028-3.5344,0-3.5344.2413-7.0688.2413-3.5335,0-3.5335-.0319-7.067-.0319s-3.5345.042-7.069.042c-3.5351,0-3.5351-.6829-7.0701-.6829-3.5345,0-3.5345.5741-7.069.5741-3.5346,0-3.5346.1199-7.0692.1199-3.535,0-3.535-.4732-7.07-.4732-3.5355,0-3.5355.4484-7.0711.4484-3.5332,0-3.5332-.4806-7.0664-.4806-3.5347,0-3.5347.4857-7.0694.4857-3.5347,0-3.5347-.537-7.0694-.537s-3.5348.2623-7.0695.2623-3.5357-.3345-7.0714-.3345c-3.5338,0-3.5338.4194-7.0675.4194-3.5368,0-3.5368.1936-7.0737.1936-3.5393,0-3.5393-.6222-7.0785-.6222s-3.5393.3383-7.0785.3383c-2.6014,0-5.1532-.2766-7.5871-.8299-2.5133-.5713-4.8801-1.5486-7.1476-2.6426-2.3048-1.112-4.3954-2.5452-6.3751-4.126-1.9893-1.5885-3.684-3.4437-5.2725-5.4331-1.5806-1.9796-2.9529-4.0712-4.0647-6.3758-1.0939-2.2674-1.9195-4.6301-2.4907-7.1433-.5533-2.434-1.1554-4.9172-1.1554-7.5187,0-3.6067.2405-3.6067.2405-7.2134,0-3.6061-.3527-3.6061-.3527-7.2122,0-3.607-.0685-3.607-.0685-7.214,0-3.6043.2263-3.6043.2263-7.2086s.3194-3.6037.3194-7.2073c0-3.6052-.1375-3.6052-.1375-7.2103,0-3.6063-.0898-3.6063-.0898-7.2126,0-3.6045-.0496-3.6045-.0496-7.2089,0-3.6053.2816-3.6053.2816-7.2106s-.2725-3.6067-.2725-7.2135c0-3.6051-.2693-3.6051-.2693-7.2101s-.0265-3.6068-.0265-7.2137c0-3.6059-.089-3.6059-.089-7.2117,0-3.6066.2901-3.6066.2901-7.2131s-.1356-3.6063-.1356-7.2127c0-3.6074.2574-3.6074.2574-7.2147s-.0946-3.6065-.0946-7.2129c0-3.6075.1495-3.6075.1495-7.215,0-3.608.0557-3.608.0557-7.2161,0-3.6075.1436-3.6075.1436-7.215,0-3.6076-.6577-3.6076-.6577-7.2151s.2575-3.608.2575-7.216c0-3.6085.2372-3.6085.2372-7.2171,0-3.6061.1495-3.6061.1495-7.2123,0-3.6077-.5011-3.6077-.5011-7.2154,0-3.6077.1752-3.6077.1752-7.2154,0-3.6077.077-3.6077.077-7.2155s.194-3.6087.194-7.2174c0-3.6067-.2813-3.6067-.2813-7.2134,0-3.6099-.0989-3.6099-.0989-7.2197,0-3.6123.2851-3.6123.2851-7.2247s.0312-3.6123.0312-7.2247c0-2.4083-.1027-4.8004.0442-7.1717.1488-2.4018.5378-4.764.8329-7.1233.2984-2.3862.3829-4.7947.8263-7.1327.4477-2.3607,1.0606-4.6815,1.6512-6.9883.5955-2.326,1.3218-4.6075,2.0577-6.8737.7411-2.2822,1.6968-4.4749,2.5752-6.6915.8835-2.2294,1.5439-4.5501,2.5612-6.708,1.022-2.168,2.2761-4.218,3.4279-6.3087,1.1559-2.0982,2.5625-4.035,3.8439-6.0501,1.2849-2.0205,2.5753-4.019,3.9811-5.9506,1.4084-1.9352,2.7224-3.9359,4.2468-5.7765,1.5261-1.8427,3.3174-3.4402,4.9544-5.1827,1.6376-1.7431,2.973-3.7873,4.7161-5.4249,1.7425-1.6369,3.8907-2.8123,5.7334-4.3383,1.8407-1.5244,3.5201-3.2451,5.4553-4.6535,1.9316-1.4057,3.9972-2.6131,6.0176-3.8979,2.015-1.2813,3.819-2.9401,5.9171-4.096,2.0906-1.1517,4.4679-1.7664,6.6357-2.7883,2.1578-1.0171,4.2431-2.2117,6.4724-3.0951,2.2164-.8782,4.3975-1.9171,6.6794-2.6581,2.2661-.7358,4.7293-.8335,7.0551-1.429,2.3068-.5906,4.5486-1.506,6.9092-1.9537,2.3377-.4433,4.7131-.7783,7.099-1.0767,2.3593-.2951,4.752-.4268,7.1538-.5757,2.3714-.147,4.7619-.0667,7.1702-.0667,1.1288,0,1.1288-.4799,2.2577-.4799,2.4083,0,4.7843.6314,7.1555.7783,2.4017.1488,4.7922.181,7.1515.4761,2.3862.2984,4.7158.8316,7.0538,1.275,2.3607.4477,4.81.4674,7.1168,1.058,2.3259.5955,4.559,1.5221,6.8252,2.258,2.2822.7411,4.5178,1.5959,6.7344,2.4743,2.2294.8835,4.3288,2.0359,6.4867,3.0532,2.168,1.022,4.4769,1.7557,6.5675,2.9075,2.0982,1.1559,3.9707,2.6864,5.9857,3.9679,2.0205,1.2849,4.0982,2.4723,6.0298,3.8781,1.9352,1.4084,3.6987,3.0268,5.5393,4.5513,1.8426,1.5261,3.8789,2.8321,5.6214,4.469s3.2183,3.5463,4.8558,5.2894,3.334,3.4298,4.8601,5.2725c1.5244,1.8407,3.1919,3.5852,4.6003,5.5204,1.4057,1.9316,2.6392,3.9998,3.924,6.0203,1.2813,2.015,2.7369,3.951,3.8928,6.0491,1.1517,2.0906,2.0286,4.3468,3.0505,6.5147,1.0171,2.1578,1.8109,4.4241,2.6942,6.6534.8782,2.2164,1.8963,4.3967,2.6372,6.6786.7358,2.2661,1.2097,4.6243,1.8051,6.9501.5906,2.3068,1.1628,4.6302,1.6105,6.9908.4433,2.3377.62,4.7269.9184,7.1127.2951,2.3593.8279,4.7112.9768,7.113.147,2.3714.142,4.7711.142,7.1794,0,3.6067.0119,3.6067.0119,7.2134,0,3.6061-.4099,3.6061-.4099,7.2122s.2982,3.607.2982,7.2141c0,3.6043-.1113,3.6043-.1113,7.2086s.2751,3.6037.2751,7.2073c0,3.6052-.3332,3.6052-.3332,7.2103,0,3.6063.3799,3.6063.3799,7.2126,0,3.6045-.0247,3.6045-.0247,7.209,0,3.6053-.0758,3.6053-.0758,7.2106,0,3.6067-.4511,3.6067-.4511,7.2135s.005,3.6051.005,7.2102.0677,3.6068.0677,7.2137c0,3.6059.1182,3.6059.1182,7.2117,0,3.6066-.167,3.6066-.167,7.2131s.134,3.6063.134,7.2127c0,3.6074.2051,3.6074.2051,7.2147,0,3.6065-.2552,3.6065-.2552,7.2129,0,3.6075.6319,3.6075.6319,7.215,0,3.608-.2602,3.608-.2602,7.2161,0,3.6075-.0772,3.6075-.0772,7.215,0,3.6076.0439,3.6076.0439,7.2151s.1002,3.608.1002,7.216c0,3.6085-.2816,3.6085-.2816,7.2171,0,3.6061.103,3.6061.103,7.2123s.294,3.6077.294,7.2154c0,3.6077-.2244,3.6077-.2244,7.2154,0,3.6078.088,3.6078.088,7.2155s-.3453,3.6087-.3453,7.2174q0,3.6067.0081,7.2135c0,3.6099-.0352,3.6099-.0352,7.2197,0,3.6123-.1401,3.6123-.1401,7.2247s.5742,3.6123.5742,7.2247c0,2.6014-.7042,5.0884-1.2574,7.5223-.5713,2.5133-1.1882,4.9812-2.2822,7.2487-1.112,2.3048-2.5856,4.3869-4.1664,6.3666-1.5885,1.9893-3.339,3.831-5.3283,5.4194-1.9796,1.5806-4.2687,2.6581-6.5733,3.7699-2.2674,1.0939-4.5093,2.3165-7.0224,2.8877-2.434.5533-4.9802.4251-7.5817.4251Z" style="fill:#161635;"/><path d="M287.6732,387.4842c-3.5338,0-3.5338.5697-7.0675.5697-3.5321,0-3.5321-.5675-7.0643-.5675-3.5339,0-3.5339.612-7.0677.612-3.5329,0-3.5329-.2878-7.0658-.2878-3.5336,0-3.5336.2433-7.0672.2433-3.5334,0-3.5334-.1028-7.0668-.1028-3.5344,0-3.5344.2413-7.0688.2413-3.5335,0-3.5335-.0319-7.067-.0319s-3.5345.042-7.069.042c-3.5351,0-3.5351-.6829-7.0701-.6829-3.5345,0-3.5345.5741-7.069.5741-3.5346,0-3.5346.1199-7.0692.1199-3.535,0-3.535-.4732-7.07-.4732-3.5355,0-3.5355.4484-7.0711.4484-3.5332,0-3.5332-.4806-7.0664-.4806-3.5347,0-3.5347.4857-7.0694.4857-3.5347,0-3.5347-.537-7.0694-.537s-3.5348.2623-7.0695.2623-3.5357-.3345-7.0714-.3345c-3.5338,0-3.5338.4194-7.0675.4194-3.5368,0-3.5368.1936-7.0737.1936-3.5393,0-3.5393-.6222-7.0785-.6222s-3.5393.3383-7.0785.3383c-2.6014,0-5.1532-.2766-7.5871-.8299-2.5133-.5713-4.8801-1.5486-7.1476-2.6426-2.3048-1.112-4.3954-2.5452-6.3751-4.126-1.9893-1.5885-3.684-3.4437-5.2725-5.4331-1.5806-1.9796-2.9529-4.0712-4.0647-6.3758-1.0939-2.2674-1.9195-4.6301-2.4907-7.1433-.5533-2.434-1.1554-4.9172-1.1554-7.5187,0-3.6067.2405-3.6067.2405-7.2134,0-3.6061-.3527-3.6061-.3527-7.2122,0-3.607-.0685-3.607-.0685-7.214,0-3.6043.2263-3.6043.2263-7.2086s.3194-3.6037.3194-7.2073c0-3.6052-.1375-3.6052-.1375-7.2103,0-3.6063-.0898-3.6063-.0898-7.2126,0-3.6045-.0496-3.6045-.0496-7.2089,0-3.6053.2816-3.6053.2816-7.2106s-.2725-3.6067-.2725-7.2135c0-3.6051-.2693-3.6051-.2693-7.2101s-.0265-3.6068-.0265-7.2137c0-3.6059-.089-3.6059-.089-7.2117,0-3.6066.2901-3.6066.2901-7.2131s-.1356-3.6063-.1356-7.2127c0-3.6074.2574-3.6074.2574-7.2147s-.0946-3.6065-.0946-7.2129c0-3.6075.1495-3.6075.1495-7.215,0-3.608.0557-3.608.0557-7.2161,0-3.6075.1436-3.6075.1436-7.215,0-3.6076-.6577-3.6076-.6577-7.2151s.2575-3.608.2575-7.216c0-3.6085.2372-3.6085.2372-7.2171,0-3.6061.1495-3.6061.1495-7.2123,0-3.6077-.5011-3.6077-.5011-7.2154,0-3.6077.1752-3.6077.1752-7.2154,0-3.6077.077-3.6077.077-7.2155s.194-3.6087.194-7.2174c0-3.6067-.2813-3.6067-.2813-7.2134,0-3.6099-.0989-3.6099-.0989-7.2197,0-3.6123.2851-3.6123.2851-7.2247s.0312-3.6123.0312-7.2247c0-2.4083-.1027-4.8004.0442-7.1717.1488-2.4018.5378-4.764.8329-7.1233.2984-2.3862.3829-4.7947.8263-7.1327.4477-2.3607,1.0606-4.6815,1.6512-6.9883.5955-2.326,1.3218-4.6075,2.0577-6.8737.7411-2.2822,1.6968-4.4749,2.5752-6.6915.8835-2.2294,1.5439-4.5501,2.5612-6.708,1.022-2.168,2.2761-4.218,3.4279-6.3087,1.1559-2.0982,2.5625-4.035,3.8439-6.0501,1.2849-2.0205,2.5753-4.019,3.9811-5.9506,1.4084-1.9352,2.7224-3.9359,4.2468-5.7765,1.5261-1.8427,3.3174-3.4402,4.9544-5.1827,1.6376-1.7431,2.973-3.7873,4.7161-5.4249,1.7425-1.6369,3.8907-2.8123,5.7334-4.3383,1.8407-1.5244,3.5201-3.2451,5.4553-4.6535,1.9316-1.4057,3.9972-2.6131,6.0176-3.8979,2.015-1.2813,3.819-2.9401,5.9171-4.096,2.0906-1.1517,4.4679-1.7664,6.6357-2.7883,2.1578-1.0171,4.2431-2.2117,6.4724-3.0951,2.2164-.8782,4.3975-1.9171,6.6794-2.6581,2.2661-.7358,4.7293-.8335,7.0551-1.429,2.3068-.5906,4.5486-1.506,6.9092-1.9537,2.3377-.4433,4.7131-.7783,7.099-1.0767,2.3593-.2951,4.752-.4268,7.1538-.5757,2.3714-.147,4.7619-.0667,7.1702-.0667,1.1288,0,1.1288-.4799,2.2577-.4799,2.4083,0,4.7843.6314,7.1555.7783,2.4017.1488,4.7922.181,7.1515.4761,2.3862.2984,4.7158.8316,7.0538,1.275,2.3607.4477,4.81.4674,7.1168,1.058,2.3259.5955,4.559,1.5221,6.8252,2.258,2.2822.7411,4.5178,1.5959,6.7344,2.4743,2.2294.8835,4.3288,2.0359,6.4867,3.0532,2.168,1.022,4.4769,1.7557,6.5675,2.9075,2.0982,1.1559,3.9707,2.6864,5.9857,3.9679,2.0205,1.2849,4.0982,2.4723,6.0298,3.8781,1.9352,1.4084,3.6987,3.0268,5.5393,4.5513,1.8426,1.5261,3.8789,2.8321,5.6214,4.469s3.2183,3.5463,4.8558,5.2894,3.334,3.4298,4.8601,5.2725c1.5244,1.8407,3.1919,3.5852,4.6003,5.5204,1.4057,1.9316,2.6392,3.9998,3.924,6.0203,1.2813,2.015,2.7369,3.951,3.8928,6.0491,1.1517,2.0906,2.0286,4.3468,3.0505,6.5147,1.0171,2.1578,1.8109,4.4241,2.6942,6.6534.8782,2.2164,1.8963,4.3967,2.6372,6.6786.7358,2.2661,1.2097,4.6243,1.8051,6.9501.5906,2.3068,1.1628,4.6302,1.6105,6.9908.4433,2.3377.62,4.7269.9184,7.1127.2951,2.3593.8279,4.7112.9768,7.113.147,2.3714.142,4.7711.142,7.1794,0,3.6067.0119,3.6067.0119,7.2134,0,3.6061-.4099,3.6061-.4099,7.2122s.2982,3.607.2982,7.2141c0,3.6043-.1113,3.6043-.1113,7.2086s.2751,3.6037.2751,7.2073c0,3.6052-.3332,3.6052-.3332,7.2103,0,3.6063.3799,3.6063.3799,7.2126,0,3.6045-.0247,3.6045-.0247,7.209,0,3.6053-.0758,3.6053-.0758,7.2106,0,3.6067-.4511,3.6067-.4511,7.2135s.005,3.6051.005,7.2102.0677,3.6068.0677,7.2137c0,3.6059.1182,3.6059.1182,7.2117,0,3.6066-.167,3.6066-.167,7.2131s.134,3.6063.134,7.2127c0,3.6074.2051,3.6074.2051,7.2147,0,3.6065-.2552,3.6065-.2552,7.2129,0,3.6075.6319,3.6075.6319,7.215,0,3.608-.2602,3.608-.2602,7.2161,0,3.6075-.0772,3.6075-.0772,7.215,0,3.6076.0439,3.6076.0439,7.2151s.1002,3.608.1002,7.216c0,3.6085-.2816,3.6085-.2816,7.2171,0,3.6061.103,3.6061.103,7.2123s.294,3.6077.294,7.2154c0,3.6077-.2244,3.6077-.2244,7.2154,0,3.6078.088,3.6078.088,7.2155s-.3453,3.6087-.3453,7.2174q0,3.6067.0081,7.2135c0,3.6099-.0352,3.6099-.0352,7.2197,0,3.6123-.1401,3.6123-.1401,7.2247s.5742,3.6123.5742,7.2247c0,2.6014-.7042,5.0884-1.2574,7.5223-.5713,2.5133-1.1882,4.9812-2.2822,7.2487-1.112,2.3048-2.5856,4.3869-4.1664,6.3666-1.5885,1.9893-3.339,3.831-5.3283,5.4194-1.9796,1.5806-4.2687,2.6581-6.5733,3.7699-2.2674,1.0939-4.5093,2.3165-7.0224,2.8877-2.434.5533-4.9802.4251-7.5817.4251Z" style="fill:none; stroke:#2f3061; stroke-miterlimit:10; stroke-width:17px;"/><path d="M132.349,281.3478c-.2142.8946.3279,1.9649,1.3649,2.3318,3.3235,1.2419,3.2995,1.3052,6.6196,2.5562q3.3193,1.2506,6.6364,2.5069c3.3202,1.251,3.3486,1.1757,6.6688,2.4267s3.3853,1.0797,6.7061,2.3309c3.3202,1.251,3.2332,1.482,6.5534,2.733,3.3203,1.251,3.3141,1.2674,6.6344,2.5184,3.3207,1.2511,3.332,1.2211,6.6527,2.4722,3.3177,1.25,3.3627,1.1308,6.6804,2.3808,3.3194,1.2506,3.3535,1.1601,6.6729,2.4107s3.3209,1.2509,6.6417,2.5021,3.2795,1.3608,6.6003,2.612c3.3209,1.2512,3.2637,1.4028,6.5846,2.654,3.3217,1.2515,3.3518,1.1718,6.6735,2.4233,3.3199,1.2509,3.3511,1.1681,6.671,2.419,3.3228,1.2519,3.3281,1.238,6.6509,2.4899,3.3251,1.2528,3.3118,1.2882,6.6369,2.541q3.3251,1.2528,6.6409,2.5297c1.0121.431,2.2285-.0711,2.5485-1.1236,1.0006-3.2916.5899-2.5902,1.7338-6.6622.5361-1.9085,1.2625-4.1245,1.9213-6.6045.5519-2.0773.9814-4.3574,1.5665-6.7027.5386-2.1589,1.0401-4.4132,1.5677-6.7006.5116-2.218,1.1046-4.4508,1.5709-6.7021.4714-2.2759.8067-4.5634,1.1967-6.7848.4109-2.3405,1.0629-4.5805,1.3431-6.7591.3139-2.4407.4665-4.7615.5611-6.8604.1203-2.6654.1691-5.22.0152-7.6433-.1692-2.665-.6525-5.1746-1.105-7.5586-.498-2.6238-1.2448-5.0479-2.0217-7.3469-.8553-2.531-1.8948-4.8332-3.0024-6.9913-1.2226-2.3821-2.5704-4.5147-3.9854-6.4704-1.5867-2.1931-3.1385-4.2067-4.806-5.9028-1.9608-1.9944-3.9185-3.6521-5.7349-5.0214-2.5427-1.9168-4.7105-3.4265-6.3193-4.2766-1.4116-.7458-1.6059-1.2604-1.5967-3.11.0055-1.1.2343-2.9038.5195-3.9662.8918-3.3221,1.0112-3.2901,1.903-6.6122q.8913-3.3203,1.7783-6.6418c.8921-3.3232.7713-3.3556,1.6634-6.6789.8927-3.3255,1.1371-3.2599,2.0298-6.5854s.8151-3.3464,1.7078-6.6719c.2852-1.0624.8085-2.4698,1.0498-3.1694.105-.3046.0164.0442.3568-.5029.7057-1.1348,2.7626-2.0689,5.2912-3.0332,1.8797-.7168,3.9296-1.5117,5.6688-2.6095,1.843-1.1633,3.2653-2.6444,3.8182-4.7043.6303-2.3479.9088-4.7879-.1186-7.174-.8037-1.8664-2.3131-3.785-4.6611-5.6008-1.6299-1.2606-3.7299-2.4915-6.294-3.7012-1.9499-.92-4.2475-1.7046-6.817-2.5841-2.1005-.719-4.4603-1.2704-7.0164-1.9565-2.7277-.7322-5.245-1.3984-7.6351-1.7342-2.8411-.3992-5.4416-.3795-7.8062-.3517-2.9675.0349-5.5626.1753-7.7807.6257-2.0847.4231-3.6573,2.5442-4.4439,4.9805-.75,2.3231-.7529,4.9053.4798,6.713,1.0708,1.5701,1.7515,3.63,2.372,5.5042,1.0186,3.0765,1.2023,2.8017,1.6871,5.7707.1773,1.0856-.1355,2.8295-.4207,3.8919-.9111,3.3943-.8848,3.4013-1.7959,6.7956-.9107,3.3924-.8521,3.4081-1.7628,6.8006-.9114,3.3954-.8026,3.4246-1.714,6.82-.9121,3.3977-.9695,3.3823-1.8815,6.78s-1.0803,3.3526-1.9923,6.7503c-.2852,1.0624-.6593,2.8414-1.1984,3.8003-.8806,1.5663-1.3198,2.1695-2.8828,2.1962-1.7928.0302-4.4233-.1372-7.5586.3458-2.2284.3433-4.7103.9709-7.3723,1.7296-2.2756.6486-4.6214,1.6054-7.0761,2.6628-2.212.9528-4.5114,1.9956-6.7709,3.3552-2.0772,1.2499-4.0556,2.8083-6.0976,4.4594-1.8876,1.5263-3.9116,3.0486-5.7098,4.963-1.6597,1.7671-3.3109,3.6929-4.8478,5.8264-1.4155,1.9649-2.8211,4.0817-4.0959,6.3853-1.1723,2.1184-2.1126,4.4761-3.1375,6.9027-.9138,2.1634-1.8698,4.3395-2.7139,6.5764-.8323,2.2056-1.4492,4.5062-2.216,6.762-.7614,2.24-1.6347,4.4517-2.3337,6.7206-.6991,2.2692-1.408,4.5373-2.0468,6.8147-.6437,2.295-1.169,4.6133-1.7537,6.8957-.2077.8111-.0189.4256-.1164.8327Z" style="fill:#2f3061;"/><path d="M220.6213,140.279c-1.8494-4.3288,2.7282-4.3987,2.46-9.0983-.1995-3.497-2.9995-1.0637-3.6058-5.6261-.2323-1.7483-.114-4.0008.6683-6.9149.9286-3.4592,2.4965-5.4263,4.2365-6.4631,3.5511-2.1161,3.8786-1.6158,7.658-.4362,3.8187,1.1918,3.884.9667,7.7476,2.0038,3.8662,1.0378,3.858,1.0684,7.7243,2.1063,3.8662,1.0378,3.8732,1.0119,7.7395,2.0497,2.2627.6074,4.0491,2.7128,4.5911,5.8415.2758,1.5921.295,3.5369-.3257,5.849-.6302,2.3477-1.5807,4.1547-2.612,5.5108-2.2188,2.9175-3.3187,1.0724-4.7342,3.7939-2.2584,4.3421,1.0895,6.4434-2.8501,9.3474-2.9947,2.2076-3.5624-.9954-7.1465-1.9933-3.5872-.9988-3.5975-.9619-7.1847-1.9607-3.5897-.9995-3.4522-1.8453-7.1749-2.0085-4.0389-.1771-5.7275,1.4253-7.1914-2.0013Z" style="fill:#2f3061;"/><path d="M242.8801,324.5617c.7683-2.2566,1.533-4.4383,2.2092-6.5779.7201-2.2783,1.3996-4.4881,2.0208-6.6371.6664-2.3051,1.3288-4.5236,1.8882-6.6838.6035-2.3305,1.1054-4.5892,1.593-6.756.5313-2.3611,1.0463-4.6179,1.4509-6.7911.4455-2.3924.795-4.6792,1.1015-6.8524.3425-2.4287.5786-4.7279.7677-6.8946.2157-2.4716.266-4.7796.3118-6.9275.0537-2.5223.0454-4.8262-.0879-6.9299-.1643-2.5936-.4488-4.8798-.8104-6.8877-.4905-2.723-1.0547-4.9553-1.7004-6.7223-1.5995-4.3772-2.0583-9.2215-3.3121-5.9935-1.33,3.4241-.2727,3.646-.5198,7.311-.2472,3.6656-.3521,3.6585-.5993,7.3241-.247,3.6631-.1414,3.6702-.3884,7.3334-.2471,3.6647-.2106,3.6672-.4577,7.3319-.2471,3.6647-.3739,3.6562-.621,7.3209s-.213,3.6671-.4601,7.3318-.1452,3.6726-.3923,7.3383-.3879,3.6575-.6352,7.3245c-.2472,3.6658-.1134,3.6748-.3606,7.3407-.2473,3.6683-.2624,3.6673-.5098,7.3357s-.3494,3.6617-.5786,7.3312c.0355.0148.055.0157.0903.0304Z" style="fill:#2f3061;"/><path d="M140.8236,285.5893c1.9234-2.9159,1.4577-3.1824,2.9997-6.3168,1.5427-3.1359,1.6232-3.0963,3.1659-6.2322s1.5309-3.1435,3.0742-6.2807c1.5434-3.1373,1.5088-3.1543,3.0521-6.2916,1.5434-3.1373,1.4984-3.1595,3.0419-6.2968s1.5849-3.1179,3.1287-6.2561c1.543-3.1365,1.5912-3.1127,3.1341-6.2492,1.5443-3.1392,1.5085-3.1568,3.0528-6.296,1.5454-3.1413,1.496-3.1656,3.0414-6.3069s2.7031-2.7838,3.1192-6.2599c.4301-3.5927-2.3989.5965-6.1094,3.76-1.494,1.2737-3.1728,2.9871-5.0154,5.217-1.3554,1.6403-2.8012,3.5609-4.277,5.8381-1.1969,1.8468-2.4769,3.8917-3.7186,6.2178-1.0568,1.9797-2.0978,4.159-3.1664,6.5221-.9362,2.0702-1.8966,4.2864-2.8281,6.6748-.8326,2.1347-1.5691,4.4347-2.3884,6.8405-.7439,2.1846-1.5531,4.4609-2.2788,6.8817-.6662,2.2221-1.3508,4.5401-1.9961,6.9709-.5981,2.2528-1.126,4.613-1.7018,7.0527.877.261,1.7943.5448,2.6699.8107Z" style="fill:#2f3061;"/><path d="M211.7435,170.0858c.2028,3.7465.1204,2.7561-.4555,7.4808-.2555,2.0963-.6487,4.5823-1.266,7.3864-.4898,2.2251-1.1426,4.6447-1.9465,7.2383-.6935,2.2377-1.4934,4.6084-2.4735,7.073-.8791,2.2104-1.9056,4.4933-3.0526,6.8527" style="fill:#2f3061;"/><path d="M240.1699,178.0529c-2.0517,3.1413-1.5056,2.3095-3.3732,6.6875-.8287,1.9425-1.724,4.2932-2.5939,7.0294-.6903,2.1713-1.3966,4.5773-1.9997,7.2248-.5203,2.2842-.9543,4.7491-1.3402,7.3732-.3461,2.3535-.6648,4.8375-.8536,7.4542" style="fill:#2f3061;"/><path d="M198.614,274.9829c.2332.0252.4544.0408.5511.0851.3251-1.5516.5594-3.1455.8085-4.7605.2229-1.8571.794-4.5019,1.4418-7.0853.6736-2.6864,1.4881-5.2891,2.3107-6.8309.5749-1.0776,1.408-1.5467,2.1222-1.3698.7706.1908,1.2121,1.2653,1.1372,2.5388-.2318,2.0528-.7321,4.2073-1.3389,6.3898-.5766,2.0737-1.2544,4.1764-2.0136,6.2163-.7834,2.1048-1.6372,4.1371-2.4507,6.0471,3.5066-1.6788,6.6111-2.8507,9.8919-3.3956,1.5021-.4071,2.9872-.6064,4.3464.0213.7364.3401.7951,1.6321.6209,2.668-.2978,1.7701-2.0294,2.6871-4.0864,3.2084-1.8865.4781-4.0128.6252-5.4889.7142-1.9018.1147-3.6687.1017-5.523-.2865,1.0018,2.4319,1.9332,4.9225,2.6482,7.5455.6782,2.4877,1.2026,5.0926,1.5179,7.8504.1355,1.1852-.0322,2.4662-.5715,3.5606-.3947.8009-1.0893,1.0479-1.5305,1.1647-.7081.1875-1.1492-.3912-1.5287-1.0811-.9666-2.518-1.5182-5.5376-1.8807-8.7217-.3341-2.9347-.5519-5.9866-.7085-8.9149-.908,1.5093-2.0718,3.3582-3.3869,5.2277-1.2107,1.7211-2.5449,3.4409-3.8262,4.941-1.6997,1.99-3.3374,3.5723-4.623,4.1407-.8484.3751-1.4171-.6025-1.6498-1.3269-.4816-1.4988.7582-3.597,2.3993-5.6269,1.3976-1.7287,3.1234-3.3828,4.3332-4.6011,1.8597-1.8728,3.6568-3.4937,5.6618-4.9549-1.6549-.7349-4.1683-2.0947-6.4264-3.7226-2.3874-1.7211-4.4674-3.7292-4.8518-5.52-.2148-1.0007.2523-2.0389.8111-2.8218.4777-.6693,1.3019-1.0532,1.9819-.6974.8018.4195.8888.2763,1.6319.7926,2.5982,2.0799,4.9196,4.5393,7.0348,7.4163.3756.5642.2264.6574.6348,1.1894Z" style="fill:#2f3061;"/><g style="opacity:.5;"><g style="opacity:.5;"><path d="M170.6113,223.5612c-.0189-.0199-.0154-.0502.0091-.0627,1.3716-.6979,1.3751-.6909,2.7468-1.3888.0245-.0125.0522-.0057.0676.0171.8104,1.1983.8158,1.1946,1.6263,2.3929.0154.0228.0048.0514-.0206.062q-1.2138.509-2.4261,1.0216c-.0254.0106-.0614-.0017-.0803-.0216q-.9609-1.0107-1.9227-2.0204Z" style="fill:#2f3061;"/></g><g style="opacity:.5;"><path d="M166.1789,227.5855c-.0195.0194-.0371.0119-.0338-.0154q.2349-1.9726.4749-3.9446c.0033-.0273.0243-.0609.0461-.0777q1.2448-.9566,2.4888-1.9142c.0218-.0168.0335-.0101.0291.017q-.2834,1.7355-.5677,3.4709c-.0044.0271-.025.0624-.0445.0818q-1.1978,1.1898-2.3929,2.3822Z" style="fill:#2f3061;"/></g><g style="opacity:.5;"><path d="M161.3962,233.8881c-.027-.0054-.0315-.0288-.014-.05q1.1598-1.4058,2.3193-2.8118c.0175-.0212.0495-.0295.0748-.0187,1.1632.4951,1.1651.4906,2.3283.9857.0253.0108.0272.0362.0086.0565q-1.0604,1.1555-2.1213,2.3104c-.0186.0203-.0529.0361-.0798.0307q-1.2583-.2493-2.5158-.5028Z" style="fill:#2f3061;"/></g><g style="opacity:.5;"><path d="M172.3397,230.3861c-.0189-.0199-.0161-.0408.0084-.0533q1.3716-.6979,2.7411-1.4c.0245-.0125.0548-.0004.0702.0224.8104,1.1983.8155,1.1948,1.6259,2.3931.0154.0228.0067.0548-.0186.0655-1.2138.509-1.216.5038-2.4298,1.0128-.0254.0106-.0627.0067-.0817-.0133q-.9572-1.0141-1.9156-2.0272Z" style="fill:#2f3061;"/></g><g style="opacity:.5;"><path d="M167.9015,234.4119c-.0195.0194-.028.0148-.0248-.0125q.2349-1.9726.4668-3.9456c.0033-.0273.0224-.0647.0442-.0815,1.2448-.9566,1.2493-.9507,2.4941-1.9074.0218-.0168.0271-.0137.0226.0134-.2834,1.7355-.2763,1.7367-.5597,3.4722-.0044.0271-.0265.064-.0461.0834q-1.1998,1.1877-2.3972,2.3779Z" style="fill:#2f3061;"/></g><g style="opacity:.5;"><path d="M163.1225,240.7087c-.027-.0054-.0334-.0213-.0159-.0425q1.1598-1.4058,2.3146-2.8156c.0175-.0212.0541-.0242.0794-.0135q1.1632.4951,2.328.9863c.0253.0108.0315.0378.0129.0581q-1.0604,1.1555-2.1242,2.3077c-.0186.0203-.0535.0351-.0804.0297q-1.2568-.2569-2.5143-.5102Z" style="fill:#2f3061;"/></g><g style="opacity:.5;"><path d="M162.4077,252.2577c-.0189-.0199-.0189-.0465.0056-.0589q1.3716-.6979,2.7434-1.3955c.0245-.0125.0567-.0002.0721.0226q.8104,1.1983,1.6239,2.3945c.0154.0228.006.051-.0194.0616q-1.2138.509-2.4268,1.0199c-.0254.0106-.0598-.0013-.0787-.0212q-.9573-1.0141-1.9201-2.0229Z" style="fill:#2f3061;"/></g><g style="opacity:.5;"><path d="M157.9742,256.2882c-.0195.0194-.0336.01-.0303-.0174q.2349-1.9726.471-3.9451c.0033-.0273.0201-.0637.0419-.0804q1.2448-.9566,2.4925-1.9094c.0218-.0168.0387-.0113.0343.0158-.2834,1.7355-.2903,1.7344-.5736,3.47-.0044.0271-.0191.0691-.0387.0885q-1.1951,1.1924-2.3971,2.3779Z" style="fill:#2f3061;"/></g><g style="opacity:.5;"><path d="M153.1889,262.5883c-.027-.0054-.0351-.0321-.0176-.0533q1.1598-1.4058,2.3243-2.8076c.0175-.0212.0497-.0343.075-.0235q1.1632.4951,2.3249.9937c.0253.0108.0294.0324.0108.0526q-1.0604,1.1555-2.1216,2.3101c-.0186.0203-.0527.0343-.0796.0288q-1.2584-.249-2.5162-.5008Z" style="fill:#2f3061;"/></g><g style="opacity:.5;"><path d="M164.1282,259.0901c-.0189-.0199-.0151-.0513.0094-.0638,1.3716-.6979,1.3746-.6921,2.7462-1.39.0245-.0125.0573-.0068.0727.0159q.8104,1.1983,1.6172,2.399c.0154.0228.0085.0452-.0169.0559-1.2138.509-1.211.5156-2.4248,1.0246-.0254.0106-.065.0015-.084-.0185q-.9614-1.0102-1.9197-2.0233Z" style="fill:#2f3061;"/></g><g style="opacity:.5;"><path d="M159.6918,263.1093c-.0195.0194-.0337.0163-.0304-.011q.2349-1.9726.4689-3.9453c.0033-.0273.0266-.0665.0484-.0832,1.2448-.9566,1.2497-.9502,2.4945-1.9069.0218-.0168.0283-.0118.0239.0153-.2834,1.7355-.278,1.7364-.5613,3.472-.0044.0271-.0264.0625-.0459.0819q-1.2022,1.1853-2.3979,2.3772Z" style="fill:#2f3061;"/></g><g style="opacity:.5;"><path d="M154.9136,269.4169c-.027-.0054-.0372-.034-.0197-.0552q1.1598-1.4058,2.3224-2.8092c.0175-.0212.053-.0294.0783-.0186q1.1632.4951,2.3271.9886c.0253.0108.0327.0402.0141.0604q-1.0604,1.1555-2.1248,2.3072c-.0186.0203-.0535.0295-.0805.0241-1.2584-.2488-1.2593-.2445-2.5169-.4973Z" style="fill:#2f3061;"/></g><g style="opacity:.5;"><path d="M158.5796,238.3231c-.0189-.0199-.0116-.0484.0129-.0608q1.3716-.6979,2.7444-1.3934c.0245-.0125.0529-.005.0683.0178.8104,1.1983.8167,1.194,1.6272,2.3923.0154.0228.0054.0563-.02.0669-1.2138.509-1.2165.5026-2.4303,1.0116-.0254.0106-.0595.0047-.0785-.0152q-.9627-1.0089-1.924-2.0192Z" style="fill:#2f3061;"/></g><g style="opacity:.5;"><path d="M154.1515,242.348c-.0195.0194-.0408.0093-.0376-.018q.2349-1.9726.4704-3.9452c.0033-.0273.0311-.059.0529-.0758,1.2448-.9566,1.2388-.9643,2.4836-1.921.0218-.0168.0403-.0041.0359.023q-.2834,1.7355-.5713,3.4703c-.0044.0271-.0204.0662-.0399.0856q-1.1954,1.1922-2.3941,2.381Z" style="fill:#2f3061;"/></g><g style="opacity:.5;"><path d="M149.3663,248.6487c-.027-.0054-.0341-.0315-.0166-.0527q1.1598-1.4058,2.3174-2.8133c.0175-.0212.0558-.0297.0811-.0189q1.1632.4951,2.3259.9914c.0253.0108.0339.0401.0153.0604q-1.0604,1.1555-2.126,2.3061c-.0186.0203-.0545.0366-.0815.0312q-1.2584-.2487-2.5155-.504Z" style="fill:#2f3061;"/></g><g style="opacity:.5;"><path d="M160.3056,245.1503c-.0189-.0199-.0131-.0474.0114-.0599q1.3716-.6979,2.7433-1.3956c.0245-.0125.0576-.0048.073.0179q.8104,1.1983,1.6223,2.3956c.0154.0228.0038.0484-.0215.0591-1.2138.509-1.2109.516-2.4247,1.025-.0254.0106-.0607-.0032-.0796-.0232q-.9615-1.0101-1.9243-2.0189Z" style="fill:#2f3061;"/></g><g style="opacity:.5;"><path d="M155.8765,249.1767c-.0195.0194-.0393.0092-.0361-.0181q.2349-1.9726.471-3.9451c.0033-.0273.0287-.0593.0505-.0761q1.2448-.9566,2.49-1.9127c.0218-.0168.0377-.0118.0332.0153q-.2834,1.7355-.5673,3.471c-.0044.0271-.0319.061-.0515.0804q-1.1951,1.1925-2.3898,2.3853Z" style="fill:#2f3061;"/></g><g style="opacity:.5;"><path d="M151.0925,255.4697c-.027-.0054-.0386-.0266-.0211-.0478q1.1598-1.4058,2.3221-2.8094c.0175-.0212.0516-.0255.0769-.0147q1.1632.4951,2.3275.9876c.0253.0108.031.0348.0124.0551q-1.0604,1.1555-2.1199,2.3117c-.0186.0203-.0559.0291-.0828.0237q-1.257-.256-2.5151-.5061Z" style="fill:#2f3061;"/></g><g style="opacity:.5;"><path d="M175.428,236.9847c-.0189-.0199-.0193-.0473.0053-.0597q1.3716-.6979,2.7434-1.3955c.0245-.0125.0591-.0008.0745.022q.8104,1.1983,1.6212,2.3963c.0154.0228.0059.0487-.0195.0593-1.2138.509-1.2117.514-2.4255,1.023-.0254.0106-.0637.0007-.0826-.0193q-.9573-1.014-1.9168-2.0261Z" style="fill:#2f3061;"/></g><g style="opacity:.5;"><path d="M170.9938,241.0143c-.0195.0194-.0325.0108-.0292-.0165.2349-1.9726.2275-1.9735.4624-3.9461.0033-.0273.0284-.0628.0502-.0795q1.2448-.9566,2.4916-1.9106c.0218-.0168.0381-.0103.0336.0168-.2834,1.7355-.2886,1.7347-.572,3.4702-.0044.0271-.0191.0692-.0386.0886q-1.196,1.1916-2.3981,2.377Z" style="fill:#2f3061;"/></g><g style="opacity:.5;"><path d="M166.2096,247.3135c-.027-.0054-.0375-.032-.02-.0532q1.1598-1.4058,2.32-2.8112c.0175-.0212.0537-.0237.079-.0129q1.1632.4951,2.3266.9896c.0253.0108.0299.0309.0114.0512q-1.0604,1.1555-2.1153,2.3159c-.0186.0203-.0586.027-.0856.0216q-1.258-.2508-2.5161-.5011Z" style="fill:#2f3061;"/></g><g style="opacity:.5;"><path d="M177.151,243.8148c-.0189-.0199-.0174-.0486.0071-.0611q1.3716-.6979,2.7443-1.3937c.0245-.0125.0577-.0027.0731.0201q.8104,1.1983,1.6225,2.3954c.0154.0228.0058.0515-.0195.0621q-1.2138.509-2.4281,1.0168c-.0254.0106-.0642.0068-.0831-.0132q-.959-1.0124-1.9163-2.0265Z" style="fill:#2f3061;"/></g><g style="opacity:.5;"><path d="M172.7176,247.8418c-.0195.0194-.0342.0114-.031-.0159q.2349-1.9726.4728-3.9449c.0033-.0273.0213-.0628.0431-.0796q1.2448-.9566,2.4877-1.9157c.0218-.0168.0341-.0072.0297.0199q-.2834,1.7355-.5678,3.4709c-.0044.0271-.022.0637-.0416.0831q-1.1968,1.1907-2.3929,2.3822Z" style="fill:#2f3061;"/></g><g style="opacity:.5;"><path d="M167.9356,254.1353c-.027-.0054-.0374-.0242-.0198-.0454q1.1598-1.4058,2.3227-2.809c.0175-.0212.0503-.0288.0756-.018q1.1632.4951,2.3272.9883c.0253.0108.0321.0372.0135.0574q-1.0604,1.1555-2.1222,2.3096c-.0186.0203-.055.0296-.082.0241q-1.2567-.2572-2.5149-.507Z" style="fill:#2f3061;"/></g><g style="opacity:.5;"><path d="M155.3577,225.1128c-.0189-.0199-.0141-.0435.0104-.056q1.3716-.6979,2.7424-1.3975c.0245-.0125.0588-.0057.0742.0171q.8104,1.1983,1.6193,2.3976c.0154.0228.0065.0494-.0188.06q-1.2138.509-2.4284,1.0161c-.0254.0106-.0585.0042-.0775-.0157q-.9595-1.012-1.9216-2.0215Z" style="fill:#2f3061;"/></g><g style="opacity:.5;"><path d="M150.9207,229.1352c-.0195.0194-.0338.0151-.0305-.0122q.2349-1.9726.4707-3.9451c.0033-.0273.0264-.063.0482-.0797q1.2448-.9566,2.4876-1.9158c.0218-.0168.0347-.0063.0303.0208-.2834,1.7355-.2747,1.737-.5581,3.4725-.0044.0271-.027.0668-.0465.0862q-1.2009,1.1866-2.4017,2.3733Z" style="fill:#2f3061;"/></g><g style="opacity:.5;"><path d="M146.1421,235.4367c-.027-.0054-.0344-.0262-.0169-.0474q1.1598-1.4058,2.3218-2.8097c.0175-.0212.0507-.0339.076-.0231q1.1632.4951,2.3272.9882c.0253.0108.0311.0419.0125.0622q-1.0604,1.1555-2.1212,2.3105c-.0186.0203-.0582.0351-.0852.0297-1.2575-.2535-1.2566-.2576-2.5142-.5104Z" style="fill:#2f3061;"/></g><g style="opacity:.5;"><path d="M157.0825,231.9412c-.0189-.0199-.0145-.0443.01-.0568q1.3716-.6979,2.7422-1.3978c.0245-.0125.0552-.0018.0706.021q.8104,1.1983,1.625,2.3937c.0154.0228.0063.0536-.019.0643q-1.2138.509-2.4271,1.0192c-.0254.0106-.0606-.0027-.0796-.0227q-.9594-1.012-1.9221-2.021Z" style="fill:#2f3061;"/></g><g style="opacity:.5;"><path d="M152.6519,235.9702c-.0195.0194-.0424.0083-.0392-.019.2349-1.9726.2413-1.9719.4761-3.9445.0033-.0273.0255-.0603.0473-.077q1.2448-.9566,2.4892-1.9138c.0218-.0168.0362-.0106.0318.0166-.2834,1.7355-.2909,1.7343-.5742,3.4699-.0044.0271-.0212.0636-.0407.083q-1.1945,1.1931-2.3903,2.3848Z" style="fill:#2f3061;"/></g><g style="opacity:.5;"><path d="M147.8661,242.2689c-.027-.0054-.0344-.0306-.0169-.0518q1.1598-1.4058,2.3175-2.8132c.0175-.0212.0551-.0282.0804-.0175,1.1632.4951,1.1612.4998,2.3244.9949.0253.0108.0323.0317.0137.0519q-1.0604,1.1555-2.1203,2.3113c-.0186.0203-.0559.032-.0829.0266q-1.2582-.2497-2.5159-.5022Z" style="fill:#2f3061;"/></g><g style="opacity:.5;"><path d="M158.564,219.436c-.027-.0054-.0312-.0296-.0137-.0508q1.1598-1.4058,2.3177-2.8131c.0175-.0212.0504-.0269.0757-.0161q1.1632.4951,2.3268.9892c.0253.0108.0307.0327.0121.053q-1.0604,1.1555-2.122,2.3098c-.0186.0203-.054.0373-.081.0319q-1.2585-.2484-2.5156-.5038Z" style="fill:#2f3061;"/></g><g style="opacity:.5;"><path d="M169.5017,215.9389c-.0189-.0199-.0116-.0494.0129-.0619q1.3716-.6979,2.7415-1.3992c.0245-.0125.0618-.0023.0772.0205q.8104,1.1983,1.6206,2.3967c.0154.0228.0059.0545-.0195.0652q-1.2138.509-2.429,1.0148c-.0254.0106-.0644.0065-.0834-.0134q-.9631-1.0086-1.9204-2.0227Z" style="fill:#2f3061;"/></g><g style="opacity:.5;"><path d="M165.0732,219.9627c-.0195.0194-.0357.0106-.0325-.0167q.2349-1.9726.4721-3.9449c.0033-.0273.0214-.0644.0432-.0812q1.2448-.9566,2.4883-1.9149c.0218-.0168.0416-.0051.0371.022-.2834,1.7355-.2904,1.7344-.5737,3.4699-.0044.0271-.0232.0632-.0427.0826q-1.1961,1.1914-2.3918,2.3833Z" style="fill:#2f3061;"/></g><g style="opacity:.5;"><path d="M160.2897,226.2596c-.027-.0054-.032-.0247-.0145-.0459q1.1598-1.4058,2.3173-2.8133c.0175-.0212.0516-.0293.0769-.0185q1.1632.4951,2.3272.9883c.0253.0108.0318.0385.0132.0587q-1.0604,1.1555-2.1243,2.3077c-.0186.0203-.0538.0347-.0807.0293q-1.2575-.2531-2.5151-.5063Z" style="fill:#2f3061;"/></g><g style="opacity:.5;"><path d="M141.6229,240.3449c-.0189-.0199-.0183-.0486.0062-.0611,1.3716-.6979,1.3747-.6919,2.7463-1.3897.0245-.0125.0563-.0062.0717.0166q.8104,1.1983,1.6238,2.3945c.0154.0228.0054.0554-.02.066q-1.2138.509-2.4273,1.0186c-.0254.0106-.0642.0003-.0831-.0197q-.9584-1.013-1.9176-2.0252Z" style="fill:#2f3061;"/></g><g style="opacity:.5;"><path d="M143.3488,247.1721c-.0189-.0199-.0188-.0461.0057-.0586,1.3716-.6979,1.3747-.6919,2.7463-1.3898.0245-.0125.0532-.0059.0686.0169q.8104,1.1983,1.621,2.3964c.0154.0228.0079.0451-.0175.0557-1.2138.509-1.212.5133-2.4258,1.0224-.0254.0106-.0629.0032-.0818-.0167q-.9572-1.0141-1.9165-2.0263Z" style="fill:#2f3061;"/></g><g style="opacity:.5;"><path d="M138.9098,251.1971c-.0195.0194-.0286.0154-.0254-.0119q.2349-1.9726.473-3.9448c.0033-.0273.0179-.0649.0397-.0817q1.2448-.9566,2.4906-1.9119c.0218-.0168.0411-.0078.0367.0194-.2834,1.7355-.2941,1.7338-.5775,3.4693-.0044.0271-.0151.0697-.0346.0891q-1.2006,1.1869-2.4025,2.3725Z" style="fill:#2f3061;"/></g><g style="opacity:.5;"><path d="M134.1309,257.4981c-.027-.0054-.0356-.027-.0181-.0482q1.1598-1.4058,2.3209-2.8104c.0175-.0212.0502-.0263.0755-.0155q1.1632.4951,2.3275.9874c.0253.0108.0344.0378.0158.058-1.0604,1.1555-1.0668,1.1496-2.1272,2.305-.0186.0203-.0521.0337-.0791.0283q-1.2574-.2536-2.5154-.5046Z" style="fill:#2f3061;"/></g><g style="opacity:.5;"><path d="M145.2819,254.1876c-.0189-.0199-.0164-.0432.0081-.0557q1.3716-.6979,2.7439-1.3944c.0245-.0125.0535-.0045.0689.0183q.8104,1.1983,1.6207,2.3966c.0154.0228.0113.0517-.0141.0623q-1.2138.509-2.429,1.0146c-.0254.0106-.0595.0013-.0785-.0187q-.9578-1.0136-1.9201-2.0229Z" style="fill:#2f3061;"/></g><g style="opacity:.5;"><path d="M140.8419,258.2103c-.0195.0194-.0323.0165-.029-.0108.2349-1.9726.2438-1.9716.4787-3.9442.0033-.0273.0197-.0622.0415-.0789q1.2448-.9566,2.4917-1.9105c.0218-.0168.0294-.0134.025.0137-.2834,1.7355-.2758,1.7368-.5592,3.4723-.0044.0271-.0255.0676-.045.0869q-1.2022,1.1853-2.4036,2.3714Z" style="fill:#2f3061;"/></g><g style="opacity:.5;"><path d="M136.0636,264.5179c-.027-.0054-.0358-.0329-.0183-.0541q1.1598-1.4058,2.3187-2.8122c.0175-.0212.0536-.0235.0789-.0127q1.1632.4951,2.3269.9889c.0253.0108.0348.0362.0162.0565q-1.0604,1.1555-2.1208,2.3109c-.0186.0203-.0595.0338-.0865.0284-1.2584-.2488-1.2576-.2528-2.5152-.5056Z" style="fill:#2f3061;"/></g><g style="opacity:.5;"><path d="M147.0061,261.0165c-.0189-.0199-.0143-.0406.0102-.0531q1.3716-.6979,2.7431-1.396c.0245-.0125.0574-.0092.0728.0136q.8104,1.1983,1.6203,2.3969c.0154.0228.0063.0527-.019.0634q-1.2138.509-2.4267,1.0201c-.0254.0106-.0657.0019-.0846-.0181q-.9583-1.0131-1.916-2.0268Z" style="fill:#2f3061;"/></g><g style="opacity:.5;"><path d="M142.5738,265.046c-.0195.0194-.0392.0093-.036-.018q.2349-1.9726.4747-3.9446c.0033-.0273.022-.0637.0438-.0804q1.2448-.9566,2.4887-1.9143c.0218-.0168.0361-.0072.0317.0199q-.2834,1.7355-.5714,3.4703c-.0044.0271-.016.0687-.0355.0881q-1.1951,1.1924-2.396,2.3791Z" style="fill:#2f3061;"/></g><g style="opacity:.5;"><path d="M137.7891,271.3427c-.027-.0054-.038-.0306-.0205-.0518q1.1598-1.4058,2.3245-2.8075c.0175-.0212.0516-.0322.0769-.0214,1.1632.4951,1.1608.5006,2.324.9957.0253.0108.0336.0328.015.0531q-1.0604,1.1555-2.1204,2.3113c-.0186.0203-.0565.0275-.0835.0221q-1.2577-.2523-2.516-.5015Z" style="fill:#2f3061;"/></g><g style="opacity:.5;"><path d="M149.0113,267.951c-.0189-.0199-.0125-.0456.012-.0581q1.3716-.6979,2.7424-1.3975c.0245-.0125.0539-.0019.0693.0209q.8104,1.1983,1.6246,2.394c.0154.0228.0084.0544-.017.065-1.2138.509-1.2171.5012-2.4308,1.0103-.0254.0106-.0602.0071-.0792-.0128q-.9612-1.0103-1.9213-2.0218Z" style="fill:#2f3061;"/></g><g style="opacity:.5;"><path d="M144.5784,271.9741c-.0195.0194-.0317.0133-.0284-.014.2349-1.9726.2284-1.9734.4633-3.946.0033-.0273.0314-.06.0532-.0767q1.2448-.9566,2.4854-1.9187c.0218-.0168.0323-.0065.0278.0206-.2834,1.7355-.2742,1.737-.5575,3.4726-.0044.0271-.03.062-.0495.0814q-1.1986,1.189-2.3942,2.3808Z" style="fill:#2f3061;"/></g><g style="opacity:.5;"><path d="M139.7967,278.2769c-.027-.0054-.0348-.0309-.0173-.0521q1.1598-1.4058,2.3237-2.8081c.0175-.0212.0486-.0312.0739-.0205q1.1632.4951,2.3279.9866c.0253.0108.0266.0355.008.0557-1.0604,1.1555-1.0548,1.1606-2.1152,2.316-.0186.0203-.0586.0325-.0856.027q-1.2582-.2498-2.5154-.5047Z" style="fill:#2f3061;"/></g><g style="opacity:.5;"><path d="M150.738,274.7775c-.0189-.0199-.0173-.0493.0072-.0618q1.3716-.6979,2.7442-1.394c.0245-.0125.0613-.0042.0767.0186q.8104,1.1983,1.6189,2.3979c.0154.0228.0046.0475-.0207.0581q-1.2138.509-2.4267,1.0201c-.0254.0106-.0622.0055-.0811-.0145q-.9593-1.0122-1.9184-2.0245Z" style="fill:#2f3061;"/></g><g style="opacity:.5;"><path d="M146.3015,278.8009c-.0195.0194-.0293.015-.0261-.0123q.2349-1.9726.4739-3.9447c.0033-.0273.0212-.0598.043-.0766,1.2448-.9566,1.2393-.9637,2.4841-1.9204.0218-.0168.0436-.0045.0392.0227q-.2834,1.7355-.5713,3.4703c-.0044.0271-.0221.0679-.0416.0872q-1.2002,1.1873-2.4013,2.3738Z" style="fill:#2f3061;"/></g><g style="opacity:.5;"><path d="M210.3906,185.7587c-.0189-.0199-.0192-.0476.0053-.0601,1.3716-.6979,1.3743-.6925,2.746-1.3904.0245-.0125.054-.0038.0694.0189q.8104,1.1983,1.6222,2.3956c.0154.0228.0083.0492-.0171.0598q-1.2138.509-2.4281,1.0168c-.0254.0106-.0633.0066-.0822-.0133q-.9575-1.0139-1.9154-2.0273Z" style="fill:#2f3061;"/></g><g style="opacity:.5;"><path d="M205.9538,189.7853c-.0195.0194-.0311.0134-.0279-.0139q.2349-1.9726.4733-3.9448c.0033-.0273.0171-.0662.0389-.0829q1.2448-.9566,2.4904-1.9122c.0218-.0168.0405-.0065.036.0206q-.2834,1.7355-.565,3.4714c-.0044.0271-.0256.068-.0452.0874q-1.1987,1.1889-2.4006,2.3744Z" style="fill:#2f3061;"/></g><g style="opacity:.5;"><path d="M201.1732,196.0832c-.027-.0054-.0347-.025-.0172-.0462q1.1598-1.4058,2.3179-2.8129c.0175-.0212.0525-.0257.0778-.0149q1.1632.4951,2.326.9911c.0253.0108.0354.035.0168.0553-1.0604,1.1555-1.0668,1.1496-2.1272,2.305-.0186.0203-.0526.0366-.0795.0312q-1.2572-.2547-2.5146-.5086Z" style="fill:#2f3061;"/></g><g style="opacity:.5;"><path d="M212.1101,192.592c-.0189-.0199-.0122-.0491.0123-.0616q1.3716-.6979,2.7416-1.399c.0245-.0125.0607-.0015.0761.0212q.8104,1.1983,1.6213,2.3962c.0154.0228.0042.0493-.0212.0599q-1.2138.509-2.4263,1.021c-.0254.0106-.0631.0035-.0821-.0164q-.9626-1.009-1.9217-2.0214Z" style="fill:#2f3061;"/></g><g style="opacity:.5;"><path d="M207.6826,196.6178c-.0195.0194-.0406.0087-.0374-.0186q.2349-1.9726.4732-3.9448c.0033-.0273.0223-.0661.0441-.0829q1.2448-.9566,2.4893-1.9135c.0218-.0168.035-.0057.0306.0215q-.2834,1.7355-.5667,3.4711c-.0044.0271-.0221.0643-.0416.0837q-1.1946,1.1929-2.3914,2.3836Z" style="fill:#2f3061;"/></g><g style="opacity:.5;"><path d="M202.8977,202.9125c-.027-.0054-.0361-.0272-.0186-.0484q1.1598-1.4058,2.3192-2.8118c.0175-.0212.0523-.0241.0776-.0133,1.1632.4951,1.1666.487,2.3298.9822.0253.0108.0282.0389.0096.0591q-1.0604,1.1555-2.1203,2.3113c-.0186.0203-.0546.0301-.0816.0247q-1.2574-.2538-2.5156-.5038Z" style="fill:#2f3061;"/></g><g style="opacity:.5;"><path d="M202.1808,214.4611c-.0189-.0199-.0128-.0426.0117-.0551,1.3716-.6979,1.3687-.7036,2.7403-1.4015.0245-.0125.0591-.0024.0745.0204q.8104,1.1983,1.6234,2.3948c.0154.0228.0023.0485-.0231.0592-1.2138.509-1.2111.5155-2.4249,1.0245-.0254.0106-.0643.002-.0833-.0179q-.96-1.0115-1.9186-2.0243Z" style="fill:#2f3061;"/></g><g style="opacity:.5;"><path d="M197.7482,218.487c-.0195.0194-.0326.0118-.0294-.0155q.2349-1.9726.4713-3.945c.0033-.0273.024-.0595.0458-.0762q1.2448-.9566,2.4895-1.9133c.0218-.0168.0347-.0121.0302.015-.2834,1.7355-.2908,1.7343-.5741,3.4699-.0044.0271-.0161.0685-.0356.0879q-1.197,1.1905-2.3977,2.3773Z" style="fill:#2f3061;"/></g><g style="opacity:.5;"><path d="M192.966,224.7828c-.027-.0054-.0328-.0229-.0153-.0441q1.1598-1.4058,2.3165-2.814c.0175-.0212.0533-.0295.0786-.0187q1.1632.4951,2.3255.9921c.0253.0108.034.0368.0154.0571-1.0604,1.1555-1.0663,1.15-2.1266,2.3055-.0186.0203-.0532.0389-.0801.0335q-1.2571-.2551-2.514-.5113Z" style="fill:#2f3061;"/></g><g style="opacity:.5;"><path d="M203.9057,221.2893c-.0189-.0199-.0128-.0421.0117-.0545q1.3716-.6979,2.741-1.4002c.0245-.0125.0593-.0049.0747.0179.8104,1.1983.805,1.2019,1.6154,2.4002.0154.0228.0119.0506-.0135.0612-1.2138.509-1.2163.5031-2.43,1.0122-.0254.0106-.0574.0033-.0763-.0166q-.9598-1.0116-1.9231-2.0201Z" style="fill:#2f3061;"/></g><g style="opacity:.5;"><path d="M199.4678,225.3102c-.0195.0194-.0287.0168-.0254-.0106q.2349-1.9726.4737-3.9448c.0033-.0273.0169-.0672.0387-.084q1.2448-.9566,2.4902-1.9124c.0218-.0168.0418-.0051.0373.022q-.2834,1.7355-.5672,3.471c-.0044.0271-.0254.0666-.0449.086q-1.202,1.1855-2.4023,2.3727Z" style="fill:#2f3061;"/></g><g style="opacity:.5;"><path d="M194.6912,231.6089c-.027-.0054-.0351-.0221-.0176-.0434q1.1598-1.4058,2.3212-2.8102c.0175-.0212.0495-.0297.0748-.0189,1.1632.4951,1.1652.4904,2.3284.9855.0253.0108.0308.0402.0123.0605q-1.0604,1.1555-2.12,2.3116c-.0186.0203-.058.0311-.0849.0257q-1.2567-.2573-2.5142-.5108Z" style="fill:#2f3061;"/></g><g style="opacity:.5;"><path d="M198.3594,200.52c-.0189-.0199-.0146-.0426.0099-.0551q1.3716-.6979,2.7411-1.4c.0245-.0125.0548,0,.0702.0227q.8104,1.1983,1.6243,2.3942c.0154.0228.0074.0511-.018.0617q-1.2138.509-2.429,1.0148c-.0254.0106-.0602.0052-.0792-.0148q-.9589-1.0126-1.9194-2.0235Z" style="fill:#2f3061;"/></g><g style="opacity:.5;"><path d="M189.1429,210.8456c-.027-.0054-.0382-.0305-.0207-.0517q1.1598-1.4058,2.3222-2.8094c.0175-.0212.055-.0326.0803-.0219q1.1632.4951,2.3266.9897c.0253.0108.0321.0433.0136.0635q-1.0604,1.1555-2.1209,2.3108c-.0186.0203-.0595.0328-.0864.0274q-1.2577-.2525-2.5146-.5084Z" style="fill:#2f3061;"/></g><g style="opacity:.5;"><path d="M200.0831,207.3494c-.0189-.0199-.0146-.0457.0099-.0581q1.3716-.6979,2.7439-1.3944c.0245-.0125.0579-.007.0733.0158q.8104,1.1983,1.6195,2.3974c.0154.0228.006.0483-.0193.0589-1.2138.509-1.2117.5139-2.4255,1.0229-.0254.0106-.0657.0029-.0846-.017q-.9599-1.0116-1.9173-2.0256Z" style="fill:#2f3061;"/></g><g style="opacity:.5;"><path d="M195.6487,211.3738c-.0195.0194-.0302.0135-.027-.0138q.2349-1.9726.4667-3.9456c.0033-.0273.0211-.0677.0429-.0845q1.2448-.9566,2.4898-1.913c.0218-.0168.0362-.0046.0318.0226q-.2834,1.7355-.5623,3.4718c-.0044.0271-.0279.0625-.0474.0819q-1.1986,1.1889-2.3945,2.3806Z" style="fill:#2f3061;"/></g><g style="opacity:.5;"><path d="M190.8678,217.6733c-.027-.0054-.0321-.0247-.0146-.0459q1.1598-1.4058,2.3157-2.8147c.0175-.0212.0533-.0277.0786-.0169,1.1632.4951,1.1651.4907,2.3282.9858.0253.0108.0268.0372.0082.0574q-1.0604,1.1555-2.1206,2.311c-.0186.0203-.0541.0383-.0811.0329q-1.2575-.2531-2.5144-.5096Z" style="fill:#2f3061;"/></g><g style="opacity:.5;"><path d="M210.77,203.2153c-.0195.0194-.0324.0105-.0292-.0168q.2349-1.9726.4681-3.9454c.0033-.0273.0212-.0649.043-.0817q1.2448-.9566,2.491-1.9114c.0218-.0168.0404-.0079.036.0192q-.2834,1.7355-.5711,3.4704c-.0044.0271-.0229.0666-.0424.086q-1.1956,1.1919-2.3954,2.3797Z" style="fill:#2f3061;"/></g><g style="opacity:.5;"><path d="M205.9866,209.5087c-.027-.0054-.0371-.0253-.0196-.0465q1.1598-1.4058,2.3242-2.8077c.0175-.0212.0491-.0309.0744-.0201q1.1632.4951,2.3252.993c.0253.0108.0344.0339.0158.0542q-1.0604,1.1555-2.1205,2.3112c-.0186.0203-.0582.0311-.0852.0256q-1.2569-.2561-2.5144-.5097Z" style="fill:#2f3061;"/></g><g style="opacity:.5;"><path d="M212.4936,210.0427c-.0195.0194-.0365.011-.0332-.0163q.2349-1.9726.4721-3.945c.0033-.0273.0203-.0674.0421-.0842q1.2448-.9566,2.4896-1.9132c.0218-.0168.043-.0037.0386.0235-.2834,1.7355-.2905,1.7344-.5739,3.4699-.0044.0271-.0185.068-.038.0874q-1.1966,1.1909-2.3972,2.3779Z" style="fill:#2f3061;"/></g><g style="opacity:.5;"><path d="M207.7108,216.3398c-.027-.0054-.0332-.0251-.0157-.0463q1.1598-1.4058,2.3177-2.813c.0175-.0212.0536-.0317.0789-.0209q1.1632.4951,2.3252.993c.0253.0108.0326.0368.014.0571q-1.0604,1.1555-2.1247,2.3073c-.0186.0203-.0539.0371-.0808.0317q-1.2575-.2535-2.5146-.5088Z" style="fill:#2f3061;"/></g><g style="opacity:.5;"><path d="M207.5555,171.3087c-.0189-.0199-.0138-.0462.0107-.0586q1.3716-.6979,2.7424-1.3974c.0245-.0125.0571-.0025.0725.0203q.8104,1.1983,1.6236,2.3947c.0154.0228.0049.0511-.0204.0617q-1.2138.509-2.4271,1.0193c-.0254.0106-.0617.002-.0806-.0179q-.9605-1.011-1.9211-2.022Z" style="fill:#2f3061;"/></g><g style="opacity:.5;"><path d="M209.2782,178.139c-.0189-.0199-.0106-.0457.0139-.0581,1.3716-.6979,1.3683-.7043,2.7399-1.4022.0245-.0125.0564.0012.0718.024q.8104,1.1983,1.6242,2.3942c.0154.0228.0061.0499-.0193.0606q-1.2138.509-2.4275,1.0183c-.0254.0106-.0619.004-.0809-.0159q-.9625-1.0091-1.9223-2.0208Z" style="fill:#2f3061;"/></g><g style="opacity:.5;"><path d="M204.8475,182.1618c-.0195.0194-.0296.0128-.0263-.0146q.2349-1.9726.4664-3.9456c.0033-.0273.0251-.061.0469-.0778,1.2448-.9566,1.2399-.963,2.4847-1.9196.0218-.0168.0386-.0043.0342.0228q-.2834,1.7355-.57,3.4706c-.0044.0271-.0244.0617-.0439.0811q-1.1977,1.1898-2.3919,2.3832Z" style="fill:#2f3061;"/></g><g style="opacity:.5;"><path d="M200.0648,188.4644c-.027-.0054-.0371-.0336-.0196-.0548q1.1598-1.4058,2.3203-2.8109c.0175-.0212.0557-.0295.081-.0187q1.1632.4951,2.3269.9889c.0253.0108.0267.0366.0081.0569q-1.0604,1.1555-2.1188,2.3127c-.0186.0203-.0548.0324-.0818.027q-1.2583-.2492-2.5161-.5011Z" style="fill:#2f3061;"/></g><g style="opacity:.5;"><path d="M172.1826,212.8677c-.027-.0054-.0335-.0222-.016-.0434q1.1598-1.4058,2.3165-2.814c.0175-.0212.0554-.0328.0807-.022q1.1632.4951,2.3264.99c.0253.0108.0314.0426.0129.0629q-1.0604,1.1555-2.1222,2.3096c-.0186.0203-.0575.0349-.0845.0295q-1.2569-.2562-2.5138-.5125Z" style="fill:#2f3061;"/></g><g style="opacity:.5;"><path d="M183.1223,209.3751c-.0189-.0199-.0149-.0454.0096-.0579q1.3716-.6979,2.743-1.3963c.0245-.0125.0594-.0054.0749.0173q.8104,1.1983,1.6172,2.399c.0154.0228.0093.0507-.016.0613q-1.2138.509-2.4287,1.0153c-.0254.0106-.0626.0055-.0815-.0144q-.9596-1.0119-1.9184-2.0245Z" style="fill:#2f3061;"/></g><g style="opacity:.5;"><path d="M178.6844,213.3965c-.0195.0194-.0297.0164-.0265-.0109q.2349-1.9726.4703-3.9452c.0033-.0273.025-.0617.0468-.0785q1.2448-.9566,2.4863-1.9175c.0218-.0168.04-.0053.0356.0219q-.2834,1.7355-.5629,3.4717c-.0044.0271-.0298.0643-.0493.0837q-1.2018,1.1857-2.4002,2.3748Z" style="fill:#2f3061;"/></g><g style="opacity:.5;"><path d="M173.906,219.7025c-.027-.0054-.0337-.0298-.0162-.051q1.1598-1.4058,2.319-2.812c.0175-.0212.0511-.026.0764-.0153q1.1632.4951,2.328.9863c.0253.0108.0314.0371.0128.0574q-1.0604,1.1555-2.1184,2.3131c-.0186.0203-.0598.0341-.0868.0287-1.2582-.2499-1.2573-.2543-2.5149-.5071Z" style="fill:#2f3061;"/></g><g style="opacity:.5;"><path d="M185.0575,216.3886c-.0189-.0199-.0162-.0436.0083-.056q1.3716-.6979,2.7444-1.3934c.0245-.0125.0541-.0062.0695.0166q.8104,1.1983,1.6237,2.3946c.0154.0228.0074.0546-.018.0653-1.2138.509-1.2166.5023-2.4304,1.0113-.0254.0106-.0592.0052-.0782-.0147q-.9581-1.0133-1.9193-2.0236Z" style="fill:#2f3061;"/></g><g style="opacity:.5;"><path d="M180.6239,220.4172c-.0195.0194-.0356.0106-.0323-.0167q.2349-1.9726.465-3.9458c.0033-.0273.0308-.0605.0526-.0773q1.2448-.9566,2.4856-1.9184c.0218-.0168.0404-.005.036.0221-.2834,1.7355-.2899,1.7345-.5733,3.47-.0044.0271-.0195.066-.039.0854q-1.1961,1.1914-2.3945,2.3806Z" style="fill:#2f3061;"/></g><g style="opacity:.5;"><path d="M175.8406,226.7133c-.027-.0054-.0349-.0259-.0174-.0472q1.1598-1.4058,2.3164-2.8141c.0175-.0212.0569-.03.0822-.0192q1.1632.4951,2.3269.9889c.0253.0108.0292.0405.0106.0608q-1.0604,1.1555-2.1241,2.3078c-.0186.0203-.0529.0361-.0798.0307q-1.2574-.254-2.5148-.5077Z" style="fill:#2f3061;"/></g><g style="opacity:.5;"><path d="M186.7817,223.2175c-.0189-.0199-.0147-.0422.0098-.0547,1.3716-.6979,1.3686-.7038,2.7402-1.4016.0245-.0125.0551.0016.0705.0244q.8104,1.1983,1.6245,2.3941c.0154.0228.0057.0464-.0197.057-1.2138.509-1.2111.5155-2.4249,1.0245-.0254.0106-.062-.0004-.081-.0204q-.9587-1.0128-1.9196-2.0233Z" style="fill:#2f3061;"/></g><g style="opacity:.5;"><path d="M182.3452,227.2422c-.0195.0194-.0335.0139-.0302-.0134.2349-1.9726.2423-1.9717.4772-3.9444.0033-.0273.0164-.0664.0382-.0831q1.2448-.9566,2.4934-1.9082c.0218-.0168.0285-.0118.0241.0153q-.2834,1.7355-.5627,3.4718c-.0044.0271-.0258.0623-.0453.0817q-1.1995,1.188-2.3947,2.3804Z" style="fill:#2f3061;"/></g><g style="opacity:.5;"><path d="M177.5658,233.5393c-.027-.0054-.034-.0224-.0165-.0436q1.1598-1.4058,2.316-2.8144c.0175-.0212.0557-.0306.081-.0198q1.1632.4951,2.3251.9931c.0253.0108.0343.039.0157.0593q-1.0604,1.1555-2.1263,2.3059c-.0186.0203-.0533.0322-.0803.0268q-1.2569-.2564-2.5149-.5071Z" style="fill:#2f3061;"/></g><g style="opacity:.5;"><path d="M188.7864,230.1524c-.0189-.0199-.0139-.0505.0106-.063q1.3716-.6979,2.7444-1.3935c.0245-.0125.0586-.0047.074.018q.8104,1.1983,1.6206,2.3967c.0154.0228.0067.0521-.0186.0628q-1.2138.509-2.4276,1.0181c-.0254.0106-.0615.0011-.0804-.0189q-.962-1.0096-1.9229-2.0202Z" style="fill:#2f3061;"/></g><g style="opacity:.5;"><path d="M184.3538,234.1743c-.0195.0194-.0321.0137-.0288-.0137q.2349-1.9726.4669-3.9456c.0033-.0273.0241-.0663.0459-.0831q1.2448-.9566,2.4927-1.9092c.0218-.0168.039-.0085.0346.0187q-.2834,1.7355-.5648,3.4714c-.0044.0271-.0311.0628-.0506.0822q-1.199,1.1885-2.3959,2.3792Z" style="fill:#2f3061;"/></g><g style="opacity:.5;"><path d="M179.5729,240.4757c-.027-.0054-.0366-.0301-.0191-.0514q1.1598-1.4058,2.3187-2.8122c.0175-.0212.0569-.0307.0822-.0199q1.1632.4951,2.3251.9933c.0253.0108.0274.0335.0088.0537q-1.0604,1.1555-2.116,2.3153c-.0186.0203-.0569.0288-.0838.0233q-1.2578-.2517-2.5159-.5021Z" style="fill:#2f3061;"/></g><g style="opacity:.5;"><path d="M190.5112,236.9807c-.0189-.0199-.0134-.0491.0111-.0616q1.3716-.6979,2.7419-1.3984c.0245-.0125.0623-.0024.0777.0204q.8104,1.1983,1.6161,2.3997c.0154.0228.0096.051-.0157.0616q-1.2138.509-2.4269,1.0196c-.0254.0106-.0604-.0031-.0793-.0231q-.9618-1.0097-1.9249-2.0183Z" style="fill:#2f3061;"/></g><g style="opacity:.5;"><path d="M186.0812,241.0055c-.0195.0194-.0321.0112-.0289-.0161q.2349-1.9726.4676-3.9455c.0033-.0273.0259-.0599.0477-.0767q1.2448-.9566,2.4863-1.9175c.0218-.0168.0329-.0081.0285.019q-.2834,1.7355-.5684,3.4708c-.0044.0271-.0157.069-.0353.0884q-1.1963,1.1912-2.3975,2.3776Z" style="fill:#2f3061;"/></g><g style="opacity:.5;"><path d="M181.2975,247.3048c-.027-.0054-.0372-.0314-.0197-.0526q1.1598-1.4058,2.3248-2.8072c.0175-.0212.0493-.0298.0746-.0191q1.1632.4951,2.3276.9872c.0253.0108.0323.039.0137.0593q-1.0604,1.1555-2.1249,2.3071c-.0186.0203-.0532.0325-.0802.027q-1.2579-.2511-2.516-.5018Z" style="fill:#2f3061;"/></g></g><path d="M203.3595,253.7759c-3.5492-.9359-1.1005-2.6713-3.063-6.7446-.917-1.9033-1.8377-4.2251-3.1465-6.6414-1.0888-2.0103-2.4063-4.105-3.7515-6.3184-1.2261-2.0174-2.6086-4.0556-4.0369-6.1322-1.3639-1.9829-2.897-3.9022-4.4363-5.8459-1.5144-1.9123-2.9488-3.9193-4.6245-5.7063-1.6858-1.7979-3.4826-3.4842-5.323-5.0673-1.8815-1.6184-3.7796-3.2043-5.8136-4.505-2.093-1.3385-4.3751-2.2789-6.6197-3.1797-2.2824-.916-4.6313-1.4939-7.06-1.8503-2.3756-.3486-4.7931-.5686-7.2988-.2796-2.3212.2677-4.6697.898-7.0944,1.7963-2.1584.7997-4.4627,1.6618-6.6972,3.0215-2.0956,1.2751-4.0015,2.7026-5.7335,4.1907-1.8397,1.5806-3.3973,3.3702-4.8508,5.17-1.5004,1.8577-2.6696,3.896-3.7854,5.9637-1.1173,2.0706-2.1209,4.1881-2.8798,6.4452-.7423,2.2075-1.4044,4.473-1.8297,6.8362-.4106,2.281-.8271,4.623-.9659,7.0285-.1333,2.3114.0212,4.6851.1181,7.093.0931,2.3153.3118,4.6682.5992,7.0565.2775,2.3056.6353,4.641,1.0772,7.0001.4287,2.2885.7621,4.639,1.3304,6.9646.5542,2.268,1.165,4.5598,1.838,6.8507.6599,2.2464,1.3702,4.5088,2.1311,6.7656.7501,2.2246,1.5474,4.4572,2.3831,6.6809.8281,2.2034,1.72,4.3989,2.6199,6.5907.8964,2.1833,2.0269,4.2734,2.9827,6.4346.9572,2.1647,1.9259,4.3209,2.9306,6.4529,1.012,2.1475,1.995,4.2992,3.0428,6.4027,1.0618,2.1315,2.0359,4.2915,3.1217,6.3667,1.108,2.1175,2.4425,4.0862,3.5621,6.1332,1.1519,2.106,2.3078,4.1681,3.4573,6.1867,1.194,2.0968,2.1684,4.2671,3.3435,6.2552,1.2362,2.0912,2.5593,4.0578,3.7557,6.0122,1.2816,2.0935,2.5963,4.0646,3.8093,5.9809,1.3326,2.1052,2.6208,4.0929,3.8406,5.9577,1.3999,2.1402,2.6029,4.1872,3.8095,5.9716,1.5287,2.2608,2.8114,4.2705,3.943,5.8838,2.0874,2.9758,6.1586,3.7349,9.3259,1.9516,3.1005-1.7781,3.0464-1.871,6.1397-3.6616,3.0937-1.7908,3.1985-1.6096,6.2922-3.4004,3.0909-1.7892,2.9857-1.971,6.0766-3.7601,3.0924-1.79,3.1468-1.6962,6.2392-3.4862,3.0938-1.7908,3.0624-1.845,6.1562-3.6359,3.0938-1.7908,3.2339-1.5487,6.3277-3.3395,3.0938-1.7908,3.0216-1.9157,6.1154-3.7065,3.0946-1.7913,3.0657-1.8413,6.1603-3.6326,3.0929-1.7903,3.0654-1.838,6.1583-3.6283q3.0956-1.7919,6.1975-3.573c3.0978-1.7931,3.1853-1.6418,6.2831-3.435s3.21-1.6172,6.2305-3.5377c1.8692-1.5416,3.6406-3.1575,5.4065-4.6759,1.8401-1.5824,3.675-3.0971,5.3977-4.6574,1.8022-1.6323,3.4528-3.3479,5.1206-4.9595,1.7524-1.6934,3.3292-3.4712,4.9265-5.146,1.6856-1.7674,3.3244-3.48,4.8292-5.2313,1.5948-1.856,3.2073-3.6065,4.5896-5.4502,1.4706-1.9614,2.7071-3.9942,3.9259-5.9485,1.2963-2.0786,2.5859-4.0809,3.5837-6.1596,1.0554-2.1988,1.7548-4.4731,2.46-6.6819.7344-2.3001,1.4374-4.5676,1.7735-6.8897.3404-2.3514.3651-4.7248.2777-7.1104-.0855-2.3311-.2074-4.7111-.7199-7.0859-.4851-2.2478-1.3002-4.488-2.1839-6.7845-.8195-2.1299-1.9222-4.2236-3.0973-6.403-.3358-.6227-.5633-1.3129-.9247-1.9396-1.3095-2.2705-2.8647-4.1472-4.3965-5.873-1.7158-1.9331-3.4604-3.6179-5.4078-4.9341-2.0828-1.4077-4.277-2.4767-6.5656-3.2617-2.3147-.794-4.719-1.2122-7.1813-1.4577-2.4047-.2397-4.8676-.5251-7.3533-.3254-2.4087.1935-4.8188.7891-7.2492,1.3188-2.3763.5179-4.7478,1.1723-7.0941,1.9404-2.3338.764-4.6405,1.6268-6.8951,2.5689-2.2939.9586-4.5829,1.8886-6.7433,2.9591-2.2651,1.1225-4.4351,2.3092-6.4949,3.4727-2.2617,1.2775-4.4,2.5306-6.3383,3.7511-2.3317,1.4683-4.3506,2.9346-6.088,4.1431-3.7211,2.5883-2.39,5.3824-5.9455,4.4448Z" style="fill:#2f3061;"/><path d="M203.3595,253.7759c-3.5492-.9359-1.1005-2.6713-3.063-6.7446-.917-1.9033-1.8377-4.2251-3.1465-6.6414-1.0888-2.0103-2.4063-4.105-3.7515-6.3184-1.2261-2.0174-2.6086-4.0556-4.0369-6.1322-1.3639-1.9829-2.897-3.9022-4.4363-5.8459-1.5144-1.9123-2.9488-3.9193-4.6245-5.7063-1.6858-1.7979-3.4826-3.4842-5.323-5.0673-1.8815-1.6184-3.7796-3.2043-5.8136-4.505-2.093-1.3385-4.3751-2.2789-6.6197-3.1797-2.2824-.916-4.6313-1.4939-7.06-1.8503-2.3756-.3486-4.7931-.5686-7.2988-.2796-2.3212.2677-4.6697.898-7.0944,1.7963-2.1584.7997-4.4627,1.6618-6.6972,3.0215-2.0956,1.2751-4.0015,2.7026-5.7335,4.1907-1.8397,1.5806-3.3973,3.3702-4.8508,5.17-1.5004,1.8577-2.6696,3.896-3.7854,5.9637-1.1173,2.0706-2.1209,4.1881-2.8798,6.4452-.7423,2.2075-1.4044,4.473-1.8297,6.8362-.4106,2.281-.8271,4.623-.9659,7.0285-.1333,2.3114.0212,4.6851.1181,7.093.0931,2.3153.3118,4.6682.5992,7.0565.2775,2.3056.6353,4.641,1.0772,7.0001.4287,2.2885.7621,4.639,1.3304,6.9646.5542,2.268,1.165,4.5598,1.838,6.8507.6599,2.2464,1.3702,4.5088,2.1311,6.7656.7501,2.2246,1.5474,4.4572,2.3831,6.6809.8281,2.2034,1.72,4.3989,2.6199,6.5907.8964,2.1833,2.0269,4.2734,2.9827,6.4346.9572,2.1647,1.9259,4.3209,2.9306,6.4529,1.012,2.1475,1.995,4.2992,3.0428,6.4027,1.0618,2.1315,2.0359,4.2915,3.1217,6.3667,1.108,2.1175,2.4425,4.0862,3.5621,6.1332,1.1519,2.106,2.3078,4.1681,3.4573,6.1867,1.194,2.0968,2.1684,4.2671,3.3435,6.2552,1.2362,2.0912,2.5593,4.0578,3.7557,6.0122,1.2816,2.0935,2.5963,4.0646,3.8093,5.9809,1.3326,2.1052,2.6208,4.0929,3.8406,5.9577,1.3999,2.1402,2.6029,4.1872,3.8095,5.9716,1.5287,2.2608,2.8114,4.2705,3.943,5.8838,2.0874,2.9758,6.1586,3.7349,9.3259,1.9516,3.1005-1.7781,3.0464-1.871,6.1397-3.6616,3.0937-1.7908,3.1985-1.6096,6.2922-3.4004,3.0909-1.7892,2.9857-1.971,6.0766-3.7601,3.0924-1.79,3.1468-1.6962,6.2392-3.4862,3.0938-1.7908,3.0624-1.845,6.1562-3.6359,3.0938-1.7908,3.2339-1.5487,6.3277-3.3395,3.0938-1.7908,3.0216-1.9157,6.1154-3.7065,3.0946-1.7913,3.0657-1.8413,6.1603-3.6326,3.0929-1.7903,3.0654-1.838,6.1583-3.6283q3.0956-1.7919,6.1975-3.573c3.0978-1.7931,3.1853-1.6418,6.2831-3.435s3.21-1.6172,6.2305-3.5377c1.8692-1.5416,3.6406-3.1575,5.4065-4.6759,1.8401-1.5824,3.675-3.0971,5.3977-4.6574,1.8022-1.6323,3.4528-3.3479,5.1206-4.9595,1.7524-1.6934,3.3292-3.4712,4.9265-5.146,1.6856-1.7674,3.3244-3.48,4.8292-5.2313,1.5948-1.856,3.2073-3.6065,4.5896-5.4502,1.4706-1.9614,2.7071-3.9942,3.9259-5.9485,1.2963-2.0786,2.5859-4.0809,3.5837-6.1596,1.0554-2.1988,1.7548-4.4731,2.46-6.6819.7344-2.3001,1.4374-4.5676,1.7735-6.8897.3404-2.3514.3651-4.7248.2777-7.1104-.0855-2.3311-.2074-4.7111-.7199-7.0859-.4851-2.2478-1.3002-4.488-2.1839-6.7845-.8195-2.1299-1.9222-4.2236-3.0973-6.403-.3358-.6227-.5633-1.3129-.9247-1.9396-1.3095-2.2705-2.8647-4.1472-4.3965-5.873-1.7158-1.9331-3.4604-3.6179-5.4078-4.9341-2.0828-1.4077-4.277-2.4767-6.5656-3.2617-2.3147-.794-4.719-1.2122-7.1813-1.4577-2.4047-.2397-4.8676-.5251-7.3533-.3254-2.4087.1935-4.8188.7891-7.2492,1.3188-2.3763.5179-4.7478,1.1723-7.0941,1.9404-2.3338.764-4.6405,1.6268-6.8951,2.5689-2.2939.9586-4.5829,1.8886-6.7433,2.9591-2.2651,1.1225-4.4351,2.3092-6.4949,3.4727-2.2617,1.2775-4.4,2.5306-6.3383,3.7511-2.3317,1.4683-4.3506,2.9346-6.088,4.1431-3.7211,2.5883-2.39,5.3824-5.9455,4.4448Z" style="fill:none; stroke:#2f3061; stroke-miterlimit:10; stroke-width:17px;"/><path d="M257.4668,221.7122c0,2.4051-.3087,4.7629-.6385,7.0769-.338,2.3715-.7706,4.7025-1.4307,6.9539-.6715,2.2905-1.5751,4.483-2.5542,6.6235-.99,2.1643-2.1307,4.2357-3.4085,6.22-1.2856,1.9963-2.6166,3.9644-4.1663,5.7513-1.5526,1.7903-3.3194,3.3787-5.1097,4.9313-1.7869,1.5496-3.6744,2.9724-5.6707,4.2579-1.9843,1.2778-4.0023,2.5335-6.1665,3.5235-2.1404.979-4.379,1.7874-6.6693,2.4589-2.2514.66-4.586,1.0844-6.9574,1.4224-2.3139.3298-4.6728.5475-7.0778.5475s-4.7761-.1335-7.0901-.4633c-2.3715-.338-4.6666-.9406-6.918-1.6007-2.2905-.6715-4.5112-1.4856-6.6517-2.4648-2.1643-.99-4.308-2.0219-6.2923-3.2998-1.9963-1.2856-3.8204-2.8137-5.6073-4.3634-1.7903-1.5526-3.4781-3.2142-5.0307-5.0045-1.5496-1.7869-2.9869-3.6725-4.2724-5.6688-1.2778-1.9843-2.5122-4.0209-3.5021-6.1852-.979-2.1404-1.7597-4.3915-2.4311-6.6818-.66-2.2514-1.1996-4.5694-1.5376-6.9408-.3298-2.3139-.419-4.689-.419-7.094s.0812-4.7815.411-7.0954c.338-2.3715.8321-4.7041,1.4922-6.9555.6715-2.2905,1.5033-4.5272,2.4824-6.6677.99-2.1643,2.2321-4.1966,3.5099-6.1809,1.2856-1.9963,2.6542-3.9405,4.2039-5.7274,1.5526-1.7903,3.2817-3.4226,5.072-4.9752,1.7869-1.5496,3.7183-2.9199,5.7146-4.2054,1.9843-1.2778,4.0156-2.5014,6.1799-3.4913,2.1404-.979,4.394-1.7139,6.6844-2.3854,2.2514-.66,4.5571-1.1677,6.9285-1.5057,2.3139-.3298,4.6685-.6435,7.0735-.6435s4.7813.1636,7.0952.4934c2.3715.338,4.6932.8684,6.9446,1.5284,2.2905.6715,4.4655,1.6246,6.606,2.6038,2.1643.99,4.2314,2.132,6.2157,3.4099,1.9963,1.2856,3.8817,2.7068,5.6686,4.2565,1.7903,1.5526,3.5248,3.1654,5.0774,4.9557,1.5496,1.7869,3.0215,3.6541,4.3071,5.6504,1.2778,1.9843,2.3813,4.0905,3.3713,6.2547.979,2.1404,1.8123,4.3631,2.4837,6.6534.66,2.2514,1.2164,4.563,1.5544,6.9345.3298,2.3139.5255,4.6877.5255,7.0927Z" style="fill:#c9b39b;"/><path d="M204.1079,221.5773c1.5108,3.4951-.6421,3.7413-1.2875,7.4939-.6454,3.7526-3.345,4.3126-1.2849,7.5149,1.6552,2.573,3.0701.0159,6.1295.0159s4.4359,2.5322,6.1101-.0285c2.0687-3.1639-.5915-3.7265-1.2129-7.4552s-2.8022-4.0008-1.2711-7.4569c1.9021-4.2933,4.6134-.0926,4.6134-7.1675,0-2.5701-1.0649-4.272-2.4145-5.3783-2.3656-1.939-2.5894-2.0521-5.6339-2.0703-3.0906-.0185-3.3358.0852-5.7563,2.0083-1.3895,1.1039-2.4799,2.8252-2.4799,5.4403,0,7.1706,2.6443,2.8184,4.4879,7.0835Z" style="fill:#683523;"/><path d="M186.6146,178.2973c-.3124-3.6829-.2355-3.2308.4788-7.3639.3817-2.2086,1.0682-4.663,2.2068-7.0332,1.0255-2.1347,2.3914-4.2235,4.3277-5.9426,1.7011-1.5103,3.8308-2.7226,6.4389-3.5364,2.0947-.6536,4.507-1.0511,7.2977-1.0511,2.781,0,5.195.3482,7.2751.9965,2.6016.8109,4.7103,2.0587,6.3922,3.5671,1.918,1.7202,3.3059,3.7938,4.3015,5.9314,1.1043,2.3711,1.7151,4.8497,2.0629,7.0572.6486,4.1162.6999,3.6745.3346,7.3328" style="fill:none; stroke:#c9b39b; stroke-miterlimit:10; stroke-width:13px;"/><line x1="3.7423" y1="440.717" x2="92.2063" y2="370.1284" style="fill:none; stroke:#2f3061; stroke-miterlimit:10; stroke-width:12px;"/></svg>