<?xml version="1.0" encoding="UTF-8"?><svg id="a" xmlns="http://www.w3.org/2000/svg" viewBox="0 0 287.8567 288.0566"><circle cx="143.9284" cy="143.9284" r="132.4284" style="fill:#e0d4ca; stroke:#683523; stroke-miterlimit:10; stroke-width:23px;"/><g style="opacity:.9;"><path d="M99.4827,244.9547c1.5686,3.7462,4.4164,11.1167,4.4164,11.1167.3965,1.0261,1.6115,1.9946,2.7002,2.1522l2.6287.3852c1.0875.1651,2.873.3885,3.9677.4965,0,0,22.5481,2.2248,34.9149,1.7955,4.4346-.154,8.8641-.4835,13.2704-1.0097.3008-.0392.7149-.0942.9715-.1343.9782-.1528,1.9561-.3085,2.9316-.4783,2.1955-.3816,4.3812-.8167,6.5559-1.302,1.0415-.2325,2.079-.4789,3.1132-.7359.4503-.1189.9005-.2394,1.3504-.3508,2.3908-.6201,5.2008-1.4676,5.2008-1.4676,1.0531-.3177,2.1902-1.4344,2.5269-2.4816,0,0,4.7876-14.8936,6.6071-20.9617,2.1415-7.1422,10.3712-35.7706,2.9631-58.2066-6.1239-18.547-26.7364-23.2082-33.6982-24.2669-1.3354-.2031-1.5865-.8408-1.5865-.8408-.403-1.0235-.7327-2.761-.7327-3.861v-18.0204c0-1.1.0363-2.3464.0808-2.7699l.1603-.3536c.8412-1.8557,10.156-3.9693,10.156-7.8984,0-4.2863-4.703-8.0269-25.3896-8.0269-8.9175,0-15.2774,1.3078-19.5646,2.7365-3.1903,1.0631-3.6279,5.4085-.7116,7.0834,3.2662,1.876,5.3987,5.0324,5.3987,5.0324.6158.9115,1.1196,2.5572,1.1196,3.6572v18.4489c0,1.1-.3211,2.8408-.7136,3.8684,0,0-.2175.5694-1.5066.8164-7.4274,1.4227-31.1814,7.5463-35.4554,28.2047-1.3608,6.5767-1.7799,13.5937-1.6643,20.3433.2771,16.1655,3.7443,32.1159,9.9888,47.0293Z" style="fill:#bc976f;"/><path d="M99.4827,244.9547c1.5686,3.7462,4.4164,11.1167,4.4164,11.1167.3965,1.0261,1.6115,1.9946,2.7002,2.1522l2.6287.3852c1.0875.1651,2.873.3885,3.9677.4965,0,0,22.5481,2.2248,34.9149,1.7955,4.4346-.154,8.8641-.4835,13.2704-1.0097.3008-.0392.7149-.0942.9715-.1343.9782-.1528,1.9561-.3085,2.9316-.4783,2.1955-.3816,4.3812-.8167,6.5559-1.302,1.0415-.2325,2.079-.4789,3.1132-.7359.4503-.1189.9005-.2394,1.3504-.3508,2.3908-.6201,5.2008-1.4676,5.2008-1.4676,1.0531-.3177,2.1902-1.4344,2.5269-2.4816,0,0,4.7876-14.8936,6.6071-20.9617,2.1415-7.1422,10.3712-35.7706,2.9631-58.2066-6.1239-18.547-26.7364-23.2082-33.6982-24.2669-1.3354-.2031-1.5865-.8408-1.5865-.8408-.403-1.0235-.7327-2.761-.7327-3.861v-18.0204c0-1.1.0363-2.3464.0808-2.7699l.1603-.3536c.8412-1.8557,10.156-3.9693,10.156-7.8984,0-4.2863-4.703-8.0269-25.3896-8.0269-8.9175,0-15.2774,1.3078-19.5646,2.7365-3.1903,1.0631-3.6279,5.4085-.7116,7.0834,3.2662,1.876,5.3987,5.0324,5.3987,5.0324.6158.9115,1.1196,2.5572,1.1196,3.6572v18.4489c0,1.1-.3211,2.8408-.7136,3.8684,0,0-.2175.5694-1.5066.8164-7.4274,1.4227-31.1814,7.5463-35.4554,28.2047-1.3608,6.5767-1.7799,13.5937-1.6643,20.3433.2771,16.1655,3.7443,32.1159,9.9888,47.0293Z" style="fill:none; stroke:#bc976f; stroke-miterlimit:10; stroke-width:9px;"/><path d="M131.3685,107.1694v-5.3973s-5.2386-.2646-5.2386-6.5086,8.3429-5.609,8.3429-5.609h20.6006c2.0098,0,3.9878.8727,5.1328,2.5245.5826.8406,1.0064,1.9237,1.0064,3.2961,0,4.392-4.0215,6.244-4.0215,6.244l-.2646,5.609-25.558-.1587Z" style="fill:#bc976f; stroke:#bc976f; stroke-miterlimit:10; stroke-width:9px;"/><path d="M177.3023,160.434s17.4608,6.4909,13.5074,45.7186" style="fill:#bc976f;"/><path d="M177.3023,160.4339c6.6286,1.4811,11.0026,7.8683,13.392,13.8378,3.803,10.1525,3.5053,21.6584.1155,31.881-1.1603-7.7075-1.4874-15.432-2.8665-23.0766-1.6884-8.2003-4.0281-16.9732-10.6411-22.6421h0Z" style="fill:#bc976f;"/><path d="M109.1454,160.1468s-17.4608,6.4909-13.5074,45.7186" style="fill:#bc976f;"/><path d="M109.1454,160.1468c-6.613,5.668-8.9527,14.4423-10.6414,22.642-1.3786,7.6458-1.7058,15.3673-2.8657,23.0767-3.3904-10.2214-3.6878-21.7294.115-31.8809,2.3888-5.969,6.7643-12.3582,13.3922-13.8379h0Z" style="fill:#bc976f;"/><path d="M130.6056,125.0036s4.1406,8.4536.4354,21.3125" style="fill:#bc976f;"/><path d="M130.6056,125.0037c6.0623,5.1302,5.8012,15.7955.4355,21.3125-1.4851-7.1656-1.0675-14.0098-.4355-21.3125h0Z" style="fill:#bc976f;"/><path d="M155.9564,125.1835s-4.1406,8.4536-.4354,21.3125" style="fill:#bc976f;"/><path d="M155.9565,125.1834c.6318,7.3011,1.0497,14.1486-.4351,21.3125-5.3661-5.5165-5.6272-16.1817.4351-21.3125h0Z" style="fill:#bc976f;"/><path d="M96.9297,223.5813s45.8992-3.7803,88.4051-.2084c-5.3579,7.1439-8.394,8.9298-8.394,8.9298l-80.0111-8.7215" style="fill:#bc976f; stroke:#bc976f; stroke-miterlimit:10;"/><path d="M148.1106,260.9008c4.4346-.154,8.8641-.4835,13.2704-1.0097.3008-.0392.7149-.0942.9715-.1343.9782-.1528,1.9561-.3085,2.9316-.4783,2.1955-.3816,4.3812-.8167,6.5559-1.302,1.0093-.2252,2.0145-.4648,3.0171-.7133.2628-.0693.5258-.1426.7884-.2101,5.0079-18.1347,10.2251-34.0075,10.2251-34.0075,0,0-25.45,9.912-45.8101.5358-20.3599-9.3762-43.1309,0-43.1309,0,6.6089,13.2885,11.3625,25.1342,14.79,35.3803,12.0971,1.2401,24.1968,2.3624,36.3909,1.9391Z" style="fill:#bc976f; stroke:#bc976f; stroke-miterlimit:10;"/><path d="M143.1071,185.0113c.1988-.0207.3432-.026.4332-.0159-.0757-.9075-.19-1.8268-.3428-2.7581-.4659-2.1651-.6977-6.3498-.0335-8.2643.2367-.6821.8446-1.057,1.4756-1.0652.6809-.0089,1.266.5174,1.4871,1.2336.7751,3.4318.1066,7.6715-.6385,11.1942,2.532-1.4507,4.8375-2.5729,7.4347-3.3623,1.154-.4487,2.3423-.764,3.6081-.6185.6858.0788,1.0585.7738,1.1445,1.3732.2818,1.9639-4.5778,3.0404-7.093,3.6021-1.5502.3462-3.0157.5972-4.6384.6579,2.6711,2.3335,5.0425,4.873,6.8393,7.9138.3759.6361.5416,1.3599.3381,2.046-.1489.5021-.67.7278-1.0096.8581-.545.209-1.0443-.0199-1.5122-.3455-2.6153-2.4031-4.4092-6.068-6.0376-9.3999-1.3091,3.0497-4.2216,8.3895-6.6368,9.6909-.6195.3338-1.2973-.1259-1.6513-.4924-1.3561-1.4041,1.673-4.8139,3.2633-6.6716,1.1243-1.3134,2.3163-2.4685,3.6526-3.5756-3.1572-.3311-10.0238-1.6257-11.4185-3.444-.4005-.5222-.2438-1.1576.0451-1.6742.2469-.4416.8339-.7949,1.4765-.6989l1.5153.2262c2.6154.7655,5.089,1.7705,7.4814,3.0492l.8175.5413Z" style="fill:#bc976f; stroke:#bc976f; stroke-miterlimit:10;"/><g style="opacity:.5;"><g style="opacity:.5;"><path d="M108.4567,160.724c-.0255-.0104-.027-.0305-.0034-.0447l1.9405-1.1674c.0236-.0142.0623-.0145.0861-.0007l1.8543,1.0735c.0238.0138.0233.0354-.0011.048l-1.764.9136c-.0244.0126-.0652.0145-.0907.0041l-2.0217-.8265Z" style="fill:#bc976f;"/><path d="M108.4567,160.724c-.0255-.0104-.027-.0305-.0034-.0447l1.9405-1.1674c.0236-.0142.0623-.0145.0861-.0007l1.8543,1.0735c.0238.0138.0233.0354-.0011.048l-1.764.9136c-.0244.0126-.0652.0145-.0907.0041l-2.0217-.8265Z" style="fill:none; stroke:#bc976f; stroke-miterlimit:10;"/></g><g style="opacity:.5;"><path d="M105.6799,163.5944c-.0181.0207-.0376.0157-.0434-.0112l-.4794-2.2133c-.0058-.0269.0064-.0637.0271-.0818l1.614-1.4092c.0207-.0181.041-.0106.0451.0166l.2961,1.9643c.0041.0272-.0073.0664-.0254.0872l-1.4341,1.6473Z" style="fill:#bc976f;"/><path d="M105.6799,163.5944c-.0181.0207-.0376.0157-.0434-.0112l-.4794-2.2133c-.0058-.0269.0064-.0637.0271-.0818l1.614-1.4092c.0207-.0181.041-.0106.0451.0166l.2961,1.9643c.0041.0272-.0073.0664-.0254.0872l-1.4341,1.6473Z" style="fill:none; stroke:#bc976f; stroke-miterlimit:10;"/></g><g style="opacity:.5;"><path d="M103.1152,167.8057c-.0275.0012-.0373-.0165-.0218-.0392l1.2758-1.871c.0155-.0227.0506-.0392.0779-.0366l2.1331.2011c.0274.0026.0359.0224.019.0441l-1.2213,1.5667c-.0169.0217-.0532.0404-.0807.0416l-2.1821.0933Z" style="fill:#bc976f;"/><path d="M103.1152,167.8057c-.0275.0012-.0373-.0165-.0218-.0392l1.2758-1.871c.0155-.0227.0506-.0392.0779-.0366l2.1331.2011c.0274.0026.0359.0224.019.0441l-1.2213,1.5667c-.0169.0217-.0532.0404-.0807.0416l-2.1821.0933Z" style="fill:none; stroke:#bc976f; stroke-miterlimit:10;"/></g><g style="opacity:.5;"><path d="M111.4045,164.2485c-.0255-.0104-.027-.0305-.0034-.0447l1.9405-1.1674c.0236-.0142.0623-.0145.0861-.0007l1.8543,1.0735c.0238.0138.0233.0354-.0011.048l-1.764.9136c-.0244.0126-.0652.0145-.0907.0041l-2.0217-.8265Z" style="fill:#bc976f;"/><path d="M111.4045,164.2485c-.0255-.0104-.027-.0305-.0034-.0447l1.9405-1.1674c.0236-.0142.0623-.0145.0861-.0007l1.8543,1.0735c.0238.0138.0233.0354-.0011.048l-1.764.9136c-.0244.0126-.0652.0145-.0907.0041l-2.0217-.8265Z" style="fill:none; stroke:#bc976f; stroke-miterlimit:10;"/></g><g style="opacity:.5;"><path d="M108.6276,167.1189c-.0181.0207-.0376.0157-.0434-.0112l-.4794-2.2133c-.0058-.0269.0064-.0637.0271-.0818l1.614-1.4092c.0207-.0181.041-.0106.0451.0166l.2961,1.9643c.0041.0272-.0073.0664-.0254.0872l-1.4341,1.6473Z" style="fill:#bc976f;"/><path d="M108.6276,167.1189c-.0181.0207-.0376.0157-.0434-.0112l-.4794-2.2133c-.0058-.0269.0064-.0637.0271-.0818l1.614-1.4092c.0207-.0181.041-.0106.0451.0166l.2961,1.9643c.0041.0272-.0073.0664-.0254.0872l-1.4341,1.6473Z" style="fill:none; stroke:#bc976f; stroke-miterlimit:10;"/></g><g style="opacity:.5;"><path d="M106.063,171.3302c-.0275.0012-.0373-.0165-.0218-.0392l1.2758-1.871c.0155-.0227.0506-.0392.0779-.0366l2.1331.2011c.0274.0026.0359.0224.019.0441l-1.2213,1.5667c-.0169.0217-.0532.0404-.0807.0416l-2.1821.0933Z" style="fill:#bc976f;"/><path d="M106.063,171.3302c-.0275.0012-.0373-.0165-.0218-.0392l1.2758-1.871c.0155-.0227.0506-.0392.0779-.0366l2.1331.2011c.0274.0026.0359.0224.019.0441l-1.2213,1.5667c-.0169.0217-.0532.0404-.0807.0416l-2.1821.0933Z" style="fill:none; stroke:#bc976f; stroke-miterlimit:10;"/></g><g style="opacity:.5;"><path d="M108.0398,177.835c-.0255-.0104-.027-.0305-.0034-.0447l1.9405-1.1674c.0236-.0142.0623-.0145.0861-.0007l1.8543,1.0735c.0238.0138.0233.0354-.0011.048l-1.764.9136c-.0244.0126-.0652.0145-.0907.0041l-2.0217-.8265Z" style="fill:#bc976f;"/><path d="M108.0398,177.835c-.0255-.0104-.027-.0305-.0034-.0447l1.9405-1.1674c.0236-.0142.0623-.0145.0861-.0007l1.8543,1.0735c.0238.0138.0233.0354-.0011.048l-1.764.9136c-.0244.0126-.0652.0145-.0907.0041l-2.0217-.8265Z" style="fill:none; stroke:#bc976f; stroke-miterlimit:10;"/></g><g style="opacity:.5;"><path d="M105.263,180.7053c-.0181.0207-.0376.0157-.0434-.0112l-.4794-2.2133c-.0058-.0269.0064-.0637.0271-.0818l1.614-1.4092c.0207-.0181.041-.0106.0451.0166l.2961,1.9643c.0041.0272-.0073.0664-.0254.0872l-1.4341,1.6473Z" style="fill:#bc976f;"/><path d="M105.263,180.7053c-.0181.0207-.0376.0157-.0434-.0112l-.4794-2.2133c-.0058-.0269.0064-.0637.0271-.0818l1.614-1.4092c.0207-.0181.041-.0106.0451.0166l.2961,1.9643c.0041.0272-.0073.0664-.0254.0872l-1.4341,1.6473Z" style="fill:none; stroke:#bc976f; stroke-miterlimit:10;"/></g><g style="opacity:.5;"><path d="M102.6984,184.9166c-.0275.0012-.0373-.0165-.0218-.0392l1.2758-1.871c.0155-.0227.0506-.0392.0779-.0366l2.1331.2011c.0274.0026.0359.0224.019.0441l-1.2213,1.5667c-.0169.0217-.0532.0404-.0807.0416l-2.1821.0933Z" style="fill:#bc976f;"/><path d="M102.6984,184.9166c-.0275.0012-.0373-.0165-.0218-.0392l1.2758-1.871c.0155-.0227.0506-.0392.0779-.0366l2.1331.2011c.0274.0026.0359.0224.019.0441l-1.2213,1.5667c-.0169.0217-.0532.0404-.0807.0416l-2.1821.0933Z" style="fill:none; stroke:#bc976f; stroke-miterlimit:10;"/></g><g style="opacity:.5;"><path d="M110.9876,181.3595c-.0255-.0104-.027-.0305-.0034-.0447l1.9405-1.1674c.0236-.0142.0623-.0145.0861-.0007l1.8543,1.0735c.0238.0138.0233.0354-.0011.048l-1.764.9136c-.0244.0126-.0652.0145-.0907.0041l-2.0217-.8265Z" style="fill:#bc976f;"/><path d="M110.9876,181.3595c-.0255-.0104-.027-.0305-.0034-.0447l1.9405-1.1674c.0236-.0142.0623-.0145.0861-.0007l1.8543,1.0735c.0238.0138.0233.0354-.0011.048l-1.764.9136c-.0244.0126-.0652.0145-.0907.0041l-2.0217-.8265Z" style="fill:none; stroke:#bc976f; stroke-miterlimit:10;"/></g><g style="opacity:.5;"><path d="M108.2108,184.2299c-.0181.0207-.0376.0157-.0434-.0112l-.4794-2.2133c-.0058-.0269.0064-.0637.0271-.0818l1.614-1.4092c.0207-.0181.041-.0106.0451.0166l.2961,1.9643c.0041.0272-.0073.0664-.0254.0872l-1.4341,1.6473Z" style="fill:#bc976f;"/><path d="M108.2108,184.2299c-.0181.0207-.0376.0157-.0434-.0112l-.4794-2.2133c-.0058-.0269.0064-.0637.0271-.0818l1.614-1.4092c.0207-.0181.041-.0106.0451.0166l.2961,1.9643c.0041.0272-.0073.0664-.0254.0872l-1.4341,1.6473Z" style="fill:none; stroke:#bc976f; stroke-miterlimit:10;"/></g><g style="opacity:.5;"><path d="M105.6461,188.4412c-.0275.0012-.0373-.0165-.0218-.0392l1.2758-1.871c.0155-.0227.0506-.0392.0779-.0366l2.1331.2011c.0274.0026.0359.0224.019.0441l-1.2213,1.5667c-.0169.0217-.0532.0404-.0807.0416l-2.1821.0933Z" style="fill:#bc976f;"/><path d="M105.6461,188.4412c-.0275.0012-.0373-.0165-.0218-.0392l1.2758-1.871c.0155-.0227.0506-.0392.0779-.0366l2.1331.2011c.0274.0026.0359.0224.019.0441l-1.2213,1.5667c-.0169.0217-.0532.0404-.0807.0416l-2.1821.0933Z" style="fill:none; stroke:#bc976f; stroke-miterlimit:10;"/></g><g style="opacity:.5;"><path d="M101.7722,170.6846c-.0255-.0104-.027-.0305-.0034-.0447l1.9405-1.1674c.0236-.0142.0623-.0145.0861-.0007l1.8543,1.0735c.0238.0138.0233.0354-.0011.048l-1.764.9136c-.0244.0126-.0652.0145-.0907.0041l-2.0217-.8265Z" style="fill:#bc976f;"/><path d="M101.7722,170.6846c-.0255-.0104-.027-.0305-.0034-.0447l1.9405-1.1674c.0236-.0142.0623-.0145.0861-.0007l1.8543,1.0735c.0238.0138.0233.0354-.0011.048l-1.764.9136c-.0244.0126-.0652.0145-.0907.0041l-2.0217-.8265Z" style="fill:none; stroke:#bc976f; stroke-miterlimit:10;"/></g><g style="opacity:.5;"><path d="M98.9954,173.555c-.0181.0207-.0376.0157-.0434-.0112l-.4794-2.2133c-.0058-.0269.0064-.0637.0271-.0818l1.614-1.4092c.0207-.0181.041-.0106.0451.0166l.2961,1.9643c.0041.0272-.0073.0664-.0254.0872l-1.4341,1.6473Z" style="fill:#bc976f;"/><path d="M98.9954,173.555c-.0181.0207-.0376.0157-.0434-.0112l-.4794-2.2133c-.0058-.0269.0064-.0637.0271-.0818l1.614-1.4092c.0207-.0181.041-.0106.0451.0166l.2961,1.9643c.0041.0272-.0073.0664-.0254.0872l-1.4341,1.6473Z" style="fill:none; stroke:#bc976f; stroke-miterlimit:10;"/></g><g style="opacity:.5;"><path d="M96.4307,177.7663c-.0275.0012-.0373-.0165-.0218-.0392l1.2758-1.871c.0155-.0227.0506-.0392.0779-.0366l2.1331.2011c.0274.0026.0359.0224.019.0441l-1.2213,1.5667c-.0169.0217-.0532.0404-.0807.0416l-2.1821.0933Z" style="fill:#bc976f;"/><path d="M96.4307,177.7663c-.0275.0012-.0373-.0165-.0218-.0392l1.2758-1.871c.0155-.0227.0506-.0392.0779-.0366l2.1331.2011c.0274.0026.0359.0224.019.0441l-1.2213,1.5667c-.0169.0217-.0532.0404-.0807.0416l-2.1821.0933Z" style="fill:none; stroke:#bc976f; stroke-miterlimit:10;"/></g><g style="opacity:.5;"><path d="M104.72,174.2092c-.0255-.0104-.027-.0305-.0034-.0447l1.9405-1.1674c.0236-.0142.0623-.0145.0861-.0007l1.8543,1.0735c.0238.0138.0233.0354-.0011.048l-1.764.9136c-.0244.0126-.0652.0145-.0907.0041l-2.0217-.8265Z" style="fill:#bc976f;"/><path d="M104.72,174.2092c-.0255-.0104-.027-.0305-.0034-.0447l1.9405-1.1674c.0236-.0142.0623-.0145.0861-.0007l1.8543,1.0735c.0238.0138.0233.0354-.0011.048l-1.764.9136c-.0244.0126-.0652.0145-.0907.0041l-2.0217-.8265Z" style="fill:none; stroke:#bc976f; stroke-miterlimit:10;"/></g><g style="opacity:.5;"><path d="M101.9431,177.0795c-.0181.0207-.0376.0157-.0434-.0112l-.4794-2.2133c-.0058-.0269.0064-.0637.0271-.0818l1.614-1.4092c.0207-.0181.041-.0106.0451.0166l.2961,1.9643c.0041.0272-.0073.0664-.0254.0872l-1.4341,1.6473Z" style="fill:#bc976f;"/><path d="M101.9431,177.0795c-.0181.0207-.0376.0157-.0434-.0112l-.4794-2.2133c-.0058-.0269.0064-.0637.0271-.0818l1.614-1.4092c.0207-.0181.041-.0106.0451.0166l.2961,1.9643c.0041.0272-.0073.0664-.0254.0872l-1.4341,1.6473Z" style="fill:none; stroke:#bc976f; stroke-miterlimit:10;"/></g><g style="opacity:.5;"><path d="M99.3785,181.2908c-.0275.0012-.0373-.0165-.0218-.0392l1.2758-1.871c.0155-.0227.0506-.0392.0779-.0366l2.1331.2011c.0274.0026.0359.0224.019.0441l-1.2213,1.5667c-.0169.0217-.0532.0404-.0807.0416l-2.1821.0933Z" style="fill:#bc976f;"/><path d="M99.3785,181.2908c-.0275.0012-.0373-.0165-.0218-.0392l1.2758-1.871c.0155-.0227.0506-.0392.0779-.0366l2.1331.2011c.0274.0026.0359.0224.019.0441l-1.2213,1.5667c-.0169.0217-.0532.0404-.0807.0416l-2.1821.0933Z" style="fill:none; stroke:#bc976f; stroke-miterlimit:10;"/></g><g style="opacity:.5;"><path d="M115.4309,167.4431c-.0255-.0104-.027-.0305-.0034-.0447l1.9405-1.1674c.0236-.0142.0623-.0145.0861-.0007l1.8543,1.0735c.0238.0138.0233.0354-.0011.048l-1.764.9136c-.0244.0126-.0652.0145-.0907.0041l-2.0217-.8265Z" style="fill:#bc976f;"/><path d="M115.4309,167.4431c-.0255-.0104-.027-.0305-.0034-.0447l1.9405-1.1674c.0236-.0142.0623-.0145.0861-.0007l1.8543,1.0735c.0238.0138.0233.0354-.0011.048l-1.764.9136c-.0244.0126-.0652.0145-.0907.0041l-2.0217-.8265Z" style="fill:none; stroke:#bc976f; stroke-miterlimit:10;"/></g><g style="opacity:.5;"><path d="M112.6541,170.3134c-.0181.0207-.0376.0157-.0434-.0112l-.4794-2.2133c-.0058-.0269.0064-.0637.0271-.0818l1.614-1.4092c.0207-.0181.041-.0106.0451.0166l.2961,1.9643c.0041.0272-.0073.0664-.0254.0872l-1.4341,1.6473Z" style="fill:#bc976f;"/><path d="M112.6541,170.3134c-.0181.0207-.0376.0157-.0434-.0112l-.4794-2.2133c-.0058-.0269.0064-.0637.0271-.0818l1.614-1.4092c.0207-.0181.041-.0106.0451.0166l.2961,1.9643c.0041.0272-.0073.0664-.0254.0872l-1.4341,1.6473Z" style="fill:none; stroke:#bc976f; stroke-miterlimit:10;"/></g><g style="opacity:.5;"><path d="M110.0895,174.5247c-.0275.0012-.0373-.0165-.0218-.0392l1.2758-1.871c.0155-.0227.0506-.0392.0779-.0366l2.1331.2011c.0274.0026.0359.0224.019.0441l-1.2213,1.5667c-.0169.0217-.0532.0404-.0807.0416l-2.1821.0933Z" style="fill:#bc976f;"/><path d="M110.0895,174.5247c-.0275.0012-.0373-.0165-.0218-.0392l1.2758-1.871c.0155-.0227.0506-.0392.0779-.0366l2.1331.2011c.0274.0026.0359.0224.019.0441l-1.2213,1.5667c-.0169.0217-.0532.0404-.0807.0416l-2.1821.0933Z" style="fill:none; stroke:#bc976f; stroke-miterlimit:10;"/></g><g style="opacity:.5;"><path d="M118.3787,170.9676c-.0255-.0104-.027-.0305-.0034-.0447l1.9405-1.1674c.0236-.0142.0623-.0145.0861-.0007l1.8543,1.0735c.0238.0138.0233.0354-.0011.048l-1.764.9136c-.0244.0126-.0652.0145-.0907.0041l-2.0217-.8265Z" style="fill:#bc976f;"/><path d="M118.3787,170.9676c-.0255-.0104-.027-.0305-.0034-.0447l1.9405-1.1674c.0236-.0142.0623-.0145.0861-.0007l1.8543,1.0735c.0238.0138.0233.0354-.0011.048l-1.764.9136c-.0244.0126-.0652.0145-.0907.0041l-2.0217-.8265Z" style="fill:none; stroke:#bc976f; stroke-miterlimit:10;"/></g><g style="opacity:.5;"><path d="M115.6019,173.838c-.0181.0207-.0376.0157-.0434-.0112l-.4794-2.2133c-.0058-.0269.0064-.0637.0271-.0818l1.614-1.4092c.0207-.0181.041-.0106.0451.0166l.2961,1.9643c.0041.0272-.0073.0664-.0254.0872l-1.4341,1.6473Z" style="fill:#bc976f;"/><path d="M115.6019,173.838c-.0181.0207-.0376.0157-.0434-.0112l-.4794-2.2133c-.0058-.0269.0064-.0637.0271-.0818l1.614-1.4092c.0207-.0181.041-.0106.0451.0166l.2961,1.9643c.0041.0272-.0073.0664-.0254.0872l-1.4341,1.6473Z" style="fill:none; stroke:#bc976f; stroke-miterlimit:10;"/></g><g style="opacity:.5;"><path d="M113.0372,178.0493c-.0275.0012-.0373-.0165-.0218-.0392l1.2758-1.871c.0155-.0227.0506-.0392.0779-.0366l2.1331.2011c.0274.0026.0359.0224.019.0441l-1.2213,1.5667c-.0169.0217-.0532.0404-.0807.0416l-2.1821.0933Z" style="fill:#bc976f;"/><path d="M113.0372,178.0493c-.0275.0012-.0373-.0165-.0218-.0392l1.2758-1.871c.0155-.0227.0506-.0392.0779-.0366l2.1331.2011c.0274.0026.0359.0224.019.0441l-1.2213,1.5667c-.0169.0217-.0532.0404-.0807.0416l-2.1821.0933Z" style="fill:none; stroke:#bc976f; stroke-miterlimit:10;"/></g><g style="opacity:.5;"><path d="M96.1626,163.8512c-.0255-.0104-.027-.0305-.0034-.0447l1.9405-1.1674c.0236-.0142.0623-.0145.0861-.0007l1.8543,1.0735c.0238.0138.0233.0354-.0011.048l-1.764.9136c-.0244.0126-.0652.0145-.0907.0041l-2.0217-.8265Z" style="fill:#bc976f;"/><path d="M96.1626,163.8512c-.0255-.0104-.027-.0305-.0034-.0447l1.9405-1.1674c.0236-.0142.0623-.0145.0861-.0007l1.8543,1.0735c.0238.0138.0233.0354-.0011.048l-1.764.9136c-.0244.0126-.0652.0145-.0907.0041l-2.0217-.8265Z" style="fill:none; stroke:#bc976f; stroke-miterlimit:10;"/></g><g style="opacity:.5;"><path d="M93.3857,166.7216c-.0181.0207-.0376.0157-.0434-.0112l-.4794-2.2133c-.0058-.0269.0064-.0637.0271-.0818l1.614-1.4092c.0207-.0181.041-.0106.0451.0166l.2961,1.9643c.0041.0272-.0073.0664-.0254.0872l-1.4341,1.6473Z" style="fill:#bc976f;"/><path d="M93.3857,166.7216c-.0181.0207-.0376.0157-.0434-.0112l-.4794-2.2133c-.0058-.0269.0064-.0637.0271-.0818l1.614-1.4092c.0207-.0181.041-.0106.0451.0166l.2961,1.9643c.0041.0272-.0073.0664-.0254.0872l-1.4341,1.6473Z" style="fill:none; stroke:#bc976f; stroke-miterlimit:10;"/></g><g style="opacity:.5;"><path d="M90.8211,170.9329c-.0275.0012-.0373-.0165-.0218-.0392l1.2758-1.871c.0155-.0227.0506-.0392.0779-.0366l2.1331.2011c.0274.0026.0359.0224.019.0441l-1.2213,1.5667c-.0169.0217-.0532.0404-.0807.0416l-2.1821.0933Z" style="fill:#bc976f;"/><path d="M90.8211,170.9329c-.0275.0012-.0373-.0165-.0218-.0392l1.2758-1.871c.0155-.0227.0506-.0392.0779-.0366l2.1331.2011c.0274.0026.0359.0224.019.0441l-1.2213,1.5667c-.0169.0217-.0532.0404-.0807.0416l-2.1821.0933Z" style="fill:none; stroke:#bc976f; stroke-miterlimit:10;"/></g><g style="opacity:.5;"><path d="M99.1103,167.3758c-.0255-.0104-.027-.0305-.0034-.0447l1.9405-1.1674c.0236-.0142.0623-.0145.0861-.0007l1.8543,1.0735c.0238.0138.0233.0354-.0011.048l-1.764.9136c-.0244.0126-.0652.0145-.0907.0041l-2.0217-.8265Z" style="fill:#bc976f;"/><path d="M99.1103,167.3758c-.0255-.0104-.027-.0305-.0034-.0447l1.9405-1.1674c.0236-.0142.0623-.0145.0861-.0007l1.8543,1.0735c.0238.0138.0233.0354-.0011.048l-1.764.9136c-.0244.0126-.0652.0145-.0907.0041l-2.0217-.8265Z" style="fill:none; stroke:#bc976f; stroke-miterlimit:10;"/></g><g style="opacity:.5;"><path d="M96.3335,170.2461c-.0181.0207-.0376.0157-.0434-.0112l-.4794-2.2133c-.0058-.0269.0064-.0637.0271-.0818l1.614-1.4092c.0207-.0181.041-.0106.0451.0166l.2961,1.9643c.0041.0272-.0073.0664-.0254.0872l-1.4341,1.6473Z" style="fill:#bc976f;"/><path d="M96.3335,170.2461c-.0181.0207-.0376.0157-.0434-.0112l-.4794-2.2133c-.0058-.0269.0064-.0637.0271-.0818l1.614-1.4092c.0207-.0181.041-.0106.0451.0166l.2961,1.9643c.0041.0272-.0073.0664-.0254.0872l-1.4341,1.6473Z" style="fill:none; stroke:#bc976f; stroke-miterlimit:10;"/></g><g style="opacity:.5;"><path d="M93.7688,174.4574c-.0275.0012-.0373-.0165-.0218-.0392l1.2758-1.871c.0155-.0227.0506-.0392.0779-.0366l2.1331.2011c.0274.0026.0359.0224.019.0441l-1.2213,1.5667c-.0169.0217-.0532.0404-.0807.0416l-2.1821.0933Z" style="fill:#bc976f;"/><path d="M93.7688,174.4574c-.0275.0012-.0373-.0165-.0218-.0392l1.2758-1.871c.0155-.0227.0506-.0392.0779-.0366l2.1331.2011c.0274.0026.0359.0224.019.0441l-1.2213,1.5667c-.0169.0217-.0532.0404-.0807.0416l-2.1821.0933Z" style="fill:none; stroke:#bc976f; stroke-miterlimit:10;"/></g><g style="opacity:.5;"><path d="M97.5542,160.224c-.0275.0012-.0373-.0165-.0218-.0392l1.2758-1.871c.0155-.0227.0506-.0392.0779-.0366l2.1331.2011c.0274.0026.0359.0224.019.0441l-1.2213,1.5667c-.0169.0217-.0532.0404-.0807.0416l-2.1821.0933Z" style="fill:#bc976f;"/><path d="M97.5542,160.224c-.0275.0012-.0373-.0165-.0218-.0392l1.2758-1.871c.0155-.0227.0506-.0392.0779-.0366l2.1331.2011c.0274.0026.0359.0224.019.0441l-1.2213,1.5667c-.0169.0217-.0532.0404-.0807.0416l-2.1821.0933Z" style="fill:none; stroke:#bc976f; stroke-miterlimit:10;"/></g><g style="opacity:.5;"><path d="M105.8435,156.6669c-.0255-.0104-.027-.0305-.0034-.0447l1.9405-1.1674c.0236-.0142.0623-.0145.0861-.0007l1.8543,1.0735c.0238.0138.0233.0354-.0011.048l-1.764.9136c-.0244.0126-.0652.0145-.0907.0041l-2.0217-.8265Z" style="fill:#bc976f;"/><path d="M105.8435,156.6669c-.0255-.0104-.027-.0305-.0034-.0447l1.9405-1.1674c.0236-.0142.0623-.0145.0861-.0007l1.8543,1.0735c.0238.0138.0233.0354-.0011.048l-1.764.9136c-.0244.0126-.0652.0145-.0907.0041l-2.0217-.8265Z" style="fill:none; stroke:#bc976f; stroke-miterlimit:10;"/></g><g style="opacity:.5;"><path d="M103.0666,159.5372c-.0181.0207-.0376.0157-.0434-.0112l-.4794-2.2133c-.0058-.0269.0064-.0637.0271-.0818l1.614-1.4092c.0207-.0181.041-.0106.0451.0166l.2961,1.9643c.0041.0272-.0073.0664-.0254.0872l-1.4341,1.6473Z" style="fill:#bc976f;"/><path d="M103.0666,159.5372c-.0181.0207-.0376.0157-.0434-.0112l-.4794-2.2133c-.0058-.0269.0064-.0637.0271-.0818l1.614-1.4092c.0207-.0181.041-.0106.0451.0166l.2961,1.9643c.0041.0272-.0073.0664-.0254.0872l-1.4341,1.6473Z" style="fill:none; stroke:#bc976f; stroke-miterlimit:10;"/></g><g style="opacity:.5;"><path d="M100.502,163.7486c-.0275.0012-.0373-.0165-.0218-.0392l1.2758-1.871c.0155-.0227.0506-.0392.0779-.0366l2.1331.2011c.0274.0026.0359.0224.019.0441l-1.2213,1.5667c-.0169.0217-.0532.0404-.0807.0416l-2.1821.0933Z" style="fill:#bc976f;"/><path d="M100.502,163.7486c-.0275.0012-.0373-.0165-.0218-.0392l1.2758-1.871c.0155-.0227.0506-.0392.0779-.0366l2.1331.2011c.0274.0026.0359.0224.019.0441l-1.2213,1.5667c-.0169.0217-.0532.0404-.0807.0416l-2.1821.0933Z" style="fill:none; stroke:#bc976f; stroke-miterlimit:10;"/></g><g style="opacity:.5;"><path d="M88.1697,174.3274c-.0255-.0104-.027-.0305-.0034-.0447l1.9405-1.1674c.0236-.0142.0623-.0145.0861-.0007l1.8543,1.0735c.0238.0138.0233.0354-.0011.048l-1.764.9136c-.0244.0126-.0652.0145-.0907.0041l-2.0217-.8265Z" style="fill:#bc976f;"/><path d="M88.1697,174.3274c-.0255-.0104-.027-.0305-.0034-.0447l1.9405-1.1674c.0236-.0142.0623-.0145.0861-.0007l1.8543,1.0735c.0238.0138.0233.0354-.0011.048l-1.764.9136c-.0244.0126-.0652.0145-.0907.0041l-2.0217-.8265Z" style="fill:none; stroke:#bc976f; stroke-miterlimit:10;"/></g><g style="opacity:.5;"><path d="M91.1174,177.8519c-.0255-.0104-.027-.0305-.0034-.0447l1.9405-1.1674c.0236-.0142.0623-.0145.0861-.0007l1.8543,1.0735c.0238.0138.0233.0354-.0011.048l-1.764.9136c-.0244.0126-.0652.0145-.0907.0041l-2.0217-.8265Z" style="fill:#bc976f;"/><path d="M91.1174,177.8519c-.0255-.0104-.027-.0305-.0034-.0447l1.9405-1.1674c.0236-.0142.0623-.0145.0861-.0007l1.8543,1.0735c.0238.0138.0233.0354-.0011.048l-1.764.9136c-.0244.0126-.0652.0145-.0907.0041l-2.0217-.8265Z" style="fill:none; stroke:#bc976f; stroke-miterlimit:10;"/></g><g style="opacity:.5;"><path d="M88.3406,180.7222c-.0181.0207-.0376.0157-.0434-.0112l-.4794-2.2133c-.0058-.0269.0064-.0637.0271-.0818l1.614-1.4092c.0207-.0181.041-.0106.0451.0166l.2961,1.9643c.0041.0272-.0073.0664-.0254.0872l-1.4341,1.6473Z" style="fill:#bc976f;"/><path d="M88.3406,180.7222c-.0181.0207-.0376.0157-.0434-.0112l-.4794-2.2133c-.0058-.0269.0064-.0637.0271-.0818l1.614-1.4092c.0207-.0181.041-.0106.0451.0166l.2961,1.9643c.0041.0272-.0073.0664-.0254.0872l-1.4341,1.6473Z" style="fill:none; stroke:#bc976f; stroke-miterlimit:10;"/></g><g style="opacity:.5;"><path d="M85.7759,184.9336c-.0275.0012-.0373-.0165-.0218-.0392l1.2758-1.871c.0155-.0227.0506-.0392.0779-.0366l2.1331.2011c.0274.0026.0359.0224.019.0441l-1.2213,1.5667c-.0169.0217-.0532.0404-.0807.0416l-2.1821.0933Z" style="fill:#bc976f;"/><path d="M85.7759,184.9336c-.0275.0012-.0373-.0165-.0218-.0392l1.2758-1.871c.0155-.0227.0506-.0392.0779-.0366l2.1331.2011c.0274.0026.0359.0224.019.0441l-1.2213,1.5667c-.0169.0217-.0532.0404-.0807.0416l-2.1821.0933Z" style="fill:none; stroke:#bc976f; stroke-miterlimit:10;"/></g><g style="opacity:.5;"><path d="M94.2798,181.4487c-.0255-.0104-.027-.0305-.0034-.0447l1.9405-1.1674c.0236-.0142.0623-.0145.0861-.0007l1.8543,1.0735c.0238.0138.0233.0354-.0011.048l-1.764.9136c-.0244.0126-.0652.0145-.0907.0041l-2.0217-.8265Z" style="fill:#bc976f;"/><path d="M94.2798,181.4487c-.0255-.0104-.027-.0305-.0034-.0447l1.9405-1.1674c.0236-.0142.0623-.0145.0861-.0007l1.8543,1.0735c.0238.0138.0233.0354-.0011.048l-1.764.9136c-.0244.0126-.0652.0145-.0907.0041l-2.0217-.8265Z" style="fill:none; stroke:#bc976f; stroke-miterlimit:10;"/></g><g style="opacity:.5;"><path d="M91.503,184.319c-.0181.0207-.0376.0157-.0434-.0112l-.4794-2.2133c-.0058-.0269.0064-.0637.0271-.0818l1.614-1.4092c.0207-.0181.041-.0106.0451.0166l.2961,1.9643c.0041.0272-.0073.0664-.0254.0872l-1.4341,1.6473Z" style="fill:#bc976f;"/><path d="M91.503,184.319c-.0181.0207-.0376.0157-.0434-.0112l-.4794-2.2133c-.0058-.0269.0064-.0637.0271-.0818l1.614-1.4092c.0207-.0181.041-.0106.0451.0166l.2961,1.9643c.0041.0272-.0073.0664-.0254.0872l-1.4341,1.6473Z" style="fill:none; stroke:#bc976f; stroke-miterlimit:10;"/></g><g style="opacity:.5;"><path d="M88.9383,188.5303c-.0275.0012-.0373-.0165-.0218-.0392l1.2758-1.871c.0155-.0227.0506-.0392.0779-.0366l2.1331.2011c.0274.0026.0359.0224.019.0441l-1.2213,1.5667c-.0169.0217-.0532.0404-.0807.0416l-2.1821.0933Z" style="fill:#bc976f;"/><path d="M88.9383,188.5303c-.0275.0012-.0373-.0165-.0218-.0392l1.2758-1.871c.0155-.0227.0506-.0392.0779-.0366l2.1331.2011c.0274.0026.0359.0224.019.0441l-1.2213,1.5667c-.0169.0217-.0532.0404-.0807.0416l-2.1821.0933Z" style="fill:none; stroke:#bc976f; stroke-miterlimit:10;"/></g><g style="opacity:.5;"><path d="M97.2276,184.9732c-.0255-.0104-.027-.0305-.0034-.0447l1.9405-1.1674c.0236-.0142.0623-.0145.0861-.0007l1.8543,1.0735c.0238.0138.0233.0354-.0011.048l-1.764.9136c-.0244.0126-.0652.0145-.0907.0041l-2.0217-.8265Z" style="fill:#bc976f;"/><path d="M97.2276,184.9732c-.0255-.0104-.027-.0305-.0034-.0447l1.9405-1.1674c.0236-.0142.0623-.0145.0861-.0007l1.8543,1.0735c.0238.0138.0233.0354-.0011.048l-1.764.9136c-.0244.0126-.0652.0145-.0907.0041l-2.0217-.8265Z" style="fill:none; stroke:#bc976f; stroke-miterlimit:10;"/></g><g style="opacity:.5;"><path d="M94.4507,187.8435c-.0181.0207-.0376.0157-.0434-.0112l-.4794-2.2133c-.0058-.0269.0064-.0637.0271-.0818l1.614-1.4092c.0207-.0181.041-.0106.0451.0166l.2961,1.9643c.0041.0272-.0073.0664-.0254.0872l-1.4341,1.6473Z" style="fill:#bc976f;"/><path d="M94.4507,187.8435c-.0181.0207-.0376.0157-.0434-.0112l-.4794-2.2133c-.0058-.0269.0064-.0637.0271-.0818l1.614-1.4092c.0207-.0181.041-.0106.0451.0166l.2961,1.9643c.0041.0272-.0073.0664-.0254.0872l-1.4341,1.6473Z" style="fill:none; stroke:#bc976f; stroke-miterlimit:10;"/></g><g style="opacity:.5;"><path d="M91.8861,192.0548c-.0275.0012-.0373-.0165-.0218-.0392l1.2758-1.871c.0155-.0227.0506-.0392.0779-.0366l2.1331.2011c.0274.0026.0359.0224.019.0441l-1.2213,1.5667c-.0169.0217-.0532.0404-.0807.0416l-2.1821.0933Z" style="fill:#bc976f;"/><path d="M91.8861,192.0548c-.0275.0012-.0373-.0165-.0218-.0392l1.2758-1.871c.0155-.0227.0506-.0392.0779-.0366l2.1331.2011c.0274.0026.0359.0224.019.0441l-1.2213,1.5667c-.0169.0217-.0532.0404-.0807.0416l-2.1821.0933Z" style="fill:none; stroke:#bc976f; stroke-miterlimit:10;"/></g><g style="opacity:.5;"><path d="M100.4331,188.5127c-.0255-.0104-.027-.0305-.0034-.0447l1.9405-1.1674c.0236-.0142.0623-.0145.0861-.0007l1.8543,1.0735c.0238.0138.0233.0354-.0011.048l-1.764.9136c-.0244.0126-.0652.0145-.0907.0041l-2.0217-.8265Z" style="fill:#bc976f;"/><path d="M100.4331,188.5127c-.0255-.0104-.027-.0305-.0034-.0447l1.9405-1.1674c.0236-.0142.0623-.0145.0861-.0007l1.8543,1.0735c.0238.0138.0233.0354-.0011.048l-1.764.9136c-.0244.0126-.0652.0145-.0907.0041l-2.0217-.8265Z" style="fill:none; stroke:#bc976f; stroke-miterlimit:10;"/></g><g style="opacity:.5;"><path d="M97.6563,191.3831c-.0181.0207-.0376.0157-.0434-.0112l-.4794-2.2133c-.0058-.0269.0064-.0637.0271-.0818l1.614-1.4092c.0207-.0181.041-.0106.0451.0166l.2961,1.9643c.0041.0272-.0073.0664-.0254.0872l-1.4341,1.6473Z" style="fill:#bc976f;"/><path d="M97.6563,191.3831c-.0181.0207-.0376.0157-.0434-.0112l-.4794-2.2133c-.0058-.0269.0064-.0637.0271-.0818l1.614-1.4092c.0207-.0181.041-.0106.0451.0166l.2961,1.9643c.0041.0272-.0073.0664-.0254.0872l-1.4341,1.6473Z" style="fill:none; stroke:#bc976f; stroke-miterlimit:10;"/></g><g style="opacity:.5;"><path d="M95.0916,195.5944c-.0275.0012-.0373-.0165-.0218-.0392l1.2758-1.871c.0155-.0227.0506-.0392.0779-.0366l2.1331.2011c.0274.0026.0359.0224.019.0441l-1.2213,1.5667c-.0169.0217-.0532.0404-.0807.0416l-2.1821.0933Z" style="fill:#bc976f;"/><path d="M95.0916,195.5944c-.0275.0012-.0373-.0165-.0218-.0392l1.2758-1.871c.0155-.0227.0506-.0392.0779-.0366l2.1331.2011c.0274.0026.0359.0224.019.0441l-1.2213,1.5667c-.0169.0217-.0532.0404-.0807.0416l-2.1821.0933Z" style="fill:none; stroke:#bc976f; stroke-miterlimit:10;"/></g><g style="opacity:.5;"><path d="M103.3808,192.0373c-.0255-.0104-.027-.0305-.0034-.0447l1.9405-1.1674c.0236-.0142.0623-.0145.0861-.0007l1.8543,1.0735c.0238.0138.0233.0354-.0011.048l-1.764.9136c-.0244.0126-.0652.0145-.0907.0041l-2.0217-.8265Z" style="fill:#bc976f;"/><path d="M103.3808,192.0373c-.0255-.0104-.027-.0305-.0034-.0447l1.9405-1.1674c.0236-.0142.0623-.0145.0861-.0007l1.8543,1.0735c.0238.0138.0233.0354-.0011.048l-1.764.9136c-.0244.0126-.0652.0145-.0907.0041l-2.0217-.8265Z" style="fill:none; stroke:#bc976f; stroke-miterlimit:10;"/></g><g style="opacity:.5;"><path d="M100.604,194.9076c-.0181.0207-.0376.0157-.0434-.0112l-.4794-2.2133c-.0058-.0269.0064-.0637.0271-.0818l1.614-1.4092c.0207-.0181.041-.0106.0451.0166l.2961,1.9643c.0041.0272-.0073.0664-.0254.0872l-1.4341,1.6473Z" style="fill:#bc976f;"/><path d="M100.604,194.9076c-.0181.0207-.0376.0157-.0434-.0112l-.4794-2.2133c-.0058-.0269.0064-.0637.0271-.0818l1.614-1.4092c.0207-.0181.041-.0106.0451.0166l.2961,1.9643c.0041.0272-.0073.0664-.0254.0872l-1.4341,1.6473Z" style="fill:none; stroke:#bc976f; stroke-miterlimit:10;"/></g><g style="opacity:.5;"><path d="M133.006,133.8826c-.0255-.0104-.027-.0305-.0034-.0447l1.9405-1.1674c.0236-.0142.0623-.0145.0861-.0007l1.8543,1.0735c.0238.0138.0233.0354-.0011.048l-1.764.9136c-.0244.0126-.0652.0145-.0907.0041l-2.0217-.8265Z" style="fill:#bc976f;"/><path d="M133.006,133.8826c-.0255-.0104-.027-.0305-.0034-.0447l1.9405-1.1674c.0236-.0142.0623-.0145.0861-.0007l1.8543,1.0735c.0238.0138.0233.0354-.0011.048l-1.764.9136c-.0244.0126-.0652.0145-.0907.0041l-2.0217-.8265Z" style="fill:none; stroke:#bc976f; stroke-miterlimit:10;"/></g><g style="opacity:.5;"><path d="M130.2292,136.753c-.0181.0207-.0376.0157-.0434-.0112l-.4794-2.2133c-.0058-.0269.0064-.0637.0271-.0818l1.614-1.4092c.0207-.0181.041-.0106.0451.0166l.2961,1.9643c.0041.0272-.0073.0664-.0254.0872l-1.4341,1.6473Z" style="fill:#bc976f;"/><path d="M130.2292,136.753c-.0181.0207-.0376.0157-.0434-.0112l-.4794-2.2133c-.0058-.0269.0064-.0637.0271-.0818l1.614-1.4092c.0207-.0181.041-.0106.0451.0166l.2961,1.9643c.0041.0272-.0073.0664-.0254.0872l-1.4341,1.6473Z" style="fill:none; stroke:#bc976f; stroke-miterlimit:10;"/></g><g style="opacity:.5;"><path d="M127.6646,140.9643c-.0275.0012-.0373-.0165-.0218-.0392l1.2758-1.871c.0155-.0227.0506-.0392.0779-.0366l2.1331.2011c.0274.0026.0359.0224.019.0441l-1.2213,1.5667c-.0169.0217-.0532.0404-.0807.0416l-2.1821.0933Z" style="fill:#bc976f;"/><path d="M127.6646,140.9643c-.0275.0012-.0373-.0165-.0218-.0392l1.2758-1.871c.0155-.0227.0506-.0392.0779-.0366l2.1331.2011c.0274.0026.0359.0224.019.0441l-1.2213,1.5667c-.0169.0217-.0532.0404-.0807.0416l-2.1821.0933Z" style="fill:none; stroke:#bc976f; stroke-miterlimit:10;"/></g><g style="opacity:.5;"><path d="M135.9538,137.4071c-.0255-.0104-.027-.0305-.0034-.0447l1.9405-1.1674c.0236-.0142.0623-.0145.0861-.0007l1.8543,1.0735c.0238.0138.0233.0354-.0011.048l-1.764.9136c-.0244.0126-.0652.0145-.0907.0041l-2.0217-.8265Z" style="fill:#bc976f;"/><path d="M135.9538,137.4071c-.0255-.0104-.027-.0305-.0034-.0447l1.9405-1.1674c.0236-.0142.0623-.0145.0861-.0007l1.8543,1.0735c.0238.0138.0233.0354-.0011.048l-1.764.9136c-.0244.0126-.0652.0145-.0907.0041l-2.0217-.8265Z" style="fill:none; stroke:#bc976f; stroke-miterlimit:10;"/></g><g style="opacity:.5;"><path d="M133.177,140.2775c-.0181.0207-.0376.0157-.0434-.0112l-.4794-2.2133c-.0058-.0269.0064-.0637.0271-.0818l1.614-1.4092c.0207-.0181.041-.0106.0451.0166l.2961,1.9643c.0041.0272-.0073.0664-.0254.0872l-1.4341,1.6473Z" style="fill:#bc976f;"/><path d="M133.177,140.2775c-.0181.0207-.0376.0157-.0434-.0112l-.4794-2.2133c-.0058-.0269.0064-.0637.0271-.0818l1.614-1.4092c.0207-.0181.041-.0106.0451.0166l.2961,1.9643c.0041.0272-.0073.0664-.0254.0872l-1.4341,1.6473Z" style="fill:none; stroke:#bc976f; stroke-miterlimit:10;"/></g><g style="opacity:.5;"><path d="M130.6123,144.4888c-.0275.0012-.0373-.0165-.0218-.0392l1.2758-1.871c.0155-.0227.0506-.0392.0779-.0366l2.1331.2011c.0274.0026.0359.0224.019.0441l-1.2213,1.5667c-.0169.0217-.0532.0404-.0807.0416l-2.1821.0933Z" style="fill:#bc976f;"/><path d="M130.6123,144.4888c-.0275.0012-.0373-.0165-.0218-.0392l1.2758-1.871c.0155-.0227.0506-.0392.0779-.0366l2.1331.2011c.0274.0026.0359.0224.019.0441l-1.2213,1.5667c-.0169.0217-.0532.0404-.0807.0416l-2.1821.0933Z" style="fill:none; stroke:#bc976f; stroke-miterlimit:10;"/></g><g style="opacity:.5;"><path d="M132.5891,150.9936c-.0255-.0104-.027-.0305-.0034-.0447l1.9405-1.1674c.0236-.0142.0623-.0145.0861-.0007l1.8543,1.0735c.0238.0138.0233.0354-.0011.048l-1.764.9136c-.0244.0126-.0652.0145-.0907.0041l-2.0217-.8265Z" style="fill:#bc976f;"/><path d="M132.5891,150.9936c-.0255-.0104-.027-.0305-.0034-.0447l1.9405-1.1674c.0236-.0142.0623-.0145.0861-.0007l1.8543,1.0735c.0238.0138.0233.0354-.0011.048l-1.764.9136c-.0244.0126-.0652.0145-.0907.0041l-2.0217-.8265Z" style="fill:none; stroke:#bc976f; stroke-miterlimit:10;"/></g><g style="opacity:.5;"><path d="M129.8123,153.8639c-.0181.0207-.0376.0157-.0434-.0112l-.4794-2.2133c-.0058-.0269.0064-.0637.0271-.0818l1.614-1.4092c.0207-.0181.041-.0106.0451.0166l.2961,1.9643c.0041.0272-.0073.0664-.0254.0872l-1.4341,1.6473Z" style="fill:#bc976f;"/><path d="M129.8123,153.8639c-.0181.0207-.0376.0157-.0434-.0112l-.4794-2.2133c-.0058-.0269.0064-.0637.0271-.0818l1.614-1.4092c.0207-.0181.041-.0106.0451.0166l.2961,1.9643c.0041.0272-.0073.0664-.0254.0872l-1.4341,1.6473Z" style="fill:none; stroke:#bc976f; stroke-miterlimit:10;"/></g><g style="opacity:.5;"><path d="M127.2477,158.0752c-.0275.0012-.0373-.0165-.0218-.0392l1.2758-1.871c.0155-.0227.0506-.0392.0779-.0366l2.1331.2011c.0274.0026.0359.0224.019.0441l-1.2213,1.5667c-.0169.0217-.0532.0404-.0807.0416l-2.1821.0933Z" style="fill:#bc976f;"/><path d="M127.2477,158.0752c-.0275.0012-.0373-.0165-.0218-.0392l1.2758-1.871c.0155-.0227.0506-.0392.0779-.0366l2.1331.2011c.0274.0026.0359.0224.019.0441l-1.2213,1.5667c-.0169.0217-.0532.0404-.0807.0416l-2.1821.0933Z" style="fill:none; stroke:#bc976f; stroke-miterlimit:10;"/></g><g style="opacity:.5;"><path d="M135.5369,154.5181c-.0255-.0104-.027-.0305-.0034-.0447l1.9405-1.1674c.0236-.0142.0623-.0145.0861-.0007l1.8543,1.0735c.0238.0138.0233.0354-.0011.048l-1.764.9136c-.0244.0126-.0652.0145-.0907.0041l-2.0217-.8265Z" style="fill:#bc976f;"/><path d="M135.5369,154.5181c-.0255-.0104-.027-.0305-.0034-.0447l1.9405-1.1674c.0236-.0142.0623-.0145.0861-.0007l1.8543,1.0735c.0238.0138.0233.0354-.0011.048l-1.764.9136c-.0244.0126-.0652.0145-.0907.0041l-2.0217-.8265Z" style="fill:none; stroke:#bc976f; stroke-miterlimit:10;"/></g><g style="opacity:.5;"><path d="M132.7601,157.3885c-.0181.0207-.0376.0157-.0434-.0112l-.4794-2.2133c-.0058-.0269.0064-.0637.0271-.0818l1.614-1.4092c.0207-.0181.041-.0106.0451.0166l.2961,1.9643c.0041.0272-.0073.0664-.0254.0872l-1.4341,1.6473Z" style="fill:#bc976f;"/><path d="M132.7601,157.3885c-.0181.0207-.0376.0157-.0434-.0112l-.4794-2.2133c-.0058-.0269.0064-.0637.0271-.0818l1.614-1.4092c.0207-.0181.041-.0106.0451.0166l.2961,1.9643c.0041.0272-.0073.0664-.0254.0872l-1.4341,1.6473Z" style="fill:none; stroke:#bc976f; stroke-miterlimit:10;"/></g><g style="opacity:.5;"><path d="M130.1954,161.5998c-.0275.0012-.0373-.0165-.0218-.0392l1.2758-1.871c.0155-.0227.0506-.0392.0779-.0366l2.1331.2011c.0274.0026.0359.0224.019.0441l-1.2213,1.5667c-.0169.0217-.0532.0404-.0807.0416l-2.1821.0933Z" style="fill:#bc976f;"/><path d="M130.1954,161.5998c-.0275.0012-.0373-.0165-.0218-.0392l1.2758-1.871c.0155-.0227.0506-.0392.0779-.0366l2.1331.2011c.0274.0026.0359.0224.019.0441l-1.2213,1.5667c-.0169.0217-.0532.0404-.0807.0416l-2.1821.0933Z" style="fill:none; stroke:#bc976f; stroke-miterlimit:10;"/></g><g style="opacity:.5;"><path d="M126.3215,143.8432c-.0255-.0104-.027-.0305-.0034-.0447l1.9405-1.1674c.0236-.0142.0623-.0145.0861-.0007l1.8543,1.0735c.0238.0138.0233.0354-.0011.048l-1.764.9136c-.0244.0126-.0652.0145-.0907.0041l-2.0217-.8265Z" style="fill:#bc976f;"/><path d="M126.3215,143.8432c-.0255-.0104-.027-.0305-.0034-.0447l1.9405-1.1674c.0236-.0142.0623-.0145.0861-.0007l1.8543,1.0735c.0238.0138.0233.0354-.0011.048l-1.764.9136c-.0244.0126-.0652.0145-.0907.0041l-2.0217-.8265Z" style="fill:none; stroke:#bc976f; stroke-miterlimit:10;"/></g><g style="opacity:.5;"><path d="M120.9801,150.9249c-.0275.0012-.0373-.0165-.0218-.0392l1.2758-1.871c.0155-.0227.0506-.0392.0779-.0366l2.1331.2011c.0274.0026.0359.0224.019.0441l-1.2213,1.5667c-.0169.0217-.0532.0404-.0807.0416l-2.1821.0933Z" style="fill:#bc976f;"/><path d="M120.9801,150.9249c-.0275.0012-.0373-.0165-.0218-.0392l1.2758-1.871c.0155-.0227.0506-.0392.0779-.0366l2.1331.2011c.0274.0026.0359.0224.019.0441l-1.2213,1.5667c-.0169.0217-.0532.0404-.0807.0416l-2.1821.0933Z" style="fill:none; stroke:#bc976f; stroke-miterlimit:10;"/></g><g style="opacity:.5;"><path d="M129.2693,147.3678c-.0255-.0104-.027-.0305-.0034-.0447l1.9405-1.1674c.0236-.0142.0623-.0145.0861-.0007l1.8543,1.0735c.0238.0138.0233.0354-.0011.048l-1.764.9136c-.0244.0126-.0652.0145-.0907.0041l-2.0217-.8265Z" style="fill:#bc976f;"/><path d="M129.2693,147.3678c-.0255-.0104-.027-.0305-.0034-.0447l1.9405-1.1674c.0236-.0142.0623-.0145.0861-.0007l1.8543,1.0735c.0238.0138.0233.0354-.0011.048l-1.764.9136c-.0244.0126-.0652.0145-.0907.0041l-2.0217-.8265Z" style="fill:none; stroke:#bc976f; stroke-miterlimit:10;"/></g><g style="opacity:.5;"><path d="M126.4925,150.2381c-.0181.0207-.0376.0157-.0434-.0112l-.4794-2.2133c-.0058-.0269.0064-.0637.0271-.0818l1.614-1.4092c.0207-.0181.041-.0106.0451.0166l.2961,1.9643c.0041.0272-.0073.0664-.0254.0872l-1.4341,1.6473Z" style="fill:#bc976f;"/><path d="M126.4925,150.2381c-.0181.0207-.0376.0157-.0434-.0112l-.4794-2.2133c-.0058-.0269.0064-.0637.0271-.0818l1.614-1.4092c.0207-.0181.041-.0106.0451.0166l.2961,1.9643c.0041.0272-.0073.0664-.0254.0872l-1.4341,1.6473Z" style="fill:none; stroke:#bc976f; stroke-miterlimit:10;"/></g><g style="opacity:.5;"><path d="M123.9278,154.4494c-.0275.0012-.0373-.0165-.0218-.0392l1.2758-1.871c.0155-.0227.0506-.0392.0779-.0366l2.1331.2011c.0274.0026.0359.0224.019.0441l-1.2213,1.5667c-.0169.0217-.0532.0404-.0807.0416l-2.1821.0933Z" style="fill:#bc976f;"/><path d="M123.9278,154.4494c-.0275.0012-.0373-.0165-.0218-.0392l1.2758-1.871c.0155-.0227.0506-.0392.0779-.0366l2.1331.2011c.0274.0026.0359.0224.019.0441l-1.2213,1.5667c-.0169.0217-.0532.0404-.0807.0416l-2.1821.0933Z" style="fill:none; stroke:#bc976f; stroke-miterlimit:10;"/></g><g style="opacity:.5;"><path d="M137.2034,143.472c-.0181.0207-.0376.0157-.0434-.0112l-.4794-2.2133c-.0058-.0269.0064-.0637.0271-.0818l1.614-1.4092c.0207-.0181.041-.0106.0451.0166l.2961,1.9643c.0041.0272-.0073.0664-.0254.0872l-1.4341,1.6473Z" style="fill:#bc976f;"/><path d="M137.2034,143.472c-.0181.0207-.0376.0157-.0434-.0112l-.4794-2.2133c-.0058-.0269.0064-.0637.0271-.0818l1.614-1.4092c.0207-.0181.041-.0106.0451.0166l.2961,1.9643c.0041.0272-.0073.0664-.0254.0872l-1.4341,1.6473Z" style="fill:none; stroke:#bc976f; stroke-miterlimit:10;"/></g><g style="opacity:.5;"><path d="M134.6388,147.6833c-.0275.0012-.0373-.0165-.0218-.0392l1.2758-1.871c.0155-.0227.0506-.0392.0779-.0366l2.1331.2011c.0274.0026.0359.0224.019.0441l-1.2213,1.5667c-.0169.0217-.0532.0404-.0807.0416l-2.1821.0933Z" style="fill:#bc976f;"/><path d="M134.6388,147.6833c-.0275.0012-.0373-.0165-.0218-.0392l1.2758-1.871c.0155-.0227.0506-.0392.0779-.0366l2.1331.2011c.0274.0026.0359.0224.019.0441l-1.2213,1.5667c-.0169.0217-.0532.0404-.0807.0416l-2.1821.0933Z" style="fill:none; stroke:#bc976f; stroke-miterlimit:10;"/></g><g style="opacity:.5;"><path d="M140.1512,146.9966c-.0181.0207-.0376.0157-.0434-.0112l-.4794-2.2133c-.0058-.0269.0064-.0637.0271-.0818l1.614-1.4092c.0207-.0181.041-.0106.0451.0166l.2961,1.9643c.0041.0272-.0073.0664-.0254.0872l-1.4341,1.6473Z" style="fill:#bc976f;"/><path d="M140.1512,146.9966c-.0181.0207-.0376.0157-.0434-.0112l-.4794-2.2133c-.0058-.0269.0064-.0637.0271-.0818l1.614-1.4092c.0207-.0181.041-.0106.0451.0166l.2961,1.9643c.0041.0272-.0073.0664-.0254.0872l-1.4341,1.6473Z" style="fill:none; stroke:#bc976f; stroke-miterlimit:10;"/></g><g style="opacity:.5;"><path d="M137.5865,151.2079c-.0275.0012-.0373-.0165-.0218-.0392l1.2758-1.871c.0155-.0227.0506-.0392.0779-.0366l2.1331.2011c.0274.0026.0359.0224.019.0441l-1.2213,1.5667c-.0169.0217-.0532.0404-.0807.0416l-2.1821.0933Z" style="fill:#bc976f;"/><path d="M137.5865,151.2079c-.0275.0012-.0373-.0165-.0218-.0392l1.2758-1.871c.0155-.0227.0506-.0392.0779-.0366l2.1331.2011c.0274.0026.0359.0224.019.0441l-1.2213,1.5667c-.0169.0217-.0532.0404-.0807.0416l-2.1821.0933Z" style="fill:none; stroke:#bc976f; stroke-miterlimit:10;"/></g><g style="opacity:.5;"><path d="M127.445,126.301c-.0255-.0104-.027-.0305-.0034-.0447l1.9405-1.1674c.0236-.0142.0623-.0145.0861-.0007l1.8543,1.0735c.0238.0138.0233.0354-.0011.048l-1.764.9136c-.0244.0126-.0652.0145-.0907.0041l-2.0217-.8265Z" style="fill:#bc976f;"/><path d="M127.445,126.301c-.0255-.0104-.027-.0305-.0034-.0447l1.9405-1.1674c.0236-.0142.0623-.0145.0861-.0007l1.8543,1.0735c.0238.0138.0233.0354-.0011.048l-1.764.9136c-.0244.0126-.0652.0145-.0907.0041l-2.0217-.8265Z" style="fill:none; stroke:#bc976f; stroke-miterlimit:10;"/></g><g style="opacity:.5;"><path d="M130.3928,129.8255c-.0255-.0104-.027-.0305-.0034-.0447l1.9405-1.1674c.0236-.0142.0623-.0145.0861-.0007l1.8543,1.0735c.0238.0138.0233.0354-.0011.048l-1.764.9136c-.0244.0126-.0652.0145-.0907.0041l-2.0217-.8265Z" style="fill:#bc976f;"/><path d="M130.3928,129.8255c-.0255-.0104-.027-.0305-.0034-.0447l1.9405-1.1674c.0236-.0142.0623-.0145.0861-.0007l1.8543,1.0735c.0238.0138.0233.0354-.0011.048l-1.764.9136c-.0244.0126-.0652.0145-.0907.0041l-2.0217-.8265Z" style="fill:none; stroke:#bc976f; stroke-miterlimit:10;"/></g><g style="opacity:.5;"><path d="M127.616,132.6959c-.0181.0207-.0376.0157-.0434-.0112l-.4794-2.2133c-.0058-.0269.0064-.0637.0271-.0818l1.614-1.4092c.0207-.0181.041-.0106.0451.0166l.2961,1.9643c.0041.0272-.0073.0664-.0254.0872l-1.4341,1.6473Z" style="fill:#bc976f;"/><path d="M127.616,132.6959c-.0181.0207-.0376.0157-.0434-.0112l-.4794-2.2133c-.0058-.0269.0064-.0637.0271-.0818l1.614-1.4092c.0207-.0181.041-.0106.0451.0166l.2961,1.9643c.0041.0272-.0073.0664-.0254.0872l-1.4341,1.6473Z" style="fill:none; stroke:#bc976f; stroke-miterlimit:10;"/></g><g style="opacity:.5;"><path d="M125.0513,136.9072c-.0275.0012-.0373-.0165-.0218-.0392l1.2758-1.871c.0155-.0227.0506-.0392.0779-.0366l2.1331.2011c.0274.0026.0359.0224.019.0441l-1.2213,1.5667c-.0169.0217-.0532.0404-.0807.0416l-2.1821.0933Z" style="fill:#bc976f;"/><path d="M125.0513,136.9072c-.0275.0012-.0373-.0165-.0218-.0392l1.2758-1.871c.0155-.0227.0506-.0392.0779-.0366l2.1331.2011c.0274.0026.0359.0224.019.0441l-1.2213,1.5667c-.0169.0217-.0532.0404-.0807.0416l-2.1821.0933Z" style="fill:none; stroke:#bc976f; stroke-miterlimit:10;"/></g><g style="opacity:.5;"><path d="M107.3775,154.5676c-.0275.0012-.0373-.0165-.0218-.0392l1.2758-1.871c.0155-.0227.0506-.0392.0779-.0366l2.1331.2011c.0274.0026.0359.0224.019.0441l-1.2213,1.5667c-.0169.0217-.0532.0404-.0807.0416l-2.1821.0933Z" style="fill:#bc976f;"/><path d="M107.3775,154.5676c-.0275.0012-.0373-.0165-.0218-.0392l1.2758-1.871c.0155-.0227.0506-.0392.0779-.0366l2.1331.2011c.0274.0026.0359.0224.019.0441l-1.2213,1.5667c-.0169.0217-.0532.0404-.0807.0416l-2.1821.0933Z" style="fill:none; stroke:#bc976f; stroke-miterlimit:10;"/></g><g style="opacity:.5;"><path d="M115.6667,151.0105c-.0255-.0104-.027-.0305-.0034-.0447l1.9405-1.1674c.0236-.0142.0623-.0145.0861-.0007l1.8543,1.0735c.0238.0138.0233.0354-.0011.048l-1.764.9136c-.0244.0126-.0652.0145-.0907.0041l-2.0217-.8265Z" style="fill:#bc976f;"/><path d="M115.6667,151.0105c-.0255-.0104-.027-.0305-.0034-.0447l1.9405-1.1674c.0236-.0142.0623-.0145.0861-.0007l1.8543,1.0735c.0238.0138.0233.0354-.0011.048l-1.764.9136c-.0244.0126-.0652.0145-.0907.0041l-2.0217-.8265Z" style="fill:none; stroke:#bc976f; stroke-miterlimit:10;"/></g><g style="opacity:.5;"><path d="M112.8899,153.8809c-.0181.0207-.0376.0157-.0434-.0112l-.4794-2.2133c-.0058-.0269.0064-.0637.0271-.0818l1.614-1.4092c.0207-.0181.041-.0106.0451.0166l.2961,1.9643c.0041.0272-.0073.0664-.0254.0872l-1.4341,1.6473Z" style="fill:#bc976f;"/><path d="M112.8899,153.8809c-.0181.0207-.0376.0157-.0434-.0112l-.4794-2.2133c-.0058-.0269.0064-.0637.0271-.0818l1.614-1.4092c.0207-.0181.041-.0106.0451.0166l.2961,1.9643c.0041.0272-.0073.0664-.0254.0872l-1.4341,1.6473Z" style="fill:none; stroke:#bc976f; stroke-miterlimit:10;"/></g><g style="opacity:.5;"><path d="M110.3253,158.0922c-.0275.0012-.0373-.0165-.0218-.0392l1.2758-1.871c.0155-.0227.0506-.0392.0779-.0366l2.1331.2011c.0274.0026.0359.0224.019.0441l-1.2213,1.5667c-.0169.0217-.0532.0404-.0807.0416l-2.1821.0933Z" style="fill:#bc976f;"/><path d="M110.3253,158.0922c-.0275.0012-.0373-.0165-.0218-.0392l1.2758-1.871c.0155-.0227.0506-.0392.0779-.0366l2.1331.2011c.0274.0026.0359.0224.019.0441l-1.2213,1.5667c-.0169.0217-.0532.0404-.0807.0416l-2.1821.0933Z" style="fill:none; stroke:#bc976f; stroke-miterlimit:10;"/></g><g style="opacity:.5;"><path d="M118.8291,154.6073c-.0255-.0104-.027-.0305-.0034-.0447l1.9405-1.1674c.0236-.0142.0623-.0145.0861-.0007l1.8543,1.0735c.0238.0138.0233.0354-.0011.048l-1.764.9136c-.0244.0126-.0652.0145-.0907.0041l-2.0217-.8265Z" style="fill:#bc976f;"/><path d="M118.8291,154.6073c-.0255-.0104-.027-.0305-.0034-.0447l1.9405-1.1674c.0236-.0142.0623-.0145.0861-.0007l1.8543,1.0735c.0238.0138.0233.0354-.0011.048l-1.764.9136c-.0244.0126-.0652.0145-.0907.0041l-2.0217-.8265Z" style="fill:none; stroke:#bc976f; stroke-miterlimit:10;"/></g><g style="opacity:.5;"><path d="M116.0523,157.4776c-.0181.0207-.0376.0157-.0434-.0112l-.4794-2.2133c-.0058-.0269.0064-.0637.0271-.0818l1.614-1.4092c.0207-.0181.041-.0106.0451.0166l.2961,1.9643c.0041.0272-.0073.0664-.0254.0872l-1.4341,1.6473Z" style="fill:#bc976f;"/><path d="M116.0523,157.4776c-.0181.0207-.0376.0157-.0434-.0112l-.4794-2.2133c-.0058-.0269.0064-.0637.0271-.0818l1.614-1.4092c.0207-.0181.041-.0106.0451.0166l.2961,1.9643c.0041.0272-.0073.0664-.0254.0872l-1.4341,1.6473Z" style="fill:none; stroke:#bc976f; stroke-miterlimit:10;"/></g><g style="opacity:.5;"><path d="M113.4877,161.6889c-.0275.0012-.0373-.0165-.0218-.0392l1.2758-1.871c.0155-.0227.0506-.0392.0779-.0366l2.1331.2011c.0274.0026.0359.0224.019.0441l-1.2213,1.5667c-.0169.0217-.0532.0404-.0807.0416l-2.1821.0933Z" style="fill:#bc976f;"/><path d="M113.4877,161.6889c-.0275.0012-.0373-.0165-.0218-.0392l1.2758-1.871c.0155-.0227.0506-.0392.0779-.0366l2.1331.2011c.0274.0026.0359.0224.019.0441l-1.2213,1.5667c-.0169.0217-.0532.0404-.0807.0416l-2.1821.0933Z" style="fill:none; stroke:#bc976f; stroke-miterlimit:10;"/></g><g style="opacity:.5;"><path d="M121.7769,158.1318c-.0255-.0104-.027-.0305-.0034-.0447l1.9405-1.1674c.0236-.0142.0623-.0145.0861-.0007l1.8543,1.0735c.0238.0138.0233.0354-.0011.048l-1.764.9136c-.0244.0126-.0652.0145-.0907.0041l-2.0217-.8265Z" style="fill:#bc976f;"/><path d="M121.7769,158.1318c-.0255-.0104-.027-.0305-.0034-.0447l1.9405-1.1674c.0236-.0142.0623-.0145.0861-.0007l1.8543,1.0735c.0238.0138.0233.0354-.0011.048l-1.764.9136c-.0244.0126-.0652.0145-.0907.0041l-2.0217-.8265Z" style="fill:none; stroke:#bc976f; stroke-miterlimit:10;"/></g><g style="opacity:.5;"><path d="M119.0001,161.0021c-.0181.0207-.0376.0157-.0434-.0112l-.4794-2.2133c-.0058-.0269.0064-.0637.0271-.0818l1.614-1.4092c.0207-.0181.041-.0106.0451.0166l.2961,1.9643c.0041.0272-.0073.0664-.0254.0872l-1.4341,1.6473Z" style="fill:#bc976f;"/><path d="M119.0001,161.0021c-.0181.0207-.0376.0157-.0434-.0112l-.4794-2.2133c-.0058-.0269.0064-.0637.0271-.0818l1.614-1.4092c.0207-.0181.041-.0106.0451.0166l.2961,1.9643c.0041.0272-.0073.0664-.0254.0872l-1.4341,1.6473Z" style="fill:none; stroke:#bc976f; stroke-miterlimit:10;"/></g><g style="opacity:.5;"><path d="M116.4354,165.2134c-.0275.0012-.0373-.0165-.0218-.0392l1.2758-1.871c.0155-.0227.0506-.0392.0779-.0366l2.1331.2011c.0274.0026.0359.0224.019.0441l-1.2213,1.5667c-.0169.0217-.0532.0404-.0807.0416l-2.1821.0933Z" style="fill:#bc976f;"/><path d="M116.4354,165.2134c-.0275.0012-.0373-.0165-.0218-.0392l1.2758-1.871c.0155-.0227.0506-.0392.0779-.0366l2.1331.2011c.0274.0026.0359.0224.019.0441l-1.2213,1.5667c-.0169.0217-.0532.0404-.0807.0416l-2.1821.0933Z" style="fill:none; stroke:#bc976f; stroke-miterlimit:10;"/></g><g style="opacity:.5;"><path d="M124.9824,161.6714c-.0255-.0104-.027-.0305-.0034-.0447l1.9405-1.1674c.0236-.0142.0623-.0145.0861-.0007l1.8543,1.0735c.0238.0138.0233.0354-.0011.048l-1.764.9136c-.0244.0126-.0652.0145-.0907.0041l-2.0217-.8265Z" style="fill:#bc976f;"/><path d="M124.9824,161.6714c-.0255-.0104-.027-.0305-.0034-.0447l1.9405-1.1674c.0236-.0142.0623-.0145.0861-.0007l1.8543,1.0735c.0238.0138.0233.0354-.0011.048l-1.764.9136c-.0244.0126-.0652.0145-.0907.0041l-2.0217-.8265Z" style="fill:none; stroke:#bc976f; stroke-miterlimit:10;"/></g><g style="opacity:.5;"><path d="M122.2056,164.5417c-.0181.0207-.0376.0157-.0434-.0112l-.4794-2.2133c-.0058-.0269.0064-.0637.0271-.0818l1.614-1.4092c.0207-.0181.041-.0106.0451.0166l.2961,1.9643c.0041.0272-.0073.0664-.0254.0872l-1.4341,1.6473Z" style="fill:#bc976f;"/><path d="M122.2056,164.5417c-.0181.0207-.0376.0157-.0434-.0112l-.4794-2.2133c-.0058-.0269.0064-.0637.0271-.0818l1.614-1.4092c.0207-.0181.041-.0106.0451.0166l.2961,1.9643c.0041.0272-.0073.0664-.0254.0872l-1.4341,1.6473Z" style="fill:none; stroke:#bc976f; stroke-miterlimit:10;"/></g><g style="opacity:.5;"><path d="M119.6409,168.753c-.0275.0012-.0373-.0165-.0218-.0392l1.2758-1.871c.0155-.0227.0506-.0392.0779-.0366l2.1331.2011c.0274.0026.0359.0224.019.0441l-1.2213,1.5667c-.0169.0217-.0532.0404-.0807.0416l-2.1821.0933Z" style="fill:#bc976f;"/><path d="M119.6409,168.753c-.0275.0012-.0373-.0165-.0218-.0392l1.2758-1.871c.0155-.0227.0506-.0392.0779-.0366l2.1331.2011c.0274.0026.0359.0224.019.0441l-1.2213,1.5667c-.0169.0217-.0532.0404-.0807.0416l-2.1821.0933Z" style="fill:none; stroke:#bc976f; stroke-miterlimit:10;"/></g><g style="opacity:.5;"><path d="M127.9302,165.1959c-.0255-.0104-.027-.0305-.0034-.0447l1.9405-1.1674c.0236-.0142.0623-.0145.0861-.0007l1.8543,1.0735c.0238.0138.0233.0354-.0011.048l-1.764.9136c-.0244.0126-.0652.0145-.0907.0041l-2.0217-.8265Z" style="fill:#bc976f;"/><path d="M127.9302,165.1959c-.0255-.0104-.027-.0305-.0034-.0447l1.9405-1.1674c.0236-.0142.0623-.0145.0861-.0007l1.8543,1.0735c.0238.0138.0233.0354-.0011.048l-1.764.9136c-.0244.0126-.0652.0145-.0907.0041l-2.0217-.8265Z" style="fill:none; stroke:#bc976f; stroke-miterlimit:10;"/></g><g style="opacity:.5;"><path d="M125.1533,168.0662c-.0181.0207-.0376.0157-.0434-.0112l-.4794-2.2133c-.0058-.0269.0064-.0637.0271-.0818l1.614-1.4092c.0207-.0181.041-.0106.0451.0166l.2961,1.9643c.0041.0272-.0073.0664-.0254.0872l-1.4341,1.6473Z" style="fill:#bc976f;"/><path d="M125.1533,168.0662c-.0181.0207-.0376.0157-.0434-.0112l-.4794-2.2133c-.0058-.0269.0064-.0637.0271-.0818l1.614-1.4092c.0207-.0181.041-.0106.0451.0166l.2961,1.9643c.0041.0272-.0073.0664-.0254.0872l-1.4341,1.6473Z" style="fill:none; stroke:#bc976f; stroke-miterlimit:10;"/></g><g style="opacity:.5;"><path d="M122.5887,172.2775c-.0275.0012-.0373-.0165-.0218-.0392l1.2758-1.871c.0155-.0227.0506-.0392.0779-.0366l2.1331.2011c.0274.0026.0359.0224.019.0441l-1.2213,1.5667c-.0169.0217-.0532.0404-.0807.0416l-2.1821.0933Z" style="fill:#bc976f;"/><path d="M122.5887,172.2775c-.0275.0012-.0373-.0165-.0218-.0392l1.2758-1.871c.0155-.0227.0506-.0392.0779-.0366l2.1331.2011c.0274.0026.0359.0224.019.0441l-1.2213,1.5667c-.0169.0217-.0532.0404-.0807.0416l-2.1821.0933Z" style="fill:none; stroke:#bc976f; stroke-miterlimit:10;"/></g></g></g><path d="M73.0523,112.0758s19.4191-45.1651,79.3771-36.7043c59.9581,8.4608,68.8317,55.3612,68.8317,55.3612" style="fill:none;"/><path d="M79.6489,99.626c-.2202.1885-.3247.2139-.5117-.0049l-.6538-.7617c-.187-.2188-.1445-.3184.0444-.543l1.4717-1.3242c.8491-.7891.6987-1.0391-1.668-3.8027l-13.5474-15.8223c-2.3662-2.7646-2.5898-2.9502-3.5015-2.2334l-1.5649,1.2148c-.2197.1875-.3247.2148-.5117-.0039l-.6543-.7637c-.1865-.2188-.1445-.3184.0757-.5059l12.3198-10.5479c.2207-.1885.3252-.2148.5117.0029l.6543.7646c.1865.2178.144.3174-.0757.5049l-2.248,2.0508c-.8486.79-.7349,1.0703,1.6318,3.835l15.9448,18.6211,4.5469-3.8926c3.1899-2.7305,2.8672-6.2988-1.1992-11.6426-.187-.2188-.1758-.3525.0078-.5098l.8428-.7227c.2197-.1885.3506-.1104.5371.1084l6.8477,8.8867c.1865.2178.2432.3584.0234.5469l-19.3237,16.5449Z" style="fill:#683523;"/><path d="M111.8613,79.1035c-8.1055,2.9961-14.7637.3018-17.5039-7.1074-2.707-7.3193-.0938-14.3096,7.7847-17.2227,5.7056-2.1094,11.8892-.9746,14.4473,5.9414l.0991.2686c.4155,1.124.186,1.6152-1.1724,2.1172l-13.4023,4.9561.2651.7197c1.9932,5.3877,4.9292,9.1514,10.3633,7.1426,3.6226-1.3398,4.9863-4.1914,4.7837-7.3838.0073-.2578.0483-.4268.3364-.4824l1.001-.2168c.2427-.0381.3379.0801.4092.4102.5679,4.1807-1.4795,8.6641-7.4111,10.8574ZM102.4844,56.5361c-3.0781,1.1377-3.0615,4.2461-1.0186,9.7695l6.0674-2.2432c1.4492-.5361,1.7236-1.0459,1.2422-2.3477-1.6943-4.5811-3.5737-6.1836-6.291-5.1787Z" style="fill:#683523;"/><path d="M143.1245,50.4688c-.9565.1582-1.3599.6641-2.0571,2.5811l-1.4038,4.457-5.271,17.1348c-.0801.2451-.1226.3447-.46.3662l-3.564.2314c-.2891.0186-.3887-.0234-.5034-.3037l-8.7227-18.8652c-1.6938-3.7285-1.9502-3.9512-3.1606-3.9688l-.4399-.0684c-.2891.0205-.3887-.0215-.4067-.3086l-.0591-.9072c-.019-.2871.0747-.3408.3633-.3604l13.2461-.8594c.2886-.0186.3877.0225.4067.3086l.0591.9092c.0186.2861-.0742.3398-.3638.3584l-1.0083.1133c-.6709.0918-1.0469.2607-1.001.9775.041.6211.3472,1.6074,1.082,3.2402l4.7363,11.1104.0479-.0029,2.521-8.8477c.5176-1.7119.978-3.5654.8936-4.8564-.0874-1.3369-.7148-2.0635-1.9214-2.0332l-1.1113.0234c-.2891.0195-.3882-.0225-.4067-.3086l-.0591-.9082c-.0186-.2871.0742-.3408.3633-.3594l8.5254-.5547c.2891-.0176.3892.0234.4067.3105l.0596.9082c.0186.2861-.0747.3398-.3638.3584l-.4272.124Z" style="fill:#683523;"/><path d="M155.6797,76.501c-8.5352-1.3447-13.0269-6.9482-11.7959-14.751,1.2158-7.707,6.9121-12.5293,15.208-11.2207,6.0088.9463,10.8486,4.957,9.7002,12.2383l-.0449.2842c-.1865,1.1826-.6274,1.5-2.0576,1.2744l-14.1143-2.2246-.1191.7578c-.8955,5.6748-.1729,10.3916,5.5488,11.2939,3.8145.6006,6.3984-1.2217,7.7817-4.1045.1328-.2217.2505-.3486.5288-.2568l.979.3008c.231.085.2563.2344.1562.5566-1.5474,3.9248-5.5249,6.835-11.771,5.8516ZM158.5303,52.2334c-3.2422-.5107-4.7466,2.208-5.6641,8.0244l6.3896,1.0078c1.5254.2402,2.0146-.0703,2.2305-1.4414.7607-4.8242-.0957-7.1396-2.9561-7.5908Z" style="fill:#683523;"/><path d="M166.2163,77.9258c-.2739-.0967-.3481-.1748-.2529-.4453l.3032-.8574c.0957-.2705.2188-.3281.4917-.2324l1.7456.5664c1.1538.3564,1.2954.1025,2.5073-3.3281l8.0415-22.7471c1.2124-3.4307,1.2622-3.7178.1401-4.1641l-1.7134-.6562c-.2729-.0977-.332-.2197-.2363-.4912l.3027-.8574c.0957-.2705.2031-.2842.4756-.1865l10.0142,3.5381c.2729.0967.3462.3262.2021.7324l-9.7163,27.4873c-1.2124,3.4287-1.2622,3.7158-.1406,4.1631l1.7139.6572c.2729.0947.332.2178.2363.4883l-.3032.8574c-.0957.2725-.2026.2842-.4756.1885l-13.3359-4.7129Z" style="fill:#683523;"/><path d="M193.1123,90.1934c-.2197-.1895-.2627-.2881-.0757-.5059l.6216-.7285c.1865-.2188.3218-.2285.542-.041l2.5596,2.0576c.9121.7158,1.1353.5293,3.4971-2.2393l12.4302-14.5674-.1108-.0957c-2.2451-.3418-5.5586-1.2188-7.4941-1.9258-.2822-.1143-.3247-.2129-.2793-.4893l.4971-1.4014c.1128-.2822.2427-.3594.5254-.2441,3.0537,1.0322,6.4346,1.9033,10.1045,2.1387.2402.0156.418.1055.6016.2627l4.7378,4.041c.2202.1875.2251.2559.0083.5117l-14.6675,17.1895c-2.3613,2.7686-2.4746,3.0508-1.624,3.8379l2.0679,1.8906c.2202.1875.231.3232.0449.542l-.6221.7295c-.186.2168-.29.1904-.5107.0029l-12.8535-10.9658Z" style="fill:#683523;"/><path d="M50.3331,186.404s45.0421,93.0695,137.931,51.9067c92.8889-41.1627,58.7002-141.8913,58.7002-141.8913" style="fill:none;"/><path d="M62.2993,205.0166l-4.8267-6.2744c-.1094-.1426-.1216-.207.02-.3154l.354-.2725c.1411-.1094.2241-.0977.334.0439l.9668,1.207c.459.5488.6187.4629,2.4111-.915l10.543-8.1113c1.7925-1.3799,1.916-1.5117,1.5044-2.0957l-.9204-1.2441c-.1089-.1426-.0977-.2256.0435-.335l.354-.2725c.1416-.1084.2012-.0801.3101.0625l4.3916,5.708c1.9595,2.5469,4.1499,6.4189.895,8.9229-2.123,1.6328-4.4126.8047-6.6792-1.0195l-.0469.0371c1.5625,2.1758,2.7695,5.4531-.2026,7.7402-3.2783,2.5225-7.0381.2705-9.4517-2.8662ZM69.6455,198.3135l-.98-1.2744-7.0283,5.4082,1.5972,2.0752c1.7231,2.2402,3.6084,2.5928,6.1084.6689,2.5474-1.96,2.6978-3.7646.3027-6.8779ZM77.0864,193.002l-1.1797-1.5332-6.4155,4.9355,1.0522,1.3682c1.7603,2.2881,3.4316,2.6543,5.8369.8027,2.5474-1.959,2.2476-3.5684.7061-5.5732Z" style="fill:#683523;"/><path d="M73.9956,218.9531c-2.8208-2.8184-2.6758-6.8369.7104-10.2256,3.0073-3.0117,7.4668-4.1504,10.667-.9531,2.1055,2.1035,2.7383,5.5107-.1216,8.374l-.1685.168c-.5679.5684-.9043.5693-1.5781-.1035l-5.9575-5.9521-.4419.4434c-2.7964,2.7988-3.9106,5.3877-1.5527,7.7422,1.6841,1.6826,3.5991,1.7461,5.4077.8184.1685-.084.2734-.1055.3584.0635l.168.2939c.084.126.042.21-.126.2949-2.0615,1.3057-4.9648,1.4326-7.3652-.9639ZM84.4478,208.1953c-1.7896-1.7871-4.04-.7549-6.2065,1.4131l3.6216,3.6182c.8203.8193,1.1987.8604,1.8721.1875,1.9351-1.9365,2.165-3.7676.7129-5.2188Z" style="fill:#683523;"/><path d="M82.1245,233.4814c-2.1724-1.666-4.1289-4.5918-2.481-6.7402,1.0869-1.417,2.5381-1.3535,4.2407-.835l.0366-.0479c-.751-1.0244-1.0161-2.3916-.1289-3.5488.7065-.9199,1.7456-1.248,2.9106-1.1055-.6753-1.417-.5039-3.0107.6196-4.4746,1.7925-2.3379,4.8257-2.6748,7.6118-.5371.6616.5068,1.2319,1.1318,1.7012,1.791l3.3999,2.6084c.1416.1074.1709.168.0806.2861l-.3076.4023c-.1094.1406-.1748.1279-.3159.0195l-2.1743-1.5176c.292,1.0869.1123,2.2988-.8115,3.5029-1.8105,2.3623-4.8438,2.6982-7.6299.5615-.7559-.5791-1.4497-1.3359-1.8066-1.9482-.7891-.1924-1.3696.0742-1.7495.5713-.6523.8496-.001,1.7607.9248,2.5088l3.292,2.75c2.5303,2.1279,2.7524,4.1357,1.4121,5.8828-1.7378,2.2676-5.2354,2.623-8.8247-.1299ZM87.7886,229.2744l-3.4277-2.8154c-.9565-.1719-1.9014.2295-2.6621,1.2207-1.2856,1.6758-.8887,3.5557,1.354,5.2764,2.1958,1.6836,4.3086,1.7666,5.5576.1367,1.1772-1.5352.5825-2.667-.8218-3.8184ZM94.3438,216.8643c-1.8652-1.4307-3.4692-.0723-4.7192,1.5557-1.1406,1.4883-1.9941,3.3828-.1523,4.7959,1.8179,1.3945,3.5054.0254,4.7549-1.6035,1.1411-1.4873,1.9346-3.3535.1167-4.748Z" style="fill:#683523;"/><path d="M93.0005,233.9531c-.1533-.0918-.1895-.1484-.0977-.3018l.1968-.333c.0918-.1523.1733-.1729.3267-.082l1.2944.7363c.6133.3643.73.2266,1.8872-1.7168l4.3682-7.3398c1.1572-1.9434,1.2231-2.1123.6245-2.5029l-1.2632-.7861c-.1538-.0918-.1899-.1475-.0986-.3008l.2134-.3574c.0913-.1543.1577-.1494.311-.0576l4.0146,2.3896c.1792.1064.1694.2393.0479.4443l-5.8911,9.8955c-1.1562,1.9443-1.2227,2.1123-.583,2.4932l1.2378.7705c.1533.0918.1743.1738.0825.3262l-.1978.333c-.0913.1533-.1577.1484-.311.0576l-6.1626-3.668ZM105.8364,219.4287c-.793-.4727-1.0259-1.4766-.5542-2.2695s1.4917-1.0518,2.2588-.5947c.7925.4717,1.0259,1.4766.5542,2.2686-.4868.8184-1.4663,1.0674-2.2588.5957Z" style="fill:#683523;"/><path d="M110.8428,242.9756c-.166-.0674-.21-.1172-.1436-.2832l.144-.3584c.0674-.166.1445-.1982.3105-.1318l1.1152.417c.6626.2666.7568.1133,1.6016-1.9854l2.6787-6.6543c1.0342-2.5664.2466-3.8789-1.603-4.624-1.7671-.7109-3.2217-.2051-4.584.9463l-3.0903,7.6748c-.8442,2.0986-.8833,2.2744-.1934,2.5527l1.0659.4619c.166.0664.1982.1436.1313.3086l-.1436.3604c-.0669.165-.1338.1699-.2993.1035l-6.377-2.5674c-.166-.0674-.2095-.1162-.1431-.2822l.144-.3594c.0674-.166.1445-.1982.3105-.1318l1.3911.5283c.6631.2666.7568.1123,1.6016-1.9854l3.1899-7.9238c.8447-2.0986.8838-2.2754.2324-2.5693l-1.3691-.583c-.1655-.0664-.2095-.1172-.1431-.2832l.1558-.3857c.0664-.165.1328-.1709.2983-.1045l4.1133,1.6553c.166.0674.2046.2109.1157.4326l-.8564,2.125.0557.0234c1.4453-1.2793,3.4805-1.8721,5.9097-.8945,2.126.8574,4.0776,2.8613,2.5659,6.6162l-2.6455,6.5703c-.8442,2.0986-.8838,2.2744-.1934,2.5527l1.3691.584c.1655.0664.1982.1436.1318.3096l-.1445.3584c-.0669.166-.1333.1709-.2988.1045l-6.4043-2.5781Z" style="fill:#683523;"/><path d="M130.6416,248.0029c-.1763-.0264-.23-.0645-.2031-.2412l.0576-.3828c.0273-.1758.0947-.2266.2715-.1992l1.1812.1494c.7056.1084.7617-.0645,1.1035-2.2988l1.082-7.0889c.418-2.7344-.6489-3.8301-2.6196-4.1309-1.8818-.2881-3.1821.5371-4.2437,1.9697l-1.2485,8.1768c-.3413,2.2344-.3384,2.417.397,2.5293l1.1421.2041c.1768.0264.2266.0947.1997.2715l-.0581.3818c-.0273.1768-.0903.1963-.2676.1699l-6.7935-1.0381c-.1768-.0264-.231-.0654-.2036-.2412l.0586-.3818c.0269-.1768.0942-.2266.271-.1992l1.4746.1943c.7061.1084.7627-.0635,1.104-2.2988l1.2886-8.4414c.3413-2.2354.3389-2.417-.3623-2.5537l-1.4663-.2539c-.1763-.0273-.2305-.0654-.2036-.2412l.0625-.4121c.0269-.1768.0903-.1973.2671-.1689l4.3823.668c.1763.0273.2466.1592.2104.3936l-.3457,2.2646.0586.0088c1.1133-1.5752,2.958-2.6182,5.5464-2.2227,2.2646.3457,4.6235,1.8496,4.0122,5.8486l-1.0684,7.001c-.3413,2.2344-.3384,2.417.3965,2.5273l1.4658.2549c.1768.0264.2266.0938.1997.2715l-.0586.3809c-.0269.1768-.0903.1982-.2666.1709l-6.8237-1.042Z" style="fill:#683523;"/><path d="M147.5078,249.0137c-3.981.2051-6.8662-2.5957-7.1133-7.3789-.2192-4.249,1.9233-8.3223,6.4399-8.5547,2.9717-.1543,5.9248,1.6602,6.1338,5.7012l.0122.2363c.0415.8027-.1846,1.0527-1.1348,1.1025l-8.4087.4336.0322.624c.2036,3.9521,1.3789,6.5117,4.7065,6.3408,2.377-.123,3.7056-1.502,4.2305-3.4658.0503-.1807.105-.2734.2861-.2236l.3315.0732c.1499.0215.1846.1094.1348.291-.4126,2.4043-2.2632,4.6455-5.6509,4.8203ZM146.5273,234.0488c-2.5259.1299-3.2681,2.4922-3.1099,5.5527l5.1108-.2637c1.1587-.0596,1.4434-.3135,1.3945-1.2637-.1411-2.7344-1.3452-4.1318-3.3955-4.0254Z" style="fill:#683523;"/><path d="M156.521,247.8623c-.1748.0352-.2393.0166-.2744-.1582l-.0757-.3789c-.0347-.1748.0117-.2451.1865-.2803l1.4531-.3213c.7007-.1396.6943-.3203.251-2.5371l-1.5581-7.791c-.5776-2.8877-.8867-2.917-1.6221-2.7998l-1.1729.2041c-.1748.0352-.2393.0176-.2739-.1572l-.082-.4092c-.0347-.1738.0176-.2158.1924-.25l4.2598-.8516c.2041-.042.2861.0625.332.2969l.5312,2.6543.0879-.0176c.5015-2.3447,1.6572-3.8506,3.3491-4.1895,1.4585-.292,2.7305.6064,3.0522,2.2119.1982.9912-.333,1.5225-1.2959,1.7158-.9336.1865-1.4414-.2285-1.5811-.9287-.105-.5244-.041-1.1143.0698-1.6221-.1284-.0352-.2861-.0645-.4609-.0283-1.2837.2559-2.1123,1.4238-2.7192,3.6982l1.5464,7.7324c.4438,2.2168.5078,2.3857,1.2368,2.2402l2.0195-.374c.1748-.0342.2446.0117.2793.1865l.0767.3799c.0347.1748-.0176.2158-.1929.252l-7.6147,1.5225Z" style="fill:#683523;"/><path d="M166.6265,232.3047c-.1626.0791-.2769.1133-.3188-.0303l-.2407-.3936c-.0791-.1621-.0391-.2373.1519-.3252,1.4888-.8438,2.4995-2.043,2.0269-3.6406-.084-.2852-.2305-.6758-.4292-.9277-.3613.3545-.8726.7227-1.5005.9092-.7417.2188-1.5166.0137-1.8286-1.043-.3037-1.0254.0781-1.7285,1.0771-2.0244,1.5122-.4463,3.0752.6426,3.624,2.4961.7095,2.3984-.7886,4.0508-2.562,4.9795Z" style="fill:#683523;"/><path d="M179.9722,242.0312c-1.4229.5264-2.7852.6172-3.8599.2852l.1226.5879c.0342.1777.0654.2617-.1025.3232l-.251.0928c-.1948.0723-.2437.0273-.3159-.168l-1.8047-4.2812c-.0615-.168-.0547-.2334.1128-.2959l.3906-.1445c.168-.0615.2061-.0449.3062.1406l.1895.3428c.8218,1.5352,2.8374,3.043,4.9863,2.248,1.7866-.6602,2.5024-1.8125,1.9766-3.2363-.6499-1.7568-2.4912-1.9336-4.4648-2.124-2.2764-.2363-4.6216-.5752-5.6021-3.2266-.7939-2.1484.2207-4.5537,2.6484-5.4512,1.1724-.4326,2.3667-.4629,3.2915-.1064l-.0947-.5996c-.0444-.2051-.0371-.2715.1025-.3223l.2788-.1035c.1675-.0625.2271.0117.2886.1777l1.4854,4.0195c.0615.167.0547.2334-.1411.3057l-.335.124c-.167.0615-.2437.0264-.3052-.1406l-.1035-.2783c-.7983-1.9893-2.623-2.8066-4.2412-2.208-1.4233.5264-1.8325,1.5645-1.4092,2.709.5459,1.4795,2.0703,1.7402,4.1968,2.002,2.6934.3369,4.8765.5771,5.9277,3.4238.8457,2.2881-.4268,4.8516-3.2734,5.9043Z" style="fill:#683523;"/><path d="M194.0557,235.7441c-.1548.0879-.2217.0918-.3096-.0635l-.2207-.3877c-.0884-.1553-.0659-.2373.0894-.3252l1.3311-.791c.606-.3779.5439-.5479-.5737-2.5156l-6.5732-11.5664c-1.1172-1.9678-1.2314-2.1074-1.8677-1.7812l-1.3604.7383c-.1548.0898-.2363.0664-.3247-.0889l-.2207-.3877c-.0879-.1553-.0508-.21.1045-.2988l7.1162-4.0439c.1558-.0879.2217-.0918.3105.0635l.2202.3887c.0884.1553.0659.2363-.0894.3242l-1.6934.9961c-.6064.3789-.5444.5488.5737,2.5156l7.7349,13.6123,4.1929-2.3818c2.147-1.2217,2.1011-3.3516.5103-6.4521-.103-.1807-.1069-.248.0483-.3359l.4141-.2363c.1812-.1025.2368-.0645.3394.1162l2.7852,5.5039c.0884.1543.0918.2217-.1152.3389l-12.4219,7.0586Z" style="fill:#683523;"/><path d="M218.1177,219.8555c-.1631.1309-.2837.0742-.4312-.1123l-1.4233-1.7959-.0464.0371c.3955,1.8887-.0503,3.9131-2.0796,5.5195-1.7495,1.3867-4.4341,2.0713-6.9473-1.1006l-4.3794-5.5273c-1.4043-1.7725-1.5386-1.8936-2.1401-1.4551l-1.1616.8818c-.1392.1113-.2046.125-.3154-.0156l-.2588-.3262c-.1108-.1396-.083-.2012.0571-.3115l3.6611-2.9014c.1401-.1104.2847-.0723.4321.1152l6.3013,7.9512c1.7002,2.1455,3.2061,2.1299,4.7446.9092,1.4233-1.127,1.7041-2.6396,1.3545-4.376l-5.1187-6.459c-1.4043-1.7725-1.5386-1.8936-2.1401-1.4551l-1.1846.9004c-.1401.1113-.2051.125-.3159-.0156l-.2588-.3262c-.1108-.1396-.0825-.2002.0571-.3115l3.6851-2.9189c.1396-.1113.2837-.0732.4316.1123l7.1519,9.0264c1.4038,1.7725,1.5381,1.8945,2.0981,1.4502l1.1841-.9004c.1396-.1123.2236-.1016.3345.0391l.2407.3037c.1104.1387.0825.1992-.0576.3105l-3.4751,2.752Z" style="fill:#683523;"/><path d="M228.0176,210.6143c-2.5503,2.8311-6.3716,2.7139-9.9541-.5146-3.2949-2.9678-4.4897-7.29-1.481-10.6299,1.6538-1.834,3.8379-2.3906,5.3193-1.0557.7075.6377.5991,1.3809-.0586,2.1104-.6973.7744-1.3926.7891-1.9448.292-.5083-.459-.8184-1.1387-1.103-1.7559-.416.1064-.9453.4707-1.4033.9795-1.7935,1.9902-1.2812,4.1348,2.3457,7.4014,3.3613,3.0293,5.7012,3.8555,7.6343,1.71,1.375-1.5254,1.2388-3.3311.0977-5-.1123-.1416-.0747-.2275.0469-.3193l.3057-.2041c.1216-.0918.2075-.0537.3008.1094,1.5366,1.9863,1.8667,4.6885-.1055,6.877Z" style="fill:#683523;"/><path d="M239.0732,194.8486c-.1123.1758-.1943.1943-.4092.1982l-8.731-.2002c.3301,1.1992.8311,1.9062,1.7349,2.4834l1.3555.8633c1.9077,1.2168,2.0737,1.2861,2.4741.6592l.7451-1.1133c.0952-.1504.1782-.1689.3286-.0723l.3262.208c.1504.0957.1436.1611.0479.3125l-3.792,5.9473c-.0962.1514-.1533.1855-.3037.0889l-.3262-.208c-.1504-.0957-.1689-.1777-.0728-.3291l.7749-1.2695c.3838-.6025.2495-.7236-1.6582-1.9395l-13.001-8.2881c-1.9077-1.2158-2.0737-1.2871-2.4575-.6836l-.8252,1.2383c-.0962.1504-.1782.168-.3286.0723l-.3262-.207c-.1509-.0967-.144-.1631-.0483-.3125l2.5122-3.9404c.1113-.1758.2446-.1621.4448-.0352l11.8721,7.5684.0312-.0498c-.4351-.7021-.8608-2.1377-1.4253-4.2979-.314-1.2227-.6147-2.1914-1.1919-2.5596-.4268-.2725-.8374-.1816-1.231.3799l-.4888.7129c-.0962.1504-.1528.1836-.3037.0879l-.3516-.2236c-.1504-.0957-.1436-.1621-.0474-.3125l3.3911-5.3223c.0967-.1494.1533-.1846.3037-.0889l.3521.2256c.1504.0957.1436.1611.0469.3115l-.1021.2178c-.4849.9258-.5269,1.7119.1309,4.3896l.7192,2.8574,7.5469.0117c2.543-.002,2.9062-.0186,3.2031-.4297l.2334-.3096c.1206-.1348.1777-.1689.3286-.0732l.3262.208c.1504.0957.1436.1621.0479.3135l-1.856,2.9102Z" style="fill:#683523;"/><path d="M63.0975,173.4714c.5456-3.0745-2.6647-4.4179-5.1765-4.6704-1.6854-.1695-3.3452-.177-5.0002-.5914-1.4935-.374-2.9242-.9503-4.2667-1.7036-5.8129-3.2614-9.23-9.1788-10.3593-15.6178-.6494-3.7031-.6006-7.5065-.3102-11.2426.2824-3.6326.719-7.3061,1.8904-10.7727,1.0601-3.1371,2.8039-6.0386,5.299-8.2415,2.8179-2.488,6.2186-3.2787,9.7757-4.1294,2.6541-.6347,7.2405-1.6655,7.5583-5.0647.2577-2.7562-3.3728-4.2966-4.9691-1.9179-.5394.8038.7594,1.5554,1.2952.7571.537-.8002,1.8676-.4446,2.1346.3996.2358.7454-.1864,1.5283-.7005,2.0375-1.2473,1.2356-3.2299,1.7142-4.8717,2.1345-2.9452.7541-5.9645,1.2395-8.6292,2.7917-5.1225,2.9839-8.0026,8.4365-9.2213,14.075-1.3291,6.1495-1.7736,12.9153-.7701,19.1401.9157,5.6801,3.498,11.0256,7.9622,14.751,2.2186,1.8514,4.8007,3.2688,7.6036,4.0029,1.5557.4075,3.1183.5208,4.7151.6267,1.5226.101,5.0066.5143,4.5944,2.8372-.1675.944,1.2778,1.3491,1.4464.3988h0Z" style="fill:#75b23b;"/><path d="M39.6973,130.2872c.5321-3.8601,4.9172-5.2842,7.9649-6.6924,2.6718-1.2345,5.4376-2.9313,6.3057-5.9279h-1.4464c.5995,1.9132,1.2523,4.233-.387,5.8357-1.3323,1.3025-3.3944,1.715-5.1062,2.2685-3.2493,1.0507-6.5222,2.4081-8.5917,5.2547-.496.6822.6447,1.5738,1.1779.9089,2.3029-2.8715,5.5328-4.6643,9.1383-5.319l-.9226-.9226c-.9679,3.8009-5.1657,5.3203-8.4544,6.5416-.8893.3303-.5403,1.7307.3988,1.4464,1.5738-.4765,3.1477-.9529,4.7215-1.4294.1907-.0577.7462-.363.9183-.179.0833.089-.39.8534-.4391.9372-.3814.6517-.8596,1.2318-1.3739,1.7825-1.7617,1.8865-3.9193,3.4401-5.0287,5.8445-.9658,2.0932-.8257,4.3608.8849,6.0156,1.7057,1.6499,5.8442,2.7024,5.6041,5.601l1.1285-.6476c-2.2208-1.2952-4.4416-2.5905-6.6624-3.8857l-.7571,1.2952c4.1436,1.8667,7.7786,4.6912,10.4078,8.4174l.6476-1.1285c-4.1818-.0539-8.2587-2.2115-10.1718-6.013l-1.2952.7571c2.1971,2.8804,5.2384,4.8515,8.7347,5.7842,1.8721.4994,3.727.8659,5.0066,2.4606,1.1561,1.4409,1.6609,3.3062,2.1263,5.0573l.9226-.9226c-6.4523-2.0301-12.3061-5.9003-16.3896-11.3315-.5731-.7623-1.876-.0155-1.2952.7571,4.3313,5.7608,10.4302,9.8637,17.286,12.0208.5553.1747,1.0649-.387.9226-.9226-.8524-3.2071-2.0958-6.509-5.4378-7.7942-1.9567-.7524-4.0088-.9858-5.896-1.9664-1.8239-.9477-3.4365-2.2633-4.685-3.9-.5745-.7532-1.7402-.1273-1.2952.7571,2.1445,4.2613,6.7887,6.6956,11.467,6.7559.5341.0069.9811-.6559.6476-1.1285-2.7775-3.9365-6.5585-6.979-10.9459-8.9555-.8618-.3882-1.6094.7981-.7571,1.2952,2.2208,1.2952,4.4416,2.5905,6.6624,3.8857.5228.3049,1.0828-.0949,1.1285-.6476.2453-2.9617-2.7705-4.3992-4.8593-5.7603-1.4592-.9509-2.5762-2.2026-2.18-4.0571.3496-1.6367,1.4845-2.9881,2.6391-4.1368,1.0511-1.0457,2.1839-2.0137,3.1294-3.1609.6934-.8413,1.64-2.0183,1.641-3.1715.0011-1.2656-1.081-1.6386-2.1601-1.3658-1.8146.4587-3.6043,1.0912-5.396,1.6336l.3988,1.4464c3.8129-1.416,8.3888-3.2176,9.502-7.5893.15-.5891-.3666-1.0235-.9226-.9226-3.8249.6945-7.3567,2.6579-9.8002,5.7047l1.1779.9089c2.5755-3.5429,7.1193-4.0805,10.8876-5.6464,1.5623-.6492,3.0272-1.5994,3.6901-3.2239.7464-1.8293.2229-3.8429-.3416-5.6445-.2196-.701-1.2365-.7246-1.4464,0-1.0179,3.5138-5.1502,4.7629-8.1001,6.1492-2.7267,1.2814-5.7234,3.2276-6.1705,6.4711-.1301.944,1.315,1.3523,1.4464.3988h0Z" style="fill:#75b23b;"/><path d="M63.8392,176.8479c-.1128.4332-.2414,1.0233-.4509,1.022-.2366-.0015-.3438-.6103-.4049-1.02l-.6131.7453c-.0372.0452-.0919.0838-.1398.0961-.2692.0695-.1815-.602-.0606-1.1127-.4291.2676-.9469.6896-1.098.4941-.0354-.0459-.053-.099-.0211-.1579l.4687-.8647c-.4214.1473-.9776.3117-1.1867.2144-.1992-.0927.3488-.5859.7859-.8776-.4588-.0813-1.1336.0251-1.1879-.2292-.0118-.0551.0531-.1298.1197-.1587l.9267-.4016c-.424-.1366-1.0215-.3425-1.022-.5301-.0006-.2159.6609-.2168,1.1996-.2193-.2912-.2718-.8062-.654-.7732-.8184.0412-.2053.7144-.0279,1.2242.148-.2088-.3614-.5108-.9044-.4153-1.0164.1647-.1932.6819.2267,1.0683.4982-.0338-.4462-.1159-1.0164.0551-1.0768.1846-.0651.5507.4545.7894.8288.114-.3756.2068-.9681.4248-1.0118.2314-.0463.3409.5655.4379,1.0246.2599-.3184.5715-.875.8035-.8134.0674.0179.1389.1167.1279.2051l-.1063.8552.8374-.4933c.0595-.035.1586-.021.2036.0047.204.116-.2091.6573-.3983,1.0346.4192-.1123.7447-.2657,1.1546-.1945.2535.044-.324.5835-.7702.8704l.8128.0494c.1294.0079.3755.0794.3775.2004-.2064.3287-.7166.3267-1.0111.5573.401.1408.763.232,1.0212.5066-.2121.3229-.7317.1278-1.1881.2624l.6599.6305c.0468.0447.0582.1274.0438.1727-.0662.2084-.6899-.0199-1.1705-.1499l.3793.8286c.0324.0708.0105.168-.053.2166-.042.0322-.1538.0096-.2165-.0306l-.8181-.524.0874.6698c.0218.1669-.0173.3491-.1641.4619-.3571-.2373-.5399-.5621-.7398-.8969Z" style="fill:#fe9e07;"/><path d="M60.0619,111.1621c-.1128.4332-.2414,1.0233-.4509,1.022-.2366-.0015-.3438-.6103-.4049-1.02l-.6131.7453c-.0372.0452-.0919.0838-.1398.0961-.2692.0695-.1815-.602-.0606-1.1127-.4291.2676-.9469.6896-1.098.4941-.0354-.0459-.053-.099-.0211-.1579l.4687-.8647c-.4214.1473-.9776.3117-1.1867.2144-.1992-.0927.3488-.5859.7859-.8776-.4588-.0813-1.1336.0251-1.1879-.2292-.0118-.0551.0531-.1298.1197-.1587l.9267-.4016c-.424-.1366-1.0215-.3425-1.022-.5301-.0006-.2159.6609-.2168,1.1996-.2193-.2912-.2718-.8062-.654-.7732-.8184.0412-.2053.7144-.0279,1.2242.148-.2088-.3614-.5108-.9044-.4153-1.0164.1647-.1932.6819.2267,1.0683.4982-.0338-.4462-.1159-1.0164.0551-1.0768.1846-.0651.5507.4545.7894.8288.114-.3756.2068-.9681.4248-1.0118.2314-.0463.3409.5655.4379,1.0246.2599-.3184.5715-.875.8035-.8134.0674.0179.1389.1167.1279.2051l-.1063.8552.8374-.4933c.0595-.035.1586-.021.2036.0047.204.116-.2091.6573-.3983,1.0346.4192-.1123.7447-.2657,1.1546-.1945.2535.044-.324.5835-.7702.8704l.8128.0494c.1294.0079.3755.0794.3775.2004-.2064.3287-.7166.3267-1.0111.5573.401.1408.763.232,1.0212.5066-.2121.3229-.7317.1278-1.1881.2624l.6599.6305c.0468.0447.0582.1274.0438.1727-.0662.2084-.6899-.0199-1.1705-.1499l.3793.8286c.0324.0708.0105.168-.053.2166-.042.0322-.1538.0096-.2165-.0306l-.8181-.524.0874.6698c.0218.1669-.0173.3491-.1641.4619-.3571-.2373-.5399-.5621-.7398-.8969Z" style="fill:#fe9e07;"/><path d="M43.61,164.0971c-.0268-.0061-.0396.0094-.0285.0345l.985,2.2235c.0111.0251.0426.048.07.0507l2.5019.2512c.0274.0027.0392-.0149.0264-.0392l-1.0005-1.896c-.0128-.0243-.0453-.0493-.0721-.0554l-2.4822-.5693Z" style="fill:#ceb53a;"/><path d="M47.9889,117.9651c-.0275-.0008-.035-.0182-.0166-.0387l1.6883-1.8854c.0183-.0205.0556-.0338.0828-.0296l2.4788.3848c.0272.0042.0334.0234.0138.0427l-1.5941,1.568c-.0196.0193-.0581.0344-.0856.0336l-2.5673-.0754Z" style="fill:#ceb53a;"/><path d="M56.5253,163.2733c-.3913.3414-.833.4851-1.3571.6713,1.4548.0901,2.6254,1.1037,2.7236,2.4416-.7392.0708-1.4584-.1235-2.0096-.5351-.5715-.378-.8895-.9036-1.0828-1.5248-.1552,1.3553-1.2404,2.3937-2.7337,2.5123-.1116-1.3359.8683-2.5139,2.3399-2.8437-1.5114-.1151-2.6339-1.1046-2.7572-2.46,1.4598-.1146,2.733.7353,3.0957,2.062.0917-.6402.3348-1.2062.8355-1.6699.4862-.485,1.1642-.7862,1.8965-.8354.0891.8332-.2863,1.6022-.9506,2.1817Z" style="fill:#fe6b84;"/><path d="M39.2115,136.596c-.3913.3414-.833.4851-1.3571.6713,1.4548.0901,2.6254,1.1037,2.7236,2.4416-.7392.0708-1.4584-.1235-2.0096-.5351-.5715-.378-.8895-.9036-1.0828-1.5248-.1552,1.3553-1.2404,2.3937-2.7337,2.5123-.1116-1.3359.8683-2.5139,2.3399-2.8437-1.5114-.1151-2.6339-1.1046-2.7572-2.46,1.4598-.1146,2.733.7353,3.0957,2.062.0917-.6402.3348-1.2062.8355-1.6699.4862-.485,1.1642-.7862,1.8965-.8354.0891.8332-.2863,1.6022-.9506,2.1817Z" style="fill:#fe6b84;"/><path d="M58.65,105.6787c.006-.428.3611-.7424.7834-.7557.3772-.0119.7927.2866.8071.6838.0111.3054-.101.6005-.0189.8849l.3848-.6476c.2222-.3741.6744-.5887,1.0696-.4145.4197.1851.6031.6267.3538,1.0141l-.4456.6925c.262-.0886.4422-.2122.6399-.341.4111-.2678.9028-.2242,1.1771.1318.2627.3409.1235.8374-.2965,1.0482l-.7988.4008c.385.0168.71-.0631,1.0764-.0217.3929.0444.6617.3595.6688.6888.007.322-.2675.7015-.6589.7084l-1.0701.0188.8265.4077c.3846.1897.4629.5889.2916.9335-.1589.3197-.6421.5108-1.0076.332l-.8574-.4193.5095.7996c.2332.366-.0968.8066-.499.9219-.4483.1285-.8528-.0798-1.026-.4786l-.3526-.5504c-.0867.2828.0221.5306.0187.7773-.0064.4668-.3707.7836-.8209.7733-.4675-.0107-.7742-.3403-.7767-.7965l-.0038-.6848-.5101.7787c-.2054.3135-.7464.3288-1.0412.1481-.3243-.1988-.4679-.599-.2562-.9248l.4874-.7499-.9386.4882c-.4218.1278-.821-.0546-.9864-.3825-.1644-.326.0088-.7427.3881-.9169.2418-.111.473-.1875.7097-.3756l-1.0902-.03c-.3754-.0103-.5655-.3834-.5706-.6875-.0049-.2995.2355-.5916.6029-.6806.3659-.0886.7229.03,1.1225-.017l-.7016-.3534c-.4062-.2046-.6167-.5397-.4564-.9205.1558-.3704.6549-.6281,1.06-.4175l.8737.4542-.433-.6405c-.2435-.3602-.1689-.7994.2213-1.0314.3582-.213.8709-.1563,1.0997.2196l.4336.7124.011-.7805Z" style="fill:#41820b;"/><path d="M62.6884,170.878c.006-.428.3611-.7424.7834-.7557.3772-.0119.7927.2866.8071.6838.0111.3054-.101.6005-.0189.8849l.3848-.6476c.2222-.3741.6744-.5887,1.0696-.4145.4197.1851.6031.6267.3538,1.0141l-.4456.6925c.262-.0886.4422-.2122.6399-.341.4111-.2678.9028-.2242,1.1771.1318.2627.3409.1235.8374-.2965,1.0482l-.7988.4008c.385.0168.71-.0631,1.0764-.0217.3929.0444.6617.3595.6688.6888.007.322-.2675.7015-.6589.7084l-1.0701.0188.8265.4077c.3846.1897.4629.5889.2916.9335-.1589.3197-.6421.5108-1.0076.332l-.8574-.4193.5095.7996c.2332.366-.0968.8066-.499.9219-.4483.1285-.8528-.0798-1.026-.4786l-.3526-.5504c-.0867.2828.0221.5306.0187.7773-.0064.4668-.3707.7836-.8209.7733-.4675-.0107-.7742-.3403-.7767-.7965l-.0038-.6848-.5101.7787c-.2054.3135-.7464.3288-1.0412.1481-.3243-.1988-.4679-.599-.2562-.9248l.4874-.7499-.9386.4882c-.4218.1278-.821-.0546-.9864-.3825-.1644-.326.0088-.7427.3881-.9169.2418-.111.473-.1875.7097-.3756l-1.0902-.03c-.3754-.0103-.5655-.3834-.5706-.6875-.0049-.2995.2355-.5916.6029-.6806.3659-.0886.7229.03,1.1225-.017l-.7016-.3534c-.4062-.2046-.6167-.5397-.4564-.9205.1558-.3704.6549-.6281,1.06-.4175l.8737.4542-.433-.6405c-.2435-.3602-.1689-.7994.2213-1.0314.3582-.213.8709-.1563,1.0997.2196l.4336.7124.011-.7805Z" style="fill:#41820b;"/><path d="M226.5748,105.8626c-.5456,3.0745,2.6647,4.4179,5.1765,4.6704,1.6854.1695,3.3452.177,5.0002.5914,1.4935.374,2.9242.9503,4.2667,1.7036,5.8129,3.2614,9.23,9.1788,10.3593,15.6178.6494,3.7031.6006,7.5065.3102,11.2426-.2824,3.6326-.719,7.3061-1.8904,10.7727-1.0601,3.1371-2.8039,6.0386-5.299,8.2415-2.8179,2.488-6.2186,3.2787-9.7757,4.1294-2.6541.6347-7.2405,1.6655-7.5583,5.0647-.2577,2.7562,3.3728,4.2966,4.9691,1.9179.5394-.8038-.7594-1.5554-1.2952-.7571-.537.8002-1.8676.4446-2.1346-.3996-.2358-.7454.1864-1.5283.7005-2.0375,1.2473-1.2356,3.2299-1.7142,4.8717-2.1345,2.9452-.7541,5.9645-1.2395,8.6292-2.7917,5.1225-2.9839,8.0026-8.4365,9.2213-14.075,1.3291-6.1495,1.7736-12.9153.7701-19.1401-.9157-5.6801-3.498-11.0256-7.9622-14.751-2.2186-1.8514-4.8007-3.2688-7.6036-4.0029-1.5557-.4075-3.1183-.5208-4.7151-.6267-1.5226-.101-5.0066-.5143-4.5944-2.8372.1675-.944-1.2778-1.3491-1.4464-.3988h0Z" style="fill:#75b23b;"/><path d="M249.975,149.0468c-.5321,3.8601-4.9172,5.2842-7.9649,6.6924-2.6718,1.2345-5.4376,2.9313-6.3057,5.9279h1.4464c-.5995-1.9132-1.2523-4.233.387-5.8357,1.3323-1.3025,3.3944-1.715,5.1062-2.2685,3.2493-1.0507,6.5222-2.4081,8.5917-5.2547.496-.6822-.6447-1.5738-1.1779-.9089-2.3029,2.8715-5.5328,4.6643-9.1383,5.319l.9226.9226c.9679-3.8009,5.1657-5.3203,8.4544-6.5416.8893-.3303.5403-1.7307-.3988-1.4464-1.5738.4765-3.1477.9529-4.7215,1.4294-.1907.0577-.7462.363-.9183.179-.0833-.089.39-.8534.4391-.9372.3814-.6517.8596-1.2318,1.3739-1.7825,1.7617-1.8865,3.9193-3.4401,5.0287-5.8445.9658-2.0932.8257-4.3608-.8849-6.0156-1.7057-1.6499-5.8442-2.7024-5.6041-5.601l-1.1285.6476c2.2208,1.2952,4.4416,2.5905,6.6624,3.8857l.7571-1.2952c-4.1436-1.8667-7.7786-4.6912-10.4078-8.4174l-.6476,1.1285c4.1818.0539,8.2587,2.2115,10.1718,6.013l1.2952-.7571c-2.1971-2.8804-5.2384-4.8515-8.7347-5.7842-1.8721-.4994-3.727-.8659-5.0066-2.4606-1.1561-1.4409-1.6609-3.3062-2.1263-5.0573l-.9226.9226c6.4523,2.0301,12.3061,5.9003,16.3896,11.3315.5731.7623,1.876.0155,1.2952-.7571-4.3313-5.7608-10.4302-9.8637-17.286-12.0208-.5553-.1747-1.0649.387-.9226.9226.8524,3.2071,2.0958,6.509,5.4378,7.7942,1.9567.7524,4.0088.9858,5.896,1.9664,1.8239.9477,3.4365,2.2633,4.685,3.9.5745.7532,1.7402.1273,1.2952-.7571-2.1445-4.2613-6.7887-6.6956-11.467-6.7559-.5341-.0069-.9811.6559-.6476,1.1285,2.7775,3.9365,6.5585,6.979,10.9459,8.9555.8618.3882,1.6094-.7981.7571-1.2952-2.2208-1.2952-4.4416-2.5905-6.6624-3.8857-.5228-.3049-1.0828.0949-1.1285.6476-.2453,2.9617,2.7705,4.3992,4.8593,5.7603,1.4592.9509,2.5762,2.2026,2.18,4.0571-.3496,1.6367-1.4845,2.9881-2.6391,4.1368-1.0511,1.0457-2.1839,2.0137-3.1294,3.1609-.6934.8413-1.64,2.0183-1.641,3.1715-.0011,1.2656,1.081,1.6386,2.1601,1.3658,1.8146-.4587,3.6043-1.0912,5.396-1.6336l-.3988-1.4464c-3.8129,1.416-8.3888,3.2176-9.502,7.5893-.15.5891.3666,1.0235.9226.9226,3.8249-.6945,7.3567-2.6579,9.8002-5.7047l-1.1779-.9089c-2.5755,3.5429-7.1193,4.0805-10.8876,5.6464-1.5623.6492-3.0272,1.5994-3.6901,3.2239-.7464,1.8293-.2229,3.8429.3416,5.6445.2196.701,1.2365.7246,1.4464,0,1.0179-3.5138,5.1502-4.7629,8.1001-6.1492,2.7267-1.2814,5.7234-3.2276,6.1705-6.4711.1301-.944-1.315-1.3523-1.4464-.3988h0Z" style="fill:#75b23b;"/><path d="M225.8331,102.4862c.1128-.4332.2414-1.0233.4509-1.022.2366.0015.3438.6103.4049,1.02l.6131-.7453c.0372-.0452.0919-.0838.1398-.0961.2692-.0695.1815.602.0606,1.1127.4291-.2676.9469-.6896,1.098-.4941.0354.0459.053.099.0211.1579l-.4687.8647c.4214-.1473.9776-.3117,1.1867-.2144.1992.0927-.3488.5859-.7859.8776.4588.0813,1.1336-.0251,1.1879.2292.0118.0551-.0531.1298-.1197.1587l-.9267.4016c.424.1366,1.0215.3425,1.022.5301.0006.2159-.6609.2168-1.1996.2193.2912.2718.8062.654.7732.8184-.0412.2053-.7144.0279-1.2242-.148.2088.3614.5108.9044.4153,1.0164-.1647.1932-.6819-.2267-1.0683-.4982.0338.4462.1159,1.0164-.0551,1.0768-.1846.0651-.5507-.4545-.7894-.8288-.114.3756-.2068.9681-.4248,1.0118-.2314.0463-.3409-.5655-.4379-1.0246-.2599.3184-.5715.875-.8035.8134-.0674-.0179-.1389-.1167-.1279-.2051l.1063-.8552-.8374.4933c-.0595.035-.1586.021-.2036-.0047-.204-.116.2091-.6573.3983-1.0346-.4192.1123-.7447.2657-1.1546.1945-.2535-.044.324-.5835.7702-.8704l-.8128-.0494c-.1294-.0079-.3755-.0794-.3775-.2004.2064-.3287.7166-.3267,1.0111-.5573-.401-.1408-.763-.232-1.0212-.5066.2121-.3229.7317-.1278,1.1881-.2624l-.6599-.6305c-.0468-.0447-.0582-.1274-.0438-.1727.0662-.2084.6899.0199,1.1705.1499l-.3793-.8286c-.0324-.0708-.0105-.168.053-.2166.042-.0322.1538-.0096.2165.0306l.8181.524-.0874-.6698c-.0218-.1669.0173-.3491.1641-.4619.3571.2373.5399.5621.7398.8969Z" style="fill:#fe9e07;"/><path d="M229.6104,168.172c.1128-.4332.2414-1.0233.4509-1.022.2366.0015.3438.6103.4049,1.02l.6131-.7453c.0372-.0452.0919-.0838.1398-.0961.2692-.0695.1815.602.0606,1.1127.4291-.2676.9469-.6896,1.098-.4941.0354.0459.053.099.0211.1579l-.4687.8647c.4214-.1473.9776-.3117,1.1867-.2144.1992.0927-.3488.5859-.7859.8776.4588.0813,1.1336-.0251,1.1879.2292.0118.0551-.0531.1298-.1197.1587l-.9267.4016c.424.1366,1.0215.3425,1.022.5301.0006.2159-.6609.2168-1.1996.2193.2912.2718.8062.654.7732.8184-.0412.2053-.7144.0279-1.2242-.148.2088.3614.5108.9044.4153,1.0164-.1647.1932-.6819-.2267-1.0683-.4982.0338.4462.1159,1.0164-.0551,1.0768-.1846.0651-.5507-.4545-.7894-.8288-.114.3756-.2068.9681-.4248,1.0118-.2314.0463-.3409-.5655-.4379-1.0246-.2599.3184-.5715.875-.8035.8134-.0674-.0179-.1389-.1167-.1279-.2051l.1063-.8552-.8374.4933c-.0595.035-.1586.021-.2036-.0047-.204-.116.2091-.6573.3983-1.0346-.4192.1123-.7447.2657-1.1546.1945-.2535-.044.324-.5835.7702-.8704l-.8128-.0494c-.1294-.0079-.3755-.0794-.3775-.2004.2064-.3287.7166-.3267,1.0111-.5573-.401-.1408-.763-.232-1.0212-.5066.2121-.3229.7317-.1278,1.1881-.2624l-.6599-.6305c-.0468-.0447-.0582-.1274-.0438-.1727.0662-.2084.6899.0199,1.1705.1499l-.3793-.8286c-.0324-.0708-.0105-.168.053-.2166.042-.0322.1538-.0096.2165.0306l.8181.524-.0874-.6698c-.0218-.1669.0173-.3491.1641-.4619.3571.2373.5399.5621.7398.8969Z" style="fill:#fe9e07;"/><path d="M246.0623,115.2369c.0268.0061.0396-.0094.0285-.0345l-.985-2.2235c-.0111-.0251-.0426-.048-.07-.0507l-2.5019-.2512c-.0274-.0027-.0392.0149-.0264.0392l1.0005,1.896c.0128.0243.0453.0493.0721.0554l2.4822.5693Z" style="fill:#ceb53a;"/><path d="M241.6834,161.369c.0275.0008.035.0182.0166.0387l-1.6883,1.8854c-.0183.0205-.0556.0338-.0828.0296l-2.4788-.3848c-.0272-.0042-.0334-.0234-.0138-.0427l1.5941-1.568c.0196-.0193.0581-.0344.0856-.0336l2.5673.0754Z" style="fill:#ceb53a;"/><path d="M233.147,116.0607c.3913-.3414.833-.4851,1.3571-.6713-1.4548-.0901-2.6254-1.1037-2.7236-2.4416.7392-.0708,1.4584.1235,2.0096.5351.5715.378.8895.9036,1.0828,1.5248.1552-1.3553,1.2404-2.3937,2.7337-2.5123.1116,1.3359-.8683,2.5139-2.3399,2.8437,1.5114.1151,2.6339,1.1046,2.7572,2.46-1.4598.1146-2.733-.7353-3.0957-2.062-.0917.6402-.3348,1.2062-.8355,1.6699-.4862.485-1.1642.7862-1.8965.8354-.0891-.8332.2863-1.6022.9506-2.1817Z" style="fill:#fe6b84;"/><path d="M250.4608,142.738c.3913-.3414.833-.4851,1.3571-.6713-1.4548-.0901-2.6254-1.1037-2.7236-2.4416.7392-.0708,1.4584.1235,2.0096.5351.5715.378.8895.9036,1.0828,1.5248.1552-1.3553,1.2404-2.3937,2.7337-2.5123.1116,1.3359-.8683,2.5139-2.3399,2.8437,1.5114.1151,2.6339,1.1046,2.7572,2.46-1.4598.1146-2.733-.7353-3.0957-2.062-.0917.6402-.3348,1.2062-.8355,1.6699-.4862.485-1.1642.7862-1.8965.8354-.0891-.8332.2863-1.6022.9506-2.1817Z" style="fill:#fe6b84;"/><path d="M231.0222,173.6553c-.006.428-.3611.7424-.7834.7557-.3772.0119-.7927-.2866-.8071-.6838-.0111-.3054.101-.6005.0189-.8849l-.3848.6476c-.2222.3741-.6744.5887-1.0696.4145-.4197-.1851-.6031-.6267-.3538-1.0141l.4456-.6925c-.262.0886-.4422.2122-.6399.341-.4111.2678-.9028.2242-1.1771-.1318-.2627-.3409-.1235-.8374.2965-1.0482l.7988-.4008c-.385-.0168-.71.0631-1.0764.0217-.3929-.0444-.6617-.3595-.6688-.6888-.007-.322.2675-.7015.6589-.7084l1.0701-.0188-.8265-.4077c-.3846-.1897-.4629-.5889-.2916-.9335.1589-.3197.6421-.5108,1.0076-.332l.8574.4193-.5095-.7996c-.2332-.366.0968-.8066.499-.9219.4483-.1285.8528.0798,1.026.4786l.3526.5504c.0867-.2828-.0221-.5306-.0187-.7773.0064-.4668.3707-.7836.8209-.7733.4675.0107.7742.3403.7767.7965l.0038.6848.5101-.7787c.2054-.3135.7464-.3288,1.0412-.1481.3243.1988.4679.599.2562.9248l-.4874.7499.9386-.4882c.4218-.1278.821.0546.9864.3825.1644.326-.0088.7427-.3881.9169-.2418.111-.473.1875-.7097.3756l1.0902.03c.3754.0103.5655.3834.5706.6875.0049.2995-.2355.5916-.6029.6806-.3659.0886-.7229-.03-1.1225.017l.7016.3534c.4062.2046.6167.5397.4564.9205-.1558.3704-.6549.6281-1.06.4175l-.8737-.4542.433.6405c.2435.3602.1689.7994-.2213,1.0314-.3582.213-.8709.1563-1.0997-.2196l-.4336-.7124-.011.7805Z" style="fill:#41820b;"/><path d="M226.9839,108.456c-.006.428-.3611.7424-.7834.7557-.3772.0119-.7927-.2866-.8071-.6838-.0111-.3054.101-.6005.0189-.8849l-.3848.6476c-.2222.3741-.6744.5887-1.0696.4145-.4197-.1851-.6031-.6267-.3538-1.0141l.4456-.6925c-.262.0886-.4422.2122-.6399.341-.4111.2678-.9028.2242-1.1771-.1318-.2627-.3409-.1235-.8374.2965-1.0482l.7988-.4008c-.385-.0168-.71.0631-1.0764.0217-.3929-.0444-.6617-.3595-.6688-.6888-.007-.322.2675-.7015.6589-.7084l1.0701-.0188-.8265-.4077c-.3846-.1897-.4629-.5889-.2916-.9335.1589-.3197.6421-.5108,1.0076-.332l.8574.4193-.5095-.7996c-.2332-.366.0968-.8066.499-.9219.4483-.1285.8528.0798,1.026.4786l.3526.5504c.0867-.2828-.0221-.5306-.0187-.7773.0064-.4668.3707-.7836.8209-.7733.4675.0107.7742.3403.7767.7965l.0038.6848.5101-.7787c.2054-.3135.7464-.3288,1.0412-.1481.3243.1988.4679.599.2562.9248l-.4874.7499.9386-.4882c.4218-.1278.821.0546.9864.3825.1644.326-.0088.7427-.3881.9169-.2418.111-.473.1875-.7097.3756l1.0902.03c.3754.0103.5655.3834.5706.6875.0049.2995-.2355.5916-.6029.6806-.3659.0886-.7229-.03-1.1225.017l.7016.3534c.4062.2046.6167.5397.4564.9205-.1558.3704-.6549.6281-1.06.4175l-.8737-.4542.433.6405c.2435.3602.1689.7994-.2213,1.0314-.3582.213-.8709.1563-1.0997-.2196l-.4336-.7124-.011.7805Z" style="fill:#41820b;"/></svg>