<?xml version="1.0" encoding="UTF-8"?><svg id="a" xmlns="http://www.w3.org/2000/svg" viewBox="0 0 200.77483 269.64909"><polygon points="4.40614 16.21724 11.52696 15.69385 18.60387 14.77512 25.71386 14.22682 32.8363 13.79034 39.95191 13.29459 47.07196 12.87397 54.17285 12.1246 61.30779 11.93837 68.44159 11.77214 75.56061 11.30241 82.69499 11.27954 89.81926 10.94402 96.95 10.85817 104.07942 10.56319 111.21346 10.35629 118.34172 10.75514 125.47536 10.60198 132.60306 10.96479 139.74173 10.96754 146.86889 11.377 153.99626 11.70192 161.11045 12.26066 168.24025 12.58574 175.38088 12.84599 182.4567 13.87279 189.59286 14.25259 196.65616 15.33403 200.36274 19.33373 200.64749 26.56461 200.45626 33.79534 200.61017 41.02729 200.48186 48.25803 200.48621 55.49063 200.44558 62.71775 200.5302 69.94359 200.61577 77.17245 200.69419 84.40361 200.45435 91.63109 200.38046 98.86024 200.77483 106.09224 200.63184 113.32093 200.71924 120.55314 200.62754 127.78339 200.43218 135.01508 200.70313 142.24628 200.26543 149.47955 200.31118 156.71102 200.76147 163.94453 200.48232 171.17916 200.51159 178.4127 200.57216 185.64638 200.40907 192.8809 200.75627 200.11654 200.34721 207.34734 200.55436 214.58127 200.66978 221.81519 200.43988 229.04924 200.75059 236.28516 200.57881 243.52359 200.47657 250.75973 200.28657 258.00084 200.5233 265.24195 196.16309 269.213 189.07204 269.5974 181.97872 269.62854 174.88902 269.59254 167.79768 269.51786 160.70353 269.63367 153.61265 269.48801 146.5183 269.60579 139.42588 269.32843 132.33204 269.61162 125.23869 269.46845 118.14331 269.25576 111.04969 269.34686 103.95407 269.43346 96.85735 269.55758 89.7617 269.28494 82.66592 269.24535 75.56932 269.17984 68.47161 269.42752 61.37865 269.59669 54.28261 269.64909 47.18659 269.38713 40.09044 269.25576 32.99246 269.41983 25.89833 269.21114 18.79803 269.46954 11.69285 269.17223 4.58767 269.37898 .04516 265.23555 .11907 258.04259 .25435 250.84988 .21502 243.65568 .25805 236.46281 .44282 229.26831 .28966 222.07875 .11164 214.89041 .54072 207.70001 .30258 200.5063 .30875 193.31661 .36329 186.12535 .45801 178.9313 .21391 171.74004 .46236 164.54602 .27603 157.35329 .32979 150.15949 .27822 142.96602 .20441 135.77046 .37852 128.57707 .52688 121.38161 .58181 114.18489 .27853 106.9887 .28907 99.79286 .51501 92.59652 .55451 85.39877 .53018 78.20574 .71041 71.00991 .60732 63.81365 .57189 56.61737 .51626 49.41921 .80144 42.22546 .32705 35.0243 .54361 27.81924 .82539 20.61429 4.40614 16.21724" style="fill:#75422c;"/><polyline points="169.40391 264.85557 195.72035 264.85557 195.72035 238.27283" style="fill:none; stroke:#ceb53a; stroke-linejoin:round; stroke-width:9px;"/><polyline points="170.38961 17.46605 195.79034 19.54355 195.79034 45.79971" style="fill:none; stroke:#ceb53a; stroke-linejoin:round; stroke-width:9px;"/><polygon points="10.42055 15.92617 17.7205 15.31432 24.99451 14.45522 32.30277 14.02509 39.58818 13.32379 46.89784 12.90929 54.20677 12.4977 61.51436 12.07246 68.81569 11.50922 76.12161 11.04379 83.44383 10.99092 90.76167 10.85219 98.0803 10.74084 105.39758 10.29641 112.72247 10.42149 120.04231 10.34673 127.36128 10.60358 134.67989 10.8914 141.99724 11.21498 149.31981 11.39425 156.64713 11.5261 163.95386 12.07234 171.25352 12.72382 178.53302 13.5644 185.8631 13.90884 193.15374 14.6777 196.55701 18.9712 196.71299 26.07218 196.65686 33.17299 196.70869 40.27502 196.80163 47.37585 196.97035 54.4785 196.80298 61.57578 196.82641 68.67181 196.75886 75.77079 197.01962 82.87203 196.59812 89.96966 196.69155 97.06893 196.98189 104.17101 196.7893 111.26982 196.92585 118.3721 196.72686 125.47245 196.95319 132.57422 196.8565 139.6755 196.65547 146.77882 196.61828 153.88036 197.00617 160.98392 196.92237 168.08857 196.83781 175.19215 196.90424 182.29587 196.53865 189.40041 196.75447 196.50606 196.78455 203.60694 196.81313 210.71091 196.54022 217.81487 196.62602 224.91895 196.78868 232.02487 196.68859 239.12693 196.91804 246.23517 196.56858 253.3483 196.57271 260.46142 192.64246 264.6041 185.36658 264.42572 178.08902 264.33334 170.80858 264.37972 163.53149 264.74592 156.25084 264.64404 148.97217 264.68412 141.69206 264.6913 134.41243 264.76029 127.13072 264.47097 119.85083 264.80298 112.56888 264.37361 105.2858 264.59106 98.00382 264.3585 90.72169 264.56205 83.43873 264.41646 76.15464 264.51205 68.87542 264.7205 61.59304 264.40946 54.31067 264.35785 47.02818 264.34156 39.74381 264.53538 32.4569 264.50887 25.1723 264.66194 17.8827 264.62367 10.5931 264.38962 6.49862 260.45548 6.34691 253.17757 6.64831 245.89909 6.60309 238.62132 6.71182 231.34191 6.46143 224.06748 6.47012 216.79472 6.74392 209.51932 6.66574 202.24108 6.79601 194.96685 6.81333 187.69077 6.45503 180.41127 6.76972 173.1361 6.72184 165.85684 6.5997 158.57945 6.37057 151.30045 6.67147 144.02273 6.5998 136.74238 6.88448 129.46436 6.87599 122.18386 6.42152 114.90157 6.49274 107.62115 6.50016 100.3405 6.6787 93.05927 6.77466 85.77677 6.91001 78.49921 6.74171 71.21804 6.86631 63.93732 6.7701 56.65615 6.73934 49.37319 6.84158 42.08789 6.8384 34.80475 6.64414 27.51633 6.99183 20.2287 10.42055 15.92617" style="fill:#cdac82;"/><polygon points="10.42055 15.92617 17.7205 15.31432 24.99451 14.45522 32.30277 14.02509 39.58818 13.32379 46.89784 12.90929 54.20677 12.4977 61.51436 12.07246 68.81569 11.50922 76.12161 11.04379 83.44383 10.99092 90.76167 10.85219 98.0803 10.74084 105.39758 10.29641 112.72247 10.42149 120.04231 10.34673 127.36128 10.60358 134.67989 10.8914 141.99724 11.21498 149.31981 11.39425 156.64713 11.5261 163.95386 12.07234 171.25352 12.72382 178.53302 13.5644 185.8631 13.90884 193.15374 14.6777 196.55701 18.9712 196.71299 26.07218 196.65686 33.17299 196.70869 40.27502 196.80163 47.37585 196.97035 54.4785 196.80298 61.57578 196.82641 68.67181 196.75886 75.77079 197.01962 82.87203 196.59812 89.96966 196.69155 97.06893 196.98189 104.17101 196.7893 111.26982 196.92585 118.3721 196.72686 125.47245 196.95319 132.57422 196.8565 139.6755 196.65547 146.77882 196.61828 153.88036 197.00617 160.98392 196.92237 168.08857 196.83781 175.19215 196.90424 182.29587 196.53865 189.40041 196.75447 196.50606 196.78455 203.60694 196.81313 210.71091 196.54022 217.81487 196.62602 224.91895 196.78868 232.02487 196.68859 239.12693 196.91804 246.23517 196.56858 253.3483 196.57271 260.46142 192.64246 264.6041 185.36658 264.42572 178.08902 264.33334 170.80858 264.37972 163.53149 264.74592 156.25084 264.64404 148.97217 264.68412 141.69206 264.6913 134.41243 264.76029 127.13072 264.47097 119.85083 264.80298 112.56888 264.37361 105.2858 264.59106 98.00382 264.3585 90.72169 264.56205 83.43873 264.41646 76.15464 264.51205 68.87542 264.7205 61.59304 264.40946 54.31067 264.35785 47.02818 264.34156 39.74381 264.53538 32.4569 264.50887 25.1723 264.66194 17.8827 264.62367 10.5931 264.38962 6.49862 260.45548 6.34691 253.17757 6.64831 245.89909 6.60309 238.62132 6.71182 231.34191 6.46143 224.06748 6.47012 216.79472 6.74392 209.51932 6.66574 202.24108 6.79601 194.96685 6.81333 187.69077 6.45503 180.41127 6.76972 173.1361 6.72184 165.85684 6.5997 158.57945 6.37057 151.30045 6.67147 144.02273 6.5998 136.74238 6.88448 129.46436 6.87599 122.18386 6.42152 114.90157 6.49274 107.62115 6.50016 100.3405 6.6787 93.05927 6.77466 85.77677 6.91001 78.49921 6.74171 71.21804 6.86631 63.93732 6.7701 56.65615 6.73934 49.37319 6.84158 42.08789 6.8384 34.80475 6.64414 27.51633 6.99183 20.2287 10.42055 15.92617" style="fill:none; stroke:#cdac82; stroke-miterlimit:10;"/><polyline points="167.21388 260.08198 192.22173 260.08198 192.22173 233.97683" style="fill:#cdac82; stroke:#cdac82; stroke-linejoin:round; stroke-width:9px;"/><polyline points="168.15057 17.13708 192.28824 19.17726 192.28824 44.9617" style="fill:#cdac82; stroke:#cdac82; stroke-linejoin:round; stroke-width:9px;"/><polygon points="4.18698 5.85868 11.27159 5.2662 18.33981 4.54003 25.40869 3.86545 32.49436 3.34521 39.57118 2.68971 46.67249 2.36526 53.75529 1.76388 60.85811 1.50826 67.94947 1.03166 75.04532 .66846 82.14881 .52082 89.25281 .41964 96.35859 .45778 103.46163 0 110.56495 .01642 117.66951 .1337 124.7734 .37441 131.87267 .79113 138.9856 .82619 146.08683 1.14367 153.18539 1.52588 160.28612 1.91776 167.38596 2.37755 174.46216 3.10782 181.50972 4.10735 188.56474 4.99505 192.16952 8.94007 192.32966 16.17095 192.25246 23.40168 192.35259 30.63363 192.40355 37.86437 192.18012 45.09697 192.31954 52.32409 192.15427 59.54994 192.48084 66.77879 192.04745 74.00995 192.23447 81.23743 192.04079 88.46658 192.35627 95.69858 192.31745 102.92727 192.07698 110.15949 192.51393 117.38974 192.24193 124.62142 192.42222 131.85263 192.31807 139.08589 192.51877 146.31736 192.08704 153.55087 192.09206 160.7855 192.17018 168.01905 192.03872 175.25273 192.16685 182.48724 192.36999 189.72288 192.06319 196.95368 192.51998 204.18761 192.07941 211.42154 192.32818 218.65558 192.49803 225.8915 192.22986 233.12993 192.4364 240.36607 192.17914 247.60718 192.14094 254.8483 188.09991 258.77773 181.03519 259.15444 173.97407 259.25815 166.91132 259.17005 159.84578 258.84876 152.78348 258.80152 145.71773 258.79667 138.65391 259.09433 131.58867 259.26816 124.52392 258.86447 117.45714 259.07574 110.39212 258.92215 103.32511 258.9451 96.257 259.15049 89.18996 259.24933 82.12278 259.01 75.05479 259.08435 67.98569 259.05885 60.92133 259.26153 53.85391 259.01042 46.78649 258.96333 39.71895 258.82492 32.64959 259.28372 25.58405 259.25603 18.51238 258.98504 11.43584 258.78378 4.35931 259.12451 .03933 254.84197 .4237 247.64946 .35939 240.45645 .25196 233.26215 .07234 226.06896 .05107 218.87415 0 211.68475 .21338 204.49699 .36895 197.30617 .44441 190.11293 .54326 182.92338 .47245 175.73193 .07755 168.53716 .4085 161.34676 .43081 154.15239 .5941 146.96019 .11268 139.7656 .18033 132.57231 .1592 125.37684 .51754 118.1837 .48705 110.98797 .25439 103.79083 .1957 96.59502 .64712 89.39983 .26289 82.20258 .51856 75.00515 .63194 67.81232 .36868 60.61583 .36547 53.41973 .26635 46.22336 .61823 39.02579 .60519 31.83159 .44294 24.63092 .42848 17.42552 .53865 10.22029 4.18698 5.85868" style="fill:#68452e;"/><polyline points="162.4351 254.46191 187.67528 254.46191 187.67528 227.87917" style="fill:#68452e; stroke:#ceb53a; stroke-linejoin:round; stroke-width:9px;"/><polyline points="163.38049 7.07239 187.74241 9.1499 187.74241 35.40605" style="fill:#68452e; stroke:#ceb53a; stroke-linejoin:round; stroke-width:9px;"/><polygon points="35.89899 30.40321 43.11291 29.15767 50.3787 28.28474 57.67179 27.71079 64.96561 27.16545 72.2538 26.56887 79.56967 26.46021 86.87319 26.10782 94.18371 25.7871 101.49884 25.84346 108.81384 25.80748 116.12535 26.10039 123.43633 26.3426 130.74047 26.834 138.0291 27.5077 145.28657 28.46449 152.57292 29.19523 154.95958 32.44176 154.80124 39.63609 154.89198 46.82676 154.78694 54.01909 155.04976 61.21426 154.76638 68.40613 154.97315 75.60151 154.71118 82.79493 154.73601 89.98979 154.7579 97.18416 154.89719 104.38059 155.07722 111.57523 154.93798 118.7719 154.81498 125.96968 154.69785 133.16638 154.87568 140.36322 154.88427 147.56088 154.83569 154.75967 155.0592 161.95364 154.75198 169.15073 154.73687 176.34781 155.06036 183.54502 154.93257 190.74408 155.00375 197.93924 154.99776 205.14066 154.77406 212.34703 154.72979 219.55339 152.25015 222.69436 144.98641 222.81286 137.72061 222.64215 130.45369 222.70305 123.18787 222.58815 115.9219 222.58711 108.6551 222.84875 101.38716 222.81082 94.12409 222.74925 86.85787 222.88471 79.59167 222.55145 72.32533 222.83867 65.05712 222.92438 57.78638 222.56543 50.51794 222.56921 43.24452 222.67294 35.97109 222.85331 33.35525 219.54877 33.43063 212.39216 33.39937 205.23905 33.23614 198.08414 33.2917 190.92666 33.37144 183.7725 33.51531 176.61492 33.2435 169.45878 33.30127 162.30162 33.29679 155.14487 33.37614 147.98617 33.50922 140.82932 33.24238 133.66996 33.53322 126.51017 33.42334 119.35097 33.498 112.19186 33.53964 105.03189 33.52491 97.87073 33.32974 90.71414 33.56768 83.55498 33.50491 76.39546 33.57272 69.23597 33.61117 62.0746 33.61231 54.91707 33.62699 47.75333 33.54165 40.58455 33.69249 33.41605 35.89899 30.40321" style="fill:#4e3423;"/><g style="opacity:.2;"><path d="M44.84025,48.68214c-1.92187,1.48408-2.08364,4.31697-.81665,6.29212,1.51993,2.36948,4.72324,2.75093,7.17995,1.77585,5.02075-1.99277,6.08211-8.48597,3.72257-12.88122-2.69109-5.01284-9.25744-6.52604-14.4192-5.06274-5.02461,1.42441-8.82233,5.53716-10.68315,10.31324-1.96971,5.05557-1.69608,10.70494.86144,15.49851,2.64387,4.95543,7.33045,8.65974,12.5699,10.56125,5.82524,2.11411,12.27042,1.75657,18.04636-.3465,6.09503-2.21925,11.37042-6.24174,15.42622-11.27225,8.926-11.07113,11.68165-25.43667,13.16534-39.21571.19615-1.82162.37339-3.6452.54556-5.46922.02206-.23369-.2587-.43815-.47469-.3616-6.53873,2.31728-11.98086,6.71718-17.90698,10.18801-2.96697,1.7377-6.09525,3.24738-9.45636,4.04155-3.47258.82051-7.9888.86806-10.01851-2.64681-.89692-1.55321-.95568-3.58654.46264-4.84531,1.1297-1.00261,2.99181-1.39014,4.1865-.29072.35468.3264.88642-.20264.53033-.53033-2.18421-2.01004-5.9464-.31143-6.4937,2.43196-.32991,1.65369.28711,3.31749,1.35286,4.57969,1.21306,1.43666,2.97419,2.20075,4.81171,2.44058,3.82476.49921,7.83666-.91831,11.2461-2.53033,3.47374-1.64242,6.67559-3.78887,9.88968-5.87817,3.68237-2.3937,7.43364-4.76213,11.59511-6.23692l-.47469-.3616c-1.24289,13.16806-2.86306,26.78854-9.60023,38.44681-3.05981,5.29482-7.14786,10.04464-12.28911,13.40926-5.01842,3.28423-10.96166,5.28749-16.99652,5.11962-10.42775-.29006-21.25952-8.24106-21.54145-19.30771-.12356-4.85009,1.7383-9.79866,5.17207-13.25033,3.69307-3.71231,9.25029-5.31742,14.27768-3.57782,2.42382.8387,4.56997,2.49624,5.71615,4.82102,1.07334,2.17704,1.28228,4.80817.52204,7.11644-.82811,2.51435-2.94585,4.48694-5.62245,4.81528-2.66445.32685-5.21691-1.26581-5.36633-4.08653-.061-1.15163.32203-2.32873,1.25836-3.05177.3766-.29081.00356-.94266-.37854-.6476h0Z" style="fill:#dcddce;"/><path d="M90.55675,19.13662c-7.46289,7.40767-17.30242,12.28259-27.49246,14.65492-5.277,1.22853-11.08731,1.55603-15.93759-1.25072-3.9086-2.26181-6.55961-6.44448-5.62914-11.04924.4558-2.25568,1.74057-4.38205,3.81094-5.48643,2.20867-1.17815,5.22801-.98779,6.93033.96601.31765.36458.84626-.16772.53033-.53033-1.50702-1.72966-3.95592-2.23243-6.13349-1.72388-2.0964.48959-3.82895,1.95602-4.85824,3.82223-2.25603,4.09041-1.21736,9.10821,1.98742,12.36051,3.88401,3.94161,9.63059,4.97995,14.94696,4.40639,5.80022-.62576,11.58132-2.59995,16.86178-5.03027,5.72191-2.63349,11.03649-6.16499,15.5135-10.60887.34305-.34051-.18724-.87088-.53033-.53033h0Z" style="fill:#dcddce;"/><path d="M43.78203,29.63366c-4.59263-5.07233-10.67753-8.75847-17.31202-10.44781-3.25327-.82838-7.14205-1.47528-10.09139.56908-1.19145.82587-2.15906,2.04052-2.43825,3.48878-.27795,1.44179.12937,2.93445.9508,4.13315,2.27152,3.3148,6.58036,3.55892,10.14247,2.57824.46475-.12795.26742-.85172-.19938-.72321-3.04466.83823-6.76593.81992-8.96405-1.79697-.91381-1.0879-1.47483-2.56496-1.20663-3.99183.27247-1.4496,1.3114-2.61399,2.56031-3.33639,2.89942-1.67709,6.59541-.8753,9.63594-.0418,2.97528.81561,5.83135,2.03859,8.48182,3.61657,2.94583,1.75382,5.60939,3.94158,7.91004,6.48252.32465.35856.85376-.17312.53033-.53033h0Z" style="fill:#dcddce;"/><path d="M11.16814,31.13612c6.54965,5.59946,11.20013,13.24496,13.35421,21.57573,1.08296,4.18828,1.52912,8.53745,1.26844,12.85741-.11656,1.93169-.29596,4.0128-1.33036,5.70305-1.18112,1.92999-3.42641,2.27915-5.22926.93097-2.21747-1.65824-2.53387-4.73224-2.82628-7.277-.149-1.29668-.27942-2.80811.43206-3.9743.59198-.97031,1.88976-1.70043,2.98183-1.11443.42524.22819.80446-.41905.37854-.6476-1.95181-1.04735-4.01221.67286-4.4772,2.56143-.30791,1.25059-.14699,2.5535.01311,3.8125.16168,1.27142.32745,2.55587.72771,3.77847.70287,2.14696,2.3353,4.20207,4.7291,4.44729,2.09144.21425,3.63838-1.28878,4.39773-3.09299.86227-2.04876.96163-4.38571,1.01428-6.57909.05737-2.3899-.10223-4.78082-.45194-7.14519-.70433-4.76192-2.22125-9.40007-4.4328-13.67437-2.49355-4.81932-5.89258-9.16459-10.01884-12.69222-.365-.31205-.89792.21607-.53033.53033h0Z" style="fill:#dcddce;"/><path d="M14.65012,105.55868c1.36379-7.79255,4.34575-15.56034,10.2766-21.02437,2.79441-2.57446,6.14963-4.51793,9.84328-5.45525,4.1023-1.04102,8.38232-.88095,12.56374-.52833,4.75213.40075,9.50854,1.06455,14.28667.73286l-.09969-.7366c-4.91749,1.91041-9.91237,4.03359-13.87418,7.61183-3.58237,3.23554-6.11585,7.87121-6.06124,12.78658.05164,4.64777,2.93199,9.38121,7.67274,10.4648,4.23091.96706,9.18365-1.92159,9.08095-6.58082-.04889-2.21814-1.2517-4.52688-3.36785-5.40924-1.95277-.81423-4.65952-.25896-5.566,1.81584-.19136.43799.45462.82024.6476.37854.77866-1.78225,3.11655-2.21966,4.77071-1.44478,1.72472.80793,2.69808,2.73317,2.76269,4.57869.15575,4.44839-4.75941,6.98217-8.66417,5.79635-4.30483-1.30732-6.68669-5.75617-6.58332-10.05838.10612-4.41678,2.36065-8.54477,5.53601-11.51942,3.89879-3.65235,8.93156-5.78778,13.84544-7.69679.36241-.14079.35683-.7683-.09969-.7366-8.65268.60065-17.35379-2.17486-25.9553-.42749-7.64773,1.55362-13.74431,7.11321-17.34943,13.86483-2.22602,4.16887-3.57665,8.74802-4.38877,13.38837-.08261.47203.64002.6747.72321.19938h0Z" style="fill:#dcddce;"/><path d="M22.1026,124.74747c1.39515,1.01691,2.91833,2.11254,3.67294,3.72123.69521,1.48205.63935,3.47043-.84984,4.4433-1.20951.79015-2.83203.67755-4.14652.23924-1.48608-.49552-2.80899-1.52011-3.8057-2.7129-2.03793-2.43886-2.73542-5.76423-1.64484-8.77115,1.0696-2.94907,3.68992-5.25582,6.84202-5.6339,3.18879-.38248,6.27622,1.04316,8.0485,3.71012,1.72485,2.59559,2.48603,5.81835,4.81663,8.00131,2.05403,1.92392,4.9617,2.83357,7.75008,2.62509,2.89059-.21613,5.52598-1.65685,7.36347-3.88733,2.12669-2.58154,3.12698-5.95663,2.71447-9.27862-.43526-3.50519-2.27677-6.74315-4.94357-9.03606-.36424-.31318-.89707.215-.53033.53033,2.63517,2.26572,4.47276,5.50168,4.77553,8.99314.28328,3.26655-.86683,6.57736-3.15156,8.93875-2.27648,2.35286-5.54538,3.45195-8.77854,2.86213-1.52276-.27779-2.996-.89837-4.20505-1.87373-1.31867-1.06379-2.19121-2.51003-2.94111-4.00602-1.44739-2.88743-2.69209-5.94893-5.77383-7.44246-2.71814-1.31731-6.05851-1.2777-8.66508.29381-2.61324,1.57553-4.34387,4.463-4.57907,7.49565-.23959,3.08912,1.20431,6.20215,3.54594,8.19102,2.01132,1.70833,5.39977,3.03582,7.81795,1.32005,1.21835-.86445,1.68362-2.33892,1.47682-3.78223-.2318-1.61779-1.21855-2.94951-2.41254-4.01357-.63732-.56797-1.32905-1.07246-2.01824-1.57479-.39052-.28465-.76516.3658-.37854.6476h0Z" style="fill:#dcddce;"/><path d="M42.0641,127.67591c-1.37129-.25081-2.62106-.98691-3.49039-2.08061-.88762-1.11671-1.26735-2.56933-1.07761-3.98027.19159-1.42475.96234-2.73671,2.17114-3.52831,1.16204-.76097,2.6506-1.07076,4.00089-.68347.67478.19354,1.44132.62322,1.63747,1.35068.14907.55286-.08609,1.27726-.6853,1.43109-.46717.11993-.26916.84349.19938.72321.70397-.18072,1.15484-.81811,1.25301-1.51665.11191-.79632-.24685-1.53646-.86519-2.03389-1.30413-1.04913-3.25785-1.07307-4.76701-.49815-1.60347.61085-2.84542,1.86355-3.409,3.48826-.5578,1.60806-.40749,3.44801.43052,4.93153.91436,1.61869,2.57743,2.78594,4.40272,3.11978.47187.0863.67423-.63636.19938-.72321h0Z" style="fill:#dcddce;"/><path d="M55.2073,126.4863c-1.67329-2.42776-.22668-6.12184,2.6336-6.80432,3.20308-.76428,6.30577,1.88714,6.31745,5.09669.0067,1.84035-.82794,3.60288-2.22014,4.79493l.58897.45443c1.35155-2.76824,4.35849-4.53057,7.43908-4.35853,3.08733.17242,5.83146,2.28079,7.06171,5.06761l.6476-.37854c-1.21384-2.5506-2.63607-5.66496-1.23674-8.4416.59193-1.17455,1.7277-2.01072,3.05792-2.09644,1.33716-.08618,2.29744.72693,2.87248,1.86663.52852,1.04749.7882,2.20974,1.34307,3.24666.50378.94144,1.29007,1.70835,2.23425,2.20561,1.86679.98316,4.24855.94942,5.94867-.36451,1.91128-1.47713,2.71773-4.19978,1.85129-6.46314-.17082-.44623-.89621-.25254-.72321.19938.84713,2.21289-.07829,4.95558-2.21124,6.0745-2.11345,1.1087-5.0283.2996-6.27975-1.72941-1.12518-1.82428-1.21559-4.56652-3.44796-5.51429-2.1816-.92622-4.57635.50437-5.45303,2.54152-1.2858,2.98781.10393,6.1373,1.39665,8.85364.20927.43974.83935.05581.6476-.37854-1.33983-3.03502-4.37365-5.24964-7.70932-5.43907-3.32143-.18862-6.62886,1.7441-8.08668,4.72999-.18887.38684.2608.73543.58897.45443,2.79132-2.39002,3.42328-7.08464.55228-9.67732-2.63976-2.38386-7.03974-2.12949-8.69105,1.2564-.80011,1.64056-.82684,3.64858.22992,5.18183.27215.39486.92245.02024.6476-.37854h0Z" style="fill:#dcddce;"/><path d="M71.97489,66.72347c-2.03882.31003-4.02365-.92962-5.22175-2.49901-1.34161-1.75739-1.95996-3.94608-2.55094-6.04163-.29634-1.05078-.59294-2.23896.01092-3.24007.46864-.77693,1.32329-1.25715,2.17136-1.51111,1.7093-.51187,3.87399-.26003,5.14418,1.09092,1.16518,1.23926,1.12387,3.65025-.54085,4.44827-.43506.20856-.05505.85545.37854.6476,1.72115-.82507,2.10054-3.12068,1.32636-4.72609-.93925-1.94772-3.41647-2.64162-5.41436-2.40292-2.19872.26269-4.35476,1.69465-4.15552,4.1468.10442,1.28518.57266,2.5804.97046,3.80013.39165,1.20087.86198,2.39248,1.53284,3.46738,1.38524,2.21953,3.83123,3.95607,6.54814,3.54293.47562-.07232.27356-.79512-.19938-.72321h0Z" style="fill:#dcddce;"/><path d="M60.24965,75.88391c-4.65542-.02365-9.76681-.73071-13.01093-4.43019-.68567-.78191-1.25643-1.68599-1.62022-2.66258-.34739-.93258-.59985-2.01556-.28598-2.99279.3859-1.20151,1.66524-1.36264,2.75506-1.47941,1.18471-.12693,2.40584-.14824,3.57008.13759,1.1812.28999,2.26103.90428,2.95712,1.92261.64582.94479.91562,2.09538.49722,3.18737-.17283.45108.55198.64627.72321.19938.83697-2.18444-.65474-4.59535-2.62858-5.54681-1.20618-.58143-2.55475-.76481-3.88315-.73382-.64107.01495-1.27984.07943-1.9146.16815-.64446.09007-1.30885.22348-1.85019.60668-1.98168,1.40279-.96504,4.50414.02891,6.18765,1.20348,2.0384,3.14775,3.61262,5.29672,4.5676,2.93882,1.30599,6.18363,1.60241,9.36532,1.61857.48268.00245.48327-.74754,0-.75h0Z" style="fill:#dcddce;"/><path d="M21.64672,85.51233c-1.50674,1.79809-2.2337,4.19927-1.95516,6.5334.27038,2.26575,1.46847,4.29049,3.27586,5.67435,1.74647,1.33722,4.19739,2.14731,6.37766,1.53447,1.13215-.31823,2.07052-1.0727,2.55945-2.15009.47005-1.03578.56525-2.2137.45921-3.33576-.12874-1.36232-.61931-2.68757-1.95961-3.26229-1.42176-.60964-2.95116-.18723-4.35495.25265-.45902.14384-.26304.86811.19938.72321,1.12988-.35405,2.34957-.74738,3.53147-.40655,1.10508.31867,1.61586,1.23687,1.78749,2.31773.30987,1.95137-.11009,4.37864-2.22949,5.07932-1.89384.62611-4.05958-.04692-5.64291-1.14484-1.61879-1.1225-2.78754-2.84324-3.17144-4.77945-.44919-2.26551.16907-4.73451,1.65336-6.50582.30804-.36761-.21984-.90086-.53033-.53033h0Z" style="fill:#dcddce;"/><path d="M70.59058,104.42637c1.33771,2.56283.97739,6.36983-2.21295,7.30606-2.63651.7737-4.43658-1.71545-4.82109-4.02161-.84445-5.06469,3.67793-9.99973,8.59519-10.42537,6.38058-.55231,11.6472,4.39513,17.93264,4.56025,2.43885.06407,5.03897-.5976,6.79959-2.37381,1.47881-1.4919,2.12578-3.81155,1.61421-5.85222-.55288-2.20542-2.49852-3.62696-4.76786-3.22961-2.01153.35221-3.82648,2.01692-3.50043,4.17771.07177.47566.79457.27355.72321-.19938-.31856-2.11121,2.13743-3.47857,3.97323-3.2871,2.41061.25143,3.30705,2.98348,2.88277,5.06247-.54294,2.66043-2.81431,4.26541-5.37141,4.76855-2.8982.57026-5.79957-.24521-8.49498-1.27637-2.96963-1.13607-5.86672-2.56823-9.0497-3.00588-2.63987-.36297-5.27841.07968-7.50115,1.59463-3.69479,2.51825-6.17683,7.90599-3.69148,12.08551,1.30985,2.20273,3.9788,3.01281,6.1743,1.53431,2.60838-1.75654,2.7131-5.21114,1.36353-7.79669-.22342-.42804-.87091-.04929-.6476.37854h0Z" style="fill:#dcddce;"/><path d="M76.87885,97.44141c-1.63412-1.08506-3.0974-2.41393-4.33933-3.93237-.61659-.75387-1.18096-1.55834-1.66872-2.40167-.51599-.89213-.80973-1.83995-.21177-2.76736.48246-.74827,1.28481-1.30047,2.05641-1.71636.76688-.41335,1.60171-.69339,2.46058-.83777,1.67805-.28209,3.53754.02705,4.89391,1.10248.75193.59618,1.42038,1.49916,1.36298,2.5048-.05039.88296-.78895,1.75627-1.7141,1.69705-.48195-.03085-.48009.71927,0,.75.967.0619,1.82726-.60078,2.21484-1.45685.42831-.94602.25614-2.00377-.29-2.86643-1.09484-1.72938-3.22834-2.55994-5.20939-2.57668-2.00832-.01697-4.05578.7272-5.56846,2.05212-.79725.69829-1.42492,1.65721-1.29396,2.75875.13477,1.13351.87226,2.16188,1.51297,3.07233,1.4612,2.07637,3.30068,3.86133,5.41549,5.26557.40323.26775.77923-.38154.37854-.6476h0Z" style="fill:#dcddce;"/><path d="M93.82763,235.49771c0-14.16105,0-28.32211,0-42.48316,0-14.1194,0-28.23881,0-42.35821s0-28.23881,0-42.35821c0-14.16105,0-28.32211,0-42.48316,0-14.07775,0-28.15551,0-42.23326v-5.24792c0-.48259-.75-.48339-.75,0,0,14.16105,0,28.32211,0,42.48316,0,14.1194,0,28.23881,0,42.35821,0,14.1194,0,28.23881,0,42.35821,0,14.16105,0,28.32211,0,42.48316s0,28.15551,0,42.23326v5.24792c0,.48259.75.48339.75,0h0Z" style="fill:#dcddce;"/><path d="M15.78674,175.45695c-1.89323-.26243-2.86047-2.46738-1.59021-3.9656.70749-.83445,1.69289-.86048,2.70682-.93698.87214-.0658,1.669-.26723,2.34731-.84209,1.15324-.97734,1.59936-2.64452,1.36648-4.10164-.28832-1.804-1.62873-3.26109-3.07043-4.27765-1.99012-1.40326-4.37862-2.07316-6.47442-3.28875-.41832-.24263-.79635.40527-.37854.6476,1.90265,1.10356,4.03643,1.75213,5.90707,2.91344,1.53491.95288,3.10335,2.42932,3.30814,4.32836.16611,1.54028-.59378,3.35432-2.20969,3.75802-1.01472.2535-2.08618.04804-3.05593.51608-.74373.35895-1.30951,1.03073-1.59859,1.79739-.69351,1.83923.61645,3.90802,2.5426,4.17502.47203.06543.67614-.65712.19938-.72321h0Z" style="fill:#dcddce;"/><path d="M28.35184,167.28005c1.97595-.73113,2.95828-2.92187,2.59756-4.93805-.41859-2.33963-2.72154-3.77243-4.95804-3.94755-2.54003-.19889-4.87461,1.27573-6.39025,3.21708-1.67528,2.14583-2.6349,5.05488-1.20414,7.57683,1.34008,2.36209,4.06217,4.09969,6.61293,4.86498,2.54428.76335,5.42631.53187,7.66151-.97722,5.33923-3.60477,2.99454-10.92431,4.58876-16.16227,1.5311-5.03058,6.03357-9.31691,11.31825-10.07381,2.86687-.41061,6.17303.58555,7.19624,3.57261.95086,2.77584-1.19934,4.85542-3.50188,5.97035-2.30642,1.1168-4.95454,1.50941-7.01589,3.11731-2.03378,1.5864-2.74974,4.10814-2.25621,6.5932.51857,2.6111,2.30205,4.68026,4.48046,6.11288,2.24885,1.47894,5.01901,2.56422,7.69925,2.86165,1.31844.14631,2.68634.04326,3.91375-.48793,1.21226-.52464,2.16291-1.44427,2.90176-2.52432.78935-1.15387,1.38451-2.49295,1.82067-3.81813.43917-1.33432.66211-2.84508.16772-4.19735-.75591-2.06758-2.9084-3.47368-5.08968-3.4895-2.30878-.01675-4.22423,1.6401-5.00668,3.73621-.39909,1.06914-.46499,2.23052-.20323,3.33903.11088.46954.83423.27076.72321-.19938-.51727-2.19052.57541-4.66418,2.60246-5.68768,2.02088-1.02038,4.64553-.14512,5.85306,1.72055,1.5225,2.35231.09214,5.57573-1.19745,7.72116-.67288,1.11944-1.56651,2.11541-2.76901,2.67128-1.24603.576-2.6848.62101-4.02388.42672-2.5092-.36406-5.08308-1.40929-7.17794-2.82973-2.1198-1.43736-3.80502-3.57704-4.06803-6.19225-.12121-1.20519.05266-2.45446.64875-3.5214.60697-1.08641,1.59468-1.86107,2.68032-2.43394,2.07913-1.0971,4.44676-1.50531,6.48757-2.6896,1.79294-1.04045,3.37254-2.72691,3.31963-4.92778-.05246-2.18248-1.60089-4.16328-3.55315-5.03351-4.44957-1.98341-9.86216.59473-12.9909,3.84343-1.56128,1.62114-2.77591,3.57393-3.51346,5.7016-.89647,2.5861-.83575,5.30258-.96867,8.00046-.13034,2.64551-.56921,5.57224-2.55785,7.50934-1.89297,1.84391-4.74173,2.37807-7.26462,1.80967-2.5273-.56939-5.22795-2.16889-6.66588-4.37056-1.63103-2.49735-.50212-5.50017,1.33871-7.54918,1.61308-1.79551,4.00121-2.93823,6.42273-2.26856,2.22192.61448,3.77747,2.67768,3.10124,4.99885-.29034.9966-.96955,1.86518-1.95908,2.23132-.44879.16606-.2547.89122.19938.72321h0Z" style="fill:#dcddce;"/><path d="M64.42561,167.21798c.72092-2.58634,3.4993-3.58601,5.91592-3.80626,1.36841-.12472,2.77198-.14455,4.14502-.09888,1.31435.04372,2.65634.24329,3.77716.9762,1.05873.69231,1.7813,1.81971,1.64024,3.11632-.13632,1.25302-.93581,2.339-1.88299,3.12265-1.92218,1.59032-4.46254,2.23459-6.25967,4.00717-3.15974,3.11656-1.4666,8.28849,2.38495,9.89686,4.43937,1.85384,9.10127-.67911,11.87364-4.15719,3.74644-4.7001,4.82223-10.88178,8.34907-15.71834.28472-.39046-.36572-.76509-.6476-.37854-3.21942,4.41498-4.37518,9.91969-7.40981,14.43813-1.358,2.022-3.14506,3.83266-5.37797,4.86658-2.19928,1.01834-4.93341,1.15567-7.10013-.02575-1.92713-1.05079-3.1638-3.20056-2.99147-5.40827.20307-2.6016,2.5399-3.98714,4.62055-5.08395,2.04372-1.07734,4.26909-2.29862,5.01299-4.65315.68462-2.16694-.59278-4.17207-2.56306-5.07027-1.28686-.58665-2.72691-.68567-4.12224-.68909-1.48275-.00363-2.98738.00341-4.4554.23219-2.43352.37925-4.92812,1.70761-5.63239,4.2342-.1298.46566.59359.6644.72321.19938h0Z" style="fill:#dcddce;"/><path d="M61.06947,188.6206c-1.08549,1.51383-1.077,3.50899-.34255,5.17165.83231,1.88422,2.55711,3.13131,4.55955,3.52811,4.74363.93998,8.75316-2.28655,11.62605-5.67062,1.85294-2.18264,3.4913-4.54965,5.58323-6.5203.35206-.33165-.17901-.86128-.53033-.53033-3.26214,3.07301-5.43899,7.19817-9.04967,9.91741-1.67267,1.25971-3.63476,2.14632-5.75241,2.2093-1.94429.05782-3.98533-.60674-5.16935-2.22579-1.16417-1.59192-1.46586-3.84281-.27692-5.50089.28172-.39289-.36851-.76777-.6476-.37854h0Z" style="fill:#dcddce;"/><path d="M57.58677,174.87836c-3.69061,5.81274-7.54335,11.61527-12.45317,16.4855-2.38704,2.36779-5.0182,4.49127-7.92027,6.1972-3.0412,1.78772-6.32725,3.10045-9.4365,4.75825-2.93877,1.56691-5.65537,3.49324-7.768,6.09484-2.04818,2.52224-3.53556,5.49892-4.27652,8.66545-1.52267,6.50717.21006,13.65743,4.61927,18.69243,4.05568,4.63129,10.31272,7.46852,16.50349,6.93727,5.86205-.50305,11.45153-3.96457,14.35011-9.11297,2.85166-5.06507,2.66215-11.51867-.27036-16.51067-2.82228-4.80436-9.03642-8.54176-14.62147-6.20126-2.88479,1.20892-4.54363,4.01359-5.17927,6.97303-.67141,3.12597-.4067,6.75174,1.91797,9.15977,1.95681,2.02698,5.09528,2.74438,7.44853.94744,1.0687-.81606,1.84215-2.06355,1.85137-3.43607.00849-1.26471-.70882-2.43292-1.71653-3.15921-.97628-.70364-2.24452-.96242-3.37488-.49108-.439.18305-.24634.90907.19938.72321,1.24267-.51817,2.58868.00281,3.4209,1.00966.9066,1.09683.91092,2.54525.14533,3.72135-.75768,1.16395-2.14158,1.9275-3.53039,1.94005-1.48957.01346-2.89698-.73006-3.91339-1.78567-2.26726-2.35472-2.36959-6.00669-1.58874-9.00508.75523-2.89997,2.59733-5.45479,5.60258-6.24359,5.61416-1.47357,11.0459,2.60988,13.35037,7.47243,2.35981,4.97933,2.02383,10.99637-1.0535,15.58631-3.14267,4.68739-8.69867,7.67063-14.33724,7.72366-5.83944.05491-11.51683-2.85416-15.16583-7.36283-4.00122-4.94386-5.41462-11.82393-3.79007-17.95793.7812-2.94967,2.22449-5.72948,4.19299-8.06191,2.03411-2.41018,4.59552-4.19574,7.36243-5.67102,2.8306-1.50923,5.80527-2.73169,8.61174-4.28788,2.68132-1.4868,5.15784-3.31855,7.42268-5.38207,4.53944-4.13595,8.21137-9.1282,11.58464-14.23112.83349-1.26087,1.64982-2.53296,2.45996-3.80894.25947-.40867-.38932-.78534-.6476-.37854h0Z" style="fill:#dcddce;"/><path d="M74.15944,231.52888c-4.13624-5.2206-2.7312-12.47062.54235-17.71292,3.67509-5.88534,9.39286-10.01241,14.09423-14.99973,2.4948-2.64655,4.73925-5.57227,6.17817-8.93428.18783-.43887-.45806-.82141-.6476-.37854-2.83185,6.61658-8.57225,11.17988-13.60943,16.06107-4.69085,4.54558-9.30217,10.06208-9.82606,16.85583-.26441,3.42881.58443,6.92073,2.73802,9.6389.29959.37813.82711-.15575.53033-.53033h0Z" style="fill:#dcddce;"/><path d="M76.12618,211.61663c-3.72425.96951-7.63118,1.20842-11.44355.6627-1.81223-.25941-3.60471-.68694-5.33403-1.28878-1.67373-.58249-3.32887-1.37396-4.61155-2.62314-1.38548-1.34929-2.28542-3.30476-1.93647-5.25897.08427-.47196-.63837-.6745-.72321-.19938-.67031,3.75397,2.24044,6.715,5.41015,8.14622,3.66696,1.65576,7.8595,2.33082,11.86433,2.254,2.35333-.04514,4.69654-.37665,6.97372-.96945.46672-.1215.26884-.8451-.19938-.72321h0Z" style="fill:#dcddce;"/><path d="M60.57266,214.36898c-.12508,1.83366-.25017,3.66732-.37525,5.50097-.0138.20229.18223.375.375.375.21445,0,.36116-.17212.375-.375.12508-1.83366.25017-3.66732.37525-5.50097.0138-.20229-.18223-.375-.375-.375-.21445,0-.36116.17212-.375.375h0Z" style="fill:#dcddce;"/><path d="M71.42155,222.09939c2.33933-.56321,4.75212-.75644,7.15186-.58304.20224.01461.375-.18281.375-.375,0-.2151-.17217-.36034-.375-.375-2.46369-.17801-4.94993.0317-7.35123.60983-.46904.11292-.27043.83632.19938.72321h0Z" style="fill:#dcddce;"/><path d="M66.70167,211.72275c.64817-2.43449.94026-4.9622.86053-7.48029-.01524-.48145-.76531-.48356-.75,0,.07775,2.45547-.20166,4.90686-.83374,7.28091-.12431.4669.59895.66609.72321.19938h0Z" style="fill:#dcddce;"/><path d="M22.17129,206.15965c-2.12329,1.28498-4.78896.39514-6.29599-1.40517-1.53694-1.83604-2.08454-4.50327-1.6551-6.83026.43653-2.36539,1.96611-4.49821,4.27232-5.34037,2.10125-.76731,4.52805-.20993,5.9662,1.54621.75991.92794,1.36163,2.49198.58056,3.58055-.91201,1.27105-2.76241,1.04384-4.09739.85549-.47207-.0666-.67608.65595-.19938.72321,1.44283.20357,3.05327.3914,4.29952-.53951,1.15097-.85973,1.31968-2.34339.83617-3.62827-.90753-2.41163-3.55969-3.8905-6.08832-3.60707-2.72046.30493-4.96222,2.28653-5.90619,4.80778-.97476,2.60348-.65173,5.76076.83729,8.11064.80388,1.26864,1.96609,2.29386,3.40047,2.77888,1.45452.49183,3.10314.39749,4.42837-.40452.41241-.24958.03587-.8984-.37854-.6476h0Z" style="fill:#dcddce;"/><path d="M20.93982,236.19875c-1.99808-.31958-4.06316.46964-5.39442,1.98867-1.40541,1.60363-1.86867,3.84417-1.48526,5.91316.38049,2.0532,1.64847,3.87888,3.27864,5.14939.79381.61867,1.80119,1.32298,2.86037,1.23939,1.01948-.08045,1.66915-.87078,2.02487-1.76455.4647-1.1676.58094-2.59555.0913-3.77209-.41701-1.00202-1.30751-1.8361-2.40507-1.99614-.47212-.06884-.67595.65372-.19938.72321.83238.12137,1.49582.67749,1.85723,1.42763.44097.91526.36244,2.01263.08763,2.96318-.21207.73357-.64676,1.61243-1.51035,1.67315-.88623.06231-1.789-.62738-2.44082-1.15448-1.36255-1.10183-2.42841-2.59952-2.84228-4.31645-.42388-1.75844-.13555-3.71063.92635-5.19447,1.09416-1.52892,3.07593-2.45643,4.95181-2.15639.47218.07552.67544-.64707.19938-.72321h0Z" style="fill:#dcddce;"/><path d="M50.65997,234.56031c1.36209,1.48267,3.29926,2.34428,5.29828,2.4812,2.00423.13727,3.96004-.52118,5.50086-1.80156,1.49664-1.24367,2.56958-3.04964,2.89386-4.97289.35145-2.08441-.13878-4.55568-2.15989-5.62651-1.00044-.53005-2.25035-.60622-3.21225.05334-.90413.61994-1.44052,1.68377-1.21501,2.77853.09731.47241.82041.27248.72321-.19938-.16803-.81571.33443-1.62605,1.02643-2.03058.76034-.44448,1.69438-.31259,2.42938.11895,1.6986.99731,2.00341,3.20938,1.63225,4.98524-.70299,3.36347-3.70127,6.00655-7.18381,5.96247-1.95775-.02478-3.87435-.83292-5.20298-2.27915-.32725-.35622-.85654.17524-.53033.53033h0Z" style="fill:#dcddce;"/><path d="M93.16322,221.91074c-.6863,3.19135-2.19234,6.19006-4.35614,8.63643-.53736.60754-1.11303,1.18127-1.7235,1.71534-.62453.54638-1.33245,1.13497-2.17363,1.286-1.62136.29109-2.59494-1.52248-2.78815-2.86814-.12719-.88587.01725-1.90113.66783-2.56353.55751-.56764,1.38075-.83622,2.13865-.53851.44939.17652.64428-.54845.19938-.72321-.76903-.30208-1.65345-.14339-2.33616.29981-.76484.49652-1.2503,1.30426-1.39607,2.19935-.27064,1.66192.38331,3.77831,1.92874,4.64027,1.81092,1.01004,3.59818-.52361,4.85397-1.71593,1.3368-1.26924,2.49391-2.735,3.42747-4.32416,1.06365-1.8106,1.83932-3.79138,2.28081-5.84434.10121-.47065-.62162-.67176-.72321-.19938h0Z" style="fill:#dcddce;"/><path d="M42.97125,240.99663c-.07478,3.55858,2.08792,7.2094,5.7878,7.84034,1.72629.29438,3.53711-.09691,4.85648-1.28667,1.29409-1.16696,1.92694-3.03806,1.26944-4.70442-.35923-.91044-1.02741-1.62714-1.94401-1.98677-.89236-.35013-1.93148-.2907-2.75849.20027-.41469.24619-.03787.89481.37854.6476,1.30424-.77429,2.94621-.08131,3.55627,1.23638.6432,1.38928.12911,2.97339-.93756,3.98878-1.09312,1.04057-2.66445,1.41993-4.13679,1.19543-1.51788-.23144-2.87638-1.0475-3.80889-2.26508-1.05873-1.38239-1.5491-3.13779-1.51279-4.86587.01015-.48281-.73986-.48274-.75,0h0Z" style="fill:#dcddce;"/><path d="M93.22862,142.87492c-1.66909,5.63-6.84692,9.5247-12.65854,9.92431-2.81911.19385-6.32427-.23698-8.11237-2.70013-.87224-1.20153-1.32669-2.69716-1.5539-4.15025-.2406-1.5387-.11886-3.26491.9024-4.51931.56007-.68793,1.35395-1.10773,2.18173-1.38722.75572-.25516,1.58208-.50215,2.38397-.51881,2.11229-.04387,2.58661,2.2359,2.79627,3.88732.05997.47234.81073.47833.75,0-.19192-1.5117-.46023-3.21066-1.81163-4.14578-1.34941-.93374-3.28009-.35855-4.67672.18393-1.5051.58462-2.61002,1.65809-3.10009,3.21362-.53299,1.69177-.25285,3.57733.25755,5.24009.46102,1.50188,1.23501,2.93207,2.49831,3.90401,1.29919.99956,2.91432,1.45679,4.51941,1.65805,3.46348.43427,7.09401-.31869,10.06367-2.16534,3.009-1.87111,5.27608-4.82815,6.28315-8.22511.13747-.46371-.58612-.66181-.72321-.19938h0Z" style="fill:#dcddce;"/><path d="M72.5949,149.05422c-3.75432-5.11189-9.2442-8.88998-15.40403-10.45331-6.66906-1.69257-13.76139-.7487-19.8312,2.44626-5.50762,2.89904-10.2365,7.27681-16.13071,9.43994-2.72991,1.00185-6.09262,1.74415-8.86846.4922-3.13473-1.41381-3.54797-5.13475-2.35143-8.02903.68283-1.65168,1.86927-3.17721,3.50012-3.97188,1.67288-.81515,3.91861-.79375,5.34291.51516,1.18828,1.09201,1.75768,3.07993.80903,4.50075-.85603,1.2821-2.71898,1.77568-4.02175.90201-.40197-.26957-.77782.37983-.37854.6476,2.38644,1.6004,5.608-.44094,5.62067-3.1782.01546-3.33966-3.34796-5.21482-6.36202-4.53034-3.16602.71899-5.31937,3.86262-5.79559,6.93763-.23984,1.54869-.08491,3.20147.71057,4.57758.74014,1.28038,1.97975,2.14963,3.37222,2.59653,3.0385.97518,6.46411.14758,9.33007-1.01003,3.11205-1.25701,5.92944-3.10313,8.71038-4.95762,2.83727-1.89205,5.67797-3.8331,8.80867-5.21596,3.55484-1.57021,7.46221-2.32261,11.34428-2.24478,7.31984.14676,14.35125,3.407,19.25435,8.83462.59975.66391,1.16328,1.35834,1.69284,2.0794.28274.38498.93388.01126.6476-.37854h0Z" style="fill:#dcddce;"/><path d="M141.85808,48.79831c1.96867,1.52022,1.49977,4.84893-.36005,6.25155-2.29054,1.72746-5.7009.90202-7.6027-1.00595-3.56589-3.57745-2.60014-9.88573,1.08048-12.97156,4.15727-3.48545,10.50596-3.2628,14.95325-.48598,4.13701,2.58309,6.80155,7.1351,7.62794,11.88222.89378,5.13421-.6068,10.30535-3.86382,14.34176-3.33515,4.13323-8.18017,6.97834-13.36821,8.04917-5.82815,1.20294-11.97879.04567-17.28528-2.52539-5.53777-2.68313-10.17228-6.89241-13.71549-11.89517-7.64059-10.78798-10.05866-24.10233-11.4285-36.98231-.18112-1.70299-.3465-3.4076-.50743-5.11261l-.47469.3616c7.36862,2.61138,13.30798,7.91753,20.18848,11.47302,3.36468,1.7387,7.1762,3.24359,11.01606,3.26591,1.89713.01103,3.86634-.42074,5.3811-1.61492,1.30852-1.03159,2.26886-2.57355,2.3925-4.25693.12664-1.72429-.78481-3.28674-2.32158-4.06452-1.38664-.7018-3.07201-.69783-4.25479.39062-.35594.32755.1755.85687.53033.53033,1.04686-.96338,2.60463-.78046,3.73141-.05276,1.35153.87286,1.8388,2.4302,1.43016,3.96305-1.06232,3.98487-5.63389,4.73231-9.12612,4.15755-6.9077-1.13688-12.72718-5.48164-18.4821-9.16309-3.26231-2.08691-6.62247-4.05312-10.28606-5.35147-.21599-.07654-.49675.12792-.47469.3616,1.32975,14.08824,3.11589,28.79622,10.99696,40.93794,3.51799,5.41989,8.19192,10.09228,13.92459,13.14013,5.54422,2.94766,12.01517,4.38167,18.25629,3.29534,5.59241-.97342,10.90779-4.00147,14.46327-8.44603,3.40384-4.25501,4.93959-9.60947,4.00081-15.0022-.87734-5.03977-3.80318-9.85744-8.25106-12.50007-4.67891-2.77989-11.10886-2.84748-15.44612.65968-3.92119,3.17071-4.99154,9.51677-1.74719,13.55285,1.70423,2.12012,4.67222,3.27459,7.34056,2.5284,2.45177-.68562,3.99575-3.07246,3.64719-5.5964-.1542-1.1166-.69497-2.07415-1.58698-2.76296-.38172-.29476-.75555.35647-.37854.6476h0Z" style="fill:#dcddce;"/><path d="M95.98978,19.13552c3.97914,3.94969,8.62305,7.18474,13.62702,9.70099,5.17311,2.60131,10.81706,4.63117,16.53096,5.62427,5.43413.94448,11.31816.58242,15.8263-2.91108,3.68958-2.85918,5.57055-7.60453,3.95852-12.12614-.79361-2.22602-2.4141-4.14882-4.6616-4.98879-2.35165-.87889-5.26553-.47395-6.96329,1.47462-.3158.36245.21254.89507.53033.53033,1.49752-1.71875,3.98192-2.05638,6.07053-1.34001,2.00898.68906,3.50819,2.41786,4.24494,4.37065.73097,1.93747.81391,4.11619.22778,6.10245-.65835,2.23101-2.19664,4.14768-4.04348,5.52506-4.37573,3.26343-10.02805,3.53557-15.22518,2.59816-5.26463-.94958-10.4623-2.76573-15.27242-5.09068-5.27112-2.54776-10.15969-5.87053-14.32011-10.00017-.34294-.3404-.87353.18967-.53033.53033h0Z" style="fill:#dcddce;"/><path d="M143.82517,29.63256c4.12365-4.55436,9.44785-7.96734,15.31938-9.78591,3.01076-.93251,6.64094-1.88296,9.71458-.74226,1.32453.49157,2.53919,1.42743,3.18247,2.70407.69261,1.37455.49944,2.96834-.25811,4.27177-1.94819,3.352-6.18209,3.54494-9.54088,2.62023-.46602-.1283-.66487.59505-.19938.72321,3.18068.87568,7.0211.84411,9.44742-1.7148,2.11378-2.2293,2.35399-5.59514.06342-7.7914-2.596-2.48911-6.39689-2.2607-9.66133-1.56392-3.34218.71338-6.5768,1.9394-9.56673,3.59269-3.37882,1.86833-6.44005,4.29423-9.03116,7.15599-.32329.35705.20554.88905.53033.53033h0Z" style="fill:#dcddce;"/><path d="M175.37839,30.07436c-7.32832,6.26516-12.32492,15.10016-14.14321,24.55264-.45735,2.37756-.71876,4.79542-.76466,7.21637-.04291,2.2628-.00687,4.6475.53783,6.85618.45231,1.83403,1.42718,3.80012,3.35836,4.40806,2.1608.68023,4.3913-.7463,5.47787-2.56427.75023-1.25522,1.08983-2.70229,1.31034-4.13338.21944-1.42415.48662-2.92368.33801-4.36611-.12469-1.21031-.58852-2.329-1.59005-3.06342-.89106-.65341-2.02832-.85584-3.02333-.32191-.42546.2283-.04712.87601.37854.6476.96464-.51763,2.09174-.00151,2.74503.78191.76033.91179.82607,2.20902.75796,3.34084-.13766,2.28757-.40598,5.03576-1.7194,6.9846-1.19042,1.76633-3.68871,2.91468-5.53028,1.38951-1.44879-1.19987-1.90544-3.34469-2.09203-5.1227-.90048-8.58076,1.10021-17.4033,5.32477-24.89931,2.38169-4.22604,5.47645-8.0232,9.16459-11.17628.36744-.31413-.16518-.84251-.53033-.53033h0Z" style="fill:#dcddce;"/><path d="M173.14996,104.82787c-1.38489-7.91314-4.45136-15.80778-10.46948-21.35532-2.74513-2.53047-6.02409-4.491-9.62954-5.50241-4.14-1.16136-8.48886-1.0843-12.73746-.74764-4.944.39176-9.88691,1.12467-14.85701.77966-.45271-.03143-.46558.59446-.09969.7366,8.22747,3.19631,17.77516,7.81863,19.24061,17.56796.64458,4.28825-.9701,8.90946-4.9186,11.06447-1.86145,1.01594-4.0345,1.24862-6.04146.53292-1.91948-.6845-3.5677-2.23068-4.02189-4.26057-.46088-2.05976.29842-4.48188,2.08548-5.68839,1.67955-1.13393,4.44043-.89271,5.32324,1.12794.19277.44122.83914.05987.6476-.37854-.79595-1.82182-2.99513-2.46807-4.82446-2.05552-1.98158.44689-3.40279,2.2031-3.89626,4.10911-.52624,2.03258-.05218,4.17271,1.32383,5.76231,1.43348,1.65599,3.6679,2.57494,5.84248,2.56131,4.85395-.03043,8.5656-4.38344,9.23496-8.92929.6958-4.72538-1.28836-9.61869-4.45965-13.07757-4.08823-4.45896-9.80682-6.91111-15.3365-9.05935l-.09969.7366c8.43642.58564,16.92258-2.08905,25.31631-.53953,7.70539,1.42244,13.7971,6.91347,17.39203,13.70214,2.16443,4.08731,3.46721,8.57147,4.26194,13.11248.08305.47457.80595.27342.72321-.19938h0Z" style="fill:#dcddce;"/><path d="M164.59573,123.56844c-2.38347,1.73728-5.55688,4.4428-4.20006,7.7993,1.1469,2.83719,4.83595,2.70202,7.14281,1.53854,2.7761-1.40015,4.84635-4.20482,5.35895-7.27228.50307-3.01044-.54988-6.13504-2.69151-8.29814-2.16907-2.19082-5.28975-3.06572-8.29584-2.43535-1.48318.31102-2.8915.99159-4.03629,1.98691-1.21592,1.05716-2.0526,2.4697-2.76753,3.8944-.76032,1.51514-1.41384,3.09793-2.38754,4.49483-.93877,1.34677-2.22126,2.38949-3.72799,3.04085-2.9084,1.25729-6.36362,1.02474-9.04287-.6743-2.7299-1.73116-4.55736-4.77047-4.98628-7.95625-.46508-3.45437.7479-7.01819,2.93081-9.69219.54165-.66351,1.1455-1.26999,1.79456-1.82805.36659-.31519-.16593-.84364-.53033-.53033-4.76857,4.10002-6.64062,11.16662-3.33285,16.74725,1.46321,2.46861,3.81438,4.43588,6.62014,5.15572,2.71575.69676,5.73796.278,8.12759-1.2027,2.71112-1.6799,3.84813-4.53878,5.22632-7.26395.70528-1.39458,1.52459-2.76515,2.74454-3.77233,1.22812-1.01393,2.78711-1.63303,4.36617-1.80539,3.15993-.34492,6.17267,1.11963,7.90402,3.77923,1.73729,2.66872,1.92691,6.02759.46279,8.86218-1.45373,2.81446-4.90074,5.65446-8.2749,4.6355-1.85078-.55892-2.47161-2.46348-1.93801-4.21037.59144-1.93622,2.35118-3.20792,3.91182-4.34545.38621-.2815.01238-.93254-.37854-.6476h0Z" style="fill:#dcddce;"/><path d="M145.21214,127.86769c1.62308-.29686,3.0853-1.24263,4.05226-2.57475,1.00352-1.38248,1.32752-3.16482.96423-4.8254-.36379-1.6629-1.45271-3.09984-2.97524-3.86874-1.46891-.74182-3.33237-.91352-4.82643-.13983-.79144.40985-1.45012,1.16962-1.44833,2.09838.00155.80291.46969,1.6118,1.27855,1.81944.46776.12008.6673-.60309.19938-.72321-.5306-.13621-.77322-.72081-.72295-1.23172.06382-.64866.63048-1.11178,1.18319-1.37006,1.25715-.58746,2.82947-.39724,4.03132.23228,2.64156,1.38364,3.4469,4.88264,1.85163,7.36279-.8483,1.31885-2.25213,2.21687-3.787,2.4976-.4741.08671-.27326.80965.19938.72321h0Z" style="fill:#dcddce;"/><path d="M132.51717,126.33341c1.92613-2.7946.25456-7.04563-3.00169-7.88688-3.6205-.93536-7.229,1.97171-7.34397,5.62793-.06541,2.08015.85978,4.14772,2.43681,5.49803.32572.27889.77925-.0647.58897-.45443-1.45784-2.98593-4.76519-4.91861-8.08668-4.72999-3.33568.18943-6.36948,2.40403-7.70932,5.43907-.19157.43395.4381.81877.6476.37854,1.17349-2.46581,2.39425-5.16175,1.70266-7.94739-.55117-2.22004-2.55172-4.05256-4.94978-3.67854-2.5191.3929-2.98121,3.02455-3.85459,4.97263-.98072,2.18749-3.40175,3.46658-5.76931,2.85199-2.70852-.70311-4.09541-3.88791-3.12431-6.42465.1727-.45114-.55211-.64634-.72321-.19938-.76715,2.00398-.22529,4.36121,1.23771,5.91191,1.49801,1.58781,3.85526,1.99314,5.86755,1.22693.96988-.36929,1.84191-.97721,2.47281-1.80645.69531-.91391,1.01941-2.0327,1.42571-3.09027.43446-1.13085,1.05917-2.33875,2.33591-2.65434,1.22248-.30218,2.57182.21569,3.38874,1.14671,2.35881,2.68826.63962,6.58672-.65749,9.3123l.6476.37854c1.23207-2.79093,3.97322-4.88908,7.06171-5.06761,3.07897-.17797,6.08949,1.59433,7.43908,4.35853l.58897-.45443c-2.40931-2.06293-3.13607-6.07894-.73408-8.44462,2.21995-2.18639,6.09111-2.13251,7.62519.79468.7528,1.43642.7733,3.20824-.1602,4.56264-.27457.39838.37516.77383.6476.37854h0Z" style="fill:#dcddce;"/><path d="M107.12636,74.92266c.69089,2.39245-.77895,5.12682-3.28629,5.60548-2.67966.51156-5.05615-1.39685-5.3533-4.05329-.29769-2.66126,1.04196-5.07806,2.69898-7.04553,1.77794-2.11104,3.80544-3.96632,5.37861-6.25104,3.11701-4.52685,4.83747-9.87539,5.87067-15.23072,1.05786-5.48311,1.77175-11.50788-1.22038-16.53214-2.8392-4.76747-7.895-7.69826-12.5926-10.34762-.42095-.23741-.79942.41024-.37854.6476,4.48569,2.52985,9.31789,5.29295,12.13299,9.76721,3.33423,5.29934,2.29915,11.9217,1.03905,17.71039-1.24119,5.70183-3.35955,11.37834-7.22555,15.84069-1.8289,2.11101-4.02663,3.98234-5.36829,6.47164-1.13133,2.09905-1.59668,4.80775-.51138,7.02009,1.16068,2.36601,4.12972,3.4447,6.56589,2.47684,2.42125-.96193,3.68521-3.8139,2.97335-6.27899-.13366-.46284-.8576-.26599-.72321.19938h0Z" style="fill:#dcddce;"/><path d="M114.90259,66.91525c2.35564.3582,4.59409-.92418,6.001-2.75522.77114-1.00361,1.3194-2.15074,1.75935-3.33244.45018-1.20918.84602-2.47257,1.132-3.73125.27115-1.19338.25254-2.42206-.53438-3.41893-.65209-.82607-1.65597-1.33562-2.66419-1.58036-2.02703-.49205-4.50629-.04625-5.8403,1.67355-1.23465,1.59171-.9892,4.3847.95444,5.31642.43317.20765.81407-.43882.37854-.6476-1.42679-.68396-1.68947-2.64804-.93554-3.92809.94323-1.60144,3.1363-2.06364,4.8472-1.7729.88738.15079,1.78901.50141,2.43894,1.14194.79715.78562.88383,1.83733.66019,2.88954-.23127,1.08813-.57918,2.17266-.93574,3.2257-.3528,1.04194-.77714,2.06263-1.36098,2.99818-1.18539,1.89949-3.34085,3.55718-5.70116,3.19826-.47217-.0718-.67575.65077-.19938.72321h0Z" style="fill:#dcddce;"/><path d="M126.82721,76.10248c5.1764-.0263,10.90799-.9647,14.16634-5.43298.68073-.9335,1.19913-2.00314,1.46926-3.12854.25133-1.04709.29087-2.29535-.35382-3.21678-.75571-1.08012-2.17273-1.2018-3.37889-1.31248-1.31208-.1204-2.67394-.08854-3.93985.31053-1.27763.40276-2.38437,1.18209-3.09475,2.32968-.65926,1.06502-.91015,2.39169-.45387,3.58255.17095.44616.89634.25248.72321-.19938-.77325-2.01812.75554-4.10928,2.60421-4.84135,1.1137-.44103,2.32355-.53511,3.5103-.478.58842.02832,1.18077.08483,1.76132.18641.56701.09922,1.16001.2594,1.54983.71286.66606.77478.54867,1.97734.3072,2.89156-.26602,1.00714-.73918,1.94406-1.35176,2.78439-1.27092,1.74341-3.13598,3.02703-5.13649,3.79461-2.66825,1.02379-5.54833,1.25252-8.38225,1.26691-.48247.00245-.48348.75246,0,.75h0Z" style="fill:#dcddce;"/><path d="M164.89981,85.51123c1.32862,1.58554,1.94201,3.69768,1.76156,5.75015-.17523,1.99313-1.18981,3.8104-2.70737,5.09639-1.46765,1.24369-3.53829,2.05546-5.47849,1.75977-1.00507-.15318-1.92487-.64285-2.45377-1.53421-.52081-.87771-.63469-1.93994-.5872-2.94177.05476-1.15504.33058-2.42575,1.47856-2.95749,1.25381-.58076,2.67897-.1206,3.91519.26678.46164.14466.65914-.57914.19938-.72321-1.27613-.39988-2.65129-.79759-3.97912-.39247-1.17532.35858-1.92026,1.28212-2.19168,2.46125-.49465,2.14886-.12905,5.00066,2.04003,6.10119,2.04378,1.03696,4.63903.43951,6.50179-.71614,1.89516-1.17575,3.34341-3.0774,3.83556-5.26608.58482-2.60083-.09367-5.39331-1.80411-7.43449-.31036-.37037-.8385.16257-.53033.53033h0Z" style="fill:#dcddce;"/><path d="M115.83868,103.51641c-1.20816,2.31464-1.31592,5.39121.72228,7.28794,1.66568,1.55007,4.17418,1.74144,5.87874.15518,1.63225-1.51897,2.13447-3.98658,1.82699-6.12007-.33587-2.33043-1.55073-4.50255-3.26838-6.09976-1.82245-1.69466-4.15678-2.68971-6.64795-2.76839-3.18552-.10062-6.21408,1.10615-9.10992,2.28963-2.75017,1.12394-5.60566,2.32284-8.6285,2.30744-2.5898-.01319-5.48642-.95774-6.78103-3.3745-1.09971-2.05293-.97409-5.60419,1.62346-6.49096,1.95474-.66732,5.02692.76485,4.66942,3.13407-.07125.47216.65132.67579.72321.19938.28483-1.88768-1.05354-3.38868-2.76306-3.98602-1.87824-.6563-3.88207-.04956-4.93685,1.6692-1.10231,1.79621-.90572,4.20988.11448,5.99435,1.19008,2.08161,3.53562,3.18744,5.83618,3.49733,6.28405.84648,11.48308-3.75007,17.5295-4.4186,2.76774-.30602,5.46214.39824,7.57866,2.24173,1.86488,1.6243,3.18219,3.94218,3.38192,6.42996.19215,2.39334-.99776,5.80877-3.85219,5.87958-1.53011.03796-2.96361-1.01452-3.59861-2.36937-.7604-1.62238-.4547-3.53932.34925-5.07957.22309-.42741-.42394-.80704-.6476-.37854h0Z" style="fill:#dcddce;"/><path d="M110.57656,97.55758c1.86723-1.23985,3.5201-2.77468,4.88785-4.55055.68358-.88755,1.38467-1.84893,1.8056-2.89369.43733-1.08543.25434-2.15296-.4779-3.05518-1.26246-1.55552-3.40771-2.43113-5.3603-2.61521-1.96801-.18553-4.12729.39392-5.49395,1.88657-.76627.83692-1.28345,2.02428-.93452,3.16019.31285,1.01847,1.24084,1.89034,2.35472,1.81905.47929-.03068.48275-.7809,0-.75-.82832.05302-1.47474-.6234-1.66527-1.38836-.21251-.85318.23665-1.73413.80688-2.34421,1.20385-1.28796,3.04068-1.7714,4.75669-1.64787,1.71675.12359,3.51493.85909,4.72828,2.09969.31358.32063.59027.69538.71707,1.13088.138.47399.05818.95432-.1164,1.4079-.35586.92454-.99856,1.78853-1.58905,2.57599-1.32368,1.7652-2.96128,3.29744-4.79823,4.51718-.40026.26577-.0251.91562.37854.6476h0Z" style="fill:#dcddce;"/><path d="M96.86013,16.61787c-6.36032.80984-12.55008,3.4888-17.12746,8.04411-4.56188,4.53989-7.20208,10.94208-6.85959,17.40249.1682,3.17266,1.09353,6.22005,2.68223,8.96832,1.58925,2.74922,3.70097,5.15042,5.80327,7.51275,2.13368,2.39759,4.31035,4.79157,5.98938,7.54129,1.82912,2.99552,3.25616,6.74191,2.11667,10.24613-.95869,2.94821-3.80943,5.25079-6.99392,4.28024-1.34446-.40976-2.56547-1.4286-2.86653-2.84943-.27069-1.27751.23396-2.71283,1.1903-3.58801.49223-.45046,1.09824-.72514,1.76536-.77063.47894-.03266.48257-.7829,0-.75-2.58843.17649-4.26763,3.0301-3.64482,5.45335.7063,2.7481,4.01704,3.97202,6.56799,3.29646,2.9569-.78307,4.78123-3.79575,5.08149-6.69139.37694-3.63511-1.29695-7.18706-3.28836-10.12032-3.73267-5.49807-9.29698-9.72008-12.06669-15.87023-2.87424-6.38226-1.74185-14.07038,2.02684-19.83665,3.8232-5.84967,10.27642-9.62349,17.0199-11.07409.86123-.18526,1.73009-.33311,2.60394-.44437.47229-.06013.47829-.8109,0-.75h0Z" style="fill:#dcddce;"/><path d="M93.99923,234.96628c0-14.16105,0-28.32211,0-42.48316s0-28.23881,0-42.35821c0-14.1194,0-28.23881,0-42.35821,0-14.16105,0-28.32211,0-42.48316s0-28.15551,0-42.23326v-5.24792c0-.48259-.75-.48339-.75,0,0,14.16105,0,28.32211,0,42.48316,0,14.1194,0,28.23881,0,42.35821s0,28.23881,0,42.35821,0,28.32211,0,42.48316c0,14.07775,0,28.15551,0,42.23326v5.24792c0,.48259.75.48339.75,0h0Z" style="fill:#dcddce;"/><path d="M171.48951,175.64873c1.66648-.231,2.95121-1.85428,2.7063-3.53375-.12015-.8239-.56956-1.58556-1.22408-2.0984-.77494-.6072-1.70018-.67064-2.64674-.73351-.92587-.06149-1.73433-.27904-2.34839-1.013-.50607-.60489-.78055-1.40854-.82348-2.19055-.10534-1.91893,1.21905-3.53102,2.70019-4.59073,1.99949-1.43058,4.41493-2.10171,6.52981-3.32837.41736-.24207.04019-.89047-.37854-.6476-3.28628,1.90608-8.17764,2.86408-9.42106,7.02064-.43099,1.44073-.11353,3.11597.86276,4.26694.51984.61285,1.23694,1.00874,2.02682,1.14294.98171.16679,2.08974-.01486,2.94661.59151.78651.55657,1.23341,1.5915.99651,2.53887-.24969.99849-1.12438,1.71295-2.12608,1.85181-.47601.06598-.27341.78875.19938.72321h0Z" style="fill:#dcddce;"/><path d="M158.92441,166.02541c-2.01279-.74476-2.67883-3.47147-1.62577-5.23271,1.24831-2.08778,4.07543-2.63454,6.23543-1.8246,2.39505.89808,4.3355,3.26595,4.95268,5.72234.74223,2.95406-1.36143,5.24731-3.68114,6.73449-2.25867,1.44805-5.0191,2.20652-7.66902,1.52129-2.68054-.69315-4.47822-2.68478-5.22584-5.30862-.79675-2.79627-.49351-5.73136-.80629-8.59077-.2564-2.34402-1.00728-4.58415-2.27574-6.57736-2.45615-3.85951-6.81644-6.90675-11.49954-7.00626-2.37605-.05049-4.71276.84709-6.07511,2.8615-1.22868,1.81677-1.24401,4.11956.11509,5.8656,1.34929,1.73344,3.48982,2.57894,5.5,3.27731,2.22447.77281,4.78512,1.59964,5.97487,3.81645,1.17753,2.19403.64706,5.00646-.71741,6.98674-1.48738,2.15867-3.88841,3.53243-6.2853,4.45938-2.37942.9202-5.31581,1.72482-7.75102.5467-2.36353-1.14344-3.73874-4.11713-4.3297-6.54597-.3145-1.29259-.2873-2.65933.45284-3.80283.60021-.92732,1.56466-1.61494,2.6146-1.94124,2.26704-.70455,4.49221.4935,5.47868,2.59188.4868,1.0355.62529,2.20252.36224,3.3165-.11084.46936.61215.66968.72321.19938.52548-2.22531-.34982-4.6453-2.16586-6.03617-1.83955-1.40888-4.36881-1.31342-6.2299.01143-.87942.62603-1.5777,1.48983-1.93041,2.51614-.47217,1.37393-.22345,2.88741.23151,4.2298.83518,2.46427,2.20514,5.18277,4.73,6.25176,2.59809,1.09999,5.59862.33169,8.10604-.65005,2.47575-.96934,4.8684-2.35818,6.47196-4.53158,1.46667-1.98786,2.10934-4.77569,1.2558-7.14588-.89122-2.47482-3.20499-3.69649-5.53455-4.55196-2.32466-.85367-5.17221-1.55987-6.60386-3.7844-1.54759-2.40468-.0682-5.39811,2.33059-6.54914,2.71276-1.30168,6.05968-.50484,8.59329.84779,2.3029,1.22947,4.25787,3.08131,5.63114,5.29996,1.55618,2.51418,2.10413,5.24694,2.22144,8.171.11685,2.91259.06752,5.97135,1.46074,8.62454,1.23879,2.3591,3.59814,3.79391,6.21462,4.09834,2.82143.32828,5.63827-.74543,7.87035-2.4236,2.18254-1.64093,3.82097-3.92446,3.21374-6.77204-.53959-2.53037-2.44327-4.96167-4.75197-6.12013-2.1162-1.06187-4.75098-.99182-6.65719.49428-1.75445,1.36779-2.28312,3.72535-1.29295,5.72005.45416.91491,1.21247,1.60016,2.16833,1.95384.4533.16773.6489-.55688.19938-.72321h0Z" style="fill:#dcddce;"/><path d="M123.37446,166.48717c-.58561-2.1009-2.48748-3.45905-4.51889-4.00263-1.28643-.34423-2.62905-.41546-3.95424-.4438-1.3381-.02862-2.69389-.07374-4.01851.15352-2.05585.35271-4.23319,1.70156-4.4608,3.96061-.24302,2.41205,1.68905,4.27554,3.58594,5.40154,2.03673,1.20902,4.67745,2.08734,5.79497,4.35753.98101,1.99286.27859,4.51794-1.24139,6.03766-1.71012,1.70982-4.37658,2.11711-6.66347,1.59636-2.39931-.54635-4.42929-2.09885-5.99461-3.94946-3.95075-4.67079-4.96679-11.0409-8.54794-15.95195-.28157-.38614-.93261-.01231-.6476.37854,3.1973,4.38464,4.36051,9.84136,7.34742,14.34405,2.48635,3.7481,6.5842,6.85322,11.31436,5.99483,2.06951-.37556,3.92835-1.60807,4.89737-3.49829.88004-1.71666,1.03341-3.84413.06292-5.55876-1.19485-2.11104-3.56128-3.05237-5.57116-4.18355-2.01586-1.13455-4.69965-3.51131-3.20133-6.08047,1.57587-2.70213,5.4923-2.33923,8.14754-2.22788,2.70288.11335,6.11024.87242,6.94622,3.87153.12941.46427.85323.26707.72321-.19938h0Z" style="fill:#dcddce;"/><path d="M125.35979,188.46771c1.04522,1.45766.94408,3.38368.09616,4.91361-.97347,1.75645-2.84323,2.68819-4.80847,2.80334-4.44571.26047-7.85344-3.02809-10.46842-6.21529-1.64569-2.0058-3.1725-4.11644-5.06762-5.90169-.35117-.33081-.88255.19853-.53033.53033,3.57248,3.36537,5.89645,8.00057,10.12382,10.67222,3.43733,2.17235,8.90771,2.63401,11.29375-1.3297,1.06366-1.76695,1.24761-4.12359.00871-5.85136-.27879-.38881-.92961-.01475-.6476.37854h0Z" style="fill:#dcddce;"/><path d="M128.84249,174.72547c3.32707,5.24016,6.78249,10.45522,11.01172,15.02214,2.04964,2.2133,4.28249,4.25962,6.72806,6.0294,2.55023,1.84552,5.33545,3.25344,8.17034,4.60185,2.84588,1.35363,5.73314,2.70266,8.25724,4.61472,2.45092,1.85663,4.45221,4.27202,5.86068,7.00249,2.9282,5.67665,2.99906,12.53923.22794,18.29396-2.60311,5.40583-7.66505,9.45857-13.52913,10.76809-5.58477,1.24714-11.49753-.37239-15.7238-4.22276-4.15326-3.78385-6.06377-9.36366-4.95275-14.89054,1.08099-5.37752,4.94553-10.3085,10.53531-11.34082,2.82835-.52234,5.82434.1623,7.73028,2.4212,2.00512,2.37644,2.7545,6.06557,2.20675,9.08605-.51583,2.84446-2.78405,5.79469-5.95689,5.62523-2.74248-.14647-5.26341-3.39826-3.10673-5.77715.84346-.93037,2.12278-1.3866,3.31542-.88929.44495.18553.63909-.53986.19938-.72321-2.4103-1.00504-5.2413,1.2996-5.0852,3.82246.1764,2.851,3.17941,4.70961,5.84943,4.2312,3.05168-.5468,5.07581-3.38125,5.54317-6.2969.50235-3.13386-.22733-6.77394-2.19206-9.30763-3.88703-5.01267-11.38639-3.30703-15.36701.6292-4.08985,4.04425-5.65986,10.36727-4.21366,15.89893,1.50195,5.74488,6.28404,10.23404,11.85323,12.04157,5.91512,1.9198,12.45238.49041,17.36995-3.21384,5.29806-3.99086,8.36718-10.38916,8.31716-17.0142-.04949-6.55482-3.2847-12.84818-8.50296-16.79165-2.75435-2.08148-5.92533-3.49686-9.02223-4.97937-3.16785-1.51647-6.20025-3.20349-8.94423-5.41229-5.32176-4.28381-9.48511-9.799-13.24338-15.4537-.91295-1.37362-1.80442-2.76133-2.68846-4.15369-.258-.40636-.90733-.03054-.6476.37854h0Z" style="fill:#dcddce;"/><path d="M113.44775,231.52778c4.04728-5.10832,3.22272-12.15781.2128-17.54391-3.49286-6.2503-9.35577-10.56391-14.26032-15.61403-2.68962-2.76946-5.12092-5.8253-6.64995-9.39787-.18934-.4424-.83562-.06076-.6476.37854,2.66561,6.22816,7.91741,10.69812,12.72285,15.25192,4.71973,4.47259,9.65859,9.76112,10.53019,16.50086.44608,3.44934-.24646,7.1277-2.4383,9.89415-.29665.37442.23061.90863.53033.53033h0Z" style="fill:#dcddce;"/><path d="M110.7513,211.80841c4.00316,1.04212,8.18648,1.24463,12.27222.59777,2.01935-.31971,4.03274-.83609,5.92789-1.60923,1.68172-.68607,3.32264-1.63243,4.49162-3.05221,1.23911-1.50495,1.90355-3.4233,1.55646-5.36711-.0847-.47436-.80762-.27336-.72321.19938.67433,3.7765-2.78074,6.44564-5.8943,7.6434-3.47776,1.33787-7.26533,1.91252-10.98298,1.7991-2.17998-.06651-4.33827-.38502-6.44833-.93432-.46744-.12169-.66685.60152-.19938.72321h0Z" style="fill:#dcddce;"/><path d="M125.7542,213.83755l.37525,5.50097c.01379.20209.16248.375.375.375.19229,0,.38886-.17187.375-.375-.12508-1.83366-.25017-3.66732-.37525-5.50097-.01379-.20209-.16248-.375-.375-.375-.19229,0-.38886.17187-.375.375h0Z" style="fill:#dcddce;"/><path d="M115.8547,220.84475c-2.4013-.57813-4.88755-.78785-7.35123-.60983-.20202.0146-.375.1619-.375.375,0,.19164.17191.38967.375.375,2.39974-.17339,4.81253.01983,7.15186.58304.46903.11292.66917-.6101.19938-.72321h0Z" style="fill:#dcddce;"/><path d="M121.09841,210.99194c-.63208-2.37405-.91148-4.82544-.83374-7.28091.01529-.48276-.73473-.48224-.75,0-.07973,2.51809.21236,5.0458.86053,7.48029.12406.46596.84773.2683.72321-.19938h0Z" style="fill:#dcddce;"/><path d="M164.52703,206.27583c2.41352,1.46063,5.52589.51751,7.24104-1.56567,1.77902-2.16075,2.36335-5.23193,1.72446-7.93315-.62701-2.651-2.60937-4.93577-5.29015-5.62856-2.4717-.63875-5.26397.3737-6.59795,2.59445-.74713,1.24379-1.02796,2.98538.04239,4.13547,1.20568,1.29551,3.10626,1.10263,4.68752.87953.47595-.06715.27345-.78992-.19938-.72321-1.24954.1763-2.77968.37933-3.80799-.53956-.94245-.84217-.70826-2.24297-.15373-3.23721,1.08253-1.94089,3.47199-2.90904,5.61451-2.43775,2.35697.51846,4.17487,2.40868,4.85618,4.68713.69123,2.31163.35797,4.97146-.93567,7.01564-.69477,1.09786-1.70879,2.01375-2.95225,2.43421-1.2731.43048-2.68659.37544-3.85045-.32891-.414-.25055-.79139.39775-.37854.6476h0Z" style="fill:#dcddce;"/><path d="M166.33643,236.39053c1.68306-.2692,3.42131.44848,4.56315,1.68269,1.2307,1.33025,1.68726,3.25921,1.43855,5.02869-.24722,1.75885-1.19971,3.34686-2.48997,4.54338-.63838.592-1.41863,1.21576-2.26249,1.47439-.92664.284-1.59686-.20587-1.97098-1.03689-.77411-1.71954-.53394-4.60121,1.7513-4.93443.47582-.06938.27351-.79216-.19938-.72321-.97382.142-1.80752.82639-2.26083,1.68457-.53949,1.02132-.54575,2.23234-.28459,3.33456.21237.89633.64246,1.89572,1.52007,2.31943,1.01124.48821,2.11053-.01788,2.9674-.58876,1.71748-1.14427,3.10451-2.82799,3.71461-4.81588.61745-2.01184.37497-4.34776-.82544-6.10187-1.28945-1.88421-3.59355-2.9525-5.86077-2.58987-.47531.07602-.27356.79885.19938.72321h0Z" style="fill:#dcddce;"/><path d="M135.88657,233.49855c-2.38487,2.59598-6.50557,3.01245-9.36584.96681-1.36758-.97808-2.39695-2.44314-2.87105-4.05397-.49987-1.69841-.4652-3.8728.91787-5.16189.70301-.65524,1.77485-1.04454,2.7092-.67892.83932.32844,1.50028,1.25264,1.31109,2.17103-.09704.47108.62574.67255.72321.19938.1962-.95246-.18303-1.92361-.91894-2.55106-.77535-.66107-1.80082-.8602-2.77805-.5789-2.21623.63796-3.14061,2.9974-2.98755,5.12662.28841,4.01202,3.65734,7.46087,7.7186,7.58702,2.25724.07011,4.53776-.82596,6.0718-2.49579.32607-.35493-.20294-.8867-.53033-.53033h0Z" style="fill:#dcddce;"/><path d="M93.19043,221.57869c.77992,3.62673,2.60614,7.01319,5.19865,9.66613.65942.67479,1.36728,1.34199,2.15424,1.86682.76631.51106,1.7038.84961,2.62457.59421,1.71226-.47494,2.57759-2.51313,2.57721-4.1481-.00024-1.02319-.36268-2.07296-1.17836-2.7281-.7265-.58351-1.72549-.85636-2.61754-.50596-.44417.17447-.25079.90004.19938.72321.66003-.25926,1.37779-.09367,1.92497.34343.63944.5108.91159,1.32019.92098,2.11812.01584,1.34602-.69759,3.27831-2.22256,3.51818-.83324.13106-1.63257-.36651-2.25884-.85923-.65114-.51228-1.2569-1.09165-1.82507-1.69374-1.11441-1.18093-2.07087-2.50388-2.85205-3.92711-.88916-1.61996-1.53391-3.36087-1.92236-5.16723-.10142-.47163-.82459-.27205-.72321.19938h0Z" style="fill:#dcddce;"/><path d="M143.35561,240.4652c.0642,3.05506-1.62372,6.21241-4.73427,7.00993-1.4484.37136-3.03587.18053-4.26948-.69592-1.21535-.86348-1.95981-2.38576-1.56717-3.8685.20787-.78497.70925-1.46634,1.45216-1.81622.72131-.33971,1.59085-.32747,2.279.08106.416.24697.79368-.40114.37854-.6476-1.52554-.90567-3.53715-.27908-4.42662,1.21152-.92535,1.55072-.5835,3.47637.54573,4.81644,1.13257,1.34403,2.92445,1.96807,4.65325,1.83188,1.7606-.1387,3.40772-.97318,4.54533-2.32668,1.30339-1.55075,1.93584-3.58227,1.89352-5.59591-.01013-.48194-.76016-.48361-.75,0h0Z" style="fill:#dcddce;"/><path d="M93.12504,142.54287c1.92844,6.50482,8.24983,10.73483,14.9655,10.50144,1.64055-.05701,3.32603-.33733,4.80438-1.0796,1.4663-.73622,2.52613-1.96588,3.17611-3.45941,1.23949-2.84808,1.70002-7.12859-1.31995-9.04701-.77565-.49273-1.67882-.76758-2.56469-.98355-.88301-.21527-1.83309-.37392-2.70226-.01948-1.75449.71548-2.11484,2.7654-2.32543,4.42415-.06063.47753.68993.47311.75,0,.17847-1.40574.48537-3.38918,2.11652-3.81838.76144-.20035,1.59394.03331,2.33081.23106.70215.18843,1.39917.42181,2.0165.8138,2.78186,1.76643,2.08519,6.02643.81622,8.522-1.43484,2.82177-4.53708,3.64861-7.49426,3.67507-3.01101.02694-6.02276-.85156-8.50103-2.57272-2.55244-1.77268-4.46241-4.40893-5.34523-7.38674-.13687-.46169-.86091-.26511-.72321.19938h0Z" style="fill:#dcddce;"/><path d="M115.12956,148.90133c4.27605-5.82228,10.9174-9.80098,18.09624-10.70725,3.82576-.48297,7.74529-.14043,11.42768,1.00368,3.41324,1.06049,6.48167,2.88792,9.45176,4.83845,2.84137,1.866,5.62218,3.85478,8.66611,5.38595,2.83006,1.4236,6.0708,2.58672,9.28568,2.3881,1.46898-.09076,2.96306-.47753,4.15077-1.37904,1.25122-.94973,1.98086-2.35535,2.18573-3.90013.40702-3.06918-1.08389-6.47815-3.62789-8.24693-2.56651-1.78444-6.62655-1.52082-8.0965,1.5408-.59086,1.23064-.68176,2.75686.05754,3.94975.68778,1.10977,2.00431,1.80743,3.30644,1.79087.63942-.00814,1.2524-.19732,1.78287-.55307.39885-.26748.02383-.91744-.37854-.6476-1.1772.78946-2.79309.46772-3.73886-.54868-1.04484-1.12287-.90813-2.83733-.13048-4.06652.93291-1.47461,2.7272-2.04741,4.40218-1.7966,1.64001.24558,3.05118,1.24723,4.02495,2.5628,1.78564,2.41241,2.63118,6.41311.34242,8.80417-2.1443,2.24013-5.75627,1.96487-8.49452,1.25991-6.08791-1.56734-10.9571-5.87266-16.25872-9.01629-2.83381-1.68033-5.83991-3.00737-9.07109-3.70326-3.36753-.72526-6.85659-.82004-10.25822-.27899-7.0902,1.12774-13.53453,5.17004-17.77315,10.94136-.28599.38941.36455.76394.6476.37854h0Z" style="fill:#dcddce;"/></g><path d="M60.68697,141.23972c.99707-.86523,2.88281-.4502,2.56348.85938-.89941,3.77734-3.57031,8.55566-8.45312,8.95801-5.44824.44727-13.46875-3.52344-18.62402-17.70312-.15332,5.92578-.30762,11.85156-.39062,17.77051-2.67285,1.28906-6.75879,1.83887-6.61426-.7373.6748-14.30371,1.29688-27.53418,1.09766-45.54102-6.25098,1.08398-12.82715,2.55078-14.0293,2.65039-1.41602.11621-1.55371-3.29199-.24219-4.68262,28.85938-4.22656,38.24023-3.64258,40.0957,3.32715,1.78516,6.97754-6.72949,18.64844-14.31348,25.18555,4.94727,10.77637,10.89062,15.48828,14.71191,15.1748,2.12305-.1748,3.01465-1.45898,4.19824-5.26172ZM37.43795,103.68601c-.58887,9.30957-.9043,18.45508-1.21484,27.66992.18848-.30078.45996-.46582.86035-.7832,6.96387-5.41699,11.89941-16.4375,10.18457-22.56641-.81055-2.92383-4.31152-4.77441-8.41504-4.43652l-1.41504.11621Z" style="fill:#ceb53a;"/><path d="M60.39986,143.4614c-1.27832-.58203-2.29395-1.57617-3.04688-2.98145-.75391-1.40332-1.13477-3.0957-1.14062-5.07422-.00977-2.08984.41797-4.1875,1.28223-6.29102.86426-2.10449,2.05859-3.93262,3.58398-5.48242,1.52539-1.55078,3.24707-2.58984,5.16699-3.11816,1.60352-.44043,3.05273-.44238,4.34668-.00684,1.29395.4375,1.94629,1.44629,1.95605,3.02637-.00488,1.21777-.3877,2.36914-1.14941,3.45605-.7627,1.08594-1.77344,2.1416-3.0332,3.16602-1.25977,1.02637-3.02246,2.30176-5.28906,3.83008l-2.56934,1.76758-.07422-1.50684,1.96289-1.34668c1.73926-1.18359,3.09375-2.42578,4.06641-3.72656.97168-1.2998,1.44238-2.62402,1.41113-3.97266-.00977-.95898-.28613-1.70996-.83203-2.25293s-1.25098-.69531-2.11914-.45703c-.97363.26758-1.75586.89355-2.34863,1.87598-.5918.9834-1.01367,2.0752-1.2627,3.27441-.25,1.2002-.36621,2.34863-.34668,3.44629-.02246,1.56348.17578,3.05664.5957,4.48242s1.04785,2.52539,1.88281,3.30078c.83496.77441,1.85742.99512,3.06738.66211.86816-.23828,1.78418-.78711,2.75098-1.64746.96484-.8584,1.96875-2.06738,3.01074-3.62695l.75195.72656c-.91016,2.14551-2.07422,4.00684-3.49219,5.58398-1.41895,1.57812-3.03516,2.61621-4.84961,3.11523-1.57812.43359-3.00586.36035-4.28223-.22266Z" style="fill:#ceb53a;"/><path d="M78.27974,138.56101c-1.32031-.80566-2.25586-2.02441-2.80664-3.6582-.55176-1.63379-.66602-3.48926-.34082-5.56934.34766-2.11035,1.08301-4.0957,2.20801-5.95605,1.12598-1.86035,2.49902-3.41211,4.12109-4.65332,1.62207-1.24219,3.30566-2.01855,5.05176-2.32617,1.04785-.18555,2.0752-.20801,3.08203-.06738,1.00781.14062,1.82617.41797,2.45312.83301l.15039,4.37695c.00977.52539-.13867.93848-.44531,1.24219-.30664.30273-.67773.43848-1.1123.4043-.43555-.03418-.79785-.24707-1.08887-.63867-1.10742-1.41016-2.1416-2.36914-3.10449-2.87793-.96191-.50879-1.86035-.68945-2.69238-.54199-.77832.1377-1.45605.49316-2.0332,1.06543-.57812.57324-1.04297,1.27148-1.39551,2.0957-.35352.82324-.59473,1.73145-.72363,2.72363-.23047,1.6748-.1377,3.33398.27734,4.97754s1.14258,2.94141,2.18359,3.8916c1.04102.95312,2.3125,1.29492,3.81641,1.03027,1.10059-.19531,2.18359-.69141,3.24707-1.48926,1.06348-.7959,2.125-1.80078,3.18457-3.01367l.71387.74609c-1.23535,2.10254-2.71191,3.89355-4.42969,5.37402-1.71777,1.47949-3.57129,2.39551-5.55859,2.74707-1.85254.32812-3.43945.08887-4.75781-.71582Z" style="fill:#ceb53a;"/><path d="M96.62545,136.46726c-.33594-.40918-.43555-.93359-.29785-1.57617l2.33105-11.28027c.15527-.75293.41602-1.62988.7832-2.63281s.74023-1.84766,1.12012-2.53711l2.38574,1.03027c-3.56152,1.25879-6.38672,2.63379-8.47754,4.12402l-.64355-.80762,8.875-7.68848c.40625-.36328.82812-.5625,1.2627-.59961.48926-.04102.87305.125,1.15039.49805.27734.37402.34668.86816.20703,1.48047l-2.3877,11.57422c-.17578.83594-.43555,1.72656-.78027,2.67188-.34375.94727-.7168,1.80664-1.11621,2.57812l-2.38965-1.07031c3.56152-1.25879,6.3877-2.63281,8.47852-4.12305l.64258.80762-8.71777,7.5918c-.38477.30664-.76758.47559-1.14844.50781-.51562.04297-.94238-.13965-1.27734-.54883ZM101.74947,111.36179c-.47656-.61621-.62598-1.32812-.44824-2.1377.13281-.69531.48926-1.25879,1.06836-1.69141.5791-.43164,1.23633-.67871,1.96973-.74219.95117-.08008,1.65723.18262,2.11914.78613.46191.60449.60449,1.3252.42871,2.16016-.16113.69824-.52344,1.2627-1.08887,1.69336-.56543.43164-1.20215.67578-1.9082.73535-.95117.08105-1.66504-.1875-2.14062-.80371Z" style="fill:#ceb53a;"/><path d="M113.30611,120.33152c.36133-.99902.71777-1.80859,1.07129-2.42578l2.34668,1.11621c-3.60547,1.12793-6.47852,2.39941-8.62207,3.8125l-.61328-.83008,9.14746-7.36035c.41992-.34863.84863-.5332,1.28418-.55371.49023-.02344.86816.15625,1.13184.53906.26465.38379.3291.87988.19434,1.48535l-.73828,3.39453c-.22363,1.02148-.54492,2.15527-.96289,3.4043s-.7998,2.25-1.14551,3.00391l-.61426.84863c1.55371-3.45996,3.01465-6.15137,4.38281-8.07422,1.36816-1.92188,2.56836-3.22852,3.60059-3.91992,1.03125-.69043,1.96973-1.05664,2.81348-1.09766,1.08984-.05176,2.00879.33398,2.75879,1.15723.74902.82422,1.23438,1.97559,1.45605,3.45215.2207,1.47852.12988,3.12793-.27441,4.94824-.49023,2.31641-1.4043,4.44434-2.74512,6.37695-1.34082,1.93555-2.85059,3.46875-4.5293,4.59961-1.68066,1.13281-3.26855,1.73438-4.7666,1.80566-1.44434.06934-2.53613-.36328-3.27734-1.2959-.74023-.93262-1.10742-2.17871-1.10059-3.73535l1.43457,1.7334-2.44531,11.33887-5.22949.25098,4.62988-21.27344c.17969-.7998.45117-1.7002.8125-2.70117ZM123.30025,132.30222c1.03027-1.27734,1.76953-2.9375,2.21777-4.98047.31152-1.46094.43262-2.94141.36035-4.43945s-.30176-2.72266-.68848-3.67285c-.3877-.95117-.88086-1.41309-1.47949-1.38379-.62695.03027-1.4043.59375-2.33496,1.68848-.92969,1.09668-1.87402,2.47949-2.83105,4.15039-.95801,1.6709-1.76562,3.3125-2.42578,4.92773-.0918.93359,0,1.84961.27539,2.75098.27539.90234.71387,1.63184,1.31348,2.19043s1.33594.81641,2.20801.77441c1.22559-.05859,2.35352-.72754,3.38477-2.00586Z" style="fill:#ceb53a;"/><path d="M136.82174,133.14109c-1.21875-.69824-2.13867-1.78125-2.75879-3.25-.62109-1.46777-.84375-3.1875-.66699-5.15723.18457-2.08301.80371-4.13184,1.85938-6.14648,1.05469-2.01562,2.41309-3.72461,4.0752-5.12793s3.47266-2.2793,5.43262-2.62695c1.6377-.29004,3.08008-.15918,4.32812.39453,1.24805.55469,1.80371,1.61914,1.66797,3.19434-.11719,1.21191-.60547,2.32324-1.46387,3.33398-.85938,1.01172-1.96387,1.96973-3.3125,2.87402-1.34961.9043-3.22266,2.0127-5.62012,3.32324l-2.72168,1.52246.06543-1.50684,2.0791-1.1582c1.84082-1.01953,3.30469-2.13184,4.39258-3.33496,1.08789-1.2041,1.67871-2.48047,1.77246-3.82617.0791-.95605-.12793-1.72949-.62012-2.32031-.49316-.59082-1.18164-.80762-2.06836-.65137-.99316.17773-1.83008.72754-2.51074,1.65137s-1.20117,1.97266-1.56055,3.14355c-.36035,1.17285-.58105,2.30566-.66309,3.40039-.16797,1.55273-.1084,3.05957.17871,4.51758.28613,1.45898.80957,2.6123,1.56934,3.46094.75977.84766,1.75781,1.16211,2.99316.94336.88574-.15723,1.84863-.61914,2.89062-1.38672,1.04004-.76562,2.15137-1.87695,3.33398-3.33398l.68066.79297c-1.10352,2.05176-2.43555,3.79785-3.99316,5.23828-1.55859,1.44043-3.26367,2.32422-5.11621,2.65332-1.61133.28516-3.02637.08008-4.24316-.61719Z" style="fill:#ceb53a;"/><path d="M158.70455,128.95652c-1.7627-.21582-3.28418-.64062-4.56152-1.27734l-.56152-3.50684c-.08398-.45898-.01953-.85547.19141-1.19238.21094-.33496.51367-.53516.90723-.59863s.7998.02637,1.2168.26855c1.87109,1.08203,3.7998,1.81738,5.78711,2.20703s3.55469.40918,4.70312.05762c.44238-.13574.81641-.33594,1.12109-.59961.30371-.26562.45117-.55176.44141-.86328-.01758-.33691-.24219-.69629-.67188-1.07715-.43164-.38184-1.13281-.78711-2.10547-1.2168-.97363-.42969-2.25098-.90039-3.83398-1.41406-2.60156-.85742-4.49609-1.78223-5.68359-2.77344-1.18848-.99023-1.81543-2.24609-1.88086-3.76562-.07422-1.5459.36621-2.8291,1.32422-3.84961.95605-1.02051,2.28223-1.79004,3.97754-2.30957,1.17285-.35938,2.37305-.56152,3.59863-.61035,1.22656-.04688,2.59277.0127,4.09766.17969l.55176,3.33789c.11914.7627-.05762,1.30176-.53125,1.61816s-1.03809.28906-1.69336-.08105c-1.49609-.88086-3.00293-1.54004-4.51855-1.97363-1.51758-.43457-2.67871-.52832-3.4873-.28027-.36523.1123-.66016.28809-.88672.52832-.22559.24023-.33301.51562-.32422.82617.02344.44922.29688.90039.82129,1.35352.52344.45215,1.2334.88379,2.12891,1.29395.89551.41113,1.93359.82031,3.11426,1.22852,1.87305.62402,3.3418,1.25098,4.4043,1.88086,1.06348.63086,1.83789,1.32031,2.32422,2.06836.48633.75.75977,1.64355.82031,2.68066.07812,1.74512-.38672,3.27734-1.39453,4.59766-1.00684,1.32129-2.43652,2.26562-4.28809,2.83203-1.64258.50293-3.3457.64648-5.1084.43066Z" style="fill:#ceb53a;"/></svg>