<svg width="959" height="2823" viewBox="0 0 959 2823" fill="none" xmlns="http://www.w3.org/2000/svg">
<path d="M409.819 979.245L409.598 892.481L409.595 813.604C409.589 692.689 386.631 572.875 341.941 460.524C292.889 337.946 299.449 257.099 314.478 195.75C317.791 182.228 323 169.276 329.227 156.825C363.154 88.9877 428.961 42.7961 504.291 33.9429L538.375 29.9371C571.706 29.9386 608.067 31.9553 644.098 38.6719C792.732 66.3787 846.054 236.692 796.486 379.53C787.633 405.04 777.427 432.061 766.031 460.543L764.536 465.689C731.564 579.13 698.095 694.283 690.274 812.104L685.133 889.549L685.75 967.756C686.437 1054.87 709.618 1140.32 753.045 1215.84C754.195 1217.84 754.418 1220.24 753.416 1222.32C741.679 1246.68 697.977 1292.69 682.933 1356.9C592.245 1743.95 627.716 2279.92 626.295 2721.13C626.153 2765.27 600.481 2801.52 556.35 2802.18C515.728 2802.78 478.062 2770.37 480.004 2729.79C489.578 2529.71 533.505 1973.27 470.168 1507.63C456.499 1407.13 409.507 1313.81 343.882 1236.48C341.839 1234.07 341.509 1230.61 343.097 1227.88C387.012 1152.39 410.041 1066.58 409.819 979.245Z" fill="#54475A" stroke="#1D1C37" stroke-width="41.2243"/>
<path d="M417.532 758.303H695.218M699.321 677.947H399.42" stroke="#1D1C37" stroke-width="27.4829"/>
<path d="M447.294 1420.45C457.024 1446.36 476.484 1507.09 476.484 1542.63M666.221 1420.45C661.356 1438.96 651.626 1489.31 651.626 1542.63M476.484 1420.45C486.214 1446.36 505.674 1507.09 505.674 1542.63M641.585 1419.07C632.423 1461.26 630.819 1493.65 630.819 1541.37M512.282 1421.07C522.012 1446.99 531.497 1486.78 534.865 1542.63M610.285 1421.07C600.882 1445.69 600.204 1481.16 600.204 1541.75M564.055 1420.45V1542.63" stroke="#1D1C37" stroke-width="20.6122"/>
<path d="M539.637 383.776L560.453 529.491C560.678 531.064 562.949 531.064 563.174 529.491L583.991 383.776C584.016 383.6 584.007 383.42 583.963 383.248L563.147 299.982C562.8 298.594 560.828 298.594 560.481 299.982L539.664 383.248C539.621 383.42 539.612 383.6 539.637 383.776Z" fill="#1D1C37"/>
<path d="M528.57 428.365L548.987 540.661C549.271 542.225 547.117 542.943 546.406 541.521L495.425 439.559C495.262 439.234 495.235 438.856 495.351 438.51L505.575 407.837C505.898 406.868 507.128 406.578 507.85 407.3L528.189 427.639C528.387 427.837 528.52 428.09 528.57 428.365Z" fill="#1D1C37"/>
<path d="M595.06 428.359L574.642 540.655C574.358 542.218 576.513 542.936 577.223 541.515L628.204 439.553C628.367 439.227 628.394 438.85 628.279 438.504L618.054 407.831C617.731 406.862 616.501 406.572 615.779 407.294L595.44 427.633C595.242 427.831 595.11 428.084 595.06 428.359Z" fill="#1D1C37"/>
<path d="M634.89 461.417L598.866 547.134C598.251 548.599 600.199 549.766 601.2 548.532L659.695 476.439C659.925 476.156 660.033 475.793 659.995 475.431L657.266 449.224C657.16 448.208 656.022 447.659 655.161 448.208L635.418 460.79C635.182 460.94 634.998 461.159 634.89 461.417Z" fill="#1D1C37"/>
<path d="M487.438 461.423L523.461 547.141C524.077 548.606 522.129 549.773 521.127 548.539L462.632 476.446C462.403 476.163 462.295 475.8 462.333 475.437L465.061 449.231C465.167 448.215 466.305 447.666 467.167 448.215L486.91 460.797C487.145 460.947 487.33 461.166 487.438 461.423Z" fill="#1D1C37"/>
<path d="M484.732 533.927L520.021 582.545C520.953 583.829 519.33 585.409 518.072 584.442L470.384 547.798C470.091 547.572 469.9 547.238 469.857 546.87L467.852 529.934C467.733 528.928 468.707 528.144 469.665 528.474L484.067 533.435C484.334 533.526 484.566 533.698 484.732 533.927Z" fill="#1D1C37"/>
<path d="M635.999 533.92L600.709 582.539C599.778 583.823 601.401 585.402 602.659 584.436L650.346 547.792C650.64 547.566 650.83 547.231 650.874 546.864L652.878 529.928C652.997 528.922 652.024 528.137 651.066 528.467L636.664 533.428C636.397 533.52 636.165 533.692 635.999 533.92Z" fill="#1D1C37"/>
<path d="M635.999 589.463L600.709 638.082C599.778 639.365 601.401 640.945 602.659 639.978L650.346 603.334C650.64 603.109 650.83 602.774 650.874 602.406L652.878 585.471C652.997 584.465 652.024 583.68 651.066 584.01L636.664 588.971C636.397 589.063 636.165 589.234 635.999 589.463Z" fill="#1D1C37"/>
<path d="M484.735 589.456L520.025 638.075C520.956 639.359 519.333 640.938 518.075 639.972L470.388 603.328C470.094 603.102 469.904 602.768 469.86 602.4L467.856 585.464C467.737 584.458 468.71 583.674 469.668 584.004L484.07 588.964C484.337 589.056 484.569 589.228 484.735 589.456Z" fill="#1D1C37"/>
<path d="M426.074 198.859L415.392 145.451C415.194 144.462 416.094 143.604 417.073 143.849L458.162 154.121C458.858 154.295 459.571 153.903 459.799 153.222L481.11 89.2879C481.374 88.4945 482.28 88.1194 483.028 88.4933L524.903 109.431C525.545 109.752 526.326 109.524 526.696 108.909L558.185 56.4263C558.719 55.5367 560.008 55.5367 560.542 56.4263L592.031 108.909C592.4 109.524 593.182 109.752 593.824 109.431L635.451 88.6168C636.278 88.2034 637.269 88.708 637.421 89.62L647.978 152.961C648.11 153.752 648.889 154.263 649.667 154.068L690.546 143.849C691.525 143.604 692.425 144.462 692.227 145.451L681.545 198.859" stroke="#1D1C37" stroke-width="20.6122"/>
<path d="M508.73 135.285L498.724 155.297C498.439 155.868 498.592 156.566 499.082 156.973C531.935 184.229 553.774 195.429 553.774 228.469C553.774 193.684 589.235 166.701 608.101 156.888C608.774 156.538 609.036 155.72 608.697 155.042L598.819 135.285C598.479 134.606 597.654 134.331 596.975 134.67L576.875 144.72C576.346 144.985 575.707 144.881 575.289 144.463L554.746 123.92C554.209 123.383 553.339 123.383 552.803 123.92L532.26 144.463C531.841 144.881 531.203 144.985 530.673 144.72L510.574 134.67C509.895 134.331 509.069 134.606 508.73 135.285Z" fill="#1D1C37"/>
<path d="M404.978 399.418L480.312 302.56C481.823 300.617 482.263 298.048 481.485 295.713C479.028 288.343 466.216 288.959 462.643 295.857C453.951 312.632 439.029 322.394 416.086 299.45C381.073 264.438 415.039 240.922 437.296 233.149C437.971 232.913 438.634 232.743 439.339 232.623C480.394 225.607 560.481 238.147 560.481 343.88" stroke="#1D1C37" stroke-width="27.4829"/>
<path d="M716.718 403.054L641.385 306.197C639.874 304.254 639.434 301.685 640.212 299.349C642.669 291.98 655.48 292.596 659.054 299.493C667.746 316.269 682.667 326.031 705.611 303.087C740.623 268.075 706.658 244.559 684.401 236.785C683.726 236.55 683.063 236.38 682.358 236.259C641.303 229.244 561.216 241.784 561.216 347.517" stroke="#1D1C37" stroke-width="27.4829"/>
<circle cx="547.14" cy="700.162" r="15.3442" fill="#1D1C37" stroke="#1D1C37" stroke-width="13.7415"/>
<path d="M422.227 1224.64C473.559 1142.8 502.64 1035.24 473.314 821.202C473.201 820.376 473.81 819.616 474.643 819.616H619.133C619.971 819.616 620.602 820.375 620.482 821.204C591.405 1022.19 620.557 1162.48 681.658 1217.93C682.214 1218.43 682.254 1219.28 681.767 1219.85C641.335 1267.17 620.908 1301.44 605.464 1372.52C605.329 1373.14 604.785 1373.6 604.151 1373.62L507.365 1376.03C506.681 1376.05 506.088 1375.56 505.974 1374.88C496.99 1321.47 483.104 1273.95 422.559 1226.47C422.003 1226.03 421.851 1225.24 422.227 1224.64Z" stroke="#1D1C37" stroke-width="27.4829"/>
<path d="M394.083 733.162L430.702 708.273C431.171 707.955 431.787 707.956 432.254 708.278L466.07 731.563C466.536 731.885 467.153 731.886 467.621 731.568L503.463 707.207C503.932 706.889 504.548 706.891 505.015 707.212L538.926 730.563C539.344 730.851 539.886 730.885 540.336 730.652L588.396 705.814C588.847 705.581 589.389 705.615 589.807 705.903L623.718 729.254C624.185 729.575 624.801 729.577 625.27 729.259L661.111 704.898C661.58 704.58 662.196 704.581 662.663 704.903L697.253 728.721" stroke="#1D1C37" stroke-width="20.6122"/>
<rect x="607.253" y="719.131" width="80.447" height="80.447" transform="rotate(134.953 607.253 719.131)" fill="#54475A" stroke="#1D1C37" stroke-width="27.4829"/>
</svg>
